M48
; DRILL file {KiCad (5.1.10)-1} date 11/01/21 22:44:28
; FORMAT={-:-/ absolute / inch / decimal}
; #@! TF.CreationDate,2021-11-01T22:44:28-04:00
; #@! TF.GenerationSoftware,Kicad,Pcbnew,(5.1.10)-1
FMAT,2
INCH
T1C0.0079
%
G90
G05
T1
X0.0197Y0.4173
X0.0197Y-0.4291
X0.0197Y-1.2756
X0.0197Y-2.122
X0.1299Y0.1496
X0.1299Y-0.6969
X0.1299Y-1.5433
X0.1299Y-2.3898
X0.1496Y0.1496
X0.1496Y-0.6969
X0.1496Y-1.5433
X0.1496Y-2.3898
X0.4094Y0.4094
X0.4094Y-0.437
X0.4094Y-1.2835
X0.4094Y-2.1299
X0.8661Y0.4173
X0.8661Y-0.4291
X0.8661Y-1.2756
X0.8661Y-2.122
X0.9764Y0.1496
X0.9764Y-0.6969
X0.9764Y-1.5433
X0.9764Y-2.3898
X0.9961Y0.1496
X0.9961Y-0.6969
X0.9961Y-1.5433
X0.9961Y-2.3898
X1.2559Y0.4094
X1.2559Y-0.437
X1.2559Y-1.2835
X1.2559Y-2.1299
X1.7126Y0.4173
X1.7126Y-0.4291
X1.7126Y-1.2756
X1.7126Y-2.122
X1.8228Y0.1496
X1.8228Y-0.6969
X1.8228Y-1.5433
X1.8228Y-2.3898
X1.8425Y0.1496
X1.8425Y-0.6969
X1.8425Y-1.5433
X1.8425Y-2.3898
X2.1024Y0.4094
X2.1024Y-0.437
X2.1024Y-1.2835
X2.1024Y-2.1299
X2.5591Y0.4173
X2.5591Y-0.4291
X2.5591Y-1.2756
X2.5591Y-2.122
X2.6693Y0.1496
X2.6693Y-0.6969
X2.6693Y-1.5433
X2.6693Y-2.3898
X2.689Y0.1496
X2.689Y-0.6969
X2.689Y-1.5433
X2.689Y-2.3898
X2.9488Y0.4094
X2.9488Y-0.437
X2.9488Y-1.2835
X2.9488Y-2.1299
T0
M30
