%TF.GenerationSoftware,KiCad,Pcbnew,(5.1.10)-1*%
%TF.CreationDate,2021-11-01T22:44:31-04:00*%
%TF.ProjectId,PCB coil,50434220-636f-4696-9c2e-6b696361645f,rev?*%
%TF.SameCoordinates,Original*%
%TF.FileFunction,Profile,NP*%
%FSLAX46Y46*%
G04 Gerber Fmt 4.6, Leading zero omitted, Abs format (unit mm)*
G04 Created by KiCad (PCBNEW (5.1.10)-1) date 2021-11-01 22:44:31*
%MOMM*%
%LPD*%
G01*
G04 APERTURE LIST*
%TA.AperFunction,Profile*%
%ADD10C,0.050000*%
%TD*%
G04 APERTURE END LIST*
D10*
X-10000000Y-74500000D02*
X-10000000Y11500000D01*
X76000000Y-74500000D02*
X-10000000Y-74500000D01*
X76000000Y11500000D02*
X76000000Y-74500000D01*
X-10000000Y11500000D02*
X76000000Y11500000D01*
X25500000Y-64500000D02*
G75*
G03*
X25500000Y-64500000I-4000000J0D01*
G01*
X4000000Y-64500000D02*
G75*
G03*
X4000000Y-64500000I-4000000J0D01*
G01*
X68500000Y-64500000D02*
G75*
G03*
X68500000Y-64500000I-4000000J0D01*
G01*
X25500000Y-43000000D02*
G75*
G03*
X25500000Y-43000000I-4000000J0D01*
G01*
X47000000Y-64500000D02*
G75*
G03*
X47000000Y-64500000I-4000000J0D01*
G01*
X47000000Y-43000000D02*
G75*
G03*
X47000000Y-43000000I-4000000J0D01*
G01*
X68500000Y-43000000D02*
G75*
G03*
X68500000Y-43000000I-4000000J0D01*
G01*
X4000000Y-43000000D02*
G75*
G03*
X4000000Y-43000000I-4000000J0D01*
G01*
X25500000Y-21500000D02*
G75*
G03*
X25500000Y-21500000I-4000000J0D01*
G01*
X47000000Y-21500000D02*
G75*
G03*
X47000000Y-21500000I-4000000J0D01*
G01*
X68500000Y-21500000D02*
G75*
G03*
X68500000Y-21500000I-4000000J0D01*
G01*
X4000000Y-21500000D02*
G75*
G03*
X4000000Y-21500000I-4000000J0D01*
G01*
X68500000Y0D02*
G75*
G03*
X68500000Y0I-4000000J0D01*
G01*
X47000000Y0D02*
G75*
G03*
X47000000Y0I-4000000J0D01*
G01*
X25500000Y0D02*
G75*
G03*
X25500000Y0I-4000000J0D01*
G01*
X4000000Y0D02*
G75*
G03*
X4000000Y0I-4000000J0D01*
G01*
M02*
