%TF.GenerationSoftware,KiCad,Pcbnew,(5.1.10)-1*%
%TF.CreationDate,2021-11-01T22:44:30-04:00*%
%TF.ProjectId,PCB coil,50434220-636f-4696-9c2e-6b696361645f,rev?*%
%TF.SameCoordinates,Original*%
%TF.FileFunction,Copper,L1,Top*%
%TF.FilePolarity,Positive*%
%FSLAX46Y46*%
G04 Gerber Fmt 4.6, Leading zero omitted, Abs format (unit mm)*
G04 Created by KiCad (PCBNEW (5.1.10)-1) date 2021-11-01 22:44:30*
%MOMM*%
%LPD*%
G01*
G04 APERTURE LIST*
%TA.AperFunction,ViaPad*%
%ADD10C,0.400000*%
%TD*%
%TA.AperFunction,Conductor*%
%ADD11C,0.152000*%
%TD*%
G04 APERTURE END LIST*
%TO.P,REF\u002A\u002A,1*%
%TO.N,N/C*%
%TA.AperFunction,SMDPad,CuDef*%
G36*
G01*
X45750000Y-32900000D02*
X44250000Y-32900000D01*
G75*
G02*
X44000000Y-32650000I0J250000D01*
G01*
X44000000Y-32150000D01*
G75*
G02*
X44250000Y-31900000I250000J0D01*
G01*
X45750000Y-31900000D01*
G75*
G02*
X46000000Y-32150000I0J-250000D01*
G01*
X46000000Y-32650000D01*
G75*
G02*
X45750000Y-32900000I-250000J0D01*
G01*
G37*
%TD.AperFunction*%
%TD*%
%TO.P,REF\u002A\u002A,1*%
%TO.N,N/C*%
%TA.AperFunction,SMDPad,CuDef*%
G36*
G01*
X30650000Y-32900000D02*
X29150000Y-32900000D01*
G75*
G02*
X28900000Y-32650000I0J250000D01*
G01*
X28900000Y-32150000D01*
G75*
G02*
X29150000Y-31900000I250000J0D01*
G01*
X30650000Y-31900000D01*
G75*
G02*
X30900000Y-32150000I0J-250000D01*
G01*
X30900000Y-32650000D01*
G75*
G02*
X30650000Y-32900000I-250000J0D01*
G01*
G37*
%TD.AperFunction*%
%TD*%
%TO.P,REF\u002A\u002A,1*%
%TO.N,N/C*%
%TA.AperFunction,SMDPad,CuDef*%
G36*
G01*
X24250000Y-32900000D02*
X22750000Y-32900000D01*
G75*
G02*
X22500000Y-32650000I0J250000D01*
G01*
X22500000Y-32150000D01*
G75*
G02*
X22750000Y-31900000I250000J0D01*
G01*
X24250000Y-31900000D01*
G75*
G02*
X24500000Y-32150000I0J-250000D01*
G01*
X24500000Y-32650000D01*
G75*
G02*
X24250000Y-32900000I-250000J0D01*
G01*
G37*
%TD.AperFunction*%
%TD*%
%TO.P,REF\u002A\u002A,2*%
%TO.N,N/C*%
%TA.AperFunction,SMDPad,CuDef*%
G36*
G01*
X5525000Y-54150000D02*
X5525000Y-53650000D01*
G75*
G02*
X5750000Y-53425000I225000J0D01*
G01*
X6200000Y-53425000D01*
G75*
G02*
X6425000Y-53650000I0J-225000D01*
G01*
X6425000Y-54150000D01*
G75*
G02*
X6200000Y-54375000I-225000J0D01*
G01*
X5750000Y-54375000D01*
G75*
G02*
X5525000Y-54150000I0J225000D01*
G01*
G37*
%TD.AperFunction*%
%TO.P,REF\u002A\u002A,1*%
%TA.AperFunction,SMDPad,CuDef*%
G36*
G01*
X3975000Y-54150000D02*
X3975000Y-53650000D01*
G75*
G02*
X4200000Y-53425000I225000J0D01*
G01*
X4650000Y-53425000D01*
G75*
G02*
X4875000Y-53650000I0J-225000D01*
G01*
X4875000Y-54150000D01*
G75*
G02*
X4650000Y-54375000I-225000J0D01*
G01*
X4200000Y-54375000D01*
G75*
G02*
X3975000Y-54150000I0J225000D01*
G01*
G37*
%TD.AperFunction*%
%TD*%
%TO.P,REF\u002A\u002A,1*%
%TO.N,N/C*%
%TA.AperFunction,SMDPad,CuDef*%
G36*
G01*
X67250000Y-32900000D02*
X65750000Y-32900000D01*
G75*
G02*
X65500000Y-32650000I0J250000D01*
G01*
X65500000Y-32150000D01*
G75*
G02*
X65750000Y-31900000I250000J0D01*
G01*
X67250000Y-31900000D01*
G75*
G02*
X67500000Y-32150000I0J-250000D01*
G01*
X67500000Y-32650000D01*
G75*
G02*
X67250000Y-32900000I-250000J0D01*
G01*
G37*
%TD.AperFunction*%
%TD*%
%TO.P,REF\u002A\u002A,1*%
%TO.N,N/C*%
%TA.AperFunction,SMDPad,CuDef*%
G36*
G01*
X2750000Y-54400000D02*
X1250000Y-54400000D01*
G75*
G02*
X1000000Y-54150000I0J250000D01*
G01*
X1000000Y-53650000D01*
G75*
G02*
X1250000Y-53400000I250000J0D01*
G01*
X2750000Y-53400000D01*
G75*
G02*
X3000000Y-53650000I0J-250000D01*
G01*
X3000000Y-54150000D01*
G75*
G02*
X2750000Y-54400000I-250000J0D01*
G01*
G37*
%TD.AperFunction*%
%TD*%
%TO.P,REF\u002A\u002A,2*%
%TO.N,N/C*%
%TA.AperFunction,SMDPad,CuDef*%
G36*
G01*
X48525000Y-32650000D02*
X48525000Y-32150000D01*
G75*
G02*
X48750000Y-31925000I225000J0D01*
G01*
X49200000Y-31925000D01*
G75*
G02*
X49425000Y-32150000I0J-225000D01*
G01*
X49425000Y-32650000D01*
G75*
G02*
X49200000Y-32875000I-225000J0D01*
G01*
X48750000Y-32875000D01*
G75*
G02*
X48525000Y-32650000I0J225000D01*
G01*
G37*
%TD.AperFunction*%
%TO.P,REF\u002A\u002A,1*%
%TA.AperFunction,SMDPad,CuDef*%
G36*
G01*
X46975000Y-32650000D02*
X46975000Y-32150000D01*
G75*
G02*
X47200000Y-31925000I225000J0D01*
G01*
X47650000Y-31925000D01*
G75*
G02*
X47875000Y-32150000I0J-225000D01*
G01*
X47875000Y-32650000D01*
G75*
G02*
X47650000Y-32875000I-225000J0D01*
G01*
X47200000Y-32875000D01*
G75*
G02*
X46975000Y-32650000I0J225000D01*
G01*
G37*
%TD.AperFunction*%
%TD*%
%TO.P,REF\u002A\u002A,1*%
%TO.N,N/C*%
%TA.AperFunction,SMDPad,CuDef*%
G36*
G01*
X68475000Y-32650000D02*
X68475000Y-32150000D01*
G75*
G02*
X68700000Y-31925000I225000J0D01*
G01*
X69150000Y-31925000D01*
G75*
G02*
X69375000Y-32150000I0J-225000D01*
G01*
X69375000Y-32650000D01*
G75*
G02*
X69150000Y-32875000I-225000J0D01*
G01*
X68700000Y-32875000D01*
G75*
G02*
X68475000Y-32650000I0J225000D01*
G01*
G37*
%TD.AperFunction*%
%TO.P,REF\u002A\u002A,2*%
%TA.AperFunction,SMDPad,CuDef*%
G36*
G01*
X70025000Y-32650000D02*
X70025000Y-32150000D01*
G75*
G02*
X70250000Y-31925000I225000J0D01*
G01*
X70700000Y-31925000D01*
G75*
G02*
X70925000Y-32150000I0J-225000D01*
G01*
X70925000Y-32650000D01*
G75*
G02*
X70700000Y-32875000I-225000J0D01*
G01*
X70250000Y-32875000D01*
G75*
G02*
X70025000Y-32650000I0J225000D01*
G01*
G37*
%TD.AperFunction*%
%TD*%
%TO.P,REF\u002A\u002A,1*%
%TO.N,N/C*%
%TA.AperFunction,SMDPad,CuDef*%
G36*
G01*
X25475000Y-54150000D02*
X25475000Y-53650000D01*
G75*
G02*
X25700000Y-53425000I225000J0D01*
G01*
X26150000Y-53425000D01*
G75*
G02*
X26375000Y-53650000I0J-225000D01*
G01*
X26375000Y-54150000D01*
G75*
G02*
X26150000Y-54375000I-225000J0D01*
G01*
X25700000Y-54375000D01*
G75*
G02*
X25475000Y-54150000I0J225000D01*
G01*
G37*
%TD.AperFunction*%
%TO.P,REF\u002A\u002A,2*%
%TA.AperFunction,SMDPad,CuDef*%
G36*
G01*
X27025000Y-54150000D02*
X27025000Y-53650000D01*
G75*
G02*
X27250000Y-53425000I225000J0D01*
G01*
X27700000Y-53425000D01*
G75*
G02*
X27925000Y-53650000I0J-225000D01*
G01*
X27925000Y-54150000D01*
G75*
G02*
X27700000Y-54375000I-225000J0D01*
G01*
X27250000Y-54375000D01*
G75*
G02*
X27025000Y-54150000I0J225000D01*
G01*
G37*
%TD.AperFunction*%
%TD*%
%TO.P,REF\u002A\u002A,1*%
%TO.N,N/C*%
%TA.AperFunction,SMDPad,CuDef*%
G36*
G01*
X73650000Y-32900000D02*
X72150000Y-32900000D01*
G75*
G02*
X71900000Y-32650000I0J250000D01*
G01*
X71900000Y-32150000D01*
G75*
G02*
X72150000Y-31900000I250000J0D01*
G01*
X73650000Y-31900000D01*
G75*
G02*
X73900000Y-32150000I0J-250000D01*
G01*
X73900000Y-32650000D01*
G75*
G02*
X73650000Y-32900000I-250000J0D01*
G01*
G37*
%TD.AperFunction*%
%TD*%
%TO.P,REF\u002A\u002A,1*%
%TO.N,N/C*%
%TA.AperFunction,SMDPad,CuDef*%
G36*
G01*
X52150000Y-32900000D02*
X50650000Y-32900000D01*
G75*
G02*
X50400000Y-32650000I0J250000D01*
G01*
X50400000Y-32150000D01*
G75*
G02*
X50650000Y-31900000I250000J0D01*
G01*
X52150000Y-31900000D01*
G75*
G02*
X52400000Y-32150000I0J-250000D01*
G01*
X52400000Y-32650000D01*
G75*
G02*
X52150000Y-32900000I-250000J0D01*
G01*
G37*
%TD.AperFunction*%
%TD*%
%TO.P,REF\u002A\u002A,1*%
%TO.N,N/C*%
%TA.AperFunction,SMDPad,CuDef*%
G36*
G01*
X67250000Y-54400000D02*
X65750000Y-54400000D01*
G75*
G02*
X65500000Y-54150000I0J250000D01*
G01*
X65500000Y-53650000D01*
G75*
G02*
X65750000Y-53400000I250000J0D01*
G01*
X67250000Y-53400000D01*
G75*
G02*
X67500000Y-53650000I0J-250000D01*
G01*
X67500000Y-54150000D01*
G75*
G02*
X67250000Y-54400000I-250000J0D01*
G01*
G37*
%TD.AperFunction*%
%TD*%
%TO.P,REF\u002A\u002A,1*%
%TO.N,N/C*%
%TA.AperFunction,SMDPad,CuDef*%
G36*
G01*
X73650000Y-54400000D02*
X72150000Y-54400000D01*
G75*
G02*
X71900000Y-54150000I0J250000D01*
G01*
X71900000Y-53650000D01*
G75*
G02*
X72150000Y-53400000I250000J0D01*
G01*
X73650000Y-53400000D01*
G75*
G02*
X73900000Y-53650000I0J-250000D01*
G01*
X73900000Y-54150000D01*
G75*
G02*
X73650000Y-54400000I-250000J0D01*
G01*
G37*
%TD.AperFunction*%
%TD*%
%TO.P,REF\u002A\u002A,1*%
%TO.N,N/C*%
%TA.AperFunction,SMDPad,CuDef*%
G36*
G01*
X30650000Y-54400000D02*
X29150000Y-54400000D01*
G75*
G02*
X28900000Y-54150000I0J250000D01*
G01*
X28900000Y-53650000D01*
G75*
G02*
X29150000Y-53400000I250000J0D01*
G01*
X30650000Y-53400000D01*
G75*
G02*
X30900000Y-53650000I0J-250000D01*
G01*
X30900000Y-54150000D01*
G75*
G02*
X30650000Y-54400000I-250000J0D01*
G01*
G37*
%TD.AperFunction*%
%TD*%
%TO.P,REF\u002A\u002A,1*%
%TO.N,N/C*%
%TA.AperFunction,SMDPad,CuDef*%
G36*
G01*
X46975000Y-54150000D02*
X46975000Y-53650000D01*
G75*
G02*
X47200000Y-53425000I225000J0D01*
G01*
X47650000Y-53425000D01*
G75*
G02*
X47875000Y-53650000I0J-225000D01*
G01*
X47875000Y-54150000D01*
G75*
G02*
X47650000Y-54375000I-225000J0D01*
G01*
X47200000Y-54375000D01*
G75*
G02*
X46975000Y-54150000I0J225000D01*
G01*
G37*
%TD.AperFunction*%
%TO.P,REF\u002A\u002A,2*%
%TA.AperFunction,SMDPad,CuDef*%
G36*
G01*
X48525000Y-54150000D02*
X48525000Y-53650000D01*
G75*
G02*
X48750000Y-53425000I225000J0D01*
G01*
X49200000Y-53425000D01*
G75*
G02*
X49425000Y-53650000I0J-225000D01*
G01*
X49425000Y-54150000D01*
G75*
G02*
X49200000Y-54375000I-225000J0D01*
G01*
X48750000Y-54375000D01*
G75*
G02*
X48525000Y-54150000I0J225000D01*
G01*
G37*
%TD.AperFunction*%
%TD*%
%TO.P,REF\u002A\u002A,1*%
%TO.N,N/C*%
%TA.AperFunction,SMDPad,CuDef*%
G36*
G01*
X24250000Y-54400000D02*
X22750000Y-54400000D01*
G75*
G02*
X22500000Y-54150000I0J250000D01*
G01*
X22500000Y-53650000D01*
G75*
G02*
X22750000Y-53400000I250000J0D01*
G01*
X24250000Y-53400000D01*
G75*
G02*
X24500000Y-53650000I0J-250000D01*
G01*
X24500000Y-54150000D01*
G75*
G02*
X24250000Y-54400000I-250000J0D01*
G01*
G37*
%TD.AperFunction*%
%TD*%
%TO.P,REF\u002A\u002A,2*%
%TO.N,N/C*%
%TA.AperFunction,SMDPad,CuDef*%
G36*
G01*
X70025000Y-54150000D02*
X70025000Y-53650000D01*
G75*
G02*
X70250000Y-53425000I225000J0D01*
G01*
X70700000Y-53425000D01*
G75*
G02*
X70925000Y-53650000I0J-225000D01*
G01*
X70925000Y-54150000D01*
G75*
G02*
X70700000Y-54375000I-225000J0D01*
G01*
X70250000Y-54375000D01*
G75*
G02*
X70025000Y-54150000I0J225000D01*
G01*
G37*
%TD.AperFunction*%
%TO.P,REF\u002A\u002A,1*%
%TA.AperFunction,SMDPad,CuDef*%
G36*
G01*
X68475000Y-54150000D02*
X68475000Y-53650000D01*
G75*
G02*
X68700000Y-53425000I225000J0D01*
G01*
X69150000Y-53425000D01*
G75*
G02*
X69375000Y-53650000I0J-225000D01*
G01*
X69375000Y-54150000D01*
G75*
G02*
X69150000Y-54375000I-225000J0D01*
G01*
X68700000Y-54375000D01*
G75*
G02*
X68475000Y-54150000I0J225000D01*
G01*
G37*
%TD.AperFunction*%
%TD*%
%TO.P,REF\u002A\u002A,1*%
%TO.N,N/C*%
%TA.AperFunction,SMDPad,CuDef*%
G36*
G01*
X45750000Y-54400000D02*
X44250000Y-54400000D01*
G75*
G02*
X44000000Y-54150000I0J250000D01*
G01*
X44000000Y-53650000D01*
G75*
G02*
X44250000Y-53400000I250000J0D01*
G01*
X45750000Y-53400000D01*
G75*
G02*
X46000000Y-53650000I0J-250000D01*
G01*
X46000000Y-54150000D01*
G75*
G02*
X45750000Y-54400000I-250000J0D01*
G01*
G37*
%TD.AperFunction*%
%TD*%
%TO.P,REF\u002A\u002A,1*%
%TO.N,N/C*%
%TA.AperFunction,SMDPad,CuDef*%
G36*
G01*
X52150000Y-54400000D02*
X50650000Y-54400000D01*
G75*
G02*
X50400000Y-54150000I0J250000D01*
G01*
X50400000Y-53650000D01*
G75*
G02*
X50650000Y-53400000I250000J0D01*
G01*
X52150000Y-53400000D01*
G75*
G02*
X52400000Y-53650000I0J-250000D01*
G01*
X52400000Y-54150000D01*
G75*
G02*
X52150000Y-54400000I-250000J0D01*
G01*
G37*
%TD.AperFunction*%
%TD*%
%TO.P,REF\u002A\u002A,1*%
%TO.N,N/C*%
%TA.AperFunction,SMDPad,CuDef*%
G36*
G01*
X9150000Y-54400000D02*
X7650000Y-54400000D01*
G75*
G02*
X7400000Y-54150000I0J250000D01*
G01*
X7400000Y-53650000D01*
G75*
G02*
X7650000Y-53400000I250000J0D01*
G01*
X9150000Y-53400000D01*
G75*
G02*
X9400000Y-53650000I0J-250000D01*
G01*
X9400000Y-54150000D01*
G75*
G02*
X9150000Y-54400000I-250000J0D01*
G01*
G37*
%TD.AperFunction*%
%TD*%
%TO.P,REF\u002A\u002A,1*%
%TO.N,N/C*%
%TA.AperFunction,SMDPad,CuDef*%
G36*
G01*
X9150000Y-32900000D02*
X7650000Y-32900000D01*
G75*
G02*
X7400000Y-32650000I0J250000D01*
G01*
X7400000Y-32150000D01*
G75*
G02*
X7650000Y-31900000I250000J0D01*
G01*
X9150000Y-31900000D01*
G75*
G02*
X9400000Y-32150000I0J-250000D01*
G01*
X9400000Y-32650000D01*
G75*
G02*
X9150000Y-32900000I-250000J0D01*
G01*
G37*
%TD.AperFunction*%
%TD*%
%TO.P,REF\u002A\u002A,1*%
%TO.N,N/C*%
%TA.AperFunction,SMDPad,CuDef*%
G36*
G01*
X2750000Y-32900000D02*
X1250000Y-32900000D01*
G75*
G02*
X1000000Y-32650000I0J250000D01*
G01*
X1000000Y-32150000D01*
G75*
G02*
X1250000Y-31900000I250000J0D01*
G01*
X2750000Y-31900000D01*
G75*
G02*
X3000000Y-32150000I0J-250000D01*
G01*
X3000000Y-32650000D01*
G75*
G02*
X2750000Y-32900000I-250000J0D01*
G01*
G37*
%TD.AperFunction*%
%TD*%
%TO.P,REF\u002A\u002A,1*%
%TO.N,N/C*%
%TA.AperFunction,SMDPad,CuDef*%
G36*
G01*
X3975000Y-32650000D02*
X3975000Y-32150000D01*
G75*
G02*
X4200000Y-31925000I225000J0D01*
G01*
X4650000Y-31925000D01*
G75*
G02*
X4875000Y-32150000I0J-225000D01*
G01*
X4875000Y-32650000D01*
G75*
G02*
X4650000Y-32875000I-225000J0D01*
G01*
X4200000Y-32875000D01*
G75*
G02*
X3975000Y-32650000I0J225000D01*
G01*
G37*
%TD.AperFunction*%
%TO.P,REF\u002A\u002A,2*%
%TA.AperFunction,SMDPad,CuDef*%
G36*
G01*
X5525000Y-32650000D02*
X5525000Y-32150000D01*
G75*
G02*
X5750000Y-31925000I225000J0D01*
G01*
X6200000Y-31925000D01*
G75*
G02*
X6425000Y-32150000I0J-225000D01*
G01*
X6425000Y-32650000D01*
G75*
G02*
X6200000Y-32875000I-225000J0D01*
G01*
X5750000Y-32875000D01*
G75*
G02*
X5525000Y-32650000I0J225000D01*
G01*
G37*
%TD.AperFunction*%
%TD*%
%TO.P,REF\u002A\u002A,2*%
%TO.N,N/C*%
%TA.AperFunction,SMDPad,CuDef*%
G36*
G01*
X27025000Y-32650000D02*
X27025000Y-32150000D01*
G75*
G02*
X27250000Y-31925000I225000J0D01*
G01*
X27700000Y-31925000D01*
G75*
G02*
X27925000Y-32150000I0J-225000D01*
G01*
X27925000Y-32650000D01*
G75*
G02*
X27700000Y-32875000I-225000J0D01*
G01*
X27250000Y-32875000D01*
G75*
G02*
X27025000Y-32650000I0J225000D01*
G01*
G37*
%TD.AperFunction*%
%TO.P,REF\u002A\u002A,1*%
%TA.AperFunction,SMDPad,CuDef*%
G36*
G01*
X25475000Y-32650000D02*
X25475000Y-32150000D01*
G75*
G02*
X25700000Y-31925000I225000J0D01*
G01*
X26150000Y-31925000D01*
G75*
G02*
X26375000Y-32150000I0J-225000D01*
G01*
X26375000Y-32650000D01*
G75*
G02*
X26150000Y-32875000I-225000J0D01*
G01*
X25700000Y-32875000D01*
G75*
G02*
X25475000Y-32650000I0J225000D01*
G01*
G37*
%TD.AperFunction*%
%TD*%
%TO.P,REF\u002A\u002A,1*%
%TO.N,N/C*%
%TA.AperFunction,SMDPad,CuDef*%
G36*
G01*
X45750000Y-11400000D02*
X44250000Y-11400000D01*
G75*
G02*
X44000000Y-11150000I0J250000D01*
G01*
X44000000Y-10650000D01*
G75*
G02*
X44250000Y-10400000I250000J0D01*
G01*
X45750000Y-10400000D01*
G75*
G02*
X46000000Y-10650000I0J-250000D01*
G01*
X46000000Y-11150000D01*
G75*
G02*
X45750000Y-11400000I-250000J0D01*
G01*
G37*
%TD.AperFunction*%
%TD*%
%TO.P,REF\u002A\u002A,1*%
%TO.N,N/C*%
%TA.AperFunction,SMDPad,CuDef*%
G36*
G01*
X30650000Y-11400000D02*
X29150000Y-11400000D01*
G75*
G02*
X28900000Y-11150000I0J250000D01*
G01*
X28900000Y-10650000D01*
G75*
G02*
X29150000Y-10400000I250000J0D01*
G01*
X30650000Y-10400000D01*
G75*
G02*
X30900000Y-10650000I0J-250000D01*
G01*
X30900000Y-11150000D01*
G75*
G02*
X30650000Y-11400000I-250000J0D01*
G01*
G37*
%TD.AperFunction*%
%TD*%
%TO.P,REF\u002A\u002A,1*%
%TO.N,N/C*%
%TA.AperFunction,SMDPad,CuDef*%
G36*
G01*
X24250000Y-11400000D02*
X22750000Y-11400000D01*
G75*
G02*
X22500000Y-11150000I0J250000D01*
G01*
X22500000Y-10650000D01*
G75*
G02*
X22750000Y-10400000I250000J0D01*
G01*
X24250000Y-10400000D01*
G75*
G02*
X24500000Y-10650000I0J-250000D01*
G01*
X24500000Y-11150000D01*
G75*
G02*
X24250000Y-11400000I-250000J0D01*
G01*
G37*
%TD.AperFunction*%
%TD*%
%TO.P,REF\u002A\u002A,1*%
%TO.N,N/C*%
%TA.AperFunction,SMDPad,CuDef*%
G36*
G01*
X67250000Y-11400000D02*
X65750000Y-11400000D01*
G75*
G02*
X65500000Y-11150000I0J250000D01*
G01*
X65500000Y-10650000D01*
G75*
G02*
X65750000Y-10400000I250000J0D01*
G01*
X67250000Y-10400000D01*
G75*
G02*
X67500000Y-10650000I0J-250000D01*
G01*
X67500000Y-11150000D01*
G75*
G02*
X67250000Y-11400000I-250000J0D01*
G01*
G37*
%TD.AperFunction*%
%TD*%
%TO.P,REF\u002A\u002A,2*%
%TO.N,N/C*%
%TA.AperFunction,SMDPad,CuDef*%
G36*
G01*
X48525000Y-11150000D02*
X48525000Y-10650000D01*
G75*
G02*
X48750000Y-10425000I225000J0D01*
G01*
X49200000Y-10425000D01*
G75*
G02*
X49425000Y-10650000I0J-225000D01*
G01*
X49425000Y-11150000D01*
G75*
G02*
X49200000Y-11375000I-225000J0D01*
G01*
X48750000Y-11375000D01*
G75*
G02*
X48525000Y-11150000I0J225000D01*
G01*
G37*
%TD.AperFunction*%
%TO.P,REF\u002A\u002A,1*%
%TA.AperFunction,SMDPad,CuDef*%
G36*
G01*
X46975000Y-11150000D02*
X46975000Y-10650000D01*
G75*
G02*
X47200000Y-10425000I225000J0D01*
G01*
X47650000Y-10425000D01*
G75*
G02*
X47875000Y-10650000I0J-225000D01*
G01*
X47875000Y-11150000D01*
G75*
G02*
X47650000Y-11375000I-225000J0D01*
G01*
X47200000Y-11375000D01*
G75*
G02*
X46975000Y-11150000I0J225000D01*
G01*
G37*
%TD.AperFunction*%
%TD*%
%TO.P,REF\u002A\u002A,1*%
%TO.N,N/C*%
%TA.AperFunction,SMDPad,CuDef*%
G36*
G01*
X68475000Y-11150000D02*
X68475000Y-10650000D01*
G75*
G02*
X68700000Y-10425000I225000J0D01*
G01*
X69150000Y-10425000D01*
G75*
G02*
X69375000Y-10650000I0J-225000D01*
G01*
X69375000Y-11150000D01*
G75*
G02*
X69150000Y-11375000I-225000J0D01*
G01*
X68700000Y-11375000D01*
G75*
G02*
X68475000Y-11150000I0J225000D01*
G01*
G37*
%TD.AperFunction*%
%TO.P,REF\u002A\u002A,2*%
%TA.AperFunction,SMDPad,CuDef*%
G36*
G01*
X70025000Y-11150000D02*
X70025000Y-10650000D01*
G75*
G02*
X70250000Y-10425000I225000J0D01*
G01*
X70700000Y-10425000D01*
G75*
G02*
X70925000Y-10650000I0J-225000D01*
G01*
X70925000Y-11150000D01*
G75*
G02*
X70700000Y-11375000I-225000J0D01*
G01*
X70250000Y-11375000D01*
G75*
G02*
X70025000Y-11150000I0J225000D01*
G01*
G37*
%TD.AperFunction*%
%TD*%
%TO.P,REF\u002A\u002A,1*%
%TO.N,N/C*%
%TA.AperFunction,SMDPad,CuDef*%
G36*
G01*
X73650000Y-11400000D02*
X72150000Y-11400000D01*
G75*
G02*
X71900000Y-11150000I0J250000D01*
G01*
X71900000Y-10650000D01*
G75*
G02*
X72150000Y-10400000I250000J0D01*
G01*
X73650000Y-10400000D01*
G75*
G02*
X73900000Y-10650000I0J-250000D01*
G01*
X73900000Y-11150000D01*
G75*
G02*
X73650000Y-11400000I-250000J0D01*
G01*
G37*
%TD.AperFunction*%
%TD*%
%TO.P,REF\u002A\u002A,1*%
%TO.N,N/C*%
%TA.AperFunction,SMDPad,CuDef*%
G36*
G01*
X52150000Y-11400000D02*
X50650000Y-11400000D01*
G75*
G02*
X50400000Y-11150000I0J250000D01*
G01*
X50400000Y-10650000D01*
G75*
G02*
X50650000Y-10400000I250000J0D01*
G01*
X52150000Y-10400000D01*
G75*
G02*
X52400000Y-10650000I0J-250000D01*
G01*
X52400000Y-11150000D01*
G75*
G02*
X52150000Y-11400000I-250000J0D01*
G01*
G37*
%TD.AperFunction*%
%TD*%
%TO.P,REF\u002A\u002A,1*%
%TO.N,N/C*%
%TA.AperFunction,SMDPad,CuDef*%
G36*
G01*
X9150000Y-11400000D02*
X7650000Y-11400000D01*
G75*
G02*
X7400000Y-11150000I0J250000D01*
G01*
X7400000Y-10650000D01*
G75*
G02*
X7650000Y-10400000I250000J0D01*
G01*
X9150000Y-10400000D01*
G75*
G02*
X9400000Y-10650000I0J-250000D01*
G01*
X9400000Y-11150000D01*
G75*
G02*
X9150000Y-11400000I-250000J0D01*
G01*
G37*
%TD.AperFunction*%
%TD*%
%TO.P,REF\u002A\u002A,1*%
%TO.N,N/C*%
%TA.AperFunction,SMDPad,CuDef*%
G36*
G01*
X2750000Y-11400000D02*
X1250000Y-11400000D01*
G75*
G02*
X1000000Y-11150000I0J250000D01*
G01*
X1000000Y-10650000D01*
G75*
G02*
X1250000Y-10400000I250000J0D01*
G01*
X2750000Y-10400000D01*
G75*
G02*
X3000000Y-10650000I0J-250000D01*
G01*
X3000000Y-11150000D01*
G75*
G02*
X2750000Y-11400000I-250000J0D01*
G01*
G37*
%TD.AperFunction*%
%TD*%
%TO.P,REF\u002A\u002A,1*%
%TO.N,N/C*%
%TA.AperFunction,SMDPad,CuDef*%
G36*
G01*
X3975000Y-11150000D02*
X3975000Y-10650000D01*
G75*
G02*
X4200000Y-10425000I225000J0D01*
G01*
X4650000Y-10425000D01*
G75*
G02*
X4875000Y-10650000I0J-225000D01*
G01*
X4875000Y-11150000D01*
G75*
G02*
X4650000Y-11375000I-225000J0D01*
G01*
X4200000Y-11375000D01*
G75*
G02*
X3975000Y-11150000I0J225000D01*
G01*
G37*
%TD.AperFunction*%
%TO.P,REF\u002A\u002A,2*%
%TA.AperFunction,SMDPad,CuDef*%
G36*
G01*
X5525000Y-11150000D02*
X5525000Y-10650000D01*
G75*
G02*
X5750000Y-10425000I225000J0D01*
G01*
X6200000Y-10425000D01*
G75*
G02*
X6425000Y-10650000I0J-225000D01*
G01*
X6425000Y-11150000D01*
G75*
G02*
X6200000Y-11375000I-225000J0D01*
G01*
X5750000Y-11375000D01*
G75*
G02*
X5525000Y-11150000I0J225000D01*
G01*
G37*
%TD.AperFunction*%
%TD*%
%TO.P,REF\u002A\u002A,2*%
%TO.N,N/C*%
%TA.AperFunction,SMDPad,CuDef*%
G36*
G01*
X27025000Y-11150000D02*
X27025000Y-10650000D01*
G75*
G02*
X27250000Y-10425000I225000J0D01*
G01*
X27700000Y-10425000D01*
G75*
G02*
X27925000Y-10650000I0J-225000D01*
G01*
X27925000Y-11150000D01*
G75*
G02*
X27700000Y-11375000I-225000J0D01*
G01*
X27250000Y-11375000D01*
G75*
G02*
X27025000Y-11150000I0J225000D01*
G01*
G37*
%TD.AperFunction*%
%TO.P,REF\u002A\u002A,1*%
%TA.AperFunction,SMDPad,CuDef*%
G36*
G01*
X25475000Y-11150000D02*
X25475000Y-10650000D01*
G75*
G02*
X25700000Y-10425000I225000J0D01*
G01*
X26150000Y-10425000D01*
G75*
G02*
X26375000Y-10650000I0J-225000D01*
G01*
X26375000Y-11150000D01*
G75*
G02*
X26150000Y-11375000I-225000J0D01*
G01*
X25700000Y-11375000D01*
G75*
G02*
X25475000Y-11150000I0J225000D01*
G01*
G37*
%TD.AperFunction*%
%TD*%
%TO.P,REF\u002A\u002A,1*%
%TO.N,N/C*%
%TA.AperFunction,SMDPad,CuDef*%
G36*
G01*
X73650000Y10100000D02*
X72150000Y10100000D01*
G75*
G02*
X71900000Y10350000I0J250000D01*
G01*
X71900000Y10850000D01*
G75*
G02*
X72150000Y11100000I250000J0D01*
G01*
X73650000Y11100000D01*
G75*
G02*
X73900000Y10850000I0J-250000D01*
G01*
X73900000Y10350000D01*
G75*
G02*
X73650000Y10100000I-250000J0D01*
G01*
G37*
%TD.AperFunction*%
%TD*%
%TO.P,REF\u002A\u002A,1*%
%TO.N,N/C*%
%TA.AperFunction,SMDPad,CuDef*%
G36*
G01*
X67250000Y10100000D02*
X65750000Y10100000D01*
G75*
G02*
X65500000Y10350000I0J250000D01*
G01*
X65500000Y10850000D01*
G75*
G02*
X65750000Y11100000I250000J0D01*
G01*
X67250000Y11100000D01*
G75*
G02*
X67500000Y10850000I0J-250000D01*
G01*
X67500000Y10350000D01*
G75*
G02*
X67250000Y10100000I-250000J0D01*
G01*
G37*
%TD.AperFunction*%
%TD*%
%TO.P,REF\u002A\u002A,1*%
%TO.N,N/C*%
%TA.AperFunction,SMDPad,CuDef*%
G36*
G01*
X52150000Y10100000D02*
X50650000Y10100000D01*
G75*
G02*
X50400000Y10350000I0J250000D01*
G01*
X50400000Y10850000D01*
G75*
G02*
X50650000Y11100000I250000J0D01*
G01*
X52150000Y11100000D01*
G75*
G02*
X52400000Y10850000I0J-250000D01*
G01*
X52400000Y10350000D01*
G75*
G02*
X52150000Y10100000I-250000J0D01*
G01*
G37*
%TD.AperFunction*%
%TD*%
%TO.P,REF\u002A\u002A,1*%
%TO.N,N/C*%
%TA.AperFunction,SMDPad,CuDef*%
G36*
G01*
X45750000Y10100000D02*
X44250000Y10100000D01*
G75*
G02*
X44000000Y10350000I0J250000D01*
G01*
X44000000Y10850000D01*
G75*
G02*
X44250000Y11100000I250000J0D01*
G01*
X45750000Y11100000D01*
G75*
G02*
X46000000Y10850000I0J-250000D01*
G01*
X46000000Y10350000D01*
G75*
G02*
X45750000Y10100000I-250000J0D01*
G01*
G37*
%TD.AperFunction*%
%TD*%
%TO.P,REF\u002A\u002A,1*%
%TO.N,N/C*%
%TA.AperFunction,SMDPad,CuDef*%
G36*
G01*
X46975000Y10350000D02*
X46975000Y10850000D01*
G75*
G02*
X47200000Y11075000I225000J0D01*
G01*
X47650000Y11075000D01*
G75*
G02*
X47875000Y10850000I0J-225000D01*
G01*
X47875000Y10350000D01*
G75*
G02*
X47650000Y10125000I-225000J0D01*
G01*
X47200000Y10125000D01*
G75*
G02*
X46975000Y10350000I0J225000D01*
G01*
G37*
%TD.AperFunction*%
%TO.P,REF\u002A\u002A,2*%
%TA.AperFunction,SMDPad,CuDef*%
G36*
G01*
X48525000Y10350000D02*
X48525000Y10850000D01*
G75*
G02*
X48750000Y11075000I225000J0D01*
G01*
X49200000Y11075000D01*
G75*
G02*
X49425000Y10850000I0J-225000D01*
G01*
X49425000Y10350000D01*
G75*
G02*
X49200000Y10125000I-225000J0D01*
G01*
X48750000Y10125000D01*
G75*
G02*
X48525000Y10350000I0J225000D01*
G01*
G37*
%TD.AperFunction*%
%TD*%
%TO.P,REF\u002A\u002A,2*%
%TO.N,N/C*%
%TA.AperFunction,SMDPad,CuDef*%
G36*
G01*
X70025000Y10350000D02*
X70025000Y10850000D01*
G75*
G02*
X70250000Y11075000I225000J0D01*
G01*
X70700000Y11075000D01*
G75*
G02*
X70925000Y10850000I0J-225000D01*
G01*
X70925000Y10350000D01*
G75*
G02*
X70700000Y10125000I-225000J0D01*
G01*
X70250000Y10125000D01*
G75*
G02*
X70025000Y10350000I0J225000D01*
G01*
G37*
%TD.AperFunction*%
%TO.P,REF\u002A\u002A,1*%
%TA.AperFunction,SMDPad,CuDef*%
G36*
G01*
X68475000Y10350000D02*
X68475000Y10850000D01*
G75*
G02*
X68700000Y11075000I225000J0D01*
G01*
X69150000Y11075000D01*
G75*
G02*
X69375000Y10850000I0J-225000D01*
G01*
X69375000Y10350000D01*
G75*
G02*
X69150000Y10125000I-225000J0D01*
G01*
X68700000Y10125000D01*
G75*
G02*
X68475000Y10350000I0J225000D01*
G01*
G37*
%TD.AperFunction*%
%TD*%
%TO.P,REF\u002A\u002A,1*%
%TO.N,N/C*%
%TA.AperFunction,SMDPad,CuDef*%
G36*
G01*
X30650000Y10100000D02*
X29150000Y10100000D01*
G75*
G02*
X28900000Y10350000I0J250000D01*
G01*
X28900000Y10850000D01*
G75*
G02*
X29150000Y11100000I250000J0D01*
G01*
X30650000Y11100000D01*
G75*
G02*
X30900000Y10850000I0J-250000D01*
G01*
X30900000Y10350000D01*
G75*
G02*
X30650000Y10100000I-250000J0D01*
G01*
G37*
%TD.AperFunction*%
%TD*%
%TO.P,REF\u002A\u002A,1*%
%TO.N,N/C*%
%TA.AperFunction,SMDPad,CuDef*%
G36*
G01*
X24250000Y10100000D02*
X22750000Y10100000D01*
G75*
G02*
X22500000Y10350000I0J250000D01*
G01*
X22500000Y10850000D01*
G75*
G02*
X22750000Y11100000I250000J0D01*
G01*
X24250000Y11100000D01*
G75*
G02*
X24500000Y10850000I0J-250000D01*
G01*
X24500000Y10350000D01*
G75*
G02*
X24250000Y10100000I-250000J0D01*
G01*
G37*
%TD.AperFunction*%
%TD*%
%TO.P,REF\u002A\u002A,1*%
%TO.N,N/C*%
%TA.AperFunction,SMDPad,CuDef*%
G36*
G01*
X25475000Y10350000D02*
X25475000Y10850000D01*
G75*
G02*
X25700000Y11075000I225000J0D01*
G01*
X26150000Y11075000D01*
G75*
G02*
X26375000Y10850000I0J-225000D01*
G01*
X26375000Y10350000D01*
G75*
G02*
X26150000Y10125000I-225000J0D01*
G01*
X25700000Y10125000D01*
G75*
G02*
X25475000Y10350000I0J225000D01*
G01*
G37*
%TD.AperFunction*%
%TO.P,REF\u002A\u002A,2*%
%TA.AperFunction,SMDPad,CuDef*%
G36*
G01*
X27025000Y10350000D02*
X27025000Y10850000D01*
G75*
G02*
X27250000Y11075000I225000J0D01*
G01*
X27700000Y11075000D01*
G75*
G02*
X27925000Y10850000I0J-225000D01*
G01*
X27925000Y10350000D01*
G75*
G02*
X27700000Y10125000I-225000J0D01*
G01*
X27250000Y10125000D01*
G75*
G02*
X27025000Y10350000I0J225000D01*
G01*
G37*
%TD.AperFunction*%
%TD*%
%TO.P,REF\u002A\u002A,2*%
%TO.N,N/C*%
%TA.AperFunction,SMDPad,CuDef*%
G36*
G01*
X5525000Y10350000D02*
X5525000Y10850000D01*
G75*
G02*
X5750000Y11075000I225000J0D01*
G01*
X6200000Y11075000D01*
G75*
G02*
X6425000Y10850000I0J-225000D01*
G01*
X6425000Y10350000D01*
G75*
G02*
X6200000Y10125000I-225000J0D01*
G01*
X5750000Y10125000D01*
G75*
G02*
X5525000Y10350000I0J225000D01*
G01*
G37*
%TD.AperFunction*%
%TO.P,REF\u002A\u002A,1*%
%TA.AperFunction,SMDPad,CuDef*%
G36*
G01*
X3975000Y10350000D02*
X3975000Y10850000D01*
G75*
G02*
X4200000Y11075000I225000J0D01*
G01*
X4650000Y11075000D01*
G75*
G02*
X4875000Y10850000I0J-225000D01*
G01*
X4875000Y10350000D01*
G75*
G02*
X4650000Y10125000I-225000J0D01*
G01*
X4200000Y10125000D01*
G75*
G02*
X3975000Y10350000I0J225000D01*
G01*
G37*
%TD.AperFunction*%
%TD*%
%TO.P,REF\u002A\u002A,1*%
%TO.N,N/C*%
%TA.AperFunction,SMDPad,CuDef*%
G36*
G01*
X2750000Y10100000D02*
X1250000Y10100000D01*
G75*
G02*
X1000000Y10350000I0J250000D01*
G01*
X1000000Y10850000D01*
G75*
G02*
X1250000Y11100000I250000J0D01*
G01*
X2750000Y11100000D01*
G75*
G02*
X3000000Y10850000I0J-250000D01*
G01*
X3000000Y10350000D01*
G75*
G02*
X2750000Y10100000I-250000J0D01*
G01*
G37*
%TD.AperFunction*%
%TD*%
%TO.P,REF\u002A\u002A,1*%
%TO.N,N/C*%
%TA.AperFunction,SMDPad,CuDef*%
G36*
G01*
X9150000Y10100000D02*
X7650000Y10100000D01*
G75*
G02*
X7400000Y10350000I0J250000D01*
G01*
X7400000Y10850000D01*
G75*
G02*
X7650000Y11100000I250000J0D01*
G01*
X9150000Y11100000D01*
G75*
G02*
X9400000Y10850000I0J-250000D01*
G01*
X9400000Y10350000D01*
G75*
G02*
X9150000Y10100000I-250000J0D01*
G01*
G37*
%TD.AperFunction*%
%TD*%
D10*
%TO.N,*%
X3300000Y3800000D03*
X10400000Y10400000D03*
X3800000Y3800000D03*
X500000Y10600000D03*
X24800000Y3800000D03*
X31900000Y10400000D03*
X22000000Y10600000D03*
X25300000Y3800000D03*
X74900000Y10400000D03*
X67800000Y3800000D03*
X68300000Y3800000D03*
X65000000Y10600000D03*
X46300000Y3800000D03*
X53400000Y10400000D03*
X43500000Y10600000D03*
X46800000Y3800000D03*
X68300000Y-17700000D03*
X31900000Y-11100000D03*
X74900000Y-11100000D03*
X67800000Y-17700000D03*
X65000000Y-10900000D03*
X46300000Y-17700000D03*
X24800000Y-17700000D03*
X46800000Y-17700000D03*
X25300000Y-17700000D03*
X22000000Y-10900000D03*
X43500000Y-10900000D03*
X53400000Y-11100000D03*
X3300000Y-17700000D03*
X10400000Y-11100000D03*
X500000Y-10900000D03*
X3800000Y-17700000D03*
X68300000Y-39200000D03*
X31900000Y-32600000D03*
X74900000Y-32600000D03*
X67800000Y-39200000D03*
X31900000Y-54100000D03*
X74900000Y-54100000D03*
X65000000Y-32400000D03*
X10400000Y-54100000D03*
X65000000Y-53900000D03*
X46300000Y-39200000D03*
X46300000Y-60700000D03*
X53400000Y-54100000D03*
X3300000Y-60700000D03*
X3800000Y-60700000D03*
X24800000Y-39200000D03*
X46800000Y-39200000D03*
X67800000Y-60700000D03*
X46800000Y-60700000D03*
X22000000Y-53900000D03*
X500000Y-53900000D03*
X25300000Y-39200000D03*
X22000000Y-32400000D03*
X25300000Y-60700000D03*
X43500000Y-32400000D03*
X53400000Y-32600000D03*
X68300000Y-60700000D03*
X24800000Y-60700000D03*
X43500000Y-53900000D03*
X3300000Y-39200000D03*
X10400000Y-32600000D03*
X500000Y-32400000D03*
X3800000Y-39200000D03*
%TD*%
D11*
%TO.N,*%
X8743176Y-8743176D02*
X8743176Y8424235D01*
X8743176Y8424235D02*
X-8424235Y8424235D01*
X-8424235Y8424235D02*
X-8424235Y-8424235D01*
X-8424235Y-8424235D02*
X8424235Y-8424235D01*
X8424235Y-8424235D02*
X8424235Y8105294D01*
X-8105294Y8105294D02*
X-8105294Y-8105294D01*
X8424235Y8105294D02*
X-8105294Y8105294D01*
X-8105294Y-8105294D02*
X8105294Y-8105294D01*
X8105294Y-8105294D02*
X8105294Y7786353D01*
X-7786353Y7786353D02*
X-7786353Y-7786353D01*
X7786353Y-7786353D02*
X7786353Y7467412D01*
X7786353Y7467412D02*
X-7467412Y7467412D01*
X-7467412Y7467412D02*
X-7467412Y-7467412D01*
X-7467412Y-7467412D02*
X7467412Y-7467412D01*
X7467412Y-7467412D02*
X7467412Y7148471D01*
X7467412Y7148471D02*
X-7148471Y7148471D01*
X-7148471Y7148471D02*
X-7148471Y-7148471D01*
X-7148471Y-7148471D02*
X7148471Y-7148471D01*
X7148471Y-7148471D02*
X7148471Y6829529D01*
X7148471Y6829529D02*
X-6829529Y6829529D01*
X-6829529Y6829529D02*
X-6829529Y-6829529D01*
X-6829529Y-6829529D02*
X6829529Y-6829529D01*
X6829529Y-6829529D02*
X6829529Y6510588D01*
X6829529Y6510588D02*
X-6510588Y6510588D01*
X-6510588Y6510588D02*
X-6510588Y-6510588D01*
X-6510588Y-6510588D02*
X6510588Y-6510588D01*
X6510588Y-6510588D02*
X6510588Y6191647D01*
X6510588Y6191647D02*
X-6191647Y6191647D01*
X-4915882Y4915882D02*
X-4915882Y-4915882D01*
X4596941Y4278000D02*
X-4278000Y4278000D01*
X4915882Y4596941D02*
X-4596941Y4596941D01*
X-4596941Y4596941D02*
X-4596941Y-4596941D01*
X-4596941Y-4596941D02*
X4596941Y-4596941D01*
X-4915882Y-4915882D02*
X4915882Y-4915882D01*
X4596941Y-4596941D02*
X4596941Y4278000D01*
X-4278000Y4278000D02*
X-4278000Y-4278000D01*
X-6191647Y6191647D02*
X-6191647Y-6191647D01*
X4915882Y-4915882D02*
X4915882Y4596941D01*
X-4278000Y-4278000D02*
X4278000Y-4278000D01*
X8105294Y7786353D02*
X-7786353Y7786353D01*
X4278000Y-4278000D02*
X4278000Y3959059D01*
X-5872706Y5872706D02*
X-5872706Y-5872706D01*
X4278000Y3959059D02*
X3959059Y3959059D01*
X3959059Y3959059D02*
X3800000Y3800000D01*
X-6191647Y-6191647D02*
X6191647Y-6191647D01*
X5234824Y4915882D02*
X-4915882Y4915882D01*
X5234824Y-5234824D02*
X5234824Y4915882D01*
X-5234824Y-5234824D02*
X5234824Y-5234824D01*
X-5234824Y5234824D02*
X-5234824Y-5234824D01*
X5553765Y5234824D02*
X-5234824Y5234824D01*
X5553765Y-5553765D02*
X5553765Y5234824D01*
X-7786353Y-7786353D02*
X7786353Y-7786353D01*
X-5553765Y-5553765D02*
X5553765Y-5553765D01*
X-5553765Y5553765D02*
X-5553765Y-5553765D01*
X5872706Y-5872706D02*
X5872706Y5553765D01*
X-5872706Y-5872706D02*
X5872706Y-5872706D01*
X5872706Y5553765D02*
X-5553765Y5553765D01*
X6191647Y5872706D02*
X-5872706Y5872706D01*
X6191647Y-6191647D02*
X6191647Y5872706D01*
X-8743176Y-8743176D02*
X8743176Y-8743176D01*
X-8743176Y8743176D02*
X-8743176Y-8743176D01*
X9062118Y8743176D02*
X-8743176Y8743176D01*
X9062118Y-9062118D02*
X9062118Y8743176D01*
X-9062118Y-9062118D02*
X9062118Y-9062118D01*
X-9062118Y9062118D02*
X-9062118Y-9062118D01*
X9381059Y9062118D02*
X-9062118Y9062118D01*
X9381059Y-9381059D02*
X9381059Y9062118D01*
X-9381059Y-9381059D02*
X9381059Y-9381059D01*
X-9381059Y9381059D02*
X-9381059Y-9381059D01*
X9700000Y9381059D02*
X-9381059Y9381059D01*
X9700000Y-9700000D02*
X9700000Y9381059D01*
X-9700000Y-9700000D02*
X9700000Y-9700000D01*
X-9700000Y9700000D02*
X-9700000Y-9700000D01*
X9700000Y9700000D02*
X-9700000Y9700000D01*
X9700000Y9700000D02*
X9700000Y10300000D01*
X9400000Y10600000D02*
X8400000Y10600000D01*
X9700000Y10300000D02*
X9400000Y10600000D01*
X500000Y10600000D02*
X2000000Y10600000D01*
X4425000Y10600000D02*
X2000000Y10600000D01*
X5975000Y10600000D02*
X8400000Y10600000D01*
X30243176Y8424235D02*
X13075765Y8424235D01*
X29924235Y-8424235D02*
X29924235Y8105294D01*
X13394706Y8105294D02*
X13394706Y-8105294D01*
X14351529Y7148471D02*
X14351529Y-7148471D01*
X28967412Y-7467412D02*
X28967412Y7148471D01*
X15308353Y6191647D02*
X15308353Y-6191647D01*
X25459059Y3959059D02*
X25300000Y3800000D01*
X28010588Y6191647D02*
X15308353Y6191647D01*
X26415882Y4596941D02*
X16903059Y4596941D01*
X15308353Y-6191647D02*
X27691647Y-6191647D01*
X28329529Y-6829529D02*
X28329529Y6510588D01*
X29286353Y-7786353D02*
X29286353Y7467412D01*
X16265176Y-5234824D02*
X26734824Y-5234824D01*
X27053765Y-5553765D02*
X27053765Y5234824D01*
X13394706Y-8105294D02*
X29605294Y-8105294D01*
X14032588Y7467412D02*
X14032588Y-7467412D01*
X13075765Y-8424235D02*
X29924235Y-8424235D01*
X14670471Y6829529D02*
X14670471Y-6829529D01*
X13713647Y7786353D02*
X13713647Y-7786353D01*
X13075765Y8424235D02*
X13075765Y-8424235D01*
X26096941Y4278000D02*
X17222000Y4278000D01*
X16903059Y-4596941D02*
X26096941Y-4596941D01*
X14670471Y-6829529D02*
X28329529Y-6829529D01*
X28010588Y-6510588D02*
X28010588Y6191647D01*
X16584118Y4915882D02*
X16584118Y-4915882D01*
X14989412Y-6510588D02*
X28010588Y-6510588D01*
X16584118Y-4915882D02*
X26415882Y-4915882D01*
X28967412Y7148471D02*
X14351529Y7148471D01*
X14351529Y-7148471D02*
X28648471Y-7148471D01*
X28648471Y-7148471D02*
X28648471Y6829529D01*
X14032588Y-7467412D02*
X28967412Y-7467412D01*
X16903059Y4596941D02*
X16903059Y-4596941D01*
X17222000Y4278000D02*
X17222000Y-4278000D01*
X26415882Y-4915882D02*
X26415882Y4596941D01*
X17222000Y-4278000D02*
X25778000Y-4278000D01*
X25778000Y-4278000D02*
X25778000Y3959059D01*
X30243176Y-8743176D02*
X30243176Y8424235D01*
X29286353Y7467412D02*
X14032588Y7467412D01*
X28329529Y6510588D02*
X14989412Y6510588D01*
X25778000Y3959059D02*
X25459059Y3959059D01*
X26734824Y-5234824D02*
X26734824Y4915882D01*
X29605294Y-8105294D02*
X29605294Y7786353D01*
X28648471Y6829529D02*
X14670471Y6829529D01*
X29605294Y7786353D02*
X13713647Y7786353D01*
X15627294Y5872706D02*
X15627294Y-5872706D01*
X16265176Y5234824D02*
X16265176Y-5234824D01*
X27053765Y5234824D02*
X16265176Y5234824D01*
X26096941Y-4596941D02*
X26096941Y4278000D01*
X13713647Y-7786353D02*
X29286353Y-7786353D01*
X15946235Y-5553765D02*
X27053765Y-5553765D01*
X26734824Y4915882D02*
X16584118Y4915882D01*
X15946235Y5553765D02*
X15946235Y-5553765D01*
X27372706Y-5872706D02*
X27372706Y5553765D01*
X15627294Y-5872706D02*
X27372706Y-5872706D01*
X29924235Y8105294D02*
X13394706Y8105294D01*
X14989412Y6510588D02*
X14989412Y-6510588D01*
X27372706Y5553765D02*
X15946235Y5553765D01*
X27691647Y5872706D02*
X15627294Y5872706D01*
X27691647Y-6191647D02*
X27691647Y5872706D01*
X12756824Y-8743176D02*
X30243176Y-8743176D01*
X12756824Y8743176D02*
X12756824Y-8743176D01*
X30562118Y8743176D02*
X12756824Y8743176D01*
X30562118Y-9062118D02*
X30562118Y8743176D01*
X31200000Y-9700000D02*
X31200000Y9381059D01*
X12437882Y9062118D02*
X12437882Y-9062118D01*
X31200000Y9700000D02*
X31200000Y10300000D01*
X31200000Y9381059D02*
X12118941Y9381059D01*
X30900000Y10600000D02*
X29900000Y10600000D01*
X11800000Y-9700000D02*
X31200000Y-9700000D01*
X30881059Y9062118D02*
X12437882Y9062118D01*
X12118941Y9381059D02*
X12118941Y-9381059D01*
X30881059Y-9381059D02*
X30881059Y9062118D01*
X11800000Y9700000D02*
X11800000Y-9700000D01*
X31200000Y10300000D02*
X30900000Y10600000D01*
X12437882Y-9062118D02*
X30562118Y-9062118D01*
X31200000Y9700000D02*
X11800000Y9700000D01*
X12118941Y-9381059D02*
X30881059Y-9381059D01*
X27475000Y10600000D02*
X29900000Y10600000D01*
X22000000Y10600000D02*
X23500000Y10600000D01*
X25925000Y10600000D02*
X23500000Y10600000D01*
X74200000Y9381059D02*
X55118941Y9381059D01*
X54800000Y9700000D02*
X54800000Y-9700000D01*
X73881059Y-9381059D02*
X73881059Y9062118D01*
X73562118Y-9062118D02*
X73562118Y8743176D01*
X55118941Y9381059D02*
X55118941Y-9381059D01*
X74200000Y9700000D02*
X54800000Y9700000D01*
X55437882Y-9062118D02*
X73562118Y-9062118D01*
X74200000Y-9700000D02*
X74200000Y9381059D01*
X73900000Y10600000D02*
X72900000Y10600000D01*
X73881059Y9062118D02*
X55437882Y9062118D01*
X73562118Y8743176D02*
X55756824Y8743176D01*
X74200000Y9700000D02*
X74200000Y10300000D01*
X55756824Y8743176D02*
X55756824Y-8743176D01*
X54800000Y-9700000D02*
X74200000Y-9700000D01*
X70691647Y5872706D02*
X58627294Y5872706D01*
X55756824Y-8743176D02*
X73243176Y-8743176D01*
X55437882Y9062118D02*
X55437882Y-9062118D01*
X70691647Y-6191647D02*
X70691647Y5872706D01*
X74200000Y10300000D02*
X73900000Y10600000D01*
X58308353Y6191647D02*
X58308353Y-6191647D01*
X71329529Y-6829529D02*
X71329529Y6510588D01*
X56394706Y8105294D02*
X56394706Y-8105294D01*
X72924235Y-8424235D02*
X72924235Y8105294D01*
X57351529Y7148471D02*
X57351529Y-7148471D01*
X58308353Y-6191647D02*
X70691647Y-6191647D01*
X71967412Y-7467412D02*
X71967412Y7148471D01*
X72286353Y-7786353D02*
X72286353Y7467412D01*
X59265176Y-5234824D02*
X69734824Y-5234824D01*
X56394706Y-8105294D02*
X72605294Y-8105294D01*
X73243176Y8424235D02*
X56075765Y8424235D01*
X68459059Y3959059D02*
X68300000Y3800000D01*
X70053765Y-5553765D02*
X70053765Y5234824D01*
X57032588Y7467412D02*
X57032588Y-7467412D01*
X56075765Y-8424235D02*
X72924235Y-8424235D01*
X57670471Y6829529D02*
X57670471Y-6829529D01*
X71010588Y6191647D02*
X58308353Y6191647D01*
X69415882Y4596941D02*
X59903059Y4596941D01*
X51743176Y8424235D02*
X34575765Y8424235D01*
X51424235Y-8424235D02*
X51424235Y8105294D01*
X34894706Y8105294D02*
X34894706Y-8105294D01*
X35851529Y7148471D02*
X35851529Y-7148471D01*
X50467412Y-7467412D02*
X50467412Y7148471D01*
X36808353Y6191647D02*
X36808353Y-6191647D01*
X46959059Y3959059D02*
X46800000Y3800000D01*
X49510588Y6191647D02*
X36808353Y6191647D01*
X47915882Y4596941D02*
X38403059Y4596941D01*
X36808353Y-6191647D02*
X49191647Y-6191647D01*
X49829529Y-6829529D02*
X49829529Y6510588D01*
X50786353Y-7786353D02*
X50786353Y7467412D01*
X37765176Y-5234824D02*
X48234824Y-5234824D01*
X48553765Y-5553765D02*
X48553765Y5234824D01*
X34894706Y-8105294D02*
X51105294Y-8105294D01*
X35532588Y7467412D02*
X35532588Y-7467412D01*
X34575765Y-8424235D02*
X51424235Y-8424235D01*
X36170471Y6829529D02*
X36170471Y-6829529D01*
X35213647Y7786353D02*
X35213647Y-7786353D01*
X34575765Y8424235D02*
X34575765Y-8424235D01*
X47596941Y4278000D02*
X38722000Y4278000D01*
X38403059Y-4596941D02*
X47596941Y-4596941D01*
X36170471Y-6829529D02*
X49829529Y-6829529D01*
X49510588Y-6510588D02*
X49510588Y6191647D01*
X38084118Y4915882D02*
X38084118Y-4915882D01*
X36489412Y-6510588D02*
X49510588Y-6510588D01*
X38084118Y-4915882D02*
X47915882Y-4915882D01*
X50467412Y7148471D02*
X35851529Y7148471D01*
X35851529Y-7148471D02*
X50148471Y-7148471D01*
X50148471Y-7148471D02*
X50148471Y6829529D01*
X35532588Y-7467412D02*
X50467412Y-7467412D01*
X38403059Y4596941D02*
X38403059Y-4596941D01*
X38722000Y4278000D02*
X38722000Y-4278000D01*
X47915882Y-4915882D02*
X47915882Y4596941D01*
X38722000Y-4278000D02*
X47278000Y-4278000D01*
X47278000Y-4278000D02*
X47278000Y3959059D01*
X51743176Y-8743176D02*
X51743176Y8424235D01*
X50786353Y7467412D02*
X35532588Y7467412D01*
X49829529Y6510588D02*
X36489412Y6510588D01*
X47278000Y3959059D02*
X46959059Y3959059D01*
X48234824Y-5234824D02*
X48234824Y4915882D01*
X51105294Y-8105294D02*
X51105294Y7786353D01*
X50148471Y6829529D02*
X36170471Y6829529D01*
X51105294Y7786353D02*
X35213647Y7786353D01*
X37127294Y5872706D02*
X37127294Y-5872706D01*
X37765176Y5234824D02*
X37765176Y-5234824D01*
X48553765Y5234824D02*
X37765176Y5234824D01*
X47596941Y-4596941D02*
X47596941Y4278000D01*
X35213647Y-7786353D02*
X50786353Y-7786353D01*
X37446235Y-5553765D02*
X48553765Y-5553765D01*
X48234824Y4915882D02*
X38084118Y4915882D01*
X37446235Y5553765D02*
X37446235Y-5553765D01*
X48872706Y-5872706D02*
X48872706Y5553765D01*
X37127294Y-5872706D02*
X48872706Y-5872706D01*
X51424235Y8105294D02*
X34894706Y8105294D01*
X36489412Y6510588D02*
X36489412Y-6510588D01*
X48872706Y5553765D02*
X37446235Y5553765D01*
X49191647Y5872706D02*
X37127294Y5872706D01*
X49191647Y-6191647D02*
X49191647Y5872706D01*
X34256824Y-8743176D02*
X51743176Y-8743176D01*
X34256824Y8743176D02*
X34256824Y-8743176D01*
X52062118Y8743176D02*
X34256824Y8743176D01*
X52062118Y-9062118D02*
X52062118Y8743176D01*
X52700000Y-9700000D02*
X52700000Y9381059D01*
X33937882Y9062118D02*
X33937882Y-9062118D01*
X52700000Y9700000D02*
X52700000Y10300000D01*
X52700000Y9381059D02*
X33618941Y9381059D01*
X52400000Y10600000D02*
X51400000Y10600000D01*
X33300000Y-9700000D02*
X52700000Y-9700000D01*
X52381059Y9062118D02*
X33937882Y9062118D01*
X33618941Y9381059D02*
X33618941Y-9381059D01*
X52381059Y-9381059D02*
X52381059Y9062118D01*
X33300000Y9700000D02*
X33300000Y-9700000D01*
X52700000Y10300000D02*
X52400000Y10600000D01*
X33937882Y-9062118D02*
X52062118Y-9062118D01*
X52700000Y9700000D02*
X33300000Y9700000D01*
X33618941Y-9381059D02*
X52381059Y-9381059D01*
X48975000Y10600000D02*
X51400000Y10600000D01*
X43500000Y10600000D02*
X45000000Y10600000D01*
X47425000Y10600000D02*
X45000000Y10600000D01*
X65000000Y10600000D02*
X66500000Y10600000D01*
X55118941Y-9381059D02*
X73881059Y-9381059D01*
X70475000Y10600000D02*
X72900000Y10600000D01*
X68925000Y10600000D02*
X66500000Y10600000D01*
X72286353Y7467412D02*
X57032588Y7467412D01*
X71329529Y6510588D02*
X57989412Y6510588D01*
X69734824Y-5234824D02*
X69734824Y4915882D01*
X58627294Y5872706D02*
X58627294Y-5872706D01*
X58946235Y-5553765D02*
X70053765Y-5553765D01*
X58946235Y5553765D02*
X58946235Y-5553765D01*
X70372706Y-5872706D02*
X70372706Y5553765D01*
X69415882Y-4915882D02*
X69415882Y4596941D01*
X68778000Y3959059D02*
X68459059Y3959059D01*
X73243176Y-8743176D02*
X73243176Y8424235D01*
X60222000Y-4278000D02*
X68778000Y-4278000D01*
X57032588Y-7467412D02*
X71967412Y-7467412D01*
X72605294Y-8105294D02*
X72605294Y7786353D01*
X70053765Y5234824D02*
X59265176Y5234824D01*
X69734824Y4915882D02*
X59584118Y4915882D01*
X68778000Y-4278000D02*
X68778000Y3959059D01*
X71648471Y6829529D02*
X57670471Y6829529D01*
X72605294Y7786353D02*
X56713647Y7786353D01*
X60222000Y4278000D02*
X60222000Y-4278000D01*
X69096941Y-4596941D02*
X69096941Y4278000D01*
X59265176Y5234824D02*
X59265176Y-5234824D01*
X56713647Y-7786353D02*
X72286353Y-7786353D01*
X72924235Y8105294D02*
X56394706Y8105294D01*
X57989412Y6510588D02*
X57989412Y-6510588D01*
X70372706Y5553765D02*
X58946235Y5553765D01*
X59903059Y4596941D02*
X59903059Y-4596941D01*
X58627294Y-5872706D02*
X70372706Y-5872706D01*
X57670471Y-6829529D02*
X71329529Y-6829529D01*
X69096941Y4278000D02*
X60222000Y4278000D01*
X59584118Y-4915882D02*
X69415882Y-4915882D01*
X57351529Y-7148471D02*
X71648471Y-7148471D01*
X71648471Y-7148471D02*
X71648471Y6829529D01*
X56713647Y7786353D02*
X56713647Y-7786353D01*
X59903059Y-4596941D02*
X69096941Y-4596941D01*
X56075765Y8424235D02*
X56075765Y-8424235D01*
X71010588Y-6510588D02*
X71010588Y6191647D01*
X59584118Y4915882D02*
X59584118Y-4915882D01*
X57989412Y-6510588D02*
X71010588Y-6510588D01*
X71967412Y7148471D02*
X57351529Y7148471D01*
X31200000Y-12118941D02*
X12118941Y-12118941D01*
X11800000Y-11800000D02*
X11800000Y-31200000D01*
X30881059Y-30881059D02*
X30881059Y-12437882D01*
X30562118Y-30562118D02*
X30562118Y-12756824D01*
X12118941Y-12118941D02*
X12118941Y-30881059D01*
X31200000Y-11800000D02*
X11800000Y-11800000D01*
X12437882Y-30562118D02*
X30562118Y-30562118D01*
X31200000Y-31200000D02*
X31200000Y-12118941D01*
X30900000Y-10900000D02*
X29900000Y-10900000D01*
X30881059Y-12437882D02*
X12437882Y-12437882D01*
X30562118Y-12756824D02*
X12756824Y-12756824D01*
X31200000Y-11800000D02*
X31200000Y-11200000D01*
X12756824Y-12756824D02*
X12756824Y-30243176D01*
X11800000Y-31200000D02*
X31200000Y-31200000D01*
X27691647Y-15627294D02*
X15627294Y-15627294D01*
X12756824Y-30243176D02*
X30243176Y-30243176D01*
X12437882Y-12437882D02*
X12437882Y-30562118D01*
X27691647Y-27691647D02*
X27691647Y-15627294D01*
X31200000Y-11200000D02*
X30900000Y-10900000D01*
X15308353Y-15308353D02*
X15308353Y-27691647D01*
X28329529Y-28329529D02*
X28329529Y-14989412D01*
X13394706Y-13394706D02*
X13394706Y-29605294D01*
X29924235Y-29924235D02*
X29924235Y-13394706D01*
X14351529Y-14351529D02*
X14351529Y-28648471D01*
X15308353Y-27691647D02*
X27691647Y-27691647D01*
X28967412Y-28967412D02*
X28967412Y-14351529D01*
X29286353Y-29286353D02*
X29286353Y-14032588D01*
X16265176Y-26734824D02*
X26734824Y-26734824D01*
X13394706Y-29605294D02*
X29605294Y-29605294D01*
X30243176Y-13075765D02*
X13075765Y-13075765D01*
X25459059Y-17540941D02*
X25300000Y-17700000D01*
X27053765Y-27053765D02*
X27053765Y-16265176D01*
X14032588Y-14032588D02*
X14032588Y-28967412D01*
X13075765Y-29924235D02*
X29924235Y-29924235D01*
X14670471Y-14670471D02*
X14670471Y-28329529D01*
X28010588Y-15308353D02*
X15308353Y-15308353D01*
X26415882Y-16903059D02*
X16903059Y-16903059D01*
X8743176Y-13075765D02*
X-8424235Y-13075765D01*
X8424235Y-29924235D02*
X8424235Y-13394706D01*
X-8105294Y-13394706D02*
X-8105294Y-29605294D01*
X-7148471Y-14351529D02*
X-7148471Y-28648471D01*
X7467412Y-28967412D02*
X7467412Y-14351529D01*
X-6191647Y-15308353D02*
X-6191647Y-27691647D01*
X3959059Y-17540941D02*
X3800000Y-17700000D01*
X6510588Y-15308353D02*
X-6191647Y-15308353D01*
X4915882Y-16903059D02*
X-4596941Y-16903059D01*
X-6191647Y-27691647D02*
X6191647Y-27691647D01*
X6829529Y-28329529D02*
X6829529Y-14989412D01*
X7786353Y-29286353D02*
X7786353Y-14032588D01*
X-5234824Y-26734824D02*
X5234824Y-26734824D01*
X5553765Y-27053765D02*
X5553765Y-16265176D01*
X-8105294Y-29605294D02*
X8105294Y-29605294D01*
X-7467412Y-14032588D02*
X-7467412Y-28967412D01*
X-8424235Y-29924235D02*
X8424235Y-29924235D01*
X-6829529Y-14670471D02*
X-6829529Y-28329529D01*
X-7786353Y-13713647D02*
X-7786353Y-29286353D01*
X-8424235Y-13075765D02*
X-8424235Y-29924235D01*
X4596941Y-17222000D02*
X-4278000Y-17222000D01*
X-4596941Y-26096941D02*
X4596941Y-26096941D01*
X-6829529Y-28329529D02*
X6829529Y-28329529D01*
X6510588Y-28010588D02*
X6510588Y-15308353D01*
X-4915882Y-16584118D02*
X-4915882Y-26415882D01*
X-6510588Y-28010588D02*
X6510588Y-28010588D01*
X-4915882Y-26415882D02*
X4915882Y-26415882D01*
X7467412Y-14351529D02*
X-7148471Y-14351529D01*
X-7148471Y-28648471D02*
X7148471Y-28648471D01*
X7148471Y-28648471D02*
X7148471Y-14670471D01*
X-7467412Y-28967412D02*
X7467412Y-28967412D01*
X-4596941Y-16903059D02*
X-4596941Y-26096941D01*
X-4278000Y-17222000D02*
X-4278000Y-25778000D01*
X4915882Y-26415882D02*
X4915882Y-16903059D01*
X-4278000Y-25778000D02*
X4278000Y-25778000D01*
X4278000Y-25778000D02*
X4278000Y-17540941D01*
X8743176Y-30243176D02*
X8743176Y-13075765D01*
X7786353Y-14032588D02*
X-7467412Y-14032588D01*
X6829529Y-14989412D02*
X-6510588Y-14989412D01*
X4278000Y-17540941D02*
X3959059Y-17540941D01*
X5234824Y-26734824D02*
X5234824Y-16584118D01*
X8105294Y-29605294D02*
X8105294Y-13713647D01*
X7148471Y-14670471D02*
X-6829529Y-14670471D01*
X8105294Y-13713647D02*
X-7786353Y-13713647D01*
X-5872706Y-15627294D02*
X-5872706Y-27372706D01*
X-5234824Y-16265176D02*
X-5234824Y-26734824D01*
X5553765Y-16265176D02*
X-5234824Y-16265176D01*
X4596941Y-26096941D02*
X4596941Y-17222000D01*
X-7786353Y-29286353D02*
X7786353Y-29286353D01*
X-5553765Y-27053765D02*
X5553765Y-27053765D01*
X5234824Y-16584118D02*
X-4915882Y-16584118D01*
X-5553765Y-15946235D02*
X-5553765Y-27053765D01*
X5872706Y-27372706D02*
X5872706Y-15946235D01*
X-5872706Y-27372706D02*
X5872706Y-27372706D01*
X8424235Y-13394706D02*
X-8105294Y-13394706D01*
X-6510588Y-14989412D02*
X-6510588Y-28010588D01*
X5872706Y-15946235D02*
X-5553765Y-15946235D01*
X6191647Y-15627294D02*
X-5872706Y-15627294D01*
X6191647Y-27691647D02*
X6191647Y-15627294D01*
X-8743176Y-30243176D02*
X8743176Y-30243176D01*
X-8743176Y-12756824D02*
X-8743176Y-30243176D01*
X9062118Y-12756824D02*
X-8743176Y-12756824D01*
X9062118Y-30562118D02*
X9062118Y-12756824D01*
X9700000Y-31200000D02*
X9700000Y-12118941D01*
X-9062118Y-12437882D02*
X-9062118Y-30562118D01*
X9700000Y-11800000D02*
X9700000Y-11200000D01*
X9700000Y-12118941D02*
X-9381059Y-12118941D01*
X9400000Y-10900000D02*
X8400000Y-10900000D01*
X-9700000Y-31200000D02*
X9700000Y-31200000D01*
X9381059Y-12437882D02*
X-9062118Y-12437882D01*
X-9381059Y-12118941D02*
X-9381059Y-30881059D01*
X9381059Y-30881059D02*
X9381059Y-12437882D01*
X-9700000Y-11800000D02*
X-9700000Y-31200000D01*
X9700000Y-11200000D02*
X9400000Y-10900000D01*
X-9062118Y-30562118D02*
X9062118Y-30562118D01*
X9700000Y-11800000D02*
X-9700000Y-11800000D01*
X-9381059Y-30881059D02*
X9381059Y-30881059D01*
X5975000Y-10900000D02*
X8400000Y-10900000D01*
X500000Y-10900000D02*
X2000000Y-10900000D01*
X4425000Y-10900000D02*
X2000000Y-10900000D01*
X22000000Y-10900000D02*
X23500000Y-10900000D01*
X12118941Y-30881059D02*
X30881059Y-30881059D01*
X27475000Y-10900000D02*
X29900000Y-10900000D01*
X25925000Y-10900000D02*
X23500000Y-10900000D01*
X29286353Y-14032588D02*
X14032588Y-14032588D01*
X28329529Y-14989412D02*
X14989412Y-14989412D01*
X26734824Y-26734824D02*
X26734824Y-16584118D01*
X15627294Y-15627294D02*
X15627294Y-27372706D01*
X15946235Y-27053765D02*
X27053765Y-27053765D01*
X15946235Y-15946235D02*
X15946235Y-27053765D01*
X27372706Y-27372706D02*
X27372706Y-15946235D01*
X26415882Y-26415882D02*
X26415882Y-16903059D01*
X25778000Y-17540941D02*
X25459059Y-17540941D01*
X30243176Y-30243176D02*
X30243176Y-13075765D01*
X17222000Y-25778000D02*
X25778000Y-25778000D01*
X14032588Y-28967412D02*
X28967412Y-28967412D01*
X29605294Y-29605294D02*
X29605294Y-13713647D01*
X27053765Y-16265176D02*
X16265176Y-16265176D01*
X26734824Y-16584118D02*
X16584118Y-16584118D01*
X25778000Y-25778000D02*
X25778000Y-17540941D01*
X28648471Y-14670471D02*
X14670471Y-14670471D01*
X29605294Y-13713647D02*
X13713647Y-13713647D01*
X17222000Y-17222000D02*
X17222000Y-25778000D01*
X26096941Y-26096941D02*
X26096941Y-17222000D01*
X16265176Y-16265176D02*
X16265176Y-26734824D01*
X13713647Y-29286353D02*
X29286353Y-29286353D01*
X29924235Y-13394706D02*
X13394706Y-13394706D01*
X14989412Y-14989412D02*
X14989412Y-28010588D01*
X27372706Y-15946235D02*
X15946235Y-15946235D01*
X16903059Y-16903059D02*
X16903059Y-26096941D01*
X15627294Y-27372706D02*
X27372706Y-27372706D01*
X34256824Y-30243176D02*
X51743176Y-30243176D01*
X34256824Y-12756824D02*
X34256824Y-30243176D01*
X37446235Y-27053765D02*
X48553765Y-27053765D01*
X52062118Y-12756824D02*
X34256824Y-12756824D01*
X52062118Y-30562118D02*
X52062118Y-12756824D01*
X51105294Y-13713647D02*
X35213647Y-13713647D01*
X48234824Y-16584118D02*
X38084118Y-16584118D01*
X37127294Y-15627294D02*
X37127294Y-27372706D01*
X50148471Y-14670471D02*
X36170471Y-14670471D01*
X37446235Y-15946235D02*
X37446235Y-27053765D01*
X48872706Y-15946235D02*
X37446235Y-15946235D01*
X49829529Y-14989412D02*
X36489412Y-14989412D01*
X51105294Y-29605294D02*
X51105294Y-13713647D01*
X37765176Y-16265176D02*
X37765176Y-26734824D01*
X48553765Y-16265176D02*
X37765176Y-16265176D01*
X47278000Y-17540941D02*
X46959059Y-17540941D01*
X35213647Y-29286353D02*
X50786353Y-29286353D01*
X47596941Y-26096941D02*
X47596941Y-17222000D01*
X48872706Y-27372706D02*
X48872706Y-15946235D01*
X51424235Y-13394706D02*
X34894706Y-13394706D01*
X37127294Y-27372706D02*
X48872706Y-27372706D01*
X36489412Y-14989412D02*
X36489412Y-28010588D01*
X49191647Y-15627294D02*
X37127294Y-15627294D01*
X48234824Y-26734824D02*
X48234824Y-16584118D01*
X49191647Y-27691647D02*
X49191647Y-15627294D01*
X52700000Y-11800000D02*
X52700000Y-11200000D01*
X52700000Y-12118941D02*
X33618941Y-12118941D01*
X33937882Y-12437882D02*
X33937882Y-30562118D01*
X52400000Y-10900000D02*
X51400000Y-10900000D01*
X52700000Y-31200000D02*
X52700000Y-12118941D01*
X57989412Y-28010588D02*
X71010588Y-28010588D01*
X56713647Y-13713647D02*
X56713647Y-29286353D01*
X71010588Y-28010588D02*
X71010588Y-15308353D01*
X57351529Y-28648471D02*
X71648471Y-28648471D01*
X71648471Y-28648471D02*
X71648471Y-14670471D01*
X59903059Y-26096941D02*
X69096941Y-26096941D01*
X59584118Y-26415882D02*
X69415882Y-26415882D01*
X57670471Y-28329529D02*
X71329529Y-28329529D01*
X56075765Y-13075765D02*
X56075765Y-29924235D01*
X69096941Y-17222000D02*
X60222000Y-17222000D01*
X71967412Y-14351529D02*
X57351529Y-14351529D01*
X59584118Y-16584118D02*
X59584118Y-26415882D01*
X55118941Y-12118941D02*
X55118941Y-30881059D01*
X74200000Y-11800000D02*
X54800000Y-11800000D01*
X55437882Y-30562118D02*
X73562118Y-30562118D01*
X73562118Y-30562118D02*
X73562118Y-12756824D01*
X74200000Y-12118941D02*
X55118941Y-12118941D01*
X73881059Y-30881059D02*
X73881059Y-12437882D01*
X54800000Y-11800000D02*
X54800000Y-31200000D01*
X36808353Y-15308353D02*
X36808353Y-27691647D01*
X46959059Y-17540941D02*
X46800000Y-17700000D01*
X34894706Y-13394706D02*
X34894706Y-29605294D01*
X49510588Y-15308353D02*
X36808353Y-15308353D01*
X47915882Y-16903059D02*
X38403059Y-16903059D01*
X36808353Y-27691647D02*
X49191647Y-27691647D01*
X49829529Y-28329529D02*
X49829529Y-14989412D01*
X35851529Y-14351529D02*
X35851529Y-28648471D01*
X50786353Y-29286353D02*
X50786353Y-14032588D01*
X51743176Y-13075765D02*
X34575765Y-13075765D01*
X51424235Y-29924235D02*
X51424235Y-13394706D01*
X50467412Y-28967412D02*
X50467412Y-14351529D01*
X14670471Y-28329529D02*
X28329529Y-28329529D01*
X26096941Y-17222000D02*
X17222000Y-17222000D01*
X16584118Y-26415882D02*
X26415882Y-26415882D01*
X14351529Y-28648471D02*
X28648471Y-28648471D01*
X28648471Y-28648471D02*
X28648471Y-14670471D01*
X13713647Y-13713647D02*
X13713647Y-29286353D01*
X16903059Y-26096941D02*
X26096941Y-26096941D01*
X13075765Y-13075765D02*
X13075765Y-29924235D01*
X28010588Y-28010588D02*
X28010588Y-15308353D01*
X16584118Y-16584118D02*
X16584118Y-26415882D01*
X14989412Y-28010588D02*
X28010588Y-28010588D01*
X28967412Y-14351529D02*
X14351529Y-14351529D01*
X69415882Y-16903059D02*
X59903059Y-16903059D01*
X57670471Y-14670471D02*
X57670471Y-28329529D01*
X71010588Y-15308353D02*
X58308353Y-15308353D01*
X47425000Y-10900000D02*
X45000000Y-10900000D01*
X58627294Y-15627294D02*
X58627294Y-27372706D01*
X69415882Y-26415882D02*
X69415882Y-16903059D01*
X71329529Y-14989412D02*
X57989412Y-14989412D01*
X57032588Y-28967412D02*
X71967412Y-28967412D01*
X59265176Y-16265176D02*
X59265176Y-26734824D01*
X58627294Y-27372706D02*
X70372706Y-27372706D01*
X69734824Y-26734824D02*
X69734824Y-16584118D01*
X60222000Y-25778000D02*
X68778000Y-25778000D01*
X56713647Y-29286353D02*
X72286353Y-29286353D01*
X73243176Y-30243176D02*
X73243176Y-13075765D01*
X69734824Y-16584118D02*
X59584118Y-16584118D01*
X69096941Y-26096941D02*
X69096941Y-17222000D01*
X72605294Y-29605294D02*
X72605294Y-13713647D01*
X60222000Y-17222000D02*
X60222000Y-25778000D01*
X57989412Y-14989412D02*
X57989412Y-28010588D01*
X72924235Y-13394706D02*
X56394706Y-13394706D01*
X71648471Y-14670471D02*
X57670471Y-14670471D01*
X70053765Y-16265176D02*
X59265176Y-16265176D01*
X59903059Y-16903059D02*
X59903059Y-26096941D01*
X72286353Y-14032588D02*
X57032588Y-14032588D01*
X58946235Y-27053765D02*
X70053765Y-27053765D01*
X70372706Y-15946235D02*
X58946235Y-15946235D01*
X68778000Y-17540941D02*
X68459059Y-17540941D01*
X68778000Y-25778000D02*
X68778000Y-17540941D01*
X58946235Y-15946235D02*
X58946235Y-27053765D01*
X72605294Y-13713647D02*
X56713647Y-13713647D01*
X70372706Y-27372706D02*
X70372706Y-15946235D01*
X43500000Y-10900000D02*
X45000000Y-10900000D01*
X52700000Y-11800000D02*
X33300000Y-11800000D01*
X52381059Y-12437882D02*
X33937882Y-12437882D01*
X33937882Y-30562118D02*
X52062118Y-30562118D01*
X33300000Y-31200000D02*
X52700000Y-31200000D01*
X52381059Y-30881059D02*
X52381059Y-12437882D01*
X52700000Y-11200000D02*
X52400000Y-10900000D01*
X33618941Y-12118941D02*
X33618941Y-30881059D01*
X48975000Y-10900000D02*
X51400000Y-10900000D01*
X33618941Y-30881059D02*
X52381059Y-30881059D01*
X33300000Y-11800000D02*
X33300000Y-31200000D01*
X35532588Y-28967412D02*
X50467412Y-28967412D01*
X48553765Y-27053765D02*
X48553765Y-16265176D01*
X34575765Y-29924235D02*
X51424235Y-29924235D01*
X36170471Y-28329529D02*
X49829529Y-28329529D01*
X49510588Y-28010588D02*
X49510588Y-15308353D01*
X38722000Y-17222000D02*
X38722000Y-25778000D01*
X47915882Y-26415882D02*
X47915882Y-16903059D01*
X36489412Y-28010588D02*
X49510588Y-28010588D01*
X34894706Y-29605294D02*
X51105294Y-29605294D01*
X38084118Y-16584118D02*
X38084118Y-26415882D01*
X38722000Y-25778000D02*
X47278000Y-25778000D01*
X47278000Y-25778000D02*
X47278000Y-17540941D01*
X47596941Y-17222000D02*
X38722000Y-17222000D01*
X51743176Y-30243176D02*
X51743176Y-13075765D01*
X37765176Y-26734824D02*
X48234824Y-26734824D01*
X38403059Y-16903059D02*
X38403059Y-26096941D01*
X50786353Y-14032588D02*
X35532588Y-14032588D01*
X36170471Y-14670471D02*
X36170471Y-28329529D01*
X35532588Y-14032588D02*
X35532588Y-28967412D01*
X38084118Y-26415882D02*
X47915882Y-26415882D01*
X34575765Y-13075765D02*
X34575765Y-29924235D01*
X50467412Y-14351529D02*
X35851529Y-14351529D01*
X35851529Y-28648471D02*
X50148471Y-28648471D01*
X50148471Y-28648471D02*
X50148471Y-14670471D01*
X38403059Y-26096941D02*
X47596941Y-26096941D01*
X35213647Y-13713647D02*
X35213647Y-29286353D01*
X57351529Y-14351529D02*
X57351529Y-28648471D01*
X56394706Y-13394706D02*
X56394706Y-29605294D01*
X58308353Y-27691647D02*
X70691647Y-27691647D01*
X71967412Y-28967412D02*
X71967412Y-14351529D01*
X57032588Y-14032588D02*
X57032588Y-28967412D01*
X59265176Y-26734824D02*
X69734824Y-26734824D01*
X56075765Y-29924235D02*
X72924235Y-29924235D01*
X71329529Y-28329529D02*
X71329529Y-14989412D01*
X68459059Y-17540941D02*
X68300000Y-17700000D01*
X72286353Y-29286353D02*
X72286353Y-14032588D01*
X56394706Y-29605294D02*
X72605294Y-29605294D01*
X73243176Y-13075765D02*
X56075765Y-13075765D01*
X70053765Y-27053765D02*
X70053765Y-16265176D01*
X58308353Y-15308353D02*
X58308353Y-27691647D01*
X72924235Y-29924235D02*
X72924235Y-13394706D01*
X68925000Y-10900000D02*
X66500000Y-10900000D01*
X55118941Y-30881059D02*
X73881059Y-30881059D01*
X70475000Y-10900000D02*
X72900000Y-10900000D01*
X65000000Y-10900000D02*
X66500000Y-10900000D01*
X70691647Y-15627294D02*
X58627294Y-15627294D01*
X54800000Y-31200000D02*
X74200000Y-31200000D01*
X74200000Y-11200000D02*
X73900000Y-10900000D01*
X70691647Y-27691647D02*
X70691647Y-15627294D01*
X74200000Y-11800000D02*
X74200000Y-11200000D01*
X73881059Y-12437882D02*
X55437882Y-12437882D01*
X55756824Y-30243176D02*
X73243176Y-30243176D01*
X55756824Y-12756824D02*
X55756824Y-30243176D01*
X55437882Y-12437882D02*
X55437882Y-30562118D01*
X74200000Y-31200000D02*
X74200000Y-12118941D01*
X73562118Y-12756824D02*
X55756824Y-12756824D01*
X73900000Y-10900000D02*
X72900000Y-10900000D01*
X14989412Y-57989412D02*
X14989412Y-71010588D01*
X16903059Y-59903059D02*
X16903059Y-69096941D01*
X15627294Y-70372706D02*
X27372706Y-70372706D01*
X16265176Y-59265176D02*
X16265176Y-69734824D01*
X13713647Y-72286353D02*
X29286353Y-72286353D01*
X27372706Y-58946235D02*
X15946235Y-58946235D01*
X29924235Y-56394706D02*
X13394706Y-56394706D01*
X34256824Y-73243176D02*
X51743176Y-73243176D01*
X34256824Y-55756824D02*
X34256824Y-73243176D01*
X37446235Y-70053765D02*
X48553765Y-70053765D01*
X31200000Y-74200000D02*
X31200000Y-55118941D01*
X28329529Y-71329529D02*
X28329529Y-57989412D01*
X13394706Y-56394706D02*
X13394706Y-72605294D01*
X30881059Y-55437882D02*
X12437882Y-55437882D01*
X30562118Y-73562118D02*
X30562118Y-55756824D01*
X15308353Y-58308353D02*
X15308353Y-70691647D01*
X30562118Y-55756824D02*
X12756824Y-55756824D01*
X11800000Y-74200000D02*
X31200000Y-74200000D01*
X12756824Y-73243176D02*
X30243176Y-73243176D01*
X31200000Y-54200000D02*
X30900000Y-53900000D01*
X11800000Y-54800000D02*
X11800000Y-74200000D01*
X31200000Y-55118941D02*
X12118941Y-55118941D01*
X31200000Y-54800000D02*
X31200000Y-54200000D01*
X12118941Y-55118941D02*
X12118941Y-73881059D01*
X30881059Y-73881059D02*
X30881059Y-55437882D01*
X12437882Y-73562118D02*
X30562118Y-73562118D01*
X12756824Y-55756824D02*
X12756824Y-73243176D01*
X27691647Y-58627294D02*
X15627294Y-58627294D01*
X27691647Y-70691647D02*
X27691647Y-58627294D01*
X30900000Y-53900000D02*
X29900000Y-53900000D01*
X12437882Y-55437882D02*
X12437882Y-73562118D01*
X31200000Y-54800000D02*
X11800000Y-54800000D01*
X13394706Y-72605294D02*
X29605294Y-72605294D01*
X26415882Y-59903059D02*
X16903059Y-59903059D01*
X13075765Y-72924235D02*
X29924235Y-72924235D01*
X14351529Y-57351529D02*
X14351529Y-71648471D01*
X25459059Y-60540941D02*
X25300000Y-60700000D01*
X16265176Y-69734824D02*
X26734824Y-69734824D01*
X15308353Y-70691647D02*
X27691647Y-70691647D01*
X30243176Y-56075765D02*
X13075765Y-56075765D01*
X28010588Y-58308353D02*
X15308353Y-58308353D01*
X29286353Y-72286353D02*
X29286353Y-57032588D01*
X14032588Y-57032588D02*
X14032588Y-71967412D01*
X29924235Y-72924235D02*
X29924235Y-56394706D01*
X14670471Y-57670471D02*
X14670471Y-71329529D01*
X28967412Y-71967412D02*
X28967412Y-57351529D01*
X27053765Y-70053765D02*
X27053765Y-59265176D01*
X8424235Y-72924235D02*
X8424235Y-56394706D01*
X4596941Y-60222000D02*
X-4278000Y-60222000D01*
X6510588Y-71010588D02*
X6510588Y-58308353D01*
X-7148471Y-71648471D02*
X7148471Y-71648471D01*
X6829529Y-57989412D02*
X-6510588Y-57989412D01*
X4278000Y-68778000D02*
X4278000Y-60540941D01*
X5553765Y-70053765D02*
X5553765Y-59265176D01*
X4278000Y-60540941D02*
X3959059Y-60540941D01*
X5234824Y-69734824D02*
X5234824Y-59584118D01*
X7467412Y-71967412D02*
X7467412Y-57351529D01*
X7786353Y-72286353D02*
X7786353Y-57032588D01*
X-8105294Y-72605294D02*
X8105294Y-72605294D01*
X6829529Y-71329529D02*
X6829529Y-57989412D01*
X-8424235Y-72924235D02*
X8424235Y-72924235D01*
X-7786353Y-56713647D02*
X-7786353Y-72286353D01*
X-4596941Y-69096941D02*
X4596941Y-69096941D01*
X4915882Y-59903059D02*
X-4596941Y-59903059D01*
X-6829529Y-57670471D02*
X-6829529Y-71329529D01*
X-4596941Y-59903059D02*
X-4596941Y-69096941D01*
X-5234824Y-69734824D02*
X5234824Y-69734824D01*
X-7467412Y-57032588D02*
X-7467412Y-71967412D01*
X3959059Y-60540941D02*
X3800000Y-60700000D01*
X-6510588Y-71010588D02*
X6510588Y-71010588D01*
X-6829529Y-71329529D02*
X6829529Y-71329529D01*
X-4915882Y-69415882D02*
X4915882Y-69415882D01*
X7148471Y-71648471D02*
X7148471Y-57670471D01*
X8743176Y-56075765D02*
X-8424235Y-56075765D01*
X-7467412Y-71967412D02*
X7467412Y-71967412D01*
X-4915882Y-59584118D02*
X-4915882Y-69415882D01*
X-4278000Y-60222000D02*
X-4278000Y-68778000D01*
X4915882Y-69415882D02*
X4915882Y-59903059D01*
X-8424235Y-56075765D02*
X-8424235Y-72924235D01*
X-7148471Y-57351529D02*
X-7148471Y-71648471D01*
X6510588Y-58308353D02*
X-6191647Y-58308353D01*
X-6191647Y-70691647D02*
X6191647Y-70691647D01*
X-4278000Y-68778000D02*
X4278000Y-68778000D01*
X7467412Y-57351529D02*
X-7148471Y-57351529D01*
X8743176Y-73243176D02*
X8743176Y-56075765D01*
X-8105294Y-56394706D02*
X-8105294Y-72605294D01*
X-6191647Y-58308353D02*
X-6191647Y-70691647D01*
X7786353Y-57032588D02*
X-7467412Y-57032588D01*
X-8743176Y-55756824D02*
X-8743176Y-73243176D01*
X-7786353Y-72286353D02*
X7786353Y-72286353D01*
X9700000Y-54800000D02*
X9700000Y-54200000D01*
X8105294Y-56713647D02*
X-7786353Y-56713647D01*
X-9062118Y-55437882D02*
X-9062118Y-73562118D01*
X-5872706Y-58627294D02*
X-5872706Y-70372706D01*
X4596941Y-69096941D02*
X4596941Y-60222000D01*
X8424235Y-56394706D02*
X-8105294Y-56394706D01*
X-6510588Y-57989412D02*
X-6510588Y-71010588D01*
X9062118Y-55756824D02*
X-8743176Y-55756824D01*
X-5872706Y-70372706D02*
X5872706Y-70372706D01*
X6191647Y-70691647D02*
X6191647Y-58627294D01*
X9700000Y-55118941D02*
X-9381059Y-55118941D01*
X8105294Y-72605294D02*
X8105294Y-56713647D01*
X7148471Y-57670471D02*
X-6829529Y-57670471D01*
X5553765Y-59265176D02*
X-5234824Y-59265176D01*
X9700000Y-74200000D02*
X9700000Y-55118941D01*
X-5553765Y-70053765D02*
X5553765Y-70053765D01*
X-5234824Y-59265176D02*
X-5234824Y-69734824D01*
X9400000Y-53900000D02*
X8400000Y-53900000D01*
X5872706Y-70372706D02*
X5872706Y-58946235D01*
X9062118Y-73562118D02*
X9062118Y-55756824D01*
X-9700000Y-74200000D02*
X9700000Y-74200000D01*
X5872706Y-58946235D02*
X-5553765Y-58946235D01*
X9381059Y-55437882D02*
X-9062118Y-55437882D01*
X6191647Y-58627294D02*
X-5872706Y-58627294D01*
X-8743176Y-73243176D02*
X8743176Y-73243176D01*
X-5553765Y-58946235D02*
X-5553765Y-70053765D01*
X-9381059Y-55118941D02*
X-9381059Y-73881059D01*
X9381059Y-73881059D02*
X9381059Y-55437882D01*
X-9700000Y-54800000D02*
X-9700000Y-74200000D01*
X5234824Y-59584118D02*
X-4915882Y-59584118D01*
X9700000Y-54200000D02*
X9400000Y-53900000D01*
X-9381059Y-73881059D02*
X9381059Y-73881059D01*
X5975000Y-53900000D02*
X8400000Y-53900000D01*
X500000Y-53900000D02*
X2000000Y-53900000D01*
X9700000Y-54800000D02*
X-9700000Y-54800000D01*
X-9062118Y-73562118D02*
X9062118Y-73562118D01*
X4425000Y-53900000D02*
X2000000Y-53900000D01*
X22000000Y-53900000D02*
X23500000Y-53900000D01*
X12118941Y-73881059D02*
X30881059Y-73881059D01*
X27475000Y-53900000D02*
X29900000Y-53900000D01*
X25925000Y-53900000D02*
X23500000Y-53900000D01*
X25778000Y-60540941D02*
X25459059Y-60540941D01*
X15946235Y-70053765D02*
X27053765Y-70053765D01*
X29605294Y-56713647D02*
X13713647Y-56713647D01*
X17222000Y-60222000D02*
X17222000Y-68778000D01*
X26096941Y-69096941D02*
X26096941Y-60222000D01*
X26415882Y-69415882D02*
X26415882Y-59903059D01*
X29286353Y-57032588D02*
X14032588Y-57032588D01*
X26734824Y-69734824D02*
X26734824Y-59584118D01*
X27053765Y-59265176D02*
X16265176Y-59265176D01*
X26734824Y-59584118D02*
X16584118Y-59584118D01*
X28329529Y-57989412D02*
X14989412Y-57989412D01*
X15627294Y-58627294D02*
X15627294Y-70372706D01*
X30243176Y-73243176D02*
X30243176Y-56075765D01*
X27372706Y-70372706D02*
X27372706Y-58946235D01*
X14032588Y-71967412D02*
X28967412Y-71967412D01*
X25778000Y-68778000D02*
X25778000Y-60540941D01*
X17222000Y-68778000D02*
X25778000Y-68778000D01*
X29605294Y-72605294D02*
X29605294Y-56713647D01*
X28648471Y-57670471D02*
X14670471Y-57670471D01*
X15946235Y-58946235D02*
X15946235Y-70053765D01*
X31200000Y-33618941D02*
X12118941Y-33618941D01*
X11800000Y-33300000D02*
X11800000Y-52700000D01*
X30881059Y-52381059D02*
X30881059Y-33937882D01*
X30562118Y-52062118D02*
X30562118Y-34256824D01*
X12118941Y-33618941D02*
X12118941Y-52381059D01*
X31200000Y-33300000D02*
X11800000Y-33300000D01*
X12437882Y-52062118D02*
X30562118Y-52062118D01*
X31200000Y-52700000D02*
X31200000Y-33618941D01*
X30900000Y-32400000D02*
X29900000Y-32400000D01*
X30881059Y-33937882D02*
X12437882Y-33937882D01*
X30562118Y-34256824D02*
X12756824Y-34256824D01*
X31200000Y-33300000D02*
X31200000Y-32700000D01*
X12756824Y-34256824D02*
X12756824Y-51743176D01*
X11800000Y-52700000D02*
X31200000Y-52700000D01*
X27691647Y-37127294D02*
X15627294Y-37127294D01*
X12756824Y-51743176D02*
X30243176Y-51743176D01*
X12437882Y-33937882D02*
X12437882Y-52062118D01*
X27691647Y-49191647D02*
X27691647Y-37127294D01*
X31200000Y-32700000D02*
X30900000Y-32400000D01*
X15308353Y-36808353D02*
X15308353Y-49191647D01*
X28329529Y-49829529D02*
X28329529Y-36489412D01*
X13394706Y-34894706D02*
X13394706Y-51105294D01*
X29924235Y-51424235D02*
X29924235Y-34894706D01*
X14351529Y-35851529D02*
X14351529Y-50148471D01*
X15308353Y-49191647D02*
X27691647Y-49191647D01*
X28967412Y-50467412D02*
X28967412Y-35851529D01*
X29286353Y-50786353D02*
X29286353Y-35532588D01*
X16265176Y-48234824D02*
X26734824Y-48234824D01*
X13394706Y-51105294D02*
X29605294Y-51105294D01*
X30243176Y-34575765D02*
X13075765Y-34575765D01*
X25459059Y-39040941D02*
X25300000Y-39200000D01*
X27053765Y-48553765D02*
X27053765Y-37765176D01*
X14032588Y-35532588D02*
X14032588Y-50467412D01*
X13075765Y-51424235D02*
X29924235Y-51424235D01*
X14670471Y-36170471D02*
X14670471Y-49829529D01*
X28010588Y-36808353D02*
X15308353Y-36808353D01*
X26415882Y-38403059D02*
X16903059Y-38403059D01*
X8743176Y-34575765D02*
X-8424235Y-34575765D01*
X8424235Y-51424235D02*
X8424235Y-34894706D01*
X-8105294Y-34894706D02*
X-8105294Y-51105294D01*
X-7148471Y-35851529D02*
X-7148471Y-50148471D01*
X7467412Y-50467412D02*
X7467412Y-35851529D01*
X-6191647Y-36808353D02*
X-6191647Y-49191647D01*
X3959059Y-39040941D02*
X3800000Y-39200000D01*
X6510588Y-36808353D02*
X-6191647Y-36808353D01*
X4915882Y-38403059D02*
X-4596941Y-38403059D01*
X-6191647Y-49191647D02*
X6191647Y-49191647D01*
X6829529Y-49829529D02*
X6829529Y-36489412D01*
X7786353Y-50786353D02*
X7786353Y-35532588D01*
X-5234824Y-48234824D02*
X5234824Y-48234824D01*
X5553765Y-48553765D02*
X5553765Y-37765176D01*
X-8105294Y-51105294D02*
X8105294Y-51105294D01*
X-7467412Y-35532588D02*
X-7467412Y-50467412D01*
X-8424235Y-51424235D02*
X8424235Y-51424235D01*
X-6829529Y-36170471D02*
X-6829529Y-49829529D01*
X-7786353Y-35213647D02*
X-7786353Y-50786353D01*
X-8424235Y-34575765D02*
X-8424235Y-51424235D01*
X4596941Y-38722000D02*
X-4278000Y-38722000D01*
X-4596941Y-47596941D02*
X4596941Y-47596941D01*
X-6829529Y-49829529D02*
X6829529Y-49829529D01*
X6510588Y-49510588D02*
X6510588Y-36808353D01*
X-4915882Y-38084118D02*
X-4915882Y-47915882D01*
X-6510588Y-49510588D02*
X6510588Y-49510588D01*
X-4915882Y-47915882D02*
X4915882Y-47915882D01*
X7467412Y-35851529D02*
X-7148471Y-35851529D01*
X-7148471Y-50148471D02*
X7148471Y-50148471D01*
X7148471Y-50148471D02*
X7148471Y-36170471D01*
X-7467412Y-50467412D02*
X7467412Y-50467412D01*
X-4596941Y-38403059D02*
X-4596941Y-47596941D01*
X-4278000Y-38722000D02*
X-4278000Y-47278000D01*
X4915882Y-47915882D02*
X4915882Y-38403059D01*
X-4278000Y-47278000D02*
X4278000Y-47278000D01*
X4278000Y-47278000D02*
X4278000Y-39040941D01*
X8743176Y-51743176D02*
X8743176Y-34575765D01*
X7786353Y-35532588D02*
X-7467412Y-35532588D01*
X6829529Y-36489412D02*
X-6510588Y-36489412D01*
X4278000Y-39040941D02*
X3959059Y-39040941D01*
X5234824Y-48234824D02*
X5234824Y-38084118D01*
X8105294Y-51105294D02*
X8105294Y-35213647D01*
X7148471Y-36170471D02*
X-6829529Y-36170471D01*
X8105294Y-35213647D02*
X-7786353Y-35213647D01*
X-5872706Y-37127294D02*
X-5872706Y-48872706D01*
X-5234824Y-37765176D02*
X-5234824Y-48234824D01*
X5553765Y-37765176D02*
X-5234824Y-37765176D01*
X4596941Y-47596941D02*
X4596941Y-38722000D01*
X-7786353Y-50786353D02*
X7786353Y-50786353D01*
X-5553765Y-48553765D02*
X5553765Y-48553765D01*
X5234824Y-38084118D02*
X-4915882Y-38084118D01*
X-5553765Y-37446235D02*
X-5553765Y-48553765D01*
X5872706Y-48872706D02*
X5872706Y-37446235D01*
X-5872706Y-48872706D02*
X5872706Y-48872706D01*
X8424235Y-34894706D02*
X-8105294Y-34894706D01*
X-6510588Y-36489412D02*
X-6510588Y-49510588D01*
X5872706Y-37446235D02*
X-5553765Y-37446235D01*
X6191647Y-37127294D02*
X-5872706Y-37127294D01*
X6191647Y-49191647D02*
X6191647Y-37127294D01*
X-8743176Y-51743176D02*
X8743176Y-51743176D01*
X-8743176Y-34256824D02*
X-8743176Y-51743176D01*
X9062118Y-34256824D02*
X-8743176Y-34256824D01*
X9062118Y-52062118D02*
X9062118Y-34256824D01*
X9700000Y-52700000D02*
X9700000Y-33618941D01*
X-9062118Y-33937882D02*
X-9062118Y-52062118D01*
X9700000Y-33300000D02*
X9700000Y-32700000D01*
X9700000Y-33618941D02*
X-9381059Y-33618941D01*
X9400000Y-32400000D02*
X8400000Y-32400000D01*
X-9700000Y-52700000D02*
X9700000Y-52700000D01*
X9381059Y-33937882D02*
X-9062118Y-33937882D01*
X-9381059Y-33618941D02*
X-9381059Y-52381059D01*
X9381059Y-52381059D02*
X9381059Y-33937882D01*
X-9700000Y-33300000D02*
X-9700000Y-52700000D01*
X9700000Y-32700000D02*
X9400000Y-32400000D01*
X-9062118Y-52062118D02*
X9062118Y-52062118D01*
X9700000Y-33300000D02*
X-9700000Y-33300000D01*
X-9381059Y-52381059D02*
X9381059Y-52381059D01*
X5975000Y-32400000D02*
X8400000Y-32400000D01*
X500000Y-32400000D02*
X2000000Y-32400000D01*
X4425000Y-32400000D02*
X2000000Y-32400000D01*
X52381059Y-55437882D02*
X33937882Y-55437882D01*
X33300000Y-74200000D02*
X52700000Y-74200000D01*
X33937882Y-73562118D02*
X52062118Y-73562118D01*
X52381059Y-73881059D02*
X52381059Y-55437882D01*
X52700000Y-54200000D02*
X52400000Y-53900000D01*
X48553765Y-70053765D02*
X48553765Y-59265176D01*
X48975000Y-53900000D02*
X51400000Y-53900000D01*
X36170471Y-71329529D02*
X49829529Y-71329529D01*
X50467412Y-57351529D02*
X35851529Y-57351529D01*
X47278000Y-68778000D02*
X47278000Y-60540941D01*
X68459059Y-60540941D02*
X68300000Y-60700000D01*
X47915882Y-69415882D02*
X47915882Y-59903059D01*
X47596941Y-60222000D02*
X38722000Y-60222000D01*
X50786353Y-57032588D02*
X35532588Y-57032588D01*
X34575765Y-56075765D02*
X34575765Y-72924235D01*
X57351529Y-57351529D02*
X57351529Y-71648471D01*
X57032588Y-57032588D02*
X57032588Y-71967412D01*
X35532588Y-71967412D02*
X50467412Y-71967412D01*
X35213647Y-56713647D02*
X35213647Y-72286353D01*
X51743176Y-73243176D02*
X51743176Y-56075765D01*
X50148471Y-71648471D02*
X50148471Y-57670471D01*
X33618941Y-55118941D02*
X33618941Y-73881059D01*
X34575765Y-72924235D02*
X51424235Y-72924235D01*
X33300000Y-54800000D02*
X33300000Y-74200000D01*
X36489412Y-71010588D02*
X49510588Y-71010588D01*
X35851529Y-71648471D02*
X50148471Y-71648471D01*
X72286353Y-72286353D02*
X72286353Y-57032588D01*
X37765176Y-69734824D02*
X48234824Y-69734824D01*
X38403059Y-59903059D02*
X38403059Y-69096941D01*
X38722000Y-60222000D02*
X38722000Y-68778000D01*
X36170471Y-57670471D02*
X36170471Y-71329529D01*
X34894706Y-72605294D02*
X51105294Y-72605294D01*
X35532588Y-57032588D02*
X35532588Y-71967412D01*
X38084118Y-69415882D02*
X47915882Y-69415882D01*
X33618941Y-73881059D02*
X52381059Y-73881059D01*
X38084118Y-59584118D02*
X38084118Y-69415882D01*
X38722000Y-68778000D02*
X47278000Y-68778000D01*
X49510588Y-71010588D02*
X49510588Y-58308353D01*
X38403059Y-69096941D02*
X47596941Y-69096941D01*
X56394706Y-56394706D02*
X56394706Y-72605294D01*
X58308353Y-70691647D02*
X70691647Y-70691647D01*
X71967412Y-71967412D02*
X71967412Y-57351529D01*
X59265176Y-69734824D02*
X69734824Y-69734824D01*
X56075765Y-72924235D02*
X72924235Y-72924235D01*
X71329529Y-71329529D02*
X71329529Y-57989412D01*
X73243176Y-56075765D02*
X56075765Y-56075765D01*
X72924235Y-72924235D02*
X72924235Y-56394706D01*
X56394706Y-72605294D02*
X72605294Y-72605294D01*
X68925000Y-53900000D02*
X66500000Y-53900000D01*
X58308353Y-58308353D02*
X58308353Y-70691647D01*
X70475000Y-53900000D02*
X72900000Y-53900000D01*
X55118941Y-73881059D02*
X73881059Y-73881059D01*
X65000000Y-53900000D02*
X66500000Y-53900000D01*
X70053765Y-70053765D02*
X70053765Y-59265176D01*
X73900000Y-53900000D02*
X72900000Y-53900000D01*
X70691647Y-58627294D02*
X58627294Y-58627294D01*
X54800000Y-74200000D02*
X74200000Y-74200000D01*
X55756824Y-55756824D02*
X55756824Y-73243176D01*
X55437882Y-55437882D02*
X55437882Y-73562118D01*
X74200000Y-54200000D02*
X73900000Y-53900000D01*
X73562118Y-55756824D02*
X55756824Y-55756824D01*
X70691647Y-70691647D02*
X70691647Y-58627294D01*
X74200000Y-74200000D02*
X74200000Y-55118941D01*
X55756824Y-73243176D02*
X73243176Y-73243176D01*
X73881059Y-55437882D02*
X55437882Y-55437882D01*
X74200000Y-54800000D02*
X74200000Y-54200000D01*
X37446235Y-58946235D02*
X37446235Y-70053765D01*
X47596941Y-69096941D02*
X47596941Y-60222000D01*
X52700000Y-74200000D02*
X52700000Y-55118941D01*
X52062118Y-73562118D02*
X52062118Y-55756824D01*
X33937882Y-55437882D02*
X33937882Y-73562118D01*
X37127294Y-58627294D02*
X37127294Y-70372706D01*
X48872706Y-58946235D02*
X37446235Y-58946235D01*
X36489412Y-57989412D02*
X36489412Y-71010588D01*
X49191647Y-70691647D02*
X49191647Y-58627294D01*
X51105294Y-56713647D02*
X35213647Y-56713647D01*
X52400000Y-53900000D02*
X51400000Y-53900000D01*
X51424235Y-56394706D02*
X34894706Y-56394706D01*
X48234824Y-59584118D02*
X38084118Y-59584118D01*
X49191647Y-58627294D02*
X37127294Y-58627294D01*
X52062118Y-55756824D02*
X34256824Y-55756824D01*
X48553765Y-59265176D02*
X37765176Y-59265176D01*
X52700000Y-55118941D02*
X33618941Y-55118941D01*
X47278000Y-60540941D02*
X46959059Y-60540941D01*
X37127294Y-70372706D02*
X48872706Y-70372706D01*
X48234824Y-69734824D02*
X48234824Y-59584118D01*
X49829529Y-57989412D02*
X36489412Y-57989412D01*
X48872706Y-70372706D02*
X48872706Y-58946235D01*
X52700000Y-54800000D02*
X52700000Y-54200000D01*
X37765176Y-59265176D02*
X37765176Y-69734824D01*
X50148471Y-57670471D02*
X36170471Y-57670471D01*
X35213647Y-72286353D02*
X50786353Y-72286353D01*
X51105294Y-72605294D02*
X51105294Y-56713647D01*
X57351529Y-71648471D02*
X71648471Y-71648471D01*
X69096941Y-60222000D02*
X60222000Y-60222000D01*
X56713647Y-56713647D02*
X56713647Y-72286353D01*
X71648471Y-71648471D02*
X71648471Y-57670471D01*
X71967412Y-57351529D02*
X57351529Y-57351529D01*
X59584118Y-69415882D02*
X69415882Y-69415882D01*
X59903059Y-69096941D02*
X69096941Y-69096941D01*
X57989412Y-71010588D02*
X71010588Y-71010588D01*
X57670471Y-71329529D02*
X71329529Y-71329529D01*
X71010588Y-71010588D02*
X71010588Y-58308353D01*
X56075765Y-56075765D02*
X56075765Y-72924235D01*
X73881059Y-73881059D02*
X73881059Y-55437882D01*
X36808353Y-58308353D02*
X36808353Y-70691647D01*
X74200000Y-54800000D02*
X54800000Y-54800000D01*
X54800000Y-54800000D02*
X54800000Y-74200000D01*
X34894706Y-56394706D02*
X34894706Y-72605294D01*
X74200000Y-55118941D02*
X55118941Y-55118941D01*
X46959059Y-60540941D02*
X46800000Y-60700000D01*
X55118941Y-55118941D02*
X55118941Y-73881059D01*
X59584118Y-59584118D02*
X59584118Y-69415882D01*
X55437882Y-73562118D02*
X73562118Y-73562118D01*
X73562118Y-73562118D02*
X73562118Y-55756824D01*
X36808353Y-70691647D02*
X49191647Y-70691647D01*
X13713647Y-56713647D02*
X13713647Y-72286353D01*
X50467412Y-71967412D02*
X50467412Y-57351529D01*
X35851529Y-57351529D02*
X35851529Y-71648471D01*
X28010588Y-71010588D02*
X28010588Y-58308353D01*
X14670471Y-71329529D02*
X28329529Y-71329529D01*
X16584118Y-69415882D02*
X26415882Y-69415882D01*
X49510588Y-58308353D02*
X36808353Y-58308353D01*
X28648471Y-71648471D02*
X28648471Y-57670471D01*
X69415882Y-59903059D02*
X59903059Y-59903059D01*
X26096941Y-60222000D02*
X17222000Y-60222000D01*
X51743176Y-56075765D02*
X34575765Y-56075765D01*
X14989412Y-71010588D02*
X28010588Y-71010588D01*
X14351529Y-71648471D02*
X28648471Y-71648471D01*
X51424235Y-72924235D02*
X51424235Y-56394706D01*
X57670471Y-57670471D02*
X57670471Y-71329529D01*
X47915882Y-59903059D02*
X38403059Y-59903059D01*
X71010588Y-58308353D02*
X58308353Y-58308353D01*
X13075765Y-56075765D02*
X13075765Y-72924235D01*
X28967412Y-57351529D02*
X14351529Y-57351529D01*
X49829529Y-71329529D02*
X49829529Y-57989412D01*
X50786353Y-72286353D02*
X50786353Y-57032588D01*
X16903059Y-69096941D02*
X26096941Y-69096941D01*
X16584118Y-59584118D02*
X16584118Y-69415882D01*
X47425000Y-53900000D02*
X45000000Y-53900000D01*
X69415882Y-69415882D02*
X69415882Y-59903059D01*
X60222000Y-68778000D02*
X68778000Y-68778000D01*
X60222000Y-60222000D02*
X60222000Y-68778000D01*
X57032588Y-71967412D02*
X71967412Y-71967412D01*
X57989412Y-57989412D02*
X57989412Y-71010588D01*
X58627294Y-58627294D02*
X58627294Y-70372706D01*
X72924235Y-56394706D02*
X56394706Y-56394706D01*
X71648471Y-57670471D02*
X57670471Y-57670471D01*
X70053765Y-59265176D02*
X59265176Y-59265176D01*
X59903059Y-59903059D02*
X59903059Y-69096941D01*
X72286353Y-57032588D02*
X57032588Y-57032588D01*
X58946235Y-70053765D02*
X70053765Y-70053765D01*
X70372706Y-58946235D02*
X58946235Y-58946235D01*
X58627294Y-70372706D02*
X70372706Y-70372706D01*
X69734824Y-69734824D02*
X69734824Y-59584118D01*
X71329529Y-57989412D02*
X57989412Y-57989412D01*
X56713647Y-72286353D02*
X72286353Y-72286353D01*
X59265176Y-59265176D02*
X59265176Y-69734824D01*
X73243176Y-73243176D02*
X73243176Y-56075765D01*
X69734824Y-59584118D02*
X59584118Y-59584118D01*
X69096941Y-69096941D02*
X69096941Y-60222000D01*
X72605294Y-72605294D02*
X72605294Y-56713647D01*
X68778000Y-60540941D02*
X68459059Y-60540941D01*
X58946235Y-58946235D02*
X58946235Y-70053765D01*
X52700000Y-54800000D02*
X33300000Y-54800000D01*
X70372706Y-70372706D02*
X70372706Y-58946235D01*
X68778000Y-68778000D02*
X68778000Y-60540941D01*
X72605294Y-56713647D02*
X56713647Y-56713647D01*
X43500000Y-53900000D02*
X45000000Y-53900000D01*
X22000000Y-32400000D02*
X23500000Y-32400000D01*
X12118941Y-52381059D02*
X30881059Y-52381059D01*
X27475000Y-32400000D02*
X29900000Y-32400000D01*
X25925000Y-32400000D02*
X23500000Y-32400000D01*
X29286353Y-35532588D02*
X14032588Y-35532588D01*
X28329529Y-36489412D02*
X14989412Y-36489412D01*
X26734824Y-48234824D02*
X26734824Y-38084118D01*
X15627294Y-37127294D02*
X15627294Y-48872706D01*
X15946235Y-48553765D02*
X27053765Y-48553765D01*
X15946235Y-37446235D02*
X15946235Y-48553765D01*
X27372706Y-48872706D02*
X27372706Y-37446235D01*
X26415882Y-47915882D02*
X26415882Y-38403059D01*
X25778000Y-39040941D02*
X25459059Y-39040941D01*
X30243176Y-51743176D02*
X30243176Y-34575765D01*
X17222000Y-47278000D02*
X25778000Y-47278000D01*
X14032588Y-50467412D02*
X28967412Y-50467412D01*
X29605294Y-51105294D02*
X29605294Y-35213647D01*
X27053765Y-37765176D02*
X16265176Y-37765176D01*
X26734824Y-38084118D02*
X16584118Y-38084118D01*
X25778000Y-47278000D02*
X25778000Y-39040941D01*
X28648471Y-36170471D02*
X14670471Y-36170471D01*
X29605294Y-35213647D02*
X13713647Y-35213647D01*
X17222000Y-38722000D02*
X17222000Y-47278000D01*
X26096941Y-47596941D02*
X26096941Y-38722000D01*
X16265176Y-37765176D02*
X16265176Y-48234824D01*
X13713647Y-50786353D02*
X29286353Y-50786353D01*
X29924235Y-34894706D02*
X13394706Y-34894706D01*
X14989412Y-36489412D02*
X14989412Y-49510588D01*
X27372706Y-37446235D02*
X15946235Y-37446235D01*
X16903059Y-38403059D02*
X16903059Y-47596941D01*
X15627294Y-48872706D02*
X27372706Y-48872706D01*
X34256824Y-51743176D02*
X51743176Y-51743176D01*
X34256824Y-34256824D02*
X34256824Y-51743176D01*
X37446235Y-48553765D02*
X48553765Y-48553765D01*
X52062118Y-34256824D02*
X34256824Y-34256824D01*
X52062118Y-52062118D02*
X52062118Y-34256824D01*
X51105294Y-35213647D02*
X35213647Y-35213647D01*
X48234824Y-38084118D02*
X38084118Y-38084118D01*
X37127294Y-37127294D02*
X37127294Y-48872706D01*
X50148471Y-36170471D02*
X36170471Y-36170471D01*
X37446235Y-37446235D02*
X37446235Y-48553765D01*
X48872706Y-37446235D02*
X37446235Y-37446235D01*
X49829529Y-36489412D02*
X36489412Y-36489412D01*
X51105294Y-51105294D02*
X51105294Y-35213647D01*
X37765176Y-37765176D02*
X37765176Y-48234824D01*
X48553765Y-37765176D02*
X37765176Y-37765176D01*
X47278000Y-39040941D02*
X46959059Y-39040941D01*
X35213647Y-50786353D02*
X50786353Y-50786353D01*
X47596941Y-47596941D02*
X47596941Y-38722000D01*
X48872706Y-48872706D02*
X48872706Y-37446235D01*
X51424235Y-34894706D02*
X34894706Y-34894706D01*
X37127294Y-48872706D02*
X48872706Y-48872706D01*
X36489412Y-36489412D02*
X36489412Y-49510588D01*
X49191647Y-37127294D02*
X37127294Y-37127294D01*
X48234824Y-48234824D02*
X48234824Y-38084118D01*
X49191647Y-49191647D02*
X49191647Y-37127294D01*
X52700000Y-33300000D02*
X52700000Y-32700000D01*
X52700000Y-33618941D02*
X33618941Y-33618941D01*
X33937882Y-33937882D02*
X33937882Y-52062118D01*
X52400000Y-32400000D02*
X51400000Y-32400000D01*
X52700000Y-52700000D02*
X52700000Y-33618941D01*
X57989412Y-49510588D02*
X71010588Y-49510588D01*
X56713647Y-35213647D02*
X56713647Y-50786353D01*
X71010588Y-49510588D02*
X71010588Y-36808353D01*
X57351529Y-50148471D02*
X71648471Y-50148471D01*
X71648471Y-50148471D02*
X71648471Y-36170471D01*
X59903059Y-47596941D02*
X69096941Y-47596941D01*
X59584118Y-47915882D02*
X69415882Y-47915882D01*
X57670471Y-49829529D02*
X71329529Y-49829529D01*
X56075765Y-34575765D02*
X56075765Y-51424235D01*
X69096941Y-38722000D02*
X60222000Y-38722000D01*
X71967412Y-35851529D02*
X57351529Y-35851529D01*
X59584118Y-38084118D02*
X59584118Y-47915882D01*
X55118941Y-33618941D02*
X55118941Y-52381059D01*
X74200000Y-33300000D02*
X54800000Y-33300000D01*
X55437882Y-52062118D02*
X73562118Y-52062118D01*
X73562118Y-52062118D02*
X73562118Y-34256824D01*
X74200000Y-33618941D02*
X55118941Y-33618941D01*
X73881059Y-52381059D02*
X73881059Y-33937882D01*
X54800000Y-33300000D02*
X54800000Y-52700000D01*
X36808353Y-36808353D02*
X36808353Y-49191647D01*
X46959059Y-39040941D02*
X46800000Y-39200000D01*
X34894706Y-34894706D02*
X34894706Y-51105294D01*
X49510588Y-36808353D02*
X36808353Y-36808353D01*
X47915882Y-38403059D02*
X38403059Y-38403059D01*
X36808353Y-49191647D02*
X49191647Y-49191647D01*
X49829529Y-49829529D02*
X49829529Y-36489412D01*
X35851529Y-35851529D02*
X35851529Y-50148471D01*
X50786353Y-50786353D02*
X50786353Y-35532588D01*
X51743176Y-34575765D02*
X34575765Y-34575765D01*
X51424235Y-51424235D02*
X51424235Y-34894706D01*
X50467412Y-50467412D02*
X50467412Y-35851529D01*
X14670471Y-49829529D02*
X28329529Y-49829529D01*
X26096941Y-38722000D02*
X17222000Y-38722000D01*
X16584118Y-47915882D02*
X26415882Y-47915882D01*
X14351529Y-50148471D02*
X28648471Y-50148471D01*
X28648471Y-50148471D02*
X28648471Y-36170471D01*
X13713647Y-35213647D02*
X13713647Y-50786353D01*
X16903059Y-47596941D02*
X26096941Y-47596941D01*
X13075765Y-34575765D02*
X13075765Y-51424235D01*
X28010588Y-49510588D02*
X28010588Y-36808353D01*
X16584118Y-38084118D02*
X16584118Y-47915882D01*
X14989412Y-49510588D02*
X28010588Y-49510588D01*
X28967412Y-35851529D02*
X14351529Y-35851529D01*
X69415882Y-38403059D02*
X59903059Y-38403059D01*
X57670471Y-36170471D02*
X57670471Y-49829529D01*
X71010588Y-36808353D02*
X58308353Y-36808353D01*
X47425000Y-32400000D02*
X45000000Y-32400000D01*
X58627294Y-37127294D02*
X58627294Y-48872706D01*
X69415882Y-47915882D02*
X69415882Y-38403059D01*
X71329529Y-36489412D02*
X57989412Y-36489412D01*
X57032588Y-50467412D02*
X71967412Y-50467412D01*
X59265176Y-37765176D02*
X59265176Y-48234824D01*
X58627294Y-48872706D02*
X70372706Y-48872706D01*
X69734824Y-48234824D02*
X69734824Y-38084118D01*
X60222000Y-47278000D02*
X68778000Y-47278000D01*
X56713647Y-50786353D02*
X72286353Y-50786353D01*
X73243176Y-51743176D02*
X73243176Y-34575765D01*
X69734824Y-38084118D02*
X59584118Y-38084118D01*
X69096941Y-47596941D02*
X69096941Y-38722000D01*
X72605294Y-51105294D02*
X72605294Y-35213647D01*
X60222000Y-38722000D02*
X60222000Y-47278000D01*
X57989412Y-36489412D02*
X57989412Y-49510588D01*
X72924235Y-34894706D02*
X56394706Y-34894706D01*
X71648471Y-36170471D02*
X57670471Y-36170471D01*
X70053765Y-37765176D02*
X59265176Y-37765176D01*
X59903059Y-38403059D02*
X59903059Y-47596941D01*
X72286353Y-35532588D02*
X57032588Y-35532588D01*
X58946235Y-48553765D02*
X70053765Y-48553765D01*
X70372706Y-37446235D02*
X58946235Y-37446235D01*
X68778000Y-39040941D02*
X68459059Y-39040941D01*
X68778000Y-47278000D02*
X68778000Y-39040941D01*
X58946235Y-37446235D02*
X58946235Y-48553765D01*
X72605294Y-35213647D02*
X56713647Y-35213647D01*
X70372706Y-48872706D02*
X70372706Y-37446235D01*
X43500000Y-32400000D02*
X45000000Y-32400000D01*
X52700000Y-33300000D02*
X33300000Y-33300000D01*
X52381059Y-33937882D02*
X33937882Y-33937882D01*
X33937882Y-52062118D02*
X52062118Y-52062118D01*
X33300000Y-52700000D02*
X52700000Y-52700000D01*
X52381059Y-52381059D02*
X52381059Y-33937882D01*
X52700000Y-32700000D02*
X52400000Y-32400000D01*
X33618941Y-33618941D02*
X33618941Y-52381059D01*
X48975000Y-32400000D02*
X51400000Y-32400000D01*
X33618941Y-52381059D02*
X52381059Y-52381059D01*
X33300000Y-33300000D02*
X33300000Y-52700000D01*
X35532588Y-50467412D02*
X50467412Y-50467412D01*
X48553765Y-48553765D02*
X48553765Y-37765176D01*
X34575765Y-51424235D02*
X51424235Y-51424235D01*
X36170471Y-49829529D02*
X49829529Y-49829529D01*
X49510588Y-49510588D02*
X49510588Y-36808353D01*
X38722000Y-38722000D02*
X38722000Y-47278000D01*
X47915882Y-47915882D02*
X47915882Y-38403059D01*
X36489412Y-49510588D02*
X49510588Y-49510588D01*
X34894706Y-51105294D02*
X51105294Y-51105294D01*
X38084118Y-38084118D02*
X38084118Y-47915882D01*
X38722000Y-47278000D02*
X47278000Y-47278000D01*
X47278000Y-47278000D02*
X47278000Y-39040941D01*
X47596941Y-38722000D02*
X38722000Y-38722000D01*
X51743176Y-51743176D02*
X51743176Y-34575765D01*
X37765176Y-48234824D02*
X48234824Y-48234824D01*
X38403059Y-38403059D02*
X38403059Y-47596941D01*
X50786353Y-35532588D02*
X35532588Y-35532588D01*
X36170471Y-36170471D02*
X36170471Y-49829529D01*
X35532588Y-35532588D02*
X35532588Y-50467412D01*
X38084118Y-47915882D02*
X47915882Y-47915882D01*
X34575765Y-34575765D02*
X34575765Y-51424235D01*
X50467412Y-35851529D02*
X35851529Y-35851529D01*
X35851529Y-50148471D02*
X50148471Y-50148471D01*
X50148471Y-50148471D02*
X50148471Y-36170471D01*
X38403059Y-47596941D02*
X47596941Y-47596941D01*
X35213647Y-35213647D02*
X35213647Y-50786353D01*
X57351529Y-35851529D02*
X57351529Y-50148471D01*
X56394706Y-34894706D02*
X56394706Y-51105294D01*
X58308353Y-49191647D02*
X70691647Y-49191647D01*
X71967412Y-50467412D02*
X71967412Y-35851529D01*
X57032588Y-35532588D02*
X57032588Y-50467412D01*
X59265176Y-48234824D02*
X69734824Y-48234824D01*
X56075765Y-51424235D02*
X72924235Y-51424235D01*
X71329529Y-49829529D02*
X71329529Y-36489412D01*
X68459059Y-39040941D02*
X68300000Y-39200000D01*
X72286353Y-50786353D02*
X72286353Y-35532588D01*
X56394706Y-51105294D02*
X72605294Y-51105294D01*
X73243176Y-34575765D02*
X56075765Y-34575765D01*
X70053765Y-48553765D02*
X70053765Y-37765176D01*
X58308353Y-36808353D02*
X58308353Y-49191647D01*
X72924235Y-51424235D02*
X72924235Y-34894706D01*
X68925000Y-32400000D02*
X66500000Y-32400000D01*
X55118941Y-52381059D02*
X73881059Y-52381059D01*
X70475000Y-32400000D02*
X72900000Y-32400000D01*
X65000000Y-32400000D02*
X66500000Y-32400000D01*
X70691647Y-37127294D02*
X58627294Y-37127294D01*
X54800000Y-52700000D02*
X74200000Y-52700000D01*
X74200000Y-32700000D02*
X73900000Y-32400000D01*
X70691647Y-49191647D02*
X70691647Y-37127294D01*
X74200000Y-33300000D02*
X74200000Y-32700000D01*
X73881059Y-33937882D02*
X55437882Y-33937882D01*
X55756824Y-51743176D02*
X73243176Y-51743176D01*
X55756824Y-34256824D02*
X55756824Y-51743176D01*
X55437882Y-33937882D02*
X55437882Y-52062118D01*
X74200000Y-52700000D02*
X74200000Y-33618941D01*
X73562118Y-34256824D02*
X55756824Y-34256824D01*
X73900000Y-32400000D02*
X72900000Y-32400000D01*
%TD*%
M02*
