%TF.GenerationSoftware,KiCad,Pcbnew,(5.1.10)-1*%
%TF.CreationDate,2021-11-01T22:44:31-04:00*%
%TF.ProjectId,PCB coil,50434220-636f-4696-9c2e-6b696361645f,rev?*%
%TF.SameCoordinates,Original*%
%TF.FileFunction,Legend,Top*%
%TF.FilePolarity,Positive*%
%FSLAX46Y46*%
G04 Gerber Fmt 4.6, Leading zero omitted, Abs format (unit mm)*
G04 Created by KiCad (PCBNEW (5.1.10)-1) date 2021-11-01 22:44:31*
%MOMM*%
%LPD*%
G01*
G04 APERTURE LIST*
%ADD10C,0.010000*%
G04 APERTURE END LIST*
D10*
%TO.C,G\u002A\u002A\u002A*%
G36*
X15475087Y10331343D02*
G01*
X15900940Y10304929D01*
X16186352Y10234216D01*
X16410514Y10097366D01*
X16652616Y9872541D01*
X16707922Y9817334D01*
X17012254Y9468991D01*
X17198509Y9170979D01*
X17225883Y9070275D01*
X17305030Y8868267D01*
X17375294Y8841177D01*
X17483296Y8712143D01*
X17524706Y8425926D01*
X17638482Y8008706D01*
X17823530Y7795294D01*
X18056906Y7526799D01*
X18122353Y7314075D01*
X18191795Y7089799D01*
X18271765Y7048236D01*
X18393159Y6923096D01*
X18421177Y6749412D01*
X18483746Y6506623D01*
X18570588Y6450589D01*
X18655819Y6316212D01*
X18709917Y5972632D01*
X18720000Y5703530D01*
X18746876Y5277375D01*
X18815592Y5006886D01*
X18869412Y4956471D01*
X18974319Y4826637D01*
X19018812Y4513812D01*
X19018824Y4508236D01*
X19062102Y4193515D01*
X19166377Y4060035D01*
X19168235Y4060000D01*
X19261797Y3927450D01*
X19313837Y3596322D01*
X19317647Y3462353D01*
X19350785Y3088105D01*
X19433567Y2879946D01*
X19467059Y2864706D01*
X19560621Y2732156D01*
X19612661Y2401027D01*
X19616471Y2267059D01*
X19649608Y1892811D01*
X19732390Y1684652D01*
X19765883Y1669412D01*
X19843150Y1531632D01*
X19896328Y1164166D01*
X19915294Y656514D01*
X19930406Y85560D01*
X19988649Y-267091D01*
X20109381Y-481013D01*
X20214118Y-571764D01*
X20455345Y-903737D01*
X20512941Y-1202395D01*
X20559369Y-1502557D01*
X20662353Y-1617647D01*
X20783748Y-1742786D01*
X20811765Y-1916470D01*
X20874335Y-2159259D01*
X20961177Y-2215294D01*
X21066083Y-2345128D01*
X21110577Y-2657952D01*
X21110588Y-2663529D01*
X21153866Y-2978250D01*
X21258141Y-3111730D01*
X21260000Y-3111764D01*
X21386052Y-3235319D01*
X21409412Y-3377604D01*
X21522142Y-3666472D01*
X21708235Y-3858823D01*
X21941612Y-4127319D01*
X22007059Y-4340042D01*
X22076501Y-4564319D01*
X22156471Y-4605882D01*
X22282522Y-4729436D01*
X22305882Y-4871721D01*
X22418613Y-5160590D01*
X22604706Y-5352941D01*
X22838083Y-5621437D01*
X22903530Y-5834160D01*
X22972972Y-6058436D01*
X23052941Y-6100000D01*
X23174336Y-6225139D01*
X23202353Y-6398823D01*
X23264923Y-6641612D01*
X23351765Y-6697647D01*
X23473159Y-6822786D01*
X23501177Y-6996470D01*
X23563746Y-7239259D01*
X23650588Y-7295294D01*
X23771983Y-7420433D01*
X23800000Y-7594117D01*
X23862570Y-7836906D01*
X23949412Y-7892941D01*
X24070807Y-8018080D01*
X24098824Y-8191764D01*
X24161394Y-8434554D01*
X24248235Y-8490588D01*
X24353142Y-8620422D01*
X24397636Y-8933247D01*
X24397647Y-8938823D01*
X24440925Y-9253544D01*
X24545200Y-9387024D01*
X24547059Y-9387058D01*
X24651966Y-9516893D01*
X24696459Y-9829717D01*
X24696471Y-9835294D01*
X24739749Y-10150014D01*
X24844024Y-10283495D01*
X24845883Y-10283529D01*
X24976061Y-10405527D01*
X24995294Y-10522407D01*
X25097943Y-10769993D01*
X25353370Y-11090889D01*
X25443530Y-11180000D01*
X25778392Y-11603989D01*
X25891765Y-11987004D01*
X25941134Y-12274780D01*
X26041177Y-12375294D01*
X26162571Y-12500433D01*
X26190588Y-12674117D01*
X26253158Y-12916906D01*
X26340000Y-12972941D01*
X26425231Y-13107318D01*
X26479329Y-13450898D01*
X26489412Y-13720000D01*
X26516287Y-14146154D01*
X26585003Y-14416644D01*
X26638824Y-14467058D01*
X26732386Y-14599609D01*
X26784426Y-14930737D01*
X26788235Y-15064706D01*
X26821373Y-15438954D01*
X26904155Y-15647113D01*
X26937647Y-15662353D01*
X27022878Y-15796729D01*
X27076976Y-16140309D01*
X27087059Y-16409411D01*
X27113934Y-16835566D01*
X27182650Y-17106055D01*
X27236471Y-17156470D01*
X27316056Y-17292563D01*
X27370012Y-17648086D01*
X27385883Y-18052941D01*
X27408565Y-18530452D01*
X27467819Y-18854189D01*
X27535294Y-18949411D01*
X27614880Y-19085505D01*
X27668836Y-19441028D01*
X27684706Y-19845882D01*
X27707388Y-20323394D01*
X27766642Y-20647130D01*
X27834118Y-20742353D01*
X27889048Y-20595932D01*
X27932250Y-20168244D01*
X27962858Y-19476646D01*
X27980003Y-18538496D01*
X27983530Y-17754117D01*
X27981015Y-17376656D01*
X38442353Y-17376656D01*
X38471867Y-17778993D01*
X38546586Y-18021152D01*
X38591765Y-18052941D01*
X38696672Y-18182775D01*
X38741165Y-18495599D01*
X38741177Y-18501176D01*
X38784455Y-18815897D01*
X38888730Y-18949377D01*
X38890588Y-18949411D01*
X39022040Y-19070893D01*
X39040000Y-19180320D01*
X39139230Y-19437099D01*
X39380728Y-19751378D01*
X39406738Y-19777968D01*
X39719441Y-20028192D01*
X39987089Y-20143786D01*
X40004385Y-20144706D01*
X40207538Y-20223311D01*
X40235294Y-20294117D01*
X40348993Y-20439187D01*
X40384706Y-20443529D01*
X40529776Y-20329830D01*
X40534118Y-20294117D01*
X40655478Y-20162373D01*
X40763216Y-20144706D01*
X40997327Y-20045203D01*
X41332377Y-19792535D01*
X41510275Y-19626745D01*
X41792754Y-19321239D01*
X41948139Y-19049476D01*
X42014077Y-18702859D01*
X42023440Y-18351764D01*
X48452941Y-18351764D01*
X48475624Y-18829276D01*
X48534877Y-19153012D01*
X48602353Y-19248235D01*
X48723748Y-19373375D01*
X48751765Y-19547058D01*
X48814335Y-19789848D01*
X48901177Y-19845882D01*
X49032005Y-19967619D01*
X49050588Y-20080672D01*
X49177011Y-20418198D01*
X49471878Y-20676487D01*
X49712269Y-20742353D01*
X49917857Y-20819821D01*
X49947059Y-20891764D01*
X50047389Y-21033691D01*
X50296864Y-21000873D01*
X50618210Y-20813578D01*
X50775615Y-20674438D01*
X51025840Y-20361735D01*
X51141433Y-20094088D01*
X51142353Y-20076791D01*
X51220959Y-19873638D01*
X51291765Y-19845882D01*
X51376996Y-19711505D01*
X51431094Y-19367925D01*
X51441177Y-19098823D01*
X51414301Y-18672669D01*
X51345585Y-18402179D01*
X51291765Y-18351764D01*
X51179989Y-18223750D01*
X51142353Y-17973255D01*
X51015092Y-17559448D01*
X50691566Y-17134038D01*
X50259157Y-16779433D01*
X49805249Y-16578043D01*
X49642544Y-16558823D01*
X49163701Y-16658210D01*
X48844066Y-16920365D01*
X48751765Y-17220504D01*
X48674296Y-17426092D01*
X48602353Y-17455294D01*
X48522768Y-17591387D01*
X48468812Y-17946910D01*
X48452941Y-18351764D01*
X42023440Y-18351764D01*
X42028213Y-18172792D01*
X42028235Y-18132627D01*
X42007222Y-17623165D01*
X41951509Y-17274140D01*
X41878824Y-17156470D01*
X41767243Y-17028402D01*
X41729412Y-16776149D01*
X41621877Y-16409656D01*
X41358602Y-16033954D01*
X41028584Y-15751828D01*
X40765027Y-15662353D01*
X40561874Y-15583747D01*
X40534118Y-15512941D01*
X40406135Y-15401052D01*
X40156656Y-15363529D01*
X39765725Y-15496198D01*
X39260779Y-15887200D01*
X39110774Y-16031950D01*
X38734797Y-16433015D01*
X38533247Y-16745233D01*
X38453636Y-17074196D01*
X38442353Y-17376656D01*
X27981015Y-17376656D01*
X27976209Y-16655523D01*
X27954824Y-15791469D01*
X27920244Y-15179315D01*
X27873337Y-14836417D01*
X27834118Y-14765882D01*
X27740556Y-14633331D01*
X27688516Y-14302203D01*
X27684706Y-14168235D01*
X27717844Y-13793987D01*
X27800626Y-13585828D01*
X27834118Y-13570588D01*
X27955512Y-13445448D01*
X27983530Y-13271764D01*
X28046099Y-13028975D01*
X28132941Y-12972941D01*
X28202351Y-12830891D01*
X28252533Y-12433440D01*
X28279182Y-11823641D01*
X28282353Y-11478823D01*
X28296558Y-10784729D01*
X28336303Y-10282911D01*
X28397283Y-10016420D01*
X28431765Y-9984706D01*
X28492654Y-9839690D01*
X28538962Y-9421672D01*
X28568985Y-8756197D01*
X28581022Y-7868807D01*
X28581177Y-7743529D01*
X28590844Y-6830191D01*
X28618712Y-6135574D01*
X28663077Y-5685222D01*
X28722237Y-5504677D01*
X28730588Y-5502353D01*
X28804581Y-5362559D01*
X28856577Y-4980907D01*
X28879502Y-4413987D01*
X28880000Y-4307058D01*
X28897474Y-3715119D01*
X28945181Y-3299152D01*
X29016046Y-3115748D01*
X29029412Y-3111764D01*
X29122974Y-2979214D01*
X29175014Y-2648085D01*
X29178824Y-2514117D01*
X29211961Y-2139869D01*
X29294743Y-1931710D01*
X29328235Y-1916470D01*
X29433142Y-1786636D01*
X29477636Y-1473812D01*
X29477647Y-1468235D01*
X29520925Y-1153514D01*
X29625200Y-1020034D01*
X29627059Y-1020000D01*
X29720621Y-887449D01*
X29772661Y-556321D01*
X29776471Y-422353D01*
X29809608Y-48104D01*
X29892390Y160055D01*
X29925883Y175294D01*
X30057334Y296776D01*
X30075294Y406204D01*
X30174524Y662982D01*
X30416022Y977261D01*
X30442032Y1003851D01*
X30726999Y1228695D01*
X31070675Y1339218D01*
X31587284Y1370464D01*
X31637326Y1370589D01*
X32089465Y1346217D01*
X32390409Y1283302D01*
X32465883Y1221177D01*
X32593865Y1109288D01*
X32843344Y1071765D01*
X33135517Y969764D01*
X33526478Y709800D01*
X33938951Y360928D01*
X34295655Y-7795D01*
X34519313Y-327314D01*
X34557647Y-460143D01*
X34668115Y-690913D01*
X34856471Y-870588D01*
X35097698Y-1202560D01*
X35155294Y-1501219D01*
X35201722Y-1801380D01*
X35304706Y-1916470D01*
X35430758Y-2040025D01*
X35454118Y-2182310D01*
X35566848Y-2471178D01*
X35752941Y-2663529D01*
X35986318Y-2932025D01*
X36051765Y-3144748D01*
X36121207Y-3369025D01*
X36201177Y-3410588D01*
X36306083Y-3540422D01*
X36350577Y-3853247D01*
X36350588Y-3858823D01*
X36393866Y-4173544D01*
X36498141Y-4307024D01*
X36500000Y-4307058D01*
X36621395Y-4432198D01*
X36649412Y-4605882D01*
X36711982Y-4848671D01*
X36798824Y-4904706D01*
X36924875Y-5028260D01*
X36948235Y-5170545D01*
X37060966Y-5459413D01*
X37247059Y-5651764D01*
X37481552Y-5969657D01*
X37545883Y-6431807D01*
X37563687Y-6800344D01*
X37676209Y-6958783D01*
X37972115Y-6995791D01*
X38110546Y-6996470D01*
X38610436Y-7075258D01*
X38890588Y-7295294D01*
X39208481Y-7529787D01*
X39670631Y-7594117D01*
X40032506Y-7629058D01*
X40225460Y-7715775D01*
X40235294Y-7743529D01*
X40360434Y-7864924D01*
X40534118Y-7892941D01*
X40776907Y-7955511D01*
X40832941Y-8042353D01*
X40958081Y-8163747D01*
X41131765Y-8191764D01*
X41374554Y-8129194D01*
X41430588Y-8042353D01*
X41569983Y-7980066D01*
X41948967Y-7933494D01*
X42508745Y-7902208D01*
X43190521Y-7885780D01*
X43935497Y-7883780D01*
X44684876Y-7895779D01*
X45379863Y-7921350D01*
X45961659Y-7960062D01*
X46371470Y-8011488D01*
X46550497Y-8075199D01*
X46552727Y-8079706D01*
X46676835Y-8137993D01*
X46918880Y-7930294D01*
X47185637Y-7689256D01*
X47389641Y-7594117D01*
X47572206Y-7491325D01*
X47897737Y-7219811D01*
X48311435Y-6834876D01*
X48758502Y-6391815D01*
X49184137Y-5945926D01*
X49533541Y-5552507D01*
X49751915Y-5266857D01*
X49797647Y-5164217D01*
X49908065Y-4934688D01*
X50096471Y-4755294D01*
X50329847Y-4486798D01*
X50395294Y-4274074D01*
X50464736Y-4049798D01*
X50544706Y-4008235D01*
X50674884Y-3886237D01*
X50694118Y-3769357D01*
X50796766Y-3521771D01*
X51052194Y-3200874D01*
X51142353Y-3111764D01*
X51427002Y-2791158D01*
X51581415Y-2510789D01*
X51590588Y-2454172D01*
X51666895Y-2246044D01*
X51740000Y-2215294D01*
X51871452Y-2093812D01*
X51889412Y-1984385D01*
X51998260Y-1711964D01*
X52257855Y-1391131D01*
X52567774Y-1125865D01*
X52820813Y-1020000D01*
X53053916Y-909439D01*
X53234118Y-721176D01*
X53552010Y-486683D01*
X54014161Y-422353D01*
X54383524Y-442859D01*
X54542389Y-550842D01*
X54578554Y-815995D01*
X54578824Y-870588D01*
X54622102Y-1185308D01*
X54726377Y-1318789D01*
X54728235Y-1318823D01*
X54782175Y-1465436D01*
X54824829Y-1894448D01*
X54855426Y-2589619D01*
X54873192Y-3534711D01*
X54877647Y-4456470D01*
X54870666Y-5589192D01*
X54850237Y-6484941D01*
X54817133Y-7127479D01*
X54772129Y-7500565D01*
X54728235Y-7594117D01*
X54665897Y-7738718D01*
X54618883Y-8153872D01*
X54589193Y-8811607D01*
X54578824Y-9683949D01*
X54578824Y-9685882D01*
X54589152Y-10558624D01*
X54618806Y-11216813D01*
X54665787Y-11632479D01*
X54728097Y-11777646D01*
X54728235Y-11777647D01*
X54813466Y-11912024D01*
X54867564Y-12255604D01*
X54877647Y-12524706D01*
X54904523Y-12950860D01*
X54973239Y-13221349D01*
X55027059Y-13271764D01*
X55112290Y-13406141D01*
X55166388Y-13749721D01*
X55176471Y-14018823D01*
X55203346Y-14444978D01*
X55272062Y-14715467D01*
X55325883Y-14765882D01*
X55411113Y-14900259D01*
X55465211Y-15243839D01*
X55475294Y-15512941D01*
X55502170Y-15939095D01*
X55570886Y-16209585D01*
X55624706Y-16260000D01*
X55701351Y-16398194D01*
X55754311Y-16768580D01*
X55774118Y-17304867D01*
X55774118Y-17305882D01*
X55793860Y-17842394D01*
X55846772Y-18213119D01*
X55923385Y-18351764D01*
X55923530Y-18351764D01*
X55987429Y-18495882D01*
X56035181Y-18907692D01*
X56064415Y-19556381D01*
X56072941Y-20294117D01*
X56061855Y-21124808D01*
X56030178Y-21745583D01*
X55980278Y-22125628D01*
X55923530Y-22236470D01*
X55838299Y-22370847D01*
X55784201Y-22714427D01*
X55774118Y-22983529D01*
X55747242Y-23409684D01*
X55678526Y-23680173D01*
X55624706Y-23730588D01*
X55519799Y-23860422D01*
X55475306Y-24173247D01*
X55475294Y-24178823D01*
X55432016Y-24493544D01*
X55327741Y-24627024D01*
X55325883Y-24627058D01*
X55246297Y-24763152D01*
X55192341Y-25118675D01*
X55176471Y-25523529D01*
X55153789Y-26001041D01*
X55094535Y-26324777D01*
X55027059Y-26420000D01*
X54922152Y-26549834D01*
X54877659Y-26862658D01*
X54877647Y-26868235D01*
X54834369Y-27182956D01*
X54730094Y-27316436D01*
X54728235Y-27316470D01*
X54606841Y-27441610D01*
X54578824Y-27615294D01*
X54516254Y-27858083D01*
X54429412Y-27914117D01*
X54318677Y-28042418D01*
X54280000Y-28302407D01*
X54151655Y-28712379D01*
X53831765Y-29109411D01*
X53547116Y-29430018D01*
X53392703Y-29710386D01*
X53383530Y-29767004D01*
X53307223Y-29975132D01*
X53234118Y-30005882D01*
X53108066Y-30129436D01*
X53084706Y-30271721D01*
X52971976Y-30560590D01*
X52785883Y-30752941D01*
X52629024Y-30910326D01*
X52537977Y-31150605D01*
X52496201Y-31548203D01*
X52487059Y-32097647D01*
X52498788Y-32698905D01*
X52545003Y-33076305D01*
X52642241Y-33304273D01*
X52785883Y-33442353D01*
X53027110Y-33774325D01*
X53084706Y-34072984D01*
X53131134Y-34373145D01*
X53234118Y-34488235D01*
X53327680Y-34620786D01*
X53379720Y-34951914D01*
X53383530Y-35085882D01*
X53416667Y-35460130D01*
X53499449Y-35668289D01*
X53532941Y-35683529D01*
X53637848Y-35813363D01*
X53682342Y-36126188D01*
X53682353Y-36131764D01*
X53725631Y-36446485D01*
X53829906Y-36579965D01*
X53831765Y-36580000D01*
X53953159Y-36705139D01*
X53981177Y-36878823D01*
X54043746Y-37121612D01*
X54130588Y-37177647D01*
X54251983Y-37302786D01*
X54280000Y-37476470D01*
X54342570Y-37719259D01*
X54429412Y-37775294D01*
X54550807Y-37900433D01*
X54578824Y-38074117D01*
X54641394Y-38316906D01*
X54728235Y-38372941D01*
X54833142Y-38502775D01*
X54877636Y-38815599D01*
X54877647Y-38821176D01*
X54920925Y-39135897D01*
X55025200Y-39269377D01*
X55027059Y-39269411D01*
X55131966Y-39399245D01*
X55176459Y-39712070D01*
X55176471Y-39717647D01*
X55219749Y-40032367D01*
X55324024Y-40165848D01*
X55325883Y-40165882D01*
X55447277Y-40291022D01*
X55475294Y-40464706D01*
X55537864Y-40707495D01*
X55624706Y-40763529D01*
X55746101Y-40888669D01*
X55774118Y-41062353D01*
X55836688Y-41305142D01*
X55923530Y-41361176D01*
X56034264Y-41489477D01*
X56072941Y-41749466D01*
X56201287Y-42159438D01*
X56521177Y-42556470D01*
X56821869Y-42925010D01*
X56966046Y-43281650D01*
X56969412Y-43330490D01*
X57084876Y-43693770D01*
X57268235Y-43901176D01*
X57501457Y-44212732D01*
X57567059Y-44498823D01*
X57679203Y-44877999D01*
X57865883Y-45096470D01*
X58099259Y-45364966D01*
X58164706Y-45577690D01*
X58234148Y-45801966D01*
X58314118Y-45843529D01*
X58419025Y-45973363D01*
X58463518Y-46286188D01*
X58463530Y-46291764D01*
X58506808Y-46606485D01*
X58611082Y-46739965D01*
X58612941Y-46740000D01*
X58738993Y-46863554D01*
X58762353Y-47005839D01*
X58875084Y-47294707D01*
X59061177Y-47487058D01*
X59293713Y-47741691D01*
X59360000Y-47935294D01*
X59471685Y-48196994D01*
X59658824Y-48383529D01*
X59900051Y-48715502D01*
X59957647Y-49014160D01*
X60004075Y-49314322D01*
X60107059Y-49429411D01*
X60233111Y-49552966D01*
X60256471Y-49695251D01*
X60369201Y-49984119D01*
X60555294Y-50176470D01*
X60788671Y-50444966D01*
X60854118Y-50657690D01*
X60923560Y-50881966D01*
X61003530Y-50923529D01*
X61124924Y-51048669D01*
X61152941Y-51222353D01*
X61215511Y-51465142D01*
X61302353Y-51521176D01*
X61428405Y-51644730D01*
X61451765Y-51787016D01*
X61564495Y-52075884D01*
X61750588Y-52268235D01*
X61983965Y-52536731D01*
X62049412Y-52749454D01*
X62118854Y-52973730D01*
X62198824Y-53015294D01*
X62324875Y-53138848D01*
X62348235Y-53281133D01*
X62460966Y-53570001D01*
X62647059Y-53762353D01*
X62880436Y-54030848D01*
X62945883Y-54243572D01*
X63015325Y-54467848D01*
X63095294Y-54509411D01*
X63216689Y-54634551D01*
X63244706Y-54808235D01*
X63307276Y-55051024D01*
X63394118Y-55107058D01*
X63524780Y-55228862D01*
X63543530Y-55342890D01*
X63645180Y-55571721D01*
X63906540Y-55908458D01*
X64141177Y-56152941D01*
X64471865Y-56499393D01*
X64688904Y-56781867D01*
X64738824Y-56897986D01*
X64839214Y-57081038D01*
X65102824Y-57399031D01*
X65473312Y-57784202D01*
X65485883Y-57796470D01*
X65858755Y-58182472D01*
X66126516Y-58503181D01*
X66232835Y-58690931D01*
X66232941Y-58693913D01*
X66355307Y-58972757D01*
X66634577Y-59210139D01*
X66894622Y-59290588D01*
X67100210Y-59368057D01*
X67129412Y-59440000D01*
X67265505Y-59519585D01*
X67621028Y-59573541D01*
X68025883Y-59589411D01*
X68503394Y-59612094D01*
X68827130Y-59671347D01*
X68922353Y-59738823D01*
X69050421Y-59850404D01*
X69302674Y-59888235D01*
X69669167Y-59995770D01*
X70044869Y-60259045D01*
X70326995Y-60589062D01*
X70416471Y-60852620D01*
X70495076Y-61055773D01*
X70565883Y-61083529D01*
X70637474Y-61224575D01*
X70688543Y-61615014D01*
X70713639Y-62205794D01*
X70715294Y-62428235D01*
X70730966Y-63072562D01*
X70774348Y-63532183D01*
X70839990Y-63758046D01*
X70864706Y-63772941D01*
X70928605Y-63917058D01*
X70976357Y-64328868D01*
X71005591Y-64977558D01*
X71014118Y-65715294D01*
X71003032Y-66545985D01*
X70971354Y-67166759D01*
X70921455Y-67546804D01*
X70864706Y-67657647D01*
X70743311Y-67782786D01*
X70715294Y-67956470D01*
X70652724Y-68199259D01*
X70565883Y-68255294D01*
X70457881Y-68384327D01*
X70416471Y-68670545D01*
X70302695Y-69087765D01*
X70117647Y-69301176D01*
X69886099Y-69540178D01*
X69818824Y-69711621D01*
X69704678Y-69972708D01*
X69413761Y-70322073D01*
X69023351Y-70690660D01*
X68610726Y-71009412D01*
X68253164Y-71209274D01*
X68104520Y-71243529D01*
X67821854Y-71294189D01*
X67727059Y-71392941D01*
X67601919Y-71514335D01*
X67428235Y-71542353D01*
X67185446Y-71604922D01*
X67129412Y-71691764D01*
X66988618Y-71763866D01*
X66599946Y-71815137D01*
X66013962Y-71839815D01*
X65817690Y-71841176D01*
X65168905Y-71832770D01*
X64750918Y-71798711D01*
X64495962Y-71725738D01*
X64336269Y-71600591D01*
X64290588Y-71542353D01*
X64035956Y-71309816D01*
X63842353Y-71243529D01*
X63580653Y-71131844D01*
X63394118Y-70944706D01*
X63265430Y-70808679D01*
X63074627Y-70721164D01*
X62760544Y-70671786D01*
X62262018Y-70650173D01*
X61632226Y-70645882D01*
X60808294Y-70628028D01*
X60240280Y-70565239D01*
X59886902Y-70443673D01*
X59706879Y-70249487D01*
X59658824Y-69984201D01*
X59581355Y-69778613D01*
X59509412Y-69749411D01*
X59388017Y-69624272D01*
X59360000Y-69450588D01*
X59297430Y-69207799D01*
X59210588Y-69151764D01*
X59089194Y-69026625D01*
X59061177Y-68852941D01*
X58998607Y-68610152D01*
X58911765Y-68554117D01*
X58835120Y-68415923D01*
X58782160Y-68045537D01*
X58762353Y-67509250D01*
X58762353Y-67508235D01*
X58742611Y-66971722D01*
X58689699Y-66600998D01*
X58613086Y-66462353D01*
X58612941Y-66462353D01*
X58482279Y-66340549D01*
X58463530Y-66226521D01*
X58361879Y-65997690D01*
X58100519Y-65660953D01*
X57865883Y-65416470D01*
X57533484Y-65056991D01*
X57316498Y-64745377D01*
X57268235Y-64606419D01*
X57191066Y-64400182D01*
X57118824Y-64370588D01*
X56997429Y-64245448D01*
X56969412Y-64071764D01*
X56906842Y-63828975D01*
X56820000Y-63772941D01*
X56698606Y-63647801D01*
X56670588Y-63474117D01*
X56608019Y-63231328D01*
X56521177Y-63175294D01*
X56409401Y-63047280D01*
X56371765Y-62796784D01*
X56266163Y-62468448D01*
X56002055Y-62075398D01*
X55658484Y-61706014D01*
X55314494Y-61448678D01*
X55106745Y-61382353D01*
X54914095Y-61259935D01*
X54877647Y-61116513D01*
X54764917Y-60827645D01*
X54578824Y-60635294D01*
X54345447Y-60366798D01*
X54280000Y-60154074D01*
X54210558Y-59929798D01*
X54130588Y-59888235D01*
X54022587Y-59759201D01*
X53981177Y-59472984D01*
X53867401Y-59055764D01*
X53682353Y-58842353D01*
X53450627Y-58600583D01*
X53383530Y-58425167D01*
X53259133Y-58117652D01*
X52972296Y-57869564D01*
X52721849Y-57796470D01*
X52518117Y-57675961D01*
X52487059Y-57557592D01*
X52384410Y-57310006D01*
X52128983Y-56989110D01*
X52038824Y-56900000D01*
X51755871Y-56595262D01*
X51600701Y-56349562D01*
X51590588Y-56302353D01*
X51489334Y-56094814D01*
X51236952Y-55797110D01*
X51142353Y-55704706D01*
X50859627Y-55402050D01*
X50704358Y-55160899D01*
X50694118Y-55115027D01*
X50587828Y-54886178D01*
X50336678Y-54591241D01*
X50042244Y-54332254D01*
X49806102Y-54211255D01*
X49793766Y-54210588D01*
X49530506Y-54095046D01*
X49288524Y-53839311D01*
X49200000Y-53608853D01*
X49098840Y-53404028D01*
X48846665Y-53107914D01*
X48751765Y-53015294D01*
X48469152Y-52713687D01*
X48313835Y-52474829D01*
X48303530Y-52429640D01*
X48208635Y-52247339D01*
X47959876Y-51944167D01*
X47611141Y-51572113D01*
X47216319Y-51183170D01*
X46829296Y-50829330D01*
X46503961Y-50562582D01*
X46294203Y-50434919D01*
X46246697Y-50445204D01*
X46067107Y-50595214D01*
X45900490Y-50624706D01*
X45664544Y-50689702D01*
X45614118Y-50774117D01*
X45492538Y-50905330D01*
X45381726Y-50923529D01*
X45175496Y-51024703D01*
X44830261Y-51293955D01*
X44409801Y-51679879D01*
X44269412Y-51820000D01*
X43842884Y-52231710D01*
X43476926Y-52543754D01*
X43233052Y-52705038D01*
X43190082Y-52716470D01*
X42955769Y-52827079D01*
X42775294Y-53015294D01*
X42528155Y-53221119D01*
X42123553Y-53306673D01*
X41878824Y-53314117D01*
X41378458Y-53357460D01*
X41075013Y-53507922D01*
X40982353Y-53612941D01*
X40748338Y-53812692D01*
X40367554Y-53900448D01*
X40052898Y-53911764D01*
X39637687Y-53939807D01*
X39380162Y-54011194D01*
X39338824Y-54061176D01*
X39213684Y-54182571D01*
X39040000Y-54210588D01*
X38797211Y-54273158D01*
X38741177Y-54360000D01*
X38611343Y-54464906D01*
X38298518Y-54509400D01*
X38292941Y-54509411D01*
X37978221Y-54552689D01*
X37844740Y-54656964D01*
X37844706Y-54658823D01*
X37719566Y-54780218D01*
X37545883Y-54808235D01*
X37303093Y-54870805D01*
X37247059Y-54957647D01*
X37108865Y-55034291D01*
X36738478Y-55087252D01*
X36202191Y-55107058D01*
X35155294Y-55107058D01*
X35155294Y-55555294D01*
X35198572Y-55870014D01*
X35302847Y-56003495D01*
X35304706Y-56003529D01*
X35426101Y-56128669D01*
X35454118Y-56302353D01*
X35516688Y-56545142D01*
X35603530Y-56601176D01*
X35669115Y-56744724D01*
X35717640Y-57152588D01*
X35746256Y-57790598D01*
X35752941Y-58394117D01*
X35740979Y-59181147D01*
X35706990Y-59763444D01*
X35653823Y-60106840D01*
X35603530Y-60187058D01*
X35498623Y-60316893D01*
X35454129Y-60629717D01*
X35454118Y-60635294D01*
X35497396Y-60950014D01*
X35601671Y-61083495D01*
X35603530Y-61083529D01*
X35708436Y-61213363D01*
X35752930Y-61526188D01*
X35752941Y-61531764D01*
X35796219Y-61846485D01*
X35900494Y-61979965D01*
X35902353Y-61980000D01*
X36023748Y-62105139D01*
X36051765Y-62278823D01*
X36114335Y-62521612D01*
X36201177Y-62577647D01*
X36294739Y-62710197D01*
X36346778Y-63041326D01*
X36350588Y-63175294D01*
X36383726Y-63549542D01*
X36466508Y-63757701D01*
X36500000Y-63772941D01*
X36585231Y-63907318D01*
X36639329Y-64250898D01*
X36649412Y-64520000D01*
X36676287Y-64946154D01*
X36745003Y-65216644D01*
X36798824Y-65267058D01*
X36870416Y-65408105D01*
X36921485Y-65798543D01*
X36946580Y-66389323D01*
X36948235Y-66611764D01*
X36932564Y-67256092D01*
X36889182Y-67715712D01*
X36823539Y-67941575D01*
X36798824Y-67956470D01*
X36705262Y-68089021D01*
X36653222Y-68420149D01*
X36649412Y-68554117D01*
X36616274Y-68928365D01*
X36533492Y-69136525D01*
X36500000Y-69151764D01*
X36378606Y-69276904D01*
X36350588Y-69450588D01*
X36288019Y-69693377D01*
X36201177Y-69749411D01*
X36069725Y-69870893D01*
X36051765Y-69980320D01*
X35938217Y-70264666D01*
X35666858Y-70589267D01*
X35341615Y-70850198D01*
X35087380Y-70944706D01*
X34884227Y-71023311D01*
X34856471Y-71094117D01*
X34732916Y-71220169D01*
X34590631Y-71243529D01*
X34301763Y-71356260D01*
X34109412Y-71542353D01*
X33867643Y-71774079D01*
X33692226Y-71841176D01*
X33384711Y-71965572D01*
X33136624Y-72252410D01*
X33063530Y-72502857D01*
X32976455Y-72663581D01*
X32677735Y-72731483D01*
X32465883Y-72737647D01*
X32091634Y-72770784D01*
X31883475Y-72853566D01*
X31868235Y-72887058D01*
X31724118Y-72950958D01*
X31312308Y-72998710D01*
X30663619Y-73027944D01*
X29925883Y-73036470D01*
X29095191Y-73047556D01*
X28474417Y-73079234D01*
X28094372Y-73129133D01*
X27983530Y-73185882D01*
X27845336Y-73262527D01*
X27474949Y-73315487D01*
X26938662Y-73335294D01*
X26937647Y-73335294D01*
X26401135Y-73315552D01*
X26030410Y-73262639D01*
X25891765Y-73186027D01*
X25891765Y-73185882D01*
X25761931Y-73080975D01*
X25449106Y-73036482D01*
X25443530Y-73036470D01*
X25128809Y-72993192D01*
X24995329Y-72888917D01*
X24995294Y-72887058D01*
X24871740Y-72761007D01*
X24729455Y-72737647D01*
X24440587Y-72624916D01*
X24248235Y-72438823D01*
X24008061Y-72207199D01*
X23834931Y-72140000D01*
X23540155Y-72016885D01*
X23229240Y-71716431D01*
X22988600Y-71341974D01*
X22903530Y-71026203D01*
X22853217Y-70742179D01*
X22754118Y-70645882D01*
X22674533Y-70509789D01*
X22620577Y-70154266D01*
X22604706Y-69749411D01*
X22582024Y-69271900D01*
X22522770Y-68948164D01*
X22455294Y-68852941D01*
X22350387Y-68723107D01*
X22305894Y-68410282D01*
X22305883Y-68404706D01*
X22262604Y-68089985D01*
X22158330Y-67956505D01*
X22156471Y-67956470D01*
X22087061Y-67814420D01*
X22036880Y-67416970D01*
X22010230Y-66807171D01*
X22007059Y-66462353D01*
X22021264Y-65768259D01*
X22061009Y-65266441D01*
X22121989Y-64999950D01*
X22156471Y-64968235D01*
X22250033Y-64835684D01*
X22302073Y-64504556D01*
X22305883Y-64370588D01*
X22339020Y-63996340D01*
X22421802Y-63788181D01*
X22455294Y-63772941D01*
X22576689Y-63647801D01*
X22604706Y-63474117D01*
X22667276Y-63231328D01*
X22754118Y-63175294D01*
X22859025Y-63045460D01*
X22903518Y-62732635D01*
X22903530Y-62727058D01*
X22946808Y-62412338D01*
X23051082Y-62278858D01*
X23052941Y-62278823D01*
X23126934Y-62139030D01*
X23178930Y-61757377D01*
X23201855Y-61190458D01*
X23202353Y-61083529D01*
X23184879Y-60491590D01*
X23137172Y-60075623D01*
X23066307Y-59892219D01*
X23052941Y-59888235D01*
X22959379Y-59755684D01*
X22907339Y-59424556D01*
X22903530Y-59290588D01*
X22870392Y-58916340D01*
X22787610Y-58708181D01*
X22754118Y-58692941D01*
X22674533Y-58556848D01*
X22620577Y-58201325D01*
X22604706Y-57796470D01*
X22582024Y-57318959D01*
X22522770Y-56995222D01*
X22455294Y-56900000D01*
X22370063Y-56765623D01*
X22315965Y-56422043D01*
X22305883Y-56152941D01*
X22279007Y-55726786D01*
X22210291Y-55456297D01*
X22156471Y-55405882D01*
X22071240Y-55271505D01*
X22017142Y-54927925D01*
X22007059Y-54658823D01*
X21980184Y-54232669D01*
X21911468Y-53962179D01*
X21857647Y-53911764D01*
X21764085Y-53779214D01*
X21712045Y-53448085D01*
X21708235Y-53314117D01*
X21675098Y-52939869D01*
X21592316Y-52731710D01*
X21558824Y-52716470D01*
X21437429Y-52591331D01*
X21409412Y-52417647D01*
X21346842Y-52174857D01*
X21260000Y-52118823D01*
X21151999Y-51989789D01*
X21110588Y-51703572D01*
X20996812Y-51286352D01*
X20811765Y-51072941D01*
X20580141Y-50832766D01*
X20512941Y-50659636D01*
X20378847Y-50314040D01*
X20035485Y-50003374D01*
X19571232Y-49789053D01*
X19172617Y-49728235D01*
X18881748Y-49745620D01*
X18627395Y-49823450D01*
X18350148Y-50000233D01*
X17990596Y-50314481D01*
X17489330Y-50804703D01*
X17447590Y-50846413D01*
X16985476Y-51328899D01*
X16616357Y-51753061D01*
X16385202Y-52064817D01*
X16329412Y-52191119D01*
X16209034Y-52388741D01*
X16094622Y-52417647D01*
X15770973Y-52535842D01*
X15509870Y-52808381D01*
X15432941Y-53046343D01*
X15322255Y-53282614D01*
X15134118Y-53463529D01*
X14901581Y-53718161D01*
X14835294Y-53911764D01*
X14723609Y-54173464D01*
X14536471Y-54360000D01*
X14303094Y-54628495D01*
X14237647Y-54841219D01*
X14168205Y-55065495D01*
X14088235Y-55107058D01*
X13977180Y-55235271D01*
X13938824Y-55492302D01*
X13799446Y-55906367D01*
X13386862Y-56407260D01*
X13341177Y-56451764D01*
X12968703Y-56854735D01*
X12788379Y-57197019D01*
X12743530Y-57560639D01*
X12706767Y-57910912D01*
X12616123Y-58089467D01*
X12594118Y-58095294D01*
X12472723Y-58220433D01*
X12444706Y-58394117D01*
X12382136Y-58636906D01*
X12295294Y-58692941D01*
X12190387Y-58822775D01*
X12145894Y-59135599D01*
X12145883Y-59141176D01*
X12102604Y-59455897D01*
X11998330Y-59589377D01*
X11996471Y-59589411D01*
X11929055Y-59732281D01*
X11879721Y-60135433D01*
X11851939Y-60760685D01*
X11847059Y-61232941D01*
X11834071Y-61974512D01*
X11797421Y-62517188D01*
X11740580Y-62822785D01*
X11697647Y-62876470D01*
X11621003Y-63014664D01*
X11568042Y-63385051D01*
X11548236Y-63921338D01*
X11548235Y-63922353D01*
X11528493Y-64458865D01*
X11475581Y-64829590D01*
X11398969Y-64968234D01*
X11398824Y-64968235D01*
X11277429Y-65093375D01*
X11249412Y-65267058D01*
X11186842Y-65509848D01*
X11100000Y-65565882D01*
X11006438Y-65698433D01*
X10954398Y-66029561D01*
X10950588Y-66163529D01*
X10917451Y-66537777D01*
X10834669Y-66745936D01*
X10801177Y-66761176D01*
X10696270Y-66891010D01*
X10651776Y-67203835D01*
X10651765Y-67209411D01*
X10604805Y-67537506D01*
X10430079Y-67653022D01*
X10352941Y-67657647D01*
X10110152Y-67720217D01*
X10054118Y-67807058D01*
X9932444Y-67938043D01*
X9820300Y-67956470D01*
X9604449Y-68057757D01*
X9261683Y-68323528D01*
X8865537Y-68696647D01*
X8858824Y-68703529D01*
X8468079Y-69094110D01*
X8178736Y-69317366D01*
X7883761Y-69420097D01*
X7476120Y-69449103D01*
X7150289Y-69450588D01*
X6638970Y-69429665D01*
X6288464Y-69374151D01*
X6169412Y-69301176D01*
X6039578Y-69196269D01*
X5726753Y-69151776D01*
X5721177Y-69151764D01*
X5406456Y-69108486D01*
X5272976Y-69004211D01*
X5272941Y-69002353D01*
X5147802Y-68880958D01*
X4974118Y-68852941D01*
X4731329Y-68790371D01*
X4675294Y-68703529D01*
X4554006Y-68571615D01*
X4447245Y-68554117D01*
X4211660Y-68447846D01*
X3868289Y-68178339D01*
X3491093Y-67819561D01*
X3154035Y-67445472D01*
X2931078Y-67130037D01*
X2882353Y-66989226D01*
X2802888Y-66787883D01*
X2732941Y-66761176D01*
X2611547Y-66636036D01*
X2583530Y-66462353D01*
X2520960Y-66219563D01*
X2434118Y-66163529D01*
X2312723Y-66038389D01*
X2284706Y-65864706D01*
X2222136Y-65621916D01*
X2135294Y-65565882D01*
X2061302Y-65426089D01*
X2009306Y-65044436D01*
X1986381Y-64477516D01*
X1985883Y-64370588D01*
X2003357Y-63778649D01*
X2051063Y-63362681D01*
X2121928Y-63179278D01*
X2135294Y-63175294D01*
X2240201Y-63045460D01*
X2284695Y-62732635D01*
X2284706Y-62727058D01*
X2327984Y-62412338D01*
X2432259Y-62278858D01*
X2434118Y-62278823D01*
X2539025Y-62148989D01*
X2583518Y-61836164D01*
X2583530Y-61830588D01*
X2626808Y-61515867D01*
X2731082Y-61382387D01*
X2732941Y-61382353D01*
X2854336Y-61257213D01*
X2882353Y-61083529D01*
X2944923Y-60840740D01*
X3031765Y-60784706D01*
X3136672Y-60654871D01*
X3181165Y-60342047D01*
X3181177Y-60336470D01*
X3224455Y-60021750D01*
X3328730Y-59888269D01*
X3330588Y-59888235D01*
X3451983Y-59763095D01*
X3480000Y-59589411D01*
X3542570Y-59346622D01*
X3629412Y-59290588D01*
X3750807Y-59165448D01*
X3778824Y-58991764D01*
X3841394Y-58748975D01*
X3928235Y-58692941D01*
X4033142Y-58563107D01*
X4077636Y-58250282D01*
X4077647Y-58244706D01*
X4120925Y-57929985D01*
X4225200Y-57796505D01*
X4227059Y-57796470D01*
X4348454Y-57671331D01*
X4376471Y-57497647D01*
X4439041Y-57254857D01*
X4525883Y-57198823D01*
X4605468Y-57062730D01*
X4659424Y-56707207D01*
X4675294Y-56302353D01*
X4697976Y-55824841D01*
X4757230Y-55501105D01*
X4824706Y-55405882D01*
X4909937Y-55271505D01*
X4964035Y-54927925D01*
X4974118Y-54658823D01*
X5000993Y-54232669D01*
X5069709Y-53962179D01*
X5123530Y-53911764D01*
X5217092Y-53779214D01*
X5269131Y-53448085D01*
X5272941Y-53314117D01*
X5306079Y-52939869D01*
X5388861Y-52731710D01*
X5422353Y-52716470D01*
X5515915Y-52583919D01*
X5567955Y-52252791D01*
X5571765Y-52118823D01*
X5604903Y-51744575D01*
X5687685Y-51536416D01*
X5721177Y-51521176D01*
X5826083Y-51391342D01*
X5870577Y-51078517D01*
X5870588Y-51072941D01*
X5913866Y-50758220D01*
X6018141Y-50624740D01*
X6020000Y-50624706D01*
X6096645Y-50486512D01*
X6149605Y-50116125D01*
X6169412Y-49579838D01*
X6169412Y-49578823D01*
X6189154Y-49042311D01*
X6242066Y-48671586D01*
X6318679Y-48532941D01*
X6318824Y-48532941D01*
X6423731Y-48403107D01*
X6468224Y-48090282D01*
X6468235Y-48084706D01*
X6511513Y-47769985D01*
X6615788Y-47636505D01*
X6617647Y-47636470D01*
X6743699Y-47512916D01*
X6767059Y-47370631D01*
X6879789Y-47081763D01*
X7065882Y-46889411D01*
X7299259Y-46620916D01*
X7364706Y-46408192D01*
X7434148Y-46183916D01*
X7514118Y-46142353D01*
X7599349Y-46007976D01*
X7653447Y-45664396D01*
X7663530Y-45395294D01*
X7690405Y-44969139D01*
X7759121Y-44698650D01*
X7812941Y-44648235D01*
X7934336Y-44523095D01*
X7962353Y-44349411D01*
X8024923Y-44106622D01*
X8111765Y-44050588D01*
X8233159Y-43925448D01*
X8261177Y-43751764D01*
X8323746Y-43508975D01*
X8410588Y-43452941D01*
X8490174Y-43316848D01*
X8544130Y-42961325D01*
X8560000Y-42556470D01*
X8582682Y-42078959D01*
X8641936Y-41755222D01*
X8709412Y-41660000D01*
X8830807Y-41534860D01*
X8858824Y-41361176D01*
X8921394Y-41118387D01*
X9008235Y-41062353D01*
X9113142Y-40932518D01*
X9157636Y-40619694D01*
X9157647Y-40614117D01*
X9200925Y-40299397D01*
X9305200Y-40165916D01*
X9307059Y-40165882D01*
X9383704Y-40027688D01*
X9436664Y-39657301D01*
X9456471Y-39121014D01*
X9456471Y-39120000D01*
X9476213Y-38583487D01*
X9529125Y-38212762D01*
X9605738Y-38074118D01*
X9605883Y-38074117D01*
X9736867Y-37952444D01*
X9755294Y-37840299D01*
X9856581Y-37624449D01*
X10122352Y-37281683D01*
X10495471Y-36885536D01*
X10502353Y-36878823D01*
X10875985Y-36487791D01*
X11143889Y-36155701D01*
X11249347Y-35953046D01*
X11249412Y-35950331D01*
X11360066Y-35714854D01*
X11548235Y-35534117D01*
X11781612Y-35265622D01*
X11847059Y-35052898D01*
X11916501Y-34828622D01*
X11996471Y-34787058D01*
X12127133Y-34665255D01*
X12145883Y-34551227D01*
X12247533Y-34322396D01*
X12508893Y-33985659D01*
X12743530Y-33741176D01*
X13075928Y-33381697D01*
X13292915Y-33070083D01*
X13341177Y-32931125D01*
X13418346Y-32724888D01*
X13490588Y-32695294D01*
X13595495Y-32565460D01*
X13639989Y-32252635D01*
X13640000Y-32247058D01*
X13705481Y-31893147D01*
X13866885Y-31798823D01*
X14065037Y-31697536D01*
X14400785Y-31432738D01*
X14813744Y-31063026D01*
X15243532Y-30646994D01*
X15629767Y-30243239D01*
X15912065Y-29910357D01*
X16030044Y-29706943D01*
X16030588Y-29699153D01*
X16144460Y-29442236D01*
X16394992Y-29200798D01*
X16621495Y-29109411D01*
X16830734Y-29003292D01*
X17150787Y-28734434D01*
X17510444Y-28377084D01*
X17838497Y-28005490D01*
X18063734Y-27693900D01*
X18122353Y-27544520D01*
X18201818Y-27343177D01*
X18271765Y-27316470D01*
X18397816Y-27192916D01*
X18421177Y-27050631D01*
X18533907Y-26761763D01*
X18720000Y-26569411D01*
X18953377Y-26300916D01*
X19018824Y-26088192D01*
X19088266Y-25863916D01*
X19168235Y-25822353D01*
X19244880Y-25684159D01*
X19297841Y-25313772D01*
X19317647Y-24777485D01*
X19317647Y-24776470D01*
X19337389Y-24239958D01*
X19390302Y-23869233D01*
X19466914Y-23730588D01*
X19467059Y-23730588D01*
X19560621Y-23598037D01*
X19612661Y-23266909D01*
X19616471Y-23132941D01*
X19583333Y-22758693D01*
X19500551Y-22550533D01*
X19467059Y-22535294D01*
X19381828Y-22400917D01*
X19327730Y-22057337D01*
X19317647Y-21788235D01*
X19290772Y-21362080D01*
X19222056Y-21091591D01*
X19168235Y-21041176D01*
X19074673Y-20908625D01*
X19022634Y-20577497D01*
X19018824Y-20443529D01*
X18985686Y-20069281D01*
X18902904Y-19861122D01*
X18869412Y-19845882D01*
X18764505Y-19716048D01*
X18720012Y-19403223D01*
X18720000Y-19397647D01*
X18676722Y-19082926D01*
X18572447Y-18949446D01*
X18570588Y-18949411D01*
X18477026Y-18816861D01*
X18424987Y-18485733D01*
X18421177Y-18351764D01*
X18388039Y-17977516D01*
X18305257Y-17769357D01*
X18271765Y-17754117D01*
X18166858Y-17624283D01*
X18122365Y-17311459D01*
X18122353Y-17305882D01*
X18079075Y-16991161D01*
X17974800Y-16857681D01*
X17972941Y-16857647D01*
X17879379Y-16725096D01*
X17827339Y-16393968D01*
X17823530Y-16260000D01*
X17790392Y-15885751D01*
X17707610Y-15677592D01*
X17674118Y-15662353D01*
X17552723Y-15537213D01*
X17524706Y-15363529D01*
X17462136Y-15120740D01*
X17375294Y-15064706D01*
X17270387Y-14934871D01*
X17225894Y-14622047D01*
X17225883Y-14616470D01*
X17182604Y-14301750D01*
X17078330Y-14168269D01*
X17076471Y-14168235D01*
X16982909Y-14035684D01*
X16930869Y-13704556D01*
X16927059Y-13570588D01*
X16893921Y-13196340D01*
X16811139Y-12988181D01*
X16777647Y-12972941D01*
X16684085Y-12840390D01*
X16632045Y-12509262D01*
X16628235Y-12375294D01*
X16595098Y-12001046D01*
X16512316Y-11792886D01*
X16478824Y-11777647D01*
X16373917Y-11647813D01*
X16329423Y-11334988D01*
X16329412Y-11329411D01*
X16286134Y-11014691D01*
X16181859Y-10881211D01*
X16180000Y-10881176D01*
X16094769Y-10746799D01*
X16040671Y-10403219D01*
X16030588Y-10134117D01*
X16003713Y-9707963D01*
X15934997Y-9437473D01*
X15881177Y-9387058D01*
X15795946Y-9252682D01*
X15741848Y-8909102D01*
X15731765Y-8640000D01*
X15704889Y-8213845D01*
X15636173Y-7943356D01*
X15582353Y-7892941D01*
X15477446Y-7763107D01*
X15432953Y-7450282D01*
X15432941Y-7444706D01*
X15389663Y-7129985D01*
X15285388Y-6996505D01*
X15283530Y-6996470D01*
X15203944Y-6860377D01*
X15149988Y-6504854D01*
X15134118Y-6100000D01*
X15111436Y-5622488D01*
X15052182Y-5298752D01*
X14984706Y-5203529D01*
X14891144Y-5070978D01*
X14839104Y-4739850D01*
X14835294Y-4605882D01*
X14802157Y-4231634D01*
X14719375Y-4023475D01*
X14685883Y-4008235D01*
X14609238Y-3870041D01*
X14556277Y-3499654D01*
X14536471Y-2963367D01*
X14536471Y-2962353D01*
X14516729Y-2425840D01*
X14463816Y-2055115D01*
X14387204Y-1916471D01*
X14387059Y-1916470D01*
X14293497Y-1783919D01*
X14241457Y-1452791D01*
X14237647Y-1318823D01*
X14204510Y-944575D01*
X14121727Y-736416D01*
X14088235Y-721176D01*
X14008650Y-585083D01*
X13954694Y-229560D01*
X13938824Y175294D01*
X13916141Y652806D01*
X13856888Y976542D01*
X13789412Y1071765D01*
X13704181Y1206142D01*
X13650083Y1549722D01*
X13640000Y1818824D01*
X13613125Y2244979D01*
X13544409Y2515468D01*
X13490588Y2565883D01*
X13411003Y2701976D01*
X13357047Y3057499D01*
X13341177Y3462353D01*
X13318494Y3939865D01*
X13259241Y4263601D01*
X13191765Y4358824D01*
X13098203Y4491375D01*
X13046163Y4822503D01*
X13042353Y4956471D01*
X13009215Y5330719D01*
X12926433Y5538878D01*
X12892941Y5554118D01*
X12827356Y5697666D01*
X12778831Y6105530D01*
X12750214Y6743540D01*
X12743530Y7347059D01*
X12755492Y8134089D01*
X12789481Y8716386D01*
X12842648Y9059782D01*
X12892941Y9140000D01*
X13004108Y9268183D01*
X13042353Y9524202D01*
X13087079Y9873520D01*
X13251505Y10108683D01*
X13581003Y10250281D01*
X14120944Y10318906D01*
X14829602Y10335294D01*
X15475087Y10331343D01*
G37*
X15475087Y10331343D02*
X15900940Y10304929D01*
X16186352Y10234216D01*
X16410514Y10097366D01*
X16652616Y9872541D01*
X16707922Y9817334D01*
X17012254Y9468991D01*
X17198509Y9170979D01*
X17225883Y9070275D01*
X17305030Y8868267D01*
X17375294Y8841177D01*
X17483296Y8712143D01*
X17524706Y8425926D01*
X17638482Y8008706D01*
X17823530Y7795294D01*
X18056906Y7526799D01*
X18122353Y7314075D01*
X18191795Y7089799D01*
X18271765Y7048236D01*
X18393159Y6923096D01*
X18421177Y6749412D01*
X18483746Y6506623D01*
X18570588Y6450589D01*
X18655819Y6316212D01*
X18709917Y5972632D01*
X18720000Y5703530D01*
X18746876Y5277375D01*
X18815592Y5006886D01*
X18869412Y4956471D01*
X18974319Y4826637D01*
X19018812Y4513812D01*
X19018824Y4508236D01*
X19062102Y4193515D01*
X19166377Y4060035D01*
X19168235Y4060000D01*
X19261797Y3927450D01*
X19313837Y3596322D01*
X19317647Y3462353D01*
X19350785Y3088105D01*
X19433567Y2879946D01*
X19467059Y2864706D01*
X19560621Y2732156D01*
X19612661Y2401027D01*
X19616471Y2267059D01*
X19649608Y1892811D01*
X19732390Y1684652D01*
X19765883Y1669412D01*
X19843150Y1531632D01*
X19896328Y1164166D01*
X19915294Y656514D01*
X19930406Y85560D01*
X19988649Y-267091D01*
X20109381Y-481013D01*
X20214118Y-571764D01*
X20455345Y-903737D01*
X20512941Y-1202395D01*
X20559369Y-1502557D01*
X20662353Y-1617647D01*
X20783748Y-1742786D01*
X20811765Y-1916470D01*
X20874335Y-2159259D01*
X20961177Y-2215294D01*
X21066083Y-2345128D01*
X21110577Y-2657952D01*
X21110588Y-2663529D01*
X21153866Y-2978250D01*
X21258141Y-3111730D01*
X21260000Y-3111764D01*
X21386052Y-3235319D01*
X21409412Y-3377604D01*
X21522142Y-3666472D01*
X21708235Y-3858823D01*
X21941612Y-4127319D01*
X22007059Y-4340042D01*
X22076501Y-4564319D01*
X22156471Y-4605882D01*
X22282522Y-4729436D01*
X22305882Y-4871721D01*
X22418613Y-5160590D01*
X22604706Y-5352941D01*
X22838083Y-5621437D01*
X22903530Y-5834160D01*
X22972972Y-6058436D01*
X23052941Y-6100000D01*
X23174336Y-6225139D01*
X23202353Y-6398823D01*
X23264923Y-6641612D01*
X23351765Y-6697647D01*
X23473159Y-6822786D01*
X23501177Y-6996470D01*
X23563746Y-7239259D01*
X23650588Y-7295294D01*
X23771983Y-7420433D01*
X23800000Y-7594117D01*
X23862570Y-7836906D01*
X23949412Y-7892941D01*
X24070807Y-8018080D01*
X24098824Y-8191764D01*
X24161394Y-8434554D01*
X24248235Y-8490588D01*
X24353142Y-8620422D01*
X24397636Y-8933247D01*
X24397647Y-8938823D01*
X24440925Y-9253544D01*
X24545200Y-9387024D01*
X24547059Y-9387058D01*
X24651966Y-9516893D01*
X24696459Y-9829717D01*
X24696471Y-9835294D01*
X24739749Y-10150014D01*
X24844024Y-10283495D01*
X24845883Y-10283529D01*
X24976061Y-10405527D01*
X24995294Y-10522407D01*
X25097943Y-10769993D01*
X25353370Y-11090889D01*
X25443530Y-11180000D01*
X25778392Y-11603989D01*
X25891765Y-11987004D01*
X25941134Y-12274780D01*
X26041177Y-12375294D01*
X26162571Y-12500433D01*
X26190588Y-12674117D01*
X26253158Y-12916906D01*
X26340000Y-12972941D01*
X26425231Y-13107318D01*
X26479329Y-13450898D01*
X26489412Y-13720000D01*
X26516287Y-14146154D01*
X26585003Y-14416644D01*
X26638824Y-14467058D01*
X26732386Y-14599609D01*
X26784426Y-14930737D01*
X26788235Y-15064706D01*
X26821373Y-15438954D01*
X26904155Y-15647113D01*
X26937647Y-15662353D01*
X27022878Y-15796729D01*
X27076976Y-16140309D01*
X27087059Y-16409411D01*
X27113934Y-16835566D01*
X27182650Y-17106055D01*
X27236471Y-17156470D01*
X27316056Y-17292563D01*
X27370012Y-17648086D01*
X27385883Y-18052941D01*
X27408565Y-18530452D01*
X27467819Y-18854189D01*
X27535294Y-18949411D01*
X27614880Y-19085505D01*
X27668836Y-19441028D01*
X27684706Y-19845882D01*
X27707388Y-20323394D01*
X27766642Y-20647130D01*
X27834118Y-20742353D01*
X27889048Y-20595932D01*
X27932250Y-20168244D01*
X27962858Y-19476646D01*
X27980003Y-18538496D01*
X27983530Y-17754117D01*
X27981015Y-17376656D01*
X38442353Y-17376656D01*
X38471867Y-17778993D01*
X38546586Y-18021152D01*
X38591765Y-18052941D01*
X38696672Y-18182775D01*
X38741165Y-18495599D01*
X38741177Y-18501176D01*
X38784455Y-18815897D01*
X38888730Y-18949377D01*
X38890588Y-18949411D01*
X39022040Y-19070893D01*
X39040000Y-19180320D01*
X39139230Y-19437099D01*
X39380728Y-19751378D01*
X39406738Y-19777968D01*
X39719441Y-20028192D01*
X39987089Y-20143786D01*
X40004385Y-20144706D01*
X40207538Y-20223311D01*
X40235294Y-20294117D01*
X40348993Y-20439187D01*
X40384706Y-20443529D01*
X40529776Y-20329830D01*
X40534118Y-20294117D01*
X40655478Y-20162373D01*
X40763216Y-20144706D01*
X40997327Y-20045203D01*
X41332377Y-19792535D01*
X41510275Y-19626745D01*
X41792754Y-19321239D01*
X41948139Y-19049476D01*
X42014077Y-18702859D01*
X42023440Y-18351764D01*
X48452941Y-18351764D01*
X48475624Y-18829276D01*
X48534877Y-19153012D01*
X48602353Y-19248235D01*
X48723748Y-19373375D01*
X48751765Y-19547058D01*
X48814335Y-19789848D01*
X48901177Y-19845882D01*
X49032005Y-19967619D01*
X49050588Y-20080672D01*
X49177011Y-20418198D01*
X49471878Y-20676487D01*
X49712269Y-20742353D01*
X49917857Y-20819821D01*
X49947059Y-20891764D01*
X50047389Y-21033691D01*
X50296864Y-21000873D01*
X50618210Y-20813578D01*
X50775615Y-20674438D01*
X51025840Y-20361735D01*
X51141433Y-20094088D01*
X51142353Y-20076791D01*
X51220959Y-19873638D01*
X51291765Y-19845882D01*
X51376996Y-19711505D01*
X51431094Y-19367925D01*
X51441177Y-19098823D01*
X51414301Y-18672669D01*
X51345585Y-18402179D01*
X51291765Y-18351764D01*
X51179989Y-18223750D01*
X51142353Y-17973255D01*
X51015092Y-17559448D01*
X50691566Y-17134038D01*
X50259157Y-16779433D01*
X49805249Y-16578043D01*
X49642544Y-16558823D01*
X49163701Y-16658210D01*
X48844066Y-16920365D01*
X48751765Y-17220504D01*
X48674296Y-17426092D01*
X48602353Y-17455294D01*
X48522768Y-17591387D01*
X48468812Y-17946910D01*
X48452941Y-18351764D01*
X42023440Y-18351764D01*
X42028213Y-18172792D01*
X42028235Y-18132627D01*
X42007222Y-17623165D01*
X41951509Y-17274140D01*
X41878824Y-17156470D01*
X41767243Y-17028402D01*
X41729412Y-16776149D01*
X41621877Y-16409656D01*
X41358602Y-16033954D01*
X41028584Y-15751828D01*
X40765027Y-15662353D01*
X40561874Y-15583747D01*
X40534118Y-15512941D01*
X40406135Y-15401052D01*
X40156656Y-15363529D01*
X39765725Y-15496198D01*
X39260779Y-15887200D01*
X39110774Y-16031950D01*
X38734797Y-16433015D01*
X38533247Y-16745233D01*
X38453636Y-17074196D01*
X38442353Y-17376656D01*
X27981015Y-17376656D01*
X27976209Y-16655523D01*
X27954824Y-15791469D01*
X27920244Y-15179315D01*
X27873337Y-14836417D01*
X27834118Y-14765882D01*
X27740556Y-14633331D01*
X27688516Y-14302203D01*
X27684706Y-14168235D01*
X27717844Y-13793987D01*
X27800626Y-13585828D01*
X27834118Y-13570588D01*
X27955512Y-13445448D01*
X27983530Y-13271764D01*
X28046099Y-13028975D01*
X28132941Y-12972941D01*
X28202351Y-12830891D01*
X28252533Y-12433440D01*
X28279182Y-11823641D01*
X28282353Y-11478823D01*
X28296558Y-10784729D01*
X28336303Y-10282911D01*
X28397283Y-10016420D01*
X28431765Y-9984706D01*
X28492654Y-9839690D01*
X28538962Y-9421672D01*
X28568985Y-8756197D01*
X28581022Y-7868807D01*
X28581177Y-7743529D01*
X28590844Y-6830191D01*
X28618712Y-6135574D01*
X28663077Y-5685222D01*
X28722237Y-5504677D01*
X28730588Y-5502353D01*
X28804581Y-5362559D01*
X28856577Y-4980907D01*
X28879502Y-4413987D01*
X28880000Y-4307058D01*
X28897474Y-3715119D01*
X28945181Y-3299152D01*
X29016046Y-3115748D01*
X29029412Y-3111764D01*
X29122974Y-2979214D01*
X29175014Y-2648085D01*
X29178824Y-2514117D01*
X29211961Y-2139869D01*
X29294743Y-1931710D01*
X29328235Y-1916470D01*
X29433142Y-1786636D01*
X29477636Y-1473812D01*
X29477647Y-1468235D01*
X29520925Y-1153514D01*
X29625200Y-1020034D01*
X29627059Y-1020000D01*
X29720621Y-887449D01*
X29772661Y-556321D01*
X29776471Y-422353D01*
X29809608Y-48104D01*
X29892390Y160055D01*
X29925883Y175294D01*
X30057334Y296776D01*
X30075294Y406204D01*
X30174524Y662982D01*
X30416022Y977261D01*
X30442032Y1003851D01*
X30726999Y1228695D01*
X31070675Y1339218D01*
X31587284Y1370464D01*
X31637326Y1370589D01*
X32089465Y1346217D01*
X32390409Y1283302D01*
X32465883Y1221177D01*
X32593865Y1109288D01*
X32843344Y1071765D01*
X33135517Y969764D01*
X33526478Y709800D01*
X33938951Y360928D01*
X34295655Y-7795D01*
X34519313Y-327314D01*
X34557647Y-460143D01*
X34668115Y-690913D01*
X34856471Y-870588D01*
X35097698Y-1202560D01*
X35155294Y-1501219D01*
X35201722Y-1801380D01*
X35304706Y-1916470D01*
X35430758Y-2040025D01*
X35454118Y-2182310D01*
X35566848Y-2471178D01*
X35752941Y-2663529D01*
X35986318Y-2932025D01*
X36051765Y-3144748D01*
X36121207Y-3369025D01*
X36201177Y-3410588D01*
X36306083Y-3540422D01*
X36350577Y-3853247D01*
X36350588Y-3858823D01*
X36393866Y-4173544D01*
X36498141Y-4307024D01*
X36500000Y-4307058D01*
X36621395Y-4432198D01*
X36649412Y-4605882D01*
X36711982Y-4848671D01*
X36798824Y-4904706D01*
X36924875Y-5028260D01*
X36948235Y-5170545D01*
X37060966Y-5459413D01*
X37247059Y-5651764D01*
X37481552Y-5969657D01*
X37545883Y-6431807D01*
X37563687Y-6800344D01*
X37676209Y-6958783D01*
X37972115Y-6995791D01*
X38110546Y-6996470D01*
X38610436Y-7075258D01*
X38890588Y-7295294D01*
X39208481Y-7529787D01*
X39670631Y-7594117D01*
X40032506Y-7629058D01*
X40225460Y-7715775D01*
X40235294Y-7743529D01*
X40360434Y-7864924D01*
X40534118Y-7892941D01*
X40776907Y-7955511D01*
X40832941Y-8042353D01*
X40958081Y-8163747D01*
X41131765Y-8191764D01*
X41374554Y-8129194D01*
X41430588Y-8042353D01*
X41569983Y-7980066D01*
X41948967Y-7933494D01*
X42508745Y-7902208D01*
X43190521Y-7885780D01*
X43935497Y-7883780D01*
X44684876Y-7895779D01*
X45379863Y-7921350D01*
X45961659Y-7960062D01*
X46371470Y-8011488D01*
X46550497Y-8075199D01*
X46552727Y-8079706D01*
X46676835Y-8137993D01*
X46918880Y-7930294D01*
X47185637Y-7689256D01*
X47389641Y-7594117D01*
X47572206Y-7491325D01*
X47897737Y-7219811D01*
X48311435Y-6834876D01*
X48758502Y-6391815D01*
X49184137Y-5945926D01*
X49533541Y-5552507D01*
X49751915Y-5266857D01*
X49797647Y-5164217D01*
X49908065Y-4934688D01*
X50096471Y-4755294D01*
X50329847Y-4486798D01*
X50395294Y-4274074D01*
X50464736Y-4049798D01*
X50544706Y-4008235D01*
X50674884Y-3886237D01*
X50694118Y-3769357D01*
X50796766Y-3521771D01*
X51052194Y-3200874D01*
X51142353Y-3111764D01*
X51427002Y-2791158D01*
X51581415Y-2510789D01*
X51590588Y-2454172D01*
X51666895Y-2246044D01*
X51740000Y-2215294D01*
X51871452Y-2093812D01*
X51889412Y-1984385D01*
X51998260Y-1711964D01*
X52257855Y-1391131D01*
X52567774Y-1125865D01*
X52820813Y-1020000D01*
X53053916Y-909439D01*
X53234118Y-721176D01*
X53552010Y-486683D01*
X54014161Y-422353D01*
X54383524Y-442859D01*
X54542389Y-550842D01*
X54578554Y-815995D01*
X54578824Y-870588D01*
X54622102Y-1185308D01*
X54726377Y-1318789D01*
X54728235Y-1318823D01*
X54782175Y-1465436D01*
X54824829Y-1894448D01*
X54855426Y-2589619D01*
X54873192Y-3534711D01*
X54877647Y-4456470D01*
X54870666Y-5589192D01*
X54850237Y-6484941D01*
X54817133Y-7127479D01*
X54772129Y-7500565D01*
X54728235Y-7594117D01*
X54665897Y-7738718D01*
X54618883Y-8153872D01*
X54589193Y-8811607D01*
X54578824Y-9683949D01*
X54578824Y-9685882D01*
X54589152Y-10558624D01*
X54618806Y-11216813D01*
X54665787Y-11632479D01*
X54728097Y-11777646D01*
X54728235Y-11777647D01*
X54813466Y-11912024D01*
X54867564Y-12255604D01*
X54877647Y-12524706D01*
X54904523Y-12950860D01*
X54973239Y-13221349D01*
X55027059Y-13271764D01*
X55112290Y-13406141D01*
X55166388Y-13749721D01*
X55176471Y-14018823D01*
X55203346Y-14444978D01*
X55272062Y-14715467D01*
X55325883Y-14765882D01*
X55411113Y-14900259D01*
X55465211Y-15243839D01*
X55475294Y-15512941D01*
X55502170Y-15939095D01*
X55570886Y-16209585D01*
X55624706Y-16260000D01*
X55701351Y-16398194D01*
X55754311Y-16768580D01*
X55774118Y-17304867D01*
X55774118Y-17305882D01*
X55793860Y-17842394D01*
X55846772Y-18213119D01*
X55923385Y-18351764D01*
X55923530Y-18351764D01*
X55987429Y-18495882D01*
X56035181Y-18907692D01*
X56064415Y-19556381D01*
X56072941Y-20294117D01*
X56061855Y-21124808D01*
X56030178Y-21745583D01*
X55980278Y-22125628D01*
X55923530Y-22236470D01*
X55838299Y-22370847D01*
X55784201Y-22714427D01*
X55774118Y-22983529D01*
X55747242Y-23409684D01*
X55678526Y-23680173D01*
X55624706Y-23730588D01*
X55519799Y-23860422D01*
X55475306Y-24173247D01*
X55475294Y-24178823D01*
X55432016Y-24493544D01*
X55327741Y-24627024D01*
X55325883Y-24627058D01*
X55246297Y-24763152D01*
X55192341Y-25118675D01*
X55176471Y-25523529D01*
X55153789Y-26001041D01*
X55094535Y-26324777D01*
X55027059Y-26420000D01*
X54922152Y-26549834D01*
X54877659Y-26862658D01*
X54877647Y-26868235D01*
X54834369Y-27182956D01*
X54730094Y-27316436D01*
X54728235Y-27316470D01*
X54606841Y-27441610D01*
X54578824Y-27615294D01*
X54516254Y-27858083D01*
X54429412Y-27914117D01*
X54318677Y-28042418D01*
X54280000Y-28302407D01*
X54151655Y-28712379D01*
X53831765Y-29109411D01*
X53547116Y-29430018D01*
X53392703Y-29710386D01*
X53383530Y-29767004D01*
X53307223Y-29975132D01*
X53234118Y-30005882D01*
X53108066Y-30129436D01*
X53084706Y-30271721D01*
X52971976Y-30560590D01*
X52785883Y-30752941D01*
X52629024Y-30910326D01*
X52537977Y-31150605D01*
X52496201Y-31548203D01*
X52487059Y-32097647D01*
X52498788Y-32698905D01*
X52545003Y-33076305D01*
X52642241Y-33304273D01*
X52785883Y-33442353D01*
X53027110Y-33774325D01*
X53084706Y-34072984D01*
X53131134Y-34373145D01*
X53234118Y-34488235D01*
X53327680Y-34620786D01*
X53379720Y-34951914D01*
X53383530Y-35085882D01*
X53416667Y-35460130D01*
X53499449Y-35668289D01*
X53532941Y-35683529D01*
X53637848Y-35813363D01*
X53682342Y-36126188D01*
X53682353Y-36131764D01*
X53725631Y-36446485D01*
X53829906Y-36579965D01*
X53831765Y-36580000D01*
X53953159Y-36705139D01*
X53981177Y-36878823D01*
X54043746Y-37121612D01*
X54130588Y-37177647D01*
X54251983Y-37302786D01*
X54280000Y-37476470D01*
X54342570Y-37719259D01*
X54429412Y-37775294D01*
X54550807Y-37900433D01*
X54578824Y-38074117D01*
X54641394Y-38316906D01*
X54728235Y-38372941D01*
X54833142Y-38502775D01*
X54877636Y-38815599D01*
X54877647Y-38821176D01*
X54920925Y-39135897D01*
X55025200Y-39269377D01*
X55027059Y-39269411D01*
X55131966Y-39399245D01*
X55176459Y-39712070D01*
X55176471Y-39717647D01*
X55219749Y-40032367D01*
X55324024Y-40165848D01*
X55325883Y-40165882D01*
X55447277Y-40291022D01*
X55475294Y-40464706D01*
X55537864Y-40707495D01*
X55624706Y-40763529D01*
X55746101Y-40888669D01*
X55774118Y-41062353D01*
X55836688Y-41305142D01*
X55923530Y-41361176D01*
X56034264Y-41489477D01*
X56072941Y-41749466D01*
X56201287Y-42159438D01*
X56521177Y-42556470D01*
X56821869Y-42925010D01*
X56966046Y-43281650D01*
X56969412Y-43330490D01*
X57084876Y-43693770D01*
X57268235Y-43901176D01*
X57501457Y-44212732D01*
X57567059Y-44498823D01*
X57679203Y-44877999D01*
X57865883Y-45096470D01*
X58099259Y-45364966D01*
X58164706Y-45577690D01*
X58234148Y-45801966D01*
X58314118Y-45843529D01*
X58419025Y-45973363D01*
X58463518Y-46286188D01*
X58463530Y-46291764D01*
X58506808Y-46606485D01*
X58611082Y-46739965D01*
X58612941Y-46740000D01*
X58738993Y-46863554D01*
X58762353Y-47005839D01*
X58875084Y-47294707D01*
X59061177Y-47487058D01*
X59293713Y-47741691D01*
X59360000Y-47935294D01*
X59471685Y-48196994D01*
X59658824Y-48383529D01*
X59900051Y-48715502D01*
X59957647Y-49014160D01*
X60004075Y-49314322D01*
X60107059Y-49429411D01*
X60233111Y-49552966D01*
X60256471Y-49695251D01*
X60369201Y-49984119D01*
X60555294Y-50176470D01*
X60788671Y-50444966D01*
X60854118Y-50657690D01*
X60923560Y-50881966D01*
X61003530Y-50923529D01*
X61124924Y-51048669D01*
X61152941Y-51222353D01*
X61215511Y-51465142D01*
X61302353Y-51521176D01*
X61428405Y-51644730D01*
X61451765Y-51787016D01*
X61564495Y-52075884D01*
X61750588Y-52268235D01*
X61983965Y-52536731D01*
X62049412Y-52749454D01*
X62118854Y-52973730D01*
X62198824Y-53015294D01*
X62324875Y-53138848D01*
X62348235Y-53281133D01*
X62460966Y-53570001D01*
X62647059Y-53762353D01*
X62880436Y-54030848D01*
X62945883Y-54243572D01*
X63015325Y-54467848D01*
X63095294Y-54509411D01*
X63216689Y-54634551D01*
X63244706Y-54808235D01*
X63307276Y-55051024D01*
X63394118Y-55107058D01*
X63524780Y-55228862D01*
X63543530Y-55342890D01*
X63645180Y-55571721D01*
X63906540Y-55908458D01*
X64141177Y-56152941D01*
X64471865Y-56499393D01*
X64688904Y-56781867D01*
X64738824Y-56897986D01*
X64839214Y-57081038D01*
X65102824Y-57399031D01*
X65473312Y-57784202D01*
X65485883Y-57796470D01*
X65858755Y-58182472D01*
X66126516Y-58503181D01*
X66232835Y-58690931D01*
X66232941Y-58693913D01*
X66355307Y-58972757D01*
X66634577Y-59210139D01*
X66894622Y-59290588D01*
X67100210Y-59368057D01*
X67129412Y-59440000D01*
X67265505Y-59519585D01*
X67621028Y-59573541D01*
X68025883Y-59589411D01*
X68503394Y-59612094D01*
X68827130Y-59671347D01*
X68922353Y-59738823D01*
X69050421Y-59850404D01*
X69302674Y-59888235D01*
X69669167Y-59995770D01*
X70044869Y-60259045D01*
X70326995Y-60589062D01*
X70416471Y-60852620D01*
X70495076Y-61055773D01*
X70565883Y-61083529D01*
X70637474Y-61224575D01*
X70688543Y-61615014D01*
X70713639Y-62205794D01*
X70715294Y-62428235D01*
X70730966Y-63072562D01*
X70774348Y-63532183D01*
X70839990Y-63758046D01*
X70864706Y-63772941D01*
X70928605Y-63917058D01*
X70976357Y-64328868D01*
X71005591Y-64977558D01*
X71014118Y-65715294D01*
X71003032Y-66545985D01*
X70971354Y-67166759D01*
X70921455Y-67546804D01*
X70864706Y-67657647D01*
X70743311Y-67782786D01*
X70715294Y-67956470D01*
X70652724Y-68199259D01*
X70565883Y-68255294D01*
X70457881Y-68384327D01*
X70416471Y-68670545D01*
X70302695Y-69087765D01*
X70117647Y-69301176D01*
X69886099Y-69540178D01*
X69818824Y-69711621D01*
X69704678Y-69972708D01*
X69413761Y-70322073D01*
X69023351Y-70690660D01*
X68610726Y-71009412D01*
X68253164Y-71209274D01*
X68104520Y-71243529D01*
X67821854Y-71294189D01*
X67727059Y-71392941D01*
X67601919Y-71514335D01*
X67428235Y-71542353D01*
X67185446Y-71604922D01*
X67129412Y-71691764D01*
X66988618Y-71763866D01*
X66599946Y-71815137D01*
X66013962Y-71839815D01*
X65817690Y-71841176D01*
X65168905Y-71832770D01*
X64750918Y-71798711D01*
X64495962Y-71725738D01*
X64336269Y-71600591D01*
X64290588Y-71542353D01*
X64035956Y-71309816D01*
X63842353Y-71243529D01*
X63580653Y-71131844D01*
X63394118Y-70944706D01*
X63265430Y-70808679D01*
X63074627Y-70721164D01*
X62760544Y-70671786D01*
X62262018Y-70650173D01*
X61632226Y-70645882D01*
X60808294Y-70628028D01*
X60240280Y-70565239D01*
X59886902Y-70443673D01*
X59706879Y-70249487D01*
X59658824Y-69984201D01*
X59581355Y-69778613D01*
X59509412Y-69749411D01*
X59388017Y-69624272D01*
X59360000Y-69450588D01*
X59297430Y-69207799D01*
X59210588Y-69151764D01*
X59089194Y-69026625D01*
X59061177Y-68852941D01*
X58998607Y-68610152D01*
X58911765Y-68554117D01*
X58835120Y-68415923D01*
X58782160Y-68045537D01*
X58762353Y-67509250D01*
X58762353Y-67508235D01*
X58742611Y-66971722D01*
X58689699Y-66600998D01*
X58613086Y-66462353D01*
X58612941Y-66462353D01*
X58482279Y-66340549D01*
X58463530Y-66226521D01*
X58361879Y-65997690D01*
X58100519Y-65660953D01*
X57865883Y-65416470D01*
X57533484Y-65056991D01*
X57316498Y-64745377D01*
X57268235Y-64606419D01*
X57191066Y-64400182D01*
X57118824Y-64370588D01*
X56997429Y-64245448D01*
X56969412Y-64071764D01*
X56906842Y-63828975D01*
X56820000Y-63772941D01*
X56698606Y-63647801D01*
X56670588Y-63474117D01*
X56608019Y-63231328D01*
X56521177Y-63175294D01*
X56409401Y-63047280D01*
X56371765Y-62796784D01*
X56266163Y-62468448D01*
X56002055Y-62075398D01*
X55658484Y-61706014D01*
X55314494Y-61448678D01*
X55106745Y-61382353D01*
X54914095Y-61259935D01*
X54877647Y-61116513D01*
X54764917Y-60827645D01*
X54578824Y-60635294D01*
X54345447Y-60366798D01*
X54280000Y-60154074D01*
X54210558Y-59929798D01*
X54130588Y-59888235D01*
X54022587Y-59759201D01*
X53981177Y-59472984D01*
X53867401Y-59055764D01*
X53682353Y-58842353D01*
X53450627Y-58600583D01*
X53383530Y-58425167D01*
X53259133Y-58117652D01*
X52972296Y-57869564D01*
X52721849Y-57796470D01*
X52518117Y-57675961D01*
X52487059Y-57557592D01*
X52384410Y-57310006D01*
X52128983Y-56989110D01*
X52038824Y-56900000D01*
X51755871Y-56595262D01*
X51600701Y-56349562D01*
X51590588Y-56302353D01*
X51489334Y-56094814D01*
X51236952Y-55797110D01*
X51142353Y-55704706D01*
X50859627Y-55402050D01*
X50704358Y-55160899D01*
X50694118Y-55115027D01*
X50587828Y-54886178D01*
X50336678Y-54591241D01*
X50042244Y-54332254D01*
X49806102Y-54211255D01*
X49793766Y-54210588D01*
X49530506Y-54095046D01*
X49288524Y-53839311D01*
X49200000Y-53608853D01*
X49098840Y-53404028D01*
X48846665Y-53107914D01*
X48751765Y-53015294D01*
X48469152Y-52713687D01*
X48313835Y-52474829D01*
X48303530Y-52429640D01*
X48208635Y-52247339D01*
X47959876Y-51944167D01*
X47611141Y-51572113D01*
X47216319Y-51183170D01*
X46829296Y-50829330D01*
X46503961Y-50562582D01*
X46294203Y-50434919D01*
X46246697Y-50445204D01*
X46067107Y-50595214D01*
X45900490Y-50624706D01*
X45664544Y-50689702D01*
X45614118Y-50774117D01*
X45492538Y-50905330D01*
X45381726Y-50923529D01*
X45175496Y-51024703D01*
X44830261Y-51293955D01*
X44409801Y-51679879D01*
X44269412Y-51820000D01*
X43842884Y-52231710D01*
X43476926Y-52543754D01*
X43233052Y-52705038D01*
X43190082Y-52716470D01*
X42955769Y-52827079D01*
X42775294Y-53015294D01*
X42528155Y-53221119D01*
X42123553Y-53306673D01*
X41878824Y-53314117D01*
X41378458Y-53357460D01*
X41075013Y-53507922D01*
X40982353Y-53612941D01*
X40748338Y-53812692D01*
X40367554Y-53900448D01*
X40052898Y-53911764D01*
X39637687Y-53939807D01*
X39380162Y-54011194D01*
X39338824Y-54061176D01*
X39213684Y-54182571D01*
X39040000Y-54210588D01*
X38797211Y-54273158D01*
X38741177Y-54360000D01*
X38611343Y-54464906D01*
X38298518Y-54509400D01*
X38292941Y-54509411D01*
X37978221Y-54552689D01*
X37844740Y-54656964D01*
X37844706Y-54658823D01*
X37719566Y-54780218D01*
X37545883Y-54808235D01*
X37303093Y-54870805D01*
X37247059Y-54957647D01*
X37108865Y-55034291D01*
X36738478Y-55087252D01*
X36202191Y-55107058D01*
X35155294Y-55107058D01*
X35155294Y-55555294D01*
X35198572Y-55870014D01*
X35302847Y-56003495D01*
X35304706Y-56003529D01*
X35426101Y-56128669D01*
X35454118Y-56302353D01*
X35516688Y-56545142D01*
X35603530Y-56601176D01*
X35669115Y-56744724D01*
X35717640Y-57152588D01*
X35746256Y-57790598D01*
X35752941Y-58394117D01*
X35740979Y-59181147D01*
X35706990Y-59763444D01*
X35653823Y-60106840D01*
X35603530Y-60187058D01*
X35498623Y-60316893D01*
X35454129Y-60629717D01*
X35454118Y-60635294D01*
X35497396Y-60950014D01*
X35601671Y-61083495D01*
X35603530Y-61083529D01*
X35708436Y-61213363D01*
X35752930Y-61526188D01*
X35752941Y-61531764D01*
X35796219Y-61846485D01*
X35900494Y-61979965D01*
X35902353Y-61980000D01*
X36023748Y-62105139D01*
X36051765Y-62278823D01*
X36114335Y-62521612D01*
X36201177Y-62577647D01*
X36294739Y-62710197D01*
X36346778Y-63041326D01*
X36350588Y-63175294D01*
X36383726Y-63549542D01*
X36466508Y-63757701D01*
X36500000Y-63772941D01*
X36585231Y-63907318D01*
X36639329Y-64250898D01*
X36649412Y-64520000D01*
X36676287Y-64946154D01*
X36745003Y-65216644D01*
X36798824Y-65267058D01*
X36870416Y-65408105D01*
X36921485Y-65798543D01*
X36946580Y-66389323D01*
X36948235Y-66611764D01*
X36932564Y-67256092D01*
X36889182Y-67715712D01*
X36823539Y-67941575D01*
X36798824Y-67956470D01*
X36705262Y-68089021D01*
X36653222Y-68420149D01*
X36649412Y-68554117D01*
X36616274Y-68928365D01*
X36533492Y-69136525D01*
X36500000Y-69151764D01*
X36378606Y-69276904D01*
X36350588Y-69450588D01*
X36288019Y-69693377D01*
X36201177Y-69749411D01*
X36069725Y-69870893D01*
X36051765Y-69980320D01*
X35938217Y-70264666D01*
X35666858Y-70589267D01*
X35341615Y-70850198D01*
X35087380Y-70944706D01*
X34884227Y-71023311D01*
X34856471Y-71094117D01*
X34732916Y-71220169D01*
X34590631Y-71243529D01*
X34301763Y-71356260D01*
X34109412Y-71542353D01*
X33867643Y-71774079D01*
X33692226Y-71841176D01*
X33384711Y-71965572D01*
X33136624Y-72252410D01*
X33063530Y-72502857D01*
X32976455Y-72663581D01*
X32677735Y-72731483D01*
X32465883Y-72737647D01*
X32091634Y-72770784D01*
X31883475Y-72853566D01*
X31868235Y-72887058D01*
X31724118Y-72950958D01*
X31312308Y-72998710D01*
X30663619Y-73027944D01*
X29925883Y-73036470D01*
X29095191Y-73047556D01*
X28474417Y-73079234D01*
X28094372Y-73129133D01*
X27983530Y-73185882D01*
X27845336Y-73262527D01*
X27474949Y-73315487D01*
X26938662Y-73335294D01*
X26937647Y-73335294D01*
X26401135Y-73315552D01*
X26030410Y-73262639D01*
X25891765Y-73186027D01*
X25891765Y-73185882D01*
X25761931Y-73080975D01*
X25449106Y-73036482D01*
X25443530Y-73036470D01*
X25128809Y-72993192D01*
X24995329Y-72888917D01*
X24995294Y-72887058D01*
X24871740Y-72761007D01*
X24729455Y-72737647D01*
X24440587Y-72624916D01*
X24248235Y-72438823D01*
X24008061Y-72207199D01*
X23834931Y-72140000D01*
X23540155Y-72016885D01*
X23229240Y-71716431D01*
X22988600Y-71341974D01*
X22903530Y-71026203D01*
X22853217Y-70742179D01*
X22754118Y-70645882D01*
X22674533Y-70509789D01*
X22620577Y-70154266D01*
X22604706Y-69749411D01*
X22582024Y-69271900D01*
X22522770Y-68948164D01*
X22455294Y-68852941D01*
X22350387Y-68723107D01*
X22305894Y-68410282D01*
X22305883Y-68404706D01*
X22262604Y-68089985D01*
X22158330Y-67956505D01*
X22156471Y-67956470D01*
X22087061Y-67814420D01*
X22036880Y-67416970D01*
X22010230Y-66807171D01*
X22007059Y-66462353D01*
X22021264Y-65768259D01*
X22061009Y-65266441D01*
X22121989Y-64999950D01*
X22156471Y-64968235D01*
X22250033Y-64835684D01*
X22302073Y-64504556D01*
X22305883Y-64370588D01*
X22339020Y-63996340D01*
X22421802Y-63788181D01*
X22455294Y-63772941D01*
X22576689Y-63647801D01*
X22604706Y-63474117D01*
X22667276Y-63231328D01*
X22754118Y-63175294D01*
X22859025Y-63045460D01*
X22903518Y-62732635D01*
X22903530Y-62727058D01*
X22946808Y-62412338D01*
X23051082Y-62278858D01*
X23052941Y-62278823D01*
X23126934Y-62139030D01*
X23178930Y-61757377D01*
X23201855Y-61190458D01*
X23202353Y-61083529D01*
X23184879Y-60491590D01*
X23137172Y-60075623D01*
X23066307Y-59892219D01*
X23052941Y-59888235D01*
X22959379Y-59755684D01*
X22907339Y-59424556D01*
X22903530Y-59290588D01*
X22870392Y-58916340D01*
X22787610Y-58708181D01*
X22754118Y-58692941D01*
X22674533Y-58556848D01*
X22620577Y-58201325D01*
X22604706Y-57796470D01*
X22582024Y-57318959D01*
X22522770Y-56995222D01*
X22455294Y-56900000D01*
X22370063Y-56765623D01*
X22315965Y-56422043D01*
X22305883Y-56152941D01*
X22279007Y-55726786D01*
X22210291Y-55456297D01*
X22156471Y-55405882D01*
X22071240Y-55271505D01*
X22017142Y-54927925D01*
X22007059Y-54658823D01*
X21980184Y-54232669D01*
X21911468Y-53962179D01*
X21857647Y-53911764D01*
X21764085Y-53779214D01*
X21712045Y-53448085D01*
X21708235Y-53314117D01*
X21675098Y-52939869D01*
X21592316Y-52731710D01*
X21558824Y-52716470D01*
X21437429Y-52591331D01*
X21409412Y-52417647D01*
X21346842Y-52174857D01*
X21260000Y-52118823D01*
X21151999Y-51989789D01*
X21110588Y-51703572D01*
X20996812Y-51286352D01*
X20811765Y-51072941D01*
X20580141Y-50832766D01*
X20512941Y-50659636D01*
X20378847Y-50314040D01*
X20035485Y-50003374D01*
X19571232Y-49789053D01*
X19172617Y-49728235D01*
X18881748Y-49745620D01*
X18627395Y-49823450D01*
X18350148Y-50000233D01*
X17990596Y-50314481D01*
X17489330Y-50804703D01*
X17447590Y-50846413D01*
X16985476Y-51328899D01*
X16616357Y-51753061D01*
X16385202Y-52064817D01*
X16329412Y-52191119D01*
X16209034Y-52388741D01*
X16094622Y-52417647D01*
X15770973Y-52535842D01*
X15509870Y-52808381D01*
X15432941Y-53046343D01*
X15322255Y-53282614D01*
X15134118Y-53463529D01*
X14901581Y-53718161D01*
X14835294Y-53911764D01*
X14723609Y-54173464D01*
X14536471Y-54360000D01*
X14303094Y-54628495D01*
X14237647Y-54841219D01*
X14168205Y-55065495D01*
X14088235Y-55107058D01*
X13977180Y-55235271D01*
X13938824Y-55492302D01*
X13799446Y-55906367D01*
X13386862Y-56407260D01*
X13341177Y-56451764D01*
X12968703Y-56854735D01*
X12788379Y-57197019D01*
X12743530Y-57560639D01*
X12706767Y-57910912D01*
X12616123Y-58089467D01*
X12594118Y-58095294D01*
X12472723Y-58220433D01*
X12444706Y-58394117D01*
X12382136Y-58636906D01*
X12295294Y-58692941D01*
X12190387Y-58822775D01*
X12145894Y-59135599D01*
X12145883Y-59141176D01*
X12102604Y-59455897D01*
X11998330Y-59589377D01*
X11996471Y-59589411D01*
X11929055Y-59732281D01*
X11879721Y-60135433D01*
X11851939Y-60760685D01*
X11847059Y-61232941D01*
X11834071Y-61974512D01*
X11797421Y-62517188D01*
X11740580Y-62822785D01*
X11697647Y-62876470D01*
X11621003Y-63014664D01*
X11568042Y-63385051D01*
X11548236Y-63921338D01*
X11548235Y-63922353D01*
X11528493Y-64458865D01*
X11475581Y-64829590D01*
X11398969Y-64968234D01*
X11398824Y-64968235D01*
X11277429Y-65093375D01*
X11249412Y-65267058D01*
X11186842Y-65509848D01*
X11100000Y-65565882D01*
X11006438Y-65698433D01*
X10954398Y-66029561D01*
X10950588Y-66163529D01*
X10917451Y-66537777D01*
X10834669Y-66745936D01*
X10801177Y-66761176D01*
X10696270Y-66891010D01*
X10651776Y-67203835D01*
X10651765Y-67209411D01*
X10604805Y-67537506D01*
X10430079Y-67653022D01*
X10352941Y-67657647D01*
X10110152Y-67720217D01*
X10054118Y-67807058D01*
X9932444Y-67938043D01*
X9820300Y-67956470D01*
X9604449Y-68057757D01*
X9261683Y-68323528D01*
X8865537Y-68696647D01*
X8858824Y-68703529D01*
X8468079Y-69094110D01*
X8178736Y-69317366D01*
X7883761Y-69420097D01*
X7476120Y-69449103D01*
X7150289Y-69450588D01*
X6638970Y-69429665D01*
X6288464Y-69374151D01*
X6169412Y-69301176D01*
X6039578Y-69196269D01*
X5726753Y-69151776D01*
X5721177Y-69151764D01*
X5406456Y-69108486D01*
X5272976Y-69004211D01*
X5272941Y-69002353D01*
X5147802Y-68880958D01*
X4974118Y-68852941D01*
X4731329Y-68790371D01*
X4675294Y-68703529D01*
X4554006Y-68571615D01*
X4447245Y-68554117D01*
X4211660Y-68447846D01*
X3868289Y-68178339D01*
X3491093Y-67819561D01*
X3154035Y-67445472D01*
X2931078Y-67130037D01*
X2882353Y-66989226D01*
X2802888Y-66787883D01*
X2732941Y-66761176D01*
X2611547Y-66636036D01*
X2583530Y-66462353D01*
X2520960Y-66219563D01*
X2434118Y-66163529D01*
X2312723Y-66038389D01*
X2284706Y-65864706D01*
X2222136Y-65621916D01*
X2135294Y-65565882D01*
X2061302Y-65426089D01*
X2009306Y-65044436D01*
X1986381Y-64477516D01*
X1985883Y-64370588D01*
X2003357Y-63778649D01*
X2051063Y-63362681D01*
X2121928Y-63179278D01*
X2135294Y-63175294D01*
X2240201Y-63045460D01*
X2284695Y-62732635D01*
X2284706Y-62727058D01*
X2327984Y-62412338D01*
X2432259Y-62278858D01*
X2434118Y-62278823D01*
X2539025Y-62148989D01*
X2583518Y-61836164D01*
X2583530Y-61830588D01*
X2626808Y-61515867D01*
X2731082Y-61382387D01*
X2732941Y-61382353D01*
X2854336Y-61257213D01*
X2882353Y-61083529D01*
X2944923Y-60840740D01*
X3031765Y-60784706D01*
X3136672Y-60654871D01*
X3181165Y-60342047D01*
X3181177Y-60336470D01*
X3224455Y-60021750D01*
X3328730Y-59888269D01*
X3330588Y-59888235D01*
X3451983Y-59763095D01*
X3480000Y-59589411D01*
X3542570Y-59346622D01*
X3629412Y-59290588D01*
X3750807Y-59165448D01*
X3778824Y-58991764D01*
X3841394Y-58748975D01*
X3928235Y-58692941D01*
X4033142Y-58563107D01*
X4077636Y-58250282D01*
X4077647Y-58244706D01*
X4120925Y-57929985D01*
X4225200Y-57796505D01*
X4227059Y-57796470D01*
X4348454Y-57671331D01*
X4376471Y-57497647D01*
X4439041Y-57254857D01*
X4525883Y-57198823D01*
X4605468Y-57062730D01*
X4659424Y-56707207D01*
X4675294Y-56302353D01*
X4697976Y-55824841D01*
X4757230Y-55501105D01*
X4824706Y-55405882D01*
X4909937Y-55271505D01*
X4964035Y-54927925D01*
X4974118Y-54658823D01*
X5000993Y-54232669D01*
X5069709Y-53962179D01*
X5123530Y-53911764D01*
X5217092Y-53779214D01*
X5269131Y-53448085D01*
X5272941Y-53314117D01*
X5306079Y-52939869D01*
X5388861Y-52731710D01*
X5422353Y-52716470D01*
X5515915Y-52583919D01*
X5567955Y-52252791D01*
X5571765Y-52118823D01*
X5604903Y-51744575D01*
X5687685Y-51536416D01*
X5721177Y-51521176D01*
X5826083Y-51391342D01*
X5870577Y-51078517D01*
X5870588Y-51072941D01*
X5913866Y-50758220D01*
X6018141Y-50624740D01*
X6020000Y-50624706D01*
X6096645Y-50486512D01*
X6149605Y-50116125D01*
X6169412Y-49579838D01*
X6169412Y-49578823D01*
X6189154Y-49042311D01*
X6242066Y-48671586D01*
X6318679Y-48532941D01*
X6318824Y-48532941D01*
X6423731Y-48403107D01*
X6468224Y-48090282D01*
X6468235Y-48084706D01*
X6511513Y-47769985D01*
X6615788Y-47636505D01*
X6617647Y-47636470D01*
X6743699Y-47512916D01*
X6767059Y-47370631D01*
X6879789Y-47081763D01*
X7065882Y-46889411D01*
X7299259Y-46620916D01*
X7364706Y-46408192D01*
X7434148Y-46183916D01*
X7514118Y-46142353D01*
X7599349Y-46007976D01*
X7653447Y-45664396D01*
X7663530Y-45395294D01*
X7690405Y-44969139D01*
X7759121Y-44698650D01*
X7812941Y-44648235D01*
X7934336Y-44523095D01*
X7962353Y-44349411D01*
X8024923Y-44106622D01*
X8111765Y-44050588D01*
X8233159Y-43925448D01*
X8261177Y-43751764D01*
X8323746Y-43508975D01*
X8410588Y-43452941D01*
X8490174Y-43316848D01*
X8544130Y-42961325D01*
X8560000Y-42556470D01*
X8582682Y-42078959D01*
X8641936Y-41755222D01*
X8709412Y-41660000D01*
X8830807Y-41534860D01*
X8858824Y-41361176D01*
X8921394Y-41118387D01*
X9008235Y-41062353D01*
X9113142Y-40932518D01*
X9157636Y-40619694D01*
X9157647Y-40614117D01*
X9200925Y-40299397D01*
X9305200Y-40165916D01*
X9307059Y-40165882D01*
X9383704Y-40027688D01*
X9436664Y-39657301D01*
X9456471Y-39121014D01*
X9456471Y-39120000D01*
X9476213Y-38583487D01*
X9529125Y-38212762D01*
X9605738Y-38074118D01*
X9605883Y-38074117D01*
X9736867Y-37952444D01*
X9755294Y-37840299D01*
X9856581Y-37624449D01*
X10122352Y-37281683D01*
X10495471Y-36885536D01*
X10502353Y-36878823D01*
X10875985Y-36487791D01*
X11143889Y-36155701D01*
X11249347Y-35953046D01*
X11249412Y-35950331D01*
X11360066Y-35714854D01*
X11548235Y-35534117D01*
X11781612Y-35265622D01*
X11847059Y-35052898D01*
X11916501Y-34828622D01*
X11996471Y-34787058D01*
X12127133Y-34665255D01*
X12145883Y-34551227D01*
X12247533Y-34322396D01*
X12508893Y-33985659D01*
X12743530Y-33741176D01*
X13075928Y-33381697D01*
X13292915Y-33070083D01*
X13341177Y-32931125D01*
X13418346Y-32724888D01*
X13490588Y-32695294D01*
X13595495Y-32565460D01*
X13639989Y-32252635D01*
X13640000Y-32247058D01*
X13705481Y-31893147D01*
X13866885Y-31798823D01*
X14065037Y-31697536D01*
X14400785Y-31432738D01*
X14813744Y-31063026D01*
X15243532Y-30646994D01*
X15629767Y-30243239D01*
X15912065Y-29910357D01*
X16030044Y-29706943D01*
X16030588Y-29699153D01*
X16144460Y-29442236D01*
X16394992Y-29200798D01*
X16621495Y-29109411D01*
X16830734Y-29003292D01*
X17150787Y-28734434D01*
X17510444Y-28377084D01*
X17838497Y-28005490D01*
X18063734Y-27693900D01*
X18122353Y-27544520D01*
X18201818Y-27343177D01*
X18271765Y-27316470D01*
X18397816Y-27192916D01*
X18421177Y-27050631D01*
X18533907Y-26761763D01*
X18720000Y-26569411D01*
X18953377Y-26300916D01*
X19018824Y-26088192D01*
X19088266Y-25863916D01*
X19168235Y-25822353D01*
X19244880Y-25684159D01*
X19297841Y-25313772D01*
X19317647Y-24777485D01*
X19317647Y-24776470D01*
X19337389Y-24239958D01*
X19390302Y-23869233D01*
X19466914Y-23730588D01*
X19467059Y-23730588D01*
X19560621Y-23598037D01*
X19612661Y-23266909D01*
X19616471Y-23132941D01*
X19583333Y-22758693D01*
X19500551Y-22550533D01*
X19467059Y-22535294D01*
X19381828Y-22400917D01*
X19327730Y-22057337D01*
X19317647Y-21788235D01*
X19290772Y-21362080D01*
X19222056Y-21091591D01*
X19168235Y-21041176D01*
X19074673Y-20908625D01*
X19022634Y-20577497D01*
X19018824Y-20443529D01*
X18985686Y-20069281D01*
X18902904Y-19861122D01*
X18869412Y-19845882D01*
X18764505Y-19716048D01*
X18720012Y-19403223D01*
X18720000Y-19397647D01*
X18676722Y-19082926D01*
X18572447Y-18949446D01*
X18570588Y-18949411D01*
X18477026Y-18816861D01*
X18424987Y-18485733D01*
X18421177Y-18351764D01*
X18388039Y-17977516D01*
X18305257Y-17769357D01*
X18271765Y-17754117D01*
X18166858Y-17624283D01*
X18122365Y-17311459D01*
X18122353Y-17305882D01*
X18079075Y-16991161D01*
X17974800Y-16857681D01*
X17972941Y-16857647D01*
X17879379Y-16725096D01*
X17827339Y-16393968D01*
X17823530Y-16260000D01*
X17790392Y-15885751D01*
X17707610Y-15677592D01*
X17674118Y-15662353D01*
X17552723Y-15537213D01*
X17524706Y-15363529D01*
X17462136Y-15120740D01*
X17375294Y-15064706D01*
X17270387Y-14934871D01*
X17225894Y-14622047D01*
X17225883Y-14616470D01*
X17182604Y-14301750D01*
X17078330Y-14168269D01*
X17076471Y-14168235D01*
X16982909Y-14035684D01*
X16930869Y-13704556D01*
X16927059Y-13570588D01*
X16893921Y-13196340D01*
X16811139Y-12988181D01*
X16777647Y-12972941D01*
X16684085Y-12840390D01*
X16632045Y-12509262D01*
X16628235Y-12375294D01*
X16595098Y-12001046D01*
X16512316Y-11792886D01*
X16478824Y-11777647D01*
X16373917Y-11647813D01*
X16329423Y-11334988D01*
X16329412Y-11329411D01*
X16286134Y-11014691D01*
X16181859Y-10881211D01*
X16180000Y-10881176D01*
X16094769Y-10746799D01*
X16040671Y-10403219D01*
X16030588Y-10134117D01*
X16003713Y-9707963D01*
X15934997Y-9437473D01*
X15881177Y-9387058D01*
X15795946Y-9252682D01*
X15741848Y-8909102D01*
X15731765Y-8640000D01*
X15704889Y-8213845D01*
X15636173Y-7943356D01*
X15582353Y-7892941D01*
X15477446Y-7763107D01*
X15432953Y-7450282D01*
X15432941Y-7444706D01*
X15389663Y-7129985D01*
X15285388Y-6996505D01*
X15283530Y-6996470D01*
X15203944Y-6860377D01*
X15149988Y-6504854D01*
X15134118Y-6100000D01*
X15111436Y-5622488D01*
X15052182Y-5298752D01*
X14984706Y-5203529D01*
X14891144Y-5070978D01*
X14839104Y-4739850D01*
X14835294Y-4605882D01*
X14802157Y-4231634D01*
X14719375Y-4023475D01*
X14685883Y-4008235D01*
X14609238Y-3870041D01*
X14556277Y-3499654D01*
X14536471Y-2963367D01*
X14536471Y-2962353D01*
X14516729Y-2425840D01*
X14463816Y-2055115D01*
X14387204Y-1916471D01*
X14387059Y-1916470D01*
X14293497Y-1783919D01*
X14241457Y-1452791D01*
X14237647Y-1318823D01*
X14204510Y-944575D01*
X14121727Y-736416D01*
X14088235Y-721176D01*
X14008650Y-585083D01*
X13954694Y-229560D01*
X13938824Y175294D01*
X13916141Y652806D01*
X13856888Y976542D01*
X13789412Y1071765D01*
X13704181Y1206142D01*
X13650083Y1549722D01*
X13640000Y1818824D01*
X13613125Y2244979D01*
X13544409Y2515468D01*
X13490588Y2565883D01*
X13411003Y2701976D01*
X13357047Y3057499D01*
X13341177Y3462353D01*
X13318494Y3939865D01*
X13259241Y4263601D01*
X13191765Y4358824D01*
X13098203Y4491375D01*
X13046163Y4822503D01*
X13042353Y4956471D01*
X13009215Y5330719D01*
X12926433Y5538878D01*
X12892941Y5554118D01*
X12827356Y5697666D01*
X12778831Y6105530D01*
X12750214Y6743540D01*
X12743530Y7347059D01*
X12755492Y8134089D01*
X12789481Y8716386D01*
X12842648Y9059782D01*
X12892941Y9140000D01*
X13004108Y9268183D01*
X13042353Y9524202D01*
X13087079Y9873520D01*
X13251505Y10108683D01*
X13581003Y10250281D01*
X14120944Y10318906D01*
X14829602Y10335294D01*
X15475087Y10331343D01*
%TD*%
M02*
