%TF.GenerationSoftware,KiCad,Pcbnew,(5.1.10)-1*%
%TF.CreationDate,2021-11-01T22:44:31-04:00*%
%TF.ProjectId,PCB coil,50434220-636f-4696-9c2e-6b696361645f,rev?*%
%TF.SameCoordinates,Original*%
%TF.FileFunction,Paste,Top*%
%TF.FilePolarity,Positive*%
%FSLAX46Y46*%
G04 Gerber Fmt 4.6, Leading zero omitted, Abs format (unit mm)*
G04 Created by KiCad (PCBNEW (5.1.10)-1) date 2021-11-01 22:44:31*
%MOMM*%
%LPD*%
G01*
G04 APERTURE LIST*
G04 APERTURE END LIST*
%TO.C,REF\u002A\u002A*%
G36*
G01*
X45750000Y-32900000D02*
X44250000Y-32900000D01*
G75*
G02*
X44000000Y-32650000I0J250000D01*
G01*
X44000000Y-32150000D01*
G75*
G02*
X44250000Y-31900000I250000J0D01*
G01*
X45750000Y-31900000D01*
G75*
G02*
X46000000Y-32150000I0J-250000D01*
G01*
X46000000Y-32650000D01*
G75*
G02*
X45750000Y-32900000I-250000J0D01*
G01*
G37*
%TD*%
%TO.C,REF\u002A\u002A*%
G36*
G01*
X30650000Y-32900000D02*
X29150000Y-32900000D01*
G75*
G02*
X28900000Y-32650000I0J250000D01*
G01*
X28900000Y-32150000D01*
G75*
G02*
X29150000Y-31900000I250000J0D01*
G01*
X30650000Y-31900000D01*
G75*
G02*
X30900000Y-32150000I0J-250000D01*
G01*
X30900000Y-32650000D01*
G75*
G02*
X30650000Y-32900000I-250000J0D01*
G01*
G37*
%TD*%
%TO.C,REF\u002A\u002A*%
G36*
G01*
X24250000Y-32900000D02*
X22750000Y-32900000D01*
G75*
G02*
X22500000Y-32650000I0J250000D01*
G01*
X22500000Y-32150000D01*
G75*
G02*
X22750000Y-31900000I250000J0D01*
G01*
X24250000Y-31900000D01*
G75*
G02*
X24500000Y-32150000I0J-250000D01*
G01*
X24500000Y-32650000D01*
G75*
G02*
X24250000Y-32900000I-250000J0D01*
G01*
G37*
%TD*%
%TO.C,REF\u002A\u002A*%
G36*
G01*
X5525000Y-54150000D02*
X5525000Y-53650000D01*
G75*
G02*
X5750000Y-53425000I225000J0D01*
G01*
X6200000Y-53425000D01*
G75*
G02*
X6425000Y-53650000I0J-225000D01*
G01*
X6425000Y-54150000D01*
G75*
G02*
X6200000Y-54375000I-225000J0D01*
G01*
X5750000Y-54375000D01*
G75*
G02*
X5525000Y-54150000I0J225000D01*
G01*
G37*
G36*
G01*
X3975000Y-54150000D02*
X3975000Y-53650000D01*
G75*
G02*
X4200000Y-53425000I225000J0D01*
G01*
X4650000Y-53425000D01*
G75*
G02*
X4875000Y-53650000I0J-225000D01*
G01*
X4875000Y-54150000D01*
G75*
G02*
X4650000Y-54375000I-225000J0D01*
G01*
X4200000Y-54375000D01*
G75*
G02*
X3975000Y-54150000I0J225000D01*
G01*
G37*
%TD*%
%TO.C,REF\u002A\u002A*%
G36*
G01*
X67250000Y-32900000D02*
X65750000Y-32900000D01*
G75*
G02*
X65500000Y-32650000I0J250000D01*
G01*
X65500000Y-32150000D01*
G75*
G02*
X65750000Y-31900000I250000J0D01*
G01*
X67250000Y-31900000D01*
G75*
G02*
X67500000Y-32150000I0J-250000D01*
G01*
X67500000Y-32650000D01*
G75*
G02*
X67250000Y-32900000I-250000J0D01*
G01*
G37*
%TD*%
%TO.C,REF\u002A\u002A*%
G36*
G01*
X2750000Y-54400000D02*
X1250000Y-54400000D01*
G75*
G02*
X1000000Y-54150000I0J250000D01*
G01*
X1000000Y-53650000D01*
G75*
G02*
X1250000Y-53400000I250000J0D01*
G01*
X2750000Y-53400000D01*
G75*
G02*
X3000000Y-53650000I0J-250000D01*
G01*
X3000000Y-54150000D01*
G75*
G02*
X2750000Y-54400000I-250000J0D01*
G01*
G37*
%TD*%
%TO.C,REF\u002A\u002A*%
G36*
G01*
X48525000Y-32650000D02*
X48525000Y-32150000D01*
G75*
G02*
X48750000Y-31925000I225000J0D01*
G01*
X49200000Y-31925000D01*
G75*
G02*
X49425000Y-32150000I0J-225000D01*
G01*
X49425000Y-32650000D01*
G75*
G02*
X49200000Y-32875000I-225000J0D01*
G01*
X48750000Y-32875000D01*
G75*
G02*
X48525000Y-32650000I0J225000D01*
G01*
G37*
G36*
G01*
X46975000Y-32650000D02*
X46975000Y-32150000D01*
G75*
G02*
X47200000Y-31925000I225000J0D01*
G01*
X47650000Y-31925000D01*
G75*
G02*
X47875000Y-32150000I0J-225000D01*
G01*
X47875000Y-32650000D01*
G75*
G02*
X47650000Y-32875000I-225000J0D01*
G01*
X47200000Y-32875000D01*
G75*
G02*
X46975000Y-32650000I0J225000D01*
G01*
G37*
%TD*%
%TO.C,REF\u002A\u002A*%
G36*
G01*
X68475000Y-32650000D02*
X68475000Y-32150000D01*
G75*
G02*
X68700000Y-31925000I225000J0D01*
G01*
X69150000Y-31925000D01*
G75*
G02*
X69375000Y-32150000I0J-225000D01*
G01*
X69375000Y-32650000D01*
G75*
G02*
X69150000Y-32875000I-225000J0D01*
G01*
X68700000Y-32875000D01*
G75*
G02*
X68475000Y-32650000I0J225000D01*
G01*
G37*
G36*
G01*
X70025000Y-32650000D02*
X70025000Y-32150000D01*
G75*
G02*
X70250000Y-31925000I225000J0D01*
G01*
X70700000Y-31925000D01*
G75*
G02*
X70925000Y-32150000I0J-225000D01*
G01*
X70925000Y-32650000D01*
G75*
G02*
X70700000Y-32875000I-225000J0D01*
G01*
X70250000Y-32875000D01*
G75*
G02*
X70025000Y-32650000I0J225000D01*
G01*
G37*
%TD*%
%TO.C,REF\u002A\u002A*%
G36*
G01*
X25475000Y-54150000D02*
X25475000Y-53650000D01*
G75*
G02*
X25700000Y-53425000I225000J0D01*
G01*
X26150000Y-53425000D01*
G75*
G02*
X26375000Y-53650000I0J-225000D01*
G01*
X26375000Y-54150000D01*
G75*
G02*
X26150000Y-54375000I-225000J0D01*
G01*
X25700000Y-54375000D01*
G75*
G02*
X25475000Y-54150000I0J225000D01*
G01*
G37*
G36*
G01*
X27025000Y-54150000D02*
X27025000Y-53650000D01*
G75*
G02*
X27250000Y-53425000I225000J0D01*
G01*
X27700000Y-53425000D01*
G75*
G02*
X27925000Y-53650000I0J-225000D01*
G01*
X27925000Y-54150000D01*
G75*
G02*
X27700000Y-54375000I-225000J0D01*
G01*
X27250000Y-54375000D01*
G75*
G02*
X27025000Y-54150000I0J225000D01*
G01*
G37*
%TD*%
%TO.C,REF\u002A\u002A*%
G36*
G01*
X73650000Y-32900000D02*
X72150000Y-32900000D01*
G75*
G02*
X71900000Y-32650000I0J250000D01*
G01*
X71900000Y-32150000D01*
G75*
G02*
X72150000Y-31900000I250000J0D01*
G01*
X73650000Y-31900000D01*
G75*
G02*
X73900000Y-32150000I0J-250000D01*
G01*
X73900000Y-32650000D01*
G75*
G02*
X73650000Y-32900000I-250000J0D01*
G01*
G37*
%TD*%
%TO.C,REF\u002A\u002A*%
G36*
G01*
X52150000Y-32900000D02*
X50650000Y-32900000D01*
G75*
G02*
X50400000Y-32650000I0J250000D01*
G01*
X50400000Y-32150000D01*
G75*
G02*
X50650000Y-31900000I250000J0D01*
G01*
X52150000Y-31900000D01*
G75*
G02*
X52400000Y-32150000I0J-250000D01*
G01*
X52400000Y-32650000D01*
G75*
G02*
X52150000Y-32900000I-250000J0D01*
G01*
G37*
%TD*%
%TO.C,REF\u002A\u002A*%
G36*
G01*
X67250000Y-54400000D02*
X65750000Y-54400000D01*
G75*
G02*
X65500000Y-54150000I0J250000D01*
G01*
X65500000Y-53650000D01*
G75*
G02*
X65750000Y-53400000I250000J0D01*
G01*
X67250000Y-53400000D01*
G75*
G02*
X67500000Y-53650000I0J-250000D01*
G01*
X67500000Y-54150000D01*
G75*
G02*
X67250000Y-54400000I-250000J0D01*
G01*
G37*
%TD*%
%TO.C,REF\u002A\u002A*%
G36*
G01*
X73650000Y-54400000D02*
X72150000Y-54400000D01*
G75*
G02*
X71900000Y-54150000I0J250000D01*
G01*
X71900000Y-53650000D01*
G75*
G02*
X72150000Y-53400000I250000J0D01*
G01*
X73650000Y-53400000D01*
G75*
G02*
X73900000Y-53650000I0J-250000D01*
G01*
X73900000Y-54150000D01*
G75*
G02*
X73650000Y-54400000I-250000J0D01*
G01*
G37*
%TD*%
%TO.C,REF\u002A\u002A*%
G36*
G01*
X30650000Y-54400000D02*
X29150000Y-54400000D01*
G75*
G02*
X28900000Y-54150000I0J250000D01*
G01*
X28900000Y-53650000D01*
G75*
G02*
X29150000Y-53400000I250000J0D01*
G01*
X30650000Y-53400000D01*
G75*
G02*
X30900000Y-53650000I0J-250000D01*
G01*
X30900000Y-54150000D01*
G75*
G02*
X30650000Y-54400000I-250000J0D01*
G01*
G37*
%TD*%
%TO.C,REF\u002A\u002A*%
G36*
G01*
X46975000Y-54150000D02*
X46975000Y-53650000D01*
G75*
G02*
X47200000Y-53425000I225000J0D01*
G01*
X47650000Y-53425000D01*
G75*
G02*
X47875000Y-53650000I0J-225000D01*
G01*
X47875000Y-54150000D01*
G75*
G02*
X47650000Y-54375000I-225000J0D01*
G01*
X47200000Y-54375000D01*
G75*
G02*
X46975000Y-54150000I0J225000D01*
G01*
G37*
G36*
G01*
X48525000Y-54150000D02*
X48525000Y-53650000D01*
G75*
G02*
X48750000Y-53425000I225000J0D01*
G01*
X49200000Y-53425000D01*
G75*
G02*
X49425000Y-53650000I0J-225000D01*
G01*
X49425000Y-54150000D01*
G75*
G02*
X49200000Y-54375000I-225000J0D01*
G01*
X48750000Y-54375000D01*
G75*
G02*
X48525000Y-54150000I0J225000D01*
G01*
G37*
%TD*%
%TO.C,REF\u002A\u002A*%
G36*
G01*
X24250000Y-54400000D02*
X22750000Y-54400000D01*
G75*
G02*
X22500000Y-54150000I0J250000D01*
G01*
X22500000Y-53650000D01*
G75*
G02*
X22750000Y-53400000I250000J0D01*
G01*
X24250000Y-53400000D01*
G75*
G02*
X24500000Y-53650000I0J-250000D01*
G01*
X24500000Y-54150000D01*
G75*
G02*
X24250000Y-54400000I-250000J0D01*
G01*
G37*
%TD*%
%TO.C,REF\u002A\u002A*%
G36*
G01*
X70025000Y-54150000D02*
X70025000Y-53650000D01*
G75*
G02*
X70250000Y-53425000I225000J0D01*
G01*
X70700000Y-53425000D01*
G75*
G02*
X70925000Y-53650000I0J-225000D01*
G01*
X70925000Y-54150000D01*
G75*
G02*
X70700000Y-54375000I-225000J0D01*
G01*
X70250000Y-54375000D01*
G75*
G02*
X70025000Y-54150000I0J225000D01*
G01*
G37*
G36*
G01*
X68475000Y-54150000D02*
X68475000Y-53650000D01*
G75*
G02*
X68700000Y-53425000I225000J0D01*
G01*
X69150000Y-53425000D01*
G75*
G02*
X69375000Y-53650000I0J-225000D01*
G01*
X69375000Y-54150000D01*
G75*
G02*
X69150000Y-54375000I-225000J0D01*
G01*
X68700000Y-54375000D01*
G75*
G02*
X68475000Y-54150000I0J225000D01*
G01*
G37*
%TD*%
%TO.C,REF\u002A\u002A*%
G36*
G01*
X45750000Y-54400000D02*
X44250000Y-54400000D01*
G75*
G02*
X44000000Y-54150000I0J250000D01*
G01*
X44000000Y-53650000D01*
G75*
G02*
X44250000Y-53400000I250000J0D01*
G01*
X45750000Y-53400000D01*
G75*
G02*
X46000000Y-53650000I0J-250000D01*
G01*
X46000000Y-54150000D01*
G75*
G02*
X45750000Y-54400000I-250000J0D01*
G01*
G37*
%TD*%
%TO.C,REF\u002A\u002A*%
G36*
G01*
X52150000Y-54400000D02*
X50650000Y-54400000D01*
G75*
G02*
X50400000Y-54150000I0J250000D01*
G01*
X50400000Y-53650000D01*
G75*
G02*
X50650000Y-53400000I250000J0D01*
G01*
X52150000Y-53400000D01*
G75*
G02*
X52400000Y-53650000I0J-250000D01*
G01*
X52400000Y-54150000D01*
G75*
G02*
X52150000Y-54400000I-250000J0D01*
G01*
G37*
%TD*%
%TO.C,REF\u002A\u002A*%
G36*
G01*
X9150000Y-54400000D02*
X7650000Y-54400000D01*
G75*
G02*
X7400000Y-54150000I0J250000D01*
G01*
X7400000Y-53650000D01*
G75*
G02*
X7650000Y-53400000I250000J0D01*
G01*
X9150000Y-53400000D01*
G75*
G02*
X9400000Y-53650000I0J-250000D01*
G01*
X9400000Y-54150000D01*
G75*
G02*
X9150000Y-54400000I-250000J0D01*
G01*
G37*
%TD*%
%TO.C,REF\u002A\u002A*%
G36*
G01*
X9150000Y-32900000D02*
X7650000Y-32900000D01*
G75*
G02*
X7400000Y-32650000I0J250000D01*
G01*
X7400000Y-32150000D01*
G75*
G02*
X7650000Y-31900000I250000J0D01*
G01*
X9150000Y-31900000D01*
G75*
G02*
X9400000Y-32150000I0J-250000D01*
G01*
X9400000Y-32650000D01*
G75*
G02*
X9150000Y-32900000I-250000J0D01*
G01*
G37*
%TD*%
%TO.C,REF\u002A\u002A*%
G36*
G01*
X2750000Y-32900000D02*
X1250000Y-32900000D01*
G75*
G02*
X1000000Y-32650000I0J250000D01*
G01*
X1000000Y-32150000D01*
G75*
G02*
X1250000Y-31900000I250000J0D01*
G01*
X2750000Y-31900000D01*
G75*
G02*
X3000000Y-32150000I0J-250000D01*
G01*
X3000000Y-32650000D01*
G75*
G02*
X2750000Y-32900000I-250000J0D01*
G01*
G37*
%TD*%
%TO.C,REF\u002A\u002A*%
G36*
G01*
X3975000Y-32650000D02*
X3975000Y-32150000D01*
G75*
G02*
X4200000Y-31925000I225000J0D01*
G01*
X4650000Y-31925000D01*
G75*
G02*
X4875000Y-32150000I0J-225000D01*
G01*
X4875000Y-32650000D01*
G75*
G02*
X4650000Y-32875000I-225000J0D01*
G01*
X4200000Y-32875000D01*
G75*
G02*
X3975000Y-32650000I0J225000D01*
G01*
G37*
G36*
G01*
X5525000Y-32650000D02*
X5525000Y-32150000D01*
G75*
G02*
X5750000Y-31925000I225000J0D01*
G01*
X6200000Y-31925000D01*
G75*
G02*
X6425000Y-32150000I0J-225000D01*
G01*
X6425000Y-32650000D01*
G75*
G02*
X6200000Y-32875000I-225000J0D01*
G01*
X5750000Y-32875000D01*
G75*
G02*
X5525000Y-32650000I0J225000D01*
G01*
G37*
%TD*%
%TO.C,REF\u002A\u002A*%
G36*
G01*
X27025000Y-32650000D02*
X27025000Y-32150000D01*
G75*
G02*
X27250000Y-31925000I225000J0D01*
G01*
X27700000Y-31925000D01*
G75*
G02*
X27925000Y-32150000I0J-225000D01*
G01*
X27925000Y-32650000D01*
G75*
G02*
X27700000Y-32875000I-225000J0D01*
G01*
X27250000Y-32875000D01*
G75*
G02*
X27025000Y-32650000I0J225000D01*
G01*
G37*
G36*
G01*
X25475000Y-32650000D02*
X25475000Y-32150000D01*
G75*
G02*
X25700000Y-31925000I225000J0D01*
G01*
X26150000Y-31925000D01*
G75*
G02*
X26375000Y-32150000I0J-225000D01*
G01*
X26375000Y-32650000D01*
G75*
G02*
X26150000Y-32875000I-225000J0D01*
G01*
X25700000Y-32875000D01*
G75*
G02*
X25475000Y-32650000I0J225000D01*
G01*
G37*
%TD*%
%TO.C,REF\u002A\u002A*%
G36*
G01*
X45750000Y-11400000D02*
X44250000Y-11400000D01*
G75*
G02*
X44000000Y-11150000I0J250000D01*
G01*
X44000000Y-10650000D01*
G75*
G02*
X44250000Y-10400000I250000J0D01*
G01*
X45750000Y-10400000D01*
G75*
G02*
X46000000Y-10650000I0J-250000D01*
G01*
X46000000Y-11150000D01*
G75*
G02*
X45750000Y-11400000I-250000J0D01*
G01*
G37*
%TD*%
%TO.C,REF\u002A\u002A*%
G36*
G01*
X30650000Y-11400000D02*
X29150000Y-11400000D01*
G75*
G02*
X28900000Y-11150000I0J250000D01*
G01*
X28900000Y-10650000D01*
G75*
G02*
X29150000Y-10400000I250000J0D01*
G01*
X30650000Y-10400000D01*
G75*
G02*
X30900000Y-10650000I0J-250000D01*
G01*
X30900000Y-11150000D01*
G75*
G02*
X30650000Y-11400000I-250000J0D01*
G01*
G37*
%TD*%
%TO.C,REF\u002A\u002A*%
G36*
G01*
X24250000Y-11400000D02*
X22750000Y-11400000D01*
G75*
G02*
X22500000Y-11150000I0J250000D01*
G01*
X22500000Y-10650000D01*
G75*
G02*
X22750000Y-10400000I250000J0D01*
G01*
X24250000Y-10400000D01*
G75*
G02*
X24500000Y-10650000I0J-250000D01*
G01*
X24500000Y-11150000D01*
G75*
G02*
X24250000Y-11400000I-250000J0D01*
G01*
G37*
%TD*%
%TO.C,REF\u002A\u002A*%
G36*
G01*
X67250000Y-11400000D02*
X65750000Y-11400000D01*
G75*
G02*
X65500000Y-11150000I0J250000D01*
G01*
X65500000Y-10650000D01*
G75*
G02*
X65750000Y-10400000I250000J0D01*
G01*
X67250000Y-10400000D01*
G75*
G02*
X67500000Y-10650000I0J-250000D01*
G01*
X67500000Y-11150000D01*
G75*
G02*
X67250000Y-11400000I-250000J0D01*
G01*
G37*
%TD*%
%TO.C,REF\u002A\u002A*%
G36*
G01*
X48525000Y-11150000D02*
X48525000Y-10650000D01*
G75*
G02*
X48750000Y-10425000I225000J0D01*
G01*
X49200000Y-10425000D01*
G75*
G02*
X49425000Y-10650000I0J-225000D01*
G01*
X49425000Y-11150000D01*
G75*
G02*
X49200000Y-11375000I-225000J0D01*
G01*
X48750000Y-11375000D01*
G75*
G02*
X48525000Y-11150000I0J225000D01*
G01*
G37*
G36*
G01*
X46975000Y-11150000D02*
X46975000Y-10650000D01*
G75*
G02*
X47200000Y-10425000I225000J0D01*
G01*
X47650000Y-10425000D01*
G75*
G02*
X47875000Y-10650000I0J-225000D01*
G01*
X47875000Y-11150000D01*
G75*
G02*
X47650000Y-11375000I-225000J0D01*
G01*
X47200000Y-11375000D01*
G75*
G02*
X46975000Y-11150000I0J225000D01*
G01*
G37*
%TD*%
%TO.C,REF\u002A\u002A*%
G36*
G01*
X68475000Y-11150000D02*
X68475000Y-10650000D01*
G75*
G02*
X68700000Y-10425000I225000J0D01*
G01*
X69150000Y-10425000D01*
G75*
G02*
X69375000Y-10650000I0J-225000D01*
G01*
X69375000Y-11150000D01*
G75*
G02*
X69150000Y-11375000I-225000J0D01*
G01*
X68700000Y-11375000D01*
G75*
G02*
X68475000Y-11150000I0J225000D01*
G01*
G37*
G36*
G01*
X70025000Y-11150000D02*
X70025000Y-10650000D01*
G75*
G02*
X70250000Y-10425000I225000J0D01*
G01*
X70700000Y-10425000D01*
G75*
G02*
X70925000Y-10650000I0J-225000D01*
G01*
X70925000Y-11150000D01*
G75*
G02*
X70700000Y-11375000I-225000J0D01*
G01*
X70250000Y-11375000D01*
G75*
G02*
X70025000Y-11150000I0J225000D01*
G01*
G37*
%TD*%
%TO.C,REF\u002A\u002A*%
G36*
G01*
X73650000Y-11400000D02*
X72150000Y-11400000D01*
G75*
G02*
X71900000Y-11150000I0J250000D01*
G01*
X71900000Y-10650000D01*
G75*
G02*
X72150000Y-10400000I250000J0D01*
G01*
X73650000Y-10400000D01*
G75*
G02*
X73900000Y-10650000I0J-250000D01*
G01*
X73900000Y-11150000D01*
G75*
G02*
X73650000Y-11400000I-250000J0D01*
G01*
G37*
%TD*%
%TO.C,REF\u002A\u002A*%
G36*
G01*
X52150000Y-11400000D02*
X50650000Y-11400000D01*
G75*
G02*
X50400000Y-11150000I0J250000D01*
G01*
X50400000Y-10650000D01*
G75*
G02*
X50650000Y-10400000I250000J0D01*
G01*
X52150000Y-10400000D01*
G75*
G02*
X52400000Y-10650000I0J-250000D01*
G01*
X52400000Y-11150000D01*
G75*
G02*
X52150000Y-11400000I-250000J0D01*
G01*
G37*
%TD*%
%TO.C,REF\u002A\u002A*%
G36*
G01*
X9150000Y-11400000D02*
X7650000Y-11400000D01*
G75*
G02*
X7400000Y-11150000I0J250000D01*
G01*
X7400000Y-10650000D01*
G75*
G02*
X7650000Y-10400000I250000J0D01*
G01*
X9150000Y-10400000D01*
G75*
G02*
X9400000Y-10650000I0J-250000D01*
G01*
X9400000Y-11150000D01*
G75*
G02*
X9150000Y-11400000I-250000J0D01*
G01*
G37*
%TD*%
%TO.C,REF\u002A\u002A*%
G36*
G01*
X2750000Y-11400000D02*
X1250000Y-11400000D01*
G75*
G02*
X1000000Y-11150000I0J250000D01*
G01*
X1000000Y-10650000D01*
G75*
G02*
X1250000Y-10400000I250000J0D01*
G01*
X2750000Y-10400000D01*
G75*
G02*
X3000000Y-10650000I0J-250000D01*
G01*
X3000000Y-11150000D01*
G75*
G02*
X2750000Y-11400000I-250000J0D01*
G01*
G37*
%TD*%
%TO.C,REF\u002A\u002A*%
G36*
G01*
X3975000Y-11150000D02*
X3975000Y-10650000D01*
G75*
G02*
X4200000Y-10425000I225000J0D01*
G01*
X4650000Y-10425000D01*
G75*
G02*
X4875000Y-10650000I0J-225000D01*
G01*
X4875000Y-11150000D01*
G75*
G02*
X4650000Y-11375000I-225000J0D01*
G01*
X4200000Y-11375000D01*
G75*
G02*
X3975000Y-11150000I0J225000D01*
G01*
G37*
G36*
G01*
X5525000Y-11150000D02*
X5525000Y-10650000D01*
G75*
G02*
X5750000Y-10425000I225000J0D01*
G01*
X6200000Y-10425000D01*
G75*
G02*
X6425000Y-10650000I0J-225000D01*
G01*
X6425000Y-11150000D01*
G75*
G02*
X6200000Y-11375000I-225000J0D01*
G01*
X5750000Y-11375000D01*
G75*
G02*
X5525000Y-11150000I0J225000D01*
G01*
G37*
%TD*%
%TO.C,REF\u002A\u002A*%
G36*
G01*
X27025000Y-11150000D02*
X27025000Y-10650000D01*
G75*
G02*
X27250000Y-10425000I225000J0D01*
G01*
X27700000Y-10425000D01*
G75*
G02*
X27925000Y-10650000I0J-225000D01*
G01*
X27925000Y-11150000D01*
G75*
G02*
X27700000Y-11375000I-225000J0D01*
G01*
X27250000Y-11375000D01*
G75*
G02*
X27025000Y-11150000I0J225000D01*
G01*
G37*
G36*
G01*
X25475000Y-11150000D02*
X25475000Y-10650000D01*
G75*
G02*
X25700000Y-10425000I225000J0D01*
G01*
X26150000Y-10425000D01*
G75*
G02*
X26375000Y-10650000I0J-225000D01*
G01*
X26375000Y-11150000D01*
G75*
G02*
X26150000Y-11375000I-225000J0D01*
G01*
X25700000Y-11375000D01*
G75*
G02*
X25475000Y-11150000I0J225000D01*
G01*
G37*
%TD*%
%TO.C,REF\u002A\u002A*%
G36*
G01*
X73650000Y10100000D02*
X72150000Y10100000D01*
G75*
G02*
X71900000Y10350000I0J250000D01*
G01*
X71900000Y10850000D01*
G75*
G02*
X72150000Y11100000I250000J0D01*
G01*
X73650000Y11100000D01*
G75*
G02*
X73900000Y10850000I0J-250000D01*
G01*
X73900000Y10350000D01*
G75*
G02*
X73650000Y10100000I-250000J0D01*
G01*
G37*
%TD*%
%TO.C,REF\u002A\u002A*%
G36*
G01*
X67250000Y10100000D02*
X65750000Y10100000D01*
G75*
G02*
X65500000Y10350000I0J250000D01*
G01*
X65500000Y10850000D01*
G75*
G02*
X65750000Y11100000I250000J0D01*
G01*
X67250000Y11100000D01*
G75*
G02*
X67500000Y10850000I0J-250000D01*
G01*
X67500000Y10350000D01*
G75*
G02*
X67250000Y10100000I-250000J0D01*
G01*
G37*
%TD*%
%TO.C,REF\u002A\u002A*%
G36*
G01*
X52150000Y10100000D02*
X50650000Y10100000D01*
G75*
G02*
X50400000Y10350000I0J250000D01*
G01*
X50400000Y10850000D01*
G75*
G02*
X50650000Y11100000I250000J0D01*
G01*
X52150000Y11100000D01*
G75*
G02*
X52400000Y10850000I0J-250000D01*
G01*
X52400000Y10350000D01*
G75*
G02*
X52150000Y10100000I-250000J0D01*
G01*
G37*
%TD*%
%TO.C,REF\u002A\u002A*%
G36*
G01*
X45750000Y10100000D02*
X44250000Y10100000D01*
G75*
G02*
X44000000Y10350000I0J250000D01*
G01*
X44000000Y10850000D01*
G75*
G02*
X44250000Y11100000I250000J0D01*
G01*
X45750000Y11100000D01*
G75*
G02*
X46000000Y10850000I0J-250000D01*
G01*
X46000000Y10350000D01*
G75*
G02*
X45750000Y10100000I-250000J0D01*
G01*
G37*
%TD*%
%TO.C,REF\u002A\u002A*%
G36*
G01*
X46975000Y10350000D02*
X46975000Y10850000D01*
G75*
G02*
X47200000Y11075000I225000J0D01*
G01*
X47650000Y11075000D01*
G75*
G02*
X47875000Y10850000I0J-225000D01*
G01*
X47875000Y10350000D01*
G75*
G02*
X47650000Y10125000I-225000J0D01*
G01*
X47200000Y10125000D01*
G75*
G02*
X46975000Y10350000I0J225000D01*
G01*
G37*
G36*
G01*
X48525000Y10350000D02*
X48525000Y10850000D01*
G75*
G02*
X48750000Y11075000I225000J0D01*
G01*
X49200000Y11075000D01*
G75*
G02*
X49425000Y10850000I0J-225000D01*
G01*
X49425000Y10350000D01*
G75*
G02*
X49200000Y10125000I-225000J0D01*
G01*
X48750000Y10125000D01*
G75*
G02*
X48525000Y10350000I0J225000D01*
G01*
G37*
%TD*%
%TO.C,REF\u002A\u002A*%
G36*
G01*
X70025000Y10350000D02*
X70025000Y10850000D01*
G75*
G02*
X70250000Y11075000I225000J0D01*
G01*
X70700000Y11075000D01*
G75*
G02*
X70925000Y10850000I0J-225000D01*
G01*
X70925000Y10350000D01*
G75*
G02*
X70700000Y10125000I-225000J0D01*
G01*
X70250000Y10125000D01*
G75*
G02*
X70025000Y10350000I0J225000D01*
G01*
G37*
G36*
G01*
X68475000Y10350000D02*
X68475000Y10850000D01*
G75*
G02*
X68700000Y11075000I225000J0D01*
G01*
X69150000Y11075000D01*
G75*
G02*
X69375000Y10850000I0J-225000D01*
G01*
X69375000Y10350000D01*
G75*
G02*
X69150000Y10125000I-225000J0D01*
G01*
X68700000Y10125000D01*
G75*
G02*
X68475000Y10350000I0J225000D01*
G01*
G37*
%TD*%
%TO.C,REF\u002A\u002A*%
G36*
G01*
X30650000Y10100000D02*
X29150000Y10100000D01*
G75*
G02*
X28900000Y10350000I0J250000D01*
G01*
X28900000Y10850000D01*
G75*
G02*
X29150000Y11100000I250000J0D01*
G01*
X30650000Y11100000D01*
G75*
G02*
X30900000Y10850000I0J-250000D01*
G01*
X30900000Y10350000D01*
G75*
G02*
X30650000Y10100000I-250000J0D01*
G01*
G37*
%TD*%
%TO.C,REF\u002A\u002A*%
G36*
G01*
X24250000Y10100000D02*
X22750000Y10100000D01*
G75*
G02*
X22500000Y10350000I0J250000D01*
G01*
X22500000Y10850000D01*
G75*
G02*
X22750000Y11100000I250000J0D01*
G01*
X24250000Y11100000D01*
G75*
G02*
X24500000Y10850000I0J-250000D01*
G01*
X24500000Y10350000D01*
G75*
G02*
X24250000Y10100000I-250000J0D01*
G01*
G37*
%TD*%
%TO.C,REF\u002A\u002A*%
G36*
G01*
X25475000Y10350000D02*
X25475000Y10850000D01*
G75*
G02*
X25700000Y11075000I225000J0D01*
G01*
X26150000Y11075000D01*
G75*
G02*
X26375000Y10850000I0J-225000D01*
G01*
X26375000Y10350000D01*
G75*
G02*
X26150000Y10125000I-225000J0D01*
G01*
X25700000Y10125000D01*
G75*
G02*
X25475000Y10350000I0J225000D01*
G01*
G37*
G36*
G01*
X27025000Y10350000D02*
X27025000Y10850000D01*
G75*
G02*
X27250000Y11075000I225000J0D01*
G01*
X27700000Y11075000D01*
G75*
G02*
X27925000Y10850000I0J-225000D01*
G01*
X27925000Y10350000D01*
G75*
G02*
X27700000Y10125000I-225000J0D01*
G01*
X27250000Y10125000D01*
G75*
G02*
X27025000Y10350000I0J225000D01*
G01*
G37*
%TD*%
%TO.C,REF\u002A\u002A*%
G36*
G01*
X5525000Y10350000D02*
X5525000Y10850000D01*
G75*
G02*
X5750000Y11075000I225000J0D01*
G01*
X6200000Y11075000D01*
G75*
G02*
X6425000Y10850000I0J-225000D01*
G01*
X6425000Y10350000D01*
G75*
G02*
X6200000Y10125000I-225000J0D01*
G01*
X5750000Y10125000D01*
G75*
G02*
X5525000Y10350000I0J225000D01*
G01*
G37*
G36*
G01*
X3975000Y10350000D02*
X3975000Y10850000D01*
G75*
G02*
X4200000Y11075000I225000J0D01*
G01*
X4650000Y11075000D01*
G75*
G02*
X4875000Y10850000I0J-225000D01*
G01*
X4875000Y10350000D01*
G75*
G02*
X4650000Y10125000I-225000J0D01*
G01*
X4200000Y10125000D01*
G75*
G02*
X3975000Y10350000I0J225000D01*
G01*
G37*
%TD*%
%TO.C,REF\u002A\u002A*%
G36*
G01*
X2750000Y10100000D02*
X1250000Y10100000D01*
G75*
G02*
X1000000Y10350000I0J250000D01*
G01*
X1000000Y10850000D01*
G75*
G02*
X1250000Y11100000I250000J0D01*
G01*
X2750000Y11100000D01*
G75*
G02*
X3000000Y10850000I0J-250000D01*
G01*
X3000000Y10350000D01*
G75*
G02*
X2750000Y10100000I-250000J0D01*
G01*
G37*
%TD*%
%TO.C,REF\u002A\u002A*%
G36*
G01*
X9150000Y10100000D02*
X7650000Y10100000D01*
G75*
G02*
X7400000Y10350000I0J250000D01*
G01*
X7400000Y10850000D01*
G75*
G02*
X7650000Y11100000I250000J0D01*
G01*
X9150000Y11100000D01*
G75*
G02*
X9400000Y10850000I0J-250000D01*
G01*
X9400000Y10350000D01*
G75*
G02*
X9150000Y10100000I-250000J0D01*
G01*
G37*
%TD*%
M02*
