%TF.GenerationSoftware,KiCad,Pcbnew,5.1.10-88a1d61d58~90~ubuntu20.04.1*%
%TF.CreationDate,2021-11-11T20:41:13-05:00*%
%TF.ProjectId,pcb-controller,7063622d-636f-46e7-9472-6f6c6c65722e,rev?*%
%TF.SameCoordinates,Original*%
%TF.FileFunction,Soldermask,Bot*%
%TF.FilePolarity,Negative*%
%FSLAX46Y46*%
G04 Gerber Fmt 4.6, Leading zero omitted, Abs format (unit mm)*
G04 Created by KiCad (PCBNEW 5.1.10-88a1d61d58~90~ubuntu20.04.1) date 2021-11-11 20:41:13*
%MOMM*%
%LPD*%
G01*
G04 APERTURE LIST*
%ADD10C,1.524000*%
%ADD11R,1.524000X1.524000*%
%ADD12O,1.350000X1.350000*%
%ADD13R,1.350000X1.350000*%
%ADD14C,3.200000*%
%ADD15O,1.700000X1.700000*%
%ADD16R,1.700000X1.700000*%
G04 APERTURE END LIST*
D10*
%TO.C,CR1*%
X57361057Y-46375540D03*
X57361057Y-43835540D03*
X57361057Y-41295540D03*
X57361057Y-38755540D03*
X57361057Y-36215540D03*
X57361057Y-33675540D03*
X57361057Y-31135540D03*
X57361057Y-28595540D03*
X57361057Y-26055540D03*
X64981057Y-26055540D03*
X64981057Y-28595540D03*
X64981057Y-31135540D03*
X64981057Y-33675540D03*
X64981057Y-36215540D03*
X64981057Y-38755540D03*
X64981057Y-41295540D03*
X64981057Y-43835540D03*
D11*
X64981057Y-46375540D03*
%TD*%
D10*
%TO.C,CR2*%
X52070000Y-31200644D03*
X49530000Y-31200644D03*
X46990000Y-31200644D03*
X44450000Y-31200644D03*
X41910000Y-31200644D03*
X39370000Y-31200644D03*
X36830000Y-31200644D03*
X34290000Y-31200644D03*
X31750000Y-31200644D03*
X31750000Y-23580644D03*
X34290000Y-23580644D03*
X36830000Y-23580644D03*
X39370000Y-23580644D03*
X41910000Y-23580644D03*
X44450000Y-23580644D03*
X46990000Y-23580644D03*
X49530000Y-23580644D03*
D11*
X52070000Y-23580644D03*
%TD*%
D12*
%TO.C,J3*%
X25880000Y-54864000D03*
X25880000Y-52864000D03*
X27880000Y-54864000D03*
X27880000Y-52864000D03*
X29880000Y-54864000D03*
X29880000Y-52864000D03*
X31880000Y-54864000D03*
X31880000Y-52864000D03*
X33880000Y-54864000D03*
X33880000Y-52864000D03*
X35880000Y-54864000D03*
X35880000Y-52864000D03*
X37880000Y-54864000D03*
X37880000Y-52864000D03*
X39880000Y-54864000D03*
X39880000Y-52864000D03*
X41880000Y-54864000D03*
X41880000Y-52864000D03*
X43880000Y-54864000D03*
X43880000Y-52864000D03*
X45880000Y-54864000D03*
X45880000Y-52864000D03*
X47880000Y-54864000D03*
X47880000Y-52864000D03*
X49880000Y-54864000D03*
X49880000Y-52864000D03*
X51880000Y-54864000D03*
X51880000Y-52864000D03*
X53880000Y-54864000D03*
X53880000Y-52864000D03*
X55880000Y-54864000D03*
D13*
X55880000Y-52864000D03*
%TD*%
D14*
%TO.C,H2*%
X64516000Y-54229000D03*
%TD*%
%TO.C,H1*%
X24892000Y-24130000D03*
%TD*%
D15*
%TO.C,J2*%
X30480000Y-46990000D03*
X30480000Y-44450000D03*
X30480000Y-41910000D03*
X30480000Y-39370000D03*
D16*
X30480000Y-36830000D03*
%TD*%
D15*
%TO.C,J1*%
X26670000Y-46990000D03*
X26670000Y-44450000D03*
X26670000Y-41910000D03*
X26670000Y-39370000D03*
D16*
X26670000Y-36830000D03*
%TD*%
M02*
