M48
; DRILL file {KiCad 5.1.10-88a1d61d58~90~ubuntu20.04.1} date Mon Nov 15 16:44:37 2021
; FORMAT={-:-/ absolute / inch / decimal}
; #@! TF.CreationDate,2021-11-15T16:44:37-05:00
; #@! TF.GenerationSoftware,Kicad,Pcbnew,5.1.10-88a1d61d58~90~ubuntu20.04.1
; #@! TF.FileFunction,Plated,1,2,PTH
FMAT,2
INCH
T1C0.0079
T2C0.0157
T3C0.0320
T4C0.0394
%
G90
G05
T1
X1.35Y-1.775
X1.355Y-1.925
X1.375Y-1.675
X1.45Y-1.8
X1.5213Y-1.7251
X1.725Y-1.7
X1.725Y-1.825
X1.85Y-1.725
X1.975Y-1.725
T2
X1.015Y-1.96
X2.13Y-1.375
X2.13Y-1.515
T3
X1.25Y-0.9284
X1.25Y-1.2284
X1.35Y-0.9284
X1.35Y-1.2284
X1.45Y-0.9284
X1.45Y-1.2284
X1.55Y-0.9284
X1.55Y-1.2284
X1.65Y-0.9284
X1.65Y-1.2284
X1.75Y-0.9284
X1.75Y-1.2284
X1.85Y-0.9284
X1.85Y-1.2284
X1.95Y-0.9284
X1.95Y-1.2284
X2.05Y-0.9284
X2.05Y-1.2284
X2.2583Y-1.0258
X2.2583Y-1.1258
X2.2583Y-1.2258
X2.2583Y-1.3258
X2.2583Y-1.4258
X2.2583Y-1.5258
X2.2583Y-1.6258
X2.2583Y-1.7258
X2.2583Y-1.8258
X2.5583Y-1.0258
X2.5583Y-1.1258
X2.5583Y-1.2258
X2.5583Y-1.3258
X2.5583Y-1.4258
X2.5583Y-1.5258
X2.5583Y-1.6258
X2.5583Y-1.7258
X2.5583Y-1.8258
T4
X0.88Y-2.12
X0.98Y-2.12
X1.05Y-1.45
X1.05Y-1.55
X1.05Y-1.65
X1.05Y-1.75
X1.05Y-1.85
X1.08Y-2.12
X1.18Y-2.12
X1.2Y-1.45
X1.2Y-1.55
X1.2Y-1.65
X1.2Y-1.75
X1.2Y-1.85
X1.28Y-2.12
X1.38Y-2.12
X1.48Y-2.12
X1.58Y-2.12
X1.68Y-2.12
X1.78Y-2.12
X1.88Y-2.12
X1.98Y-2.12
X2.08Y-2.12
X2.18Y-2.12
X2.28Y-2.12
X2.38Y-2.12
T0
M30
