%TF.GenerationSoftware,KiCad,Pcbnew,5.1.10-88a1d61d58~90~ubuntu20.04.1*%
%TF.CreationDate,2021-11-15T16:44:40-05:00*%
%TF.ProjectId,pcb-controller,7063622d-636f-46e7-9472-6f6c6c65722e,rev?*%
%TF.SameCoordinates,Original*%
%TF.FileFunction,Copper,L2,Bot*%
%TF.FilePolarity,Positive*%
%FSLAX46Y46*%
G04 Gerber Fmt 4.6, Leading zero omitted, Abs format (unit mm)*
G04 Created by KiCad (PCBNEW 5.1.10-88a1d61d58~90~ubuntu20.04.1) date 2021-11-15 16:44:40*
%MOMM*%
%LPD*%
G01*
G04 APERTURE LIST*
%TA.AperFunction,ComponentPad*%
%ADD10O,1.700000X1.700000*%
%TD*%
%TA.AperFunction,ComponentPad*%
%ADD11R,1.700000X1.700000*%
%TD*%
%TA.AperFunction,ComponentPad*%
%ADD12C,1.524000*%
%TD*%
%TA.AperFunction,ComponentPad*%
%ADD13R,1.524000X1.524000*%
%TD*%
%TA.AperFunction,ViaPad*%
%ADD14C,0.400000*%
%TD*%
%TA.AperFunction,ViaPad*%
%ADD15C,0.800000*%
%TD*%
%TA.AperFunction,Conductor*%
%ADD16C,0.500000*%
%TD*%
%TA.AperFunction,Conductor*%
%ADD17C,0.250000*%
%TD*%
%TA.AperFunction,Conductor*%
%ADD18C,0.254000*%
%TD*%
%TA.AperFunction,Conductor*%
%ADD19C,0.100000*%
%TD*%
G04 APERTURE END LIST*
D10*
%TO.P,J3,16*%
%TO.N,Net-(CR2-Pad11)*%
X22352000Y-53848000D03*
%TO.P,J3,15*%
%TO.N,Net-(CR2-Pad12)*%
X24892000Y-53848000D03*
%TO.P,J3,14*%
%TO.N,Net-(CR2-Pad13)*%
X27432000Y-53848000D03*
%TO.P,J3,13*%
%TO.N,Net-(CR2-Pad14)*%
X29972000Y-53848000D03*
%TO.P,J3,12*%
%TO.N,Net-(CR2-Pad15)*%
X32512000Y-53848000D03*
%TO.P,J3,11*%
%TO.N,Net-(CR2-Pad16)*%
X35052000Y-53848000D03*
%TO.P,J3,10*%
%TO.N,Net-(CR2-Pad17)*%
X37592000Y-53848000D03*
%TO.P,J3,9*%
%TO.N,Net-(CR2-Pad18)*%
X40132000Y-53848000D03*
%TO.P,J3,8*%
%TO.N,Net-(CR1-Pad11)*%
X42672000Y-53848000D03*
%TO.P,J3,7*%
%TO.N,Net-(CR1-Pad12)*%
X45212000Y-53848000D03*
%TO.P,J3,6*%
%TO.N,Net-(CR1-Pad13)*%
X47752000Y-53848000D03*
%TO.P,J3,5*%
%TO.N,Net-(CR1-Pad14)*%
X50292000Y-53848000D03*
%TO.P,J3,4*%
%TO.N,Net-(CR1-Pad15)*%
X52832000Y-53848000D03*
%TO.P,J3,3*%
%TO.N,Net-(CR1-Pad16)*%
X55372000Y-53848000D03*
%TO.P,J3,2*%
%TO.N,Net-(CR1-Pad17)*%
X57912000Y-53848000D03*
D11*
%TO.P,J3,1*%
%TO.N,Net-(CR1-Pad18)*%
X60452000Y-53848000D03*
%TD*%
D12*
%TO.P,CR1,18*%
%TO.N,Net-(CR1-Pad18)*%
X57361057Y-46375540D03*
%TO.P,CR1,17*%
%TO.N,Net-(CR1-Pad17)*%
X57361057Y-43835540D03*
%TO.P,CR1,16*%
%TO.N,Net-(CR1-Pad16)*%
X57361057Y-41295540D03*
%TO.P,CR1,15*%
%TO.N,Net-(CR1-Pad15)*%
X57361057Y-38755540D03*
%TO.P,CR1,14*%
%TO.N,Net-(CR1-Pad14)*%
X57361057Y-36215540D03*
%TO.P,CR1,13*%
%TO.N,Net-(CR1-Pad13)*%
X57361057Y-33675540D03*
%TO.P,CR1,12*%
%TO.N,Net-(CR1-Pad12)*%
X57361057Y-31135540D03*
%TO.P,CR1,11*%
%TO.N,Net-(CR1-Pad11)*%
X57361057Y-28595540D03*
%TO.P,CR1,10*%
%TO.N,+12V*%
X57361057Y-26055540D03*
%TO.P,CR1,9*%
%TO.N,GND*%
X64981057Y-26055540D03*
%TO.P,CR1,8*%
%TO.N,Net-(CR1-Pad8)*%
X64981057Y-28595540D03*
%TO.P,CR1,7*%
%TO.N,Net-(CR1-Pad7)*%
X64981057Y-31135540D03*
%TO.P,CR1,6*%
%TO.N,Net-(CR1-Pad6)*%
X64981057Y-33675540D03*
%TO.P,CR1,5*%
%TO.N,Net-(CR1-Pad5)*%
X64981057Y-36215540D03*
%TO.P,CR1,4*%
%TO.N,Net-(CR1-Pad4)*%
X64981057Y-38755540D03*
%TO.P,CR1,3*%
%TO.N,Net-(CR1-Pad3)*%
X64981057Y-41295540D03*
%TO.P,CR1,2*%
%TO.N,Net-(CR1-Pad2)*%
X64981057Y-43835540D03*
D13*
%TO.P,CR1,1*%
%TO.N,Net-(CR1-Pad1)*%
X64981057Y-46375540D03*
%TD*%
D12*
%TO.P,CR2,18*%
%TO.N,Net-(CR2-Pad18)*%
X52070000Y-31200644D03*
%TO.P,CR2,17*%
%TO.N,Net-(CR2-Pad17)*%
X49530000Y-31200644D03*
%TO.P,CR2,16*%
%TO.N,Net-(CR2-Pad16)*%
X46990000Y-31200644D03*
%TO.P,CR2,15*%
%TO.N,Net-(CR2-Pad15)*%
X44450000Y-31200644D03*
%TO.P,CR2,14*%
%TO.N,Net-(CR2-Pad14)*%
X41910000Y-31200644D03*
%TO.P,CR2,13*%
%TO.N,Net-(CR2-Pad13)*%
X39370000Y-31200644D03*
%TO.P,CR2,12*%
%TO.N,Net-(CR2-Pad12)*%
X36830000Y-31200644D03*
%TO.P,CR2,11*%
%TO.N,Net-(CR2-Pad11)*%
X34290000Y-31200644D03*
%TO.P,CR2,10*%
%TO.N,+12V*%
X31750000Y-31200644D03*
%TO.P,CR2,9*%
%TO.N,GND*%
X31750000Y-23580644D03*
%TO.P,CR2,8*%
%TO.N,Net-(CR2-Pad8)*%
X34290000Y-23580644D03*
%TO.P,CR2,7*%
%TO.N,Net-(CR2-Pad7)*%
X36830000Y-23580644D03*
%TO.P,CR2,6*%
%TO.N,Net-(CR2-Pad6)*%
X39370000Y-23580644D03*
%TO.P,CR2,5*%
%TO.N,Net-(CR2-Pad5)*%
X41910000Y-23580644D03*
%TO.P,CR2,4*%
%TO.N,Net-(CR2-Pad4)*%
X44450000Y-23580644D03*
%TO.P,CR2,3*%
%TO.N,Net-(CR2-Pad3)*%
X46990000Y-23580644D03*
%TO.P,CR2,2*%
%TO.N,Net-(CR2-Pad2)*%
X49530000Y-23580644D03*
D13*
%TO.P,CR2,1*%
%TO.N,Net-(CR2-Pad1)*%
X52070000Y-23580644D03*
%TD*%
D10*
%TO.P,J2,5*%
%TO.N,Net-(J1-Pad5)*%
X30480000Y-46990000D03*
%TO.P,J2,4*%
%TO.N,Net-(J1-Pad4)*%
X30480000Y-44450000D03*
%TO.P,J2,3*%
%TO.N,GND*%
X30480000Y-41910000D03*
%TO.P,J2,2*%
%TO.N,+12V*%
X30480000Y-39370000D03*
D11*
%TO.P,J2,1*%
%TO.N,+3V3*%
X30480000Y-36830000D03*
%TD*%
D10*
%TO.P,J1,5*%
%TO.N,Net-(J1-Pad5)*%
X26670000Y-46990000D03*
%TO.P,J1,4*%
%TO.N,Net-(J1-Pad4)*%
X26670000Y-44450000D03*
%TO.P,J1,3*%
%TO.N,GND*%
X26670000Y-41910000D03*
%TO.P,J1,2*%
%TO.N,+12V*%
X26670000Y-39370000D03*
D11*
%TO.P,J1,1*%
%TO.N,+3V3*%
X26670000Y-36830000D03*
%TD*%
D14*
%TO.N,GND*%
X34925000Y-42545000D03*
X34290000Y-45085000D03*
X36830000Y-45720000D03*
X43815000Y-46355000D03*
X43815000Y-43180000D03*
X46990000Y-43815000D03*
X50165000Y-43815000D03*
X38640273Y-43817759D03*
D15*
X54102000Y-38481000D03*
D14*
X34417000Y-48895000D03*
D15*
%TO.N,+12V*%
X54102000Y-34925000D03*
%TO.N,+3V3*%
X25781000Y-49784000D03*
%TD*%
D16*
%TO.N,+12V*%
X54102000Y-29314597D02*
X57361057Y-26055540D01*
X54102000Y-34925000D02*
X54102000Y-29314597D01*
D17*
%TO.N,+3V3*%
X25381001Y-38118999D02*
X26670000Y-36830000D01*
X25381001Y-49384001D02*
X25381001Y-38118999D01*
X25781000Y-49784000D02*
X25381001Y-49384001D01*
D16*
%TO.N,Net-(CR1-Pad18)*%
X57361057Y-46375540D02*
X58948540Y-46375540D01*
X60452000Y-47879000D02*
X60452000Y-53848000D01*
X58948540Y-46375540D02*
X60452000Y-47879000D01*
%TO.N,Net-(CR1-Pad17)*%
X57361057Y-43835540D02*
X57256460Y-43835540D01*
X56149056Y-52085056D02*
X57912000Y-53848000D01*
X56149056Y-44942944D02*
X56149056Y-52085056D01*
X57256460Y-43835540D02*
X56149056Y-44942944D01*
%TO.N,Net-(CR1-Pad16)*%
X55372000Y-43284597D02*
X55372000Y-53848000D01*
X57361057Y-41295540D02*
X55372000Y-43284597D01*
%TO.N,Net-(CR1-Pad15)*%
X52832000Y-43284597D02*
X52832000Y-53848000D01*
X57361057Y-38755540D02*
X52832000Y-43284597D01*
%TO.N,Net-(CR1-Pad14)*%
X57361057Y-36479945D02*
X57361057Y-36215540D01*
X51141999Y-42699003D02*
X57361057Y-36479945D01*
X51141999Y-52998001D02*
X51141999Y-42699003D01*
X50292000Y-53848000D02*
X51141999Y-52998001D01*
%TO.N,Net-(CR1-Pad13)*%
X47752000Y-43284597D02*
X47752000Y-53848000D01*
X57361057Y-33675540D02*
X47752000Y-43284597D01*
%TO.N,Net-(CR1-Pad12)*%
X61752001Y-55058001D02*
X60422002Y-56388000D01*
X61752001Y-35526484D02*
X61752001Y-55058001D01*
X57361057Y-31135540D02*
X61752001Y-35526484D01*
X47752000Y-56388000D02*
X45212000Y-53848000D01*
X60422002Y-56388000D02*
X47752000Y-56388000D01*
%TO.N,Net-(CR1-Pad11)*%
X45912010Y-57088010D02*
X42672000Y-53848000D01*
X60711955Y-57088010D02*
X45912010Y-57088010D01*
X62452011Y-33686494D02*
X62452011Y-55347954D01*
X62452011Y-55347954D02*
X60711955Y-57088010D01*
X57361057Y-28595540D02*
X62452011Y-33686494D01*
%TO.N,Net-(CR2-Pad18)*%
X40132000Y-49075998D02*
X40132000Y-53848000D01*
X52070000Y-37137998D02*
X40132000Y-49075998D01*
X52070000Y-31200644D02*
X52070000Y-37137998D01*
%TO.N,Net-(CR2-Pad17)*%
X37592000Y-50365002D02*
X37592000Y-53848000D01*
X49530000Y-38427002D02*
X37592000Y-50365002D01*
X49530000Y-31200644D02*
X49530000Y-38427002D01*
%TO.N,Net-(CR2-Pad16)*%
X46990000Y-31200644D02*
X47329644Y-31200644D01*
X35052000Y-50980998D02*
X35052000Y-53848000D01*
X46990000Y-39042998D02*
X35052000Y-50980998D01*
X46990000Y-31200644D02*
X46990000Y-39042998D01*
%TO.N,Net-(CR2-Pad15)*%
X32512000Y-51762002D02*
X32512000Y-53848000D01*
X44450000Y-39824002D02*
X32512000Y-51762002D01*
X44450000Y-31200644D02*
X44450000Y-39824002D01*
%TO.N,Net-(CR2-Pad14)*%
X29972000Y-51566793D02*
X29972000Y-53848000D01*
X41910000Y-39628793D02*
X29972000Y-51566793D01*
X41910000Y-31200644D02*
X41910000Y-39628793D01*
%TO.N,Net-(CR2-Pad13)*%
X26331990Y-55564008D02*
X27432000Y-54463998D01*
X27432000Y-54463998D02*
X27432000Y-53848000D01*
X22144006Y-55564008D02*
X26331990Y-55564008D01*
X21051999Y-54472001D02*
X22144006Y-55564008D01*
X21051999Y-37958074D02*
X21051999Y-54472001D01*
X37457989Y-29288633D02*
X29721440Y-29288633D01*
X29721440Y-29288633D02*
X21051999Y-37958074D01*
X39370000Y-31200644D02*
X37457989Y-29288633D01*
%TO.N,Net-(CR2-Pad12)*%
X24805991Y-53761991D02*
X24892000Y-53848000D01*
X24805991Y-36184007D02*
X24805991Y-53761991D01*
X28577353Y-32412645D02*
X24805991Y-36184007D01*
X35617999Y-32412645D02*
X28577353Y-32412645D01*
X36830000Y-31200644D02*
X35617999Y-32412645D01*
%TO.N,Net-(CR2-Pad11)*%
X22352000Y-37648036D02*
X22352000Y-53848000D01*
X30011393Y-29988643D02*
X22352000Y-37648036D01*
X33077999Y-29988643D02*
X30011393Y-29988643D01*
X34290000Y-31200644D02*
X33077999Y-29988643D01*
%TD*%
D18*
%TO.N,GND*%
X69721001Y-59721000D02*
X20279000Y-59721000D01*
X20279000Y-37958074D01*
X20472209Y-37958074D01*
X20474999Y-37986405D01*
X20475000Y-54443660D01*
X20472209Y-54472001D01*
X20483348Y-54585112D01*
X20513915Y-54685873D01*
X20516343Y-54693877D01*
X20569921Y-54794116D01*
X20584843Y-54812298D01*
X20623962Y-54859965D01*
X20623965Y-54859968D01*
X20642026Y-54881975D01*
X20664032Y-54900035D01*
X21715971Y-55951975D01*
X21734032Y-55973982D01*
X21756039Y-55992043D01*
X21756041Y-55992045D01*
X21765777Y-56000035D01*
X21821891Y-56046087D01*
X21922130Y-56099665D01*
X22030894Y-56132658D01*
X22115670Y-56141008D01*
X22115676Y-56141008D01*
X22144005Y-56143798D01*
X22172334Y-56141008D01*
X26303659Y-56141008D01*
X26331990Y-56143798D01*
X26360321Y-56141008D01*
X26360326Y-56141008D01*
X26390035Y-56138082D01*
X26445101Y-56132659D01*
X26489760Y-56119111D01*
X26553866Y-56099665D01*
X26654105Y-56046087D01*
X26741964Y-55973982D01*
X26760029Y-55951970D01*
X27721532Y-54990468D01*
X27775318Y-54979769D01*
X27989519Y-54891044D01*
X28182294Y-54762236D01*
X28346236Y-54598294D01*
X28475044Y-54405519D01*
X28563769Y-54191318D01*
X28609000Y-53963924D01*
X28609000Y-53732076D01*
X28795000Y-53732076D01*
X28795000Y-53963924D01*
X28840231Y-54191318D01*
X28928956Y-54405519D01*
X29057764Y-54598294D01*
X29221706Y-54762236D01*
X29414481Y-54891044D01*
X29628682Y-54979769D01*
X29856076Y-55025000D01*
X30087924Y-55025000D01*
X30315318Y-54979769D01*
X30529519Y-54891044D01*
X30722294Y-54762236D01*
X30886236Y-54598294D01*
X31015044Y-54405519D01*
X31103769Y-54191318D01*
X31149000Y-53963924D01*
X31149000Y-53732076D01*
X31335000Y-53732076D01*
X31335000Y-53963924D01*
X31380231Y-54191318D01*
X31468956Y-54405519D01*
X31597764Y-54598294D01*
X31761706Y-54762236D01*
X31954481Y-54891044D01*
X32168682Y-54979769D01*
X32396076Y-55025000D01*
X32627924Y-55025000D01*
X32855318Y-54979769D01*
X33069519Y-54891044D01*
X33262294Y-54762236D01*
X33426236Y-54598294D01*
X33555044Y-54405519D01*
X33643769Y-54191318D01*
X33689000Y-53963924D01*
X33689000Y-53732076D01*
X33875000Y-53732076D01*
X33875000Y-53963924D01*
X33920231Y-54191318D01*
X34008956Y-54405519D01*
X34137764Y-54598294D01*
X34301706Y-54762236D01*
X34494481Y-54891044D01*
X34708682Y-54979769D01*
X34936076Y-55025000D01*
X35167924Y-55025000D01*
X35395318Y-54979769D01*
X35609519Y-54891044D01*
X35802294Y-54762236D01*
X35966236Y-54598294D01*
X36095044Y-54405519D01*
X36183769Y-54191318D01*
X36229000Y-53963924D01*
X36229000Y-53732076D01*
X36415000Y-53732076D01*
X36415000Y-53963924D01*
X36460231Y-54191318D01*
X36548956Y-54405519D01*
X36677764Y-54598294D01*
X36841706Y-54762236D01*
X37034481Y-54891044D01*
X37248682Y-54979769D01*
X37476076Y-55025000D01*
X37707924Y-55025000D01*
X37935318Y-54979769D01*
X38149519Y-54891044D01*
X38342294Y-54762236D01*
X38506236Y-54598294D01*
X38635044Y-54405519D01*
X38723769Y-54191318D01*
X38769000Y-53963924D01*
X38769000Y-53732076D01*
X38723769Y-53504682D01*
X38635044Y-53290481D01*
X38506236Y-53097706D01*
X38342294Y-52933764D01*
X38169000Y-52817973D01*
X38169000Y-50604003D01*
X39555000Y-49218003D01*
X39555001Y-52817972D01*
X39381706Y-52933764D01*
X39217764Y-53097706D01*
X39088956Y-53290481D01*
X39000231Y-53504682D01*
X38955000Y-53732076D01*
X38955000Y-53963924D01*
X39000231Y-54191318D01*
X39088956Y-54405519D01*
X39217764Y-54598294D01*
X39381706Y-54762236D01*
X39574481Y-54891044D01*
X39788682Y-54979769D01*
X40016076Y-55025000D01*
X40247924Y-55025000D01*
X40475318Y-54979769D01*
X40689519Y-54891044D01*
X40882294Y-54762236D01*
X41046236Y-54598294D01*
X41175044Y-54405519D01*
X41263769Y-54191318D01*
X41309000Y-53963924D01*
X41309000Y-53732076D01*
X41495000Y-53732076D01*
X41495000Y-53963924D01*
X41540231Y-54191318D01*
X41628956Y-54405519D01*
X41757764Y-54598294D01*
X41921706Y-54762236D01*
X42114481Y-54891044D01*
X42328682Y-54979769D01*
X42556076Y-55025000D01*
X42787924Y-55025000D01*
X42992339Y-54984340D01*
X45483975Y-57475977D01*
X45502036Y-57497984D01*
X45524043Y-57516045D01*
X45524045Y-57516047D01*
X45543990Y-57532415D01*
X45589895Y-57570089D01*
X45690134Y-57623667D01*
X45798898Y-57656660D01*
X45883674Y-57665010D01*
X45883680Y-57665010D01*
X45912009Y-57667800D01*
X45940338Y-57665010D01*
X60683624Y-57665010D01*
X60711955Y-57667800D01*
X60740286Y-57665010D01*
X60740291Y-57665010D01*
X60770000Y-57662084D01*
X60825066Y-57656661D01*
X60869725Y-57643113D01*
X60933831Y-57623667D01*
X61034070Y-57570089D01*
X61121929Y-57497984D01*
X61139994Y-57475972D01*
X62798759Y-55817207D01*
X64494000Y-55817207D01*
X64494000Y-56196793D01*
X64568053Y-56569085D01*
X64713315Y-56919777D01*
X64924201Y-57235391D01*
X65192609Y-57503799D01*
X65508223Y-57714685D01*
X65858915Y-57859947D01*
X66231207Y-57934000D01*
X66610793Y-57934000D01*
X66983085Y-57859947D01*
X67333777Y-57714685D01*
X67649391Y-57503799D01*
X67917799Y-57235391D01*
X68128685Y-56919777D01*
X68273947Y-56569085D01*
X68348000Y-56196793D01*
X68348000Y-55817207D01*
X68273947Y-55444915D01*
X68128685Y-55094223D01*
X67917799Y-54778609D01*
X67649391Y-54510201D01*
X67333777Y-54299315D01*
X66983085Y-54154053D01*
X66610793Y-54080000D01*
X66231207Y-54080000D01*
X65858915Y-54154053D01*
X65508223Y-54299315D01*
X65192609Y-54510201D01*
X64924201Y-54778609D01*
X64713315Y-55094223D01*
X64568053Y-55444915D01*
X64494000Y-55817207D01*
X62798759Y-55817207D01*
X62839973Y-55775993D01*
X62861985Y-55757928D01*
X62934090Y-55670069D01*
X62987668Y-55569830D01*
X63001215Y-55525172D01*
X63020662Y-55461066D01*
X63031801Y-55347954D01*
X63029011Y-55319623D01*
X63029011Y-45613540D01*
X63890475Y-45613540D01*
X63890475Y-47137540D01*
X63896789Y-47201643D01*
X63915487Y-47263283D01*
X63945851Y-47320090D01*
X63986714Y-47369883D01*
X64036507Y-47410746D01*
X64093314Y-47441110D01*
X64154954Y-47459808D01*
X64219057Y-47466122D01*
X65743057Y-47466122D01*
X65807160Y-47459808D01*
X65868800Y-47441110D01*
X65925607Y-47410746D01*
X65975400Y-47369883D01*
X66016263Y-47320090D01*
X66046627Y-47263283D01*
X66065325Y-47201643D01*
X66071639Y-47137540D01*
X66071639Y-45613540D01*
X66065325Y-45549437D01*
X66046627Y-45487797D01*
X66016263Y-45430990D01*
X65975400Y-45381197D01*
X65925607Y-45340334D01*
X65868800Y-45309970D01*
X65807160Y-45291272D01*
X65743057Y-45284958D01*
X64219057Y-45284958D01*
X64154954Y-45291272D01*
X64093314Y-45309970D01*
X64036507Y-45340334D01*
X63986714Y-45381197D01*
X63945851Y-45430990D01*
X63915487Y-45487797D01*
X63896789Y-45549437D01*
X63890475Y-45613540D01*
X63029011Y-45613540D01*
X63029011Y-43728283D01*
X63892057Y-43728283D01*
X63892057Y-43942797D01*
X63933907Y-44153190D01*
X64015998Y-44351375D01*
X64135176Y-44529737D01*
X64286860Y-44681421D01*
X64465222Y-44800599D01*
X64663407Y-44882690D01*
X64873800Y-44924540D01*
X65088314Y-44924540D01*
X65298707Y-44882690D01*
X65496892Y-44800599D01*
X65675254Y-44681421D01*
X65826938Y-44529737D01*
X65946116Y-44351375D01*
X66028207Y-44153190D01*
X66070057Y-43942797D01*
X66070057Y-43728283D01*
X66028207Y-43517890D01*
X65946116Y-43319705D01*
X65826938Y-43141343D01*
X65675254Y-42989659D01*
X65496892Y-42870481D01*
X65298707Y-42788390D01*
X65088314Y-42746540D01*
X64873800Y-42746540D01*
X64663407Y-42788390D01*
X64465222Y-42870481D01*
X64286860Y-42989659D01*
X64135176Y-43141343D01*
X64015998Y-43319705D01*
X63933907Y-43517890D01*
X63892057Y-43728283D01*
X63029011Y-43728283D01*
X63029011Y-41188283D01*
X63892057Y-41188283D01*
X63892057Y-41402797D01*
X63933907Y-41613190D01*
X64015998Y-41811375D01*
X64135176Y-41989737D01*
X64286860Y-42141421D01*
X64465222Y-42260599D01*
X64663407Y-42342690D01*
X64873800Y-42384540D01*
X65088314Y-42384540D01*
X65298707Y-42342690D01*
X65496892Y-42260599D01*
X65675254Y-42141421D01*
X65826938Y-41989737D01*
X65946116Y-41811375D01*
X66028207Y-41613190D01*
X66070057Y-41402797D01*
X66070057Y-41188283D01*
X66028207Y-40977890D01*
X65946116Y-40779705D01*
X65826938Y-40601343D01*
X65675254Y-40449659D01*
X65496892Y-40330481D01*
X65298707Y-40248390D01*
X65088314Y-40206540D01*
X64873800Y-40206540D01*
X64663407Y-40248390D01*
X64465222Y-40330481D01*
X64286860Y-40449659D01*
X64135176Y-40601343D01*
X64015998Y-40779705D01*
X63933907Y-40977890D01*
X63892057Y-41188283D01*
X63029011Y-41188283D01*
X63029011Y-38648283D01*
X63892057Y-38648283D01*
X63892057Y-38862797D01*
X63933907Y-39073190D01*
X64015998Y-39271375D01*
X64135176Y-39449737D01*
X64286860Y-39601421D01*
X64465222Y-39720599D01*
X64663407Y-39802690D01*
X64873800Y-39844540D01*
X65088314Y-39844540D01*
X65298707Y-39802690D01*
X65496892Y-39720599D01*
X65675254Y-39601421D01*
X65826938Y-39449737D01*
X65946116Y-39271375D01*
X66028207Y-39073190D01*
X66070057Y-38862797D01*
X66070057Y-38648283D01*
X66028207Y-38437890D01*
X65946116Y-38239705D01*
X65826938Y-38061343D01*
X65675254Y-37909659D01*
X65496892Y-37790481D01*
X65298707Y-37708390D01*
X65088314Y-37666540D01*
X64873800Y-37666540D01*
X64663407Y-37708390D01*
X64465222Y-37790481D01*
X64286860Y-37909659D01*
X64135176Y-38061343D01*
X64015998Y-38239705D01*
X63933907Y-38437890D01*
X63892057Y-38648283D01*
X63029011Y-38648283D01*
X63029011Y-36108283D01*
X63892057Y-36108283D01*
X63892057Y-36322797D01*
X63933907Y-36533190D01*
X64015998Y-36731375D01*
X64135176Y-36909737D01*
X64286860Y-37061421D01*
X64465222Y-37180599D01*
X64663407Y-37262690D01*
X64873800Y-37304540D01*
X65088314Y-37304540D01*
X65298707Y-37262690D01*
X65496892Y-37180599D01*
X65675254Y-37061421D01*
X65826938Y-36909737D01*
X65946116Y-36731375D01*
X66028207Y-36533190D01*
X66070057Y-36322797D01*
X66070057Y-36108283D01*
X66028207Y-35897890D01*
X65946116Y-35699705D01*
X65826938Y-35521343D01*
X65675254Y-35369659D01*
X65496892Y-35250481D01*
X65298707Y-35168390D01*
X65088314Y-35126540D01*
X64873800Y-35126540D01*
X64663407Y-35168390D01*
X64465222Y-35250481D01*
X64286860Y-35369659D01*
X64135176Y-35521343D01*
X64015998Y-35699705D01*
X63933907Y-35897890D01*
X63892057Y-36108283D01*
X63029011Y-36108283D01*
X63029011Y-33714822D01*
X63031801Y-33686493D01*
X63029011Y-33658164D01*
X63029011Y-33658158D01*
X63020661Y-33573382D01*
X63019115Y-33568283D01*
X63892057Y-33568283D01*
X63892057Y-33782797D01*
X63933907Y-33993190D01*
X64015998Y-34191375D01*
X64135176Y-34369737D01*
X64286860Y-34521421D01*
X64465222Y-34640599D01*
X64663407Y-34722690D01*
X64873800Y-34764540D01*
X65088314Y-34764540D01*
X65298707Y-34722690D01*
X65496892Y-34640599D01*
X65675254Y-34521421D01*
X65826938Y-34369737D01*
X65946116Y-34191375D01*
X66028207Y-33993190D01*
X66070057Y-33782797D01*
X66070057Y-33568283D01*
X66028207Y-33357890D01*
X65946116Y-33159705D01*
X65826938Y-32981343D01*
X65675254Y-32829659D01*
X65496892Y-32710481D01*
X65298707Y-32628390D01*
X65088314Y-32586540D01*
X64873800Y-32586540D01*
X64663407Y-32628390D01*
X64465222Y-32710481D01*
X64286860Y-32829659D01*
X64135176Y-32981343D01*
X64015998Y-33159705D01*
X63933907Y-33357890D01*
X63892057Y-33568283D01*
X63019115Y-33568283D01*
X62987668Y-33464618D01*
X62934090Y-33364379D01*
X62861985Y-33276520D01*
X62839980Y-33258461D01*
X60609802Y-31028283D01*
X63892057Y-31028283D01*
X63892057Y-31242797D01*
X63933907Y-31453190D01*
X64015998Y-31651375D01*
X64135176Y-31829737D01*
X64286860Y-31981421D01*
X64465222Y-32100599D01*
X64663407Y-32182690D01*
X64873800Y-32224540D01*
X65088314Y-32224540D01*
X65298707Y-32182690D01*
X65496892Y-32100599D01*
X65675254Y-31981421D01*
X65826938Y-31829737D01*
X65946116Y-31651375D01*
X66028207Y-31453190D01*
X66070057Y-31242797D01*
X66070057Y-31028283D01*
X66028207Y-30817890D01*
X65946116Y-30619705D01*
X65826938Y-30441343D01*
X65675254Y-30289659D01*
X65496892Y-30170481D01*
X65298707Y-30088390D01*
X65088314Y-30046540D01*
X64873800Y-30046540D01*
X64663407Y-30088390D01*
X64465222Y-30170481D01*
X64286860Y-30289659D01*
X64135176Y-30441343D01*
X64015998Y-30619705D01*
X63933907Y-30817890D01*
X63892057Y-31028283D01*
X60609802Y-31028283D01*
X58422559Y-28841040D01*
X58450057Y-28702797D01*
X58450057Y-28488283D01*
X63892057Y-28488283D01*
X63892057Y-28702797D01*
X63933907Y-28913190D01*
X64015998Y-29111375D01*
X64135176Y-29289737D01*
X64286860Y-29441421D01*
X64465222Y-29560599D01*
X64663407Y-29642690D01*
X64873800Y-29684540D01*
X65088314Y-29684540D01*
X65298707Y-29642690D01*
X65496892Y-29560599D01*
X65675254Y-29441421D01*
X65826938Y-29289737D01*
X65946116Y-29111375D01*
X66028207Y-28913190D01*
X66070057Y-28702797D01*
X66070057Y-28488283D01*
X66028207Y-28277890D01*
X65946116Y-28079705D01*
X65826938Y-27901343D01*
X65675254Y-27749659D01*
X65496892Y-27630481D01*
X65298707Y-27548390D01*
X65088314Y-27506540D01*
X64873800Y-27506540D01*
X64663407Y-27548390D01*
X64465222Y-27630481D01*
X64286860Y-27749659D01*
X64135176Y-27901343D01*
X64015998Y-28079705D01*
X63933907Y-28277890D01*
X63892057Y-28488283D01*
X58450057Y-28488283D01*
X58408207Y-28277890D01*
X58326116Y-28079705D01*
X58206938Y-27901343D01*
X58055254Y-27749659D01*
X57876892Y-27630481D01*
X57678707Y-27548390D01*
X57468314Y-27506540D01*
X57253800Y-27506540D01*
X57043407Y-27548390D01*
X56845222Y-27630481D01*
X56666860Y-27749659D01*
X56515176Y-27901343D01*
X56395998Y-28079705D01*
X56313907Y-28277890D01*
X56272057Y-28488283D01*
X56272057Y-28702797D01*
X56313907Y-28913190D01*
X56395998Y-29111375D01*
X56515176Y-29289737D01*
X56666860Y-29441421D01*
X56845222Y-29560599D01*
X57043407Y-29642690D01*
X57253800Y-29684540D01*
X57468314Y-29684540D01*
X57606557Y-29657042D01*
X61875011Y-33925496D01*
X61875011Y-34833493D01*
X58422559Y-31381041D01*
X58450057Y-31242797D01*
X58450057Y-31028283D01*
X58408207Y-30817890D01*
X58326116Y-30619705D01*
X58206938Y-30441343D01*
X58055254Y-30289659D01*
X57876892Y-30170481D01*
X57678707Y-30088390D01*
X57468314Y-30046540D01*
X57253800Y-30046540D01*
X57043407Y-30088390D01*
X56845222Y-30170481D01*
X56666860Y-30289659D01*
X56515176Y-30441343D01*
X56395998Y-30619705D01*
X56313907Y-30817890D01*
X56272057Y-31028283D01*
X56272057Y-31242797D01*
X56313907Y-31453190D01*
X56395998Y-31651375D01*
X56515176Y-31829737D01*
X56666860Y-31981421D01*
X56845222Y-32100599D01*
X57043407Y-32182690D01*
X57253800Y-32224540D01*
X57468314Y-32224540D01*
X57606558Y-32197042D01*
X61175001Y-35765485D01*
X61175002Y-52669418D01*
X61029000Y-52669418D01*
X61029000Y-47907339D01*
X61031791Y-47879000D01*
X61020651Y-47765888D01*
X60987657Y-47657123D01*
X60973816Y-47631228D01*
X60934079Y-47556885D01*
X60861974Y-47469026D01*
X60839963Y-47450962D01*
X59376579Y-45987578D01*
X59358514Y-45965566D01*
X59270655Y-45893461D01*
X59170416Y-45839883D01*
X59106310Y-45820437D01*
X59061651Y-45806889D01*
X59006585Y-45801466D01*
X58976876Y-45798540D01*
X58976871Y-45798540D01*
X58948540Y-45795750D01*
X58920209Y-45798540D01*
X58285247Y-45798540D01*
X58206938Y-45681343D01*
X58055254Y-45529659D01*
X57876892Y-45410481D01*
X57678707Y-45328390D01*
X57468314Y-45286540D01*
X57253800Y-45286540D01*
X57043407Y-45328390D01*
X56845222Y-45410481D01*
X56726056Y-45490105D01*
X56726056Y-45181945D01*
X57030611Y-44877390D01*
X57043407Y-44882690D01*
X57253800Y-44924540D01*
X57468314Y-44924540D01*
X57678707Y-44882690D01*
X57876892Y-44800599D01*
X58055254Y-44681421D01*
X58206938Y-44529737D01*
X58326116Y-44351375D01*
X58408207Y-44153190D01*
X58450057Y-43942797D01*
X58450057Y-43728283D01*
X58408207Y-43517890D01*
X58326116Y-43319705D01*
X58206938Y-43141343D01*
X58055254Y-42989659D01*
X57876892Y-42870481D01*
X57678707Y-42788390D01*
X57468314Y-42746540D01*
X57253800Y-42746540D01*
X57043407Y-42788390D01*
X56845222Y-42870481D01*
X56666860Y-42989659D01*
X56515176Y-43141343D01*
X56395998Y-43319705D01*
X56313907Y-43517890D01*
X56272057Y-43728283D01*
X56272057Y-43942797D01*
X56282202Y-43993797D01*
X55949000Y-44326999D01*
X55949000Y-43523598D01*
X57115556Y-42357042D01*
X57253800Y-42384540D01*
X57468314Y-42384540D01*
X57678707Y-42342690D01*
X57876892Y-42260599D01*
X58055254Y-42141421D01*
X58206938Y-41989737D01*
X58326116Y-41811375D01*
X58408207Y-41613190D01*
X58450057Y-41402797D01*
X58450057Y-41188283D01*
X58408207Y-40977890D01*
X58326116Y-40779705D01*
X58206938Y-40601343D01*
X58055254Y-40449659D01*
X57876892Y-40330481D01*
X57678707Y-40248390D01*
X57468314Y-40206540D01*
X57253800Y-40206540D01*
X57043407Y-40248390D01*
X56845222Y-40330481D01*
X56666860Y-40449659D01*
X56515176Y-40601343D01*
X56395998Y-40779705D01*
X56313907Y-40977890D01*
X56272057Y-41188283D01*
X56272057Y-41402797D01*
X56299555Y-41541041D01*
X54984038Y-42856558D01*
X54962026Y-42874623D01*
X54889921Y-42962483D01*
X54836343Y-43062722D01*
X54823464Y-43105178D01*
X54803349Y-43171486D01*
X54797506Y-43230814D01*
X54795051Y-43255750D01*
X54792210Y-43284597D01*
X54795000Y-43312928D01*
X54795001Y-52817972D01*
X54621706Y-52933764D01*
X54457764Y-53097706D01*
X54328956Y-53290481D01*
X54240231Y-53504682D01*
X54195000Y-53732076D01*
X54195000Y-53963924D01*
X54240231Y-54191318D01*
X54328956Y-54405519D01*
X54457764Y-54598294D01*
X54621706Y-54762236D01*
X54814481Y-54891044D01*
X55028682Y-54979769D01*
X55256076Y-55025000D01*
X55487924Y-55025000D01*
X55715318Y-54979769D01*
X55929519Y-54891044D01*
X56122294Y-54762236D01*
X56286236Y-54598294D01*
X56415044Y-54405519D01*
X56503769Y-54191318D01*
X56549000Y-53963924D01*
X56549000Y-53732076D01*
X56503769Y-53504682D01*
X56415044Y-53290481D01*
X56286236Y-53097706D01*
X56122294Y-52933764D01*
X55949000Y-52817973D01*
X55949000Y-52701001D01*
X56775660Y-53527661D01*
X56735000Y-53732076D01*
X56735000Y-53963924D01*
X56780231Y-54191318D01*
X56868956Y-54405519D01*
X56997764Y-54598294D01*
X57161706Y-54762236D01*
X57354481Y-54891044D01*
X57568682Y-54979769D01*
X57796076Y-55025000D01*
X58027924Y-55025000D01*
X58255318Y-54979769D01*
X58469519Y-54891044D01*
X58662294Y-54762236D01*
X58826236Y-54598294D01*
X58955044Y-54405519D01*
X59043769Y-54191318D01*
X59089000Y-53963924D01*
X59089000Y-53732076D01*
X59043769Y-53504682D01*
X58955044Y-53290481D01*
X58826236Y-53097706D01*
X58662294Y-52933764D01*
X58469519Y-52804956D01*
X58255318Y-52716231D01*
X58027924Y-52671000D01*
X57796076Y-52671000D01*
X57591661Y-52711660D01*
X56726056Y-51846055D01*
X56726056Y-47260975D01*
X56845222Y-47340599D01*
X57043407Y-47422690D01*
X57253800Y-47464540D01*
X57468314Y-47464540D01*
X57678707Y-47422690D01*
X57876892Y-47340599D01*
X58055254Y-47221421D01*
X58206938Y-47069737D01*
X58285247Y-46952540D01*
X58709539Y-46952540D01*
X59875000Y-48118001D01*
X59875001Y-52669418D01*
X59602000Y-52669418D01*
X59537897Y-52675732D01*
X59476257Y-52694430D01*
X59419450Y-52724794D01*
X59369657Y-52765657D01*
X59328794Y-52815450D01*
X59298430Y-52872257D01*
X59279732Y-52933897D01*
X59273418Y-52998000D01*
X59273418Y-54698000D01*
X59279732Y-54762103D01*
X59298430Y-54823743D01*
X59328794Y-54880550D01*
X59369657Y-54930343D01*
X59419450Y-54971206D01*
X59476257Y-55001570D01*
X59537897Y-55020268D01*
X59602000Y-55026582D01*
X60967419Y-55026582D01*
X60183001Y-55811000D01*
X47991001Y-55811000D01*
X46348340Y-54168339D01*
X46389000Y-53963924D01*
X46389000Y-53732076D01*
X46575000Y-53732076D01*
X46575000Y-53963924D01*
X46620231Y-54191318D01*
X46708956Y-54405519D01*
X46837764Y-54598294D01*
X47001706Y-54762236D01*
X47194481Y-54891044D01*
X47408682Y-54979769D01*
X47636076Y-55025000D01*
X47867924Y-55025000D01*
X48095318Y-54979769D01*
X48309519Y-54891044D01*
X48502294Y-54762236D01*
X48666236Y-54598294D01*
X48795044Y-54405519D01*
X48883769Y-54191318D01*
X48929000Y-53963924D01*
X48929000Y-53732076D01*
X49115000Y-53732076D01*
X49115000Y-53963924D01*
X49160231Y-54191318D01*
X49248956Y-54405519D01*
X49377764Y-54598294D01*
X49541706Y-54762236D01*
X49734481Y-54891044D01*
X49948682Y-54979769D01*
X50176076Y-55025000D01*
X50407924Y-55025000D01*
X50635318Y-54979769D01*
X50849519Y-54891044D01*
X51042294Y-54762236D01*
X51206236Y-54598294D01*
X51335044Y-54405519D01*
X51423769Y-54191318D01*
X51469000Y-53963924D01*
X51469000Y-53732076D01*
X51428340Y-53527662D01*
X51529967Y-53426035D01*
X51551973Y-53407975D01*
X51624078Y-53320116D01*
X51677656Y-53219877D01*
X51710649Y-53111113D01*
X51718999Y-53026337D01*
X51718999Y-53026331D01*
X51721789Y-52998002D01*
X51718999Y-52969673D01*
X51718999Y-42938004D01*
X56380936Y-38276068D01*
X56313907Y-38437890D01*
X56272057Y-38648283D01*
X56272057Y-38862797D01*
X56299555Y-39001041D01*
X52444038Y-42856558D01*
X52422026Y-42874623D01*
X52349921Y-42962483D01*
X52296343Y-43062722D01*
X52283464Y-43105178D01*
X52263349Y-43171486D01*
X52257506Y-43230814D01*
X52255051Y-43255750D01*
X52252210Y-43284597D01*
X52255000Y-43312928D01*
X52255001Y-52817972D01*
X52081706Y-52933764D01*
X51917764Y-53097706D01*
X51788956Y-53290481D01*
X51700231Y-53504682D01*
X51655000Y-53732076D01*
X51655000Y-53963924D01*
X51700231Y-54191318D01*
X51788956Y-54405519D01*
X51917764Y-54598294D01*
X52081706Y-54762236D01*
X52274481Y-54891044D01*
X52488682Y-54979769D01*
X52716076Y-55025000D01*
X52947924Y-55025000D01*
X53175318Y-54979769D01*
X53389519Y-54891044D01*
X53582294Y-54762236D01*
X53746236Y-54598294D01*
X53875044Y-54405519D01*
X53963769Y-54191318D01*
X54009000Y-53963924D01*
X54009000Y-53732076D01*
X53963769Y-53504682D01*
X53875044Y-53290481D01*
X53746236Y-53097706D01*
X53582294Y-52933764D01*
X53409000Y-52817973D01*
X53409000Y-43523598D01*
X57115556Y-39817042D01*
X57253800Y-39844540D01*
X57468314Y-39844540D01*
X57678707Y-39802690D01*
X57876892Y-39720599D01*
X58055254Y-39601421D01*
X58206938Y-39449737D01*
X58326116Y-39271375D01*
X58408207Y-39073190D01*
X58450057Y-38862797D01*
X58450057Y-38648283D01*
X58408207Y-38437890D01*
X58326116Y-38239705D01*
X58206938Y-38061343D01*
X58055254Y-37909659D01*
X57876892Y-37790481D01*
X57678707Y-37708390D01*
X57468314Y-37666540D01*
X57253800Y-37666540D01*
X57043407Y-37708390D01*
X56881585Y-37775419D01*
X57352464Y-37304540D01*
X57468314Y-37304540D01*
X57678707Y-37262690D01*
X57876892Y-37180599D01*
X58055254Y-37061421D01*
X58206938Y-36909737D01*
X58326116Y-36731375D01*
X58408207Y-36533190D01*
X58450057Y-36322797D01*
X58450057Y-36108283D01*
X58408207Y-35897890D01*
X58326116Y-35699705D01*
X58206938Y-35521343D01*
X58055254Y-35369659D01*
X57876892Y-35250481D01*
X57678707Y-35168390D01*
X57468314Y-35126540D01*
X57253800Y-35126540D01*
X57043407Y-35168390D01*
X56845222Y-35250481D01*
X56666860Y-35369659D01*
X56515176Y-35521343D01*
X56395998Y-35699705D01*
X56313907Y-35897890D01*
X56272057Y-36108283D01*
X56272057Y-36322797D01*
X56313907Y-36533190D01*
X56366014Y-36658986D01*
X50754033Y-42270968D01*
X50732026Y-42289029D01*
X50713965Y-42311036D01*
X50713962Y-42311039D01*
X50690839Y-42339215D01*
X50659921Y-42376888D01*
X50655831Y-42384540D01*
X50606343Y-42477127D01*
X50573348Y-42585892D01*
X50562209Y-42699003D01*
X50565000Y-42727344D01*
X50564999Y-52702244D01*
X50407924Y-52671000D01*
X50176076Y-52671000D01*
X49948682Y-52716231D01*
X49734481Y-52804956D01*
X49541706Y-52933764D01*
X49377764Y-53097706D01*
X49248956Y-53290481D01*
X49160231Y-53504682D01*
X49115000Y-53732076D01*
X48929000Y-53732076D01*
X48883769Y-53504682D01*
X48795044Y-53290481D01*
X48666236Y-53097706D01*
X48502294Y-52933764D01*
X48329000Y-52817973D01*
X48329000Y-43523598D01*
X57115556Y-34737042D01*
X57253800Y-34764540D01*
X57468314Y-34764540D01*
X57678707Y-34722690D01*
X57876892Y-34640599D01*
X58055254Y-34521421D01*
X58206938Y-34369737D01*
X58326116Y-34191375D01*
X58408207Y-33993190D01*
X58450057Y-33782797D01*
X58450057Y-33568283D01*
X58408207Y-33357890D01*
X58326116Y-33159705D01*
X58206938Y-32981343D01*
X58055254Y-32829659D01*
X57876892Y-32710481D01*
X57678707Y-32628390D01*
X57468314Y-32586540D01*
X57253800Y-32586540D01*
X57043407Y-32628390D01*
X56845222Y-32710481D01*
X56666860Y-32829659D01*
X56515176Y-32981343D01*
X56395998Y-33159705D01*
X56313907Y-33357890D01*
X56272057Y-33568283D01*
X56272057Y-33782797D01*
X56299555Y-33921041D01*
X47364038Y-42856558D01*
X47342026Y-42874623D01*
X47269921Y-42962483D01*
X47216343Y-43062722D01*
X47203464Y-43105178D01*
X47183349Y-43171486D01*
X47177506Y-43230814D01*
X47175051Y-43255750D01*
X47172210Y-43284597D01*
X47175000Y-43312928D01*
X47175001Y-52817972D01*
X47001706Y-52933764D01*
X46837764Y-53097706D01*
X46708956Y-53290481D01*
X46620231Y-53504682D01*
X46575000Y-53732076D01*
X46389000Y-53732076D01*
X46343769Y-53504682D01*
X46255044Y-53290481D01*
X46126236Y-53097706D01*
X45962294Y-52933764D01*
X45769519Y-52804956D01*
X45555318Y-52716231D01*
X45327924Y-52671000D01*
X45096076Y-52671000D01*
X44868682Y-52716231D01*
X44654481Y-52804956D01*
X44461706Y-52933764D01*
X44297764Y-53097706D01*
X44168956Y-53290481D01*
X44080231Y-53504682D01*
X44035000Y-53732076D01*
X44035000Y-53963924D01*
X44080231Y-54191318D01*
X44168956Y-54405519D01*
X44297764Y-54598294D01*
X44461706Y-54762236D01*
X44654481Y-54891044D01*
X44868682Y-54979769D01*
X45096076Y-55025000D01*
X45327924Y-55025000D01*
X45532339Y-54984340D01*
X47059009Y-56511010D01*
X46151012Y-56511010D01*
X43808340Y-54168339D01*
X43849000Y-53963924D01*
X43849000Y-53732076D01*
X43803769Y-53504682D01*
X43715044Y-53290481D01*
X43586236Y-53097706D01*
X43422294Y-52933764D01*
X43229519Y-52804956D01*
X43015318Y-52716231D01*
X42787924Y-52671000D01*
X42556076Y-52671000D01*
X42328682Y-52716231D01*
X42114481Y-52804956D01*
X41921706Y-52933764D01*
X41757764Y-53097706D01*
X41628956Y-53290481D01*
X41540231Y-53504682D01*
X41495000Y-53732076D01*
X41309000Y-53732076D01*
X41263769Y-53504682D01*
X41175044Y-53290481D01*
X41046236Y-53097706D01*
X40882294Y-52933764D01*
X40709000Y-52817973D01*
X40709000Y-49314999D01*
X52457962Y-37566037D01*
X52479974Y-37547972D01*
X52552079Y-37460113D01*
X52595817Y-37378283D01*
X52605657Y-37359875D01*
X52638651Y-37251110D01*
X52649791Y-37137998D01*
X52647000Y-37109659D01*
X52647000Y-34853397D01*
X53375000Y-34853397D01*
X53375000Y-34996603D01*
X53402938Y-35137058D01*
X53457741Y-35269364D01*
X53537302Y-35388436D01*
X53638564Y-35489698D01*
X53757636Y-35569259D01*
X53889942Y-35624062D01*
X54030397Y-35652000D01*
X54173603Y-35652000D01*
X54314058Y-35624062D01*
X54446364Y-35569259D01*
X54565436Y-35489698D01*
X54666698Y-35388436D01*
X54746259Y-35269364D01*
X54801062Y-35137058D01*
X54829000Y-34996603D01*
X54829000Y-34853397D01*
X54801062Y-34712942D01*
X54746259Y-34580636D01*
X54679000Y-34479975D01*
X54679000Y-29553598D01*
X57115556Y-27117042D01*
X57253800Y-27144540D01*
X57468314Y-27144540D01*
X57678707Y-27102690D01*
X57875670Y-27021105D01*
X64195097Y-27021105D01*
X64262077Y-27261196D01*
X64511105Y-27378296D01*
X64778192Y-27444563D01*
X65053074Y-27457450D01*
X65325190Y-27416462D01*
X65584080Y-27323176D01*
X65700037Y-27261196D01*
X65767017Y-27021105D01*
X64981057Y-26235145D01*
X64195097Y-27021105D01*
X57875670Y-27021105D01*
X57876892Y-27020599D01*
X58055254Y-26901421D01*
X58206938Y-26749737D01*
X58326116Y-26571375D01*
X58408207Y-26373190D01*
X58450057Y-26162797D01*
X58450057Y-26127557D01*
X63579147Y-26127557D01*
X63620135Y-26399673D01*
X63713421Y-26658563D01*
X63775401Y-26774520D01*
X64015492Y-26841500D01*
X64801452Y-26055540D01*
X65160662Y-26055540D01*
X65946622Y-26841500D01*
X66186713Y-26774520D01*
X66303813Y-26525492D01*
X66370080Y-26258405D01*
X66382967Y-25983523D01*
X66341979Y-25711407D01*
X66248693Y-25452517D01*
X66186713Y-25336560D01*
X65946622Y-25269580D01*
X65160662Y-26055540D01*
X64801452Y-26055540D01*
X64015492Y-25269580D01*
X63775401Y-25336560D01*
X63658301Y-25585588D01*
X63592034Y-25852675D01*
X63579147Y-26127557D01*
X58450057Y-26127557D01*
X58450057Y-25948283D01*
X58408207Y-25737890D01*
X58326116Y-25539705D01*
X58206938Y-25361343D01*
X58055254Y-25209659D01*
X57876892Y-25090481D01*
X57875671Y-25089975D01*
X64195097Y-25089975D01*
X64981057Y-25875935D01*
X65767017Y-25089975D01*
X65700037Y-24849884D01*
X65451009Y-24732784D01*
X65183922Y-24666517D01*
X64909040Y-24653630D01*
X64636924Y-24694618D01*
X64378034Y-24787904D01*
X64262077Y-24849884D01*
X64195097Y-25089975D01*
X57875671Y-25089975D01*
X57678707Y-25008390D01*
X57468314Y-24966540D01*
X57253800Y-24966540D01*
X57043407Y-25008390D01*
X56845222Y-25090481D01*
X56666860Y-25209659D01*
X56515176Y-25361343D01*
X56395998Y-25539705D01*
X56313907Y-25737890D01*
X56272057Y-25948283D01*
X56272057Y-26162797D01*
X56299555Y-26301041D01*
X53714034Y-28886562D01*
X53692027Y-28904623D01*
X53673966Y-28926630D01*
X53673963Y-28926633D01*
X53650840Y-28954809D01*
X53619922Y-28992482D01*
X53580222Y-29066757D01*
X53566344Y-29092721D01*
X53533349Y-29201486D01*
X53522210Y-29314597D01*
X53525001Y-29342938D01*
X53525000Y-34479975D01*
X53457741Y-34580636D01*
X53402938Y-34712942D01*
X53375000Y-34853397D01*
X52647000Y-34853397D01*
X52647000Y-32124834D01*
X52764197Y-32046525D01*
X52915881Y-31894841D01*
X53035059Y-31716479D01*
X53117150Y-31518294D01*
X53159000Y-31307901D01*
X53159000Y-31093387D01*
X53117150Y-30882994D01*
X53035059Y-30684809D01*
X52915881Y-30506447D01*
X52764197Y-30354763D01*
X52585835Y-30235585D01*
X52387650Y-30153494D01*
X52177257Y-30111644D01*
X51962743Y-30111644D01*
X51752350Y-30153494D01*
X51554165Y-30235585D01*
X51375803Y-30354763D01*
X51224119Y-30506447D01*
X51104941Y-30684809D01*
X51022850Y-30882994D01*
X50981000Y-31093387D01*
X50981000Y-31307901D01*
X51022850Y-31518294D01*
X51104941Y-31716479D01*
X51224119Y-31894841D01*
X51375803Y-32046525D01*
X51493000Y-32124834D01*
X51493001Y-36898996D01*
X50107000Y-38284997D01*
X50107000Y-32124834D01*
X50224197Y-32046525D01*
X50375881Y-31894841D01*
X50495059Y-31716479D01*
X50577150Y-31518294D01*
X50619000Y-31307901D01*
X50619000Y-31093387D01*
X50577150Y-30882994D01*
X50495059Y-30684809D01*
X50375881Y-30506447D01*
X50224197Y-30354763D01*
X50045835Y-30235585D01*
X49847650Y-30153494D01*
X49637257Y-30111644D01*
X49422743Y-30111644D01*
X49212350Y-30153494D01*
X49014165Y-30235585D01*
X48835803Y-30354763D01*
X48684119Y-30506447D01*
X48564941Y-30684809D01*
X48482850Y-30882994D01*
X48441000Y-31093387D01*
X48441000Y-31307901D01*
X48482850Y-31518294D01*
X48564941Y-31716479D01*
X48684119Y-31894841D01*
X48835803Y-32046525D01*
X48953000Y-32124834D01*
X48953001Y-38188000D01*
X37204038Y-49936963D01*
X37182026Y-49955028D01*
X37109921Y-50042888D01*
X37056343Y-50143127D01*
X37050727Y-50161642D01*
X37023349Y-50251891D01*
X37012210Y-50365002D01*
X37015000Y-50393333D01*
X37015001Y-52817972D01*
X36841706Y-52933764D01*
X36677764Y-53097706D01*
X36548956Y-53290481D01*
X36460231Y-53504682D01*
X36415000Y-53732076D01*
X36229000Y-53732076D01*
X36183769Y-53504682D01*
X36095044Y-53290481D01*
X35966236Y-53097706D01*
X35802294Y-52933764D01*
X35629000Y-52817973D01*
X35629000Y-51219999D01*
X47377962Y-39471037D01*
X47399974Y-39452972D01*
X47472079Y-39365113D01*
X47513112Y-39288345D01*
X47525657Y-39264875D01*
X47558651Y-39156110D01*
X47569791Y-39042998D01*
X47567000Y-39014659D01*
X47567000Y-32124834D01*
X47684197Y-32046525D01*
X47835881Y-31894841D01*
X47955059Y-31716479D01*
X48037150Y-31518294D01*
X48079000Y-31307901D01*
X48079000Y-31093387D01*
X48037150Y-30882994D01*
X47955059Y-30684809D01*
X47835881Y-30506447D01*
X47684197Y-30354763D01*
X47505835Y-30235585D01*
X47307650Y-30153494D01*
X47097257Y-30111644D01*
X46882743Y-30111644D01*
X46672350Y-30153494D01*
X46474165Y-30235585D01*
X46295803Y-30354763D01*
X46144119Y-30506447D01*
X46024941Y-30684809D01*
X45942850Y-30882994D01*
X45901000Y-31093387D01*
X45901000Y-31307901D01*
X45942850Y-31518294D01*
X46024941Y-31716479D01*
X46144119Y-31894841D01*
X46295803Y-32046525D01*
X46413000Y-32124834D01*
X46413001Y-38803996D01*
X34664038Y-50552959D01*
X34642026Y-50571024D01*
X34569921Y-50658884D01*
X34516343Y-50759123D01*
X34506055Y-50793039D01*
X34483349Y-50867887D01*
X34480122Y-50900658D01*
X34475776Y-50944792D01*
X34472210Y-50980998D01*
X34475000Y-51009329D01*
X34475001Y-52817972D01*
X34301706Y-52933764D01*
X34137764Y-53097706D01*
X34008956Y-53290481D01*
X33920231Y-53504682D01*
X33875000Y-53732076D01*
X33689000Y-53732076D01*
X33643769Y-53504682D01*
X33555044Y-53290481D01*
X33426236Y-53097706D01*
X33262294Y-52933764D01*
X33089000Y-52817973D01*
X33089000Y-52001003D01*
X44837962Y-40252041D01*
X44859974Y-40233976D01*
X44932079Y-40146117D01*
X44971816Y-40071774D01*
X44985657Y-40045879D01*
X45018651Y-39937114D01*
X45029791Y-39824002D01*
X45027000Y-39795663D01*
X45027000Y-32124834D01*
X45144197Y-32046525D01*
X45295881Y-31894841D01*
X45415059Y-31716479D01*
X45497150Y-31518294D01*
X45539000Y-31307901D01*
X45539000Y-31093387D01*
X45497150Y-30882994D01*
X45415059Y-30684809D01*
X45295881Y-30506447D01*
X45144197Y-30354763D01*
X44965835Y-30235585D01*
X44767650Y-30153494D01*
X44557257Y-30111644D01*
X44342743Y-30111644D01*
X44132350Y-30153494D01*
X43934165Y-30235585D01*
X43755803Y-30354763D01*
X43604119Y-30506447D01*
X43484941Y-30684809D01*
X43402850Y-30882994D01*
X43361000Y-31093387D01*
X43361000Y-31307901D01*
X43402850Y-31518294D01*
X43484941Y-31716479D01*
X43604119Y-31894841D01*
X43755803Y-32046525D01*
X43873000Y-32124834D01*
X43873001Y-39585000D01*
X32124038Y-51333963D01*
X32102026Y-51352028D01*
X32029921Y-51439888D01*
X31976343Y-51540127D01*
X31973455Y-51549649D01*
X31943349Y-51648891D01*
X31932210Y-51762002D01*
X31935000Y-51790333D01*
X31935001Y-52817972D01*
X31761706Y-52933764D01*
X31597764Y-53097706D01*
X31468956Y-53290481D01*
X31380231Y-53504682D01*
X31335000Y-53732076D01*
X31149000Y-53732076D01*
X31103769Y-53504682D01*
X31015044Y-53290481D01*
X30886236Y-53097706D01*
X30722294Y-52933764D01*
X30549000Y-52817973D01*
X30549000Y-51805794D01*
X42297962Y-40056832D01*
X42319974Y-40038767D01*
X42392079Y-39950908D01*
X42444765Y-39852338D01*
X42445657Y-39850670D01*
X42478651Y-39741905D01*
X42489791Y-39628793D01*
X42487000Y-39600454D01*
X42487000Y-32124834D01*
X42604197Y-32046525D01*
X42755881Y-31894841D01*
X42875059Y-31716479D01*
X42957150Y-31518294D01*
X42999000Y-31307901D01*
X42999000Y-31093387D01*
X42957150Y-30882994D01*
X42875059Y-30684809D01*
X42755881Y-30506447D01*
X42604197Y-30354763D01*
X42425835Y-30235585D01*
X42227650Y-30153494D01*
X42017257Y-30111644D01*
X41802743Y-30111644D01*
X41592350Y-30153494D01*
X41394165Y-30235585D01*
X41215803Y-30354763D01*
X41064119Y-30506447D01*
X40944941Y-30684809D01*
X40862850Y-30882994D01*
X40821000Y-31093387D01*
X40821000Y-31307901D01*
X40862850Y-31518294D01*
X40944941Y-31716479D01*
X41064119Y-31894841D01*
X41215803Y-32046525D01*
X41333000Y-32124834D01*
X41333001Y-39389791D01*
X29584038Y-51138754D01*
X29562026Y-51156819D01*
X29489921Y-51244679D01*
X29436343Y-51344918D01*
X29427510Y-51374038D01*
X29403349Y-51453682D01*
X29392210Y-51566793D01*
X29395000Y-51595124D01*
X29395001Y-52817972D01*
X29221706Y-52933764D01*
X29057764Y-53097706D01*
X28928956Y-53290481D01*
X28840231Y-53504682D01*
X28795000Y-53732076D01*
X28609000Y-53732076D01*
X28563769Y-53504682D01*
X28475044Y-53290481D01*
X28346236Y-53097706D01*
X28182294Y-52933764D01*
X27989519Y-52804956D01*
X27775318Y-52716231D01*
X27547924Y-52671000D01*
X27316076Y-52671000D01*
X27088682Y-52716231D01*
X26874481Y-52804956D01*
X26681706Y-52933764D01*
X26517764Y-53097706D01*
X26388956Y-53290481D01*
X26300231Y-53504682D01*
X26255000Y-53732076D01*
X26255000Y-53963924D01*
X26300231Y-54191318D01*
X26388956Y-54405519D01*
X26503320Y-54576677D01*
X26092989Y-54987008D01*
X25198925Y-54987008D01*
X25235318Y-54979769D01*
X25449519Y-54891044D01*
X25642294Y-54762236D01*
X25806236Y-54598294D01*
X25935044Y-54405519D01*
X26023769Y-54191318D01*
X26069000Y-53963924D01*
X26069000Y-53732076D01*
X26023769Y-53504682D01*
X25935044Y-53290481D01*
X25806236Y-53097706D01*
X25642294Y-52933764D01*
X25449519Y-52804956D01*
X25382991Y-52777399D01*
X25382991Y-50392415D01*
X25436636Y-50428259D01*
X25568942Y-50483062D01*
X25709397Y-50511000D01*
X25852603Y-50511000D01*
X25993058Y-50483062D01*
X26125364Y-50428259D01*
X26244436Y-50348698D01*
X26345698Y-50247436D01*
X26425259Y-50128364D01*
X26480062Y-49996058D01*
X26508000Y-49855603D01*
X26508000Y-49712397D01*
X26480062Y-49571942D01*
X26425259Y-49439636D01*
X26345698Y-49320564D01*
X26244436Y-49219302D01*
X26125364Y-49139741D01*
X25993058Y-49084938D01*
X25852603Y-49057000D01*
X25833001Y-49057000D01*
X25833001Y-47817531D01*
X25919706Y-47904236D01*
X26112481Y-48033044D01*
X26326682Y-48121769D01*
X26554076Y-48167000D01*
X26785924Y-48167000D01*
X27013318Y-48121769D01*
X27227519Y-48033044D01*
X27420294Y-47904236D01*
X27584236Y-47740294D01*
X27713044Y-47547519D01*
X27801769Y-47333318D01*
X27847000Y-47105924D01*
X27847000Y-46874076D01*
X29303000Y-46874076D01*
X29303000Y-47105924D01*
X29348231Y-47333318D01*
X29436956Y-47547519D01*
X29565764Y-47740294D01*
X29729706Y-47904236D01*
X29922481Y-48033044D01*
X30136682Y-48121769D01*
X30364076Y-48167000D01*
X30595924Y-48167000D01*
X30823318Y-48121769D01*
X31037519Y-48033044D01*
X31230294Y-47904236D01*
X31394236Y-47740294D01*
X31523044Y-47547519D01*
X31611769Y-47333318D01*
X31657000Y-47105924D01*
X31657000Y-46874076D01*
X31611769Y-46646682D01*
X31523044Y-46432481D01*
X31394236Y-46239706D01*
X31230294Y-46075764D01*
X31037519Y-45946956D01*
X30823318Y-45858231D01*
X30595924Y-45813000D01*
X30364076Y-45813000D01*
X30136682Y-45858231D01*
X29922481Y-45946956D01*
X29729706Y-46075764D01*
X29565764Y-46239706D01*
X29436956Y-46432481D01*
X29348231Y-46646682D01*
X29303000Y-46874076D01*
X27847000Y-46874076D01*
X27801769Y-46646682D01*
X27713044Y-46432481D01*
X27584236Y-46239706D01*
X27420294Y-46075764D01*
X27227519Y-45946956D01*
X27013318Y-45858231D01*
X26785924Y-45813000D01*
X26554076Y-45813000D01*
X26326682Y-45858231D01*
X26112481Y-45946956D01*
X25919706Y-46075764D01*
X25833001Y-46162469D01*
X25833001Y-45277531D01*
X25919706Y-45364236D01*
X26112481Y-45493044D01*
X26326682Y-45581769D01*
X26554076Y-45627000D01*
X26785924Y-45627000D01*
X27013318Y-45581769D01*
X27227519Y-45493044D01*
X27420294Y-45364236D01*
X27584236Y-45200294D01*
X27713044Y-45007519D01*
X27801769Y-44793318D01*
X27847000Y-44565924D01*
X27847000Y-44334076D01*
X27801769Y-44106682D01*
X27713044Y-43892481D01*
X27584236Y-43699706D01*
X27420294Y-43535764D01*
X27227519Y-43406956D01*
X27062821Y-43338736D01*
X27301252Y-43254157D01*
X27551355Y-43105178D01*
X27767588Y-42910269D01*
X27941641Y-42676920D01*
X28066825Y-42414099D01*
X28111476Y-42266890D01*
X29038524Y-42266890D01*
X29083175Y-42414099D01*
X29208359Y-42676920D01*
X29382412Y-42910269D01*
X29598645Y-43105178D01*
X29848748Y-43254157D01*
X30087179Y-43338736D01*
X29922481Y-43406956D01*
X29729706Y-43535764D01*
X29565764Y-43699706D01*
X29436956Y-43892481D01*
X29348231Y-44106682D01*
X29303000Y-44334076D01*
X29303000Y-44565924D01*
X29348231Y-44793318D01*
X29436956Y-45007519D01*
X29565764Y-45200294D01*
X29729706Y-45364236D01*
X29922481Y-45493044D01*
X30136682Y-45581769D01*
X30364076Y-45627000D01*
X30595924Y-45627000D01*
X30823318Y-45581769D01*
X31037519Y-45493044D01*
X31230294Y-45364236D01*
X31394236Y-45200294D01*
X31523044Y-45007519D01*
X31611769Y-44793318D01*
X31657000Y-44565924D01*
X31657000Y-44334076D01*
X31611769Y-44106682D01*
X31523044Y-43892481D01*
X31394236Y-43699706D01*
X31230294Y-43535764D01*
X31037519Y-43406956D01*
X30872821Y-43338736D01*
X31111252Y-43254157D01*
X31361355Y-43105178D01*
X31577588Y-42910269D01*
X31751641Y-42676920D01*
X31876825Y-42414099D01*
X31921476Y-42266890D01*
X31800155Y-42037000D01*
X30607000Y-42037000D01*
X30607000Y-42057000D01*
X30353000Y-42057000D01*
X30353000Y-42037000D01*
X29159845Y-42037000D01*
X29038524Y-42266890D01*
X28111476Y-42266890D01*
X27990155Y-42037000D01*
X26797000Y-42037000D01*
X26797000Y-42057000D01*
X26543000Y-42057000D01*
X26543000Y-42037000D01*
X26523000Y-42037000D01*
X26523000Y-41783000D01*
X26543000Y-41783000D01*
X26543000Y-41763000D01*
X26797000Y-41763000D01*
X26797000Y-41783000D01*
X27990155Y-41783000D01*
X28111476Y-41553110D01*
X29038524Y-41553110D01*
X29159845Y-41783000D01*
X30353000Y-41783000D01*
X30353000Y-41763000D01*
X30607000Y-41763000D01*
X30607000Y-41783000D01*
X31800155Y-41783000D01*
X31921476Y-41553110D01*
X31876825Y-41405901D01*
X31751641Y-41143080D01*
X31577588Y-40909731D01*
X31361355Y-40714822D01*
X31111252Y-40565843D01*
X30872821Y-40481264D01*
X31037519Y-40413044D01*
X31230294Y-40284236D01*
X31394236Y-40120294D01*
X31523044Y-39927519D01*
X31611769Y-39713318D01*
X31657000Y-39485924D01*
X31657000Y-39254076D01*
X31611769Y-39026682D01*
X31523044Y-38812481D01*
X31394236Y-38619706D01*
X31230294Y-38455764D01*
X31037519Y-38326956D01*
X30823318Y-38238231D01*
X30595924Y-38193000D01*
X30364076Y-38193000D01*
X30136682Y-38238231D01*
X29922481Y-38326956D01*
X29729706Y-38455764D01*
X29565764Y-38619706D01*
X29436956Y-38812481D01*
X29348231Y-39026682D01*
X29303000Y-39254076D01*
X29303000Y-39485924D01*
X29348231Y-39713318D01*
X29436956Y-39927519D01*
X29565764Y-40120294D01*
X29729706Y-40284236D01*
X29922481Y-40413044D01*
X30087179Y-40481264D01*
X29848748Y-40565843D01*
X29598645Y-40714822D01*
X29382412Y-40909731D01*
X29208359Y-41143080D01*
X29083175Y-41405901D01*
X29038524Y-41553110D01*
X28111476Y-41553110D01*
X28066825Y-41405901D01*
X27941641Y-41143080D01*
X27767588Y-40909731D01*
X27551355Y-40714822D01*
X27301252Y-40565843D01*
X27062821Y-40481264D01*
X27227519Y-40413044D01*
X27420294Y-40284236D01*
X27584236Y-40120294D01*
X27713044Y-39927519D01*
X27801769Y-39713318D01*
X27847000Y-39485924D01*
X27847000Y-39254076D01*
X27801769Y-39026682D01*
X27713044Y-38812481D01*
X27584236Y-38619706D01*
X27420294Y-38455764D01*
X27227519Y-38326956D01*
X27013318Y-38238231D01*
X26785924Y-38193000D01*
X26554076Y-38193000D01*
X26326682Y-38238231D01*
X26112481Y-38326956D01*
X25919706Y-38455764D01*
X25833001Y-38542469D01*
X25833001Y-38306222D01*
X26130641Y-38008582D01*
X27520000Y-38008582D01*
X27584103Y-38002268D01*
X27645743Y-37983570D01*
X27702550Y-37953206D01*
X27752343Y-37912343D01*
X27793206Y-37862550D01*
X27823570Y-37805743D01*
X27842268Y-37744103D01*
X27848582Y-37680000D01*
X27848582Y-35980000D01*
X29301418Y-35980000D01*
X29301418Y-37680000D01*
X29307732Y-37744103D01*
X29326430Y-37805743D01*
X29356794Y-37862550D01*
X29397657Y-37912343D01*
X29447450Y-37953206D01*
X29504257Y-37983570D01*
X29565897Y-38002268D01*
X29630000Y-38008582D01*
X31330000Y-38008582D01*
X31394103Y-38002268D01*
X31455743Y-37983570D01*
X31512550Y-37953206D01*
X31562343Y-37912343D01*
X31603206Y-37862550D01*
X31633570Y-37805743D01*
X31652268Y-37744103D01*
X31658582Y-37680000D01*
X31658582Y-35980000D01*
X31652268Y-35915897D01*
X31633570Y-35854257D01*
X31603206Y-35797450D01*
X31562343Y-35747657D01*
X31512550Y-35706794D01*
X31455743Y-35676430D01*
X31394103Y-35657732D01*
X31330000Y-35651418D01*
X29630000Y-35651418D01*
X29565897Y-35657732D01*
X29504257Y-35676430D01*
X29447450Y-35706794D01*
X29397657Y-35747657D01*
X29356794Y-35797450D01*
X29326430Y-35854257D01*
X29307732Y-35915897D01*
X29301418Y-35980000D01*
X27848582Y-35980000D01*
X27842268Y-35915897D01*
X27823570Y-35854257D01*
X27793206Y-35797450D01*
X27752343Y-35747657D01*
X27702550Y-35706794D01*
X27645743Y-35676430D01*
X27584103Y-35657732D01*
X27520000Y-35651418D01*
X26154581Y-35651418D01*
X28816354Y-32989645D01*
X35589668Y-32989645D01*
X35617999Y-32992435D01*
X35646330Y-32989645D01*
X35646335Y-32989645D01*
X35676044Y-32986719D01*
X35731110Y-32981296D01*
X35775769Y-32967748D01*
X35839875Y-32948302D01*
X35940114Y-32894724D01*
X36027973Y-32822619D01*
X36046038Y-32800607D01*
X36584500Y-32262146D01*
X36722743Y-32289644D01*
X36937257Y-32289644D01*
X37147650Y-32247794D01*
X37345835Y-32165703D01*
X37524197Y-32046525D01*
X37675881Y-31894841D01*
X37795059Y-31716479D01*
X37877150Y-31518294D01*
X37919000Y-31307901D01*
X37919000Y-31093387D01*
X37877150Y-30882994D01*
X37795059Y-30684809D01*
X37675881Y-30506447D01*
X37524197Y-30354763D01*
X37345835Y-30235585D01*
X37147650Y-30153494D01*
X36937257Y-30111644D01*
X36722743Y-30111644D01*
X36512350Y-30153494D01*
X36314165Y-30235585D01*
X36135803Y-30354763D01*
X35984119Y-30506447D01*
X35864941Y-30684809D01*
X35782850Y-30882994D01*
X35741000Y-31093387D01*
X35741000Y-31307901D01*
X35768498Y-31446144D01*
X35378998Y-31835645D01*
X35175435Y-31835645D01*
X35255059Y-31716479D01*
X35337150Y-31518294D01*
X35379000Y-31307901D01*
X35379000Y-31093387D01*
X35337150Y-30882994D01*
X35255059Y-30684809D01*
X35135881Y-30506447D01*
X34984197Y-30354763D01*
X34805835Y-30235585D01*
X34607650Y-30153494D01*
X34397257Y-30111644D01*
X34182743Y-30111644D01*
X34044500Y-30139142D01*
X33770990Y-29865633D01*
X37218988Y-29865633D01*
X38308498Y-30955143D01*
X38281000Y-31093387D01*
X38281000Y-31307901D01*
X38322850Y-31518294D01*
X38404941Y-31716479D01*
X38524119Y-31894841D01*
X38675803Y-32046525D01*
X38854165Y-32165703D01*
X39052350Y-32247794D01*
X39262743Y-32289644D01*
X39477257Y-32289644D01*
X39687650Y-32247794D01*
X39885835Y-32165703D01*
X40064197Y-32046525D01*
X40215881Y-31894841D01*
X40335059Y-31716479D01*
X40417150Y-31518294D01*
X40459000Y-31307901D01*
X40459000Y-31093387D01*
X40417150Y-30882994D01*
X40335059Y-30684809D01*
X40215881Y-30506447D01*
X40064197Y-30354763D01*
X39885835Y-30235585D01*
X39687650Y-30153494D01*
X39477257Y-30111644D01*
X39262743Y-30111644D01*
X39124499Y-30139142D01*
X37886028Y-28900671D01*
X37867963Y-28878659D01*
X37780104Y-28806554D01*
X37679865Y-28752976D01*
X37615759Y-28733530D01*
X37571100Y-28719982D01*
X37516034Y-28714559D01*
X37486325Y-28711633D01*
X37486320Y-28711633D01*
X37457989Y-28708843D01*
X37429658Y-28711633D01*
X29749770Y-28711633D01*
X29721439Y-28708843D01*
X29693108Y-28711633D01*
X29693104Y-28711633D01*
X29669411Y-28713967D01*
X29608328Y-28719982D01*
X29544222Y-28739429D01*
X29499564Y-28752976D01*
X29399325Y-28806554D01*
X29353420Y-28844228D01*
X29333475Y-28860596D01*
X29333473Y-28860598D01*
X29311466Y-28878659D01*
X29293405Y-28900666D01*
X20664037Y-37530035D01*
X20642025Y-37548100D01*
X20569920Y-37635960D01*
X20516342Y-37736199D01*
X20508774Y-37761147D01*
X20483348Y-37844963D01*
X20477333Y-37906046D01*
X20476713Y-37912343D01*
X20472209Y-37958074D01*
X20279000Y-37958074D01*
X20279000Y-23940207D01*
X22965000Y-23940207D01*
X22965000Y-24319793D01*
X23039053Y-24692085D01*
X23184315Y-25042777D01*
X23395201Y-25358391D01*
X23663609Y-25626799D01*
X23979223Y-25837685D01*
X24329915Y-25982947D01*
X24702207Y-26057000D01*
X25081793Y-26057000D01*
X25454085Y-25982947D01*
X25804777Y-25837685D01*
X26120391Y-25626799D01*
X26388799Y-25358391D01*
X26599685Y-25042777D01*
X26744947Y-24692085D01*
X26773963Y-24546209D01*
X30964040Y-24546209D01*
X31031020Y-24786300D01*
X31280048Y-24903400D01*
X31547135Y-24969667D01*
X31822017Y-24982554D01*
X32094133Y-24941566D01*
X32353023Y-24848280D01*
X32468980Y-24786300D01*
X32535960Y-24546209D01*
X31750000Y-23760249D01*
X30964040Y-24546209D01*
X26773963Y-24546209D01*
X26819000Y-24319793D01*
X26819000Y-23940207D01*
X26761804Y-23652661D01*
X30348090Y-23652661D01*
X30389078Y-23924777D01*
X30482364Y-24183667D01*
X30544344Y-24299624D01*
X30784435Y-24366604D01*
X31570395Y-23580644D01*
X31929605Y-23580644D01*
X32715565Y-24366604D01*
X32955656Y-24299624D01*
X33072756Y-24050596D01*
X33139023Y-23783509D01*
X33151910Y-23508627D01*
X33146602Y-23473387D01*
X33201000Y-23473387D01*
X33201000Y-23687901D01*
X33242850Y-23898294D01*
X33324941Y-24096479D01*
X33444119Y-24274841D01*
X33595803Y-24426525D01*
X33774165Y-24545703D01*
X33972350Y-24627794D01*
X34182743Y-24669644D01*
X34397257Y-24669644D01*
X34607650Y-24627794D01*
X34805835Y-24545703D01*
X34984197Y-24426525D01*
X35135881Y-24274841D01*
X35255059Y-24096479D01*
X35337150Y-23898294D01*
X35379000Y-23687901D01*
X35379000Y-23473387D01*
X35741000Y-23473387D01*
X35741000Y-23687901D01*
X35782850Y-23898294D01*
X35864941Y-24096479D01*
X35984119Y-24274841D01*
X36135803Y-24426525D01*
X36314165Y-24545703D01*
X36512350Y-24627794D01*
X36722743Y-24669644D01*
X36937257Y-24669644D01*
X37147650Y-24627794D01*
X37345835Y-24545703D01*
X37524197Y-24426525D01*
X37675881Y-24274841D01*
X37795059Y-24096479D01*
X37877150Y-23898294D01*
X37919000Y-23687901D01*
X37919000Y-23473387D01*
X38281000Y-23473387D01*
X38281000Y-23687901D01*
X38322850Y-23898294D01*
X38404941Y-24096479D01*
X38524119Y-24274841D01*
X38675803Y-24426525D01*
X38854165Y-24545703D01*
X39052350Y-24627794D01*
X39262743Y-24669644D01*
X39477257Y-24669644D01*
X39687650Y-24627794D01*
X39885835Y-24545703D01*
X40064197Y-24426525D01*
X40215881Y-24274841D01*
X40335059Y-24096479D01*
X40417150Y-23898294D01*
X40459000Y-23687901D01*
X40459000Y-23473387D01*
X40821000Y-23473387D01*
X40821000Y-23687901D01*
X40862850Y-23898294D01*
X40944941Y-24096479D01*
X41064119Y-24274841D01*
X41215803Y-24426525D01*
X41394165Y-24545703D01*
X41592350Y-24627794D01*
X41802743Y-24669644D01*
X42017257Y-24669644D01*
X42227650Y-24627794D01*
X42425835Y-24545703D01*
X42604197Y-24426525D01*
X42755881Y-24274841D01*
X42875059Y-24096479D01*
X42957150Y-23898294D01*
X42999000Y-23687901D01*
X42999000Y-23473387D01*
X43361000Y-23473387D01*
X43361000Y-23687901D01*
X43402850Y-23898294D01*
X43484941Y-24096479D01*
X43604119Y-24274841D01*
X43755803Y-24426525D01*
X43934165Y-24545703D01*
X44132350Y-24627794D01*
X44342743Y-24669644D01*
X44557257Y-24669644D01*
X44767650Y-24627794D01*
X44965835Y-24545703D01*
X45144197Y-24426525D01*
X45295881Y-24274841D01*
X45415059Y-24096479D01*
X45497150Y-23898294D01*
X45539000Y-23687901D01*
X45539000Y-23473387D01*
X45901000Y-23473387D01*
X45901000Y-23687901D01*
X45942850Y-23898294D01*
X46024941Y-24096479D01*
X46144119Y-24274841D01*
X46295803Y-24426525D01*
X46474165Y-24545703D01*
X46672350Y-24627794D01*
X46882743Y-24669644D01*
X47097257Y-24669644D01*
X47307650Y-24627794D01*
X47505835Y-24545703D01*
X47684197Y-24426525D01*
X47835881Y-24274841D01*
X47955059Y-24096479D01*
X48037150Y-23898294D01*
X48079000Y-23687901D01*
X48079000Y-23473387D01*
X48441000Y-23473387D01*
X48441000Y-23687901D01*
X48482850Y-23898294D01*
X48564941Y-24096479D01*
X48684119Y-24274841D01*
X48835803Y-24426525D01*
X49014165Y-24545703D01*
X49212350Y-24627794D01*
X49422743Y-24669644D01*
X49637257Y-24669644D01*
X49847650Y-24627794D01*
X50045835Y-24545703D01*
X50224197Y-24426525D01*
X50375881Y-24274841D01*
X50495059Y-24096479D01*
X50577150Y-23898294D01*
X50619000Y-23687901D01*
X50619000Y-23473387D01*
X50577150Y-23262994D01*
X50495059Y-23064809D01*
X50375881Y-22886447D01*
X50308078Y-22818644D01*
X50979418Y-22818644D01*
X50979418Y-24342644D01*
X50985732Y-24406747D01*
X51004430Y-24468387D01*
X51034794Y-24525194D01*
X51075657Y-24574987D01*
X51125450Y-24615850D01*
X51182257Y-24646214D01*
X51243897Y-24664912D01*
X51308000Y-24671226D01*
X52832000Y-24671226D01*
X52896103Y-24664912D01*
X52957743Y-24646214D01*
X53014550Y-24615850D01*
X53064343Y-24574987D01*
X53105206Y-24525194D01*
X53135570Y-24468387D01*
X53154268Y-24406747D01*
X53160582Y-24342644D01*
X53160582Y-22818644D01*
X53154268Y-22754541D01*
X53135570Y-22692901D01*
X53105206Y-22636094D01*
X53064343Y-22586301D01*
X53014550Y-22545438D01*
X52957743Y-22515074D01*
X52896103Y-22496376D01*
X52832000Y-22490062D01*
X51308000Y-22490062D01*
X51243897Y-22496376D01*
X51182257Y-22515074D01*
X51125450Y-22545438D01*
X51075657Y-22586301D01*
X51034794Y-22636094D01*
X51004430Y-22692901D01*
X50985732Y-22754541D01*
X50979418Y-22818644D01*
X50308078Y-22818644D01*
X50224197Y-22734763D01*
X50045835Y-22615585D01*
X49847650Y-22533494D01*
X49637257Y-22491644D01*
X49422743Y-22491644D01*
X49212350Y-22533494D01*
X49014165Y-22615585D01*
X48835803Y-22734763D01*
X48684119Y-22886447D01*
X48564941Y-23064809D01*
X48482850Y-23262994D01*
X48441000Y-23473387D01*
X48079000Y-23473387D01*
X48037150Y-23262994D01*
X47955059Y-23064809D01*
X47835881Y-22886447D01*
X47684197Y-22734763D01*
X47505835Y-22615585D01*
X47307650Y-22533494D01*
X47097257Y-22491644D01*
X46882743Y-22491644D01*
X46672350Y-22533494D01*
X46474165Y-22615585D01*
X46295803Y-22734763D01*
X46144119Y-22886447D01*
X46024941Y-23064809D01*
X45942850Y-23262994D01*
X45901000Y-23473387D01*
X45539000Y-23473387D01*
X45497150Y-23262994D01*
X45415059Y-23064809D01*
X45295881Y-22886447D01*
X45144197Y-22734763D01*
X44965835Y-22615585D01*
X44767650Y-22533494D01*
X44557257Y-22491644D01*
X44342743Y-22491644D01*
X44132350Y-22533494D01*
X43934165Y-22615585D01*
X43755803Y-22734763D01*
X43604119Y-22886447D01*
X43484941Y-23064809D01*
X43402850Y-23262994D01*
X43361000Y-23473387D01*
X42999000Y-23473387D01*
X42957150Y-23262994D01*
X42875059Y-23064809D01*
X42755881Y-22886447D01*
X42604197Y-22734763D01*
X42425835Y-22615585D01*
X42227650Y-22533494D01*
X42017257Y-22491644D01*
X41802743Y-22491644D01*
X41592350Y-22533494D01*
X41394165Y-22615585D01*
X41215803Y-22734763D01*
X41064119Y-22886447D01*
X40944941Y-23064809D01*
X40862850Y-23262994D01*
X40821000Y-23473387D01*
X40459000Y-23473387D01*
X40417150Y-23262994D01*
X40335059Y-23064809D01*
X40215881Y-22886447D01*
X40064197Y-22734763D01*
X39885835Y-22615585D01*
X39687650Y-22533494D01*
X39477257Y-22491644D01*
X39262743Y-22491644D01*
X39052350Y-22533494D01*
X38854165Y-22615585D01*
X38675803Y-22734763D01*
X38524119Y-22886447D01*
X38404941Y-23064809D01*
X38322850Y-23262994D01*
X38281000Y-23473387D01*
X37919000Y-23473387D01*
X37877150Y-23262994D01*
X37795059Y-23064809D01*
X37675881Y-22886447D01*
X37524197Y-22734763D01*
X37345835Y-22615585D01*
X37147650Y-22533494D01*
X36937257Y-22491644D01*
X36722743Y-22491644D01*
X36512350Y-22533494D01*
X36314165Y-22615585D01*
X36135803Y-22734763D01*
X35984119Y-22886447D01*
X35864941Y-23064809D01*
X35782850Y-23262994D01*
X35741000Y-23473387D01*
X35379000Y-23473387D01*
X35337150Y-23262994D01*
X35255059Y-23064809D01*
X35135881Y-22886447D01*
X34984197Y-22734763D01*
X34805835Y-22615585D01*
X34607650Y-22533494D01*
X34397257Y-22491644D01*
X34182743Y-22491644D01*
X33972350Y-22533494D01*
X33774165Y-22615585D01*
X33595803Y-22734763D01*
X33444119Y-22886447D01*
X33324941Y-23064809D01*
X33242850Y-23262994D01*
X33201000Y-23473387D01*
X33146602Y-23473387D01*
X33110922Y-23236511D01*
X33017636Y-22977621D01*
X32955656Y-22861664D01*
X32715565Y-22794684D01*
X31929605Y-23580644D01*
X31570395Y-23580644D01*
X30784435Y-22794684D01*
X30544344Y-22861664D01*
X30427244Y-23110692D01*
X30360977Y-23377779D01*
X30348090Y-23652661D01*
X26761804Y-23652661D01*
X26744947Y-23567915D01*
X26599685Y-23217223D01*
X26388799Y-22901609D01*
X26120391Y-22633201D01*
X26093270Y-22615079D01*
X30964040Y-22615079D01*
X31750000Y-23401039D01*
X32535960Y-22615079D01*
X32468980Y-22374988D01*
X32219952Y-22257888D01*
X31952865Y-22191621D01*
X31677983Y-22178734D01*
X31405867Y-22219722D01*
X31146977Y-22313008D01*
X31031020Y-22374988D01*
X30964040Y-22615079D01*
X26093270Y-22615079D01*
X25804777Y-22422315D01*
X25454085Y-22277053D01*
X25081793Y-22203000D01*
X24702207Y-22203000D01*
X24329915Y-22277053D01*
X23979223Y-22422315D01*
X23663609Y-22633201D01*
X23395201Y-22901609D01*
X23184315Y-23217223D01*
X23039053Y-23567915D01*
X22965000Y-23940207D01*
X20279000Y-23940207D01*
X20279000Y-20279000D01*
X69721000Y-20279000D01*
X69721001Y-59721000D01*
%TA.AperFunction,Conductor*%
D19*
G36*
X69721001Y-59721000D02*
G01*
X20279000Y-59721000D01*
X20279000Y-37958074D01*
X20472209Y-37958074D01*
X20474999Y-37986405D01*
X20475000Y-54443660D01*
X20472209Y-54472001D01*
X20483348Y-54585112D01*
X20513915Y-54685873D01*
X20516343Y-54693877D01*
X20569921Y-54794116D01*
X20584843Y-54812298D01*
X20623962Y-54859965D01*
X20623965Y-54859968D01*
X20642026Y-54881975D01*
X20664032Y-54900035D01*
X21715971Y-55951975D01*
X21734032Y-55973982D01*
X21756039Y-55992043D01*
X21756041Y-55992045D01*
X21765777Y-56000035D01*
X21821891Y-56046087D01*
X21922130Y-56099665D01*
X22030894Y-56132658D01*
X22115670Y-56141008D01*
X22115676Y-56141008D01*
X22144005Y-56143798D01*
X22172334Y-56141008D01*
X26303659Y-56141008D01*
X26331990Y-56143798D01*
X26360321Y-56141008D01*
X26360326Y-56141008D01*
X26390035Y-56138082D01*
X26445101Y-56132659D01*
X26489760Y-56119111D01*
X26553866Y-56099665D01*
X26654105Y-56046087D01*
X26741964Y-55973982D01*
X26760029Y-55951970D01*
X27721532Y-54990468D01*
X27775318Y-54979769D01*
X27989519Y-54891044D01*
X28182294Y-54762236D01*
X28346236Y-54598294D01*
X28475044Y-54405519D01*
X28563769Y-54191318D01*
X28609000Y-53963924D01*
X28609000Y-53732076D01*
X28795000Y-53732076D01*
X28795000Y-53963924D01*
X28840231Y-54191318D01*
X28928956Y-54405519D01*
X29057764Y-54598294D01*
X29221706Y-54762236D01*
X29414481Y-54891044D01*
X29628682Y-54979769D01*
X29856076Y-55025000D01*
X30087924Y-55025000D01*
X30315318Y-54979769D01*
X30529519Y-54891044D01*
X30722294Y-54762236D01*
X30886236Y-54598294D01*
X31015044Y-54405519D01*
X31103769Y-54191318D01*
X31149000Y-53963924D01*
X31149000Y-53732076D01*
X31335000Y-53732076D01*
X31335000Y-53963924D01*
X31380231Y-54191318D01*
X31468956Y-54405519D01*
X31597764Y-54598294D01*
X31761706Y-54762236D01*
X31954481Y-54891044D01*
X32168682Y-54979769D01*
X32396076Y-55025000D01*
X32627924Y-55025000D01*
X32855318Y-54979769D01*
X33069519Y-54891044D01*
X33262294Y-54762236D01*
X33426236Y-54598294D01*
X33555044Y-54405519D01*
X33643769Y-54191318D01*
X33689000Y-53963924D01*
X33689000Y-53732076D01*
X33875000Y-53732076D01*
X33875000Y-53963924D01*
X33920231Y-54191318D01*
X34008956Y-54405519D01*
X34137764Y-54598294D01*
X34301706Y-54762236D01*
X34494481Y-54891044D01*
X34708682Y-54979769D01*
X34936076Y-55025000D01*
X35167924Y-55025000D01*
X35395318Y-54979769D01*
X35609519Y-54891044D01*
X35802294Y-54762236D01*
X35966236Y-54598294D01*
X36095044Y-54405519D01*
X36183769Y-54191318D01*
X36229000Y-53963924D01*
X36229000Y-53732076D01*
X36415000Y-53732076D01*
X36415000Y-53963924D01*
X36460231Y-54191318D01*
X36548956Y-54405519D01*
X36677764Y-54598294D01*
X36841706Y-54762236D01*
X37034481Y-54891044D01*
X37248682Y-54979769D01*
X37476076Y-55025000D01*
X37707924Y-55025000D01*
X37935318Y-54979769D01*
X38149519Y-54891044D01*
X38342294Y-54762236D01*
X38506236Y-54598294D01*
X38635044Y-54405519D01*
X38723769Y-54191318D01*
X38769000Y-53963924D01*
X38769000Y-53732076D01*
X38723769Y-53504682D01*
X38635044Y-53290481D01*
X38506236Y-53097706D01*
X38342294Y-52933764D01*
X38169000Y-52817973D01*
X38169000Y-50604003D01*
X39555000Y-49218003D01*
X39555001Y-52817972D01*
X39381706Y-52933764D01*
X39217764Y-53097706D01*
X39088956Y-53290481D01*
X39000231Y-53504682D01*
X38955000Y-53732076D01*
X38955000Y-53963924D01*
X39000231Y-54191318D01*
X39088956Y-54405519D01*
X39217764Y-54598294D01*
X39381706Y-54762236D01*
X39574481Y-54891044D01*
X39788682Y-54979769D01*
X40016076Y-55025000D01*
X40247924Y-55025000D01*
X40475318Y-54979769D01*
X40689519Y-54891044D01*
X40882294Y-54762236D01*
X41046236Y-54598294D01*
X41175044Y-54405519D01*
X41263769Y-54191318D01*
X41309000Y-53963924D01*
X41309000Y-53732076D01*
X41495000Y-53732076D01*
X41495000Y-53963924D01*
X41540231Y-54191318D01*
X41628956Y-54405519D01*
X41757764Y-54598294D01*
X41921706Y-54762236D01*
X42114481Y-54891044D01*
X42328682Y-54979769D01*
X42556076Y-55025000D01*
X42787924Y-55025000D01*
X42992339Y-54984340D01*
X45483975Y-57475977D01*
X45502036Y-57497984D01*
X45524043Y-57516045D01*
X45524045Y-57516047D01*
X45543990Y-57532415D01*
X45589895Y-57570089D01*
X45690134Y-57623667D01*
X45798898Y-57656660D01*
X45883674Y-57665010D01*
X45883680Y-57665010D01*
X45912009Y-57667800D01*
X45940338Y-57665010D01*
X60683624Y-57665010D01*
X60711955Y-57667800D01*
X60740286Y-57665010D01*
X60740291Y-57665010D01*
X60770000Y-57662084D01*
X60825066Y-57656661D01*
X60869725Y-57643113D01*
X60933831Y-57623667D01*
X61034070Y-57570089D01*
X61121929Y-57497984D01*
X61139994Y-57475972D01*
X62798759Y-55817207D01*
X64494000Y-55817207D01*
X64494000Y-56196793D01*
X64568053Y-56569085D01*
X64713315Y-56919777D01*
X64924201Y-57235391D01*
X65192609Y-57503799D01*
X65508223Y-57714685D01*
X65858915Y-57859947D01*
X66231207Y-57934000D01*
X66610793Y-57934000D01*
X66983085Y-57859947D01*
X67333777Y-57714685D01*
X67649391Y-57503799D01*
X67917799Y-57235391D01*
X68128685Y-56919777D01*
X68273947Y-56569085D01*
X68348000Y-56196793D01*
X68348000Y-55817207D01*
X68273947Y-55444915D01*
X68128685Y-55094223D01*
X67917799Y-54778609D01*
X67649391Y-54510201D01*
X67333777Y-54299315D01*
X66983085Y-54154053D01*
X66610793Y-54080000D01*
X66231207Y-54080000D01*
X65858915Y-54154053D01*
X65508223Y-54299315D01*
X65192609Y-54510201D01*
X64924201Y-54778609D01*
X64713315Y-55094223D01*
X64568053Y-55444915D01*
X64494000Y-55817207D01*
X62798759Y-55817207D01*
X62839973Y-55775993D01*
X62861985Y-55757928D01*
X62934090Y-55670069D01*
X62987668Y-55569830D01*
X63001215Y-55525172D01*
X63020662Y-55461066D01*
X63031801Y-55347954D01*
X63029011Y-55319623D01*
X63029011Y-45613540D01*
X63890475Y-45613540D01*
X63890475Y-47137540D01*
X63896789Y-47201643D01*
X63915487Y-47263283D01*
X63945851Y-47320090D01*
X63986714Y-47369883D01*
X64036507Y-47410746D01*
X64093314Y-47441110D01*
X64154954Y-47459808D01*
X64219057Y-47466122D01*
X65743057Y-47466122D01*
X65807160Y-47459808D01*
X65868800Y-47441110D01*
X65925607Y-47410746D01*
X65975400Y-47369883D01*
X66016263Y-47320090D01*
X66046627Y-47263283D01*
X66065325Y-47201643D01*
X66071639Y-47137540D01*
X66071639Y-45613540D01*
X66065325Y-45549437D01*
X66046627Y-45487797D01*
X66016263Y-45430990D01*
X65975400Y-45381197D01*
X65925607Y-45340334D01*
X65868800Y-45309970D01*
X65807160Y-45291272D01*
X65743057Y-45284958D01*
X64219057Y-45284958D01*
X64154954Y-45291272D01*
X64093314Y-45309970D01*
X64036507Y-45340334D01*
X63986714Y-45381197D01*
X63945851Y-45430990D01*
X63915487Y-45487797D01*
X63896789Y-45549437D01*
X63890475Y-45613540D01*
X63029011Y-45613540D01*
X63029011Y-43728283D01*
X63892057Y-43728283D01*
X63892057Y-43942797D01*
X63933907Y-44153190D01*
X64015998Y-44351375D01*
X64135176Y-44529737D01*
X64286860Y-44681421D01*
X64465222Y-44800599D01*
X64663407Y-44882690D01*
X64873800Y-44924540D01*
X65088314Y-44924540D01*
X65298707Y-44882690D01*
X65496892Y-44800599D01*
X65675254Y-44681421D01*
X65826938Y-44529737D01*
X65946116Y-44351375D01*
X66028207Y-44153190D01*
X66070057Y-43942797D01*
X66070057Y-43728283D01*
X66028207Y-43517890D01*
X65946116Y-43319705D01*
X65826938Y-43141343D01*
X65675254Y-42989659D01*
X65496892Y-42870481D01*
X65298707Y-42788390D01*
X65088314Y-42746540D01*
X64873800Y-42746540D01*
X64663407Y-42788390D01*
X64465222Y-42870481D01*
X64286860Y-42989659D01*
X64135176Y-43141343D01*
X64015998Y-43319705D01*
X63933907Y-43517890D01*
X63892057Y-43728283D01*
X63029011Y-43728283D01*
X63029011Y-41188283D01*
X63892057Y-41188283D01*
X63892057Y-41402797D01*
X63933907Y-41613190D01*
X64015998Y-41811375D01*
X64135176Y-41989737D01*
X64286860Y-42141421D01*
X64465222Y-42260599D01*
X64663407Y-42342690D01*
X64873800Y-42384540D01*
X65088314Y-42384540D01*
X65298707Y-42342690D01*
X65496892Y-42260599D01*
X65675254Y-42141421D01*
X65826938Y-41989737D01*
X65946116Y-41811375D01*
X66028207Y-41613190D01*
X66070057Y-41402797D01*
X66070057Y-41188283D01*
X66028207Y-40977890D01*
X65946116Y-40779705D01*
X65826938Y-40601343D01*
X65675254Y-40449659D01*
X65496892Y-40330481D01*
X65298707Y-40248390D01*
X65088314Y-40206540D01*
X64873800Y-40206540D01*
X64663407Y-40248390D01*
X64465222Y-40330481D01*
X64286860Y-40449659D01*
X64135176Y-40601343D01*
X64015998Y-40779705D01*
X63933907Y-40977890D01*
X63892057Y-41188283D01*
X63029011Y-41188283D01*
X63029011Y-38648283D01*
X63892057Y-38648283D01*
X63892057Y-38862797D01*
X63933907Y-39073190D01*
X64015998Y-39271375D01*
X64135176Y-39449737D01*
X64286860Y-39601421D01*
X64465222Y-39720599D01*
X64663407Y-39802690D01*
X64873800Y-39844540D01*
X65088314Y-39844540D01*
X65298707Y-39802690D01*
X65496892Y-39720599D01*
X65675254Y-39601421D01*
X65826938Y-39449737D01*
X65946116Y-39271375D01*
X66028207Y-39073190D01*
X66070057Y-38862797D01*
X66070057Y-38648283D01*
X66028207Y-38437890D01*
X65946116Y-38239705D01*
X65826938Y-38061343D01*
X65675254Y-37909659D01*
X65496892Y-37790481D01*
X65298707Y-37708390D01*
X65088314Y-37666540D01*
X64873800Y-37666540D01*
X64663407Y-37708390D01*
X64465222Y-37790481D01*
X64286860Y-37909659D01*
X64135176Y-38061343D01*
X64015998Y-38239705D01*
X63933907Y-38437890D01*
X63892057Y-38648283D01*
X63029011Y-38648283D01*
X63029011Y-36108283D01*
X63892057Y-36108283D01*
X63892057Y-36322797D01*
X63933907Y-36533190D01*
X64015998Y-36731375D01*
X64135176Y-36909737D01*
X64286860Y-37061421D01*
X64465222Y-37180599D01*
X64663407Y-37262690D01*
X64873800Y-37304540D01*
X65088314Y-37304540D01*
X65298707Y-37262690D01*
X65496892Y-37180599D01*
X65675254Y-37061421D01*
X65826938Y-36909737D01*
X65946116Y-36731375D01*
X66028207Y-36533190D01*
X66070057Y-36322797D01*
X66070057Y-36108283D01*
X66028207Y-35897890D01*
X65946116Y-35699705D01*
X65826938Y-35521343D01*
X65675254Y-35369659D01*
X65496892Y-35250481D01*
X65298707Y-35168390D01*
X65088314Y-35126540D01*
X64873800Y-35126540D01*
X64663407Y-35168390D01*
X64465222Y-35250481D01*
X64286860Y-35369659D01*
X64135176Y-35521343D01*
X64015998Y-35699705D01*
X63933907Y-35897890D01*
X63892057Y-36108283D01*
X63029011Y-36108283D01*
X63029011Y-33714822D01*
X63031801Y-33686493D01*
X63029011Y-33658164D01*
X63029011Y-33658158D01*
X63020661Y-33573382D01*
X63019115Y-33568283D01*
X63892057Y-33568283D01*
X63892057Y-33782797D01*
X63933907Y-33993190D01*
X64015998Y-34191375D01*
X64135176Y-34369737D01*
X64286860Y-34521421D01*
X64465222Y-34640599D01*
X64663407Y-34722690D01*
X64873800Y-34764540D01*
X65088314Y-34764540D01*
X65298707Y-34722690D01*
X65496892Y-34640599D01*
X65675254Y-34521421D01*
X65826938Y-34369737D01*
X65946116Y-34191375D01*
X66028207Y-33993190D01*
X66070057Y-33782797D01*
X66070057Y-33568283D01*
X66028207Y-33357890D01*
X65946116Y-33159705D01*
X65826938Y-32981343D01*
X65675254Y-32829659D01*
X65496892Y-32710481D01*
X65298707Y-32628390D01*
X65088314Y-32586540D01*
X64873800Y-32586540D01*
X64663407Y-32628390D01*
X64465222Y-32710481D01*
X64286860Y-32829659D01*
X64135176Y-32981343D01*
X64015998Y-33159705D01*
X63933907Y-33357890D01*
X63892057Y-33568283D01*
X63019115Y-33568283D01*
X62987668Y-33464618D01*
X62934090Y-33364379D01*
X62861985Y-33276520D01*
X62839980Y-33258461D01*
X60609802Y-31028283D01*
X63892057Y-31028283D01*
X63892057Y-31242797D01*
X63933907Y-31453190D01*
X64015998Y-31651375D01*
X64135176Y-31829737D01*
X64286860Y-31981421D01*
X64465222Y-32100599D01*
X64663407Y-32182690D01*
X64873800Y-32224540D01*
X65088314Y-32224540D01*
X65298707Y-32182690D01*
X65496892Y-32100599D01*
X65675254Y-31981421D01*
X65826938Y-31829737D01*
X65946116Y-31651375D01*
X66028207Y-31453190D01*
X66070057Y-31242797D01*
X66070057Y-31028283D01*
X66028207Y-30817890D01*
X65946116Y-30619705D01*
X65826938Y-30441343D01*
X65675254Y-30289659D01*
X65496892Y-30170481D01*
X65298707Y-30088390D01*
X65088314Y-30046540D01*
X64873800Y-30046540D01*
X64663407Y-30088390D01*
X64465222Y-30170481D01*
X64286860Y-30289659D01*
X64135176Y-30441343D01*
X64015998Y-30619705D01*
X63933907Y-30817890D01*
X63892057Y-31028283D01*
X60609802Y-31028283D01*
X58422559Y-28841040D01*
X58450057Y-28702797D01*
X58450057Y-28488283D01*
X63892057Y-28488283D01*
X63892057Y-28702797D01*
X63933907Y-28913190D01*
X64015998Y-29111375D01*
X64135176Y-29289737D01*
X64286860Y-29441421D01*
X64465222Y-29560599D01*
X64663407Y-29642690D01*
X64873800Y-29684540D01*
X65088314Y-29684540D01*
X65298707Y-29642690D01*
X65496892Y-29560599D01*
X65675254Y-29441421D01*
X65826938Y-29289737D01*
X65946116Y-29111375D01*
X66028207Y-28913190D01*
X66070057Y-28702797D01*
X66070057Y-28488283D01*
X66028207Y-28277890D01*
X65946116Y-28079705D01*
X65826938Y-27901343D01*
X65675254Y-27749659D01*
X65496892Y-27630481D01*
X65298707Y-27548390D01*
X65088314Y-27506540D01*
X64873800Y-27506540D01*
X64663407Y-27548390D01*
X64465222Y-27630481D01*
X64286860Y-27749659D01*
X64135176Y-27901343D01*
X64015998Y-28079705D01*
X63933907Y-28277890D01*
X63892057Y-28488283D01*
X58450057Y-28488283D01*
X58408207Y-28277890D01*
X58326116Y-28079705D01*
X58206938Y-27901343D01*
X58055254Y-27749659D01*
X57876892Y-27630481D01*
X57678707Y-27548390D01*
X57468314Y-27506540D01*
X57253800Y-27506540D01*
X57043407Y-27548390D01*
X56845222Y-27630481D01*
X56666860Y-27749659D01*
X56515176Y-27901343D01*
X56395998Y-28079705D01*
X56313907Y-28277890D01*
X56272057Y-28488283D01*
X56272057Y-28702797D01*
X56313907Y-28913190D01*
X56395998Y-29111375D01*
X56515176Y-29289737D01*
X56666860Y-29441421D01*
X56845222Y-29560599D01*
X57043407Y-29642690D01*
X57253800Y-29684540D01*
X57468314Y-29684540D01*
X57606557Y-29657042D01*
X61875011Y-33925496D01*
X61875011Y-34833493D01*
X58422559Y-31381041D01*
X58450057Y-31242797D01*
X58450057Y-31028283D01*
X58408207Y-30817890D01*
X58326116Y-30619705D01*
X58206938Y-30441343D01*
X58055254Y-30289659D01*
X57876892Y-30170481D01*
X57678707Y-30088390D01*
X57468314Y-30046540D01*
X57253800Y-30046540D01*
X57043407Y-30088390D01*
X56845222Y-30170481D01*
X56666860Y-30289659D01*
X56515176Y-30441343D01*
X56395998Y-30619705D01*
X56313907Y-30817890D01*
X56272057Y-31028283D01*
X56272057Y-31242797D01*
X56313907Y-31453190D01*
X56395998Y-31651375D01*
X56515176Y-31829737D01*
X56666860Y-31981421D01*
X56845222Y-32100599D01*
X57043407Y-32182690D01*
X57253800Y-32224540D01*
X57468314Y-32224540D01*
X57606558Y-32197042D01*
X61175001Y-35765485D01*
X61175002Y-52669418D01*
X61029000Y-52669418D01*
X61029000Y-47907339D01*
X61031791Y-47879000D01*
X61020651Y-47765888D01*
X60987657Y-47657123D01*
X60973816Y-47631228D01*
X60934079Y-47556885D01*
X60861974Y-47469026D01*
X60839963Y-47450962D01*
X59376579Y-45987578D01*
X59358514Y-45965566D01*
X59270655Y-45893461D01*
X59170416Y-45839883D01*
X59106310Y-45820437D01*
X59061651Y-45806889D01*
X59006585Y-45801466D01*
X58976876Y-45798540D01*
X58976871Y-45798540D01*
X58948540Y-45795750D01*
X58920209Y-45798540D01*
X58285247Y-45798540D01*
X58206938Y-45681343D01*
X58055254Y-45529659D01*
X57876892Y-45410481D01*
X57678707Y-45328390D01*
X57468314Y-45286540D01*
X57253800Y-45286540D01*
X57043407Y-45328390D01*
X56845222Y-45410481D01*
X56726056Y-45490105D01*
X56726056Y-45181945D01*
X57030611Y-44877390D01*
X57043407Y-44882690D01*
X57253800Y-44924540D01*
X57468314Y-44924540D01*
X57678707Y-44882690D01*
X57876892Y-44800599D01*
X58055254Y-44681421D01*
X58206938Y-44529737D01*
X58326116Y-44351375D01*
X58408207Y-44153190D01*
X58450057Y-43942797D01*
X58450057Y-43728283D01*
X58408207Y-43517890D01*
X58326116Y-43319705D01*
X58206938Y-43141343D01*
X58055254Y-42989659D01*
X57876892Y-42870481D01*
X57678707Y-42788390D01*
X57468314Y-42746540D01*
X57253800Y-42746540D01*
X57043407Y-42788390D01*
X56845222Y-42870481D01*
X56666860Y-42989659D01*
X56515176Y-43141343D01*
X56395998Y-43319705D01*
X56313907Y-43517890D01*
X56272057Y-43728283D01*
X56272057Y-43942797D01*
X56282202Y-43993797D01*
X55949000Y-44326999D01*
X55949000Y-43523598D01*
X57115556Y-42357042D01*
X57253800Y-42384540D01*
X57468314Y-42384540D01*
X57678707Y-42342690D01*
X57876892Y-42260599D01*
X58055254Y-42141421D01*
X58206938Y-41989737D01*
X58326116Y-41811375D01*
X58408207Y-41613190D01*
X58450057Y-41402797D01*
X58450057Y-41188283D01*
X58408207Y-40977890D01*
X58326116Y-40779705D01*
X58206938Y-40601343D01*
X58055254Y-40449659D01*
X57876892Y-40330481D01*
X57678707Y-40248390D01*
X57468314Y-40206540D01*
X57253800Y-40206540D01*
X57043407Y-40248390D01*
X56845222Y-40330481D01*
X56666860Y-40449659D01*
X56515176Y-40601343D01*
X56395998Y-40779705D01*
X56313907Y-40977890D01*
X56272057Y-41188283D01*
X56272057Y-41402797D01*
X56299555Y-41541041D01*
X54984038Y-42856558D01*
X54962026Y-42874623D01*
X54889921Y-42962483D01*
X54836343Y-43062722D01*
X54823464Y-43105178D01*
X54803349Y-43171486D01*
X54797506Y-43230814D01*
X54795051Y-43255750D01*
X54792210Y-43284597D01*
X54795000Y-43312928D01*
X54795001Y-52817972D01*
X54621706Y-52933764D01*
X54457764Y-53097706D01*
X54328956Y-53290481D01*
X54240231Y-53504682D01*
X54195000Y-53732076D01*
X54195000Y-53963924D01*
X54240231Y-54191318D01*
X54328956Y-54405519D01*
X54457764Y-54598294D01*
X54621706Y-54762236D01*
X54814481Y-54891044D01*
X55028682Y-54979769D01*
X55256076Y-55025000D01*
X55487924Y-55025000D01*
X55715318Y-54979769D01*
X55929519Y-54891044D01*
X56122294Y-54762236D01*
X56286236Y-54598294D01*
X56415044Y-54405519D01*
X56503769Y-54191318D01*
X56549000Y-53963924D01*
X56549000Y-53732076D01*
X56503769Y-53504682D01*
X56415044Y-53290481D01*
X56286236Y-53097706D01*
X56122294Y-52933764D01*
X55949000Y-52817973D01*
X55949000Y-52701001D01*
X56775660Y-53527661D01*
X56735000Y-53732076D01*
X56735000Y-53963924D01*
X56780231Y-54191318D01*
X56868956Y-54405519D01*
X56997764Y-54598294D01*
X57161706Y-54762236D01*
X57354481Y-54891044D01*
X57568682Y-54979769D01*
X57796076Y-55025000D01*
X58027924Y-55025000D01*
X58255318Y-54979769D01*
X58469519Y-54891044D01*
X58662294Y-54762236D01*
X58826236Y-54598294D01*
X58955044Y-54405519D01*
X59043769Y-54191318D01*
X59089000Y-53963924D01*
X59089000Y-53732076D01*
X59043769Y-53504682D01*
X58955044Y-53290481D01*
X58826236Y-53097706D01*
X58662294Y-52933764D01*
X58469519Y-52804956D01*
X58255318Y-52716231D01*
X58027924Y-52671000D01*
X57796076Y-52671000D01*
X57591661Y-52711660D01*
X56726056Y-51846055D01*
X56726056Y-47260975D01*
X56845222Y-47340599D01*
X57043407Y-47422690D01*
X57253800Y-47464540D01*
X57468314Y-47464540D01*
X57678707Y-47422690D01*
X57876892Y-47340599D01*
X58055254Y-47221421D01*
X58206938Y-47069737D01*
X58285247Y-46952540D01*
X58709539Y-46952540D01*
X59875000Y-48118001D01*
X59875001Y-52669418D01*
X59602000Y-52669418D01*
X59537897Y-52675732D01*
X59476257Y-52694430D01*
X59419450Y-52724794D01*
X59369657Y-52765657D01*
X59328794Y-52815450D01*
X59298430Y-52872257D01*
X59279732Y-52933897D01*
X59273418Y-52998000D01*
X59273418Y-54698000D01*
X59279732Y-54762103D01*
X59298430Y-54823743D01*
X59328794Y-54880550D01*
X59369657Y-54930343D01*
X59419450Y-54971206D01*
X59476257Y-55001570D01*
X59537897Y-55020268D01*
X59602000Y-55026582D01*
X60967419Y-55026582D01*
X60183001Y-55811000D01*
X47991001Y-55811000D01*
X46348340Y-54168339D01*
X46389000Y-53963924D01*
X46389000Y-53732076D01*
X46575000Y-53732076D01*
X46575000Y-53963924D01*
X46620231Y-54191318D01*
X46708956Y-54405519D01*
X46837764Y-54598294D01*
X47001706Y-54762236D01*
X47194481Y-54891044D01*
X47408682Y-54979769D01*
X47636076Y-55025000D01*
X47867924Y-55025000D01*
X48095318Y-54979769D01*
X48309519Y-54891044D01*
X48502294Y-54762236D01*
X48666236Y-54598294D01*
X48795044Y-54405519D01*
X48883769Y-54191318D01*
X48929000Y-53963924D01*
X48929000Y-53732076D01*
X49115000Y-53732076D01*
X49115000Y-53963924D01*
X49160231Y-54191318D01*
X49248956Y-54405519D01*
X49377764Y-54598294D01*
X49541706Y-54762236D01*
X49734481Y-54891044D01*
X49948682Y-54979769D01*
X50176076Y-55025000D01*
X50407924Y-55025000D01*
X50635318Y-54979769D01*
X50849519Y-54891044D01*
X51042294Y-54762236D01*
X51206236Y-54598294D01*
X51335044Y-54405519D01*
X51423769Y-54191318D01*
X51469000Y-53963924D01*
X51469000Y-53732076D01*
X51428340Y-53527662D01*
X51529967Y-53426035D01*
X51551973Y-53407975D01*
X51624078Y-53320116D01*
X51677656Y-53219877D01*
X51710649Y-53111113D01*
X51718999Y-53026337D01*
X51718999Y-53026331D01*
X51721789Y-52998002D01*
X51718999Y-52969673D01*
X51718999Y-42938004D01*
X56380936Y-38276068D01*
X56313907Y-38437890D01*
X56272057Y-38648283D01*
X56272057Y-38862797D01*
X56299555Y-39001041D01*
X52444038Y-42856558D01*
X52422026Y-42874623D01*
X52349921Y-42962483D01*
X52296343Y-43062722D01*
X52283464Y-43105178D01*
X52263349Y-43171486D01*
X52257506Y-43230814D01*
X52255051Y-43255750D01*
X52252210Y-43284597D01*
X52255000Y-43312928D01*
X52255001Y-52817972D01*
X52081706Y-52933764D01*
X51917764Y-53097706D01*
X51788956Y-53290481D01*
X51700231Y-53504682D01*
X51655000Y-53732076D01*
X51655000Y-53963924D01*
X51700231Y-54191318D01*
X51788956Y-54405519D01*
X51917764Y-54598294D01*
X52081706Y-54762236D01*
X52274481Y-54891044D01*
X52488682Y-54979769D01*
X52716076Y-55025000D01*
X52947924Y-55025000D01*
X53175318Y-54979769D01*
X53389519Y-54891044D01*
X53582294Y-54762236D01*
X53746236Y-54598294D01*
X53875044Y-54405519D01*
X53963769Y-54191318D01*
X54009000Y-53963924D01*
X54009000Y-53732076D01*
X53963769Y-53504682D01*
X53875044Y-53290481D01*
X53746236Y-53097706D01*
X53582294Y-52933764D01*
X53409000Y-52817973D01*
X53409000Y-43523598D01*
X57115556Y-39817042D01*
X57253800Y-39844540D01*
X57468314Y-39844540D01*
X57678707Y-39802690D01*
X57876892Y-39720599D01*
X58055254Y-39601421D01*
X58206938Y-39449737D01*
X58326116Y-39271375D01*
X58408207Y-39073190D01*
X58450057Y-38862797D01*
X58450057Y-38648283D01*
X58408207Y-38437890D01*
X58326116Y-38239705D01*
X58206938Y-38061343D01*
X58055254Y-37909659D01*
X57876892Y-37790481D01*
X57678707Y-37708390D01*
X57468314Y-37666540D01*
X57253800Y-37666540D01*
X57043407Y-37708390D01*
X56881585Y-37775419D01*
X57352464Y-37304540D01*
X57468314Y-37304540D01*
X57678707Y-37262690D01*
X57876892Y-37180599D01*
X58055254Y-37061421D01*
X58206938Y-36909737D01*
X58326116Y-36731375D01*
X58408207Y-36533190D01*
X58450057Y-36322797D01*
X58450057Y-36108283D01*
X58408207Y-35897890D01*
X58326116Y-35699705D01*
X58206938Y-35521343D01*
X58055254Y-35369659D01*
X57876892Y-35250481D01*
X57678707Y-35168390D01*
X57468314Y-35126540D01*
X57253800Y-35126540D01*
X57043407Y-35168390D01*
X56845222Y-35250481D01*
X56666860Y-35369659D01*
X56515176Y-35521343D01*
X56395998Y-35699705D01*
X56313907Y-35897890D01*
X56272057Y-36108283D01*
X56272057Y-36322797D01*
X56313907Y-36533190D01*
X56366014Y-36658986D01*
X50754033Y-42270968D01*
X50732026Y-42289029D01*
X50713965Y-42311036D01*
X50713962Y-42311039D01*
X50690839Y-42339215D01*
X50659921Y-42376888D01*
X50655831Y-42384540D01*
X50606343Y-42477127D01*
X50573348Y-42585892D01*
X50562209Y-42699003D01*
X50565000Y-42727344D01*
X50564999Y-52702244D01*
X50407924Y-52671000D01*
X50176076Y-52671000D01*
X49948682Y-52716231D01*
X49734481Y-52804956D01*
X49541706Y-52933764D01*
X49377764Y-53097706D01*
X49248956Y-53290481D01*
X49160231Y-53504682D01*
X49115000Y-53732076D01*
X48929000Y-53732076D01*
X48883769Y-53504682D01*
X48795044Y-53290481D01*
X48666236Y-53097706D01*
X48502294Y-52933764D01*
X48329000Y-52817973D01*
X48329000Y-43523598D01*
X57115556Y-34737042D01*
X57253800Y-34764540D01*
X57468314Y-34764540D01*
X57678707Y-34722690D01*
X57876892Y-34640599D01*
X58055254Y-34521421D01*
X58206938Y-34369737D01*
X58326116Y-34191375D01*
X58408207Y-33993190D01*
X58450057Y-33782797D01*
X58450057Y-33568283D01*
X58408207Y-33357890D01*
X58326116Y-33159705D01*
X58206938Y-32981343D01*
X58055254Y-32829659D01*
X57876892Y-32710481D01*
X57678707Y-32628390D01*
X57468314Y-32586540D01*
X57253800Y-32586540D01*
X57043407Y-32628390D01*
X56845222Y-32710481D01*
X56666860Y-32829659D01*
X56515176Y-32981343D01*
X56395998Y-33159705D01*
X56313907Y-33357890D01*
X56272057Y-33568283D01*
X56272057Y-33782797D01*
X56299555Y-33921041D01*
X47364038Y-42856558D01*
X47342026Y-42874623D01*
X47269921Y-42962483D01*
X47216343Y-43062722D01*
X47203464Y-43105178D01*
X47183349Y-43171486D01*
X47177506Y-43230814D01*
X47175051Y-43255750D01*
X47172210Y-43284597D01*
X47175000Y-43312928D01*
X47175001Y-52817972D01*
X47001706Y-52933764D01*
X46837764Y-53097706D01*
X46708956Y-53290481D01*
X46620231Y-53504682D01*
X46575000Y-53732076D01*
X46389000Y-53732076D01*
X46343769Y-53504682D01*
X46255044Y-53290481D01*
X46126236Y-53097706D01*
X45962294Y-52933764D01*
X45769519Y-52804956D01*
X45555318Y-52716231D01*
X45327924Y-52671000D01*
X45096076Y-52671000D01*
X44868682Y-52716231D01*
X44654481Y-52804956D01*
X44461706Y-52933764D01*
X44297764Y-53097706D01*
X44168956Y-53290481D01*
X44080231Y-53504682D01*
X44035000Y-53732076D01*
X44035000Y-53963924D01*
X44080231Y-54191318D01*
X44168956Y-54405519D01*
X44297764Y-54598294D01*
X44461706Y-54762236D01*
X44654481Y-54891044D01*
X44868682Y-54979769D01*
X45096076Y-55025000D01*
X45327924Y-55025000D01*
X45532339Y-54984340D01*
X47059009Y-56511010D01*
X46151012Y-56511010D01*
X43808340Y-54168339D01*
X43849000Y-53963924D01*
X43849000Y-53732076D01*
X43803769Y-53504682D01*
X43715044Y-53290481D01*
X43586236Y-53097706D01*
X43422294Y-52933764D01*
X43229519Y-52804956D01*
X43015318Y-52716231D01*
X42787924Y-52671000D01*
X42556076Y-52671000D01*
X42328682Y-52716231D01*
X42114481Y-52804956D01*
X41921706Y-52933764D01*
X41757764Y-53097706D01*
X41628956Y-53290481D01*
X41540231Y-53504682D01*
X41495000Y-53732076D01*
X41309000Y-53732076D01*
X41263769Y-53504682D01*
X41175044Y-53290481D01*
X41046236Y-53097706D01*
X40882294Y-52933764D01*
X40709000Y-52817973D01*
X40709000Y-49314999D01*
X52457962Y-37566037D01*
X52479974Y-37547972D01*
X52552079Y-37460113D01*
X52595817Y-37378283D01*
X52605657Y-37359875D01*
X52638651Y-37251110D01*
X52649791Y-37137998D01*
X52647000Y-37109659D01*
X52647000Y-34853397D01*
X53375000Y-34853397D01*
X53375000Y-34996603D01*
X53402938Y-35137058D01*
X53457741Y-35269364D01*
X53537302Y-35388436D01*
X53638564Y-35489698D01*
X53757636Y-35569259D01*
X53889942Y-35624062D01*
X54030397Y-35652000D01*
X54173603Y-35652000D01*
X54314058Y-35624062D01*
X54446364Y-35569259D01*
X54565436Y-35489698D01*
X54666698Y-35388436D01*
X54746259Y-35269364D01*
X54801062Y-35137058D01*
X54829000Y-34996603D01*
X54829000Y-34853397D01*
X54801062Y-34712942D01*
X54746259Y-34580636D01*
X54679000Y-34479975D01*
X54679000Y-29553598D01*
X57115556Y-27117042D01*
X57253800Y-27144540D01*
X57468314Y-27144540D01*
X57678707Y-27102690D01*
X57875670Y-27021105D01*
X64195097Y-27021105D01*
X64262077Y-27261196D01*
X64511105Y-27378296D01*
X64778192Y-27444563D01*
X65053074Y-27457450D01*
X65325190Y-27416462D01*
X65584080Y-27323176D01*
X65700037Y-27261196D01*
X65767017Y-27021105D01*
X64981057Y-26235145D01*
X64195097Y-27021105D01*
X57875670Y-27021105D01*
X57876892Y-27020599D01*
X58055254Y-26901421D01*
X58206938Y-26749737D01*
X58326116Y-26571375D01*
X58408207Y-26373190D01*
X58450057Y-26162797D01*
X58450057Y-26127557D01*
X63579147Y-26127557D01*
X63620135Y-26399673D01*
X63713421Y-26658563D01*
X63775401Y-26774520D01*
X64015492Y-26841500D01*
X64801452Y-26055540D01*
X65160662Y-26055540D01*
X65946622Y-26841500D01*
X66186713Y-26774520D01*
X66303813Y-26525492D01*
X66370080Y-26258405D01*
X66382967Y-25983523D01*
X66341979Y-25711407D01*
X66248693Y-25452517D01*
X66186713Y-25336560D01*
X65946622Y-25269580D01*
X65160662Y-26055540D01*
X64801452Y-26055540D01*
X64015492Y-25269580D01*
X63775401Y-25336560D01*
X63658301Y-25585588D01*
X63592034Y-25852675D01*
X63579147Y-26127557D01*
X58450057Y-26127557D01*
X58450057Y-25948283D01*
X58408207Y-25737890D01*
X58326116Y-25539705D01*
X58206938Y-25361343D01*
X58055254Y-25209659D01*
X57876892Y-25090481D01*
X57875671Y-25089975D01*
X64195097Y-25089975D01*
X64981057Y-25875935D01*
X65767017Y-25089975D01*
X65700037Y-24849884D01*
X65451009Y-24732784D01*
X65183922Y-24666517D01*
X64909040Y-24653630D01*
X64636924Y-24694618D01*
X64378034Y-24787904D01*
X64262077Y-24849884D01*
X64195097Y-25089975D01*
X57875671Y-25089975D01*
X57678707Y-25008390D01*
X57468314Y-24966540D01*
X57253800Y-24966540D01*
X57043407Y-25008390D01*
X56845222Y-25090481D01*
X56666860Y-25209659D01*
X56515176Y-25361343D01*
X56395998Y-25539705D01*
X56313907Y-25737890D01*
X56272057Y-25948283D01*
X56272057Y-26162797D01*
X56299555Y-26301041D01*
X53714034Y-28886562D01*
X53692027Y-28904623D01*
X53673966Y-28926630D01*
X53673963Y-28926633D01*
X53650840Y-28954809D01*
X53619922Y-28992482D01*
X53580222Y-29066757D01*
X53566344Y-29092721D01*
X53533349Y-29201486D01*
X53522210Y-29314597D01*
X53525001Y-29342938D01*
X53525000Y-34479975D01*
X53457741Y-34580636D01*
X53402938Y-34712942D01*
X53375000Y-34853397D01*
X52647000Y-34853397D01*
X52647000Y-32124834D01*
X52764197Y-32046525D01*
X52915881Y-31894841D01*
X53035059Y-31716479D01*
X53117150Y-31518294D01*
X53159000Y-31307901D01*
X53159000Y-31093387D01*
X53117150Y-30882994D01*
X53035059Y-30684809D01*
X52915881Y-30506447D01*
X52764197Y-30354763D01*
X52585835Y-30235585D01*
X52387650Y-30153494D01*
X52177257Y-30111644D01*
X51962743Y-30111644D01*
X51752350Y-30153494D01*
X51554165Y-30235585D01*
X51375803Y-30354763D01*
X51224119Y-30506447D01*
X51104941Y-30684809D01*
X51022850Y-30882994D01*
X50981000Y-31093387D01*
X50981000Y-31307901D01*
X51022850Y-31518294D01*
X51104941Y-31716479D01*
X51224119Y-31894841D01*
X51375803Y-32046525D01*
X51493000Y-32124834D01*
X51493001Y-36898996D01*
X50107000Y-38284997D01*
X50107000Y-32124834D01*
X50224197Y-32046525D01*
X50375881Y-31894841D01*
X50495059Y-31716479D01*
X50577150Y-31518294D01*
X50619000Y-31307901D01*
X50619000Y-31093387D01*
X50577150Y-30882994D01*
X50495059Y-30684809D01*
X50375881Y-30506447D01*
X50224197Y-30354763D01*
X50045835Y-30235585D01*
X49847650Y-30153494D01*
X49637257Y-30111644D01*
X49422743Y-30111644D01*
X49212350Y-30153494D01*
X49014165Y-30235585D01*
X48835803Y-30354763D01*
X48684119Y-30506447D01*
X48564941Y-30684809D01*
X48482850Y-30882994D01*
X48441000Y-31093387D01*
X48441000Y-31307901D01*
X48482850Y-31518294D01*
X48564941Y-31716479D01*
X48684119Y-31894841D01*
X48835803Y-32046525D01*
X48953000Y-32124834D01*
X48953001Y-38188000D01*
X37204038Y-49936963D01*
X37182026Y-49955028D01*
X37109921Y-50042888D01*
X37056343Y-50143127D01*
X37050727Y-50161642D01*
X37023349Y-50251891D01*
X37012210Y-50365002D01*
X37015000Y-50393333D01*
X37015001Y-52817972D01*
X36841706Y-52933764D01*
X36677764Y-53097706D01*
X36548956Y-53290481D01*
X36460231Y-53504682D01*
X36415000Y-53732076D01*
X36229000Y-53732076D01*
X36183769Y-53504682D01*
X36095044Y-53290481D01*
X35966236Y-53097706D01*
X35802294Y-52933764D01*
X35629000Y-52817973D01*
X35629000Y-51219999D01*
X47377962Y-39471037D01*
X47399974Y-39452972D01*
X47472079Y-39365113D01*
X47513112Y-39288345D01*
X47525657Y-39264875D01*
X47558651Y-39156110D01*
X47569791Y-39042998D01*
X47567000Y-39014659D01*
X47567000Y-32124834D01*
X47684197Y-32046525D01*
X47835881Y-31894841D01*
X47955059Y-31716479D01*
X48037150Y-31518294D01*
X48079000Y-31307901D01*
X48079000Y-31093387D01*
X48037150Y-30882994D01*
X47955059Y-30684809D01*
X47835881Y-30506447D01*
X47684197Y-30354763D01*
X47505835Y-30235585D01*
X47307650Y-30153494D01*
X47097257Y-30111644D01*
X46882743Y-30111644D01*
X46672350Y-30153494D01*
X46474165Y-30235585D01*
X46295803Y-30354763D01*
X46144119Y-30506447D01*
X46024941Y-30684809D01*
X45942850Y-30882994D01*
X45901000Y-31093387D01*
X45901000Y-31307901D01*
X45942850Y-31518294D01*
X46024941Y-31716479D01*
X46144119Y-31894841D01*
X46295803Y-32046525D01*
X46413000Y-32124834D01*
X46413001Y-38803996D01*
X34664038Y-50552959D01*
X34642026Y-50571024D01*
X34569921Y-50658884D01*
X34516343Y-50759123D01*
X34506055Y-50793039D01*
X34483349Y-50867887D01*
X34480122Y-50900658D01*
X34475776Y-50944792D01*
X34472210Y-50980998D01*
X34475000Y-51009329D01*
X34475001Y-52817972D01*
X34301706Y-52933764D01*
X34137764Y-53097706D01*
X34008956Y-53290481D01*
X33920231Y-53504682D01*
X33875000Y-53732076D01*
X33689000Y-53732076D01*
X33643769Y-53504682D01*
X33555044Y-53290481D01*
X33426236Y-53097706D01*
X33262294Y-52933764D01*
X33089000Y-52817973D01*
X33089000Y-52001003D01*
X44837962Y-40252041D01*
X44859974Y-40233976D01*
X44932079Y-40146117D01*
X44971816Y-40071774D01*
X44985657Y-40045879D01*
X45018651Y-39937114D01*
X45029791Y-39824002D01*
X45027000Y-39795663D01*
X45027000Y-32124834D01*
X45144197Y-32046525D01*
X45295881Y-31894841D01*
X45415059Y-31716479D01*
X45497150Y-31518294D01*
X45539000Y-31307901D01*
X45539000Y-31093387D01*
X45497150Y-30882994D01*
X45415059Y-30684809D01*
X45295881Y-30506447D01*
X45144197Y-30354763D01*
X44965835Y-30235585D01*
X44767650Y-30153494D01*
X44557257Y-30111644D01*
X44342743Y-30111644D01*
X44132350Y-30153494D01*
X43934165Y-30235585D01*
X43755803Y-30354763D01*
X43604119Y-30506447D01*
X43484941Y-30684809D01*
X43402850Y-30882994D01*
X43361000Y-31093387D01*
X43361000Y-31307901D01*
X43402850Y-31518294D01*
X43484941Y-31716479D01*
X43604119Y-31894841D01*
X43755803Y-32046525D01*
X43873000Y-32124834D01*
X43873001Y-39585000D01*
X32124038Y-51333963D01*
X32102026Y-51352028D01*
X32029921Y-51439888D01*
X31976343Y-51540127D01*
X31973455Y-51549649D01*
X31943349Y-51648891D01*
X31932210Y-51762002D01*
X31935000Y-51790333D01*
X31935001Y-52817972D01*
X31761706Y-52933764D01*
X31597764Y-53097706D01*
X31468956Y-53290481D01*
X31380231Y-53504682D01*
X31335000Y-53732076D01*
X31149000Y-53732076D01*
X31103769Y-53504682D01*
X31015044Y-53290481D01*
X30886236Y-53097706D01*
X30722294Y-52933764D01*
X30549000Y-52817973D01*
X30549000Y-51805794D01*
X42297962Y-40056832D01*
X42319974Y-40038767D01*
X42392079Y-39950908D01*
X42444765Y-39852338D01*
X42445657Y-39850670D01*
X42478651Y-39741905D01*
X42489791Y-39628793D01*
X42487000Y-39600454D01*
X42487000Y-32124834D01*
X42604197Y-32046525D01*
X42755881Y-31894841D01*
X42875059Y-31716479D01*
X42957150Y-31518294D01*
X42999000Y-31307901D01*
X42999000Y-31093387D01*
X42957150Y-30882994D01*
X42875059Y-30684809D01*
X42755881Y-30506447D01*
X42604197Y-30354763D01*
X42425835Y-30235585D01*
X42227650Y-30153494D01*
X42017257Y-30111644D01*
X41802743Y-30111644D01*
X41592350Y-30153494D01*
X41394165Y-30235585D01*
X41215803Y-30354763D01*
X41064119Y-30506447D01*
X40944941Y-30684809D01*
X40862850Y-30882994D01*
X40821000Y-31093387D01*
X40821000Y-31307901D01*
X40862850Y-31518294D01*
X40944941Y-31716479D01*
X41064119Y-31894841D01*
X41215803Y-32046525D01*
X41333000Y-32124834D01*
X41333001Y-39389791D01*
X29584038Y-51138754D01*
X29562026Y-51156819D01*
X29489921Y-51244679D01*
X29436343Y-51344918D01*
X29427510Y-51374038D01*
X29403349Y-51453682D01*
X29392210Y-51566793D01*
X29395000Y-51595124D01*
X29395001Y-52817972D01*
X29221706Y-52933764D01*
X29057764Y-53097706D01*
X28928956Y-53290481D01*
X28840231Y-53504682D01*
X28795000Y-53732076D01*
X28609000Y-53732076D01*
X28563769Y-53504682D01*
X28475044Y-53290481D01*
X28346236Y-53097706D01*
X28182294Y-52933764D01*
X27989519Y-52804956D01*
X27775318Y-52716231D01*
X27547924Y-52671000D01*
X27316076Y-52671000D01*
X27088682Y-52716231D01*
X26874481Y-52804956D01*
X26681706Y-52933764D01*
X26517764Y-53097706D01*
X26388956Y-53290481D01*
X26300231Y-53504682D01*
X26255000Y-53732076D01*
X26255000Y-53963924D01*
X26300231Y-54191318D01*
X26388956Y-54405519D01*
X26503320Y-54576677D01*
X26092989Y-54987008D01*
X25198925Y-54987008D01*
X25235318Y-54979769D01*
X25449519Y-54891044D01*
X25642294Y-54762236D01*
X25806236Y-54598294D01*
X25935044Y-54405519D01*
X26023769Y-54191318D01*
X26069000Y-53963924D01*
X26069000Y-53732076D01*
X26023769Y-53504682D01*
X25935044Y-53290481D01*
X25806236Y-53097706D01*
X25642294Y-52933764D01*
X25449519Y-52804956D01*
X25382991Y-52777399D01*
X25382991Y-50392415D01*
X25436636Y-50428259D01*
X25568942Y-50483062D01*
X25709397Y-50511000D01*
X25852603Y-50511000D01*
X25993058Y-50483062D01*
X26125364Y-50428259D01*
X26244436Y-50348698D01*
X26345698Y-50247436D01*
X26425259Y-50128364D01*
X26480062Y-49996058D01*
X26508000Y-49855603D01*
X26508000Y-49712397D01*
X26480062Y-49571942D01*
X26425259Y-49439636D01*
X26345698Y-49320564D01*
X26244436Y-49219302D01*
X26125364Y-49139741D01*
X25993058Y-49084938D01*
X25852603Y-49057000D01*
X25833001Y-49057000D01*
X25833001Y-47817531D01*
X25919706Y-47904236D01*
X26112481Y-48033044D01*
X26326682Y-48121769D01*
X26554076Y-48167000D01*
X26785924Y-48167000D01*
X27013318Y-48121769D01*
X27227519Y-48033044D01*
X27420294Y-47904236D01*
X27584236Y-47740294D01*
X27713044Y-47547519D01*
X27801769Y-47333318D01*
X27847000Y-47105924D01*
X27847000Y-46874076D01*
X29303000Y-46874076D01*
X29303000Y-47105924D01*
X29348231Y-47333318D01*
X29436956Y-47547519D01*
X29565764Y-47740294D01*
X29729706Y-47904236D01*
X29922481Y-48033044D01*
X30136682Y-48121769D01*
X30364076Y-48167000D01*
X30595924Y-48167000D01*
X30823318Y-48121769D01*
X31037519Y-48033044D01*
X31230294Y-47904236D01*
X31394236Y-47740294D01*
X31523044Y-47547519D01*
X31611769Y-47333318D01*
X31657000Y-47105924D01*
X31657000Y-46874076D01*
X31611769Y-46646682D01*
X31523044Y-46432481D01*
X31394236Y-46239706D01*
X31230294Y-46075764D01*
X31037519Y-45946956D01*
X30823318Y-45858231D01*
X30595924Y-45813000D01*
X30364076Y-45813000D01*
X30136682Y-45858231D01*
X29922481Y-45946956D01*
X29729706Y-46075764D01*
X29565764Y-46239706D01*
X29436956Y-46432481D01*
X29348231Y-46646682D01*
X29303000Y-46874076D01*
X27847000Y-46874076D01*
X27801769Y-46646682D01*
X27713044Y-46432481D01*
X27584236Y-46239706D01*
X27420294Y-46075764D01*
X27227519Y-45946956D01*
X27013318Y-45858231D01*
X26785924Y-45813000D01*
X26554076Y-45813000D01*
X26326682Y-45858231D01*
X26112481Y-45946956D01*
X25919706Y-46075764D01*
X25833001Y-46162469D01*
X25833001Y-45277531D01*
X25919706Y-45364236D01*
X26112481Y-45493044D01*
X26326682Y-45581769D01*
X26554076Y-45627000D01*
X26785924Y-45627000D01*
X27013318Y-45581769D01*
X27227519Y-45493044D01*
X27420294Y-45364236D01*
X27584236Y-45200294D01*
X27713044Y-45007519D01*
X27801769Y-44793318D01*
X27847000Y-44565924D01*
X27847000Y-44334076D01*
X27801769Y-44106682D01*
X27713044Y-43892481D01*
X27584236Y-43699706D01*
X27420294Y-43535764D01*
X27227519Y-43406956D01*
X27062821Y-43338736D01*
X27301252Y-43254157D01*
X27551355Y-43105178D01*
X27767588Y-42910269D01*
X27941641Y-42676920D01*
X28066825Y-42414099D01*
X28111476Y-42266890D01*
X29038524Y-42266890D01*
X29083175Y-42414099D01*
X29208359Y-42676920D01*
X29382412Y-42910269D01*
X29598645Y-43105178D01*
X29848748Y-43254157D01*
X30087179Y-43338736D01*
X29922481Y-43406956D01*
X29729706Y-43535764D01*
X29565764Y-43699706D01*
X29436956Y-43892481D01*
X29348231Y-44106682D01*
X29303000Y-44334076D01*
X29303000Y-44565924D01*
X29348231Y-44793318D01*
X29436956Y-45007519D01*
X29565764Y-45200294D01*
X29729706Y-45364236D01*
X29922481Y-45493044D01*
X30136682Y-45581769D01*
X30364076Y-45627000D01*
X30595924Y-45627000D01*
X30823318Y-45581769D01*
X31037519Y-45493044D01*
X31230294Y-45364236D01*
X31394236Y-45200294D01*
X31523044Y-45007519D01*
X31611769Y-44793318D01*
X31657000Y-44565924D01*
X31657000Y-44334076D01*
X31611769Y-44106682D01*
X31523044Y-43892481D01*
X31394236Y-43699706D01*
X31230294Y-43535764D01*
X31037519Y-43406956D01*
X30872821Y-43338736D01*
X31111252Y-43254157D01*
X31361355Y-43105178D01*
X31577588Y-42910269D01*
X31751641Y-42676920D01*
X31876825Y-42414099D01*
X31921476Y-42266890D01*
X31800155Y-42037000D01*
X30607000Y-42037000D01*
X30607000Y-42057000D01*
X30353000Y-42057000D01*
X30353000Y-42037000D01*
X29159845Y-42037000D01*
X29038524Y-42266890D01*
X28111476Y-42266890D01*
X27990155Y-42037000D01*
X26797000Y-42037000D01*
X26797000Y-42057000D01*
X26543000Y-42057000D01*
X26543000Y-42037000D01*
X26523000Y-42037000D01*
X26523000Y-41783000D01*
X26543000Y-41783000D01*
X26543000Y-41763000D01*
X26797000Y-41763000D01*
X26797000Y-41783000D01*
X27990155Y-41783000D01*
X28111476Y-41553110D01*
X29038524Y-41553110D01*
X29159845Y-41783000D01*
X30353000Y-41783000D01*
X30353000Y-41763000D01*
X30607000Y-41763000D01*
X30607000Y-41783000D01*
X31800155Y-41783000D01*
X31921476Y-41553110D01*
X31876825Y-41405901D01*
X31751641Y-41143080D01*
X31577588Y-40909731D01*
X31361355Y-40714822D01*
X31111252Y-40565843D01*
X30872821Y-40481264D01*
X31037519Y-40413044D01*
X31230294Y-40284236D01*
X31394236Y-40120294D01*
X31523044Y-39927519D01*
X31611769Y-39713318D01*
X31657000Y-39485924D01*
X31657000Y-39254076D01*
X31611769Y-39026682D01*
X31523044Y-38812481D01*
X31394236Y-38619706D01*
X31230294Y-38455764D01*
X31037519Y-38326956D01*
X30823318Y-38238231D01*
X30595924Y-38193000D01*
X30364076Y-38193000D01*
X30136682Y-38238231D01*
X29922481Y-38326956D01*
X29729706Y-38455764D01*
X29565764Y-38619706D01*
X29436956Y-38812481D01*
X29348231Y-39026682D01*
X29303000Y-39254076D01*
X29303000Y-39485924D01*
X29348231Y-39713318D01*
X29436956Y-39927519D01*
X29565764Y-40120294D01*
X29729706Y-40284236D01*
X29922481Y-40413044D01*
X30087179Y-40481264D01*
X29848748Y-40565843D01*
X29598645Y-40714822D01*
X29382412Y-40909731D01*
X29208359Y-41143080D01*
X29083175Y-41405901D01*
X29038524Y-41553110D01*
X28111476Y-41553110D01*
X28066825Y-41405901D01*
X27941641Y-41143080D01*
X27767588Y-40909731D01*
X27551355Y-40714822D01*
X27301252Y-40565843D01*
X27062821Y-40481264D01*
X27227519Y-40413044D01*
X27420294Y-40284236D01*
X27584236Y-40120294D01*
X27713044Y-39927519D01*
X27801769Y-39713318D01*
X27847000Y-39485924D01*
X27847000Y-39254076D01*
X27801769Y-39026682D01*
X27713044Y-38812481D01*
X27584236Y-38619706D01*
X27420294Y-38455764D01*
X27227519Y-38326956D01*
X27013318Y-38238231D01*
X26785924Y-38193000D01*
X26554076Y-38193000D01*
X26326682Y-38238231D01*
X26112481Y-38326956D01*
X25919706Y-38455764D01*
X25833001Y-38542469D01*
X25833001Y-38306222D01*
X26130641Y-38008582D01*
X27520000Y-38008582D01*
X27584103Y-38002268D01*
X27645743Y-37983570D01*
X27702550Y-37953206D01*
X27752343Y-37912343D01*
X27793206Y-37862550D01*
X27823570Y-37805743D01*
X27842268Y-37744103D01*
X27848582Y-37680000D01*
X27848582Y-35980000D01*
X29301418Y-35980000D01*
X29301418Y-37680000D01*
X29307732Y-37744103D01*
X29326430Y-37805743D01*
X29356794Y-37862550D01*
X29397657Y-37912343D01*
X29447450Y-37953206D01*
X29504257Y-37983570D01*
X29565897Y-38002268D01*
X29630000Y-38008582D01*
X31330000Y-38008582D01*
X31394103Y-38002268D01*
X31455743Y-37983570D01*
X31512550Y-37953206D01*
X31562343Y-37912343D01*
X31603206Y-37862550D01*
X31633570Y-37805743D01*
X31652268Y-37744103D01*
X31658582Y-37680000D01*
X31658582Y-35980000D01*
X31652268Y-35915897D01*
X31633570Y-35854257D01*
X31603206Y-35797450D01*
X31562343Y-35747657D01*
X31512550Y-35706794D01*
X31455743Y-35676430D01*
X31394103Y-35657732D01*
X31330000Y-35651418D01*
X29630000Y-35651418D01*
X29565897Y-35657732D01*
X29504257Y-35676430D01*
X29447450Y-35706794D01*
X29397657Y-35747657D01*
X29356794Y-35797450D01*
X29326430Y-35854257D01*
X29307732Y-35915897D01*
X29301418Y-35980000D01*
X27848582Y-35980000D01*
X27842268Y-35915897D01*
X27823570Y-35854257D01*
X27793206Y-35797450D01*
X27752343Y-35747657D01*
X27702550Y-35706794D01*
X27645743Y-35676430D01*
X27584103Y-35657732D01*
X27520000Y-35651418D01*
X26154581Y-35651418D01*
X28816354Y-32989645D01*
X35589668Y-32989645D01*
X35617999Y-32992435D01*
X35646330Y-32989645D01*
X35646335Y-32989645D01*
X35676044Y-32986719D01*
X35731110Y-32981296D01*
X35775769Y-32967748D01*
X35839875Y-32948302D01*
X35940114Y-32894724D01*
X36027973Y-32822619D01*
X36046038Y-32800607D01*
X36584500Y-32262146D01*
X36722743Y-32289644D01*
X36937257Y-32289644D01*
X37147650Y-32247794D01*
X37345835Y-32165703D01*
X37524197Y-32046525D01*
X37675881Y-31894841D01*
X37795059Y-31716479D01*
X37877150Y-31518294D01*
X37919000Y-31307901D01*
X37919000Y-31093387D01*
X37877150Y-30882994D01*
X37795059Y-30684809D01*
X37675881Y-30506447D01*
X37524197Y-30354763D01*
X37345835Y-30235585D01*
X37147650Y-30153494D01*
X36937257Y-30111644D01*
X36722743Y-30111644D01*
X36512350Y-30153494D01*
X36314165Y-30235585D01*
X36135803Y-30354763D01*
X35984119Y-30506447D01*
X35864941Y-30684809D01*
X35782850Y-30882994D01*
X35741000Y-31093387D01*
X35741000Y-31307901D01*
X35768498Y-31446144D01*
X35378998Y-31835645D01*
X35175435Y-31835645D01*
X35255059Y-31716479D01*
X35337150Y-31518294D01*
X35379000Y-31307901D01*
X35379000Y-31093387D01*
X35337150Y-30882994D01*
X35255059Y-30684809D01*
X35135881Y-30506447D01*
X34984197Y-30354763D01*
X34805835Y-30235585D01*
X34607650Y-30153494D01*
X34397257Y-30111644D01*
X34182743Y-30111644D01*
X34044500Y-30139142D01*
X33770990Y-29865633D01*
X37218988Y-29865633D01*
X38308498Y-30955143D01*
X38281000Y-31093387D01*
X38281000Y-31307901D01*
X38322850Y-31518294D01*
X38404941Y-31716479D01*
X38524119Y-31894841D01*
X38675803Y-32046525D01*
X38854165Y-32165703D01*
X39052350Y-32247794D01*
X39262743Y-32289644D01*
X39477257Y-32289644D01*
X39687650Y-32247794D01*
X39885835Y-32165703D01*
X40064197Y-32046525D01*
X40215881Y-31894841D01*
X40335059Y-31716479D01*
X40417150Y-31518294D01*
X40459000Y-31307901D01*
X40459000Y-31093387D01*
X40417150Y-30882994D01*
X40335059Y-30684809D01*
X40215881Y-30506447D01*
X40064197Y-30354763D01*
X39885835Y-30235585D01*
X39687650Y-30153494D01*
X39477257Y-30111644D01*
X39262743Y-30111644D01*
X39124499Y-30139142D01*
X37886028Y-28900671D01*
X37867963Y-28878659D01*
X37780104Y-28806554D01*
X37679865Y-28752976D01*
X37615759Y-28733530D01*
X37571100Y-28719982D01*
X37516034Y-28714559D01*
X37486325Y-28711633D01*
X37486320Y-28711633D01*
X37457989Y-28708843D01*
X37429658Y-28711633D01*
X29749770Y-28711633D01*
X29721439Y-28708843D01*
X29693108Y-28711633D01*
X29693104Y-28711633D01*
X29669411Y-28713967D01*
X29608328Y-28719982D01*
X29544222Y-28739429D01*
X29499564Y-28752976D01*
X29399325Y-28806554D01*
X29353420Y-28844228D01*
X29333475Y-28860596D01*
X29333473Y-28860598D01*
X29311466Y-28878659D01*
X29293405Y-28900666D01*
X20664037Y-37530035D01*
X20642025Y-37548100D01*
X20569920Y-37635960D01*
X20516342Y-37736199D01*
X20508774Y-37761147D01*
X20483348Y-37844963D01*
X20477333Y-37906046D01*
X20476713Y-37912343D01*
X20472209Y-37958074D01*
X20279000Y-37958074D01*
X20279000Y-23940207D01*
X22965000Y-23940207D01*
X22965000Y-24319793D01*
X23039053Y-24692085D01*
X23184315Y-25042777D01*
X23395201Y-25358391D01*
X23663609Y-25626799D01*
X23979223Y-25837685D01*
X24329915Y-25982947D01*
X24702207Y-26057000D01*
X25081793Y-26057000D01*
X25454085Y-25982947D01*
X25804777Y-25837685D01*
X26120391Y-25626799D01*
X26388799Y-25358391D01*
X26599685Y-25042777D01*
X26744947Y-24692085D01*
X26773963Y-24546209D01*
X30964040Y-24546209D01*
X31031020Y-24786300D01*
X31280048Y-24903400D01*
X31547135Y-24969667D01*
X31822017Y-24982554D01*
X32094133Y-24941566D01*
X32353023Y-24848280D01*
X32468980Y-24786300D01*
X32535960Y-24546209D01*
X31750000Y-23760249D01*
X30964040Y-24546209D01*
X26773963Y-24546209D01*
X26819000Y-24319793D01*
X26819000Y-23940207D01*
X26761804Y-23652661D01*
X30348090Y-23652661D01*
X30389078Y-23924777D01*
X30482364Y-24183667D01*
X30544344Y-24299624D01*
X30784435Y-24366604D01*
X31570395Y-23580644D01*
X31929605Y-23580644D01*
X32715565Y-24366604D01*
X32955656Y-24299624D01*
X33072756Y-24050596D01*
X33139023Y-23783509D01*
X33151910Y-23508627D01*
X33146602Y-23473387D01*
X33201000Y-23473387D01*
X33201000Y-23687901D01*
X33242850Y-23898294D01*
X33324941Y-24096479D01*
X33444119Y-24274841D01*
X33595803Y-24426525D01*
X33774165Y-24545703D01*
X33972350Y-24627794D01*
X34182743Y-24669644D01*
X34397257Y-24669644D01*
X34607650Y-24627794D01*
X34805835Y-24545703D01*
X34984197Y-24426525D01*
X35135881Y-24274841D01*
X35255059Y-24096479D01*
X35337150Y-23898294D01*
X35379000Y-23687901D01*
X35379000Y-23473387D01*
X35741000Y-23473387D01*
X35741000Y-23687901D01*
X35782850Y-23898294D01*
X35864941Y-24096479D01*
X35984119Y-24274841D01*
X36135803Y-24426525D01*
X36314165Y-24545703D01*
X36512350Y-24627794D01*
X36722743Y-24669644D01*
X36937257Y-24669644D01*
X37147650Y-24627794D01*
X37345835Y-24545703D01*
X37524197Y-24426525D01*
X37675881Y-24274841D01*
X37795059Y-24096479D01*
X37877150Y-23898294D01*
X37919000Y-23687901D01*
X37919000Y-23473387D01*
X38281000Y-23473387D01*
X38281000Y-23687901D01*
X38322850Y-23898294D01*
X38404941Y-24096479D01*
X38524119Y-24274841D01*
X38675803Y-24426525D01*
X38854165Y-24545703D01*
X39052350Y-24627794D01*
X39262743Y-24669644D01*
X39477257Y-24669644D01*
X39687650Y-24627794D01*
X39885835Y-24545703D01*
X40064197Y-24426525D01*
X40215881Y-24274841D01*
X40335059Y-24096479D01*
X40417150Y-23898294D01*
X40459000Y-23687901D01*
X40459000Y-23473387D01*
X40821000Y-23473387D01*
X40821000Y-23687901D01*
X40862850Y-23898294D01*
X40944941Y-24096479D01*
X41064119Y-24274841D01*
X41215803Y-24426525D01*
X41394165Y-24545703D01*
X41592350Y-24627794D01*
X41802743Y-24669644D01*
X42017257Y-24669644D01*
X42227650Y-24627794D01*
X42425835Y-24545703D01*
X42604197Y-24426525D01*
X42755881Y-24274841D01*
X42875059Y-24096479D01*
X42957150Y-23898294D01*
X42999000Y-23687901D01*
X42999000Y-23473387D01*
X43361000Y-23473387D01*
X43361000Y-23687901D01*
X43402850Y-23898294D01*
X43484941Y-24096479D01*
X43604119Y-24274841D01*
X43755803Y-24426525D01*
X43934165Y-24545703D01*
X44132350Y-24627794D01*
X44342743Y-24669644D01*
X44557257Y-24669644D01*
X44767650Y-24627794D01*
X44965835Y-24545703D01*
X45144197Y-24426525D01*
X45295881Y-24274841D01*
X45415059Y-24096479D01*
X45497150Y-23898294D01*
X45539000Y-23687901D01*
X45539000Y-23473387D01*
X45901000Y-23473387D01*
X45901000Y-23687901D01*
X45942850Y-23898294D01*
X46024941Y-24096479D01*
X46144119Y-24274841D01*
X46295803Y-24426525D01*
X46474165Y-24545703D01*
X46672350Y-24627794D01*
X46882743Y-24669644D01*
X47097257Y-24669644D01*
X47307650Y-24627794D01*
X47505835Y-24545703D01*
X47684197Y-24426525D01*
X47835881Y-24274841D01*
X47955059Y-24096479D01*
X48037150Y-23898294D01*
X48079000Y-23687901D01*
X48079000Y-23473387D01*
X48441000Y-23473387D01*
X48441000Y-23687901D01*
X48482850Y-23898294D01*
X48564941Y-24096479D01*
X48684119Y-24274841D01*
X48835803Y-24426525D01*
X49014165Y-24545703D01*
X49212350Y-24627794D01*
X49422743Y-24669644D01*
X49637257Y-24669644D01*
X49847650Y-24627794D01*
X50045835Y-24545703D01*
X50224197Y-24426525D01*
X50375881Y-24274841D01*
X50495059Y-24096479D01*
X50577150Y-23898294D01*
X50619000Y-23687901D01*
X50619000Y-23473387D01*
X50577150Y-23262994D01*
X50495059Y-23064809D01*
X50375881Y-22886447D01*
X50308078Y-22818644D01*
X50979418Y-22818644D01*
X50979418Y-24342644D01*
X50985732Y-24406747D01*
X51004430Y-24468387D01*
X51034794Y-24525194D01*
X51075657Y-24574987D01*
X51125450Y-24615850D01*
X51182257Y-24646214D01*
X51243897Y-24664912D01*
X51308000Y-24671226D01*
X52832000Y-24671226D01*
X52896103Y-24664912D01*
X52957743Y-24646214D01*
X53014550Y-24615850D01*
X53064343Y-24574987D01*
X53105206Y-24525194D01*
X53135570Y-24468387D01*
X53154268Y-24406747D01*
X53160582Y-24342644D01*
X53160582Y-22818644D01*
X53154268Y-22754541D01*
X53135570Y-22692901D01*
X53105206Y-22636094D01*
X53064343Y-22586301D01*
X53014550Y-22545438D01*
X52957743Y-22515074D01*
X52896103Y-22496376D01*
X52832000Y-22490062D01*
X51308000Y-22490062D01*
X51243897Y-22496376D01*
X51182257Y-22515074D01*
X51125450Y-22545438D01*
X51075657Y-22586301D01*
X51034794Y-22636094D01*
X51004430Y-22692901D01*
X50985732Y-22754541D01*
X50979418Y-22818644D01*
X50308078Y-22818644D01*
X50224197Y-22734763D01*
X50045835Y-22615585D01*
X49847650Y-22533494D01*
X49637257Y-22491644D01*
X49422743Y-22491644D01*
X49212350Y-22533494D01*
X49014165Y-22615585D01*
X48835803Y-22734763D01*
X48684119Y-22886447D01*
X48564941Y-23064809D01*
X48482850Y-23262994D01*
X48441000Y-23473387D01*
X48079000Y-23473387D01*
X48037150Y-23262994D01*
X47955059Y-23064809D01*
X47835881Y-22886447D01*
X47684197Y-22734763D01*
X47505835Y-22615585D01*
X47307650Y-22533494D01*
X47097257Y-22491644D01*
X46882743Y-22491644D01*
X46672350Y-22533494D01*
X46474165Y-22615585D01*
X46295803Y-22734763D01*
X46144119Y-22886447D01*
X46024941Y-23064809D01*
X45942850Y-23262994D01*
X45901000Y-23473387D01*
X45539000Y-23473387D01*
X45497150Y-23262994D01*
X45415059Y-23064809D01*
X45295881Y-22886447D01*
X45144197Y-22734763D01*
X44965835Y-22615585D01*
X44767650Y-22533494D01*
X44557257Y-22491644D01*
X44342743Y-22491644D01*
X44132350Y-22533494D01*
X43934165Y-22615585D01*
X43755803Y-22734763D01*
X43604119Y-22886447D01*
X43484941Y-23064809D01*
X43402850Y-23262994D01*
X43361000Y-23473387D01*
X42999000Y-23473387D01*
X42957150Y-23262994D01*
X42875059Y-23064809D01*
X42755881Y-22886447D01*
X42604197Y-22734763D01*
X42425835Y-22615585D01*
X42227650Y-22533494D01*
X42017257Y-22491644D01*
X41802743Y-22491644D01*
X41592350Y-22533494D01*
X41394165Y-22615585D01*
X41215803Y-22734763D01*
X41064119Y-22886447D01*
X40944941Y-23064809D01*
X40862850Y-23262994D01*
X40821000Y-23473387D01*
X40459000Y-23473387D01*
X40417150Y-23262994D01*
X40335059Y-23064809D01*
X40215881Y-22886447D01*
X40064197Y-22734763D01*
X39885835Y-22615585D01*
X39687650Y-22533494D01*
X39477257Y-22491644D01*
X39262743Y-22491644D01*
X39052350Y-22533494D01*
X38854165Y-22615585D01*
X38675803Y-22734763D01*
X38524119Y-22886447D01*
X38404941Y-23064809D01*
X38322850Y-23262994D01*
X38281000Y-23473387D01*
X37919000Y-23473387D01*
X37877150Y-23262994D01*
X37795059Y-23064809D01*
X37675881Y-22886447D01*
X37524197Y-22734763D01*
X37345835Y-22615585D01*
X37147650Y-22533494D01*
X36937257Y-22491644D01*
X36722743Y-22491644D01*
X36512350Y-22533494D01*
X36314165Y-22615585D01*
X36135803Y-22734763D01*
X35984119Y-22886447D01*
X35864941Y-23064809D01*
X35782850Y-23262994D01*
X35741000Y-23473387D01*
X35379000Y-23473387D01*
X35337150Y-23262994D01*
X35255059Y-23064809D01*
X35135881Y-22886447D01*
X34984197Y-22734763D01*
X34805835Y-22615585D01*
X34607650Y-22533494D01*
X34397257Y-22491644D01*
X34182743Y-22491644D01*
X33972350Y-22533494D01*
X33774165Y-22615585D01*
X33595803Y-22734763D01*
X33444119Y-22886447D01*
X33324941Y-23064809D01*
X33242850Y-23262994D01*
X33201000Y-23473387D01*
X33146602Y-23473387D01*
X33110922Y-23236511D01*
X33017636Y-22977621D01*
X32955656Y-22861664D01*
X32715565Y-22794684D01*
X31929605Y-23580644D01*
X31570395Y-23580644D01*
X30784435Y-22794684D01*
X30544344Y-22861664D01*
X30427244Y-23110692D01*
X30360977Y-23377779D01*
X30348090Y-23652661D01*
X26761804Y-23652661D01*
X26744947Y-23567915D01*
X26599685Y-23217223D01*
X26388799Y-22901609D01*
X26120391Y-22633201D01*
X26093270Y-22615079D01*
X30964040Y-22615079D01*
X31750000Y-23401039D01*
X32535960Y-22615079D01*
X32468980Y-22374988D01*
X32219952Y-22257888D01*
X31952865Y-22191621D01*
X31677983Y-22178734D01*
X31405867Y-22219722D01*
X31146977Y-22313008D01*
X31031020Y-22374988D01*
X30964040Y-22615079D01*
X26093270Y-22615079D01*
X25804777Y-22422315D01*
X25454085Y-22277053D01*
X25081793Y-22203000D01*
X24702207Y-22203000D01*
X24329915Y-22277053D01*
X23979223Y-22422315D01*
X23663609Y-22633201D01*
X23395201Y-22901609D01*
X23184315Y-23217223D01*
X23039053Y-23567915D01*
X22965000Y-23940207D01*
X20279000Y-23940207D01*
X20279000Y-20279000D01*
X69721000Y-20279000D01*
X69721001Y-59721000D01*
G37*
%TD.AperFunction*%
%TD*%
M02*
