%TF.GenerationSoftware,KiCad,Pcbnew,5.1.10-88a1d61d58~90~ubuntu20.04.1*%
%TF.CreationDate,2021-11-11T20:41:13-05:00*%
%TF.ProjectId,pcb-controller,7063622d-636f-46e7-9472-6f6c6c65722e,rev?*%
%TF.SameCoordinates,Original*%
%TF.FileFunction,Soldermask,Top*%
%TF.FilePolarity,Negative*%
%FSLAX46Y46*%
G04 Gerber Fmt 4.6, Leading zero omitted, Abs format (unit mm)*
G04 Created by KiCad (PCBNEW 5.1.10-88a1d61d58~90~ubuntu20.04.1) date 2021-11-11 20:41:13*
%MOMM*%
%LPD*%
G01*
G04 APERTURE LIST*
%ADD10C,1.524000*%
%ADD11R,1.524000X1.524000*%
%ADD12C,0.100000*%
%ADD13O,1.350000X1.350000*%
%ADD14R,1.350000X1.350000*%
%ADD15C,3.200000*%
%ADD16R,4.100000X4.100000*%
%ADD17O,1.700000X1.700000*%
%ADD18R,1.700000X1.700000*%
G04 APERTURE END LIST*
%TO.C,C5*%
G36*
G01*
X28415000Y-28694000D02*
X27465000Y-28694000D01*
G75*
G02*
X27215000Y-28444000I0J250000D01*
G01*
X27215000Y-27944000D01*
G75*
G02*
X27465000Y-27694000I250000J0D01*
G01*
X28415000Y-27694000D01*
G75*
G02*
X28665000Y-27944000I0J-250000D01*
G01*
X28665000Y-28444000D01*
G75*
G02*
X28415000Y-28694000I-250000J0D01*
G01*
G37*
G36*
G01*
X28415000Y-30594000D02*
X27465000Y-30594000D01*
G75*
G02*
X27215000Y-30344000I0J250000D01*
G01*
X27215000Y-29844000D01*
G75*
G02*
X27465000Y-29594000I250000J0D01*
G01*
X28415000Y-29594000D01*
G75*
G02*
X28665000Y-29844000I0J-250000D01*
G01*
X28665000Y-30344000D01*
G75*
G02*
X28415000Y-30594000I-250000J0D01*
G01*
G37*
%TD*%
%TO.C,C4*%
G36*
G01*
X60013000Y-22319000D02*
X60013000Y-21369000D01*
G75*
G02*
X60263000Y-21119000I250000J0D01*
G01*
X60763000Y-21119000D01*
G75*
G02*
X61013000Y-21369000I0J-250000D01*
G01*
X61013000Y-22319000D01*
G75*
G02*
X60763000Y-22569000I-250000J0D01*
G01*
X60263000Y-22569000D01*
G75*
G02*
X60013000Y-22319000I0J250000D01*
G01*
G37*
G36*
G01*
X58113000Y-22319000D02*
X58113000Y-21369000D01*
G75*
G02*
X58363000Y-21119000I250000J0D01*
G01*
X58863000Y-21119000D01*
G75*
G02*
X59113000Y-21369000I0J-250000D01*
G01*
X59113000Y-22319000D01*
G75*
G02*
X58863000Y-22569000I-250000J0D01*
G01*
X58363000Y-22569000D01*
G75*
G02*
X58113000Y-22319000I0J250000D01*
G01*
G37*
%TD*%
%TO.C,C3*%
G36*
G01*
X32001000Y-49436000D02*
X32001000Y-50386000D01*
G75*
G02*
X31751000Y-50636000I-250000J0D01*
G01*
X31251000Y-50636000D01*
G75*
G02*
X31001000Y-50386000I0J250000D01*
G01*
X31001000Y-49436000D01*
G75*
G02*
X31251000Y-49186000I250000J0D01*
G01*
X31751000Y-49186000D01*
G75*
G02*
X32001000Y-49436000I0J-250000D01*
G01*
G37*
G36*
G01*
X33901000Y-49436000D02*
X33901000Y-50386000D01*
G75*
G02*
X33651000Y-50636000I-250000J0D01*
G01*
X33151000Y-50636000D01*
G75*
G02*
X32901000Y-50386000I0J250000D01*
G01*
X32901000Y-49436000D01*
G75*
G02*
X33151000Y-49186000I250000J0D01*
G01*
X33651000Y-49186000D01*
G75*
G02*
X33901000Y-49436000I0J-250000D01*
G01*
G37*
%TD*%
%TO.C,C2*%
G36*
G01*
X22564000Y-32990000D02*
X23664000Y-32990000D01*
G75*
G02*
X23914000Y-33240000I0J-250000D01*
G01*
X23914000Y-35340000D01*
G75*
G02*
X23664000Y-35590000I-250000J0D01*
G01*
X22564000Y-35590000D01*
G75*
G02*
X22314000Y-35340000I0J250000D01*
G01*
X22314000Y-33240000D01*
G75*
G02*
X22564000Y-32990000I250000J0D01*
G01*
G37*
G36*
G01*
X22564000Y-29390000D02*
X23664000Y-29390000D01*
G75*
G02*
X23914000Y-29640000I0J-250000D01*
G01*
X23914000Y-31740000D01*
G75*
G02*
X23664000Y-31990000I-250000J0D01*
G01*
X22564000Y-31990000D01*
G75*
G02*
X22314000Y-31740000I0J250000D01*
G01*
X22314000Y-29640000D01*
G75*
G02*
X22564000Y-29390000I250000J0D01*
G01*
G37*
%TD*%
%TO.C,C1*%
G36*
G01*
X51774000Y-37308000D02*
X52874000Y-37308000D01*
G75*
G02*
X53124000Y-37558000I0J-250000D01*
G01*
X53124000Y-39658000D01*
G75*
G02*
X52874000Y-39908000I-250000J0D01*
G01*
X51774000Y-39908000D01*
G75*
G02*
X51524000Y-39658000I0J250000D01*
G01*
X51524000Y-37558000D01*
G75*
G02*
X51774000Y-37308000I250000J0D01*
G01*
G37*
G36*
G01*
X51774000Y-33708000D02*
X52874000Y-33708000D01*
G75*
G02*
X53124000Y-33958000I0J-250000D01*
G01*
X53124000Y-36058000D01*
G75*
G02*
X52874000Y-36308000I-250000J0D01*
G01*
X51774000Y-36308000D01*
G75*
G02*
X51524000Y-36058000I0J250000D01*
G01*
X51524000Y-33958000D01*
G75*
G02*
X51774000Y-33708000I250000J0D01*
G01*
G37*
%TD*%
D10*
%TO.C,CR1*%
X57361057Y-46375540D03*
X57361057Y-43835540D03*
X57361057Y-41295540D03*
X57361057Y-38755540D03*
X57361057Y-36215540D03*
X57361057Y-33675540D03*
X57361057Y-31135540D03*
X57361057Y-28595540D03*
X57361057Y-26055540D03*
X64981057Y-26055540D03*
X64981057Y-28595540D03*
X64981057Y-31135540D03*
X64981057Y-33675540D03*
X64981057Y-36215540D03*
X64981057Y-38755540D03*
X64981057Y-41295540D03*
X64981057Y-43835540D03*
D11*
X64981057Y-46375540D03*
%TD*%
D10*
%TO.C,CR2*%
X52070000Y-31200644D03*
X49530000Y-31200644D03*
X46990000Y-31200644D03*
X44450000Y-31200644D03*
X41910000Y-31200644D03*
X39370000Y-31200644D03*
X36830000Y-31200644D03*
X34290000Y-31200644D03*
X31750000Y-31200644D03*
X31750000Y-23580644D03*
X34290000Y-23580644D03*
X36830000Y-23580644D03*
X39370000Y-23580644D03*
X41910000Y-23580644D03*
X44450000Y-23580644D03*
X46990000Y-23580644D03*
X49530000Y-23580644D03*
D11*
X52070000Y-23580644D03*
%TD*%
D12*
%TO.C,A4*%
G36*
X50558602Y-48387000D02*
G01*
X50558602Y-48362466D01*
X50563412Y-48313635D01*
X50572984Y-48265510D01*
X50587228Y-48218555D01*
X50606005Y-48173222D01*
X50629136Y-48129949D01*
X50656396Y-48089150D01*
X50687524Y-48051221D01*
X50722221Y-48016524D01*
X50760150Y-47985396D01*
X50800949Y-47958136D01*
X50844222Y-47935005D01*
X50889555Y-47916228D01*
X50936510Y-47901984D01*
X50984635Y-47892412D01*
X51033466Y-47887602D01*
X51058000Y-47887602D01*
X51058000Y-47887000D01*
X51558000Y-47887000D01*
X51558000Y-47887602D01*
X51582534Y-47887602D01*
X51631365Y-47892412D01*
X51679490Y-47901984D01*
X51726445Y-47916228D01*
X51771778Y-47935005D01*
X51815051Y-47958136D01*
X51855850Y-47985396D01*
X51893779Y-48016524D01*
X51928476Y-48051221D01*
X51959604Y-48089150D01*
X51986864Y-48129949D01*
X52009995Y-48173222D01*
X52028772Y-48218555D01*
X52043016Y-48265510D01*
X52052588Y-48313635D01*
X52057398Y-48362466D01*
X52057398Y-48387000D01*
X52058000Y-48387000D01*
X52058000Y-48887000D01*
X50558000Y-48887000D01*
X50558000Y-48387000D01*
X50558602Y-48387000D01*
G37*
G36*
X52058000Y-49187000D02*
G01*
X52058000Y-49687000D01*
X52057398Y-49687000D01*
X52057398Y-49711534D01*
X52052588Y-49760365D01*
X52043016Y-49808490D01*
X52028772Y-49855445D01*
X52009995Y-49900778D01*
X51986864Y-49944051D01*
X51959604Y-49984850D01*
X51928476Y-50022779D01*
X51893779Y-50057476D01*
X51855850Y-50088604D01*
X51815051Y-50115864D01*
X51771778Y-50138995D01*
X51726445Y-50157772D01*
X51679490Y-50172016D01*
X51631365Y-50181588D01*
X51582534Y-50186398D01*
X51558000Y-50186398D01*
X51558000Y-50187000D01*
X51058000Y-50187000D01*
X51058000Y-50186398D01*
X51033466Y-50186398D01*
X50984635Y-50181588D01*
X50936510Y-50172016D01*
X50889555Y-50157772D01*
X50844222Y-50138995D01*
X50800949Y-50115864D01*
X50760150Y-50088604D01*
X50722221Y-50057476D01*
X50687524Y-50022779D01*
X50656396Y-49984850D01*
X50629136Y-49944051D01*
X50606005Y-49900778D01*
X50587228Y-49855445D01*
X50572984Y-49808490D01*
X50563412Y-49760365D01*
X50558602Y-49711534D01*
X50558602Y-49687000D01*
X50558000Y-49687000D01*
X50558000Y-49187000D01*
X52058000Y-49187000D01*
G37*
%TD*%
D13*
%TO.C,J3*%
X25880000Y-54864000D03*
X25880000Y-52864000D03*
X27880000Y-54864000D03*
X27880000Y-52864000D03*
X29880000Y-54864000D03*
X29880000Y-52864000D03*
X31880000Y-54864000D03*
X31880000Y-52864000D03*
X33880000Y-54864000D03*
X33880000Y-52864000D03*
X35880000Y-54864000D03*
X35880000Y-52864000D03*
X37880000Y-54864000D03*
X37880000Y-52864000D03*
X39880000Y-54864000D03*
X39880000Y-52864000D03*
X41880000Y-54864000D03*
X41880000Y-52864000D03*
X43880000Y-54864000D03*
X43880000Y-52864000D03*
X45880000Y-54864000D03*
X45880000Y-52864000D03*
X47880000Y-54864000D03*
X47880000Y-52864000D03*
X49880000Y-54864000D03*
X49880000Y-52864000D03*
X51880000Y-54864000D03*
X51880000Y-52864000D03*
X53880000Y-54864000D03*
X53880000Y-52864000D03*
X55880000Y-54864000D03*
D14*
X55880000Y-52864000D03*
%TD*%
D15*
%TO.C,H2*%
X64516000Y-54229000D03*
%TD*%
%TO.C,H1*%
X24892000Y-24130000D03*
%TD*%
D16*
%TO.C,U1*%
X37973000Y-39370000D03*
G36*
G01*
X35708000Y-41172800D02*
X35708000Y-41467200D01*
G75*
G02*
X35695200Y-41480000I-12800J0D01*
G01*
X34620800Y-41480000D01*
G75*
G02*
X34608000Y-41467200I0J12800D01*
G01*
X34608000Y-41172800D01*
G75*
G02*
X34620800Y-41160000I12800J0D01*
G01*
X35695200Y-41160000D01*
G75*
G02*
X35708000Y-41172800I0J-12800D01*
G01*
G37*
G36*
G01*
X35708000Y-40522800D02*
X35708000Y-40817200D01*
G75*
G02*
X35695200Y-40830000I-12800J0D01*
G01*
X34620800Y-40830000D01*
G75*
G02*
X34608000Y-40817200I0J12800D01*
G01*
X34608000Y-40522800D01*
G75*
G02*
X34620800Y-40510000I12800J0D01*
G01*
X35695200Y-40510000D01*
G75*
G02*
X35708000Y-40522800I0J-12800D01*
G01*
G37*
G36*
G01*
X35708000Y-39872800D02*
X35708000Y-40167200D01*
G75*
G02*
X35695200Y-40180000I-12800J0D01*
G01*
X34620800Y-40180000D01*
G75*
G02*
X34608000Y-40167200I0J12800D01*
G01*
X34608000Y-39872800D01*
G75*
G02*
X34620800Y-39860000I12800J0D01*
G01*
X35695200Y-39860000D01*
G75*
G02*
X35708000Y-39872800I0J-12800D01*
G01*
G37*
G36*
G01*
X35708000Y-39222800D02*
X35708000Y-39517200D01*
G75*
G02*
X35695200Y-39530000I-12800J0D01*
G01*
X34620800Y-39530000D01*
G75*
G02*
X34608000Y-39517200I0J12800D01*
G01*
X34608000Y-39222800D01*
G75*
G02*
X34620800Y-39210000I12800J0D01*
G01*
X35695200Y-39210000D01*
G75*
G02*
X35708000Y-39222800I0J-12800D01*
G01*
G37*
G36*
G01*
X35708000Y-38572800D02*
X35708000Y-38867200D01*
G75*
G02*
X35695200Y-38880000I-12800J0D01*
G01*
X34620800Y-38880000D01*
G75*
G02*
X34608000Y-38867200I0J12800D01*
G01*
X34608000Y-38572800D01*
G75*
G02*
X34620800Y-38560000I12800J0D01*
G01*
X35695200Y-38560000D01*
G75*
G02*
X35708000Y-38572800I0J-12800D01*
G01*
G37*
G36*
G01*
X35708000Y-37922800D02*
X35708000Y-38217200D01*
G75*
G02*
X35695200Y-38230000I-12800J0D01*
G01*
X34620800Y-38230000D01*
G75*
G02*
X34608000Y-38217200I0J12800D01*
G01*
X34608000Y-37922800D01*
G75*
G02*
X34620800Y-37910000I12800J0D01*
G01*
X35695200Y-37910000D01*
G75*
G02*
X35708000Y-37922800I0J-12800D01*
G01*
G37*
G36*
G01*
X35708000Y-37272800D02*
X35708000Y-37567200D01*
G75*
G02*
X35695200Y-37580000I-12800J0D01*
G01*
X34620800Y-37580000D01*
G75*
G02*
X34608000Y-37567200I0J12800D01*
G01*
X34608000Y-37272800D01*
G75*
G02*
X34620800Y-37260000I12800J0D01*
G01*
X35695200Y-37260000D01*
G75*
G02*
X35708000Y-37272800I0J-12800D01*
G01*
G37*
G36*
G01*
X41338000Y-37272800D02*
X41338000Y-37567200D01*
G75*
G02*
X41325200Y-37580000I-12800J0D01*
G01*
X40250800Y-37580000D01*
G75*
G02*
X40238000Y-37567200I0J12800D01*
G01*
X40238000Y-37272800D01*
G75*
G02*
X40250800Y-37260000I12800J0D01*
G01*
X41325200Y-37260000D01*
G75*
G02*
X41338000Y-37272800I0J-12800D01*
G01*
G37*
G36*
G01*
X41338000Y-37922800D02*
X41338000Y-38217200D01*
G75*
G02*
X41325200Y-38230000I-12800J0D01*
G01*
X40250800Y-38230000D01*
G75*
G02*
X40238000Y-38217200I0J12800D01*
G01*
X40238000Y-37922800D01*
G75*
G02*
X40250800Y-37910000I12800J0D01*
G01*
X41325200Y-37910000D01*
G75*
G02*
X41338000Y-37922800I0J-12800D01*
G01*
G37*
G36*
G01*
X41338000Y-38572800D02*
X41338000Y-38867200D01*
G75*
G02*
X41325200Y-38880000I-12800J0D01*
G01*
X40250800Y-38880000D01*
G75*
G02*
X40238000Y-38867200I0J12800D01*
G01*
X40238000Y-38572800D01*
G75*
G02*
X40250800Y-38560000I12800J0D01*
G01*
X41325200Y-38560000D01*
G75*
G02*
X41338000Y-38572800I0J-12800D01*
G01*
G37*
G36*
G01*
X41338000Y-39222800D02*
X41338000Y-39517200D01*
G75*
G02*
X41325200Y-39530000I-12800J0D01*
G01*
X40250800Y-39530000D01*
G75*
G02*
X40238000Y-39517200I0J12800D01*
G01*
X40238000Y-39222800D01*
G75*
G02*
X40250800Y-39210000I12800J0D01*
G01*
X41325200Y-39210000D01*
G75*
G02*
X41338000Y-39222800I0J-12800D01*
G01*
G37*
G36*
G01*
X41338000Y-39872800D02*
X41338000Y-40167200D01*
G75*
G02*
X41325200Y-40180000I-12800J0D01*
G01*
X40250800Y-40180000D01*
G75*
G02*
X40238000Y-40167200I0J12800D01*
G01*
X40238000Y-39872800D01*
G75*
G02*
X40250800Y-39860000I12800J0D01*
G01*
X41325200Y-39860000D01*
G75*
G02*
X41338000Y-39872800I0J-12800D01*
G01*
G37*
G36*
G01*
X41338000Y-40522800D02*
X41338000Y-40817200D01*
G75*
G02*
X41325200Y-40830000I-12800J0D01*
G01*
X40250800Y-40830000D01*
G75*
G02*
X40238000Y-40817200I0J12800D01*
G01*
X40238000Y-40522800D01*
G75*
G02*
X40250800Y-40510000I12800J0D01*
G01*
X41325200Y-40510000D01*
G75*
G02*
X41338000Y-40522800I0J-12800D01*
G01*
G37*
G36*
G01*
X41338000Y-41172800D02*
X41338000Y-41467200D01*
G75*
G02*
X41325200Y-41480000I-12800J0D01*
G01*
X40250800Y-41480000D01*
G75*
G02*
X40238000Y-41467200I0J12800D01*
G01*
X40238000Y-41172800D01*
G75*
G02*
X40250800Y-41160000I12800J0D01*
G01*
X41325200Y-41160000D01*
G75*
G02*
X41338000Y-41172800I0J-12800D01*
G01*
G37*
G36*
G01*
X40083000Y-41647800D02*
X40083000Y-42722200D01*
G75*
G02*
X40070200Y-42735000I-12800J0D01*
G01*
X39775800Y-42735000D01*
G75*
G02*
X39763000Y-42722200I0J12800D01*
G01*
X39763000Y-41647800D01*
G75*
G02*
X39775800Y-41635000I12800J0D01*
G01*
X40070200Y-41635000D01*
G75*
G02*
X40083000Y-41647800I0J-12800D01*
G01*
G37*
G36*
G01*
X39433000Y-41647800D02*
X39433000Y-42722200D01*
G75*
G02*
X39420200Y-42735000I-12800J0D01*
G01*
X39125800Y-42735000D01*
G75*
G02*
X39113000Y-42722200I0J12800D01*
G01*
X39113000Y-41647800D01*
G75*
G02*
X39125800Y-41635000I12800J0D01*
G01*
X39420200Y-41635000D01*
G75*
G02*
X39433000Y-41647800I0J-12800D01*
G01*
G37*
G36*
G01*
X38783000Y-41647800D02*
X38783000Y-42722200D01*
G75*
G02*
X38770200Y-42735000I-12800J0D01*
G01*
X38475800Y-42735000D01*
G75*
G02*
X38463000Y-42722200I0J12800D01*
G01*
X38463000Y-41647800D01*
G75*
G02*
X38475800Y-41635000I12800J0D01*
G01*
X38770200Y-41635000D01*
G75*
G02*
X38783000Y-41647800I0J-12800D01*
G01*
G37*
G36*
G01*
X38133000Y-41647800D02*
X38133000Y-42722200D01*
G75*
G02*
X38120200Y-42735000I-12800J0D01*
G01*
X37825800Y-42735000D01*
G75*
G02*
X37813000Y-42722200I0J12800D01*
G01*
X37813000Y-41647800D01*
G75*
G02*
X37825800Y-41635000I12800J0D01*
G01*
X38120200Y-41635000D01*
G75*
G02*
X38133000Y-41647800I0J-12800D01*
G01*
G37*
G36*
G01*
X37483000Y-41647800D02*
X37483000Y-42722200D01*
G75*
G02*
X37470200Y-42735000I-12800J0D01*
G01*
X37175800Y-42735000D01*
G75*
G02*
X37163000Y-42722200I0J12800D01*
G01*
X37163000Y-41647800D01*
G75*
G02*
X37175800Y-41635000I12800J0D01*
G01*
X37470200Y-41635000D01*
G75*
G02*
X37483000Y-41647800I0J-12800D01*
G01*
G37*
G36*
G01*
X36833000Y-41647800D02*
X36833000Y-42722200D01*
G75*
G02*
X36820200Y-42735000I-12800J0D01*
G01*
X36525800Y-42735000D01*
G75*
G02*
X36513000Y-42722200I0J12800D01*
G01*
X36513000Y-41647800D01*
G75*
G02*
X36525800Y-41635000I12800J0D01*
G01*
X36820200Y-41635000D01*
G75*
G02*
X36833000Y-41647800I0J-12800D01*
G01*
G37*
G36*
G01*
X36183000Y-41647800D02*
X36183000Y-42722200D01*
G75*
G02*
X36170200Y-42735000I-12800J0D01*
G01*
X35875800Y-42735000D01*
G75*
G02*
X35863000Y-42722200I0J12800D01*
G01*
X35863000Y-41647800D01*
G75*
G02*
X35875800Y-41635000I12800J0D01*
G01*
X36170200Y-41635000D01*
G75*
G02*
X36183000Y-41647800I0J-12800D01*
G01*
G37*
G36*
G01*
X36183000Y-36017800D02*
X36183000Y-37092200D01*
G75*
G02*
X36170200Y-37105000I-12800J0D01*
G01*
X35875800Y-37105000D01*
G75*
G02*
X35863000Y-37092200I0J12800D01*
G01*
X35863000Y-36017800D01*
G75*
G02*
X35875800Y-36005000I12800J0D01*
G01*
X36170200Y-36005000D01*
G75*
G02*
X36183000Y-36017800I0J-12800D01*
G01*
G37*
G36*
G01*
X36833000Y-36017800D02*
X36833000Y-37092200D01*
G75*
G02*
X36820200Y-37105000I-12800J0D01*
G01*
X36525800Y-37105000D01*
G75*
G02*
X36513000Y-37092200I0J12800D01*
G01*
X36513000Y-36017800D01*
G75*
G02*
X36525800Y-36005000I12800J0D01*
G01*
X36820200Y-36005000D01*
G75*
G02*
X36833000Y-36017800I0J-12800D01*
G01*
G37*
G36*
G01*
X37483000Y-36017800D02*
X37483000Y-37092200D01*
G75*
G02*
X37470200Y-37105000I-12800J0D01*
G01*
X37175800Y-37105000D01*
G75*
G02*
X37163000Y-37092200I0J12800D01*
G01*
X37163000Y-36017800D01*
G75*
G02*
X37175800Y-36005000I12800J0D01*
G01*
X37470200Y-36005000D01*
G75*
G02*
X37483000Y-36017800I0J-12800D01*
G01*
G37*
G36*
G01*
X38133000Y-36017800D02*
X38133000Y-37092200D01*
G75*
G02*
X38120200Y-37105000I-12800J0D01*
G01*
X37825800Y-37105000D01*
G75*
G02*
X37813000Y-37092200I0J12800D01*
G01*
X37813000Y-36017800D01*
G75*
G02*
X37825800Y-36005000I12800J0D01*
G01*
X38120200Y-36005000D01*
G75*
G02*
X38133000Y-36017800I0J-12800D01*
G01*
G37*
G36*
G01*
X38783000Y-36017800D02*
X38783000Y-37092200D01*
G75*
G02*
X38770200Y-37105000I-12800J0D01*
G01*
X38475800Y-37105000D01*
G75*
G02*
X38463000Y-37092200I0J12800D01*
G01*
X38463000Y-36017800D01*
G75*
G02*
X38475800Y-36005000I12800J0D01*
G01*
X38770200Y-36005000D01*
G75*
G02*
X38783000Y-36017800I0J-12800D01*
G01*
G37*
G36*
G01*
X39433000Y-36017800D02*
X39433000Y-37092200D01*
G75*
G02*
X39420200Y-37105000I-12800J0D01*
G01*
X39125800Y-37105000D01*
G75*
G02*
X39113000Y-37092200I0J12800D01*
G01*
X39113000Y-36017800D01*
G75*
G02*
X39125800Y-36005000I12800J0D01*
G01*
X39420200Y-36005000D01*
G75*
G02*
X39433000Y-36017800I0J-12800D01*
G01*
G37*
G36*
G01*
X40083000Y-36017800D02*
X40083000Y-37092200D01*
G75*
G02*
X40070200Y-37105000I-12800J0D01*
G01*
X39775800Y-37105000D01*
G75*
G02*
X39763000Y-37092200I0J12800D01*
G01*
X39763000Y-36017800D01*
G75*
G02*
X39775800Y-36005000I12800J0D01*
G01*
X40070200Y-36005000D01*
G75*
G02*
X40083000Y-36017800I0J-12800D01*
G01*
G37*
%TD*%
%TO.C,R7*%
G36*
G01*
X32872000Y-41383000D02*
X33422000Y-41383000D01*
G75*
G02*
X33622000Y-41583000I0J-200000D01*
G01*
X33622000Y-41983000D01*
G75*
G02*
X33422000Y-42183000I-200000J0D01*
G01*
X32872000Y-42183000D01*
G75*
G02*
X32672000Y-41983000I0J200000D01*
G01*
X32672000Y-41583000D01*
G75*
G02*
X32872000Y-41383000I200000J0D01*
G01*
G37*
G36*
G01*
X32872000Y-39733000D02*
X33422000Y-39733000D01*
G75*
G02*
X33622000Y-39933000I0J-200000D01*
G01*
X33622000Y-40333000D01*
G75*
G02*
X33422000Y-40533000I-200000J0D01*
G01*
X32872000Y-40533000D01*
G75*
G02*
X32672000Y-40333000I0J200000D01*
G01*
X32672000Y-39933000D01*
G75*
G02*
X32872000Y-39733000I200000J0D01*
G01*
G37*
%TD*%
%TO.C,R6*%
G36*
G01*
X39391000Y-45168500D02*
X38841000Y-45168500D01*
G75*
G02*
X38641000Y-44968500I0J200000D01*
G01*
X38641000Y-44568500D01*
G75*
G02*
X38841000Y-44368500I200000J0D01*
G01*
X39391000Y-44368500D01*
G75*
G02*
X39591000Y-44568500I0J-200000D01*
G01*
X39591000Y-44968500D01*
G75*
G02*
X39391000Y-45168500I-200000J0D01*
G01*
G37*
G36*
G01*
X39391000Y-46818500D02*
X38841000Y-46818500D01*
G75*
G02*
X38641000Y-46618500I0J200000D01*
G01*
X38641000Y-46218500D01*
G75*
G02*
X38841000Y-46018500I200000J0D01*
G01*
X39391000Y-46018500D01*
G75*
G02*
X39591000Y-46218500I0J-200000D01*
G01*
X39591000Y-46618500D01*
G75*
G02*
X39391000Y-46818500I-200000J0D01*
G01*
G37*
%TD*%
%TO.C,R5*%
G36*
G01*
X42439000Y-45168500D02*
X41889000Y-45168500D01*
G75*
G02*
X41689000Y-44968500I0J200000D01*
G01*
X41689000Y-44568500D01*
G75*
G02*
X41889000Y-44368500I200000J0D01*
G01*
X42439000Y-44368500D01*
G75*
G02*
X42639000Y-44568500I0J-200000D01*
G01*
X42639000Y-44968500D01*
G75*
G02*
X42439000Y-45168500I-200000J0D01*
G01*
G37*
G36*
G01*
X42439000Y-46818500D02*
X41889000Y-46818500D01*
G75*
G02*
X41689000Y-46618500I0J200000D01*
G01*
X41689000Y-46218500D01*
G75*
G02*
X41889000Y-46018500I200000J0D01*
G01*
X42439000Y-46018500D01*
G75*
G02*
X42639000Y-46218500I0J-200000D01*
G01*
X42639000Y-46618500D01*
G75*
G02*
X42439000Y-46818500I-200000J0D01*
G01*
G37*
%TD*%
%TO.C,R4*%
G36*
G01*
X45487000Y-45168500D02*
X44937000Y-45168500D01*
G75*
G02*
X44737000Y-44968500I0J200000D01*
G01*
X44737000Y-44568500D01*
G75*
G02*
X44937000Y-44368500I200000J0D01*
G01*
X45487000Y-44368500D01*
G75*
G02*
X45687000Y-44568500I0J-200000D01*
G01*
X45687000Y-44968500D01*
G75*
G02*
X45487000Y-45168500I-200000J0D01*
G01*
G37*
G36*
G01*
X45487000Y-46818500D02*
X44937000Y-46818500D01*
G75*
G02*
X44737000Y-46618500I0J200000D01*
G01*
X44737000Y-46218500D01*
G75*
G02*
X44937000Y-46018500I200000J0D01*
G01*
X45487000Y-46018500D01*
G75*
G02*
X45687000Y-46218500I0J-200000D01*
G01*
X45687000Y-46618500D01*
G75*
G02*
X45487000Y-46818500I-200000J0D01*
G01*
G37*
%TD*%
%TO.C,R3*%
G36*
G01*
X48535000Y-45168500D02*
X47985000Y-45168500D01*
G75*
G02*
X47785000Y-44968500I0J200000D01*
G01*
X47785000Y-44568500D01*
G75*
G02*
X47985000Y-44368500I200000J0D01*
G01*
X48535000Y-44368500D01*
G75*
G02*
X48735000Y-44568500I0J-200000D01*
G01*
X48735000Y-44968500D01*
G75*
G02*
X48535000Y-45168500I-200000J0D01*
G01*
G37*
G36*
G01*
X48535000Y-46818500D02*
X47985000Y-46818500D01*
G75*
G02*
X47785000Y-46618500I0J200000D01*
G01*
X47785000Y-46218500D01*
G75*
G02*
X47985000Y-46018500I200000J0D01*
G01*
X48535000Y-46018500D01*
G75*
G02*
X48735000Y-46218500I0J-200000D01*
G01*
X48735000Y-46618500D01*
G75*
G02*
X48535000Y-46818500I-200000J0D01*
G01*
G37*
%TD*%
%TO.C,R2*%
G36*
G01*
X51583000Y-45168500D02*
X51033000Y-45168500D01*
G75*
G02*
X50833000Y-44968500I0J200000D01*
G01*
X50833000Y-44568500D01*
G75*
G02*
X51033000Y-44368500I200000J0D01*
G01*
X51583000Y-44368500D01*
G75*
G02*
X51783000Y-44568500I0J-200000D01*
G01*
X51783000Y-44968500D01*
G75*
G02*
X51583000Y-45168500I-200000J0D01*
G01*
G37*
G36*
G01*
X51583000Y-46818500D02*
X51033000Y-46818500D01*
G75*
G02*
X50833000Y-46618500I0J200000D01*
G01*
X50833000Y-46218500D01*
G75*
G02*
X51033000Y-46018500I200000J0D01*
G01*
X51583000Y-46018500D01*
G75*
G02*
X51783000Y-46218500I0J-200000D01*
G01*
X51783000Y-46618500D01*
G75*
G02*
X51583000Y-46818500I-200000J0D01*
G01*
G37*
%TD*%
%TO.C,R1*%
G36*
G01*
X36343000Y-45168500D02*
X35793000Y-45168500D01*
G75*
G02*
X35593000Y-44968500I0J200000D01*
G01*
X35593000Y-44568500D01*
G75*
G02*
X35793000Y-44368500I200000J0D01*
G01*
X36343000Y-44368500D01*
G75*
G02*
X36543000Y-44568500I0J-200000D01*
G01*
X36543000Y-44968500D01*
G75*
G02*
X36343000Y-45168500I-200000J0D01*
G01*
G37*
G36*
G01*
X36343000Y-46818500D02*
X35793000Y-46818500D01*
G75*
G02*
X35593000Y-46618500I0J200000D01*
G01*
X35593000Y-46218500D01*
G75*
G02*
X35793000Y-46018500I200000J0D01*
G01*
X36343000Y-46018500D01*
G75*
G02*
X36543000Y-46218500I0J-200000D01*
G01*
X36543000Y-46618500D01*
G75*
G02*
X36343000Y-46818500I-200000J0D01*
G01*
G37*
%TD*%
D12*
%TO.C,A5*%
G36*
X35318602Y-48387000D02*
G01*
X35318602Y-48362466D01*
X35323412Y-48313635D01*
X35332984Y-48265510D01*
X35347228Y-48218555D01*
X35366005Y-48173222D01*
X35389136Y-48129949D01*
X35416396Y-48089150D01*
X35447524Y-48051221D01*
X35482221Y-48016524D01*
X35520150Y-47985396D01*
X35560949Y-47958136D01*
X35604222Y-47935005D01*
X35649555Y-47916228D01*
X35696510Y-47901984D01*
X35744635Y-47892412D01*
X35793466Y-47887602D01*
X35818000Y-47887602D01*
X35818000Y-47887000D01*
X36318000Y-47887000D01*
X36318000Y-47887602D01*
X36342534Y-47887602D01*
X36391365Y-47892412D01*
X36439490Y-47901984D01*
X36486445Y-47916228D01*
X36531778Y-47935005D01*
X36575051Y-47958136D01*
X36615850Y-47985396D01*
X36653779Y-48016524D01*
X36688476Y-48051221D01*
X36719604Y-48089150D01*
X36746864Y-48129949D01*
X36769995Y-48173222D01*
X36788772Y-48218555D01*
X36803016Y-48265510D01*
X36812588Y-48313635D01*
X36817398Y-48362466D01*
X36817398Y-48387000D01*
X36818000Y-48387000D01*
X36818000Y-48887000D01*
X35318000Y-48887000D01*
X35318000Y-48387000D01*
X35318602Y-48387000D01*
G37*
G36*
X36818000Y-49187000D02*
G01*
X36818000Y-49687000D01*
X36817398Y-49687000D01*
X36817398Y-49711534D01*
X36812588Y-49760365D01*
X36803016Y-49808490D01*
X36788772Y-49855445D01*
X36769995Y-49900778D01*
X36746864Y-49944051D01*
X36719604Y-49984850D01*
X36688476Y-50022779D01*
X36653779Y-50057476D01*
X36615850Y-50088604D01*
X36575051Y-50115864D01*
X36531778Y-50138995D01*
X36486445Y-50157772D01*
X36439490Y-50172016D01*
X36391365Y-50181588D01*
X36342534Y-50186398D01*
X36318000Y-50186398D01*
X36318000Y-50187000D01*
X35818000Y-50187000D01*
X35818000Y-50186398D01*
X35793466Y-50186398D01*
X35744635Y-50181588D01*
X35696510Y-50172016D01*
X35649555Y-50157772D01*
X35604222Y-50138995D01*
X35560949Y-50115864D01*
X35520150Y-50088604D01*
X35482221Y-50057476D01*
X35447524Y-50022779D01*
X35416396Y-49984850D01*
X35389136Y-49944051D01*
X35366005Y-49900778D01*
X35347228Y-49855445D01*
X35332984Y-49808490D01*
X35323412Y-49760365D01*
X35318602Y-49711534D01*
X35318602Y-49687000D01*
X35318000Y-49687000D01*
X35318000Y-49187000D01*
X36818000Y-49187000D01*
G37*
%TD*%
%TO.C,A3*%
G36*
X47510602Y-48387000D02*
G01*
X47510602Y-48362466D01*
X47515412Y-48313635D01*
X47524984Y-48265510D01*
X47539228Y-48218555D01*
X47558005Y-48173222D01*
X47581136Y-48129949D01*
X47608396Y-48089150D01*
X47639524Y-48051221D01*
X47674221Y-48016524D01*
X47712150Y-47985396D01*
X47752949Y-47958136D01*
X47796222Y-47935005D01*
X47841555Y-47916228D01*
X47888510Y-47901984D01*
X47936635Y-47892412D01*
X47985466Y-47887602D01*
X48010000Y-47887602D01*
X48010000Y-47887000D01*
X48510000Y-47887000D01*
X48510000Y-47887602D01*
X48534534Y-47887602D01*
X48583365Y-47892412D01*
X48631490Y-47901984D01*
X48678445Y-47916228D01*
X48723778Y-47935005D01*
X48767051Y-47958136D01*
X48807850Y-47985396D01*
X48845779Y-48016524D01*
X48880476Y-48051221D01*
X48911604Y-48089150D01*
X48938864Y-48129949D01*
X48961995Y-48173222D01*
X48980772Y-48218555D01*
X48995016Y-48265510D01*
X49004588Y-48313635D01*
X49009398Y-48362466D01*
X49009398Y-48387000D01*
X49010000Y-48387000D01*
X49010000Y-48887000D01*
X47510000Y-48887000D01*
X47510000Y-48387000D01*
X47510602Y-48387000D01*
G37*
G36*
X49010000Y-49187000D02*
G01*
X49010000Y-49687000D01*
X49009398Y-49687000D01*
X49009398Y-49711534D01*
X49004588Y-49760365D01*
X48995016Y-49808490D01*
X48980772Y-49855445D01*
X48961995Y-49900778D01*
X48938864Y-49944051D01*
X48911604Y-49984850D01*
X48880476Y-50022779D01*
X48845779Y-50057476D01*
X48807850Y-50088604D01*
X48767051Y-50115864D01*
X48723778Y-50138995D01*
X48678445Y-50157772D01*
X48631490Y-50172016D01*
X48583365Y-50181588D01*
X48534534Y-50186398D01*
X48510000Y-50186398D01*
X48510000Y-50187000D01*
X48010000Y-50187000D01*
X48010000Y-50186398D01*
X47985466Y-50186398D01*
X47936635Y-50181588D01*
X47888510Y-50172016D01*
X47841555Y-50157772D01*
X47796222Y-50138995D01*
X47752949Y-50115864D01*
X47712150Y-50088604D01*
X47674221Y-50057476D01*
X47639524Y-50022779D01*
X47608396Y-49984850D01*
X47581136Y-49944051D01*
X47558005Y-49900778D01*
X47539228Y-49855445D01*
X47524984Y-49808490D01*
X47515412Y-49760365D01*
X47510602Y-49711534D01*
X47510602Y-49687000D01*
X47510000Y-49687000D01*
X47510000Y-49187000D01*
X49010000Y-49187000D01*
G37*
%TD*%
%TO.C,A2*%
G36*
X44462602Y-48387000D02*
G01*
X44462602Y-48362466D01*
X44467412Y-48313635D01*
X44476984Y-48265510D01*
X44491228Y-48218555D01*
X44510005Y-48173222D01*
X44533136Y-48129949D01*
X44560396Y-48089150D01*
X44591524Y-48051221D01*
X44626221Y-48016524D01*
X44664150Y-47985396D01*
X44704949Y-47958136D01*
X44748222Y-47935005D01*
X44793555Y-47916228D01*
X44840510Y-47901984D01*
X44888635Y-47892412D01*
X44937466Y-47887602D01*
X44962000Y-47887602D01*
X44962000Y-47887000D01*
X45462000Y-47887000D01*
X45462000Y-47887602D01*
X45486534Y-47887602D01*
X45535365Y-47892412D01*
X45583490Y-47901984D01*
X45630445Y-47916228D01*
X45675778Y-47935005D01*
X45719051Y-47958136D01*
X45759850Y-47985396D01*
X45797779Y-48016524D01*
X45832476Y-48051221D01*
X45863604Y-48089150D01*
X45890864Y-48129949D01*
X45913995Y-48173222D01*
X45932772Y-48218555D01*
X45947016Y-48265510D01*
X45956588Y-48313635D01*
X45961398Y-48362466D01*
X45961398Y-48387000D01*
X45962000Y-48387000D01*
X45962000Y-48887000D01*
X44462000Y-48887000D01*
X44462000Y-48387000D01*
X44462602Y-48387000D01*
G37*
G36*
X45962000Y-49187000D02*
G01*
X45962000Y-49687000D01*
X45961398Y-49687000D01*
X45961398Y-49711534D01*
X45956588Y-49760365D01*
X45947016Y-49808490D01*
X45932772Y-49855445D01*
X45913995Y-49900778D01*
X45890864Y-49944051D01*
X45863604Y-49984850D01*
X45832476Y-50022779D01*
X45797779Y-50057476D01*
X45759850Y-50088604D01*
X45719051Y-50115864D01*
X45675778Y-50138995D01*
X45630445Y-50157772D01*
X45583490Y-50172016D01*
X45535365Y-50181588D01*
X45486534Y-50186398D01*
X45462000Y-50186398D01*
X45462000Y-50187000D01*
X44962000Y-50187000D01*
X44962000Y-50186398D01*
X44937466Y-50186398D01*
X44888635Y-50181588D01*
X44840510Y-50172016D01*
X44793555Y-50157772D01*
X44748222Y-50138995D01*
X44704949Y-50115864D01*
X44664150Y-50088604D01*
X44626221Y-50057476D01*
X44591524Y-50022779D01*
X44560396Y-49984850D01*
X44533136Y-49944051D01*
X44510005Y-49900778D01*
X44491228Y-49855445D01*
X44476984Y-49808490D01*
X44467412Y-49760365D01*
X44462602Y-49711534D01*
X44462602Y-49687000D01*
X44462000Y-49687000D01*
X44462000Y-49187000D01*
X45962000Y-49187000D01*
G37*
%TD*%
%TO.C,A1*%
G36*
X41414602Y-48387000D02*
G01*
X41414602Y-48362466D01*
X41419412Y-48313635D01*
X41428984Y-48265510D01*
X41443228Y-48218555D01*
X41462005Y-48173222D01*
X41485136Y-48129949D01*
X41512396Y-48089150D01*
X41543524Y-48051221D01*
X41578221Y-48016524D01*
X41616150Y-47985396D01*
X41656949Y-47958136D01*
X41700222Y-47935005D01*
X41745555Y-47916228D01*
X41792510Y-47901984D01*
X41840635Y-47892412D01*
X41889466Y-47887602D01*
X41914000Y-47887602D01*
X41914000Y-47887000D01*
X42414000Y-47887000D01*
X42414000Y-47887602D01*
X42438534Y-47887602D01*
X42487365Y-47892412D01*
X42535490Y-47901984D01*
X42582445Y-47916228D01*
X42627778Y-47935005D01*
X42671051Y-47958136D01*
X42711850Y-47985396D01*
X42749779Y-48016524D01*
X42784476Y-48051221D01*
X42815604Y-48089150D01*
X42842864Y-48129949D01*
X42865995Y-48173222D01*
X42884772Y-48218555D01*
X42899016Y-48265510D01*
X42908588Y-48313635D01*
X42913398Y-48362466D01*
X42913398Y-48387000D01*
X42914000Y-48387000D01*
X42914000Y-48887000D01*
X41414000Y-48887000D01*
X41414000Y-48387000D01*
X41414602Y-48387000D01*
G37*
G36*
X42914000Y-49187000D02*
G01*
X42914000Y-49687000D01*
X42913398Y-49687000D01*
X42913398Y-49711534D01*
X42908588Y-49760365D01*
X42899016Y-49808490D01*
X42884772Y-49855445D01*
X42865995Y-49900778D01*
X42842864Y-49944051D01*
X42815604Y-49984850D01*
X42784476Y-50022779D01*
X42749779Y-50057476D01*
X42711850Y-50088604D01*
X42671051Y-50115864D01*
X42627778Y-50138995D01*
X42582445Y-50157772D01*
X42535490Y-50172016D01*
X42487365Y-50181588D01*
X42438534Y-50186398D01*
X42414000Y-50186398D01*
X42414000Y-50187000D01*
X41914000Y-50187000D01*
X41914000Y-50186398D01*
X41889466Y-50186398D01*
X41840635Y-50181588D01*
X41792510Y-50172016D01*
X41745555Y-50157772D01*
X41700222Y-50138995D01*
X41656949Y-50115864D01*
X41616150Y-50088604D01*
X41578221Y-50057476D01*
X41543524Y-50022779D01*
X41512396Y-49984850D01*
X41485136Y-49944051D01*
X41462005Y-49900778D01*
X41443228Y-49855445D01*
X41428984Y-49808490D01*
X41419412Y-49760365D01*
X41414602Y-49711534D01*
X41414602Y-49687000D01*
X41414000Y-49687000D01*
X41414000Y-49187000D01*
X42914000Y-49187000D01*
G37*
%TD*%
%TO.C,A0*%
G36*
X38366602Y-48387000D02*
G01*
X38366602Y-48362466D01*
X38371412Y-48313635D01*
X38380984Y-48265510D01*
X38395228Y-48218555D01*
X38414005Y-48173222D01*
X38437136Y-48129949D01*
X38464396Y-48089150D01*
X38495524Y-48051221D01*
X38530221Y-48016524D01*
X38568150Y-47985396D01*
X38608949Y-47958136D01*
X38652222Y-47935005D01*
X38697555Y-47916228D01*
X38744510Y-47901984D01*
X38792635Y-47892412D01*
X38841466Y-47887602D01*
X38866000Y-47887602D01*
X38866000Y-47887000D01*
X39366000Y-47887000D01*
X39366000Y-47887602D01*
X39390534Y-47887602D01*
X39439365Y-47892412D01*
X39487490Y-47901984D01*
X39534445Y-47916228D01*
X39579778Y-47935005D01*
X39623051Y-47958136D01*
X39663850Y-47985396D01*
X39701779Y-48016524D01*
X39736476Y-48051221D01*
X39767604Y-48089150D01*
X39794864Y-48129949D01*
X39817995Y-48173222D01*
X39836772Y-48218555D01*
X39851016Y-48265510D01*
X39860588Y-48313635D01*
X39865398Y-48362466D01*
X39865398Y-48387000D01*
X39866000Y-48387000D01*
X39866000Y-48887000D01*
X38366000Y-48887000D01*
X38366000Y-48387000D01*
X38366602Y-48387000D01*
G37*
G36*
X39866000Y-49187000D02*
G01*
X39866000Y-49687000D01*
X39865398Y-49687000D01*
X39865398Y-49711534D01*
X39860588Y-49760365D01*
X39851016Y-49808490D01*
X39836772Y-49855445D01*
X39817995Y-49900778D01*
X39794864Y-49944051D01*
X39767604Y-49984850D01*
X39736476Y-50022779D01*
X39701779Y-50057476D01*
X39663850Y-50088604D01*
X39623051Y-50115864D01*
X39579778Y-50138995D01*
X39534445Y-50157772D01*
X39487490Y-50172016D01*
X39439365Y-50181588D01*
X39390534Y-50186398D01*
X39366000Y-50186398D01*
X39366000Y-50187000D01*
X38866000Y-50187000D01*
X38866000Y-50186398D01*
X38841466Y-50186398D01*
X38792635Y-50181588D01*
X38744510Y-50172016D01*
X38697555Y-50157772D01*
X38652222Y-50138995D01*
X38608949Y-50115864D01*
X38568150Y-50088604D01*
X38530221Y-50057476D01*
X38495524Y-50022779D01*
X38464396Y-49984850D01*
X38437136Y-49944051D01*
X38414005Y-49900778D01*
X38395228Y-49855445D01*
X38380984Y-49808490D01*
X38371412Y-49760365D01*
X38366602Y-49711534D01*
X38366602Y-49687000D01*
X38366000Y-49687000D01*
X38366000Y-49187000D01*
X39866000Y-49187000D01*
G37*
%TD*%
D17*
%TO.C,J2*%
X30480000Y-46990000D03*
X30480000Y-44450000D03*
X30480000Y-41910000D03*
X30480000Y-39370000D03*
D18*
X30480000Y-36830000D03*
%TD*%
D17*
%TO.C,J1*%
X26670000Y-46990000D03*
X26670000Y-44450000D03*
X26670000Y-41910000D03*
X26670000Y-39370000D03*
D18*
X26670000Y-36830000D03*
%TD*%
M02*
