%TF.GenerationSoftware,KiCad,Pcbnew,5.1.10-88a1d61d58~90~ubuntu20.04.1*%
%TF.CreationDate,2021-11-11T20:41:13-05:00*%
%TF.ProjectId,pcb-controller,7063622d-636f-46e7-9472-6f6c6c65722e,rev?*%
%TF.SameCoordinates,Original*%
%TF.FileFunction,Copper,L2,Bot*%
%TF.FilePolarity,Positive*%
%FSLAX46Y46*%
G04 Gerber Fmt 4.6, Leading zero omitted, Abs format (unit mm)*
G04 Created by KiCad (PCBNEW 5.1.10-88a1d61d58~90~ubuntu20.04.1) date 2021-11-11 20:41:13*
%MOMM*%
%LPD*%
G01*
G04 APERTURE LIST*
%TA.AperFunction,ComponentPad*%
%ADD10C,1.524000*%
%TD*%
%TA.AperFunction,ComponentPad*%
%ADD11R,1.524000X1.524000*%
%TD*%
%TA.AperFunction,ComponentPad*%
%ADD12O,1.350000X1.350000*%
%TD*%
%TA.AperFunction,ComponentPad*%
%ADD13R,1.350000X1.350000*%
%TD*%
%TA.AperFunction,ComponentPad*%
%ADD14O,1.700000X1.700000*%
%TD*%
%TA.AperFunction,ComponentPad*%
%ADD15R,1.700000X1.700000*%
%TD*%
%TA.AperFunction,ViaPad*%
%ADD16C,0.400000*%
%TD*%
%TA.AperFunction,ViaPad*%
%ADD17C,0.800000*%
%TD*%
%TA.AperFunction,Conductor*%
%ADD18C,0.500000*%
%TD*%
%TA.AperFunction,Conductor*%
%ADD19C,0.250000*%
%TD*%
%TA.AperFunction,Conductor*%
%ADD20C,0.254000*%
%TD*%
%TA.AperFunction,Conductor*%
%ADD21C,0.100000*%
%TD*%
G04 APERTURE END LIST*
D10*
%TO.P,CR1,18*%
%TO.N,Net-(CR1-Pad18)*%
X57361057Y-46375540D03*
%TO.P,CR1,17*%
%TO.N,Net-(CR1-Pad17)*%
X57361057Y-43835540D03*
%TO.P,CR1,16*%
%TO.N,Net-(CR1-Pad16)*%
X57361057Y-41295540D03*
%TO.P,CR1,15*%
%TO.N,Net-(CR1-Pad15)*%
X57361057Y-38755540D03*
%TO.P,CR1,14*%
%TO.N,Net-(CR1-Pad14)*%
X57361057Y-36215540D03*
%TO.P,CR1,13*%
%TO.N,Net-(CR1-Pad13)*%
X57361057Y-33675540D03*
%TO.P,CR1,12*%
%TO.N,Net-(CR1-Pad12)*%
X57361057Y-31135540D03*
%TO.P,CR1,11*%
%TO.N,Net-(CR1-Pad11)*%
X57361057Y-28595540D03*
%TO.P,CR1,10*%
%TO.N,+12V*%
X57361057Y-26055540D03*
%TO.P,CR1,9*%
%TO.N,GND*%
X64981057Y-26055540D03*
%TO.P,CR1,8*%
%TO.N,Net-(CR1-Pad8)*%
X64981057Y-28595540D03*
%TO.P,CR1,7*%
%TO.N,Net-(CR1-Pad7)*%
X64981057Y-31135540D03*
%TO.P,CR1,6*%
%TO.N,Net-(CR1-Pad6)*%
X64981057Y-33675540D03*
%TO.P,CR1,5*%
%TO.N,Net-(CR1-Pad5)*%
X64981057Y-36215540D03*
%TO.P,CR1,4*%
%TO.N,Net-(CR1-Pad4)*%
X64981057Y-38755540D03*
%TO.P,CR1,3*%
%TO.N,Net-(CR1-Pad3)*%
X64981057Y-41295540D03*
%TO.P,CR1,2*%
%TO.N,Net-(CR1-Pad2)*%
X64981057Y-43835540D03*
D11*
%TO.P,CR1,1*%
%TO.N,Net-(CR1-Pad1)*%
X64981057Y-46375540D03*
%TD*%
D10*
%TO.P,CR2,18*%
%TO.N,Net-(CR2-Pad18)*%
X52070000Y-31200644D03*
%TO.P,CR2,17*%
%TO.N,Net-(CR2-Pad17)*%
X49530000Y-31200644D03*
%TO.P,CR2,16*%
%TO.N,Net-(CR2-Pad16)*%
X46990000Y-31200644D03*
%TO.P,CR2,15*%
%TO.N,Net-(CR2-Pad15)*%
X44450000Y-31200644D03*
%TO.P,CR2,14*%
%TO.N,Net-(CR2-Pad14)*%
X41910000Y-31200644D03*
%TO.P,CR2,13*%
%TO.N,Net-(CR2-Pad13)*%
X39370000Y-31200644D03*
%TO.P,CR2,12*%
%TO.N,Net-(CR2-Pad12)*%
X36830000Y-31200644D03*
%TO.P,CR2,11*%
%TO.N,Net-(CR2-Pad11)*%
X34290000Y-31200644D03*
%TO.P,CR2,10*%
%TO.N,+12V*%
X31750000Y-31200644D03*
%TO.P,CR2,9*%
%TO.N,GND*%
X31750000Y-23580644D03*
%TO.P,CR2,8*%
%TO.N,Net-(CR2-Pad8)*%
X34290000Y-23580644D03*
%TO.P,CR2,7*%
%TO.N,Net-(CR2-Pad7)*%
X36830000Y-23580644D03*
%TO.P,CR2,6*%
%TO.N,Net-(CR2-Pad6)*%
X39370000Y-23580644D03*
%TO.P,CR2,5*%
%TO.N,Net-(CR2-Pad5)*%
X41910000Y-23580644D03*
%TO.P,CR2,4*%
%TO.N,Net-(CR2-Pad4)*%
X44450000Y-23580644D03*
%TO.P,CR2,3*%
%TO.N,Net-(CR2-Pad3)*%
X46990000Y-23580644D03*
%TO.P,CR2,2*%
%TO.N,Net-(CR2-Pad2)*%
X49530000Y-23580644D03*
D11*
%TO.P,CR2,1*%
%TO.N,Net-(CR2-Pad1)*%
X52070000Y-23580644D03*
%TD*%
D12*
%TO.P,J3,32*%
%TO.N,Net-(CR2-Pad11)*%
X25880000Y-54864000D03*
%TO.P,J3,31*%
%TO.N,+12V*%
X25880000Y-52864000D03*
%TO.P,J3,30*%
X27880000Y-54864000D03*
%TO.P,J3,29*%
%TO.N,Net-(CR2-Pad12)*%
X27880000Y-52864000D03*
%TO.P,J3,28*%
%TO.N,Net-(CR2-Pad13)*%
X29880000Y-54864000D03*
%TO.P,J3,27*%
%TO.N,+12V*%
X29880000Y-52864000D03*
%TO.P,J3,26*%
X31880000Y-54864000D03*
%TO.P,J3,25*%
%TO.N,Net-(CR2-Pad14)*%
X31880000Y-52864000D03*
%TO.P,J3,24*%
%TO.N,Net-(CR2-Pad15)*%
X33880000Y-54864000D03*
%TO.P,J3,23*%
%TO.N,+12V*%
X33880000Y-52864000D03*
%TO.P,J3,22*%
X35880000Y-54864000D03*
%TO.P,J3,21*%
%TO.N,Net-(CR2-Pad16)*%
X35880000Y-52864000D03*
%TO.P,J3,20*%
%TO.N,Net-(CR2-Pad17)*%
X37880000Y-54864000D03*
%TO.P,J3,19*%
%TO.N,+12V*%
X37880000Y-52864000D03*
%TO.P,J3,18*%
X39880000Y-54864000D03*
%TO.P,J3,17*%
%TO.N,Net-(CR2-Pad18)*%
X39880000Y-52864000D03*
%TO.P,J3,16*%
%TO.N,Net-(CR1-Pad11)*%
X41880000Y-54864000D03*
%TO.P,J3,15*%
%TO.N,+12V*%
X41880000Y-52864000D03*
%TO.P,J3,14*%
X43880000Y-54864000D03*
%TO.P,J3,13*%
%TO.N,Net-(CR1-Pad12)*%
X43880000Y-52864000D03*
%TO.P,J3,12*%
%TO.N,Net-(CR1-Pad13)*%
X45880000Y-54864000D03*
%TO.P,J3,11*%
%TO.N,+12V*%
X45880000Y-52864000D03*
%TO.P,J3,10*%
X47880000Y-54864000D03*
%TO.P,J3,9*%
%TO.N,Net-(CR1-Pad14)*%
X47880000Y-52864000D03*
%TO.P,J3,8*%
%TO.N,Net-(CR1-Pad15)*%
X49880000Y-54864000D03*
%TO.P,J3,7*%
%TO.N,+12V*%
X49880000Y-52864000D03*
%TO.P,J3,6*%
X51880000Y-54864000D03*
%TO.P,J3,5*%
%TO.N,Net-(CR1-Pad16)*%
X51880000Y-52864000D03*
%TO.P,J3,4*%
%TO.N,Net-(CR1-Pad17)*%
X53880000Y-54864000D03*
%TO.P,J3,3*%
%TO.N,+12V*%
X53880000Y-52864000D03*
%TO.P,J3,2*%
X55880000Y-54864000D03*
D13*
%TO.P,J3,1*%
%TO.N,Net-(CR1-Pad18)*%
X55880000Y-52864000D03*
%TD*%
D14*
%TO.P,J2,5*%
%TO.N,Net-(J1-Pad5)*%
X30480000Y-46990000D03*
%TO.P,J2,4*%
%TO.N,Net-(J1-Pad4)*%
X30480000Y-44450000D03*
%TO.P,J2,3*%
%TO.N,GND*%
X30480000Y-41910000D03*
%TO.P,J2,2*%
%TO.N,+12V*%
X30480000Y-39370000D03*
D15*
%TO.P,J2,1*%
%TO.N,+3V3*%
X30480000Y-36830000D03*
%TD*%
D14*
%TO.P,J1,5*%
%TO.N,Net-(J1-Pad5)*%
X26670000Y-46990000D03*
%TO.P,J1,4*%
%TO.N,Net-(J1-Pad4)*%
X26670000Y-44450000D03*
%TO.P,J1,3*%
%TO.N,GND*%
X26670000Y-41910000D03*
%TO.P,J1,2*%
%TO.N,+12V*%
X26670000Y-39370000D03*
D15*
%TO.P,J1,1*%
%TO.N,+3V3*%
X26670000Y-36830000D03*
%TD*%
D16*
%TO.N,GND*%
X34925000Y-42545000D03*
X34290000Y-45085000D03*
X36830000Y-45720000D03*
X43815000Y-46355000D03*
X43815000Y-43180000D03*
X46990000Y-43815000D03*
X50165000Y-43815000D03*
X38640273Y-43817759D03*
D17*
%TO.N,+12V*%
X54102000Y-34925000D03*
%TO.N,+3V3*%
X25781000Y-49784000D03*
%TD*%
D18*
%TO.N,+12V*%
X54102000Y-29314597D02*
X57361057Y-26055540D01*
X54102000Y-34925000D02*
X54102000Y-29314597D01*
D19*
%TO.N,+3V3*%
X25381001Y-38118999D02*
X26670000Y-36830000D01*
X25381001Y-49384001D02*
X25381001Y-38118999D01*
X25781000Y-49784000D02*
X25381001Y-49384001D01*
D18*
%TO.N,Net-(CR1-Pad18)*%
X57361057Y-51382943D02*
X55880000Y-52864000D01*
X57361057Y-46375540D02*
X57361057Y-51382943D01*
%TO.N,Net-(CR1-Pad17)*%
X55005001Y-55989001D02*
X53880000Y-54864000D01*
X56420001Y-55989001D02*
X55005001Y-55989001D01*
X58573058Y-53835944D02*
X56420001Y-55989001D01*
X58573058Y-45047541D02*
X58573058Y-53835944D01*
X57361057Y-43835540D02*
X58573058Y-45047541D01*
%TO.N,Net-(CR1-Pad16)*%
X51880000Y-46776597D02*
X51880000Y-52864000D01*
X57361057Y-41295540D02*
X51880000Y-46776597D01*
%TO.N,Net-(CR1-Pad15)*%
X51705011Y-56689011D02*
X49880000Y-54864000D01*
X56709954Y-56689011D02*
X51705011Y-56689011D01*
X59273068Y-54125897D02*
X56709954Y-56689011D01*
X59273068Y-40667551D02*
X59273068Y-54125897D01*
X57361057Y-38755540D02*
X59273068Y-40667551D01*
%TO.N,Net-(CR1-Pad14)*%
X47880000Y-49786635D02*
X47880000Y-52864000D01*
X56149056Y-37427541D02*
X56149056Y-41517579D01*
X56149056Y-41517579D02*
X47880000Y-49786635D01*
X57361057Y-36215540D02*
X56149056Y-37427541D01*
%TO.N,Net-(CR1-Pad13)*%
X56999907Y-57389021D02*
X48405021Y-57389021D01*
X59973078Y-54415850D02*
X56999907Y-57389021D01*
X59973078Y-40377598D02*
X59973078Y-54415850D01*
X58928000Y-39332520D02*
X59973078Y-40377598D01*
X58928000Y-35242483D02*
X58928000Y-39332520D01*
X48405021Y-57389021D02*
X45880000Y-54864000D01*
X57361057Y-33675540D02*
X58928000Y-35242483D01*
%TO.N,Net-(CR1-Pad12)*%
X43880000Y-51909406D02*
X43880000Y-52864000D01*
X57361057Y-31135540D02*
X55449046Y-33047551D01*
X55449046Y-33047551D02*
X55449046Y-40340360D01*
X55449046Y-40340360D02*
X43880000Y-51909406D01*
%TO.N,Net-(CR1-Pad11)*%
X45105031Y-58089031D02*
X41880000Y-54864000D01*
X57289860Y-58089031D02*
X45105031Y-58089031D01*
X60673088Y-54705803D02*
X57289860Y-58089031D01*
X60673088Y-31907571D02*
X60673088Y-54705803D01*
X57361057Y-28595540D02*
X60673088Y-31907571D01*
%TO.N,Net-(CR2-Pad18)*%
X52070000Y-40674000D02*
X39880000Y-52864000D01*
X52070000Y-31200644D02*
X52070000Y-40674000D01*
%TO.N,Net-(CR2-Pad17)*%
X35354979Y-57389021D02*
X37880000Y-54864000D01*
X24760093Y-57389021D02*
X35354979Y-57389021D01*
X22654969Y-55283896D02*
X24760093Y-57389021D01*
X22654969Y-35365140D02*
X22654969Y-55283896D01*
X29431486Y-28588623D02*
X22654969Y-35365140D01*
X46917979Y-28588623D02*
X29431486Y-28588623D01*
X49530000Y-31200644D02*
X46917979Y-28588623D01*
%TO.N,Net-(CR2-Pad16)*%
X46990000Y-41754000D02*
X35880000Y-52864000D01*
X46990000Y-31200644D02*
X46990000Y-41754000D01*
%TO.N,Net-(CR2-Pad15)*%
X32054989Y-56689011D02*
X33880000Y-54864000D01*
X25050046Y-56689011D02*
X32054989Y-56689011D01*
X23354979Y-54993944D02*
X25050046Y-56689011D01*
X23354979Y-35655093D02*
X23354979Y-54993944D01*
X29721439Y-29288633D02*
X23354979Y-35655093D01*
X42537989Y-29288633D02*
X29721439Y-29288633D01*
X44450000Y-31200644D02*
X42537989Y-29288633D01*
%TO.N,Net-(CR2-Pad14)*%
X41910000Y-42834000D02*
X41910000Y-31200644D01*
X31880000Y-52864000D02*
X41910000Y-42834000D01*
%TO.N,Net-(CR2-Pad13)*%
X38157999Y-29988643D02*
X39370000Y-31200644D01*
X30011392Y-29988643D02*
X38157999Y-29988643D01*
X24054989Y-35945046D02*
X30011392Y-29988643D01*
X24054989Y-54703991D02*
X24054989Y-35945046D01*
X25339999Y-55989001D02*
X24054989Y-54703991D01*
X28754999Y-55989001D02*
X25339999Y-55989001D01*
X29880000Y-54864000D02*
X28754999Y-55989001D01*
%TO.N,Net-(CR2-Pad12)*%
X29005001Y-51738999D02*
X27880000Y-52864000D01*
X29799794Y-51738999D02*
X29005001Y-51738999D01*
X38296010Y-43242783D02*
X29799794Y-51738999D01*
X38296010Y-32666654D02*
X38296010Y-43242783D01*
X36830000Y-31200644D02*
X38296010Y-32666654D01*
%TO.N,Net-(CR2-Pad11)*%
X24754999Y-36234999D02*
X24754999Y-53738999D01*
X25459999Y-35529999D02*
X24754999Y-36234999D01*
X29269999Y-35529999D02*
X25459999Y-35529999D01*
X33599354Y-31200644D02*
X29269999Y-35529999D01*
X24754999Y-53738999D02*
X25880000Y-54864000D01*
X34290000Y-31200644D02*
X33599354Y-31200644D01*
%TD*%
D20*
%TO.N,GND*%
X69721001Y-59721000D02*
X20279000Y-59721000D01*
X20279000Y-35365140D01*
X22075179Y-35365140D01*
X22077969Y-35393471D01*
X22077970Y-55255555D01*
X22075179Y-55283896D01*
X22086318Y-55397007D01*
X22118393Y-55502738D01*
X22119313Y-55505772D01*
X22172891Y-55606011D01*
X22244996Y-55693870D01*
X22267008Y-55711935D01*
X24332054Y-57776983D01*
X24350119Y-57798995D01*
X24437978Y-57871100D01*
X24538217Y-57924678D01*
X24582875Y-57938225D01*
X24646981Y-57957672D01*
X24760093Y-57968812D01*
X24788432Y-57966021D01*
X35326648Y-57966021D01*
X35354979Y-57968811D01*
X35383310Y-57966021D01*
X35383315Y-57966021D01*
X35413024Y-57963095D01*
X35468090Y-57957672D01*
X35512749Y-57944124D01*
X35576855Y-57924678D01*
X35677094Y-57871100D01*
X35764953Y-57798995D01*
X35783018Y-57776983D01*
X37708487Y-55851514D01*
X37781312Y-55866000D01*
X37978688Y-55866000D01*
X38172273Y-55827493D01*
X38354625Y-55751961D01*
X38518738Y-55642304D01*
X38658304Y-55502738D01*
X38767961Y-55338625D01*
X38843493Y-55156273D01*
X38880000Y-54972743D01*
X38916507Y-55156273D01*
X38992039Y-55338625D01*
X39101696Y-55502738D01*
X39241262Y-55642304D01*
X39405375Y-55751961D01*
X39587727Y-55827493D01*
X39781312Y-55866000D01*
X39978688Y-55866000D01*
X40172273Y-55827493D01*
X40354625Y-55751961D01*
X40518738Y-55642304D01*
X40658304Y-55502738D01*
X40767961Y-55338625D01*
X40843493Y-55156273D01*
X40880000Y-54972743D01*
X40916507Y-55156273D01*
X40992039Y-55338625D01*
X41101696Y-55502738D01*
X41241262Y-55642304D01*
X41405375Y-55751961D01*
X41587727Y-55827493D01*
X41781312Y-55866000D01*
X41978688Y-55866000D01*
X42051513Y-55851514D01*
X44676992Y-58476993D01*
X44695057Y-58499005D01*
X44782916Y-58571110D01*
X44857259Y-58610847D01*
X44883154Y-58624688D01*
X44991919Y-58657682D01*
X45105031Y-58668822D01*
X45133370Y-58666031D01*
X57261529Y-58666031D01*
X57289860Y-58668821D01*
X57318191Y-58666031D01*
X57318196Y-58666031D01*
X57347905Y-58663105D01*
X57402971Y-58657682D01*
X57447630Y-58644134D01*
X57511736Y-58624688D01*
X57611975Y-58571110D01*
X57699834Y-58499005D01*
X57717899Y-58476993D01*
X61061050Y-55133842D01*
X61083062Y-55115777D01*
X61155167Y-55027918D01*
X61208745Y-54927679D01*
X61222292Y-54883021D01*
X61241739Y-54818915D01*
X61252878Y-54705803D01*
X61250088Y-54677472D01*
X61250088Y-54039207D01*
X62589000Y-54039207D01*
X62589000Y-54418793D01*
X62663053Y-54791085D01*
X62808315Y-55141777D01*
X63019201Y-55457391D01*
X63287609Y-55725799D01*
X63603223Y-55936685D01*
X63953915Y-56081947D01*
X64326207Y-56156000D01*
X64705793Y-56156000D01*
X65078085Y-56081947D01*
X65428777Y-55936685D01*
X65744391Y-55725799D01*
X66012799Y-55457391D01*
X66223685Y-55141777D01*
X66368947Y-54791085D01*
X66443000Y-54418793D01*
X66443000Y-54039207D01*
X66368947Y-53666915D01*
X66223685Y-53316223D01*
X66012799Y-53000609D01*
X65744391Y-52732201D01*
X65428777Y-52521315D01*
X65078085Y-52376053D01*
X64705793Y-52302000D01*
X64326207Y-52302000D01*
X63953915Y-52376053D01*
X63603223Y-52521315D01*
X63287609Y-52732201D01*
X63019201Y-53000609D01*
X62808315Y-53316223D01*
X62663053Y-53666915D01*
X62589000Y-54039207D01*
X61250088Y-54039207D01*
X61250088Y-45613540D01*
X63890475Y-45613540D01*
X63890475Y-47137540D01*
X63896789Y-47201643D01*
X63915487Y-47263283D01*
X63945851Y-47320090D01*
X63986714Y-47369883D01*
X64036507Y-47410746D01*
X64093314Y-47441110D01*
X64154954Y-47459808D01*
X64219057Y-47466122D01*
X65743057Y-47466122D01*
X65807160Y-47459808D01*
X65868800Y-47441110D01*
X65925607Y-47410746D01*
X65975400Y-47369883D01*
X66016263Y-47320090D01*
X66046627Y-47263283D01*
X66065325Y-47201643D01*
X66071639Y-47137540D01*
X66071639Y-45613540D01*
X66065325Y-45549437D01*
X66046627Y-45487797D01*
X66016263Y-45430990D01*
X65975400Y-45381197D01*
X65925607Y-45340334D01*
X65868800Y-45309970D01*
X65807160Y-45291272D01*
X65743057Y-45284958D01*
X64219057Y-45284958D01*
X64154954Y-45291272D01*
X64093314Y-45309970D01*
X64036507Y-45340334D01*
X63986714Y-45381197D01*
X63945851Y-45430990D01*
X63915487Y-45487797D01*
X63896789Y-45549437D01*
X63890475Y-45613540D01*
X61250088Y-45613540D01*
X61250088Y-43728283D01*
X63892057Y-43728283D01*
X63892057Y-43942797D01*
X63933907Y-44153190D01*
X64015998Y-44351375D01*
X64135176Y-44529737D01*
X64286860Y-44681421D01*
X64465222Y-44800599D01*
X64663407Y-44882690D01*
X64873800Y-44924540D01*
X65088314Y-44924540D01*
X65298707Y-44882690D01*
X65496892Y-44800599D01*
X65675254Y-44681421D01*
X65826938Y-44529737D01*
X65946116Y-44351375D01*
X66028207Y-44153190D01*
X66070057Y-43942797D01*
X66070057Y-43728283D01*
X66028207Y-43517890D01*
X65946116Y-43319705D01*
X65826938Y-43141343D01*
X65675254Y-42989659D01*
X65496892Y-42870481D01*
X65298707Y-42788390D01*
X65088314Y-42746540D01*
X64873800Y-42746540D01*
X64663407Y-42788390D01*
X64465222Y-42870481D01*
X64286860Y-42989659D01*
X64135176Y-43141343D01*
X64015998Y-43319705D01*
X63933907Y-43517890D01*
X63892057Y-43728283D01*
X61250088Y-43728283D01*
X61250088Y-41188283D01*
X63892057Y-41188283D01*
X63892057Y-41402797D01*
X63933907Y-41613190D01*
X64015998Y-41811375D01*
X64135176Y-41989737D01*
X64286860Y-42141421D01*
X64465222Y-42260599D01*
X64663407Y-42342690D01*
X64873800Y-42384540D01*
X65088314Y-42384540D01*
X65298707Y-42342690D01*
X65496892Y-42260599D01*
X65675254Y-42141421D01*
X65826938Y-41989737D01*
X65946116Y-41811375D01*
X66028207Y-41613190D01*
X66070057Y-41402797D01*
X66070057Y-41188283D01*
X66028207Y-40977890D01*
X65946116Y-40779705D01*
X65826938Y-40601343D01*
X65675254Y-40449659D01*
X65496892Y-40330481D01*
X65298707Y-40248390D01*
X65088314Y-40206540D01*
X64873800Y-40206540D01*
X64663407Y-40248390D01*
X64465222Y-40330481D01*
X64286860Y-40449659D01*
X64135176Y-40601343D01*
X64015998Y-40779705D01*
X63933907Y-40977890D01*
X63892057Y-41188283D01*
X61250088Y-41188283D01*
X61250088Y-38648283D01*
X63892057Y-38648283D01*
X63892057Y-38862797D01*
X63933907Y-39073190D01*
X64015998Y-39271375D01*
X64135176Y-39449737D01*
X64286860Y-39601421D01*
X64465222Y-39720599D01*
X64663407Y-39802690D01*
X64873800Y-39844540D01*
X65088314Y-39844540D01*
X65298707Y-39802690D01*
X65496892Y-39720599D01*
X65675254Y-39601421D01*
X65826938Y-39449737D01*
X65946116Y-39271375D01*
X66028207Y-39073190D01*
X66070057Y-38862797D01*
X66070057Y-38648283D01*
X66028207Y-38437890D01*
X65946116Y-38239705D01*
X65826938Y-38061343D01*
X65675254Y-37909659D01*
X65496892Y-37790481D01*
X65298707Y-37708390D01*
X65088314Y-37666540D01*
X64873800Y-37666540D01*
X64663407Y-37708390D01*
X64465222Y-37790481D01*
X64286860Y-37909659D01*
X64135176Y-38061343D01*
X64015998Y-38239705D01*
X63933907Y-38437890D01*
X63892057Y-38648283D01*
X61250088Y-38648283D01*
X61250088Y-36108283D01*
X63892057Y-36108283D01*
X63892057Y-36322797D01*
X63933907Y-36533190D01*
X64015998Y-36731375D01*
X64135176Y-36909737D01*
X64286860Y-37061421D01*
X64465222Y-37180599D01*
X64663407Y-37262690D01*
X64873800Y-37304540D01*
X65088314Y-37304540D01*
X65298707Y-37262690D01*
X65496892Y-37180599D01*
X65675254Y-37061421D01*
X65826938Y-36909737D01*
X65946116Y-36731375D01*
X66028207Y-36533190D01*
X66070057Y-36322797D01*
X66070057Y-36108283D01*
X66028207Y-35897890D01*
X65946116Y-35699705D01*
X65826938Y-35521343D01*
X65675254Y-35369659D01*
X65496892Y-35250481D01*
X65298707Y-35168390D01*
X65088314Y-35126540D01*
X64873800Y-35126540D01*
X64663407Y-35168390D01*
X64465222Y-35250481D01*
X64286860Y-35369659D01*
X64135176Y-35521343D01*
X64015998Y-35699705D01*
X63933907Y-35897890D01*
X63892057Y-36108283D01*
X61250088Y-36108283D01*
X61250088Y-33568283D01*
X63892057Y-33568283D01*
X63892057Y-33782797D01*
X63933907Y-33993190D01*
X64015998Y-34191375D01*
X64135176Y-34369737D01*
X64286860Y-34521421D01*
X64465222Y-34640599D01*
X64663407Y-34722690D01*
X64873800Y-34764540D01*
X65088314Y-34764540D01*
X65298707Y-34722690D01*
X65496892Y-34640599D01*
X65675254Y-34521421D01*
X65826938Y-34369737D01*
X65946116Y-34191375D01*
X66028207Y-33993190D01*
X66070057Y-33782797D01*
X66070057Y-33568283D01*
X66028207Y-33357890D01*
X65946116Y-33159705D01*
X65826938Y-32981343D01*
X65675254Y-32829659D01*
X65496892Y-32710481D01*
X65298707Y-32628390D01*
X65088314Y-32586540D01*
X64873800Y-32586540D01*
X64663407Y-32628390D01*
X64465222Y-32710481D01*
X64286860Y-32829659D01*
X64135176Y-32981343D01*
X64015998Y-33159705D01*
X63933907Y-33357890D01*
X63892057Y-33568283D01*
X61250088Y-33568283D01*
X61250088Y-31935899D01*
X61252878Y-31907570D01*
X61250088Y-31879241D01*
X61250088Y-31879235D01*
X61241738Y-31794459D01*
X61208745Y-31685695D01*
X61155167Y-31585456D01*
X61104324Y-31523504D01*
X61101125Y-31519606D01*
X61101123Y-31519604D01*
X61083062Y-31497597D01*
X61061057Y-31479538D01*
X60609802Y-31028283D01*
X63892057Y-31028283D01*
X63892057Y-31242797D01*
X63933907Y-31453190D01*
X64015998Y-31651375D01*
X64135176Y-31829737D01*
X64286860Y-31981421D01*
X64465222Y-32100599D01*
X64663407Y-32182690D01*
X64873800Y-32224540D01*
X65088314Y-32224540D01*
X65298707Y-32182690D01*
X65496892Y-32100599D01*
X65675254Y-31981421D01*
X65826938Y-31829737D01*
X65946116Y-31651375D01*
X66028207Y-31453190D01*
X66070057Y-31242797D01*
X66070057Y-31028283D01*
X66028207Y-30817890D01*
X65946116Y-30619705D01*
X65826938Y-30441343D01*
X65675254Y-30289659D01*
X65496892Y-30170481D01*
X65298707Y-30088390D01*
X65088314Y-30046540D01*
X64873800Y-30046540D01*
X64663407Y-30088390D01*
X64465222Y-30170481D01*
X64286860Y-30289659D01*
X64135176Y-30441343D01*
X64015998Y-30619705D01*
X63933907Y-30817890D01*
X63892057Y-31028283D01*
X60609802Y-31028283D01*
X58422559Y-28841040D01*
X58450057Y-28702797D01*
X58450057Y-28488283D01*
X63892057Y-28488283D01*
X63892057Y-28702797D01*
X63933907Y-28913190D01*
X64015998Y-29111375D01*
X64135176Y-29289737D01*
X64286860Y-29441421D01*
X64465222Y-29560599D01*
X64663407Y-29642690D01*
X64873800Y-29684540D01*
X65088314Y-29684540D01*
X65298707Y-29642690D01*
X65496892Y-29560599D01*
X65675254Y-29441421D01*
X65826938Y-29289737D01*
X65946116Y-29111375D01*
X66028207Y-28913190D01*
X66070057Y-28702797D01*
X66070057Y-28488283D01*
X66028207Y-28277890D01*
X65946116Y-28079705D01*
X65826938Y-27901343D01*
X65675254Y-27749659D01*
X65496892Y-27630481D01*
X65298707Y-27548390D01*
X65088314Y-27506540D01*
X64873800Y-27506540D01*
X64663407Y-27548390D01*
X64465222Y-27630481D01*
X64286860Y-27749659D01*
X64135176Y-27901343D01*
X64015998Y-28079705D01*
X63933907Y-28277890D01*
X63892057Y-28488283D01*
X58450057Y-28488283D01*
X58408207Y-28277890D01*
X58326116Y-28079705D01*
X58206938Y-27901343D01*
X58055254Y-27749659D01*
X57876892Y-27630481D01*
X57678707Y-27548390D01*
X57468314Y-27506540D01*
X57253800Y-27506540D01*
X57043407Y-27548390D01*
X56845222Y-27630481D01*
X56666860Y-27749659D01*
X56515176Y-27901343D01*
X56395998Y-28079705D01*
X56313907Y-28277890D01*
X56272057Y-28488283D01*
X56272057Y-28702797D01*
X56313907Y-28913190D01*
X56395998Y-29111375D01*
X56515176Y-29289737D01*
X56666860Y-29441421D01*
X56845222Y-29560599D01*
X57043407Y-29642690D01*
X57253800Y-29684540D01*
X57468314Y-29684540D01*
X57606557Y-29657042D01*
X60096088Y-32146573D01*
X60096088Y-39684607D01*
X59505000Y-39093519D01*
X59505000Y-35270813D01*
X59507790Y-35242482D01*
X59496651Y-35129371D01*
X59477204Y-35065265D01*
X59463657Y-35020607D01*
X59410079Y-34920368D01*
X59337974Y-34832509D01*
X59315968Y-34814449D01*
X58422559Y-33921040D01*
X58450057Y-33782797D01*
X58450057Y-33568283D01*
X58408207Y-33357890D01*
X58326116Y-33159705D01*
X58206938Y-32981343D01*
X58055254Y-32829659D01*
X57876892Y-32710481D01*
X57678707Y-32628390D01*
X57468314Y-32586540D01*
X57253800Y-32586540D01*
X57043407Y-32628390D01*
X56845222Y-32710481D01*
X56666860Y-32829659D01*
X56515176Y-32981343D01*
X56395998Y-33159705D01*
X56313907Y-33357890D01*
X56272057Y-33568283D01*
X56272057Y-33782797D01*
X56313907Y-33993190D01*
X56395998Y-34191375D01*
X56515176Y-34369737D01*
X56666860Y-34521421D01*
X56845222Y-34640599D01*
X57043407Y-34722690D01*
X57253800Y-34764540D01*
X57468314Y-34764540D01*
X57606557Y-34737042D01*
X58351000Y-35481485D01*
X58351000Y-35759781D01*
X58326116Y-35699705D01*
X58206938Y-35521343D01*
X58055254Y-35369659D01*
X57876892Y-35250481D01*
X57678707Y-35168390D01*
X57468314Y-35126540D01*
X57253800Y-35126540D01*
X57043407Y-35168390D01*
X56845222Y-35250481D01*
X56666860Y-35369659D01*
X56515176Y-35521343D01*
X56395998Y-35699705D01*
X56313907Y-35897890D01*
X56272057Y-36108283D01*
X56272057Y-36322797D01*
X56299555Y-36461040D01*
X56026046Y-36734550D01*
X56026046Y-33286552D01*
X57115556Y-32197042D01*
X57253800Y-32224540D01*
X57468314Y-32224540D01*
X57678707Y-32182690D01*
X57876892Y-32100599D01*
X58055254Y-31981421D01*
X58206938Y-31829737D01*
X58326116Y-31651375D01*
X58408207Y-31453190D01*
X58450057Y-31242797D01*
X58450057Y-31028283D01*
X58408207Y-30817890D01*
X58326116Y-30619705D01*
X58206938Y-30441343D01*
X58055254Y-30289659D01*
X57876892Y-30170481D01*
X57678707Y-30088390D01*
X57468314Y-30046540D01*
X57253800Y-30046540D01*
X57043407Y-30088390D01*
X56845222Y-30170481D01*
X56666860Y-30289659D01*
X56515176Y-30441343D01*
X56395998Y-30619705D01*
X56313907Y-30817890D01*
X56272057Y-31028283D01*
X56272057Y-31242797D01*
X56299555Y-31381041D01*
X55061084Y-32619512D01*
X55039072Y-32637577D01*
X54966967Y-32725437D01*
X54913389Y-32825676D01*
X54912181Y-32829659D01*
X54880395Y-32934440D01*
X54869256Y-33047551D01*
X54872046Y-33075882D01*
X54872047Y-40101358D01*
X43492038Y-51481367D01*
X43470026Y-51499432D01*
X43397921Y-51587292D01*
X43344343Y-51687531D01*
X43330796Y-51732189D01*
X43311349Y-51796295D01*
X43300210Y-51909406D01*
X43303000Y-51937738D01*
X43303000Y-52044444D01*
X43241262Y-52085696D01*
X43101696Y-52225262D01*
X42992039Y-52389375D01*
X42916507Y-52571727D01*
X42880000Y-52755257D01*
X42843493Y-52571727D01*
X42767961Y-52389375D01*
X42658304Y-52225262D01*
X42518738Y-52085696D01*
X42354625Y-51976039D01*
X42172273Y-51900507D01*
X41978688Y-51862000D01*
X41781312Y-51862000D01*
X41677314Y-51882687D01*
X52457962Y-41102039D01*
X52479974Y-41083974D01*
X52552079Y-40996115D01*
X52605657Y-40895876D01*
X52638650Y-40787112D01*
X52647000Y-40702336D01*
X52647000Y-40702330D01*
X52649790Y-40674001D01*
X52647000Y-40645672D01*
X52647000Y-34853397D01*
X53375000Y-34853397D01*
X53375000Y-34996603D01*
X53402938Y-35137058D01*
X53457741Y-35269364D01*
X53537302Y-35388436D01*
X53638564Y-35489698D01*
X53757636Y-35569259D01*
X53889942Y-35624062D01*
X54030397Y-35652000D01*
X54173603Y-35652000D01*
X54314058Y-35624062D01*
X54446364Y-35569259D01*
X54565436Y-35489698D01*
X54666698Y-35388436D01*
X54746259Y-35269364D01*
X54801062Y-35137058D01*
X54829000Y-34996603D01*
X54829000Y-34853397D01*
X54801062Y-34712942D01*
X54746259Y-34580636D01*
X54679000Y-34479975D01*
X54679000Y-29553598D01*
X57115556Y-27117042D01*
X57253800Y-27144540D01*
X57468314Y-27144540D01*
X57678707Y-27102690D01*
X57875670Y-27021105D01*
X64195097Y-27021105D01*
X64262077Y-27261196D01*
X64511105Y-27378296D01*
X64778192Y-27444563D01*
X65053074Y-27457450D01*
X65325190Y-27416462D01*
X65584080Y-27323176D01*
X65700037Y-27261196D01*
X65767017Y-27021105D01*
X64981057Y-26235145D01*
X64195097Y-27021105D01*
X57875670Y-27021105D01*
X57876892Y-27020599D01*
X58055254Y-26901421D01*
X58206938Y-26749737D01*
X58326116Y-26571375D01*
X58408207Y-26373190D01*
X58450057Y-26162797D01*
X58450057Y-26127557D01*
X63579147Y-26127557D01*
X63620135Y-26399673D01*
X63713421Y-26658563D01*
X63775401Y-26774520D01*
X64015492Y-26841500D01*
X64801452Y-26055540D01*
X65160662Y-26055540D01*
X65946622Y-26841500D01*
X66186713Y-26774520D01*
X66303813Y-26525492D01*
X66370080Y-26258405D01*
X66382967Y-25983523D01*
X66341979Y-25711407D01*
X66248693Y-25452517D01*
X66186713Y-25336560D01*
X65946622Y-25269580D01*
X65160662Y-26055540D01*
X64801452Y-26055540D01*
X64015492Y-25269580D01*
X63775401Y-25336560D01*
X63658301Y-25585588D01*
X63592034Y-25852675D01*
X63579147Y-26127557D01*
X58450057Y-26127557D01*
X58450057Y-25948283D01*
X58408207Y-25737890D01*
X58326116Y-25539705D01*
X58206938Y-25361343D01*
X58055254Y-25209659D01*
X57876892Y-25090481D01*
X57875671Y-25089975D01*
X64195097Y-25089975D01*
X64981057Y-25875935D01*
X65767017Y-25089975D01*
X65700037Y-24849884D01*
X65451009Y-24732784D01*
X65183922Y-24666517D01*
X64909040Y-24653630D01*
X64636924Y-24694618D01*
X64378034Y-24787904D01*
X64262077Y-24849884D01*
X64195097Y-25089975D01*
X57875671Y-25089975D01*
X57678707Y-25008390D01*
X57468314Y-24966540D01*
X57253800Y-24966540D01*
X57043407Y-25008390D01*
X56845222Y-25090481D01*
X56666860Y-25209659D01*
X56515176Y-25361343D01*
X56395998Y-25539705D01*
X56313907Y-25737890D01*
X56272057Y-25948283D01*
X56272057Y-26162797D01*
X56299555Y-26301041D01*
X53714034Y-28886562D01*
X53692027Y-28904623D01*
X53673966Y-28926630D01*
X53673963Y-28926633D01*
X53650840Y-28954809D01*
X53619922Y-28992482D01*
X53616654Y-28998597D01*
X53566344Y-29092721D01*
X53533349Y-29201486D01*
X53522210Y-29314597D01*
X53525001Y-29342938D01*
X53525000Y-34479975D01*
X53457741Y-34580636D01*
X53402938Y-34712942D01*
X53375000Y-34853397D01*
X52647000Y-34853397D01*
X52647000Y-32124834D01*
X52764197Y-32046525D01*
X52915881Y-31894841D01*
X53035059Y-31716479D01*
X53117150Y-31518294D01*
X53159000Y-31307901D01*
X53159000Y-31093387D01*
X53117150Y-30882994D01*
X53035059Y-30684809D01*
X52915881Y-30506447D01*
X52764197Y-30354763D01*
X52585835Y-30235585D01*
X52387650Y-30153494D01*
X52177257Y-30111644D01*
X51962743Y-30111644D01*
X51752350Y-30153494D01*
X51554165Y-30235585D01*
X51375803Y-30354763D01*
X51224119Y-30506447D01*
X51104941Y-30684809D01*
X51022850Y-30882994D01*
X50981000Y-31093387D01*
X50981000Y-31307901D01*
X51022850Y-31518294D01*
X51104941Y-31716479D01*
X51224119Y-31894841D01*
X51375803Y-32046525D01*
X51493000Y-32124834D01*
X51493001Y-40434998D01*
X40051513Y-51876486D01*
X39978688Y-51862000D01*
X39781312Y-51862000D01*
X39587727Y-51900507D01*
X39405375Y-51976039D01*
X39241262Y-52085696D01*
X39101696Y-52225262D01*
X38992039Y-52389375D01*
X38916507Y-52571727D01*
X38880000Y-52755257D01*
X38843493Y-52571727D01*
X38767961Y-52389375D01*
X38658304Y-52225262D01*
X38518738Y-52085696D01*
X38354625Y-51976039D01*
X38172273Y-51900507D01*
X37978688Y-51862000D01*
X37781312Y-51862000D01*
X37677314Y-51882687D01*
X47377962Y-42182039D01*
X47399974Y-42163974D01*
X47472079Y-42076115D01*
X47525657Y-41975876D01*
X47546992Y-41905544D01*
X47558651Y-41867112D01*
X47569791Y-41754000D01*
X47567000Y-41725661D01*
X47567000Y-32124834D01*
X47684197Y-32046525D01*
X47835881Y-31894841D01*
X47955059Y-31716479D01*
X48037150Y-31518294D01*
X48079000Y-31307901D01*
X48079000Y-31093387D01*
X48037150Y-30882994D01*
X47955059Y-30684809D01*
X47835881Y-30506447D01*
X47684197Y-30354763D01*
X47505835Y-30235585D01*
X47307650Y-30153494D01*
X47097257Y-30111644D01*
X46882743Y-30111644D01*
X46672350Y-30153494D01*
X46474165Y-30235585D01*
X46295803Y-30354763D01*
X46144119Y-30506447D01*
X46024941Y-30684809D01*
X45942850Y-30882994D01*
X45901000Y-31093387D01*
X45901000Y-31307901D01*
X45942850Y-31518294D01*
X46024941Y-31716479D01*
X46144119Y-31894841D01*
X46295803Y-32046525D01*
X46413000Y-32124834D01*
X46413001Y-41514998D01*
X36051513Y-51876486D01*
X35978688Y-51862000D01*
X35781312Y-51862000D01*
X35587727Y-51900507D01*
X35405375Y-51976039D01*
X35241262Y-52085696D01*
X35101696Y-52225262D01*
X34992039Y-52389375D01*
X34916507Y-52571727D01*
X34880000Y-52755257D01*
X34843493Y-52571727D01*
X34767961Y-52389375D01*
X34658304Y-52225262D01*
X34518738Y-52085696D01*
X34354625Y-51976039D01*
X34172273Y-51900507D01*
X33978688Y-51862000D01*
X33781312Y-51862000D01*
X33677314Y-51882687D01*
X42297969Y-43262033D01*
X42319974Y-43243974D01*
X42392079Y-43156115D01*
X42445657Y-43055876D01*
X42465744Y-42989659D01*
X42478651Y-42947112D01*
X42489790Y-42834001D01*
X42487000Y-42805670D01*
X42487000Y-32124834D01*
X42604197Y-32046525D01*
X42755881Y-31894841D01*
X42875059Y-31716479D01*
X42957150Y-31518294D01*
X42999000Y-31307901D01*
X42999000Y-31093387D01*
X42957150Y-30882994D01*
X42875059Y-30684809D01*
X42755881Y-30506447D01*
X42604197Y-30354763D01*
X42425835Y-30235585D01*
X42227650Y-30153494D01*
X42017257Y-30111644D01*
X41802743Y-30111644D01*
X41592350Y-30153494D01*
X41394165Y-30235585D01*
X41215803Y-30354763D01*
X41064119Y-30506447D01*
X40944941Y-30684809D01*
X40862850Y-30882994D01*
X40821000Y-31093387D01*
X40821000Y-31307901D01*
X40862850Y-31518294D01*
X40944941Y-31716479D01*
X41064119Y-31894841D01*
X41215803Y-32046525D01*
X41333001Y-32124834D01*
X41333000Y-42594998D01*
X32051513Y-51876486D01*
X31978688Y-51862000D01*
X31781312Y-51862000D01*
X31587727Y-51900507D01*
X31405375Y-51976039D01*
X31241262Y-52085696D01*
X31101696Y-52225262D01*
X30992039Y-52389375D01*
X30916507Y-52571727D01*
X30880000Y-52755257D01*
X30843493Y-52571727D01*
X30767961Y-52389375D01*
X30658304Y-52225262D01*
X30518738Y-52085696D01*
X30369090Y-51985704D01*
X38683972Y-43670822D01*
X38705984Y-43652757D01*
X38778089Y-43564898D01*
X38831667Y-43464659D01*
X38850477Y-43402650D01*
X38864661Y-43355895D01*
X38870373Y-43297897D01*
X38873010Y-43271119D01*
X38873010Y-43271114D01*
X38875800Y-43242783D01*
X38873010Y-43214452D01*
X38873010Y-32694982D01*
X38875800Y-32666653D01*
X38873010Y-32638324D01*
X38873010Y-32638318D01*
X38864660Y-32553542D01*
X38831667Y-32444778D01*
X38778089Y-32344539D01*
X38705984Y-32256680D01*
X38683978Y-32238620D01*
X37891502Y-31446144D01*
X37919000Y-31307901D01*
X37919000Y-31093387D01*
X37877150Y-30882994D01*
X37795059Y-30684809D01*
X37715435Y-30565643D01*
X37918998Y-30565643D01*
X38308498Y-30955144D01*
X38281000Y-31093387D01*
X38281000Y-31307901D01*
X38322850Y-31518294D01*
X38404941Y-31716479D01*
X38524119Y-31894841D01*
X38675803Y-32046525D01*
X38854165Y-32165703D01*
X39052350Y-32247794D01*
X39262743Y-32289644D01*
X39477257Y-32289644D01*
X39687650Y-32247794D01*
X39885835Y-32165703D01*
X40064197Y-32046525D01*
X40215881Y-31894841D01*
X40335059Y-31716479D01*
X40417150Y-31518294D01*
X40459000Y-31307901D01*
X40459000Y-31093387D01*
X40417150Y-30882994D01*
X40335059Y-30684809D01*
X40215881Y-30506447D01*
X40064197Y-30354763D01*
X39885835Y-30235585D01*
X39687650Y-30153494D01*
X39477257Y-30111644D01*
X39262743Y-30111644D01*
X39124500Y-30139142D01*
X38850990Y-29865633D01*
X42298988Y-29865633D01*
X43388498Y-30955143D01*
X43361000Y-31093387D01*
X43361000Y-31307901D01*
X43402850Y-31518294D01*
X43484941Y-31716479D01*
X43604119Y-31894841D01*
X43755803Y-32046525D01*
X43934165Y-32165703D01*
X44132350Y-32247794D01*
X44342743Y-32289644D01*
X44557257Y-32289644D01*
X44767650Y-32247794D01*
X44965835Y-32165703D01*
X45144197Y-32046525D01*
X45295881Y-31894841D01*
X45415059Y-31716479D01*
X45497150Y-31518294D01*
X45539000Y-31307901D01*
X45539000Y-31093387D01*
X45497150Y-30882994D01*
X45415059Y-30684809D01*
X45295881Y-30506447D01*
X45144197Y-30354763D01*
X44965835Y-30235585D01*
X44767650Y-30153494D01*
X44557257Y-30111644D01*
X44342743Y-30111644D01*
X44204499Y-30139142D01*
X43230980Y-29165623D01*
X46678978Y-29165623D01*
X48468498Y-30955143D01*
X48441000Y-31093387D01*
X48441000Y-31307901D01*
X48482850Y-31518294D01*
X48564941Y-31716479D01*
X48684119Y-31894841D01*
X48835803Y-32046525D01*
X49014165Y-32165703D01*
X49212350Y-32247794D01*
X49422743Y-32289644D01*
X49637257Y-32289644D01*
X49847650Y-32247794D01*
X50045835Y-32165703D01*
X50224197Y-32046525D01*
X50375881Y-31894841D01*
X50495059Y-31716479D01*
X50577150Y-31518294D01*
X50619000Y-31307901D01*
X50619000Y-31093387D01*
X50577150Y-30882994D01*
X50495059Y-30684809D01*
X50375881Y-30506447D01*
X50224197Y-30354763D01*
X50045835Y-30235585D01*
X49847650Y-30153494D01*
X49637257Y-30111644D01*
X49422743Y-30111644D01*
X49284499Y-30139142D01*
X47346018Y-28200661D01*
X47327953Y-28178649D01*
X47240094Y-28106544D01*
X47139855Y-28052966D01*
X47075749Y-28033520D01*
X47031090Y-28019972D01*
X46976024Y-28014549D01*
X46946315Y-28011623D01*
X46946310Y-28011623D01*
X46917979Y-28008833D01*
X46889648Y-28011623D01*
X29459814Y-28011623D01*
X29431485Y-28008833D01*
X29403156Y-28011623D01*
X29403150Y-28011623D01*
X29318374Y-28019973D01*
X29209610Y-28052966D01*
X29109371Y-28106544D01*
X29063466Y-28144218D01*
X29043521Y-28160586D01*
X29043519Y-28160588D01*
X29021512Y-28178649D01*
X29003451Y-28200656D01*
X22267007Y-34937101D01*
X22244995Y-34955166D01*
X22172890Y-35043026D01*
X22119312Y-35143265D01*
X22110288Y-35173014D01*
X22086318Y-35252029D01*
X22080794Y-35308123D01*
X22078150Y-35334974D01*
X22075179Y-35365140D01*
X20279000Y-35365140D01*
X20279000Y-23940207D01*
X22965000Y-23940207D01*
X22965000Y-24319793D01*
X23039053Y-24692085D01*
X23184315Y-25042777D01*
X23395201Y-25358391D01*
X23663609Y-25626799D01*
X23979223Y-25837685D01*
X24329915Y-25982947D01*
X24702207Y-26057000D01*
X25081793Y-26057000D01*
X25454085Y-25982947D01*
X25804777Y-25837685D01*
X26120391Y-25626799D01*
X26388799Y-25358391D01*
X26599685Y-25042777D01*
X26744947Y-24692085D01*
X26773963Y-24546209D01*
X30964040Y-24546209D01*
X31031020Y-24786300D01*
X31280048Y-24903400D01*
X31547135Y-24969667D01*
X31822017Y-24982554D01*
X32094133Y-24941566D01*
X32353023Y-24848280D01*
X32468980Y-24786300D01*
X32535960Y-24546209D01*
X31750000Y-23760249D01*
X30964040Y-24546209D01*
X26773963Y-24546209D01*
X26819000Y-24319793D01*
X26819000Y-23940207D01*
X26761804Y-23652661D01*
X30348090Y-23652661D01*
X30389078Y-23924777D01*
X30482364Y-24183667D01*
X30544344Y-24299624D01*
X30784435Y-24366604D01*
X31570395Y-23580644D01*
X31929605Y-23580644D01*
X32715565Y-24366604D01*
X32955656Y-24299624D01*
X33072756Y-24050596D01*
X33139023Y-23783509D01*
X33151910Y-23508627D01*
X33146602Y-23473387D01*
X33201000Y-23473387D01*
X33201000Y-23687901D01*
X33242850Y-23898294D01*
X33324941Y-24096479D01*
X33444119Y-24274841D01*
X33595803Y-24426525D01*
X33774165Y-24545703D01*
X33972350Y-24627794D01*
X34182743Y-24669644D01*
X34397257Y-24669644D01*
X34607650Y-24627794D01*
X34805835Y-24545703D01*
X34984197Y-24426525D01*
X35135881Y-24274841D01*
X35255059Y-24096479D01*
X35337150Y-23898294D01*
X35379000Y-23687901D01*
X35379000Y-23473387D01*
X35741000Y-23473387D01*
X35741000Y-23687901D01*
X35782850Y-23898294D01*
X35864941Y-24096479D01*
X35984119Y-24274841D01*
X36135803Y-24426525D01*
X36314165Y-24545703D01*
X36512350Y-24627794D01*
X36722743Y-24669644D01*
X36937257Y-24669644D01*
X37147650Y-24627794D01*
X37345835Y-24545703D01*
X37524197Y-24426525D01*
X37675881Y-24274841D01*
X37795059Y-24096479D01*
X37877150Y-23898294D01*
X37919000Y-23687901D01*
X37919000Y-23473387D01*
X38281000Y-23473387D01*
X38281000Y-23687901D01*
X38322850Y-23898294D01*
X38404941Y-24096479D01*
X38524119Y-24274841D01*
X38675803Y-24426525D01*
X38854165Y-24545703D01*
X39052350Y-24627794D01*
X39262743Y-24669644D01*
X39477257Y-24669644D01*
X39687650Y-24627794D01*
X39885835Y-24545703D01*
X40064197Y-24426525D01*
X40215881Y-24274841D01*
X40335059Y-24096479D01*
X40417150Y-23898294D01*
X40459000Y-23687901D01*
X40459000Y-23473387D01*
X40821000Y-23473387D01*
X40821000Y-23687901D01*
X40862850Y-23898294D01*
X40944941Y-24096479D01*
X41064119Y-24274841D01*
X41215803Y-24426525D01*
X41394165Y-24545703D01*
X41592350Y-24627794D01*
X41802743Y-24669644D01*
X42017257Y-24669644D01*
X42227650Y-24627794D01*
X42425835Y-24545703D01*
X42604197Y-24426525D01*
X42755881Y-24274841D01*
X42875059Y-24096479D01*
X42957150Y-23898294D01*
X42999000Y-23687901D01*
X42999000Y-23473387D01*
X43361000Y-23473387D01*
X43361000Y-23687901D01*
X43402850Y-23898294D01*
X43484941Y-24096479D01*
X43604119Y-24274841D01*
X43755803Y-24426525D01*
X43934165Y-24545703D01*
X44132350Y-24627794D01*
X44342743Y-24669644D01*
X44557257Y-24669644D01*
X44767650Y-24627794D01*
X44965835Y-24545703D01*
X45144197Y-24426525D01*
X45295881Y-24274841D01*
X45415059Y-24096479D01*
X45497150Y-23898294D01*
X45539000Y-23687901D01*
X45539000Y-23473387D01*
X45901000Y-23473387D01*
X45901000Y-23687901D01*
X45942850Y-23898294D01*
X46024941Y-24096479D01*
X46144119Y-24274841D01*
X46295803Y-24426525D01*
X46474165Y-24545703D01*
X46672350Y-24627794D01*
X46882743Y-24669644D01*
X47097257Y-24669644D01*
X47307650Y-24627794D01*
X47505835Y-24545703D01*
X47684197Y-24426525D01*
X47835881Y-24274841D01*
X47955059Y-24096479D01*
X48037150Y-23898294D01*
X48079000Y-23687901D01*
X48079000Y-23473387D01*
X48441000Y-23473387D01*
X48441000Y-23687901D01*
X48482850Y-23898294D01*
X48564941Y-24096479D01*
X48684119Y-24274841D01*
X48835803Y-24426525D01*
X49014165Y-24545703D01*
X49212350Y-24627794D01*
X49422743Y-24669644D01*
X49637257Y-24669644D01*
X49847650Y-24627794D01*
X50045835Y-24545703D01*
X50224197Y-24426525D01*
X50375881Y-24274841D01*
X50495059Y-24096479D01*
X50577150Y-23898294D01*
X50619000Y-23687901D01*
X50619000Y-23473387D01*
X50577150Y-23262994D01*
X50495059Y-23064809D01*
X50375881Y-22886447D01*
X50308078Y-22818644D01*
X50979418Y-22818644D01*
X50979418Y-24342644D01*
X50985732Y-24406747D01*
X51004430Y-24468387D01*
X51034794Y-24525194D01*
X51075657Y-24574987D01*
X51125450Y-24615850D01*
X51182257Y-24646214D01*
X51243897Y-24664912D01*
X51308000Y-24671226D01*
X52832000Y-24671226D01*
X52896103Y-24664912D01*
X52957743Y-24646214D01*
X53014550Y-24615850D01*
X53064343Y-24574987D01*
X53105206Y-24525194D01*
X53135570Y-24468387D01*
X53154268Y-24406747D01*
X53160582Y-24342644D01*
X53160582Y-22818644D01*
X53154268Y-22754541D01*
X53135570Y-22692901D01*
X53105206Y-22636094D01*
X53064343Y-22586301D01*
X53014550Y-22545438D01*
X52957743Y-22515074D01*
X52896103Y-22496376D01*
X52832000Y-22490062D01*
X51308000Y-22490062D01*
X51243897Y-22496376D01*
X51182257Y-22515074D01*
X51125450Y-22545438D01*
X51075657Y-22586301D01*
X51034794Y-22636094D01*
X51004430Y-22692901D01*
X50985732Y-22754541D01*
X50979418Y-22818644D01*
X50308078Y-22818644D01*
X50224197Y-22734763D01*
X50045835Y-22615585D01*
X49847650Y-22533494D01*
X49637257Y-22491644D01*
X49422743Y-22491644D01*
X49212350Y-22533494D01*
X49014165Y-22615585D01*
X48835803Y-22734763D01*
X48684119Y-22886447D01*
X48564941Y-23064809D01*
X48482850Y-23262994D01*
X48441000Y-23473387D01*
X48079000Y-23473387D01*
X48037150Y-23262994D01*
X47955059Y-23064809D01*
X47835881Y-22886447D01*
X47684197Y-22734763D01*
X47505835Y-22615585D01*
X47307650Y-22533494D01*
X47097257Y-22491644D01*
X46882743Y-22491644D01*
X46672350Y-22533494D01*
X46474165Y-22615585D01*
X46295803Y-22734763D01*
X46144119Y-22886447D01*
X46024941Y-23064809D01*
X45942850Y-23262994D01*
X45901000Y-23473387D01*
X45539000Y-23473387D01*
X45497150Y-23262994D01*
X45415059Y-23064809D01*
X45295881Y-22886447D01*
X45144197Y-22734763D01*
X44965835Y-22615585D01*
X44767650Y-22533494D01*
X44557257Y-22491644D01*
X44342743Y-22491644D01*
X44132350Y-22533494D01*
X43934165Y-22615585D01*
X43755803Y-22734763D01*
X43604119Y-22886447D01*
X43484941Y-23064809D01*
X43402850Y-23262994D01*
X43361000Y-23473387D01*
X42999000Y-23473387D01*
X42957150Y-23262994D01*
X42875059Y-23064809D01*
X42755881Y-22886447D01*
X42604197Y-22734763D01*
X42425835Y-22615585D01*
X42227650Y-22533494D01*
X42017257Y-22491644D01*
X41802743Y-22491644D01*
X41592350Y-22533494D01*
X41394165Y-22615585D01*
X41215803Y-22734763D01*
X41064119Y-22886447D01*
X40944941Y-23064809D01*
X40862850Y-23262994D01*
X40821000Y-23473387D01*
X40459000Y-23473387D01*
X40417150Y-23262994D01*
X40335059Y-23064809D01*
X40215881Y-22886447D01*
X40064197Y-22734763D01*
X39885835Y-22615585D01*
X39687650Y-22533494D01*
X39477257Y-22491644D01*
X39262743Y-22491644D01*
X39052350Y-22533494D01*
X38854165Y-22615585D01*
X38675803Y-22734763D01*
X38524119Y-22886447D01*
X38404941Y-23064809D01*
X38322850Y-23262994D01*
X38281000Y-23473387D01*
X37919000Y-23473387D01*
X37877150Y-23262994D01*
X37795059Y-23064809D01*
X37675881Y-22886447D01*
X37524197Y-22734763D01*
X37345835Y-22615585D01*
X37147650Y-22533494D01*
X36937257Y-22491644D01*
X36722743Y-22491644D01*
X36512350Y-22533494D01*
X36314165Y-22615585D01*
X36135803Y-22734763D01*
X35984119Y-22886447D01*
X35864941Y-23064809D01*
X35782850Y-23262994D01*
X35741000Y-23473387D01*
X35379000Y-23473387D01*
X35337150Y-23262994D01*
X35255059Y-23064809D01*
X35135881Y-22886447D01*
X34984197Y-22734763D01*
X34805835Y-22615585D01*
X34607650Y-22533494D01*
X34397257Y-22491644D01*
X34182743Y-22491644D01*
X33972350Y-22533494D01*
X33774165Y-22615585D01*
X33595803Y-22734763D01*
X33444119Y-22886447D01*
X33324941Y-23064809D01*
X33242850Y-23262994D01*
X33201000Y-23473387D01*
X33146602Y-23473387D01*
X33110922Y-23236511D01*
X33017636Y-22977621D01*
X32955656Y-22861664D01*
X32715565Y-22794684D01*
X31929605Y-23580644D01*
X31570395Y-23580644D01*
X30784435Y-22794684D01*
X30544344Y-22861664D01*
X30427244Y-23110692D01*
X30360977Y-23377779D01*
X30348090Y-23652661D01*
X26761804Y-23652661D01*
X26744947Y-23567915D01*
X26599685Y-23217223D01*
X26388799Y-22901609D01*
X26120391Y-22633201D01*
X26093270Y-22615079D01*
X30964040Y-22615079D01*
X31750000Y-23401039D01*
X32535960Y-22615079D01*
X32468980Y-22374988D01*
X32219952Y-22257888D01*
X31952865Y-22191621D01*
X31677983Y-22178734D01*
X31405867Y-22219722D01*
X31146977Y-22313008D01*
X31031020Y-22374988D01*
X30964040Y-22615079D01*
X26093270Y-22615079D01*
X25804777Y-22422315D01*
X25454085Y-22277053D01*
X25081793Y-22203000D01*
X24702207Y-22203000D01*
X24329915Y-22277053D01*
X23979223Y-22422315D01*
X23663609Y-22633201D01*
X23395201Y-22901609D01*
X23184315Y-23217223D01*
X23039053Y-23567915D01*
X22965000Y-23940207D01*
X20279000Y-23940207D01*
X20279000Y-20279000D01*
X69721000Y-20279000D01*
X69721001Y-59721000D01*
%TA.AperFunction,Conductor*%
D21*
G36*
X69721001Y-59721000D02*
G01*
X20279000Y-59721000D01*
X20279000Y-35365140D01*
X22075179Y-35365140D01*
X22077969Y-35393471D01*
X22077970Y-55255555D01*
X22075179Y-55283896D01*
X22086318Y-55397007D01*
X22118393Y-55502738D01*
X22119313Y-55505772D01*
X22172891Y-55606011D01*
X22244996Y-55693870D01*
X22267008Y-55711935D01*
X24332054Y-57776983D01*
X24350119Y-57798995D01*
X24437978Y-57871100D01*
X24538217Y-57924678D01*
X24582875Y-57938225D01*
X24646981Y-57957672D01*
X24760093Y-57968812D01*
X24788432Y-57966021D01*
X35326648Y-57966021D01*
X35354979Y-57968811D01*
X35383310Y-57966021D01*
X35383315Y-57966021D01*
X35413024Y-57963095D01*
X35468090Y-57957672D01*
X35512749Y-57944124D01*
X35576855Y-57924678D01*
X35677094Y-57871100D01*
X35764953Y-57798995D01*
X35783018Y-57776983D01*
X37708487Y-55851514D01*
X37781312Y-55866000D01*
X37978688Y-55866000D01*
X38172273Y-55827493D01*
X38354625Y-55751961D01*
X38518738Y-55642304D01*
X38658304Y-55502738D01*
X38767961Y-55338625D01*
X38843493Y-55156273D01*
X38880000Y-54972743D01*
X38916507Y-55156273D01*
X38992039Y-55338625D01*
X39101696Y-55502738D01*
X39241262Y-55642304D01*
X39405375Y-55751961D01*
X39587727Y-55827493D01*
X39781312Y-55866000D01*
X39978688Y-55866000D01*
X40172273Y-55827493D01*
X40354625Y-55751961D01*
X40518738Y-55642304D01*
X40658304Y-55502738D01*
X40767961Y-55338625D01*
X40843493Y-55156273D01*
X40880000Y-54972743D01*
X40916507Y-55156273D01*
X40992039Y-55338625D01*
X41101696Y-55502738D01*
X41241262Y-55642304D01*
X41405375Y-55751961D01*
X41587727Y-55827493D01*
X41781312Y-55866000D01*
X41978688Y-55866000D01*
X42051513Y-55851514D01*
X44676992Y-58476993D01*
X44695057Y-58499005D01*
X44782916Y-58571110D01*
X44857259Y-58610847D01*
X44883154Y-58624688D01*
X44991919Y-58657682D01*
X45105031Y-58668822D01*
X45133370Y-58666031D01*
X57261529Y-58666031D01*
X57289860Y-58668821D01*
X57318191Y-58666031D01*
X57318196Y-58666031D01*
X57347905Y-58663105D01*
X57402971Y-58657682D01*
X57447630Y-58644134D01*
X57511736Y-58624688D01*
X57611975Y-58571110D01*
X57699834Y-58499005D01*
X57717899Y-58476993D01*
X61061050Y-55133842D01*
X61083062Y-55115777D01*
X61155167Y-55027918D01*
X61208745Y-54927679D01*
X61222292Y-54883021D01*
X61241739Y-54818915D01*
X61252878Y-54705803D01*
X61250088Y-54677472D01*
X61250088Y-54039207D01*
X62589000Y-54039207D01*
X62589000Y-54418793D01*
X62663053Y-54791085D01*
X62808315Y-55141777D01*
X63019201Y-55457391D01*
X63287609Y-55725799D01*
X63603223Y-55936685D01*
X63953915Y-56081947D01*
X64326207Y-56156000D01*
X64705793Y-56156000D01*
X65078085Y-56081947D01*
X65428777Y-55936685D01*
X65744391Y-55725799D01*
X66012799Y-55457391D01*
X66223685Y-55141777D01*
X66368947Y-54791085D01*
X66443000Y-54418793D01*
X66443000Y-54039207D01*
X66368947Y-53666915D01*
X66223685Y-53316223D01*
X66012799Y-53000609D01*
X65744391Y-52732201D01*
X65428777Y-52521315D01*
X65078085Y-52376053D01*
X64705793Y-52302000D01*
X64326207Y-52302000D01*
X63953915Y-52376053D01*
X63603223Y-52521315D01*
X63287609Y-52732201D01*
X63019201Y-53000609D01*
X62808315Y-53316223D01*
X62663053Y-53666915D01*
X62589000Y-54039207D01*
X61250088Y-54039207D01*
X61250088Y-45613540D01*
X63890475Y-45613540D01*
X63890475Y-47137540D01*
X63896789Y-47201643D01*
X63915487Y-47263283D01*
X63945851Y-47320090D01*
X63986714Y-47369883D01*
X64036507Y-47410746D01*
X64093314Y-47441110D01*
X64154954Y-47459808D01*
X64219057Y-47466122D01*
X65743057Y-47466122D01*
X65807160Y-47459808D01*
X65868800Y-47441110D01*
X65925607Y-47410746D01*
X65975400Y-47369883D01*
X66016263Y-47320090D01*
X66046627Y-47263283D01*
X66065325Y-47201643D01*
X66071639Y-47137540D01*
X66071639Y-45613540D01*
X66065325Y-45549437D01*
X66046627Y-45487797D01*
X66016263Y-45430990D01*
X65975400Y-45381197D01*
X65925607Y-45340334D01*
X65868800Y-45309970D01*
X65807160Y-45291272D01*
X65743057Y-45284958D01*
X64219057Y-45284958D01*
X64154954Y-45291272D01*
X64093314Y-45309970D01*
X64036507Y-45340334D01*
X63986714Y-45381197D01*
X63945851Y-45430990D01*
X63915487Y-45487797D01*
X63896789Y-45549437D01*
X63890475Y-45613540D01*
X61250088Y-45613540D01*
X61250088Y-43728283D01*
X63892057Y-43728283D01*
X63892057Y-43942797D01*
X63933907Y-44153190D01*
X64015998Y-44351375D01*
X64135176Y-44529737D01*
X64286860Y-44681421D01*
X64465222Y-44800599D01*
X64663407Y-44882690D01*
X64873800Y-44924540D01*
X65088314Y-44924540D01*
X65298707Y-44882690D01*
X65496892Y-44800599D01*
X65675254Y-44681421D01*
X65826938Y-44529737D01*
X65946116Y-44351375D01*
X66028207Y-44153190D01*
X66070057Y-43942797D01*
X66070057Y-43728283D01*
X66028207Y-43517890D01*
X65946116Y-43319705D01*
X65826938Y-43141343D01*
X65675254Y-42989659D01*
X65496892Y-42870481D01*
X65298707Y-42788390D01*
X65088314Y-42746540D01*
X64873800Y-42746540D01*
X64663407Y-42788390D01*
X64465222Y-42870481D01*
X64286860Y-42989659D01*
X64135176Y-43141343D01*
X64015998Y-43319705D01*
X63933907Y-43517890D01*
X63892057Y-43728283D01*
X61250088Y-43728283D01*
X61250088Y-41188283D01*
X63892057Y-41188283D01*
X63892057Y-41402797D01*
X63933907Y-41613190D01*
X64015998Y-41811375D01*
X64135176Y-41989737D01*
X64286860Y-42141421D01*
X64465222Y-42260599D01*
X64663407Y-42342690D01*
X64873800Y-42384540D01*
X65088314Y-42384540D01*
X65298707Y-42342690D01*
X65496892Y-42260599D01*
X65675254Y-42141421D01*
X65826938Y-41989737D01*
X65946116Y-41811375D01*
X66028207Y-41613190D01*
X66070057Y-41402797D01*
X66070057Y-41188283D01*
X66028207Y-40977890D01*
X65946116Y-40779705D01*
X65826938Y-40601343D01*
X65675254Y-40449659D01*
X65496892Y-40330481D01*
X65298707Y-40248390D01*
X65088314Y-40206540D01*
X64873800Y-40206540D01*
X64663407Y-40248390D01*
X64465222Y-40330481D01*
X64286860Y-40449659D01*
X64135176Y-40601343D01*
X64015998Y-40779705D01*
X63933907Y-40977890D01*
X63892057Y-41188283D01*
X61250088Y-41188283D01*
X61250088Y-38648283D01*
X63892057Y-38648283D01*
X63892057Y-38862797D01*
X63933907Y-39073190D01*
X64015998Y-39271375D01*
X64135176Y-39449737D01*
X64286860Y-39601421D01*
X64465222Y-39720599D01*
X64663407Y-39802690D01*
X64873800Y-39844540D01*
X65088314Y-39844540D01*
X65298707Y-39802690D01*
X65496892Y-39720599D01*
X65675254Y-39601421D01*
X65826938Y-39449737D01*
X65946116Y-39271375D01*
X66028207Y-39073190D01*
X66070057Y-38862797D01*
X66070057Y-38648283D01*
X66028207Y-38437890D01*
X65946116Y-38239705D01*
X65826938Y-38061343D01*
X65675254Y-37909659D01*
X65496892Y-37790481D01*
X65298707Y-37708390D01*
X65088314Y-37666540D01*
X64873800Y-37666540D01*
X64663407Y-37708390D01*
X64465222Y-37790481D01*
X64286860Y-37909659D01*
X64135176Y-38061343D01*
X64015998Y-38239705D01*
X63933907Y-38437890D01*
X63892057Y-38648283D01*
X61250088Y-38648283D01*
X61250088Y-36108283D01*
X63892057Y-36108283D01*
X63892057Y-36322797D01*
X63933907Y-36533190D01*
X64015998Y-36731375D01*
X64135176Y-36909737D01*
X64286860Y-37061421D01*
X64465222Y-37180599D01*
X64663407Y-37262690D01*
X64873800Y-37304540D01*
X65088314Y-37304540D01*
X65298707Y-37262690D01*
X65496892Y-37180599D01*
X65675254Y-37061421D01*
X65826938Y-36909737D01*
X65946116Y-36731375D01*
X66028207Y-36533190D01*
X66070057Y-36322797D01*
X66070057Y-36108283D01*
X66028207Y-35897890D01*
X65946116Y-35699705D01*
X65826938Y-35521343D01*
X65675254Y-35369659D01*
X65496892Y-35250481D01*
X65298707Y-35168390D01*
X65088314Y-35126540D01*
X64873800Y-35126540D01*
X64663407Y-35168390D01*
X64465222Y-35250481D01*
X64286860Y-35369659D01*
X64135176Y-35521343D01*
X64015998Y-35699705D01*
X63933907Y-35897890D01*
X63892057Y-36108283D01*
X61250088Y-36108283D01*
X61250088Y-33568283D01*
X63892057Y-33568283D01*
X63892057Y-33782797D01*
X63933907Y-33993190D01*
X64015998Y-34191375D01*
X64135176Y-34369737D01*
X64286860Y-34521421D01*
X64465222Y-34640599D01*
X64663407Y-34722690D01*
X64873800Y-34764540D01*
X65088314Y-34764540D01*
X65298707Y-34722690D01*
X65496892Y-34640599D01*
X65675254Y-34521421D01*
X65826938Y-34369737D01*
X65946116Y-34191375D01*
X66028207Y-33993190D01*
X66070057Y-33782797D01*
X66070057Y-33568283D01*
X66028207Y-33357890D01*
X65946116Y-33159705D01*
X65826938Y-32981343D01*
X65675254Y-32829659D01*
X65496892Y-32710481D01*
X65298707Y-32628390D01*
X65088314Y-32586540D01*
X64873800Y-32586540D01*
X64663407Y-32628390D01*
X64465222Y-32710481D01*
X64286860Y-32829659D01*
X64135176Y-32981343D01*
X64015998Y-33159705D01*
X63933907Y-33357890D01*
X63892057Y-33568283D01*
X61250088Y-33568283D01*
X61250088Y-31935899D01*
X61252878Y-31907570D01*
X61250088Y-31879241D01*
X61250088Y-31879235D01*
X61241738Y-31794459D01*
X61208745Y-31685695D01*
X61155167Y-31585456D01*
X61104324Y-31523504D01*
X61101125Y-31519606D01*
X61101123Y-31519604D01*
X61083062Y-31497597D01*
X61061057Y-31479538D01*
X60609802Y-31028283D01*
X63892057Y-31028283D01*
X63892057Y-31242797D01*
X63933907Y-31453190D01*
X64015998Y-31651375D01*
X64135176Y-31829737D01*
X64286860Y-31981421D01*
X64465222Y-32100599D01*
X64663407Y-32182690D01*
X64873800Y-32224540D01*
X65088314Y-32224540D01*
X65298707Y-32182690D01*
X65496892Y-32100599D01*
X65675254Y-31981421D01*
X65826938Y-31829737D01*
X65946116Y-31651375D01*
X66028207Y-31453190D01*
X66070057Y-31242797D01*
X66070057Y-31028283D01*
X66028207Y-30817890D01*
X65946116Y-30619705D01*
X65826938Y-30441343D01*
X65675254Y-30289659D01*
X65496892Y-30170481D01*
X65298707Y-30088390D01*
X65088314Y-30046540D01*
X64873800Y-30046540D01*
X64663407Y-30088390D01*
X64465222Y-30170481D01*
X64286860Y-30289659D01*
X64135176Y-30441343D01*
X64015998Y-30619705D01*
X63933907Y-30817890D01*
X63892057Y-31028283D01*
X60609802Y-31028283D01*
X58422559Y-28841040D01*
X58450057Y-28702797D01*
X58450057Y-28488283D01*
X63892057Y-28488283D01*
X63892057Y-28702797D01*
X63933907Y-28913190D01*
X64015998Y-29111375D01*
X64135176Y-29289737D01*
X64286860Y-29441421D01*
X64465222Y-29560599D01*
X64663407Y-29642690D01*
X64873800Y-29684540D01*
X65088314Y-29684540D01*
X65298707Y-29642690D01*
X65496892Y-29560599D01*
X65675254Y-29441421D01*
X65826938Y-29289737D01*
X65946116Y-29111375D01*
X66028207Y-28913190D01*
X66070057Y-28702797D01*
X66070057Y-28488283D01*
X66028207Y-28277890D01*
X65946116Y-28079705D01*
X65826938Y-27901343D01*
X65675254Y-27749659D01*
X65496892Y-27630481D01*
X65298707Y-27548390D01*
X65088314Y-27506540D01*
X64873800Y-27506540D01*
X64663407Y-27548390D01*
X64465222Y-27630481D01*
X64286860Y-27749659D01*
X64135176Y-27901343D01*
X64015998Y-28079705D01*
X63933907Y-28277890D01*
X63892057Y-28488283D01*
X58450057Y-28488283D01*
X58408207Y-28277890D01*
X58326116Y-28079705D01*
X58206938Y-27901343D01*
X58055254Y-27749659D01*
X57876892Y-27630481D01*
X57678707Y-27548390D01*
X57468314Y-27506540D01*
X57253800Y-27506540D01*
X57043407Y-27548390D01*
X56845222Y-27630481D01*
X56666860Y-27749659D01*
X56515176Y-27901343D01*
X56395998Y-28079705D01*
X56313907Y-28277890D01*
X56272057Y-28488283D01*
X56272057Y-28702797D01*
X56313907Y-28913190D01*
X56395998Y-29111375D01*
X56515176Y-29289737D01*
X56666860Y-29441421D01*
X56845222Y-29560599D01*
X57043407Y-29642690D01*
X57253800Y-29684540D01*
X57468314Y-29684540D01*
X57606557Y-29657042D01*
X60096088Y-32146573D01*
X60096088Y-39684607D01*
X59505000Y-39093519D01*
X59505000Y-35270813D01*
X59507790Y-35242482D01*
X59496651Y-35129371D01*
X59477204Y-35065265D01*
X59463657Y-35020607D01*
X59410079Y-34920368D01*
X59337974Y-34832509D01*
X59315968Y-34814449D01*
X58422559Y-33921040D01*
X58450057Y-33782797D01*
X58450057Y-33568283D01*
X58408207Y-33357890D01*
X58326116Y-33159705D01*
X58206938Y-32981343D01*
X58055254Y-32829659D01*
X57876892Y-32710481D01*
X57678707Y-32628390D01*
X57468314Y-32586540D01*
X57253800Y-32586540D01*
X57043407Y-32628390D01*
X56845222Y-32710481D01*
X56666860Y-32829659D01*
X56515176Y-32981343D01*
X56395998Y-33159705D01*
X56313907Y-33357890D01*
X56272057Y-33568283D01*
X56272057Y-33782797D01*
X56313907Y-33993190D01*
X56395998Y-34191375D01*
X56515176Y-34369737D01*
X56666860Y-34521421D01*
X56845222Y-34640599D01*
X57043407Y-34722690D01*
X57253800Y-34764540D01*
X57468314Y-34764540D01*
X57606557Y-34737042D01*
X58351000Y-35481485D01*
X58351000Y-35759781D01*
X58326116Y-35699705D01*
X58206938Y-35521343D01*
X58055254Y-35369659D01*
X57876892Y-35250481D01*
X57678707Y-35168390D01*
X57468314Y-35126540D01*
X57253800Y-35126540D01*
X57043407Y-35168390D01*
X56845222Y-35250481D01*
X56666860Y-35369659D01*
X56515176Y-35521343D01*
X56395998Y-35699705D01*
X56313907Y-35897890D01*
X56272057Y-36108283D01*
X56272057Y-36322797D01*
X56299555Y-36461040D01*
X56026046Y-36734550D01*
X56026046Y-33286552D01*
X57115556Y-32197042D01*
X57253800Y-32224540D01*
X57468314Y-32224540D01*
X57678707Y-32182690D01*
X57876892Y-32100599D01*
X58055254Y-31981421D01*
X58206938Y-31829737D01*
X58326116Y-31651375D01*
X58408207Y-31453190D01*
X58450057Y-31242797D01*
X58450057Y-31028283D01*
X58408207Y-30817890D01*
X58326116Y-30619705D01*
X58206938Y-30441343D01*
X58055254Y-30289659D01*
X57876892Y-30170481D01*
X57678707Y-30088390D01*
X57468314Y-30046540D01*
X57253800Y-30046540D01*
X57043407Y-30088390D01*
X56845222Y-30170481D01*
X56666860Y-30289659D01*
X56515176Y-30441343D01*
X56395998Y-30619705D01*
X56313907Y-30817890D01*
X56272057Y-31028283D01*
X56272057Y-31242797D01*
X56299555Y-31381041D01*
X55061084Y-32619512D01*
X55039072Y-32637577D01*
X54966967Y-32725437D01*
X54913389Y-32825676D01*
X54912181Y-32829659D01*
X54880395Y-32934440D01*
X54869256Y-33047551D01*
X54872046Y-33075882D01*
X54872047Y-40101358D01*
X43492038Y-51481367D01*
X43470026Y-51499432D01*
X43397921Y-51587292D01*
X43344343Y-51687531D01*
X43330796Y-51732189D01*
X43311349Y-51796295D01*
X43300210Y-51909406D01*
X43303000Y-51937738D01*
X43303000Y-52044444D01*
X43241262Y-52085696D01*
X43101696Y-52225262D01*
X42992039Y-52389375D01*
X42916507Y-52571727D01*
X42880000Y-52755257D01*
X42843493Y-52571727D01*
X42767961Y-52389375D01*
X42658304Y-52225262D01*
X42518738Y-52085696D01*
X42354625Y-51976039D01*
X42172273Y-51900507D01*
X41978688Y-51862000D01*
X41781312Y-51862000D01*
X41677314Y-51882687D01*
X52457962Y-41102039D01*
X52479974Y-41083974D01*
X52552079Y-40996115D01*
X52605657Y-40895876D01*
X52638650Y-40787112D01*
X52647000Y-40702336D01*
X52647000Y-40702330D01*
X52649790Y-40674001D01*
X52647000Y-40645672D01*
X52647000Y-34853397D01*
X53375000Y-34853397D01*
X53375000Y-34996603D01*
X53402938Y-35137058D01*
X53457741Y-35269364D01*
X53537302Y-35388436D01*
X53638564Y-35489698D01*
X53757636Y-35569259D01*
X53889942Y-35624062D01*
X54030397Y-35652000D01*
X54173603Y-35652000D01*
X54314058Y-35624062D01*
X54446364Y-35569259D01*
X54565436Y-35489698D01*
X54666698Y-35388436D01*
X54746259Y-35269364D01*
X54801062Y-35137058D01*
X54829000Y-34996603D01*
X54829000Y-34853397D01*
X54801062Y-34712942D01*
X54746259Y-34580636D01*
X54679000Y-34479975D01*
X54679000Y-29553598D01*
X57115556Y-27117042D01*
X57253800Y-27144540D01*
X57468314Y-27144540D01*
X57678707Y-27102690D01*
X57875670Y-27021105D01*
X64195097Y-27021105D01*
X64262077Y-27261196D01*
X64511105Y-27378296D01*
X64778192Y-27444563D01*
X65053074Y-27457450D01*
X65325190Y-27416462D01*
X65584080Y-27323176D01*
X65700037Y-27261196D01*
X65767017Y-27021105D01*
X64981057Y-26235145D01*
X64195097Y-27021105D01*
X57875670Y-27021105D01*
X57876892Y-27020599D01*
X58055254Y-26901421D01*
X58206938Y-26749737D01*
X58326116Y-26571375D01*
X58408207Y-26373190D01*
X58450057Y-26162797D01*
X58450057Y-26127557D01*
X63579147Y-26127557D01*
X63620135Y-26399673D01*
X63713421Y-26658563D01*
X63775401Y-26774520D01*
X64015492Y-26841500D01*
X64801452Y-26055540D01*
X65160662Y-26055540D01*
X65946622Y-26841500D01*
X66186713Y-26774520D01*
X66303813Y-26525492D01*
X66370080Y-26258405D01*
X66382967Y-25983523D01*
X66341979Y-25711407D01*
X66248693Y-25452517D01*
X66186713Y-25336560D01*
X65946622Y-25269580D01*
X65160662Y-26055540D01*
X64801452Y-26055540D01*
X64015492Y-25269580D01*
X63775401Y-25336560D01*
X63658301Y-25585588D01*
X63592034Y-25852675D01*
X63579147Y-26127557D01*
X58450057Y-26127557D01*
X58450057Y-25948283D01*
X58408207Y-25737890D01*
X58326116Y-25539705D01*
X58206938Y-25361343D01*
X58055254Y-25209659D01*
X57876892Y-25090481D01*
X57875671Y-25089975D01*
X64195097Y-25089975D01*
X64981057Y-25875935D01*
X65767017Y-25089975D01*
X65700037Y-24849884D01*
X65451009Y-24732784D01*
X65183922Y-24666517D01*
X64909040Y-24653630D01*
X64636924Y-24694618D01*
X64378034Y-24787904D01*
X64262077Y-24849884D01*
X64195097Y-25089975D01*
X57875671Y-25089975D01*
X57678707Y-25008390D01*
X57468314Y-24966540D01*
X57253800Y-24966540D01*
X57043407Y-25008390D01*
X56845222Y-25090481D01*
X56666860Y-25209659D01*
X56515176Y-25361343D01*
X56395998Y-25539705D01*
X56313907Y-25737890D01*
X56272057Y-25948283D01*
X56272057Y-26162797D01*
X56299555Y-26301041D01*
X53714034Y-28886562D01*
X53692027Y-28904623D01*
X53673966Y-28926630D01*
X53673963Y-28926633D01*
X53650840Y-28954809D01*
X53619922Y-28992482D01*
X53616654Y-28998597D01*
X53566344Y-29092721D01*
X53533349Y-29201486D01*
X53522210Y-29314597D01*
X53525001Y-29342938D01*
X53525000Y-34479975D01*
X53457741Y-34580636D01*
X53402938Y-34712942D01*
X53375000Y-34853397D01*
X52647000Y-34853397D01*
X52647000Y-32124834D01*
X52764197Y-32046525D01*
X52915881Y-31894841D01*
X53035059Y-31716479D01*
X53117150Y-31518294D01*
X53159000Y-31307901D01*
X53159000Y-31093387D01*
X53117150Y-30882994D01*
X53035059Y-30684809D01*
X52915881Y-30506447D01*
X52764197Y-30354763D01*
X52585835Y-30235585D01*
X52387650Y-30153494D01*
X52177257Y-30111644D01*
X51962743Y-30111644D01*
X51752350Y-30153494D01*
X51554165Y-30235585D01*
X51375803Y-30354763D01*
X51224119Y-30506447D01*
X51104941Y-30684809D01*
X51022850Y-30882994D01*
X50981000Y-31093387D01*
X50981000Y-31307901D01*
X51022850Y-31518294D01*
X51104941Y-31716479D01*
X51224119Y-31894841D01*
X51375803Y-32046525D01*
X51493000Y-32124834D01*
X51493001Y-40434998D01*
X40051513Y-51876486D01*
X39978688Y-51862000D01*
X39781312Y-51862000D01*
X39587727Y-51900507D01*
X39405375Y-51976039D01*
X39241262Y-52085696D01*
X39101696Y-52225262D01*
X38992039Y-52389375D01*
X38916507Y-52571727D01*
X38880000Y-52755257D01*
X38843493Y-52571727D01*
X38767961Y-52389375D01*
X38658304Y-52225262D01*
X38518738Y-52085696D01*
X38354625Y-51976039D01*
X38172273Y-51900507D01*
X37978688Y-51862000D01*
X37781312Y-51862000D01*
X37677314Y-51882687D01*
X47377962Y-42182039D01*
X47399974Y-42163974D01*
X47472079Y-42076115D01*
X47525657Y-41975876D01*
X47546992Y-41905544D01*
X47558651Y-41867112D01*
X47569791Y-41754000D01*
X47567000Y-41725661D01*
X47567000Y-32124834D01*
X47684197Y-32046525D01*
X47835881Y-31894841D01*
X47955059Y-31716479D01*
X48037150Y-31518294D01*
X48079000Y-31307901D01*
X48079000Y-31093387D01*
X48037150Y-30882994D01*
X47955059Y-30684809D01*
X47835881Y-30506447D01*
X47684197Y-30354763D01*
X47505835Y-30235585D01*
X47307650Y-30153494D01*
X47097257Y-30111644D01*
X46882743Y-30111644D01*
X46672350Y-30153494D01*
X46474165Y-30235585D01*
X46295803Y-30354763D01*
X46144119Y-30506447D01*
X46024941Y-30684809D01*
X45942850Y-30882994D01*
X45901000Y-31093387D01*
X45901000Y-31307901D01*
X45942850Y-31518294D01*
X46024941Y-31716479D01*
X46144119Y-31894841D01*
X46295803Y-32046525D01*
X46413000Y-32124834D01*
X46413001Y-41514998D01*
X36051513Y-51876486D01*
X35978688Y-51862000D01*
X35781312Y-51862000D01*
X35587727Y-51900507D01*
X35405375Y-51976039D01*
X35241262Y-52085696D01*
X35101696Y-52225262D01*
X34992039Y-52389375D01*
X34916507Y-52571727D01*
X34880000Y-52755257D01*
X34843493Y-52571727D01*
X34767961Y-52389375D01*
X34658304Y-52225262D01*
X34518738Y-52085696D01*
X34354625Y-51976039D01*
X34172273Y-51900507D01*
X33978688Y-51862000D01*
X33781312Y-51862000D01*
X33677314Y-51882687D01*
X42297969Y-43262033D01*
X42319974Y-43243974D01*
X42392079Y-43156115D01*
X42445657Y-43055876D01*
X42465744Y-42989659D01*
X42478651Y-42947112D01*
X42489790Y-42834001D01*
X42487000Y-42805670D01*
X42487000Y-32124834D01*
X42604197Y-32046525D01*
X42755881Y-31894841D01*
X42875059Y-31716479D01*
X42957150Y-31518294D01*
X42999000Y-31307901D01*
X42999000Y-31093387D01*
X42957150Y-30882994D01*
X42875059Y-30684809D01*
X42755881Y-30506447D01*
X42604197Y-30354763D01*
X42425835Y-30235585D01*
X42227650Y-30153494D01*
X42017257Y-30111644D01*
X41802743Y-30111644D01*
X41592350Y-30153494D01*
X41394165Y-30235585D01*
X41215803Y-30354763D01*
X41064119Y-30506447D01*
X40944941Y-30684809D01*
X40862850Y-30882994D01*
X40821000Y-31093387D01*
X40821000Y-31307901D01*
X40862850Y-31518294D01*
X40944941Y-31716479D01*
X41064119Y-31894841D01*
X41215803Y-32046525D01*
X41333001Y-32124834D01*
X41333000Y-42594998D01*
X32051513Y-51876486D01*
X31978688Y-51862000D01*
X31781312Y-51862000D01*
X31587727Y-51900507D01*
X31405375Y-51976039D01*
X31241262Y-52085696D01*
X31101696Y-52225262D01*
X30992039Y-52389375D01*
X30916507Y-52571727D01*
X30880000Y-52755257D01*
X30843493Y-52571727D01*
X30767961Y-52389375D01*
X30658304Y-52225262D01*
X30518738Y-52085696D01*
X30369090Y-51985704D01*
X38683972Y-43670822D01*
X38705984Y-43652757D01*
X38778089Y-43564898D01*
X38831667Y-43464659D01*
X38850477Y-43402650D01*
X38864661Y-43355895D01*
X38870373Y-43297897D01*
X38873010Y-43271119D01*
X38873010Y-43271114D01*
X38875800Y-43242783D01*
X38873010Y-43214452D01*
X38873010Y-32694982D01*
X38875800Y-32666653D01*
X38873010Y-32638324D01*
X38873010Y-32638318D01*
X38864660Y-32553542D01*
X38831667Y-32444778D01*
X38778089Y-32344539D01*
X38705984Y-32256680D01*
X38683978Y-32238620D01*
X37891502Y-31446144D01*
X37919000Y-31307901D01*
X37919000Y-31093387D01*
X37877150Y-30882994D01*
X37795059Y-30684809D01*
X37715435Y-30565643D01*
X37918998Y-30565643D01*
X38308498Y-30955144D01*
X38281000Y-31093387D01*
X38281000Y-31307901D01*
X38322850Y-31518294D01*
X38404941Y-31716479D01*
X38524119Y-31894841D01*
X38675803Y-32046525D01*
X38854165Y-32165703D01*
X39052350Y-32247794D01*
X39262743Y-32289644D01*
X39477257Y-32289644D01*
X39687650Y-32247794D01*
X39885835Y-32165703D01*
X40064197Y-32046525D01*
X40215881Y-31894841D01*
X40335059Y-31716479D01*
X40417150Y-31518294D01*
X40459000Y-31307901D01*
X40459000Y-31093387D01*
X40417150Y-30882994D01*
X40335059Y-30684809D01*
X40215881Y-30506447D01*
X40064197Y-30354763D01*
X39885835Y-30235585D01*
X39687650Y-30153494D01*
X39477257Y-30111644D01*
X39262743Y-30111644D01*
X39124500Y-30139142D01*
X38850990Y-29865633D01*
X42298988Y-29865633D01*
X43388498Y-30955143D01*
X43361000Y-31093387D01*
X43361000Y-31307901D01*
X43402850Y-31518294D01*
X43484941Y-31716479D01*
X43604119Y-31894841D01*
X43755803Y-32046525D01*
X43934165Y-32165703D01*
X44132350Y-32247794D01*
X44342743Y-32289644D01*
X44557257Y-32289644D01*
X44767650Y-32247794D01*
X44965835Y-32165703D01*
X45144197Y-32046525D01*
X45295881Y-31894841D01*
X45415059Y-31716479D01*
X45497150Y-31518294D01*
X45539000Y-31307901D01*
X45539000Y-31093387D01*
X45497150Y-30882994D01*
X45415059Y-30684809D01*
X45295881Y-30506447D01*
X45144197Y-30354763D01*
X44965835Y-30235585D01*
X44767650Y-30153494D01*
X44557257Y-30111644D01*
X44342743Y-30111644D01*
X44204499Y-30139142D01*
X43230980Y-29165623D01*
X46678978Y-29165623D01*
X48468498Y-30955143D01*
X48441000Y-31093387D01*
X48441000Y-31307901D01*
X48482850Y-31518294D01*
X48564941Y-31716479D01*
X48684119Y-31894841D01*
X48835803Y-32046525D01*
X49014165Y-32165703D01*
X49212350Y-32247794D01*
X49422743Y-32289644D01*
X49637257Y-32289644D01*
X49847650Y-32247794D01*
X50045835Y-32165703D01*
X50224197Y-32046525D01*
X50375881Y-31894841D01*
X50495059Y-31716479D01*
X50577150Y-31518294D01*
X50619000Y-31307901D01*
X50619000Y-31093387D01*
X50577150Y-30882994D01*
X50495059Y-30684809D01*
X50375881Y-30506447D01*
X50224197Y-30354763D01*
X50045835Y-30235585D01*
X49847650Y-30153494D01*
X49637257Y-30111644D01*
X49422743Y-30111644D01*
X49284499Y-30139142D01*
X47346018Y-28200661D01*
X47327953Y-28178649D01*
X47240094Y-28106544D01*
X47139855Y-28052966D01*
X47075749Y-28033520D01*
X47031090Y-28019972D01*
X46976024Y-28014549D01*
X46946315Y-28011623D01*
X46946310Y-28011623D01*
X46917979Y-28008833D01*
X46889648Y-28011623D01*
X29459814Y-28011623D01*
X29431485Y-28008833D01*
X29403156Y-28011623D01*
X29403150Y-28011623D01*
X29318374Y-28019973D01*
X29209610Y-28052966D01*
X29109371Y-28106544D01*
X29063466Y-28144218D01*
X29043521Y-28160586D01*
X29043519Y-28160588D01*
X29021512Y-28178649D01*
X29003451Y-28200656D01*
X22267007Y-34937101D01*
X22244995Y-34955166D01*
X22172890Y-35043026D01*
X22119312Y-35143265D01*
X22110288Y-35173014D01*
X22086318Y-35252029D01*
X22080794Y-35308123D01*
X22078150Y-35334974D01*
X22075179Y-35365140D01*
X20279000Y-35365140D01*
X20279000Y-23940207D01*
X22965000Y-23940207D01*
X22965000Y-24319793D01*
X23039053Y-24692085D01*
X23184315Y-25042777D01*
X23395201Y-25358391D01*
X23663609Y-25626799D01*
X23979223Y-25837685D01*
X24329915Y-25982947D01*
X24702207Y-26057000D01*
X25081793Y-26057000D01*
X25454085Y-25982947D01*
X25804777Y-25837685D01*
X26120391Y-25626799D01*
X26388799Y-25358391D01*
X26599685Y-25042777D01*
X26744947Y-24692085D01*
X26773963Y-24546209D01*
X30964040Y-24546209D01*
X31031020Y-24786300D01*
X31280048Y-24903400D01*
X31547135Y-24969667D01*
X31822017Y-24982554D01*
X32094133Y-24941566D01*
X32353023Y-24848280D01*
X32468980Y-24786300D01*
X32535960Y-24546209D01*
X31750000Y-23760249D01*
X30964040Y-24546209D01*
X26773963Y-24546209D01*
X26819000Y-24319793D01*
X26819000Y-23940207D01*
X26761804Y-23652661D01*
X30348090Y-23652661D01*
X30389078Y-23924777D01*
X30482364Y-24183667D01*
X30544344Y-24299624D01*
X30784435Y-24366604D01*
X31570395Y-23580644D01*
X31929605Y-23580644D01*
X32715565Y-24366604D01*
X32955656Y-24299624D01*
X33072756Y-24050596D01*
X33139023Y-23783509D01*
X33151910Y-23508627D01*
X33146602Y-23473387D01*
X33201000Y-23473387D01*
X33201000Y-23687901D01*
X33242850Y-23898294D01*
X33324941Y-24096479D01*
X33444119Y-24274841D01*
X33595803Y-24426525D01*
X33774165Y-24545703D01*
X33972350Y-24627794D01*
X34182743Y-24669644D01*
X34397257Y-24669644D01*
X34607650Y-24627794D01*
X34805835Y-24545703D01*
X34984197Y-24426525D01*
X35135881Y-24274841D01*
X35255059Y-24096479D01*
X35337150Y-23898294D01*
X35379000Y-23687901D01*
X35379000Y-23473387D01*
X35741000Y-23473387D01*
X35741000Y-23687901D01*
X35782850Y-23898294D01*
X35864941Y-24096479D01*
X35984119Y-24274841D01*
X36135803Y-24426525D01*
X36314165Y-24545703D01*
X36512350Y-24627794D01*
X36722743Y-24669644D01*
X36937257Y-24669644D01*
X37147650Y-24627794D01*
X37345835Y-24545703D01*
X37524197Y-24426525D01*
X37675881Y-24274841D01*
X37795059Y-24096479D01*
X37877150Y-23898294D01*
X37919000Y-23687901D01*
X37919000Y-23473387D01*
X38281000Y-23473387D01*
X38281000Y-23687901D01*
X38322850Y-23898294D01*
X38404941Y-24096479D01*
X38524119Y-24274841D01*
X38675803Y-24426525D01*
X38854165Y-24545703D01*
X39052350Y-24627794D01*
X39262743Y-24669644D01*
X39477257Y-24669644D01*
X39687650Y-24627794D01*
X39885835Y-24545703D01*
X40064197Y-24426525D01*
X40215881Y-24274841D01*
X40335059Y-24096479D01*
X40417150Y-23898294D01*
X40459000Y-23687901D01*
X40459000Y-23473387D01*
X40821000Y-23473387D01*
X40821000Y-23687901D01*
X40862850Y-23898294D01*
X40944941Y-24096479D01*
X41064119Y-24274841D01*
X41215803Y-24426525D01*
X41394165Y-24545703D01*
X41592350Y-24627794D01*
X41802743Y-24669644D01*
X42017257Y-24669644D01*
X42227650Y-24627794D01*
X42425835Y-24545703D01*
X42604197Y-24426525D01*
X42755881Y-24274841D01*
X42875059Y-24096479D01*
X42957150Y-23898294D01*
X42999000Y-23687901D01*
X42999000Y-23473387D01*
X43361000Y-23473387D01*
X43361000Y-23687901D01*
X43402850Y-23898294D01*
X43484941Y-24096479D01*
X43604119Y-24274841D01*
X43755803Y-24426525D01*
X43934165Y-24545703D01*
X44132350Y-24627794D01*
X44342743Y-24669644D01*
X44557257Y-24669644D01*
X44767650Y-24627794D01*
X44965835Y-24545703D01*
X45144197Y-24426525D01*
X45295881Y-24274841D01*
X45415059Y-24096479D01*
X45497150Y-23898294D01*
X45539000Y-23687901D01*
X45539000Y-23473387D01*
X45901000Y-23473387D01*
X45901000Y-23687901D01*
X45942850Y-23898294D01*
X46024941Y-24096479D01*
X46144119Y-24274841D01*
X46295803Y-24426525D01*
X46474165Y-24545703D01*
X46672350Y-24627794D01*
X46882743Y-24669644D01*
X47097257Y-24669644D01*
X47307650Y-24627794D01*
X47505835Y-24545703D01*
X47684197Y-24426525D01*
X47835881Y-24274841D01*
X47955059Y-24096479D01*
X48037150Y-23898294D01*
X48079000Y-23687901D01*
X48079000Y-23473387D01*
X48441000Y-23473387D01*
X48441000Y-23687901D01*
X48482850Y-23898294D01*
X48564941Y-24096479D01*
X48684119Y-24274841D01*
X48835803Y-24426525D01*
X49014165Y-24545703D01*
X49212350Y-24627794D01*
X49422743Y-24669644D01*
X49637257Y-24669644D01*
X49847650Y-24627794D01*
X50045835Y-24545703D01*
X50224197Y-24426525D01*
X50375881Y-24274841D01*
X50495059Y-24096479D01*
X50577150Y-23898294D01*
X50619000Y-23687901D01*
X50619000Y-23473387D01*
X50577150Y-23262994D01*
X50495059Y-23064809D01*
X50375881Y-22886447D01*
X50308078Y-22818644D01*
X50979418Y-22818644D01*
X50979418Y-24342644D01*
X50985732Y-24406747D01*
X51004430Y-24468387D01*
X51034794Y-24525194D01*
X51075657Y-24574987D01*
X51125450Y-24615850D01*
X51182257Y-24646214D01*
X51243897Y-24664912D01*
X51308000Y-24671226D01*
X52832000Y-24671226D01*
X52896103Y-24664912D01*
X52957743Y-24646214D01*
X53014550Y-24615850D01*
X53064343Y-24574987D01*
X53105206Y-24525194D01*
X53135570Y-24468387D01*
X53154268Y-24406747D01*
X53160582Y-24342644D01*
X53160582Y-22818644D01*
X53154268Y-22754541D01*
X53135570Y-22692901D01*
X53105206Y-22636094D01*
X53064343Y-22586301D01*
X53014550Y-22545438D01*
X52957743Y-22515074D01*
X52896103Y-22496376D01*
X52832000Y-22490062D01*
X51308000Y-22490062D01*
X51243897Y-22496376D01*
X51182257Y-22515074D01*
X51125450Y-22545438D01*
X51075657Y-22586301D01*
X51034794Y-22636094D01*
X51004430Y-22692901D01*
X50985732Y-22754541D01*
X50979418Y-22818644D01*
X50308078Y-22818644D01*
X50224197Y-22734763D01*
X50045835Y-22615585D01*
X49847650Y-22533494D01*
X49637257Y-22491644D01*
X49422743Y-22491644D01*
X49212350Y-22533494D01*
X49014165Y-22615585D01*
X48835803Y-22734763D01*
X48684119Y-22886447D01*
X48564941Y-23064809D01*
X48482850Y-23262994D01*
X48441000Y-23473387D01*
X48079000Y-23473387D01*
X48037150Y-23262994D01*
X47955059Y-23064809D01*
X47835881Y-22886447D01*
X47684197Y-22734763D01*
X47505835Y-22615585D01*
X47307650Y-22533494D01*
X47097257Y-22491644D01*
X46882743Y-22491644D01*
X46672350Y-22533494D01*
X46474165Y-22615585D01*
X46295803Y-22734763D01*
X46144119Y-22886447D01*
X46024941Y-23064809D01*
X45942850Y-23262994D01*
X45901000Y-23473387D01*
X45539000Y-23473387D01*
X45497150Y-23262994D01*
X45415059Y-23064809D01*
X45295881Y-22886447D01*
X45144197Y-22734763D01*
X44965835Y-22615585D01*
X44767650Y-22533494D01*
X44557257Y-22491644D01*
X44342743Y-22491644D01*
X44132350Y-22533494D01*
X43934165Y-22615585D01*
X43755803Y-22734763D01*
X43604119Y-22886447D01*
X43484941Y-23064809D01*
X43402850Y-23262994D01*
X43361000Y-23473387D01*
X42999000Y-23473387D01*
X42957150Y-23262994D01*
X42875059Y-23064809D01*
X42755881Y-22886447D01*
X42604197Y-22734763D01*
X42425835Y-22615585D01*
X42227650Y-22533494D01*
X42017257Y-22491644D01*
X41802743Y-22491644D01*
X41592350Y-22533494D01*
X41394165Y-22615585D01*
X41215803Y-22734763D01*
X41064119Y-22886447D01*
X40944941Y-23064809D01*
X40862850Y-23262994D01*
X40821000Y-23473387D01*
X40459000Y-23473387D01*
X40417150Y-23262994D01*
X40335059Y-23064809D01*
X40215881Y-22886447D01*
X40064197Y-22734763D01*
X39885835Y-22615585D01*
X39687650Y-22533494D01*
X39477257Y-22491644D01*
X39262743Y-22491644D01*
X39052350Y-22533494D01*
X38854165Y-22615585D01*
X38675803Y-22734763D01*
X38524119Y-22886447D01*
X38404941Y-23064809D01*
X38322850Y-23262994D01*
X38281000Y-23473387D01*
X37919000Y-23473387D01*
X37877150Y-23262994D01*
X37795059Y-23064809D01*
X37675881Y-22886447D01*
X37524197Y-22734763D01*
X37345835Y-22615585D01*
X37147650Y-22533494D01*
X36937257Y-22491644D01*
X36722743Y-22491644D01*
X36512350Y-22533494D01*
X36314165Y-22615585D01*
X36135803Y-22734763D01*
X35984119Y-22886447D01*
X35864941Y-23064809D01*
X35782850Y-23262994D01*
X35741000Y-23473387D01*
X35379000Y-23473387D01*
X35337150Y-23262994D01*
X35255059Y-23064809D01*
X35135881Y-22886447D01*
X34984197Y-22734763D01*
X34805835Y-22615585D01*
X34607650Y-22533494D01*
X34397257Y-22491644D01*
X34182743Y-22491644D01*
X33972350Y-22533494D01*
X33774165Y-22615585D01*
X33595803Y-22734763D01*
X33444119Y-22886447D01*
X33324941Y-23064809D01*
X33242850Y-23262994D01*
X33201000Y-23473387D01*
X33146602Y-23473387D01*
X33110922Y-23236511D01*
X33017636Y-22977621D01*
X32955656Y-22861664D01*
X32715565Y-22794684D01*
X31929605Y-23580644D01*
X31570395Y-23580644D01*
X30784435Y-22794684D01*
X30544344Y-22861664D01*
X30427244Y-23110692D01*
X30360977Y-23377779D01*
X30348090Y-23652661D01*
X26761804Y-23652661D01*
X26744947Y-23567915D01*
X26599685Y-23217223D01*
X26388799Y-22901609D01*
X26120391Y-22633201D01*
X26093270Y-22615079D01*
X30964040Y-22615079D01*
X31750000Y-23401039D01*
X32535960Y-22615079D01*
X32468980Y-22374988D01*
X32219952Y-22257888D01*
X31952865Y-22191621D01*
X31677983Y-22178734D01*
X31405867Y-22219722D01*
X31146977Y-22313008D01*
X31031020Y-22374988D01*
X30964040Y-22615079D01*
X26093270Y-22615079D01*
X25804777Y-22422315D01*
X25454085Y-22277053D01*
X25081793Y-22203000D01*
X24702207Y-22203000D01*
X24329915Y-22277053D01*
X23979223Y-22422315D01*
X23663609Y-22633201D01*
X23395201Y-22901609D01*
X23184315Y-23217223D01*
X23039053Y-23567915D01*
X22965000Y-23940207D01*
X20279000Y-23940207D01*
X20279000Y-20279000D01*
X69721000Y-20279000D01*
X69721001Y-59721000D01*
G37*
%TD.AperFunction*%
D20*
X35864941Y-30684809D02*
X35782850Y-30882994D01*
X35741000Y-31093387D01*
X35741000Y-31307901D01*
X35782850Y-31518294D01*
X35864941Y-31716479D01*
X35984119Y-31894841D01*
X36135803Y-32046525D01*
X36314165Y-32165703D01*
X36512350Y-32247794D01*
X36722743Y-32289644D01*
X36937257Y-32289644D01*
X37075500Y-32262146D01*
X37719010Y-32905656D01*
X37719011Y-43003781D01*
X29560793Y-51161999D01*
X29033340Y-51161999D01*
X29005001Y-51159208D01*
X28891889Y-51170348D01*
X28827783Y-51189795D01*
X28783125Y-51203342D01*
X28682886Y-51256920D01*
X28595027Y-51329025D01*
X28576964Y-51351035D01*
X28051513Y-51876486D01*
X27978688Y-51862000D01*
X27781312Y-51862000D01*
X27587727Y-51900507D01*
X27405375Y-51976039D01*
X27241262Y-52085696D01*
X27101696Y-52225262D01*
X26992039Y-52389375D01*
X26916507Y-52571727D01*
X26880000Y-52755257D01*
X26843493Y-52571727D01*
X26767961Y-52389375D01*
X26658304Y-52225262D01*
X26518738Y-52085696D01*
X26354625Y-51976039D01*
X26172273Y-51900507D01*
X25978688Y-51862000D01*
X25781312Y-51862000D01*
X25587727Y-51900507D01*
X25405375Y-51976039D01*
X25331999Y-52025067D01*
X25331999Y-50358343D01*
X25436636Y-50428259D01*
X25568942Y-50483062D01*
X25709397Y-50511000D01*
X25852603Y-50511000D01*
X25993058Y-50483062D01*
X26125364Y-50428259D01*
X26244436Y-50348698D01*
X26345698Y-50247436D01*
X26425259Y-50128364D01*
X26480062Y-49996058D01*
X26508000Y-49855603D01*
X26508000Y-49712397D01*
X26480062Y-49571942D01*
X26425259Y-49439636D01*
X26345698Y-49320564D01*
X26244436Y-49219302D01*
X26125364Y-49139741D01*
X25993058Y-49084938D01*
X25852603Y-49057000D01*
X25833001Y-49057000D01*
X25833001Y-47817531D01*
X25919706Y-47904236D01*
X26112481Y-48033044D01*
X26326682Y-48121769D01*
X26554076Y-48167000D01*
X26785924Y-48167000D01*
X27013318Y-48121769D01*
X27227519Y-48033044D01*
X27420294Y-47904236D01*
X27584236Y-47740294D01*
X27713044Y-47547519D01*
X27801769Y-47333318D01*
X27847000Y-47105924D01*
X27847000Y-46874076D01*
X29303000Y-46874076D01*
X29303000Y-47105924D01*
X29348231Y-47333318D01*
X29436956Y-47547519D01*
X29565764Y-47740294D01*
X29729706Y-47904236D01*
X29922481Y-48033044D01*
X30136682Y-48121769D01*
X30364076Y-48167000D01*
X30595924Y-48167000D01*
X30823318Y-48121769D01*
X31037519Y-48033044D01*
X31230294Y-47904236D01*
X31394236Y-47740294D01*
X31523044Y-47547519D01*
X31611769Y-47333318D01*
X31657000Y-47105924D01*
X31657000Y-46874076D01*
X31611769Y-46646682D01*
X31523044Y-46432481D01*
X31394236Y-46239706D01*
X31230294Y-46075764D01*
X31037519Y-45946956D01*
X30823318Y-45858231D01*
X30595924Y-45813000D01*
X30364076Y-45813000D01*
X30136682Y-45858231D01*
X29922481Y-45946956D01*
X29729706Y-46075764D01*
X29565764Y-46239706D01*
X29436956Y-46432481D01*
X29348231Y-46646682D01*
X29303000Y-46874076D01*
X27847000Y-46874076D01*
X27801769Y-46646682D01*
X27713044Y-46432481D01*
X27584236Y-46239706D01*
X27420294Y-46075764D01*
X27227519Y-45946956D01*
X27013318Y-45858231D01*
X26785924Y-45813000D01*
X26554076Y-45813000D01*
X26326682Y-45858231D01*
X26112481Y-45946956D01*
X25919706Y-46075764D01*
X25833001Y-46162469D01*
X25833001Y-45277531D01*
X25919706Y-45364236D01*
X26112481Y-45493044D01*
X26326682Y-45581769D01*
X26554076Y-45627000D01*
X26785924Y-45627000D01*
X27013318Y-45581769D01*
X27227519Y-45493044D01*
X27420294Y-45364236D01*
X27584236Y-45200294D01*
X27713044Y-45007519D01*
X27801769Y-44793318D01*
X27847000Y-44565924D01*
X27847000Y-44334076D01*
X27801769Y-44106682D01*
X27713044Y-43892481D01*
X27584236Y-43699706D01*
X27420294Y-43535764D01*
X27227519Y-43406956D01*
X27062821Y-43338736D01*
X27301252Y-43254157D01*
X27551355Y-43105178D01*
X27767588Y-42910269D01*
X27941641Y-42676920D01*
X28066825Y-42414099D01*
X28111476Y-42266890D01*
X29038524Y-42266890D01*
X29083175Y-42414099D01*
X29208359Y-42676920D01*
X29382412Y-42910269D01*
X29598645Y-43105178D01*
X29848748Y-43254157D01*
X30087179Y-43338736D01*
X29922481Y-43406956D01*
X29729706Y-43535764D01*
X29565764Y-43699706D01*
X29436956Y-43892481D01*
X29348231Y-44106682D01*
X29303000Y-44334076D01*
X29303000Y-44565924D01*
X29348231Y-44793318D01*
X29436956Y-45007519D01*
X29565764Y-45200294D01*
X29729706Y-45364236D01*
X29922481Y-45493044D01*
X30136682Y-45581769D01*
X30364076Y-45627000D01*
X30595924Y-45627000D01*
X30823318Y-45581769D01*
X31037519Y-45493044D01*
X31230294Y-45364236D01*
X31394236Y-45200294D01*
X31523044Y-45007519D01*
X31611769Y-44793318D01*
X31657000Y-44565924D01*
X31657000Y-44334076D01*
X31611769Y-44106682D01*
X31523044Y-43892481D01*
X31394236Y-43699706D01*
X31230294Y-43535764D01*
X31037519Y-43406956D01*
X30872821Y-43338736D01*
X31111252Y-43254157D01*
X31361355Y-43105178D01*
X31577588Y-42910269D01*
X31751641Y-42676920D01*
X31876825Y-42414099D01*
X31921476Y-42266890D01*
X31800155Y-42037000D01*
X30607000Y-42037000D01*
X30607000Y-42057000D01*
X30353000Y-42057000D01*
X30353000Y-42037000D01*
X29159845Y-42037000D01*
X29038524Y-42266890D01*
X28111476Y-42266890D01*
X27990155Y-42037000D01*
X26797000Y-42037000D01*
X26797000Y-42057000D01*
X26543000Y-42057000D01*
X26543000Y-42037000D01*
X26523000Y-42037000D01*
X26523000Y-41783000D01*
X26543000Y-41783000D01*
X26543000Y-41763000D01*
X26797000Y-41763000D01*
X26797000Y-41783000D01*
X27990155Y-41783000D01*
X28111476Y-41553110D01*
X29038524Y-41553110D01*
X29159845Y-41783000D01*
X30353000Y-41783000D01*
X30353000Y-41763000D01*
X30607000Y-41763000D01*
X30607000Y-41783000D01*
X31800155Y-41783000D01*
X31921476Y-41553110D01*
X31876825Y-41405901D01*
X31751641Y-41143080D01*
X31577588Y-40909731D01*
X31361355Y-40714822D01*
X31111252Y-40565843D01*
X30872821Y-40481264D01*
X31037519Y-40413044D01*
X31230294Y-40284236D01*
X31394236Y-40120294D01*
X31523044Y-39927519D01*
X31611769Y-39713318D01*
X31657000Y-39485924D01*
X31657000Y-39254076D01*
X31611769Y-39026682D01*
X31523044Y-38812481D01*
X31394236Y-38619706D01*
X31230294Y-38455764D01*
X31037519Y-38326956D01*
X30823318Y-38238231D01*
X30595924Y-38193000D01*
X30364076Y-38193000D01*
X30136682Y-38238231D01*
X29922481Y-38326956D01*
X29729706Y-38455764D01*
X29565764Y-38619706D01*
X29436956Y-38812481D01*
X29348231Y-39026682D01*
X29303000Y-39254076D01*
X29303000Y-39485924D01*
X29348231Y-39713318D01*
X29436956Y-39927519D01*
X29565764Y-40120294D01*
X29729706Y-40284236D01*
X29922481Y-40413044D01*
X30087179Y-40481264D01*
X29848748Y-40565843D01*
X29598645Y-40714822D01*
X29382412Y-40909731D01*
X29208359Y-41143080D01*
X29083175Y-41405901D01*
X29038524Y-41553110D01*
X28111476Y-41553110D01*
X28066825Y-41405901D01*
X27941641Y-41143080D01*
X27767588Y-40909731D01*
X27551355Y-40714822D01*
X27301252Y-40565843D01*
X27062821Y-40481264D01*
X27227519Y-40413044D01*
X27420294Y-40284236D01*
X27584236Y-40120294D01*
X27713044Y-39927519D01*
X27801769Y-39713318D01*
X27847000Y-39485924D01*
X27847000Y-39254076D01*
X27801769Y-39026682D01*
X27713044Y-38812481D01*
X27584236Y-38619706D01*
X27420294Y-38455764D01*
X27227519Y-38326956D01*
X27013318Y-38238231D01*
X26785924Y-38193000D01*
X26554076Y-38193000D01*
X26326682Y-38238231D01*
X26112481Y-38326956D01*
X25919706Y-38455764D01*
X25833001Y-38542469D01*
X25833001Y-38306222D01*
X26130641Y-38008582D01*
X27520000Y-38008582D01*
X27584103Y-38002268D01*
X27645743Y-37983570D01*
X27702550Y-37953206D01*
X27752343Y-37912343D01*
X27793206Y-37862550D01*
X27823570Y-37805743D01*
X27842268Y-37744103D01*
X27848582Y-37680000D01*
X27848582Y-36106999D01*
X29241668Y-36106999D01*
X29269999Y-36109789D01*
X29298330Y-36106999D01*
X29298335Y-36106999D01*
X29301418Y-36106695D01*
X29301418Y-37680000D01*
X29307732Y-37744103D01*
X29326430Y-37805743D01*
X29356794Y-37862550D01*
X29397657Y-37912343D01*
X29447450Y-37953206D01*
X29504257Y-37983570D01*
X29565897Y-38002268D01*
X29630000Y-38008582D01*
X31330000Y-38008582D01*
X31394103Y-38002268D01*
X31455743Y-37983570D01*
X31512550Y-37953206D01*
X31562343Y-37912343D01*
X31603206Y-37862550D01*
X31633570Y-37805743D01*
X31652268Y-37744103D01*
X31658582Y-37680000D01*
X31658582Y-35980000D01*
X31652268Y-35915897D01*
X31633570Y-35854257D01*
X31603206Y-35797450D01*
X31562343Y-35747657D01*
X31512550Y-35706794D01*
X31455743Y-35676430D01*
X31394103Y-35657732D01*
X31330000Y-35651418D01*
X29964581Y-35651418D01*
X33582639Y-32033361D01*
X33595803Y-32046525D01*
X33774165Y-32165703D01*
X33972350Y-32247794D01*
X34182743Y-32289644D01*
X34397257Y-32289644D01*
X34607650Y-32247794D01*
X34805835Y-32165703D01*
X34984197Y-32046525D01*
X35135881Y-31894841D01*
X35255059Y-31716479D01*
X35337150Y-31518294D01*
X35379000Y-31307901D01*
X35379000Y-31093387D01*
X35337150Y-30882994D01*
X35255059Y-30684809D01*
X35175435Y-30565643D01*
X35944565Y-30565643D01*
X35864941Y-30684809D01*
%TA.AperFunction,Conductor*%
D21*
G36*
X35864941Y-30684809D02*
G01*
X35782850Y-30882994D01*
X35741000Y-31093387D01*
X35741000Y-31307901D01*
X35782850Y-31518294D01*
X35864941Y-31716479D01*
X35984119Y-31894841D01*
X36135803Y-32046525D01*
X36314165Y-32165703D01*
X36512350Y-32247794D01*
X36722743Y-32289644D01*
X36937257Y-32289644D01*
X37075500Y-32262146D01*
X37719010Y-32905656D01*
X37719011Y-43003781D01*
X29560793Y-51161999D01*
X29033340Y-51161999D01*
X29005001Y-51159208D01*
X28891889Y-51170348D01*
X28827783Y-51189795D01*
X28783125Y-51203342D01*
X28682886Y-51256920D01*
X28595027Y-51329025D01*
X28576964Y-51351035D01*
X28051513Y-51876486D01*
X27978688Y-51862000D01*
X27781312Y-51862000D01*
X27587727Y-51900507D01*
X27405375Y-51976039D01*
X27241262Y-52085696D01*
X27101696Y-52225262D01*
X26992039Y-52389375D01*
X26916507Y-52571727D01*
X26880000Y-52755257D01*
X26843493Y-52571727D01*
X26767961Y-52389375D01*
X26658304Y-52225262D01*
X26518738Y-52085696D01*
X26354625Y-51976039D01*
X26172273Y-51900507D01*
X25978688Y-51862000D01*
X25781312Y-51862000D01*
X25587727Y-51900507D01*
X25405375Y-51976039D01*
X25331999Y-52025067D01*
X25331999Y-50358343D01*
X25436636Y-50428259D01*
X25568942Y-50483062D01*
X25709397Y-50511000D01*
X25852603Y-50511000D01*
X25993058Y-50483062D01*
X26125364Y-50428259D01*
X26244436Y-50348698D01*
X26345698Y-50247436D01*
X26425259Y-50128364D01*
X26480062Y-49996058D01*
X26508000Y-49855603D01*
X26508000Y-49712397D01*
X26480062Y-49571942D01*
X26425259Y-49439636D01*
X26345698Y-49320564D01*
X26244436Y-49219302D01*
X26125364Y-49139741D01*
X25993058Y-49084938D01*
X25852603Y-49057000D01*
X25833001Y-49057000D01*
X25833001Y-47817531D01*
X25919706Y-47904236D01*
X26112481Y-48033044D01*
X26326682Y-48121769D01*
X26554076Y-48167000D01*
X26785924Y-48167000D01*
X27013318Y-48121769D01*
X27227519Y-48033044D01*
X27420294Y-47904236D01*
X27584236Y-47740294D01*
X27713044Y-47547519D01*
X27801769Y-47333318D01*
X27847000Y-47105924D01*
X27847000Y-46874076D01*
X29303000Y-46874076D01*
X29303000Y-47105924D01*
X29348231Y-47333318D01*
X29436956Y-47547519D01*
X29565764Y-47740294D01*
X29729706Y-47904236D01*
X29922481Y-48033044D01*
X30136682Y-48121769D01*
X30364076Y-48167000D01*
X30595924Y-48167000D01*
X30823318Y-48121769D01*
X31037519Y-48033044D01*
X31230294Y-47904236D01*
X31394236Y-47740294D01*
X31523044Y-47547519D01*
X31611769Y-47333318D01*
X31657000Y-47105924D01*
X31657000Y-46874076D01*
X31611769Y-46646682D01*
X31523044Y-46432481D01*
X31394236Y-46239706D01*
X31230294Y-46075764D01*
X31037519Y-45946956D01*
X30823318Y-45858231D01*
X30595924Y-45813000D01*
X30364076Y-45813000D01*
X30136682Y-45858231D01*
X29922481Y-45946956D01*
X29729706Y-46075764D01*
X29565764Y-46239706D01*
X29436956Y-46432481D01*
X29348231Y-46646682D01*
X29303000Y-46874076D01*
X27847000Y-46874076D01*
X27801769Y-46646682D01*
X27713044Y-46432481D01*
X27584236Y-46239706D01*
X27420294Y-46075764D01*
X27227519Y-45946956D01*
X27013318Y-45858231D01*
X26785924Y-45813000D01*
X26554076Y-45813000D01*
X26326682Y-45858231D01*
X26112481Y-45946956D01*
X25919706Y-46075764D01*
X25833001Y-46162469D01*
X25833001Y-45277531D01*
X25919706Y-45364236D01*
X26112481Y-45493044D01*
X26326682Y-45581769D01*
X26554076Y-45627000D01*
X26785924Y-45627000D01*
X27013318Y-45581769D01*
X27227519Y-45493044D01*
X27420294Y-45364236D01*
X27584236Y-45200294D01*
X27713044Y-45007519D01*
X27801769Y-44793318D01*
X27847000Y-44565924D01*
X27847000Y-44334076D01*
X27801769Y-44106682D01*
X27713044Y-43892481D01*
X27584236Y-43699706D01*
X27420294Y-43535764D01*
X27227519Y-43406956D01*
X27062821Y-43338736D01*
X27301252Y-43254157D01*
X27551355Y-43105178D01*
X27767588Y-42910269D01*
X27941641Y-42676920D01*
X28066825Y-42414099D01*
X28111476Y-42266890D01*
X29038524Y-42266890D01*
X29083175Y-42414099D01*
X29208359Y-42676920D01*
X29382412Y-42910269D01*
X29598645Y-43105178D01*
X29848748Y-43254157D01*
X30087179Y-43338736D01*
X29922481Y-43406956D01*
X29729706Y-43535764D01*
X29565764Y-43699706D01*
X29436956Y-43892481D01*
X29348231Y-44106682D01*
X29303000Y-44334076D01*
X29303000Y-44565924D01*
X29348231Y-44793318D01*
X29436956Y-45007519D01*
X29565764Y-45200294D01*
X29729706Y-45364236D01*
X29922481Y-45493044D01*
X30136682Y-45581769D01*
X30364076Y-45627000D01*
X30595924Y-45627000D01*
X30823318Y-45581769D01*
X31037519Y-45493044D01*
X31230294Y-45364236D01*
X31394236Y-45200294D01*
X31523044Y-45007519D01*
X31611769Y-44793318D01*
X31657000Y-44565924D01*
X31657000Y-44334076D01*
X31611769Y-44106682D01*
X31523044Y-43892481D01*
X31394236Y-43699706D01*
X31230294Y-43535764D01*
X31037519Y-43406956D01*
X30872821Y-43338736D01*
X31111252Y-43254157D01*
X31361355Y-43105178D01*
X31577588Y-42910269D01*
X31751641Y-42676920D01*
X31876825Y-42414099D01*
X31921476Y-42266890D01*
X31800155Y-42037000D01*
X30607000Y-42037000D01*
X30607000Y-42057000D01*
X30353000Y-42057000D01*
X30353000Y-42037000D01*
X29159845Y-42037000D01*
X29038524Y-42266890D01*
X28111476Y-42266890D01*
X27990155Y-42037000D01*
X26797000Y-42037000D01*
X26797000Y-42057000D01*
X26543000Y-42057000D01*
X26543000Y-42037000D01*
X26523000Y-42037000D01*
X26523000Y-41783000D01*
X26543000Y-41783000D01*
X26543000Y-41763000D01*
X26797000Y-41763000D01*
X26797000Y-41783000D01*
X27990155Y-41783000D01*
X28111476Y-41553110D01*
X29038524Y-41553110D01*
X29159845Y-41783000D01*
X30353000Y-41783000D01*
X30353000Y-41763000D01*
X30607000Y-41763000D01*
X30607000Y-41783000D01*
X31800155Y-41783000D01*
X31921476Y-41553110D01*
X31876825Y-41405901D01*
X31751641Y-41143080D01*
X31577588Y-40909731D01*
X31361355Y-40714822D01*
X31111252Y-40565843D01*
X30872821Y-40481264D01*
X31037519Y-40413044D01*
X31230294Y-40284236D01*
X31394236Y-40120294D01*
X31523044Y-39927519D01*
X31611769Y-39713318D01*
X31657000Y-39485924D01*
X31657000Y-39254076D01*
X31611769Y-39026682D01*
X31523044Y-38812481D01*
X31394236Y-38619706D01*
X31230294Y-38455764D01*
X31037519Y-38326956D01*
X30823318Y-38238231D01*
X30595924Y-38193000D01*
X30364076Y-38193000D01*
X30136682Y-38238231D01*
X29922481Y-38326956D01*
X29729706Y-38455764D01*
X29565764Y-38619706D01*
X29436956Y-38812481D01*
X29348231Y-39026682D01*
X29303000Y-39254076D01*
X29303000Y-39485924D01*
X29348231Y-39713318D01*
X29436956Y-39927519D01*
X29565764Y-40120294D01*
X29729706Y-40284236D01*
X29922481Y-40413044D01*
X30087179Y-40481264D01*
X29848748Y-40565843D01*
X29598645Y-40714822D01*
X29382412Y-40909731D01*
X29208359Y-41143080D01*
X29083175Y-41405901D01*
X29038524Y-41553110D01*
X28111476Y-41553110D01*
X28066825Y-41405901D01*
X27941641Y-41143080D01*
X27767588Y-40909731D01*
X27551355Y-40714822D01*
X27301252Y-40565843D01*
X27062821Y-40481264D01*
X27227519Y-40413044D01*
X27420294Y-40284236D01*
X27584236Y-40120294D01*
X27713044Y-39927519D01*
X27801769Y-39713318D01*
X27847000Y-39485924D01*
X27847000Y-39254076D01*
X27801769Y-39026682D01*
X27713044Y-38812481D01*
X27584236Y-38619706D01*
X27420294Y-38455764D01*
X27227519Y-38326956D01*
X27013318Y-38238231D01*
X26785924Y-38193000D01*
X26554076Y-38193000D01*
X26326682Y-38238231D01*
X26112481Y-38326956D01*
X25919706Y-38455764D01*
X25833001Y-38542469D01*
X25833001Y-38306222D01*
X26130641Y-38008582D01*
X27520000Y-38008582D01*
X27584103Y-38002268D01*
X27645743Y-37983570D01*
X27702550Y-37953206D01*
X27752343Y-37912343D01*
X27793206Y-37862550D01*
X27823570Y-37805743D01*
X27842268Y-37744103D01*
X27848582Y-37680000D01*
X27848582Y-36106999D01*
X29241668Y-36106999D01*
X29269999Y-36109789D01*
X29298330Y-36106999D01*
X29298335Y-36106999D01*
X29301418Y-36106695D01*
X29301418Y-37680000D01*
X29307732Y-37744103D01*
X29326430Y-37805743D01*
X29356794Y-37862550D01*
X29397657Y-37912343D01*
X29447450Y-37953206D01*
X29504257Y-37983570D01*
X29565897Y-38002268D01*
X29630000Y-38008582D01*
X31330000Y-38008582D01*
X31394103Y-38002268D01*
X31455743Y-37983570D01*
X31512550Y-37953206D01*
X31562343Y-37912343D01*
X31603206Y-37862550D01*
X31633570Y-37805743D01*
X31652268Y-37744103D01*
X31658582Y-37680000D01*
X31658582Y-35980000D01*
X31652268Y-35915897D01*
X31633570Y-35854257D01*
X31603206Y-35797450D01*
X31562343Y-35747657D01*
X31512550Y-35706794D01*
X31455743Y-35676430D01*
X31394103Y-35657732D01*
X31330000Y-35651418D01*
X29964581Y-35651418D01*
X33582639Y-32033361D01*
X33595803Y-32046525D01*
X33774165Y-32165703D01*
X33972350Y-32247794D01*
X34182743Y-32289644D01*
X34397257Y-32289644D01*
X34607650Y-32247794D01*
X34805835Y-32165703D01*
X34984197Y-32046525D01*
X35135881Y-31894841D01*
X35255059Y-31716479D01*
X35337150Y-31518294D01*
X35379000Y-31307901D01*
X35379000Y-31093387D01*
X35337150Y-30882994D01*
X35255059Y-30684809D01*
X35175435Y-30565643D01*
X35944565Y-30565643D01*
X35864941Y-30684809D01*
G37*
%TD.AperFunction*%
%TD*%
M02*
