%TF.GenerationSoftware,KiCad,Pcbnew,5.1.10-88a1d61d58~90~ubuntu20.04.1*%
%TF.CreationDate,2021-11-15T16:44:40-05:00*%
%TF.ProjectId,pcb-controller,7063622d-636f-46e7-9472-6f6c6c65722e,rev?*%
%TF.SameCoordinates,Original*%
%TF.FileFunction,Copper,L1,Top*%
%TF.FilePolarity,Positive*%
%FSLAX46Y46*%
G04 Gerber Fmt 4.6, Leading zero omitted, Abs format (unit mm)*
G04 Created by KiCad (PCBNEW 5.1.10-88a1d61d58~90~ubuntu20.04.1) date 2021-11-15 16:44:40*
%MOMM*%
%LPD*%
G01*
G04 APERTURE LIST*
%TA.AperFunction,ComponentPad*%
%ADD10O,1.700000X1.700000*%
%TD*%
%TA.AperFunction,ComponentPad*%
%ADD11R,1.700000X1.700000*%
%TD*%
%TA.AperFunction,ComponentPad*%
%ADD12C,1.524000*%
%TD*%
%TA.AperFunction,ComponentPad*%
%ADD13R,1.524000X1.524000*%
%TD*%
%TA.AperFunction,SMDPad,CuDef*%
%ADD14C,0.100000*%
%TD*%
%TA.AperFunction,SMDPad,CuDef*%
%ADD15R,4.100000X4.100000*%
%TD*%
%TA.AperFunction,ViaPad*%
%ADD16C,0.400000*%
%TD*%
%TA.AperFunction,ViaPad*%
%ADD17C,0.800000*%
%TD*%
%TA.AperFunction,Conductor*%
%ADD18C,0.250000*%
%TD*%
%TA.AperFunction,Conductor*%
%ADD19C,0.500000*%
%TD*%
%TA.AperFunction,Conductor*%
%ADD20C,0.127000*%
%TD*%
%TA.AperFunction,Conductor*%
%ADD21C,0.150000*%
%TD*%
%TA.AperFunction,Conductor*%
%ADD22C,0.100000*%
%TD*%
G04 APERTURE END LIST*
D10*
%TO.P,J3,16*%
%TO.N,Net-(CR2-Pad11)*%
X22352000Y-53848000D03*
%TO.P,J3,15*%
%TO.N,Net-(CR2-Pad12)*%
X24892000Y-53848000D03*
%TO.P,J3,14*%
%TO.N,Net-(CR2-Pad13)*%
X27432000Y-53848000D03*
%TO.P,J3,13*%
%TO.N,Net-(CR2-Pad14)*%
X29972000Y-53848000D03*
%TO.P,J3,12*%
%TO.N,Net-(CR2-Pad15)*%
X32512000Y-53848000D03*
%TO.P,J3,11*%
%TO.N,Net-(CR2-Pad16)*%
X35052000Y-53848000D03*
%TO.P,J3,10*%
%TO.N,Net-(CR2-Pad17)*%
X37592000Y-53848000D03*
%TO.P,J3,9*%
%TO.N,Net-(CR2-Pad18)*%
X40132000Y-53848000D03*
%TO.P,J3,8*%
%TO.N,Net-(CR1-Pad11)*%
X42672000Y-53848000D03*
%TO.P,J3,7*%
%TO.N,Net-(CR1-Pad12)*%
X45212000Y-53848000D03*
%TO.P,J3,6*%
%TO.N,Net-(CR1-Pad13)*%
X47752000Y-53848000D03*
%TO.P,J3,5*%
%TO.N,Net-(CR1-Pad14)*%
X50292000Y-53848000D03*
%TO.P,J3,4*%
%TO.N,Net-(CR1-Pad15)*%
X52832000Y-53848000D03*
%TO.P,J3,3*%
%TO.N,Net-(CR1-Pad16)*%
X55372000Y-53848000D03*
%TO.P,J3,2*%
%TO.N,Net-(CR1-Pad17)*%
X57912000Y-53848000D03*
D11*
%TO.P,J3,1*%
%TO.N,Net-(CR1-Pad18)*%
X60452000Y-53848000D03*
%TD*%
%TO.P,C5,2*%
%TO.N,GND*%
%TA.AperFunction,SMDPad,CuDef*%
G36*
G01*
X28415000Y-28694000D02*
X27465000Y-28694000D01*
G75*
G02*
X27215000Y-28444000I0J250000D01*
G01*
X27215000Y-27944000D01*
G75*
G02*
X27465000Y-27694000I250000J0D01*
G01*
X28415000Y-27694000D01*
G75*
G02*
X28665000Y-27944000I0J-250000D01*
G01*
X28665000Y-28444000D01*
G75*
G02*
X28415000Y-28694000I-250000J0D01*
G01*
G37*
%TD.AperFunction*%
%TO.P,C5,1*%
%TO.N,+12V*%
%TA.AperFunction,SMDPad,CuDef*%
G36*
G01*
X28415000Y-30594000D02*
X27465000Y-30594000D01*
G75*
G02*
X27215000Y-30344000I0J250000D01*
G01*
X27215000Y-29844000D01*
G75*
G02*
X27465000Y-29594000I250000J0D01*
G01*
X28415000Y-29594000D01*
G75*
G02*
X28665000Y-29844000I0J-250000D01*
G01*
X28665000Y-30344000D01*
G75*
G02*
X28415000Y-30594000I-250000J0D01*
G01*
G37*
%TD.AperFunction*%
%TD*%
%TO.P,C4,2*%
%TO.N,GND*%
%TA.AperFunction,SMDPad,CuDef*%
G36*
G01*
X60013000Y-22319000D02*
X60013000Y-21369000D01*
G75*
G02*
X60263000Y-21119000I250000J0D01*
G01*
X60763000Y-21119000D01*
G75*
G02*
X61013000Y-21369000I0J-250000D01*
G01*
X61013000Y-22319000D01*
G75*
G02*
X60763000Y-22569000I-250000J0D01*
G01*
X60263000Y-22569000D01*
G75*
G02*
X60013000Y-22319000I0J250000D01*
G01*
G37*
%TD.AperFunction*%
%TO.P,C4,1*%
%TO.N,+12V*%
%TA.AperFunction,SMDPad,CuDef*%
G36*
G01*
X58113000Y-22319000D02*
X58113000Y-21369000D01*
G75*
G02*
X58363000Y-21119000I250000J0D01*
G01*
X58863000Y-21119000D01*
G75*
G02*
X59113000Y-21369000I0J-250000D01*
G01*
X59113000Y-22319000D01*
G75*
G02*
X58863000Y-22569000I-250000J0D01*
G01*
X58363000Y-22569000D01*
G75*
G02*
X58113000Y-22319000I0J250000D01*
G01*
G37*
%TD.AperFunction*%
%TD*%
%TO.P,C3,2*%
%TO.N,GND*%
%TA.AperFunction,SMDPad,CuDef*%
G36*
G01*
X32001000Y-49436000D02*
X32001000Y-50386000D01*
G75*
G02*
X31751000Y-50636000I-250000J0D01*
G01*
X31251000Y-50636000D01*
G75*
G02*
X31001000Y-50386000I0J250000D01*
G01*
X31001000Y-49436000D01*
G75*
G02*
X31251000Y-49186000I250000J0D01*
G01*
X31751000Y-49186000D01*
G75*
G02*
X32001000Y-49436000I0J-250000D01*
G01*
G37*
%TD.AperFunction*%
%TO.P,C3,1*%
%TO.N,+3V3*%
%TA.AperFunction,SMDPad,CuDef*%
G36*
G01*
X33901000Y-49436000D02*
X33901000Y-50386000D01*
G75*
G02*
X33651000Y-50636000I-250000J0D01*
G01*
X33151000Y-50636000D01*
G75*
G02*
X32901000Y-50386000I0J250000D01*
G01*
X32901000Y-49436000D01*
G75*
G02*
X33151000Y-49186000I250000J0D01*
G01*
X33651000Y-49186000D01*
G75*
G02*
X33901000Y-49436000I0J-250000D01*
G01*
G37*
%TD.AperFunction*%
%TD*%
%TO.P,C2,2*%
%TO.N,GND*%
%TA.AperFunction,SMDPad,CuDef*%
G36*
G01*
X22564000Y-32990000D02*
X23664000Y-32990000D01*
G75*
G02*
X23914000Y-33240000I0J-250000D01*
G01*
X23914000Y-35340000D01*
G75*
G02*
X23664000Y-35590000I-250000J0D01*
G01*
X22564000Y-35590000D01*
G75*
G02*
X22314000Y-35340000I0J250000D01*
G01*
X22314000Y-33240000D01*
G75*
G02*
X22564000Y-32990000I250000J0D01*
G01*
G37*
%TD.AperFunction*%
%TO.P,C2,1*%
%TO.N,+12V*%
%TA.AperFunction,SMDPad,CuDef*%
G36*
G01*
X22564000Y-29390000D02*
X23664000Y-29390000D01*
G75*
G02*
X23914000Y-29640000I0J-250000D01*
G01*
X23914000Y-31740000D01*
G75*
G02*
X23664000Y-31990000I-250000J0D01*
G01*
X22564000Y-31990000D01*
G75*
G02*
X22314000Y-31740000I0J250000D01*
G01*
X22314000Y-29640000D01*
G75*
G02*
X22564000Y-29390000I250000J0D01*
G01*
G37*
%TD.AperFunction*%
%TD*%
%TO.P,C1,2*%
%TO.N,GND*%
%TA.AperFunction,SMDPad,CuDef*%
G36*
G01*
X51774000Y-37308000D02*
X52874000Y-37308000D01*
G75*
G02*
X53124000Y-37558000I0J-250000D01*
G01*
X53124000Y-39658000D01*
G75*
G02*
X52874000Y-39908000I-250000J0D01*
G01*
X51774000Y-39908000D01*
G75*
G02*
X51524000Y-39658000I0J250000D01*
G01*
X51524000Y-37558000D01*
G75*
G02*
X51774000Y-37308000I250000J0D01*
G01*
G37*
%TD.AperFunction*%
%TO.P,C1,1*%
%TO.N,+12V*%
%TA.AperFunction,SMDPad,CuDef*%
G36*
G01*
X51774000Y-33708000D02*
X52874000Y-33708000D01*
G75*
G02*
X53124000Y-33958000I0J-250000D01*
G01*
X53124000Y-36058000D01*
G75*
G02*
X52874000Y-36308000I-250000J0D01*
G01*
X51774000Y-36308000D01*
G75*
G02*
X51524000Y-36058000I0J250000D01*
G01*
X51524000Y-33958000D01*
G75*
G02*
X51774000Y-33708000I250000J0D01*
G01*
G37*
%TD.AperFunction*%
%TD*%
D12*
%TO.P,CR1,18*%
%TO.N,Net-(CR1-Pad18)*%
X57361057Y-46375540D03*
%TO.P,CR1,17*%
%TO.N,Net-(CR1-Pad17)*%
X57361057Y-43835540D03*
%TO.P,CR1,16*%
%TO.N,Net-(CR1-Pad16)*%
X57361057Y-41295540D03*
%TO.P,CR1,15*%
%TO.N,Net-(CR1-Pad15)*%
X57361057Y-38755540D03*
%TO.P,CR1,14*%
%TO.N,Net-(CR1-Pad14)*%
X57361057Y-36215540D03*
%TO.P,CR1,13*%
%TO.N,Net-(CR1-Pad13)*%
X57361057Y-33675540D03*
%TO.P,CR1,12*%
%TO.N,Net-(CR1-Pad12)*%
X57361057Y-31135540D03*
%TO.P,CR1,11*%
%TO.N,Net-(CR1-Pad11)*%
X57361057Y-28595540D03*
%TO.P,CR1,10*%
%TO.N,+12V*%
X57361057Y-26055540D03*
%TO.P,CR1,9*%
%TO.N,GND*%
X64981057Y-26055540D03*
%TO.P,CR1,8*%
%TO.N,Net-(CR1-Pad8)*%
X64981057Y-28595540D03*
%TO.P,CR1,7*%
%TO.N,Net-(CR1-Pad7)*%
X64981057Y-31135540D03*
%TO.P,CR1,6*%
%TO.N,Net-(CR1-Pad6)*%
X64981057Y-33675540D03*
%TO.P,CR1,5*%
%TO.N,Net-(CR1-Pad5)*%
X64981057Y-36215540D03*
%TO.P,CR1,4*%
%TO.N,Net-(CR1-Pad4)*%
X64981057Y-38755540D03*
%TO.P,CR1,3*%
%TO.N,Net-(CR1-Pad3)*%
X64981057Y-41295540D03*
%TO.P,CR1,2*%
%TO.N,Net-(CR1-Pad2)*%
X64981057Y-43835540D03*
D13*
%TO.P,CR1,1*%
%TO.N,Net-(CR1-Pad1)*%
X64981057Y-46375540D03*
%TD*%
D12*
%TO.P,CR2,18*%
%TO.N,Net-(CR2-Pad18)*%
X52070000Y-31200644D03*
%TO.P,CR2,17*%
%TO.N,Net-(CR2-Pad17)*%
X49530000Y-31200644D03*
%TO.P,CR2,16*%
%TO.N,Net-(CR2-Pad16)*%
X46990000Y-31200644D03*
%TO.P,CR2,15*%
%TO.N,Net-(CR2-Pad15)*%
X44450000Y-31200644D03*
%TO.P,CR2,14*%
%TO.N,Net-(CR2-Pad14)*%
X41910000Y-31200644D03*
%TO.P,CR2,13*%
%TO.N,Net-(CR2-Pad13)*%
X39370000Y-31200644D03*
%TO.P,CR2,12*%
%TO.N,Net-(CR2-Pad12)*%
X36830000Y-31200644D03*
%TO.P,CR2,11*%
%TO.N,Net-(CR2-Pad11)*%
X34290000Y-31200644D03*
%TO.P,CR2,10*%
%TO.N,+12V*%
X31750000Y-31200644D03*
%TO.P,CR2,9*%
%TO.N,GND*%
X31750000Y-23580644D03*
%TO.P,CR2,8*%
%TO.N,Net-(CR2-Pad8)*%
X34290000Y-23580644D03*
%TO.P,CR2,7*%
%TO.N,Net-(CR2-Pad7)*%
X36830000Y-23580644D03*
%TO.P,CR2,6*%
%TO.N,Net-(CR2-Pad6)*%
X39370000Y-23580644D03*
%TO.P,CR2,5*%
%TO.N,Net-(CR2-Pad5)*%
X41910000Y-23580644D03*
%TO.P,CR2,4*%
%TO.N,Net-(CR2-Pad4)*%
X44450000Y-23580644D03*
%TO.P,CR2,3*%
%TO.N,Net-(CR2-Pad3)*%
X46990000Y-23580644D03*
%TO.P,CR2,2*%
%TO.N,Net-(CR2-Pad2)*%
X49530000Y-23580644D03*
D13*
%TO.P,CR2,1*%
%TO.N,Net-(CR2-Pad1)*%
X52070000Y-23580644D03*
%TD*%
%TA.AperFunction,SMDPad,CuDef*%
D14*
%TO.P,A4,2*%
%TO.N,/A4*%
G36*
X50558602Y-48387000D02*
G01*
X50558602Y-48362466D01*
X50563412Y-48313635D01*
X50572984Y-48265510D01*
X50587228Y-48218555D01*
X50606005Y-48173222D01*
X50629136Y-48129949D01*
X50656396Y-48089150D01*
X50687524Y-48051221D01*
X50722221Y-48016524D01*
X50760150Y-47985396D01*
X50800949Y-47958136D01*
X50844222Y-47935005D01*
X50889555Y-47916228D01*
X50936510Y-47901984D01*
X50984635Y-47892412D01*
X51033466Y-47887602D01*
X51058000Y-47887602D01*
X51058000Y-47887000D01*
X51558000Y-47887000D01*
X51558000Y-47887602D01*
X51582534Y-47887602D01*
X51631365Y-47892412D01*
X51679490Y-47901984D01*
X51726445Y-47916228D01*
X51771778Y-47935005D01*
X51815051Y-47958136D01*
X51855850Y-47985396D01*
X51893779Y-48016524D01*
X51928476Y-48051221D01*
X51959604Y-48089150D01*
X51986864Y-48129949D01*
X52009995Y-48173222D01*
X52028772Y-48218555D01*
X52043016Y-48265510D01*
X52052588Y-48313635D01*
X52057398Y-48362466D01*
X52057398Y-48387000D01*
X52058000Y-48387000D01*
X52058000Y-48887000D01*
X50558000Y-48887000D01*
X50558000Y-48387000D01*
X50558602Y-48387000D01*
G37*
%TD.AperFunction*%
%TA.AperFunction,SMDPad,CuDef*%
%TO.P,A4,1*%
%TO.N,+3V3*%
G36*
X52058000Y-49187000D02*
G01*
X52058000Y-49687000D01*
X52057398Y-49687000D01*
X52057398Y-49711534D01*
X52052588Y-49760365D01*
X52043016Y-49808490D01*
X52028772Y-49855445D01*
X52009995Y-49900778D01*
X51986864Y-49944051D01*
X51959604Y-49984850D01*
X51928476Y-50022779D01*
X51893779Y-50057476D01*
X51855850Y-50088604D01*
X51815051Y-50115864D01*
X51771778Y-50138995D01*
X51726445Y-50157772D01*
X51679490Y-50172016D01*
X51631365Y-50181588D01*
X51582534Y-50186398D01*
X51558000Y-50186398D01*
X51558000Y-50187000D01*
X51058000Y-50187000D01*
X51058000Y-50186398D01*
X51033466Y-50186398D01*
X50984635Y-50181588D01*
X50936510Y-50172016D01*
X50889555Y-50157772D01*
X50844222Y-50138995D01*
X50800949Y-50115864D01*
X50760150Y-50088604D01*
X50722221Y-50057476D01*
X50687524Y-50022779D01*
X50656396Y-49984850D01*
X50629136Y-49944051D01*
X50606005Y-49900778D01*
X50587228Y-49855445D01*
X50572984Y-49808490D01*
X50563412Y-49760365D01*
X50558602Y-49711534D01*
X50558602Y-49687000D01*
X50558000Y-49687000D01*
X50558000Y-49187000D01*
X52058000Y-49187000D01*
G37*
%TD.AperFunction*%
%TD*%
D15*
%TO.P,U1,29*%
%TO.N,GND*%
X37973000Y-39370000D03*
%TO.P,U1,21*%
%TO.N,/A5*%
%TA.AperFunction,SMDPad,CuDef*%
G36*
G01*
X35708000Y-41172800D02*
X35708000Y-41467200D01*
G75*
G02*
X35695200Y-41480000I-12800J0D01*
G01*
X34620800Y-41480000D01*
G75*
G02*
X34608000Y-41467200I0J12800D01*
G01*
X34608000Y-41172800D01*
G75*
G02*
X34620800Y-41160000I12800J0D01*
G01*
X35695200Y-41160000D01*
G75*
G02*
X35708000Y-41172800I0J-12800D01*
G01*
G37*
%TD.AperFunction*%
%TO.P,U1,20*%
%TO.N,Net-(R7-Pad1)*%
%TA.AperFunction,SMDPad,CuDef*%
G36*
G01*
X35708000Y-40522800D02*
X35708000Y-40817200D01*
G75*
G02*
X35695200Y-40830000I-12800J0D01*
G01*
X34620800Y-40830000D01*
G75*
G02*
X34608000Y-40817200I0J12800D01*
G01*
X34608000Y-40522800D01*
G75*
G02*
X34620800Y-40510000I12800J0D01*
G01*
X35695200Y-40510000D01*
G75*
G02*
X35708000Y-40522800I0J-12800D01*
G01*
G37*
%TD.AperFunction*%
%TO.P,U1,19*%
%TO.N,Net-(CR2-Pad8)*%
%TA.AperFunction,SMDPad,CuDef*%
G36*
G01*
X35708000Y-39872800D02*
X35708000Y-40167200D01*
G75*
G02*
X35695200Y-40180000I-12800J0D01*
G01*
X34620800Y-40180000D01*
G75*
G02*
X34608000Y-40167200I0J12800D01*
G01*
X34608000Y-39872800D01*
G75*
G02*
X34620800Y-39860000I12800J0D01*
G01*
X35695200Y-39860000D01*
G75*
G02*
X35708000Y-39872800I0J-12800D01*
G01*
G37*
%TD.AperFunction*%
%TO.P,U1,18*%
%TO.N,Net-(CR2-Pad7)*%
%TA.AperFunction,SMDPad,CuDef*%
G36*
G01*
X35708000Y-39222800D02*
X35708000Y-39517200D01*
G75*
G02*
X35695200Y-39530000I-12800J0D01*
G01*
X34620800Y-39530000D01*
G75*
G02*
X34608000Y-39517200I0J12800D01*
G01*
X34608000Y-39222800D01*
G75*
G02*
X34620800Y-39210000I12800J0D01*
G01*
X35695200Y-39210000D01*
G75*
G02*
X35708000Y-39222800I0J-12800D01*
G01*
G37*
%TD.AperFunction*%
%TO.P,U1,17*%
%TO.N,Net-(CR2-Pad6)*%
%TA.AperFunction,SMDPad,CuDef*%
G36*
G01*
X35708000Y-38572800D02*
X35708000Y-38867200D01*
G75*
G02*
X35695200Y-38880000I-12800J0D01*
G01*
X34620800Y-38880000D01*
G75*
G02*
X34608000Y-38867200I0J12800D01*
G01*
X34608000Y-38572800D01*
G75*
G02*
X34620800Y-38560000I12800J0D01*
G01*
X35695200Y-38560000D01*
G75*
G02*
X35708000Y-38572800I0J-12800D01*
G01*
G37*
%TD.AperFunction*%
%TO.P,U1,16*%
%TO.N,Net-(CR2-Pad5)*%
%TA.AperFunction,SMDPad,CuDef*%
G36*
G01*
X35708000Y-37922800D02*
X35708000Y-38217200D01*
G75*
G02*
X35695200Y-38230000I-12800J0D01*
G01*
X34620800Y-38230000D01*
G75*
G02*
X34608000Y-38217200I0J12800D01*
G01*
X34608000Y-37922800D01*
G75*
G02*
X34620800Y-37910000I12800J0D01*
G01*
X35695200Y-37910000D01*
G75*
G02*
X35708000Y-37922800I0J-12800D01*
G01*
G37*
%TD.AperFunction*%
%TO.P,U1,15*%
%TO.N,Net-(CR2-Pad4)*%
%TA.AperFunction,SMDPad,CuDef*%
G36*
G01*
X35708000Y-37272800D02*
X35708000Y-37567200D01*
G75*
G02*
X35695200Y-37580000I-12800J0D01*
G01*
X34620800Y-37580000D01*
G75*
G02*
X34608000Y-37567200I0J12800D01*
G01*
X34608000Y-37272800D01*
G75*
G02*
X34620800Y-37260000I12800J0D01*
G01*
X35695200Y-37260000D01*
G75*
G02*
X35708000Y-37272800I0J-12800D01*
G01*
G37*
%TD.AperFunction*%
%TO.P,U1,7*%
%TO.N,Net-(CR1-Pad5)*%
%TA.AperFunction,SMDPad,CuDef*%
G36*
G01*
X41338000Y-37272800D02*
X41338000Y-37567200D01*
G75*
G02*
X41325200Y-37580000I-12800J0D01*
G01*
X40250800Y-37580000D01*
G75*
G02*
X40238000Y-37567200I0J12800D01*
G01*
X40238000Y-37272800D01*
G75*
G02*
X40250800Y-37260000I12800J0D01*
G01*
X41325200Y-37260000D01*
G75*
G02*
X41338000Y-37272800I0J-12800D01*
G01*
G37*
%TD.AperFunction*%
%TO.P,U1,6*%
%TO.N,Net-(CR1-Pad4)*%
%TA.AperFunction,SMDPad,CuDef*%
G36*
G01*
X41338000Y-37922800D02*
X41338000Y-38217200D01*
G75*
G02*
X41325200Y-38230000I-12800J0D01*
G01*
X40250800Y-38230000D01*
G75*
G02*
X40238000Y-38217200I0J12800D01*
G01*
X40238000Y-37922800D01*
G75*
G02*
X40250800Y-37910000I12800J0D01*
G01*
X41325200Y-37910000D01*
G75*
G02*
X41338000Y-37922800I0J-12800D01*
G01*
G37*
%TD.AperFunction*%
%TO.P,U1,5*%
%TO.N,Net-(CR1-Pad3)*%
%TA.AperFunction,SMDPad,CuDef*%
G36*
G01*
X41338000Y-38572800D02*
X41338000Y-38867200D01*
G75*
G02*
X41325200Y-38880000I-12800J0D01*
G01*
X40250800Y-38880000D01*
G75*
G02*
X40238000Y-38867200I0J12800D01*
G01*
X40238000Y-38572800D01*
G75*
G02*
X40250800Y-38560000I12800J0D01*
G01*
X41325200Y-38560000D01*
G75*
G02*
X41338000Y-38572800I0J-12800D01*
G01*
G37*
%TD.AperFunction*%
%TO.P,U1,4*%
%TO.N,Net-(CR1-Pad2)*%
%TA.AperFunction,SMDPad,CuDef*%
G36*
G01*
X41338000Y-39222800D02*
X41338000Y-39517200D01*
G75*
G02*
X41325200Y-39530000I-12800J0D01*
G01*
X40250800Y-39530000D01*
G75*
G02*
X40238000Y-39517200I0J12800D01*
G01*
X40238000Y-39222800D01*
G75*
G02*
X40250800Y-39210000I12800J0D01*
G01*
X41325200Y-39210000D01*
G75*
G02*
X41338000Y-39222800I0J-12800D01*
G01*
G37*
%TD.AperFunction*%
%TO.P,U1,3*%
%TO.N,Net-(CR1-Pad1)*%
%TA.AperFunction,SMDPad,CuDef*%
G36*
G01*
X41338000Y-39872800D02*
X41338000Y-40167200D01*
G75*
G02*
X41325200Y-40180000I-12800J0D01*
G01*
X40250800Y-40180000D01*
G75*
G02*
X40238000Y-40167200I0J12800D01*
G01*
X40238000Y-39872800D01*
G75*
G02*
X40250800Y-39860000I12800J0D01*
G01*
X41325200Y-39860000D01*
G75*
G02*
X41338000Y-39872800I0J-12800D01*
G01*
G37*
%TD.AperFunction*%
%TO.P,U1,2*%
%TO.N,/A4*%
%TA.AperFunction,SMDPad,CuDef*%
G36*
G01*
X41338000Y-40522800D02*
X41338000Y-40817200D01*
G75*
G02*
X41325200Y-40830000I-12800J0D01*
G01*
X40250800Y-40830000D01*
G75*
G02*
X40238000Y-40817200I0J12800D01*
G01*
X40238000Y-40522800D01*
G75*
G02*
X40250800Y-40510000I12800J0D01*
G01*
X41325200Y-40510000D01*
G75*
G02*
X41338000Y-40522800I0J-12800D01*
G01*
G37*
%TD.AperFunction*%
%TO.P,U1,1*%
%TO.N,/A3*%
%TA.AperFunction,SMDPad,CuDef*%
G36*
G01*
X41338000Y-41172800D02*
X41338000Y-41467200D01*
G75*
G02*
X41325200Y-41480000I-12800J0D01*
G01*
X40250800Y-41480000D01*
G75*
G02*
X40238000Y-41467200I0J12800D01*
G01*
X40238000Y-41172800D01*
G75*
G02*
X40250800Y-41160000I12800J0D01*
G01*
X41325200Y-41160000D01*
G75*
G02*
X41338000Y-41172800I0J-12800D01*
G01*
G37*
%TD.AperFunction*%
%TO.P,U1,28*%
%TO.N,/A2*%
%TA.AperFunction,SMDPad,CuDef*%
G36*
G01*
X40083000Y-41647800D02*
X40083000Y-42722200D01*
G75*
G02*
X40070200Y-42735000I-12800J0D01*
G01*
X39775800Y-42735000D01*
G75*
G02*
X39763000Y-42722200I0J12800D01*
G01*
X39763000Y-41647800D01*
G75*
G02*
X39775800Y-41635000I12800J0D01*
G01*
X40070200Y-41635000D01*
G75*
G02*
X40083000Y-41647800I0J-12800D01*
G01*
G37*
%TD.AperFunction*%
%TO.P,U1,27*%
%TO.N,/A1*%
%TA.AperFunction,SMDPad,CuDef*%
G36*
G01*
X39433000Y-41647800D02*
X39433000Y-42722200D01*
G75*
G02*
X39420200Y-42735000I-12800J0D01*
G01*
X39125800Y-42735000D01*
G75*
G02*
X39113000Y-42722200I0J12800D01*
G01*
X39113000Y-41647800D01*
G75*
G02*
X39125800Y-41635000I12800J0D01*
G01*
X39420200Y-41635000D01*
G75*
G02*
X39433000Y-41647800I0J-12800D01*
G01*
G37*
%TD.AperFunction*%
%TO.P,U1,26*%
%TO.N,/A0*%
%TA.AperFunction,SMDPad,CuDef*%
G36*
G01*
X38783000Y-41647800D02*
X38783000Y-42722200D01*
G75*
G02*
X38770200Y-42735000I-12800J0D01*
G01*
X38475800Y-42735000D01*
G75*
G02*
X38463000Y-42722200I0J12800D01*
G01*
X38463000Y-41647800D01*
G75*
G02*
X38475800Y-41635000I12800J0D01*
G01*
X38770200Y-41635000D01*
G75*
G02*
X38783000Y-41647800I0J-12800D01*
G01*
G37*
%TD.AperFunction*%
%TO.P,U1,25*%
%TO.N,+3V3*%
%TA.AperFunction,SMDPad,CuDef*%
G36*
G01*
X38133000Y-41647800D02*
X38133000Y-42722200D01*
G75*
G02*
X38120200Y-42735000I-12800J0D01*
G01*
X37825800Y-42735000D01*
G75*
G02*
X37813000Y-42722200I0J12800D01*
G01*
X37813000Y-41647800D01*
G75*
G02*
X37825800Y-41635000I12800J0D01*
G01*
X38120200Y-41635000D01*
G75*
G02*
X38133000Y-41647800I0J-12800D01*
G01*
G37*
%TD.AperFunction*%
%TO.P,U1,24*%
%TO.N,Net-(J1-Pad5)*%
%TA.AperFunction,SMDPad,CuDef*%
G36*
G01*
X37483000Y-41647800D02*
X37483000Y-42722200D01*
G75*
G02*
X37470200Y-42735000I-12800J0D01*
G01*
X37175800Y-42735000D01*
G75*
G02*
X37163000Y-42722200I0J12800D01*
G01*
X37163000Y-41647800D01*
G75*
G02*
X37175800Y-41635000I12800J0D01*
G01*
X37470200Y-41635000D01*
G75*
G02*
X37483000Y-41647800I0J-12800D01*
G01*
G37*
%TD.AperFunction*%
%TO.P,U1,23*%
%TO.N,Net-(J1-Pad4)*%
%TA.AperFunction,SMDPad,CuDef*%
G36*
G01*
X36833000Y-41647800D02*
X36833000Y-42722200D01*
G75*
G02*
X36820200Y-42735000I-12800J0D01*
G01*
X36525800Y-42735000D01*
G75*
G02*
X36513000Y-42722200I0J12800D01*
G01*
X36513000Y-41647800D01*
G75*
G02*
X36525800Y-41635000I12800J0D01*
G01*
X36820200Y-41635000D01*
G75*
G02*
X36833000Y-41647800I0J-12800D01*
G01*
G37*
%TD.AperFunction*%
%TO.P,U1,22*%
%TO.N,GND*%
%TA.AperFunction,SMDPad,CuDef*%
G36*
G01*
X36183000Y-41647800D02*
X36183000Y-42722200D01*
G75*
G02*
X36170200Y-42735000I-12800J0D01*
G01*
X35875800Y-42735000D01*
G75*
G02*
X35863000Y-42722200I0J12800D01*
G01*
X35863000Y-41647800D01*
G75*
G02*
X35875800Y-41635000I12800J0D01*
G01*
X36170200Y-41635000D01*
G75*
G02*
X36183000Y-41647800I0J-12800D01*
G01*
G37*
%TD.AperFunction*%
%TO.P,U1,14*%
%TO.N,Net-(CR2-Pad3)*%
%TA.AperFunction,SMDPad,CuDef*%
G36*
G01*
X36183000Y-36017800D02*
X36183000Y-37092200D01*
G75*
G02*
X36170200Y-37105000I-12800J0D01*
G01*
X35875800Y-37105000D01*
G75*
G02*
X35863000Y-37092200I0J12800D01*
G01*
X35863000Y-36017800D01*
G75*
G02*
X35875800Y-36005000I12800J0D01*
G01*
X36170200Y-36005000D01*
G75*
G02*
X36183000Y-36017800I0J-12800D01*
G01*
G37*
%TD.AperFunction*%
%TO.P,U1,13*%
%TO.N,Net-(CR2-Pad2)*%
%TA.AperFunction,SMDPad,CuDef*%
G36*
G01*
X36833000Y-36017800D02*
X36833000Y-37092200D01*
G75*
G02*
X36820200Y-37105000I-12800J0D01*
G01*
X36525800Y-37105000D01*
G75*
G02*
X36513000Y-37092200I0J12800D01*
G01*
X36513000Y-36017800D01*
G75*
G02*
X36525800Y-36005000I12800J0D01*
G01*
X36820200Y-36005000D01*
G75*
G02*
X36833000Y-36017800I0J-12800D01*
G01*
G37*
%TD.AperFunction*%
%TO.P,U1,12*%
%TO.N,Net-(CR2-Pad1)*%
%TA.AperFunction,SMDPad,CuDef*%
G36*
G01*
X37483000Y-36017800D02*
X37483000Y-37092200D01*
G75*
G02*
X37470200Y-37105000I-12800J0D01*
G01*
X37175800Y-37105000D01*
G75*
G02*
X37163000Y-37092200I0J12800D01*
G01*
X37163000Y-36017800D01*
G75*
G02*
X37175800Y-36005000I12800J0D01*
G01*
X37470200Y-36005000D01*
G75*
G02*
X37483000Y-36017800I0J-12800D01*
G01*
G37*
%TD.AperFunction*%
%TO.P,U1,11*%
%TO.N,GND*%
%TA.AperFunction,SMDPad,CuDef*%
G36*
G01*
X38133000Y-36017800D02*
X38133000Y-37092200D01*
G75*
G02*
X38120200Y-37105000I-12800J0D01*
G01*
X37825800Y-37105000D01*
G75*
G02*
X37813000Y-37092200I0J12800D01*
G01*
X37813000Y-36017800D01*
G75*
G02*
X37825800Y-36005000I12800J0D01*
G01*
X38120200Y-36005000D01*
G75*
G02*
X38133000Y-36017800I0J-12800D01*
G01*
G37*
%TD.AperFunction*%
%TO.P,U1,10*%
%TO.N,Net-(CR1-Pad8)*%
%TA.AperFunction,SMDPad,CuDef*%
G36*
G01*
X38783000Y-36017800D02*
X38783000Y-37092200D01*
G75*
G02*
X38770200Y-37105000I-12800J0D01*
G01*
X38475800Y-37105000D01*
G75*
G02*
X38463000Y-37092200I0J12800D01*
G01*
X38463000Y-36017800D01*
G75*
G02*
X38475800Y-36005000I12800J0D01*
G01*
X38770200Y-36005000D01*
G75*
G02*
X38783000Y-36017800I0J-12800D01*
G01*
G37*
%TD.AperFunction*%
%TO.P,U1,9*%
%TO.N,Net-(CR1-Pad7)*%
%TA.AperFunction,SMDPad,CuDef*%
G36*
G01*
X39433000Y-36017800D02*
X39433000Y-37092200D01*
G75*
G02*
X39420200Y-37105000I-12800J0D01*
G01*
X39125800Y-37105000D01*
G75*
G02*
X39113000Y-37092200I0J12800D01*
G01*
X39113000Y-36017800D01*
G75*
G02*
X39125800Y-36005000I12800J0D01*
G01*
X39420200Y-36005000D01*
G75*
G02*
X39433000Y-36017800I0J-12800D01*
G01*
G37*
%TD.AperFunction*%
%TO.P,U1,8*%
%TO.N,Net-(CR1-Pad6)*%
%TA.AperFunction,SMDPad,CuDef*%
G36*
G01*
X40083000Y-36017800D02*
X40083000Y-37092200D01*
G75*
G02*
X40070200Y-37105000I-12800J0D01*
G01*
X39775800Y-37105000D01*
G75*
G02*
X39763000Y-37092200I0J12800D01*
G01*
X39763000Y-36017800D01*
G75*
G02*
X39775800Y-36005000I12800J0D01*
G01*
X40070200Y-36005000D01*
G75*
G02*
X40083000Y-36017800I0J-12800D01*
G01*
G37*
%TD.AperFunction*%
%TD*%
%TO.P,R7,2*%
%TO.N,GND*%
%TA.AperFunction,SMDPad,CuDef*%
G36*
G01*
X32872000Y-41383000D02*
X33422000Y-41383000D01*
G75*
G02*
X33622000Y-41583000I0J-200000D01*
G01*
X33622000Y-41983000D01*
G75*
G02*
X33422000Y-42183000I-200000J0D01*
G01*
X32872000Y-42183000D01*
G75*
G02*
X32672000Y-41983000I0J200000D01*
G01*
X32672000Y-41583000D01*
G75*
G02*
X32872000Y-41383000I200000J0D01*
G01*
G37*
%TD.AperFunction*%
%TO.P,R7,1*%
%TO.N,Net-(R7-Pad1)*%
%TA.AperFunction,SMDPad,CuDef*%
G36*
G01*
X32872000Y-39733000D02*
X33422000Y-39733000D01*
G75*
G02*
X33622000Y-39933000I0J-200000D01*
G01*
X33622000Y-40333000D01*
G75*
G02*
X33422000Y-40533000I-200000J0D01*
G01*
X32872000Y-40533000D01*
G75*
G02*
X32672000Y-40333000I0J200000D01*
G01*
X32672000Y-39933000D01*
G75*
G02*
X32872000Y-39733000I200000J0D01*
G01*
G37*
%TD.AperFunction*%
%TD*%
%TO.P,R6,2*%
%TO.N,GND*%
%TA.AperFunction,SMDPad,CuDef*%
G36*
G01*
X39391000Y-45168500D02*
X38841000Y-45168500D01*
G75*
G02*
X38641000Y-44968500I0J200000D01*
G01*
X38641000Y-44568500D01*
G75*
G02*
X38841000Y-44368500I200000J0D01*
G01*
X39391000Y-44368500D01*
G75*
G02*
X39591000Y-44568500I0J-200000D01*
G01*
X39591000Y-44968500D01*
G75*
G02*
X39391000Y-45168500I-200000J0D01*
G01*
G37*
%TD.AperFunction*%
%TO.P,R6,1*%
%TO.N,/A0*%
%TA.AperFunction,SMDPad,CuDef*%
G36*
G01*
X39391000Y-46818500D02*
X38841000Y-46818500D01*
G75*
G02*
X38641000Y-46618500I0J200000D01*
G01*
X38641000Y-46218500D01*
G75*
G02*
X38841000Y-46018500I200000J0D01*
G01*
X39391000Y-46018500D01*
G75*
G02*
X39591000Y-46218500I0J-200000D01*
G01*
X39591000Y-46618500D01*
G75*
G02*
X39391000Y-46818500I-200000J0D01*
G01*
G37*
%TD.AperFunction*%
%TD*%
%TO.P,R5,2*%
%TO.N,GND*%
%TA.AperFunction,SMDPad,CuDef*%
G36*
G01*
X42439000Y-45168500D02*
X41889000Y-45168500D01*
G75*
G02*
X41689000Y-44968500I0J200000D01*
G01*
X41689000Y-44568500D01*
G75*
G02*
X41889000Y-44368500I200000J0D01*
G01*
X42439000Y-44368500D01*
G75*
G02*
X42639000Y-44568500I0J-200000D01*
G01*
X42639000Y-44968500D01*
G75*
G02*
X42439000Y-45168500I-200000J0D01*
G01*
G37*
%TD.AperFunction*%
%TO.P,R5,1*%
%TO.N,/A1*%
%TA.AperFunction,SMDPad,CuDef*%
G36*
G01*
X42439000Y-46818500D02*
X41889000Y-46818500D01*
G75*
G02*
X41689000Y-46618500I0J200000D01*
G01*
X41689000Y-46218500D01*
G75*
G02*
X41889000Y-46018500I200000J0D01*
G01*
X42439000Y-46018500D01*
G75*
G02*
X42639000Y-46218500I0J-200000D01*
G01*
X42639000Y-46618500D01*
G75*
G02*
X42439000Y-46818500I-200000J0D01*
G01*
G37*
%TD.AperFunction*%
%TD*%
%TO.P,R4,2*%
%TO.N,GND*%
%TA.AperFunction,SMDPad,CuDef*%
G36*
G01*
X45487000Y-45168500D02*
X44937000Y-45168500D01*
G75*
G02*
X44737000Y-44968500I0J200000D01*
G01*
X44737000Y-44568500D01*
G75*
G02*
X44937000Y-44368500I200000J0D01*
G01*
X45487000Y-44368500D01*
G75*
G02*
X45687000Y-44568500I0J-200000D01*
G01*
X45687000Y-44968500D01*
G75*
G02*
X45487000Y-45168500I-200000J0D01*
G01*
G37*
%TD.AperFunction*%
%TO.P,R4,1*%
%TO.N,/A2*%
%TA.AperFunction,SMDPad,CuDef*%
G36*
G01*
X45487000Y-46818500D02*
X44937000Y-46818500D01*
G75*
G02*
X44737000Y-46618500I0J200000D01*
G01*
X44737000Y-46218500D01*
G75*
G02*
X44937000Y-46018500I200000J0D01*
G01*
X45487000Y-46018500D01*
G75*
G02*
X45687000Y-46218500I0J-200000D01*
G01*
X45687000Y-46618500D01*
G75*
G02*
X45487000Y-46818500I-200000J0D01*
G01*
G37*
%TD.AperFunction*%
%TD*%
%TO.P,R3,2*%
%TO.N,GND*%
%TA.AperFunction,SMDPad,CuDef*%
G36*
G01*
X48535000Y-45168500D02*
X47985000Y-45168500D01*
G75*
G02*
X47785000Y-44968500I0J200000D01*
G01*
X47785000Y-44568500D01*
G75*
G02*
X47985000Y-44368500I200000J0D01*
G01*
X48535000Y-44368500D01*
G75*
G02*
X48735000Y-44568500I0J-200000D01*
G01*
X48735000Y-44968500D01*
G75*
G02*
X48535000Y-45168500I-200000J0D01*
G01*
G37*
%TD.AperFunction*%
%TO.P,R3,1*%
%TO.N,/A3*%
%TA.AperFunction,SMDPad,CuDef*%
G36*
G01*
X48535000Y-46818500D02*
X47985000Y-46818500D01*
G75*
G02*
X47785000Y-46618500I0J200000D01*
G01*
X47785000Y-46218500D01*
G75*
G02*
X47985000Y-46018500I200000J0D01*
G01*
X48535000Y-46018500D01*
G75*
G02*
X48735000Y-46218500I0J-200000D01*
G01*
X48735000Y-46618500D01*
G75*
G02*
X48535000Y-46818500I-200000J0D01*
G01*
G37*
%TD.AperFunction*%
%TD*%
%TO.P,R2,2*%
%TO.N,GND*%
%TA.AperFunction,SMDPad,CuDef*%
G36*
G01*
X51583000Y-45168500D02*
X51033000Y-45168500D01*
G75*
G02*
X50833000Y-44968500I0J200000D01*
G01*
X50833000Y-44568500D01*
G75*
G02*
X51033000Y-44368500I200000J0D01*
G01*
X51583000Y-44368500D01*
G75*
G02*
X51783000Y-44568500I0J-200000D01*
G01*
X51783000Y-44968500D01*
G75*
G02*
X51583000Y-45168500I-200000J0D01*
G01*
G37*
%TD.AperFunction*%
%TO.P,R2,1*%
%TO.N,/A4*%
%TA.AperFunction,SMDPad,CuDef*%
G36*
G01*
X51583000Y-46818500D02*
X51033000Y-46818500D01*
G75*
G02*
X50833000Y-46618500I0J200000D01*
G01*
X50833000Y-46218500D01*
G75*
G02*
X51033000Y-46018500I200000J0D01*
G01*
X51583000Y-46018500D01*
G75*
G02*
X51783000Y-46218500I0J-200000D01*
G01*
X51783000Y-46618500D01*
G75*
G02*
X51583000Y-46818500I-200000J0D01*
G01*
G37*
%TD.AperFunction*%
%TD*%
%TO.P,R1,2*%
%TO.N,GND*%
%TA.AperFunction,SMDPad,CuDef*%
G36*
G01*
X36343000Y-45168500D02*
X35793000Y-45168500D01*
G75*
G02*
X35593000Y-44968500I0J200000D01*
G01*
X35593000Y-44568500D01*
G75*
G02*
X35793000Y-44368500I200000J0D01*
G01*
X36343000Y-44368500D01*
G75*
G02*
X36543000Y-44568500I0J-200000D01*
G01*
X36543000Y-44968500D01*
G75*
G02*
X36343000Y-45168500I-200000J0D01*
G01*
G37*
%TD.AperFunction*%
%TO.P,R1,1*%
%TO.N,/A5*%
%TA.AperFunction,SMDPad,CuDef*%
G36*
G01*
X36343000Y-46818500D02*
X35793000Y-46818500D01*
G75*
G02*
X35593000Y-46618500I0J200000D01*
G01*
X35593000Y-46218500D01*
G75*
G02*
X35793000Y-46018500I200000J0D01*
G01*
X36343000Y-46018500D01*
G75*
G02*
X36543000Y-46218500I0J-200000D01*
G01*
X36543000Y-46618500D01*
G75*
G02*
X36343000Y-46818500I-200000J0D01*
G01*
G37*
%TD.AperFunction*%
%TD*%
%TA.AperFunction,SMDPad,CuDef*%
D14*
%TO.P,A5,2*%
%TO.N,/A5*%
G36*
X35318602Y-48387000D02*
G01*
X35318602Y-48362466D01*
X35323412Y-48313635D01*
X35332984Y-48265510D01*
X35347228Y-48218555D01*
X35366005Y-48173222D01*
X35389136Y-48129949D01*
X35416396Y-48089150D01*
X35447524Y-48051221D01*
X35482221Y-48016524D01*
X35520150Y-47985396D01*
X35560949Y-47958136D01*
X35604222Y-47935005D01*
X35649555Y-47916228D01*
X35696510Y-47901984D01*
X35744635Y-47892412D01*
X35793466Y-47887602D01*
X35818000Y-47887602D01*
X35818000Y-47887000D01*
X36318000Y-47887000D01*
X36318000Y-47887602D01*
X36342534Y-47887602D01*
X36391365Y-47892412D01*
X36439490Y-47901984D01*
X36486445Y-47916228D01*
X36531778Y-47935005D01*
X36575051Y-47958136D01*
X36615850Y-47985396D01*
X36653779Y-48016524D01*
X36688476Y-48051221D01*
X36719604Y-48089150D01*
X36746864Y-48129949D01*
X36769995Y-48173222D01*
X36788772Y-48218555D01*
X36803016Y-48265510D01*
X36812588Y-48313635D01*
X36817398Y-48362466D01*
X36817398Y-48387000D01*
X36818000Y-48387000D01*
X36818000Y-48887000D01*
X35318000Y-48887000D01*
X35318000Y-48387000D01*
X35318602Y-48387000D01*
G37*
%TD.AperFunction*%
%TA.AperFunction,SMDPad,CuDef*%
%TO.P,A5,1*%
%TO.N,+3V3*%
G36*
X36818000Y-49187000D02*
G01*
X36818000Y-49687000D01*
X36817398Y-49687000D01*
X36817398Y-49711534D01*
X36812588Y-49760365D01*
X36803016Y-49808490D01*
X36788772Y-49855445D01*
X36769995Y-49900778D01*
X36746864Y-49944051D01*
X36719604Y-49984850D01*
X36688476Y-50022779D01*
X36653779Y-50057476D01*
X36615850Y-50088604D01*
X36575051Y-50115864D01*
X36531778Y-50138995D01*
X36486445Y-50157772D01*
X36439490Y-50172016D01*
X36391365Y-50181588D01*
X36342534Y-50186398D01*
X36318000Y-50186398D01*
X36318000Y-50187000D01*
X35818000Y-50187000D01*
X35818000Y-50186398D01*
X35793466Y-50186398D01*
X35744635Y-50181588D01*
X35696510Y-50172016D01*
X35649555Y-50157772D01*
X35604222Y-50138995D01*
X35560949Y-50115864D01*
X35520150Y-50088604D01*
X35482221Y-50057476D01*
X35447524Y-50022779D01*
X35416396Y-49984850D01*
X35389136Y-49944051D01*
X35366005Y-49900778D01*
X35347228Y-49855445D01*
X35332984Y-49808490D01*
X35323412Y-49760365D01*
X35318602Y-49711534D01*
X35318602Y-49687000D01*
X35318000Y-49687000D01*
X35318000Y-49187000D01*
X36818000Y-49187000D01*
G37*
%TD.AperFunction*%
%TD*%
%TA.AperFunction,SMDPad,CuDef*%
%TO.P,A3,2*%
%TO.N,/A3*%
G36*
X47510602Y-48387000D02*
G01*
X47510602Y-48362466D01*
X47515412Y-48313635D01*
X47524984Y-48265510D01*
X47539228Y-48218555D01*
X47558005Y-48173222D01*
X47581136Y-48129949D01*
X47608396Y-48089150D01*
X47639524Y-48051221D01*
X47674221Y-48016524D01*
X47712150Y-47985396D01*
X47752949Y-47958136D01*
X47796222Y-47935005D01*
X47841555Y-47916228D01*
X47888510Y-47901984D01*
X47936635Y-47892412D01*
X47985466Y-47887602D01*
X48010000Y-47887602D01*
X48010000Y-47887000D01*
X48510000Y-47887000D01*
X48510000Y-47887602D01*
X48534534Y-47887602D01*
X48583365Y-47892412D01*
X48631490Y-47901984D01*
X48678445Y-47916228D01*
X48723778Y-47935005D01*
X48767051Y-47958136D01*
X48807850Y-47985396D01*
X48845779Y-48016524D01*
X48880476Y-48051221D01*
X48911604Y-48089150D01*
X48938864Y-48129949D01*
X48961995Y-48173222D01*
X48980772Y-48218555D01*
X48995016Y-48265510D01*
X49004588Y-48313635D01*
X49009398Y-48362466D01*
X49009398Y-48387000D01*
X49010000Y-48387000D01*
X49010000Y-48887000D01*
X47510000Y-48887000D01*
X47510000Y-48387000D01*
X47510602Y-48387000D01*
G37*
%TD.AperFunction*%
%TA.AperFunction,SMDPad,CuDef*%
%TO.P,A3,1*%
%TO.N,+3V3*%
G36*
X49010000Y-49187000D02*
G01*
X49010000Y-49687000D01*
X49009398Y-49687000D01*
X49009398Y-49711534D01*
X49004588Y-49760365D01*
X48995016Y-49808490D01*
X48980772Y-49855445D01*
X48961995Y-49900778D01*
X48938864Y-49944051D01*
X48911604Y-49984850D01*
X48880476Y-50022779D01*
X48845779Y-50057476D01*
X48807850Y-50088604D01*
X48767051Y-50115864D01*
X48723778Y-50138995D01*
X48678445Y-50157772D01*
X48631490Y-50172016D01*
X48583365Y-50181588D01*
X48534534Y-50186398D01*
X48510000Y-50186398D01*
X48510000Y-50187000D01*
X48010000Y-50187000D01*
X48010000Y-50186398D01*
X47985466Y-50186398D01*
X47936635Y-50181588D01*
X47888510Y-50172016D01*
X47841555Y-50157772D01*
X47796222Y-50138995D01*
X47752949Y-50115864D01*
X47712150Y-50088604D01*
X47674221Y-50057476D01*
X47639524Y-50022779D01*
X47608396Y-49984850D01*
X47581136Y-49944051D01*
X47558005Y-49900778D01*
X47539228Y-49855445D01*
X47524984Y-49808490D01*
X47515412Y-49760365D01*
X47510602Y-49711534D01*
X47510602Y-49687000D01*
X47510000Y-49687000D01*
X47510000Y-49187000D01*
X49010000Y-49187000D01*
G37*
%TD.AperFunction*%
%TD*%
%TA.AperFunction,SMDPad,CuDef*%
%TO.P,A2,2*%
%TO.N,/A2*%
G36*
X44462602Y-48387000D02*
G01*
X44462602Y-48362466D01*
X44467412Y-48313635D01*
X44476984Y-48265510D01*
X44491228Y-48218555D01*
X44510005Y-48173222D01*
X44533136Y-48129949D01*
X44560396Y-48089150D01*
X44591524Y-48051221D01*
X44626221Y-48016524D01*
X44664150Y-47985396D01*
X44704949Y-47958136D01*
X44748222Y-47935005D01*
X44793555Y-47916228D01*
X44840510Y-47901984D01*
X44888635Y-47892412D01*
X44937466Y-47887602D01*
X44962000Y-47887602D01*
X44962000Y-47887000D01*
X45462000Y-47887000D01*
X45462000Y-47887602D01*
X45486534Y-47887602D01*
X45535365Y-47892412D01*
X45583490Y-47901984D01*
X45630445Y-47916228D01*
X45675778Y-47935005D01*
X45719051Y-47958136D01*
X45759850Y-47985396D01*
X45797779Y-48016524D01*
X45832476Y-48051221D01*
X45863604Y-48089150D01*
X45890864Y-48129949D01*
X45913995Y-48173222D01*
X45932772Y-48218555D01*
X45947016Y-48265510D01*
X45956588Y-48313635D01*
X45961398Y-48362466D01*
X45961398Y-48387000D01*
X45962000Y-48387000D01*
X45962000Y-48887000D01*
X44462000Y-48887000D01*
X44462000Y-48387000D01*
X44462602Y-48387000D01*
G37*
%TD.AperFunction*%
%TA.AperFunction,SMDPad,CuDef*%
%TO.P,A2,1*%
%TO.N,+3V3*%
G36*
X45962000Y-49187000D02*
G01*
X45962000Y-49687000D01*
X45961398Y-49687000D01*
X45961398Y-49711534D01*
X45956588Y-49760365D01*
X45947016Y-49808490D01*
X45932772Y-49855445D01*
X45913995Y-49900778D01*
X45890864Y-49944051D01*
X45863604Y-49984850D01*
X45832476Y-50022779D01*
X45797779Y-50057476D01*
X45759850Y-50088604D01*
X45719051Y-50115864D01*
X45675778Y-50138995D01*
X45630445Y-50157772D01*
X45583490Y-50172016D01*
X45535365Y-50181588D01*
X45486534Y-50186398D01*
X45462000Y-50186398D01*
X45462000Y-50187000D01*
X44962000Y-50187000D01*
X44962000Y-50186398D01*
X44937466Y-50186398D01*
X44888635Y-50181588D01*
X44840510Y-50172016D01*
X44793555Y-50157772D01*
X44748222Y-50138995D01*
X44704949Y-50115864D01*
X44664150Y-50088604D01*
X44626221Y-50057476D01*
X44591524Y-50022779D01*
X44560396Y-49984850D01*
X44533136Y-49944051D01*
X44510005Y-49900778D01*
X44491228Y-49855445D01*
X44476984Y-49808490D01*
X44467412Y-49760365D01*
X44462602Y-49711534D01*
X44462602Y-49687000D01*
X44462000Y-49687000D01*
X44462000Y-49187000D01*
X45962000Y-49187000D01*
G37*
%TD.AperFunction*%
%TD*%
%TA.AperFunction,SMDPad,CuDef*%
%TO.P,A1,2*%
%TO.N,/A1*%
G36*
X41414602Y-48387000D02*
G01*
X41414602Y-48362466D01*
X41419412Y-48313635D01*
X41428984Y-48265510D01*
X41443228Y-48218555D01*
X41462005Y-48173222D01*
X41485136Y-48129949D01*
X41512396Y-48089150D01*
X41543524Y-48051221D01*
X41578221Y-48016524D01*
X41616150Y-47985396D01*
X41656949Y-47958136D01*
X41700222Y-47935005D01*
X41745555Y-47916228D01*
X41792510Y-47901984D01*
X41840635Y-47892412D01*
X41889466Y-47887602D01*
X41914000Y-47887602D01*
X41914000Y-47887000D01*
X42414000Y-47887000D01*
X42414000Y-47887602D01*
X42438534Y-47887602D01*
X42487365Y-47892412D01*
X42535490Y-47901984D01*
X42582445Y-47916228D01*
X42627778Y-47935005D01*
X42671051Y-47958136D01*
X42711850Y-47985396D01*
X42749779Y-48016524D01*
X42784476Y-48051221D01*
X42815604Y-48089150D01*
X42842864Y-48129949D01*
X42865995Y-48173222D01*
X42884772Y-48218555D01*
X42899016Y-48265510D01*
X42908588Y-48313635D01*
X42913398Y-48362466D01*
X42913398Y-48387000D01*
X42914000Y-48387000D01*
X42914000Y-48887000D01*
X41414000Y-48887000D01*
X41414000Y-48387000D01*
X41414602Y-48387000D01*
G37*
%TD.AperFunction*%
%TA.AperFunction,SMDPad,CuDef*%
%TO.P,A1,1*%
%TO.N,+3V3*%
G36*
X42914000Y-49187000D02*
G01*
X42914000Y-49687000D01*
X42913398Y-49687000D01*
X42913398Y-49711534D01*
X42908588Y-49760365D01*
X42899016Y-49808490D01*
X42884772Y-49855445D01*
X42865995Y-49900778D01*
X42842864Y-49944051D01*
X42815604Y-49984850D01*
X42784476Y-50022779D01*
X42749779Y-50057476D01*
X42711850Y-50088604D01*
X42671051Y-50115864D01*
X42627778Y-50138995D01*
X42582445Y-50157772D01*
X42535490Y-50172016D01*
X42487365Y-50181588D01*
X42438534Y-50186398D01*
X42414000Y-50186398D01*
X42414000Y-50187000D01*
X41914000Y-50187000D01*
X41914000Y-50186398D01*
X41889466Y-50186398D01*
X41840635Y-50181588D01*
X41792510Y-50172016D01*
X41745555Y-50157772D01*
X41700222Y-50138995D01*
X41656949Y-50115864D01*
X41616150Y-50088604D01*
X41578221Y-50057476D01*
X41543524Y-50022779D01*
X41512396Y-49984850D01*
X41485136Y-49944051D01*
X41462005Y-49900778D01*
X41443228Y-49855445D01*
X41428984Y-49808490D01*
X41419412Y-49760365D01*
X41414602Y-49711534D01*
X41414602Y-49687000D01*
X41414000Y-49687000D01*
X41414000Y-49187000D01*
X42914000Y-49187000D01*
G37*
%TD.AperFunction*%
%TD*%
%TA.AperFunction,SMDPad,CuDef*%
%TO.P,A0,2*%
%TO.N,/A0*%
G36*
X38366602Y-48387000D02*
G01*
X38366602Y-48362466D01*
X38371412Y-48313635D01*
X38380984Y-48265510D01*
X38395228Y-48218555D01*
X38414005Y-48173222D01*
X38437136Y-48129949D01*
X38464396Y-48089150D01*
X38495524Y-48051221D01*
X38530221Y-48016524D01*
X38568150Y-47985396D01*
X38608949Y-47958136D01*
X38652222Y-47935005D01*
X38697555Y-47916228D01*
X38744510Y-47901984D01*
X38792635Y-47892412D01*
X38841466Y-47887602D01*
X38866000Y-47887602D01*
X38866000Y-47887000D01*
X39366000Y-47887000D01*
X39366000Y-47887602D01*
X39390534Y-47887602D01*
X39439365Y-47892412D01*
X39487490Y-47901984D01*
X39534445Y-47916228D01*
X39579778Y-47935005D01*
X39623051Y-47958136D01*
X39663850Y-47985396D01*
X39701779Y-48016524D01*
X39736476Y-48051221D01*
X39767604Y-48089150D01*
X39794864Y-48129949D01*
X39817995Y-48173222D01*
X39836772Y-48218555D01*
X39851016Y-48265510D01*
X39860588Y-48313635D01*
X39865398Y-48362466D01*
X39865398Y-48387000D01*
X39866000Y-48387000D01*
X39866000Y-48887000D01*
X38366000Y-48887000D01*
X38366000Y-48387000D01*
X38366602Y-48387000D01*
G37*
%TD.AperFunction*%
%TA.AperFunction,SMDPad,CuDef*%
%TO.P,A0,1*%
%TO.N,+3V3*%
G36*
X39866000Y-49187000D02*
G01*
X39866000Y-49687000D01*
X39865398Y-49687000D01*
X39865398Y-49711534D01*
X39860588Y-49760365D01*
X39851016Y-49808490D01*
X39836772Y-49855445D01*
X39817995Y-49900778D01*
X39794864Y-49944051D01*
X39767604Y-49984850D01*
X39736476Y-50022779D01*
X39701779Y-50057476D01*
X39663850Y-50088604D01*
X39623051Y-50115864D01*
X39579778Y-50138995D01*
X39534445Y-50157772D01*
X39487490Y-50172016D01*
X39439365Y-50181588D01*
X39390534Y-50186398D01*
X39366000Y-50186398D01*
X39366000Y-50187000D01*
X38866000Y-50187000D01*
X38866000Y-50186398D01*
X38841466Y-50186398D01*
X38792635Y-50181588D01*
X38744510Y-50172016D01*
X38697555Y-50157772D01*
X38652222Y-50138995D01*
X38608949Y-50115864D01*
X38568150Y-50088604D01*
X38530221Y-50057476D01*
X38495524Y-50022779D01*
X38464396Y-49984850D01*
X38437136Y-49944051D01*
X38414005Y-49900778D01*
X38395228Y-49855445D01*
X38380984Y-49808490D01*
X38371412Y-49760365D01*
X38366602Y-49711534D01*
X38366602Y-49687000D01*
X38366000Y-49687000D01*
X38366000Y-49187000D01*
X39866000Y-49187000D01*
G37*
%TD.AperFunction*%
%TD*%
D10*
%TO.P,J2,5*%
%TO.N,Net-(J1-Pad5)*%
X30480000Y-46990000D03*
%TO.P,J2,4*%
%TO.N,Net-(J1-Pad4)*%
X30480000Y-44450000D03*
%TO.P,J2,3*%
%TO.N,GND*%
X30480000Y-41910000D03*
%TO.P,J2,2*%
%TO.N,+12V*%
X30480000Y-39370000D03*
D11*
%TO.P,J2,1*%
%TO.N,+3V3*%
X30480000Y-36830000D03*
%TD*%
D10*
%TO.P,J1,5*%
%TO.N,Net-(J1-Pad5)*%
X26670000Y-46990000D03*
%TO.P,J1,4*%
%TO.N,Net-(J1-Pad4)*%
X26670000Y-44450000D03*
%TO.P,J1,3*%
%TO.N,GND*%
X26670000Y-41910000D03*
%TO.P,J1,2*%
%TO.N,+12V*%
X26670000Y-39370000D03*
D11*
%TO.P,J1,1*%
%TO.N,+3V3*%
X26670000Y-36830000D03*
%TD*%
D16*
%TO.N,GND*%
X34925000Y-42545000D03*
X34290000Y-45085000D03*
X36830000Y-45720000D03*
X43815000Y-46355000D03*
X43815000Y-43180000D03*
X46990000Y-43815000D03*
X50165000Y-43815000D03*
X38640273Y-43817759D03*
D17*
X54102000Y-38481000D03*
D16*
X34417000Y-48895000D03*
D17*
%TO.N,+12V*%
X54102000Y-34925000D03*
%TO.N,+3V3*%
X25781000Y-49784000D03*
%TD*%
D18*
%TO.N,GND*%
X36183000Y-42025000D02*
X36023000Y-42185000D01*
X36183000Y-41160000D02*
X36183000Y-42025000D01*
X37973000Y-39370000D02*
X36183000Y-41160000D01*
X43750500Y-46355000D02*
X42164000Y-44768500D01*
X43815000Y-46355000D02*
X43750500Y-46355000D01*
X39116000Y-44293486D02*
X38640273Y-43817759D01*
X39116000Y-44768500D02*
X39116000Y-44293486D01*
D19*
%TO.N,+12V*%
X26670000Y-39370000D02*
X30480000Y-39370000D01*
X25369999Y-32945999D02*
X23114000Y-30690000D01*
X25369999Y-38069999D02*
X25369999Y-32945999D01*
X26670000Y-39370000D02*
X25369999Y-38069999D01*
X25369999Y-32664001D02*
X27940000Y-30094000D01*
X25369999Y-32945999D02*
X25369999Y-32664001D01*
X30004645Y-32945999D02*
X31750000Y-31200644D01*
X25369999Y-32945999D02*
X30004645Y-32945999D01*
X57361057Y-23095943D02*
X58613000Y-21844000D01*
X57361057Y-26055540D02*
X57361057Y-23095943D01*
X54019000Y-35008000D02*
X54102000Y-34925000D01*
X52324000Y-35008000D02*
X54019000Y-35008000D01*
X31750000Y-31200644D02*
X31750000Y-28956000D01*
X55220114Y-20955000D02*
X57361057Y-23095943D01*
X32131000Y-20955000D02*
X55220114Y-20955000D01*
X30537999Y-22548001D02*
X32131000Y-20955000D01*
X30537999Y-27743999D02*
X30537999Y-22548001D01*
X31750000Y-28956000D02*
X30537999Y-27743999D01*
D18*
%TO.N,Net-(J1-Pad5)*%
X30480000Y-46990000D02*
X26670000Y-46990000D01*
X33426510Y-44043490D02*
X30480000Y-46990000D01*
X36014510Y-44043490D02*
X33426510Y-44043490D01*
X37323000Y-42735000D02*
X36014510Y-44043490D01*
X37323000Y-42185000D02*
X37323000Y-42735000D01*
%TO.N,Net-(J1-Pad4)*%
X30480000Y-44450000D02*
X26670000Y-44450000D01*
X31336520Y-43593480D02*
X30480000Y-44450000D01*
X35814520Y-43593480D02*
X31336520Y-43593480D01*
X36673000Y-42735000D02*
X35814520Y-43593480D01*
X36673000Y-42185000D02*
X36673000Y-42735000D01*
D20*
%TO.N,+3V3*%
X26670000Y-36830000D02*
X30480000Y-36830000D01*
D18*
X38706364Y-49687000D02*
X39116000Y-49687000D01*
X37973000Y-48953636D02*
X38706364Y-49687000D01*
X37973000Y-42185000D02*
X37973000Y-48953636D01*
X48260000Y-49687000D02*
X51308000Y-49687000D01*
X45212000Y-49687000D02*
X48260000Y-49687000D01*
X42164000Y-49687000D02*
X45212000Y-49687000D01*
X36068000Y-49687000D02*
X39116000Y-49687000D01*
X42164000Y-49687000D02*
X39116000Y-49687000D01*
X32350990Y-50961010D02*
X26577010Y-50961010D01*
X33401000Y-49911000D02*
X32350990Y-50961010D01*
X25781000Y-50165000D02*
X25781000Y-49784000D01*
X26577010Y-50961010D02*
X25781000Y-50165000D01*
X35844000Y-49911000D02*
X36068000Y-49687000D01*
X33401000Y-49911000D02*
X35844000Y-49911000D01*
%TO.N,Net-(R7-Pad1)*%
X33684000Y-40670000D02*
X35158000Y-40670000D01*
X33147000Y-40133000D02*
X33684000Y-40670000D01*
%TO.N,Net-(CR2-Pad8)*%
X34608000Y-40020000D02*
X31750000Y-37162000D01*
X35158000Y-40020000D02*
X34608000Y-40020000D01*
X33202999Y-24667645D02*
X34290000Y-23580644D01*
X33202999Y-31356407D02*
X33202999Y-24667645D01*
X31750000Y-32809406D02*
X33202999Y-31356407D01*
X31750000Y-37162000D02*
X31750000Y-32809406D01*
%TO.N,Net-(CR2-Pad7)*%
X34608000Y-39370000D02*
X32258000Y-37020000D01*
X35158000Y-39370000D02*
X34608000Y-39370000D01*
X35742999Y-24667645D02*
X36830000Y-23580644D01*
X35742999Y-31356407D02*
X35742999Y-24667645D01*
X32258000Y-34841406D02*
X35742999Y-31356407D01*
X32258000Y-37020000D02*
X32258000Y-34841406D01*
%TO.N,Net-(CR2-Pad6)*%
X38282999Y-24667645D02*
X39370000Y-23580644D01*
X37351761Y-32287645D02*
X38282999Y-31356407D01*
X36419355Y-32287645D02*
X37351761Y-32287645D01*
X32708010Y-35998990D02*
X36419355Y-32287645D01*
X32708010Y-36833600D02*
X32708010Y-35998990D01*
X34101410Y-38227000D02*
X32708010Y-36833600D01*
X34115000Y-38227000D02*
X34101410Y-38227000D01*
X34608000Y-38720000D02*
X34115000Y-38227000D01*
X38282999Y-31356407D02*
X38282999Y-24667645D01*
X35158000Y-38720000D02*
X34608000Y-38720000D01*
%TO.N,Net-(CR2-Pad5)*%
X40822999Y-24667645D02*
X41910000Y-23580644D01*
X40822999Y-31722405D02*
X40822999Y-24667645D01*
X34282990Y-37744990D02*
X34282990Y-36472190D01*
X40257759Y-32287645D02*
X40822999Y-31722405D01*
X34608000Y-38070000D02*
X34282990Y-37744990D01*
X38467535Y-32287645D02*
X40257759Y-32287645D01*
X34282990Y-36472190D02*
X38467535Y-32287645D01*
X35158000Y-38070000D02*
X34608000Y-38070000D01*
%TO.N,Net-(CR2-Pad4)*%
X35158000Y-36233590D02*
X38440600Y-32950990D01*
X35158000Y-37420000D02*
X35158000Y-36233590D01*
X43362999Y-24667645D02*
X44450000Y-23580644D01*
X43362999Y-31722405D02*
X43362999Y-24667645D01*
X42134414Y-32950990D02*
X43362999Y-31722405D01*
X38440600Y-32950990D02*
X42134414Y-32950990D01*
%TO.N,Net-(CR2-Pad3)*%
X36023000Y-36005000D02*
X38627000Y-33401000D01*
X36023000Y-36555000D02*
X36023000Y-36005000D01*
X45902999Y-24667645D02*
X46990000Y-23580644D01*
X43858406Y-33401000D02*
X45902999Y-31356407D01*
X45902999Y-31356407D02*
X45902999Y-24667645D01*
X38627000Y-33401000D02*
X43858406Y-33401000D01*
%TO.N,Net-(CR2-Pad2)*%
X36673000Y-36042862D02*
X38864852Y-33851010D01*
X36673000Y-36555000D02*
X36673000Y-36042862D01*
X48442999Y-24667645D02*
X49530000Y-23580644D01*
X48442999Y-31356407D02*
X48442999Y-24667645D01*
X45948396Y-33851010D02*
X48442999Y-31356407D01*
X38864852Y-33851010D02*
X45948396Y-33851010D01*
%TO.N,Net-(CR2-Pad1)*%
X50982999Y-24667645D02*
X52070000Y-23580644D01*
X37323000Y-36555000D02*
X37323000Y-36042862D01*
X37323000Y-36042862D02*
X39064842Y-34301020D01*
X39064842Y-34301020D02*
X48038386Y-34301020D01*
X48038386Y-34301020D02*
X50982999Y-31356407D01*
X50982999Y-31356407D02*
X50982999Y-24667645D01*
%TO.N,Net-(CR1-Pad8)*%
X39876970Y-34751030D02*
X48433970Y-34751030D01*
X38623000Y-36005000D02*
X39876970Y-34751030D01*
X38623000Y-36555000D02*
X38623000Y-36005000D01*
X48433970Y-34751030D02*
X50419000Y-32766000D01*
X63894056Y-29682541D02*
X64981057Y-28595540D01*
X57205294Y-29682541D02*
X63894056Y-29682541D01*
X54121835Y-32766000D02*
X57205294Y-29682541D01*
X50419000Y-32766000D02*
X54121835Y-32766000D01*
%TO.N,Net-(CR1-Pad7)*%
X63894056Y-32222541D02*
X64981057Y-31135540D01*
X57267525Y-32222541D02*
X63894056Y-32222541D01*
X56274056Y-33216010D02*
X57267525Y-32222541D01*
X51702800Y-33216010D02*
X56274056Y-33216010D01*
X49717770Y-35201040D02*
X51702800Y-33216010D01*
X40076960Y-35201040D02*
X49717770Y-35201040D01*
X39273000Y-36005000D02*
X40076960Y-35201040D01*
X39273000Y-36555000D02*
X39273000Y-36005000D01*
%TO.N,Net-(CR1-Pad6)*%
X39923000Y-36555000D02*
X41085138Y-36555000D01*
X54997845Y-36969990D02*
X57205294Y-34762541D01*
X63894056Y-34762541D02*
X64981057Y-33675540D01*
X57205294Y-34762541D02*
X63894056Y-34762541D01*
X41500128Y-36969990D02*
X54997845Y-36969990D01*
X41085138Y-36555000D02*
X41500128Y-36969990D01*
%TO.N,Net-(CR1-Pad5)*%
X63894056Y-37302541D02*
X64981057Y-36215540D01*
X57205294Y-37302541D02*
X63894056Y-37302541D01*
X51561810Y-40259000D02*
X54248835Y-40259000D01*
X48722810Y-37420000D02*
X51561810Y-40259000D01*
X54248835Y-40259000D02*
X57205294Y-37302541D01*
X40788000Y-37420000D02*
X48722810Y-37420000D01*
%TO.N,Net-(CR1-Pad4)*%
X40788000Y-38070000D02*
X47736208Y-38070000D01*
X63894056Y-39842541D02*
X64981057Y-38755540D01*
X57205294Y-39842541D02*
X63894056Y-39842541D01*
X56280835Y-40767000D02*
X57205294Y-39842541D01*
X50433208Y-40767000D02*
X56280835Y-40767000D01*
X47736208Y-38070000D02*
X50433208Y-40767000D01*
%TO.N,Net-(CR1-Pad3)*%
X40788000Y-38720000D02*
X47749798Y-38720000D01*
X63528058Y-42748539D02*
X64981057Y-41295540D01*
X51778337Y-42748539D02*
X63528058Y-42748539D01*
X47749798Y-38720000D02*
X51778337Y-42748539D01*
%TO.N,Net-(CR1-Pad2)*%
X63894056Y-44922541D02*
X64981057Y-43835540D01*
X53315929Y-44922541D02*
X63894056Y-44922541D01*
X47763388Y-39370000D02*
X53315929Y-44922541D01*
X40788000Y-39370000D02*
X47763388Y-39370000D01*
%TO.N,Net-(CR1-Pad1)*%
X63894056Y-47462541D02*
X64981057Y-46375540D01*
X55219519Y-47462541D02*
X63894056Y-47462541D01*
X47776978Y-40020000D02*
X55219519Y-47462541D01*
X40788000Y-40020000D02*
X47776978Y-40020000D01*
D20*
%TO.N,/A0*%
X39116000Y-48387000D02*
X39116000Y-46418500D01*
D18*
X39916010Y-44351032D02*
X39916010Y-45618490D01*
X38623000Y-42185000D02*
X38623000Y-43058022D01*
X39916010Y-45618490D02*
X39116000Y-46418500D01*
X38623000Y-43058022D02*
X39916010Y-44351032D01*
D20*
%TO.N,/A1*%
X42164000Y-48387000D02*
X42164000Y-46418500D01*
D18*
X41363990Y-45618490D02*
X42164000Y-46418500D01*
X41363990Y-44825990D02*
X41363990Y-45618490D01*
X39273000Y-42735000D02*
X41363990Y-44825990D01*
X39273000Y-42185000D02*
X39273000Y-42735000D01*
D20*
%TO.N,/A2*%
X45212000Y-48387000D02*
X45212000Y-46418500D01*
D18*
X45031478Y-46418500D02*
X45212000Y-46418500D01*
X40797978Y-42185000D02*
X45031478Y-46418500D01*
X39923000Y-42185000D02*
X40797978Y-42185000D01*
D20*
%TO.N,/A3*%
X48260000Y-46418500D02*
X48260000Y-48387000D01*
D18*
X48079478Y-46418500D02*
X48260000Y-46418500D01*
X42980978Y-41320000D02*
X48079478Y-46418500D01*
X40788000Y-41320000D02*
X42980978Y-41320000D01*
D20*
%TO.N,/A4*%
X51308000Y-46418500D02*
X51308000Y-48387000D01*
D18*
X45378978Y-40670000D02*
X51127478Y-46418500D01*
X51127478Y-46418500D02*
X51308000Y-46418500D01*
X40788000Y-40670000D02*
X45378978Y-40670000D01*
D20*
%TO.N,/A5*%
X36068000Y-48387000D02*
X36068000Y-46418500D01*
D18*
X26105999Y-48165001D02*
X34321499Y-48165001D01*
X25494999Y-47554001D02*
X26105999Y-48165001D01*
X25494999Y-43885999D02*
X25494999Y-47554001D01*
X26237524Y-43143474D02*
X25494999Y-43885999D01*
X34321499Y-48165001D02*
X36068000Y-46418500D01*
X33334530Y-43143470D02*
X26237524Y-43143474D01*
X35158000Y-41320000D02*
X33334530Y-43143470D01*
%TD*%
D21*
%TO.N,GND*%
X69750001Y-59750000D02*
X20250000Y-59750000D01*
X20250000Y-55822329D01*
X64546000Y-55822329D01*
X64546000Y-56191671D01*
X64618056Y-56553917D01*
X64759397Y-56895145D01*
X64964593Y-57202243D01*
X65225757Y-57463407D01*
X65532855Y-57668603D01*
X65874083Y-57809944D01*
X66236329Y-57882000D01*
X66605671Y-57882000D01*
X66967917Y-57809944D01*
X67309145Y-57668603D01*
X67616243Y-57463407D01*
X67877407Y-57202243D01*
X68082603Y-56895145D01*
X68223944Y-56553917D01*
X68296000Y-56191671D01*
X68296000Y-55822329D01*
X68223944Y-55460083D01*
X68082603Y-55118855D01*
X67877407Y-54811757D01*
X67616243Y-54550593D01*
X67309145Y-54345397D01*
X66967917Y-54204056D01*
X66605671Y-54132000D01*
X66236329Y-54132000D01*
X65874083Y-54204056D01*
X65532855Y-54345397D01*
X65225757Y-54550593D01*
X64964593Y-54811757D01*
X64759397Y-55118855D01*
X64618056Y-55460083D01*
X64546000Y-55822329D01*
X20250000Y-55822329D01*
X20250000Y-53737197D01*
X21227000Y-53737197D01*
X21227000Y-53958803D01*
X21270233Y-54176150D01*
X21355038Y-54380887D01*
X21478156Y-54565145D01*
X21634855Y-54721844D01*
X21819113Y-54844962D01*
X22023850Y-54929767D01*
X22241197Y-54973000D01*
X22462803Y-54973000D01*
X22680150Y-54929767D01*
X22884887Y-54844962D01*
X23069145Y-54721844D01*
X23225844Y-54565145D01*
X23348962Y-54380887D01*
X23433767Y-54176150D01*
X23477000Y-53958803D01*
X23477000Y-53737197D01*
X23767000Y-53737197D01*
X23767000Y-53958803D01*
X23810233Y-54176150D01*
X23895038Y-54380887D01*
X24018156Y-54565145D01*
X24174855Y-54721844D01*
X24359113Y-54844962D01*
X24563850Y-54929767D01*
X24781197Y-54973000D01*
X25002803Y-54973000D01*
X25220150Y-54929767D01*
X25424887Y-54844962D01*
X25609145Y-54721844D01*
X25765844Y-54565145D01*
X25888962Y-54380887D01*
X25973767Y-54176150D01*
X26017000Y-53958803D01*
X26017000Y-53737197D01*
X26307000Y-53737197D01*
X26307000Y-53958803D01*
X26350233Y-54176150D01*
X26435038Y-54380887D01*
X26558156Y-54565145D01*
X26714855Y-54721844D01*
X26899113Y-54844962D01*
X27103850Y-54929767D01*
X27321197Y-54973000D01*
X27542803Y-54973000D01*
X27760150Y-54929767D01*
X27964887Y-54844962D01*
X28149145Y-54721844D01*
X28305844Y-54565145D01*
X28428962Y-54380887D01*
X28513767Y-54176150D01*
X28557000Y-53958803D01*
X28557000Y-53737197D01*
X28847000Y-53737197D01*
X28847000Y-53958803D01*
X28890233Y-54176150D01*
X28975038Y-54380887D01*
X29098156Y-54565145D01*
X29254855Y-54721844D01*
X29439113Y-54844962D01*
X29643850Y-54929767D01*
X29861197Y-54973000D01*
X30082803Y-54973000D01*
X30300150Y-54929767D01*
X30504887Y-54844962D01*
X30689145Y-54721844D01*
X30845844Y-54565145D01*
X30968962Y-54380887D01*
X31053767Y-54176150D01*
X31097000Y-53958803D01*
X31097000Y-53737197D01*
X31387000Y-53737197D01*
X31387000Y-53958803D01*
X31430233Y-54176150D01*
X31515038Y-54380887D01*
X31638156Y-54565145D01*
X31794855Y-54721844D01*
X31979113Y-54844962D01*
X32183850Y-54929767D01*
X32401197Y-54973000D01*
X32622803Y-54973000D01*
X32840150Y-54929767D01*
X33044887Y-54844962D01*
X33229145Y-54721844D01*
X33385844Y-54565145D01*
X33508962Y-54380887D01*
X33593767Y-54176150D01*
X33637000Y-53958803D01*
X33637000Y-53737197D01*
X33927000Y-53737197D01*
X33927000Y-53958803D01*
X33970233Y-54176150D01*
X34055038Y-54380887D01*
X34178156Y-54565145D01*
X34334855Y-54721844D01*
X34519113Y-54844962D01*
X34723850Y-54929767D01*
X34941197Y-54973000D01*
X35162803Y-54973000D01*
X35380150Y-54929767D01*
X35584887Y-54844962D01*
X35769145Y-54721844D01*
X35925844Y-54565145D01*
X36048962Y-54380887D01*
X36133767Y-54176150D01*
X36177000Y-53958803D01*
X36177000Y-53737197D01*
X36467000Y-53737197D01*
X36467000Y-53958803D01*
X36510233Y-54176150D01*
X36595038Y-54380887D01*
X36718156Y-54565145D01*
X36874855Y-54721844D01*
X37059113Y-54844962D01*
X37263850Y-54929767D01*
X37481197Y-54973000D01*
X37702803Y-54973000D01*
X37920150Y-54929767D01*
X38124887Y-54844962D01*
X38309145Y-54721844D01*
X38465844Y-54565145D01*
X38588962Y-54380887D01*
X38673767Y-54176150D01*
X38717000Y-53958803D01*
X38717000Y-53737197D01*
X39007000Y-53737197D01*
X39007000Y-53958803D01*
X39050233Y-54176150D01*
X39135038Y-54380887D01*
X39258156Y-54565145D01*
X39414855Y-54721844D01*
X39599113Y-54844962D01*
X39803850Y-54929767D01*
X40021197Y-54973000D01*
X40242803Y-54973000D01*
X40460150Y-54929767D01*
X40664887Y-54844962D01*
X40849145Y-54721844D01*
X41005844Y-54565145D01*
X41128962Y-54380887D01*
X41213767Y-54176150D01*
X41257000Y-53958803D01*
X41257000Y-53737197D01*
X41547000Y-53737197D01*
X41547000Y-53958803D01*
X41590233Y-54176150D01*
X41675038Y-54380887D01*
X41798156Y-54565145D01*
X41954855Y-54721844D01*
X42139113Y-54844962D01*
X42343850Y-54929767D01*
X42561197Y-54973000D01*
X42782803Y-54973000D01*
X43000150Y-54929767D01*
X43204887Y-54844962D01*
X43389145Y-54721844D01*
X43545844Y-54565145D01*
X43668962Y-54380887D01*
X43753767Y-54176150D01*
X43797000Y-53958803D01*
X43797000Y-53737197D01*
X44087000Y-53737197D01*
X44087000Y-53958803D01*
X44130233Y-54176150D01*
X44215038Y-54380887D01*
X44338156Y-54565145D01*
X44494855Y-54721844D01*
X44679113Y-54844962D01*
X44883850Y-54929767D01*
X45101197Y-54973000D01*
X45322803Y-54973000D01*
X45540150Y-54929767D01*
X45744887Y-54844962D01*
X45929145Y-54721844D01*
X46085844Y-54565145D01*
X46208962Y-54380887D01*
X46293767Y-54176150D01*
X46337000Y-53958803D01*
X46337000Y-53737197D01*
X46627000Y-53737197D01*
X46627000Y-53958803D01*
X46670233Y-54176150D01*
X46755038Y-54380887D01*
X46878156Y-54565145D01*
X47034855Y-54721844D01*
X47219113Y-54844962D01*
X47423850Y-54929767D01*
X47641197Y-54973000D01*
X47862803Y-54973000D01*
X48080150Y-54929767D01*
X48284887Y-54844962D01*
X48469145Y-54721844D01*
X48625844Y-54565145D01*
X48748962Y-54380887D01*
X48833767Y-54176150D01*
X48877000Y-53958803D01*
X48877000Y-53737197D01*
X49167000Y-53737197D01*
X49167000Y-53958803D01*
X49210233Y-54176150D01*
X49295038Y-54380887D01*
X49418156Y-54565145D01*
X49574855Y-54721844D01*
X49759113Y-54844962D01*
X49963850Y-54929767D01*
X50181197Y-54973000D01*
X50402803Y-54973000D01*
X50620150Y-54929767D01*
X50824887Y-54844962D01*
X51009145Y-54721844D01*
X51165844Y-54565145D01*
X51288962Y-54380887D01*
X51373767Y-54176150D01*
X51417000Y-53958803D01*
X51417000Y-53737197D01*
X51707000Y-53737197D01*
X51707000Y-53958803D01*
X51750233Y-54176150D01*
X51835038Y-54380887D01*
X51958156Y-54565145D01*
X52114855Y-54721844D01*
X52299113Y-54844962D01*
X52503850Y-54929767D01*
X52721197Y-54973000D01*
X52942803Y-54973000D01*
X53160150Y-54929767D01*
X53364887Y-54844962D01*
X53549145Y-54721844D01*
X53705844Y-54565145D01*
X53828962Y-54380887D01*
X53913767Y-54176150D01*
X53957000Y-53958803D01*
X53957000Y-53737197D01*
X54247000Y-53737197D01*
X54247000Y-53958803D01*
X54290233Y-54176150D01*
X54375038Y-54380887D01*
X54498156Y-54565145D01*
X54654855Y-54721844D01*
X54839113Y-54844962D01*
X55043850Y-54929767D01*
X55261197Y-54973000D01*
X55482803Y-54973000D01*
X55700150Y-54929767D01*
X55904887Y-54844962D01*
X56089145Y-54721844D01*
X56245844Y-54565145D01*
X56368962Y-54380887D01*
X56453767Y-54176150D01*
X56497000Y-53958803D01*
X56497000Y-53737197D01*
X56787000Y-53737197D01*
X56787000Y-53958803D01*
X56830233Y-54176150D01*
X56915038Y-54380887D01*
X57038156Y-54565145D01*
X57194855Y-54721844D01*
X57379113Y-54844962D01*
X57583850Y-54929767D01*
X57801197Y-54973000D01*
X58022803Y-54973000D01*
X58240150Y-54929767D01*
X58444887Y-54844962D01*
X58629145Y-54721844D01*
X58785844Y-54565145D01*
X58908962Y-54380887D01*
X58993767Y-54176150D01*
X59037000Y-53958803D01*
X59037000Y-53737197D01*
X58993767Y-53519850D01*
X58908962Y-53315113D01*
X58785844Y-53130855D01*
X58652989Y-52998000D01*
X59325670Y-52998000D01*
X59325670Y-54698000D01*
X59330980Y-54751909D01*
X59346704Y-54803747D01*
X59372240Y-54851521D01*
X59406605Y-54893395D01*
X59448479Y-54927760D01*
X59496253Y-54953296D01*
X59548091Y-54969020D01*
X59602000Y-54974330D01*
X61302000Y-54974330D01*
X61355909Y-54969020D01*
X61407747Y-54953296D01*
X61455521Y-54927760D01*
X61497395Y-54893395D01*
X61531760Y-54851521D01*
X61557296Y-54803747D01*
X61573020Y-54751909D01*
X61578330Y-54698000D01*
X61578330Y-52998000D01*
X61573020Y-52944091D01*
X61557296Y-52892253D01*
X61531760Y-52844479D01*
X61497395Y-52802605D01*
X61455521Y-52768240D01*
X61407747Y-52742704D01*
X61355909Y-52726980D01*
X61302000Y-52721670D01*
X59602000Y-52721670D01*
X59548091Y-52726980D01*
X59496253Y-52742704D01*
X59448479Y-52768240D01*
X59406605Y-52802605D01*
X59372240Y-52844479D01*
X59346704Y-52892253D01*
X59330980Y-52944091D01*
X59325670Y-52998000D01*
X58652989Y-52998000D01*
X58629145Y-52974156D01*
X58444887Y-52851038D01*
X58240150Y-52766233D01*
X58022803Y-52723000D01*
X57801197Y-52723000D01*
X57583850Y-52766233D01*
X57379113Y-52851038D01*
X57194855Y-52974156D01*
X57038156Y-53130855D01*
X56915038Y-53315113D01*
X56830233Y-53519850D01*
X56787000Y-53737197D01*
X56497000Y-53737197D01*
X56453767Y-53519850D01*
X56368962Y-53315113D01*
X56245844Y-53130855D01*
X56089145Y-52974156D01*
X55904887Y-52851038D01*
X55700150Y-52766233D01*
X55482803Y-52723000D01*
X55261197Y-52723000D01*
X55043850Y-52766233D01*
X54839113Y-52851038D01*
X54654855Y-52974156D01*
X54498156Y-53130855D01*
X54375038Y-53315113D01*
X54290233Y-53519850D01*
X54247000Y-53737197D01*
X53957000Y-53737197D01*
X53913767Y-53519850D01*
X53828962Y-53315113D01*
X53705844Y-53130855D01*
X53549145Y-52974156D01*
X53364887Y-52851038D01*
X53160150Y-52766233D01*
X52942803Y-52723000D01*
X52721197Y-52723000D01*
X52503850Y-52766233D01*
X52299113Y-52851038D01*
X52114855Y-52974156D01*
X51958156Y-53130855D01*
X51835038Y-53315113D01*
X51750233Y-53519850D01*
X51707000Y-53737197D01*
X51417000Y-53737197D01*
X51373767Y-53519850D01*
X51288962Y-53315113D01*
X51165844Y-53130855D01*
X51009145Y-52974156D01*
X50824887Y-52851038D01*
X50620150Y-52766233D01*
X50402803Y-52723000D01*
X50181197Y-52723000D01*
X49963850Y-52766233D01*
X49759113Y-52851038D01*
X49574855Y-52974156D01*
X49418156Y-53130855D01*
X49295038Y-53315113D01*
X49210233Y-53519850D01*
X49167000Y-53737197D01*
X48877000Y-53737197D01*
X48833767Y-53519850D01*
X48748962Y-53315113D01*
X48625844Y-53130855D01*
X48469145Y-52974156D01*
X48284887Y-52851038D01*
X48080150Y-52766233D01*
X47862803Y-52723000D01*
X47641197Y-52723000D01*
X47423850Y-52766233D01*
X47219113Y-52851038D01*
X47034855Y-52974156D01*
X46878156Y-53130855D01*
X46755038Y-53315113D01*
X46670233Y-53519850D01*
X46627000Y-53737197D01*
X46337000Y-53737197D01*
X46293767Y-53519850D01*
X46208962Y-53315113D01*
X46085844Y-53130855D01*
X45929145Y-52974156D01*
X45744887Y-52851038D01*
X45540150Y-52766233D01*
X45322803Y-52723000D01*
X45101197Y-52723000D01*
X44883850Y-52766233D01*
X44679113Y-52851038D01*
X44494855Y-52974156D01*
X44338156Y-53130855D01*
X44215038Y-53315113D01*
X44130233Y-53519850D01*
X44087000Y-53737197D01*
X43797000Y-53737197D01*
X43753767Y-53519850D01*
X43668962Y-53315113D01*
X43545844Y-53130855D01*
X43389145Y-52974156D01*
X43204887Y-52851038D01*
X43000150Y-52766233D01*
X42782803Y-52723000D01*
X42561197Y-52723000D01*
X42343850Y-52766233D01*
X42139113Y-52851038D01*
X41954855Y-52974156D01*
X41798156Y-53130855D01*
X41675038Y-53315113D01*
X41590233Y-53519850D01*
X41547000Y-53737197D01*
X41257000Y-53737197D01*
X41213767Y-53519850D01*
X41128962Y-53315113D01*
X41005844Y-53130855D01*
X40849145Y-52974156D01*
X40664887Y-52851038D01*
X40460150Y-52766233D01*
X40242803Y-52723000D01*
X40021197Y-52723000D01*
X39803850Y-52766233D01*
X39599113Y-52851038D01*
X39414855Y-52974156D01*
X39258156Y-53130855D01*
X39135038Y-53315113D01*
X39050233Y-53519850D01*
X39007000Y-53737197D01*
X38717000Y-53737197D01*
X38673767Y-53519850D01*
X38588962Y-53315113D01*
X38465844Y-53130855D01*
X38309145Y-52974156D01*
X38124887Y-52851038D01*
X37920150Y-52766233D01*
X37702803Y-52723000D01*
X37481197Y-52723000D01*
X37263850Y-52766233D01*
X37059113Y-52851038D01*
X36874855Y-52974156D01*
X36718156Y-53130855D01*
X36595038Y-53315113D01*
X36510233Y-53519850D01*
X36467000Y-53737197D01*
X36177000Y-53737197D01*
X36133767Y-53519850D01*
X36048962Y-53315113D01*
X35925844Y-53130855D01*
X35769145Y-52974156D01*
X35584887Y-52851038D01*
X35380150Y-52766233D01*
X35162803Y-52723000D01*
X34941197Y-52723000D01*
X34723850Y-52766233D01*
X34519113Y-52851038D01*
X34334855Y-52974156D01*
X34178156Y-53130855D01*
X34055038Y-53315113D01*
X33970233Y-53519850D01*
X33927000Y-53737197D01*
X33637000Y-53737197D01*
X33593767Y-53519850D01*
X33508962Y-53315113D01*
X33385844Y-53130855D01*
X33229145Y-52974156D01*
X33044887Y-52851038D01*
X32840150Y-52766233D01*
X32622803Y-52723000D01*
X32401197Y-52723000D01*
X32183850Y-52766233D01*
X31979113Y-52851038D01*
X31794855Y-52974156D01*
X31638156Y-53130855D01*
X31515038Y-53315113D01*
X31430233Y-53519850D01*
X31387000Y-53737197D01*
X31097000Y-53737197D01*
X31053767Y-53519850D01*
X30968962Y-53315113D01*
X30845844Y-53130855D01*
X30689145Y-52974156D01*
X30504887Y-52851038D01*
X30300150Y-52766233D01*
X30082803Y-52723000D01*
X29861197Y-52723000D01*
X29643850Y-52766233D01*
X29439113Y-52851038D01*
X29254855Y-52974156D01*
X29098156Y-53130855D01*
X28975038Y-53315113D01*
X28890233Y-53519850D01*
X28847000Y-53737197D01*
X28557000Y-53737197D01*
X28513767Y-53519850D01*
X28428962Y-53315113D01*
X28305844Y-53130855D01*
X28149145Y-52974156D01*
X27964887Y-52851038D01*
X27760150Y-52766233D01*
X27542803Y-52723000D01*
X27321197Y-52723000D01*
X27103850Y-52766233D01*
X26899113Y-52851038D01*
X26714855Y-52974156D01*
X26558156Y-53130855D01*
X26435038Y-53315113D01*
X26350233Y-53519850D01*
X26307000Y-53737197D01*
X26017000Y-53737197D01*
X25973767Y-53519850D01*
X25888962Y-53315113D01*
X25765844Y-53130855D01*
X25609145Y-52974156D01*
X25424887Y-52851038D01*
X25220150Y-52766233D01*
X25002803Y-52723000D01*
X24781197Y-52723000D01*
X24563850Y-52766233D01*
X24359113Y-52851038D01*
X24174855Y-52974156D01*
X24018156Y-53130855D01*
X23895038Y-53315113D01*
X23810233Y-53519850D01*
X23767000Y-53737197D01*
X23477000Y-53737197D01*
X23433767Y-53519850D01*
X23348962Y-53315113D01*
X23225844Y-53130855D01*
X23069145Y-52974156D01*
X22884887Y-52851038D01*
X22680150Y-52766233D01*
X22462803Y-52723000D01*
X22241197Y-52723000D01*
X22023850Y-52766233D01*
X21819113Y-52851038D01*
X21634855Y-52974156D01*
X21478156Y-53130855D01*
X21355038Y-53315113D01*
X21270233Y-53519850D01*
X21227000Y-53737197D01*
X20250000Y-53737197D01*
X20250000Y-35590000D01*
X21728179Y-35590000D01*
X21739435Y-35704288D01*
X21772772Y-35814184D01*
X21826908Y-35915465D01*
X21899762Y-36004238D01*
X21988535Y-36077092D01*
X22089816Y-36131228D01*
X22199712Y-36164565D01*
X22314000Y-36175821D01*
X22789250Y-36173000D01*
X22935000Y-36027250D01*
X22935000Y-34469000D01*
X23293000Y-34469000D01*
X23293000Y-36027250D01*
X23438750Y-36173000D01*
X23914000Y-36175821D01*
X24028288Y-36164565D01*
X24138184Y-36131228D01*
X24239465Y-36077092D01*
X24328238Y-36004238D01*
X24401092Y-35915465D01*
X24455228Y-35814184D01*
X24488565Y-35704288D01*
X24499821Y-35590000D01*
X24497000Y-34614750D01*
X24351250Y-34469000D01*
X23293000Y-34469000D01*
X22935000Y-34469000D01*
X21876750Y-34469000D01*
X21731000Y-34614750D01*
X21728179Y-35590000D01*
X20250000Y-35590000D01*
X20250000Y-32990000D01*
X21728179Y-32990000D01*
X21731000Y-33965250D01*
X21876750Y-34111000D01*
X22935000Y-34111000D01*
X22935000Y-32552750D01*
X22789250Y-32407000D01*
X22314000Y-32404179D01*
X22199712Y-32415435D01*
X22089816Y-32448772D01*
X21988535Y-32502908D01*
X21899762Y-32575762D01*
X21826908Y-32664535D01*
X21772772Y-32765816D01*
X21739435Y-32875712D01*
X21728179Y-32990000D01*
X20250000Y-32990000D01*
X20250000Y-29640000D01*
X22037670Y-29640000D01*
X22037670Y-31740000D01*
X22047783Y-31842682D01*
X22077734Y-31941418D01*
X22126373Y-32032413D01*
X22191828Y-32112172D01*
X22271587Y-32177627D01*
X22362582Y-32226266D01*
X22461318Y-32256217D01*
X22564000Y-32266330D01*
X23664000Y-32266330D01*
X23766682Y-32256217D01*
X23865418Y-32226266D01*
X23893040Y-32211501D01*
X24126882Y-32445343D01*
X24028288Y-32415435D01*
X23914000Y-32404179D01*
X23438750Y-32407000D01*
X23293000Y-32552750D01*
X23293000Y-34111000D01*
X24351250Y-34111000D01*
X24497000Y-33965250D01*
X24499821Y-32990000D01*
X24488565Y-32875712D01*
X24458657Y-32777118D01*
X24845000Y-33163462D01*
X24844999Y-38044219D01*
X24842460Y-38069999D01*
X24844999Y-38095779D01*
X24844999Y-38095786D01*
X24852596Y-38172916D01*
X24882616Y-38271879D01*
X24931366Y-38363085D01*
X24996972Y-38443026D01*
X25017009Y-38459470D01*
X25591500Y-39033962D01*
X25588233Y-39041850D01*
X25545000Y-39259197D01*
X25545000Y-39480803D01*
X25588233Y-39698150D01*
X25673038Y-39902887D01*
X25796156Y-40087145D01*
X25952855Y-40243844D01*
X26137113Y-40366962D01*
X26341850Y-40451767D01*
X26490998Y-40481434D01*
X26490998Y-40633966D01*
X26270788Y-40533723D01*
X26009960Y-40638050D01*
X25774497Y-40791258D01*
X25573448Y-40987458D01*
X25414539Y-41219111D01*
X25303877Y-41477315D01*
X25293730Y-41510789D01*
X25395256Y-41731000D01*
X26491000Y-41731000D01*
X26491000Y-41711000D01*
X26849000Y-41711000D01*
X26849000Y-41731000D01*
X27944744Y-41731000D01*
X28046270Y-41510789D01*
X28036123Y-41477315D01*
X27925461Y-41219111D01*
X27766552Y-40987458D01*
X27565503Y-40791258D01*
X27330040Y-40638050D01*
X27069212Y-40533723D01*
X26849002Y-40633966D01*
X26849002Y-40481434D01*
X26998150Y-40451767D01*
X27202887Y-40366962D01*
X27387145Y-40243844D01*
X27543844Y-40087145D01*
X27666962Y-39902887D01*
X27670229Y-39895000D01*
X29479771Y-39895000D01*
X29483038Y-39902887D01*
X29606156Y-40087145D01*
X29762855Y-40243844D01*
X29947113Y-40366962D01*
X30151850Y-40451767D01*
X30300998Y-40481434D01*
X30300998Y-40633966D01*
X30080788Y-40533723D01*
X29819960Y-40638050D01*
X29584497Y-40791258D01*
X29383448Y-40987458D01*
X29224539Y-41219111D01*
X29113877Y-41477315D01*
X29103730Y-41510789D01*
X29205256Y-41731000D01*
X30301000Y-41731000D01*
X30301000Y-41711000D01*
X30659000Y-41711000D01*
X30659000Y-41731000D01*
X31754744Y-41731000D01*
X31856270Y-41510789D01*
X31846123Y-41477315D01*
X31735461Y-41219111D01*
X31576552Y-40987458D01*
X31375503Y-40791258D01*
X31140040Y-40638050D01*
X30879212Y-40533723D01*
X30659002Y-40633966D01*
X30659002Y-40481434D01*
X30808150Y-40451767D01*
X31012887Y-40366962D01*
X31197145Y-40243844D01*
X31353844Y-40087145D01*
X31476962Y-39902887D01*
X31561767Y-39698150D01*
X31605000Y-39480803D01*
X31605000Y-39259197D01*
X31561767Y-39041850D01*
X31476962Y-38837113D01*
X31353844Y-38652855D01*
X31197145Y-38496156D01*
X31012887Y-38373038D01*
X30808150Y-38288233D01*
X30590803Y-38245000D01*
X30369197Y-38245000D01*
X30151850Y-38288233D01*
X29947113Y-38373038D01*
X29762855Y-38496156D01*
X29606156Y-38652855D01*
X29483038Y-38837113D01*
X29479771Y-38845000D01*
X27670229Y-38845000D01*
X27666962Y-38837113D01*
X27543844Y-38652855D01*
X27387145Y-38496156D01*
X27202887Y-38373038D01*
X26998150Y-38288233D01*
X26780803Y-38245000D01*
X26559197Y-38245000D01*
X26341850Y-38288233D01*
X26333962Y-38291500D01*
X25998791Y-37956330D01*
X27520000Y-37956330D01*
X27573909Y-37951020D01*
X27625747Y-37935296D01*
X27673521Y-37909760D01*
X27715395Y-37875395D01*
X27749760Y-37833521D01*
X27775296Y-37785747D01*
X27791020Y-37733909D01*
X27796330Y-37680000D01*
X27796330Y-37168500D01*
X29353670Y-37168500D01*
X29353670Y-37680000D01*
X29358980Y-37733909D01*
X29374704Y-37785747D01*
X29400240Y-37833521D01*
X29434605Y-37875395D01*
X29476479Y-37909760D01*
X29524253Y-37935296D01*
X29576091Y-37951020D01*
X29630000Y-37956330D01*
X31330000Y-37956330D01*
X31383909Y-37951020D01*
X31435747Y-37935296D01*
X31483521Y-37909760D01*
X31525395Y-37875395D01*
X31559760Y-37833521D01*
X31585296Y-37785747D01*
X31601020Y-37733909D01*
X31606330Y-37680000D01*
X31606330Y-37584015D01*
X33485211Y-39462896D01*
X33422000Y-39456670D01*
X32872000Y-39456670D01*
X32779073Y-39465823D01*
X32689716Y-39492928D01*
X32607365Y-39536946D01*
X32535184Y-39596184D01*
X32475946Y-39668365D01*
X32431928Y-39750716D01*
X32404823Y-39840073D01*
X32395670Y-39933000D01*
X32395670Y-40333000D01*
X32404823Y-40425927D01*
X32431928Y-40515284D01*
X32475946Y-40597635D01*
X32535184Y-40669816D01*
X32607365Y-40729054D01*
X32689716Y-40773072D01*
X32775602Y-40799124D01*
X32672000Y-40797179D01*
X32557712Y-40808435D01*
X32447816Y-40841772D01*
X32346535Y-40895908D01*
X32257762Y-40968762D01*
X32184908Y-41057535D01*
X32130772Y-41158816D01*
X32097435Y-41268712D01*
X32086179Y-41383000D01*
X32089000Y-41458250D01*
X32234750Y-41604000D01*
X32968000Y-41604000D01*
X32968000Y-41584000D01*
X33326000Y-41584000D01*
X33326000Y-41604000D01*
X33346000Y-41604000D01*
X33346000Y-41962000D01*
X33326000Y-41962000D01*
X33326000Y-41982000D01*
X32968000Y-41982000D01*
X32968000Y-41962000D01*
X32234750Y-41962000D01*
X32089000Y-42107750D01*
X32086179Y-42183000D01*
X32097435Y-42297288D01*
X32130772Y-42407184D01*
X32184908Y-42508465D01*
X32257762Y-42597238D01*
X32346535Y-42670092D01*
X32447816Y-42724228D01*
X32511250Y-42743471D01*
X31637653Y-42743471D01*
X31735461Y-42600889D01*
X31846123Y-42342685D01*
X31856270Y-42309211D01*
X31754744Y-42089000D01*
X30659000Y-42089000D01*
X30659000Y-42109000D01*
X30301000Y-42109000D01*
X30301000Y-42089000D01*
X29205256Y-42089000D01*
X29103730Y-42309211D01*
X29113877Y-42342685D01*
X29224539Y-42600889D01*
X29322348Y-42743473D01*
X27827651Y-42743474D01*
X27925461Y-42600889D01*
X28036123Y-42342685D01*
X28046270Y-42309211D01*
X27944744Y-42089000D01*
X26849000Y-42089000D01*
X26849000Y-42109000D01*
X26491000Y-42109000D01*
X26491000Y-42089000D01*
X25395256Y-42089000D01*
X25293730Y-42309211D01*
X25303877Y-42342685D01*
X25414539Y-42600889D01*
X25573448Y-42832542D01*
X25774497Y-43028742D01*
X25781811Y-43033501D01*
X25226051Y-43589262D01*
X25210788Y-43601788D01*
X25160802Y-43662697D01*
X25123659Y-43732186D01*
X25107487Y-43785500D01*
X25100787Y-43807586D01*
X25093064Y-43885999D01*
X25094999Y-43905646D01*
X25095000Y-47534345D01*
X25093064Y-47554001D01*
X25100787Y-47632414D01*
X25123660Y-47707815D01*
X25160802Y-47777303D01*
X25198264Y-47822951D01*
X25198267Y-47822954D01*
X25210789Y-47838212D01*
X25226047Y-47850734D01*
X25809262Y-48433949D01*
X25821788Y-48449212D01*
X25882696Y-48499198D01*
X25952185Y-48536341D01*
X26027585Y-48559213D01*
X26086352Y-48565001D01*
X26086362Y-48565001D01*
X26105998Y-48566935D01*
X26125634Y-48565001D01*
X34301853Y-48565001D01*
X34321499Y-48566936D01*
X34341145Y-48565001D01*
X34341146Y-48565001D01*
X34399913Y-48559213D01*
X34475313Y-48536341D01*
X34544802Y-48499198D01*
X34605710Y-48449212D01*
X34618236Y-48433949D01*
X35729501Y-47322684D01*
X35729500Y-47616967D01*
X35715082Y-47618387D01*
X35618949Y-47637509D01*
X35567112Y-47653233D01*
X35476556Y-47690742D01*
X35428781Y-47716278D01*
X35347282Y-47770734D01*
X35305407Y-47805099D01*
X35236099Y-47874407D01*
X35201734Y-47916282D01*
X35147278Y-47997781D01*
X35121742Y-48045556D01*
X35084233Y-48136112D01*
X35068509Y-48187949D01*
X35049387Y-48284082D01*
X35044077Y-48337991D01*
X35044077Y-48362553D01*
X35041669Y-48387000D01*
X35041669Y-48887000D01*
X35046979Y-48940910D01*
X35062703Y-48992747D01*
X35086357Y-49037000D01*
X35062703Y-49081253D01*
X35046979Y-49133090D01*
X35041669Y-49187000D01*
X35041669Y-49511000D01*
X34177330Y-49511000D01*
X34177330Y-49436000D01*
X34167217Y-49333318D01*
X34137266Y-49234582D01*
X34088627Y-49143587D01*
X34023172Y-49063828D01*
X33943413Y-48998373D01*
X33852418Y-48949734D01*
X33753682Y-48919783D01*
X33651000Y-48909670D01*
X33151000Y-48909670D01*
X33048318Y-48919783D01*
X32949582Y-48949734D01*
X32858587Y-48998373D01*
X32778828Y-49063828D01*
X32713373Y-49143587D01*
X32664734Y-49234582D01*
X32634783Y-49333318D01*
X32624670Y-49436000D01*
X32624670Y-50121645D01*
X32547283Y-50199033D01*
X32438250Y-50090000D01*
X31680000Y-50090000D01*
X31680000Y-50110000D01*
X31322000Y-50110000D01*
X31322000Y-50090000D01*
X30563750Y-50090000D01*
X30418000Y-50235750D01*
X30415708Y-50561010D01*
X26742696Y-50561010D01*
X26341622Y-50159937D01*
X26379177Y-50103732D01*
X26430060Y-49980890D01*
X26456000Y-49850482D01*
X26456000Y-49717518D01*
X26430060Y-49587110D01*
X26379177Y-49464268D01*
X26305307Y-49353713D01*
X26211287Y-49259693D01*
X26100997Y-49186000D01*
X30415179Y-49186000D01*
X30418000Y-49586250D01*
X30563750Y-49732000D01*
X31322000Y-49732000D01*
X31322000Y-48748750D01*
X31680000Y-48748750D01*
X31680000Y-49732000D01*
X32438250Y-49732000D01*
X32584000Y-49586250D01*
X32586821Y-49186000D01*
X32575565Y-49071712D01*
X32542228Y-48961816D01*
X32488092Y-48860535D01*
X32415238Y-48771762D01*
X32326465Y-48698908D01*
X32225184Y-48644772D01*
X32115288Y-48611435D01*
X32001000Y-48600179D01*
X31825750Y-48603000D01*
X31680000Y-48748750D01*
X31322000Y-48748750D01*
X31176250Y-48603000D01*
X31001000Y-48600179D01*
X30886712Y-48611435D01*
X30776816Y-48644772D01*
X30675535Y-48698908D01*
X30586762Y-48771762D01*
X30513908Y-48860535D01*
X30459772Y-48961816D01*
X30426435Y-49071712D01*
X30415179Y-49186000D01*
X26100997Y-49186000D01*
X26100732Y-49185823D01*
X25977890Y-49134940D01*
X25847482Y-49109000D01*
X25714518Y-49109000D01*
X25584110Y-49134940D01*
X25461268Y-49185823D01*
X25350713Y-49259693D01*
X25256693Y-49353713D01*
X25182823Y-49464268D01*
X25131940Y-49587110D01*
X25106000Y-49717518D01*
X25106000Y-49850482D01*
X25131940Y-49980890D01*
X25182823Y-50103732D01*
X25256693Y-50214287D01*
X25350713Y-50308307D01*
X25433674Y-50363739D01*
X25446803Y-50388302D01*
X25496789Y-50449211D01*
X25512052Y-50461737D01*
X26280277Y-51229963D01*
X26292799Y-51245221D01*
X26308057Y-51257743D01*
X26308059Y-51257745D01*
X26339992Y-51283951D01*
X26353707Y-51295207D01*
X26423196Y-51332350D01*
X26498596Y-51355222D01*
X26557363Y-51361010D01*
X26557373Y-51361010D01*
X26577009Y-51362944D01*
X26596645Y-51361010D01*
X32331344Y-51361010D01*
X32350990Y-51362945D01*
X32370636Y-51361010D01*
X32370637Y-51361010D01*
X32429404Y-51355222D01*
X32504804Y-51332350D01*
X32574293Y-51295207D01*
X32635201Y-51245221D01*
X32647727Y-51229958D01*
X32992423Y-50885262D01*
X33048318Y-50902217D01*
X33151000Y-50912330D01*
X33651000Y-50912330D01*
X33753682Y-50902217D01*
X33852418Y-50872266D01*
X33943413Y-50823627D01*
X34023172Y-50758172D01*
X34088627Y-50678413D01*
X34137266Y-50587418D01*
X34167217Y-50488682D01*
X34177330Y-50386000D01*
X34177330Y-50311000D01*
X35358857Y-50311000D01*
X35428781Y-50357722D01*
X35476556Y-50383258D01*
X35567112Y-50420767D01*
X35618949Y-50436491D01*
X35715082Y-50455613D01*
X35768991Y-50460923D01*
X35793553Y-50460923D01*
X35818000Y-50463331D01*
X36318000Y-50463331D01*
X36342447Y-50460923D01*
X36367009Y-50460923D01*
X36420918Y-50455613D01*
X36517051Y-50436491D01*
X36568888Y-50420767D01*
X36659444Y-50383258D01*
X36707219Y-50357722D01*
X36788718Y-50303266D01*
X36830593Y-50268901D01*
X36899901Y-50199593D01*
X36934266Y-50157718D01*
X36981518Y-50087000D01*
X38202482Y-50087000D01*
X38249734Y-50157718D01*
X38284099Y-50199593D01*
X38353407Y-50268901D01*
X38395282Y-50303266D01*
X38476781Y-50357722D01*
X38524556Y-50383258D01*
X38615112Y-50420767D01*
X38666949Y-50436491D01*
X38763082Y-50455613D01*
X38816991Y-50460923D01*
X38841553Y-50460923D01*
X38866000Y-50463331D01*
X39366000Y-50463331D01*
X39390447Y-50460923D01*
X39415009Y-50460923D01*
X39468918Y-50455613D01*
X39565051Y-50436491D01*
X39616888Y-50420767D01*
X39707444Y-50383258D01*
X39755219Y-50357722D01*
X39836718Y-50303266D01*
X39878593Y-50268901D01*
X39947901Y-50199593D01*
X39982266Y-50157718D01*
X40029518Y-50087000D01*
X41250482Y-50087000D01*
X41297734Y-50157718D01*
X41332099Y-50199593D01*
X41401407Y-50268901D01*
X41443282Y-50303266D01*
X41524781Y-50357722D01*
X41572556Y-50383258D01*
X41663112Y-50420767D01*
X41714949Y-50436491D01*
X41811082Y-50455613D01*
X41864991Y-50460923D01*
X41889553Y-50460923D01*
X41914000Y-50463331D01*
X42414000Y-50463331D01*
X42438447Y-50460923D01*
X42463009Y-50460923D01*
X42516918Y-50455613D01*
X42613051Y-50436491D01*
X42664888Y-50420767D01*
X42755444Y-50383258D01*
X42803219Y-50357722D01*
X42884718Y-50303266D01*
X42926593Y-50268901D01*
X42995901Y-50199593D01*
X43030266Y-50157718D01*
X43077518Y-50087000D01*
X44298482Y-50087000D01*
X44345734Y-50157718D01*
X44380099Y-50199593D01*
X44449407Y-50268901D01*
X44491282Y-50303266D01*
X44572781Y-50357722D01*
X44620556Y-50383258D01*
X44711112Y-50420767D01*
X44762949Y-50436491D01*
X44859082Y-50455613D01*
X44912991Y-50460923D01*
X44937553Y-50460923D01*
X44962000Y-50463331D01*
X45462000Y-50463331D01*
X45486447Y-50460923D01*
X45511009Y-50460923D01*
X45564918Y-50455613D01*
X45661051Y-50436491D01*
X45712888Y-50420767D01*
X45803444Y-50383258D01*
X45851219Y-50357722D01*
X45932718Y-50303266D01*
X45974593Y-50268901D01*
X46043901Y-50199593D01*
X46078266Y-50157718D01*
X46125518Y-50087000D01*
X47346482Y-50087000D01*
X47393734Y-50157718D01*
X47428099Y-50199593D01*
X47497407Y-50268901D01*
X47539282Y-50303266D01*
X47620781Y-50357722D01*
X47668556Y-50383258D01*
X47759112Y-50420767D01*
X47810949Y-50436491D01*
X47907082Y-50455613D01*
X47960991Y-50460923D01*
X47985553Y-50460923D01*
X48010000Y-50463331D01*
X48510000Y-50463331D01*
X48534447Y-50460923D01*
X48559009Y-50460923D01*
X48612918Y-50455613D01*
X48709051Y-50436491D01*
X48760888Y-50420767D01*
X48851444Y-50383258D01*
X48899219Y-50357722D01*
X48980718Y-50303266D01*
X49022593Y-50268901D01*
X49091901Y-50199593D01*
X49126266Y-50157718D01*
X49173518Y-50087000D01*
X50394482Y-50087000D01*
X50441734Y-50157718D01*
X50476099Y-50199593D01*
X50545407Y-50268901D01*
X50587282Y-50303266D01*
X50668781Y-50357722D01*
X50716556Y-50383258D01*
X50807112Y-50420767D01*
X50858949Y-50436491D01*
X50955082Y-50455613D01*
X51008991Y-50460923D01*
X51033553Y-50460923D01*
X51058000Y-50463331D01*
X51558000Y-50463331D01*
X51582447Y-50460923D01*
X51607009Y-50460923D01*
X51660918Y-50455613D01*
X51757051Y-50436491D01*
X51808888Y-50420767D01*
X51899444Y-50383258D01*
X51947219Y-50357722D01*
X52028718Y-50303266D01*
X52070593Y-50268901D01*
X52139901Y-50199593D01*
X52174266Y-50157718D01*
X52228722Y-50076219D01*
X52254258Y-50028444D01*
X52291767Y-49937888D01*
X52307491Y-49886051D01*
X52326613Y-49789918D01*
X52331923Y-49736009D01*
X52331923Y-49711447D01*
X52334331Y-49687000D01*
X52334331Y-49187000D01*
X52329021Y-49133090D01*
X52313297Y-49081253D01*
X52289643Y-49037000D01*
X52313297Y-48992747D01*
X52329021Y-48940910D01*
X52334331Y-48887000D01*
X52334331Y-48387000D01*
X52331923Y-48362553D01*
X52331923Y-48337991D01*
X52326613Y-48284082D01*
X52307491Y-48187949D01*
X52291767Y-48136112D01*
X52254258Y-48045556D01*
X52228722Y-47997781D01*
X52174266Y-47916282D01*
X52139901Y-47874407D01*
X52070593Y-47805099D01*
X52028718Y-47770734D01*
X51947219Y-47716278D01*
X51899444Y-47690742D01*
X51808888Y-47653233D01*
X51757051Y-47637509D01*
X51660918Y-47618387D01*
X51646500Y-47616967D01*
X51646500Y-47088575D01*
X51675927Y-47085677D01*
X51765284Y-47058572D01*
X51847635Y-47014554D01*
X51919816Y-46955316D01*
X51979054Y-46883135D01*
X52023072Y-46800784D01*
X52050177Y-46711427D01*
X52059330Y-46618500D01*
X52059330Y-46218500D01*
X52050177Y-46125573D01*
X52023072Y-46036216D01*
X51979054Y-45953865D01*
X51919816Y-45881684D01*
X51847635Y-45822446D01*
X51765284Y-45778428D01*
X51679398Y-45752376D01*
X51783000Y-45754321D01*
X51897288Y-45743065D01*
X52007184Y-45709728D01*
X52108465Y-45655592D01*
X52197238Y-45582738D01*
X52270092Y-45493965D01*
X52324228Y-45392684D01*
X52357565Y-45282788D01*
X52368012Y-45176719D01*
X54922782Y-47731489D01*
X54935308Y-47746752D01*
X54996216Y-47796738D01*
X55065705Y-47833881D01*
X55141105Y-47856753D01*
X55199872Y-47862541D01*
X55199882Y-47862541D01*
X55219518Y-47864475D01*
X55239154Y-47862541D01*
X63874410Y-47862541D01*
X63894056Y-47864476D01*
X63913702Y-47862541D01*
X63913703Y-47862541D01*
X63972470Y-47856753D01*
X64047870Y-47833881D01*
X64117359Y-47796738D01*
X64178267Y-47746752D01*
X64190793Y-47731489D01*
X64508412Y-47413870D01*
X65743057Y-47413870D01*
X65796966Y-47408560D01*
X65848804Y-47392836D01*
X65896578Y-47367300D01*
X65938452Y-47332935D01*
X65972817Y-47291061D01*
X65998353Y-47243287D01*
X66014077Y-47191449D01*
X66019387Y-47137540D01*
X66019387Y-45613540D01*
X66014077Y-45559631D01*
X65998353Y-45507793D01*
X65972817Y-45460019D01*
X65938452Y-45418145D01*
X65896578Y-45383780D01*
X65848804Y-45358244D01*
X65796966Y-45342520D01*
X65743057Y-45337210D01*
X64219057Y-45337210D01*
X64165148Y-45342520D01*
X64113310Y-45358244D01*
X64065536Y-45383780D01*
X64023662Y-45418145D01*
X63989297Y-45460019D01*
X63963761Y-45507793D01*
X63948037Y-45559631D01*
X63942727Y-45613540D01*
X63942727Y-46848185D01*
X63728371Y-47062541D01*
X58140596Y-47062541D01*
X58166548Y-47036589D01*
X58280035Y-46866744D01*
X58358206Y-46678022D01*
X58398057Y-46477676D01*
X58398057Y-46273404D01*
X58358206Y-46073058D01*
X58280035Y-45884336D01*
X58166548Y-45714491D01*
X58022106Y-45570049D01*
X57852261Y-45456562D01*
X57663539Y-45378391D01*
X57463193Y-45338540D01*
X57258921Y-45338540D01*
X57058575Y-45378391D01*
X56869853Y-45456562D01*
X56700008Y-45570049D01*
X56555566Y-45714491D01*
X56442079Y-45884336D01*
X56363908Y-46073058D01*
X56324057Y-46273404D01*
X56324057Y-46477676D01*
X56363908Y-46678022D01*
X56442079Y-46866744D01*
X56555566Y-47036589D01*
X56581518Y-47062541D01*
X55385204Y-47062541D01*
X53645204Y-45322541D01*
X63874410Y-45322541D01*
X63894056Y-45324476D01*
X63913702Y-45322541D01*
X63913703Y-45322541D01*
X63972470Y-45316753D01*
X64047870Y-45293881D01*
X64117359Y-45256738D01*
X64178267Y-45206752D01*
X64190793Y-45191489D01*
X64587371Y-44794911D01*
X64678575Y-44832689D01*
X64878921Y-44872540D01*
X65083193Y-44872540D01*
X65283539Y-44832689D01*
X65472261Y-44754518D01*
X65642106Y-44641031D01*
X65786548Y-44496589D01*
X65900035Y-44326744D01*
X65978206Y-44138022D01*
X66018057Y-43937676D01*
X66018057Y-43733404D01*
X65978206Y-43533058D01*
X65900035Y-43344336D01*
X65786548Y-43174491D01*
X65642106Y-43030049D01*
X65472261Y-42916562D01*
X65283539Y-42838391D01*
X65083193Y-42798540D01*
X64878921Y-42798540D01*
X64678575Y-42838391D01*
X64489853Y-42916562D01*
X64320008Y-43030049D01*
X64175566Y-43174491D01*
X64062079Y-43344336D01*
X63983908Y-43533058D01*
X63944057Y-43733404D01*
X63944057Y-43937676D01*
X63983908Y-44138022D01*
X64021686Y-44229226D01*
X63728371Y-44522541D01*
X58140596Y-44522541D01*
X58166548Y-44496589D01*
X58280035Y-44326744D01*
X58358206Y-44138022D01*
X58398057Y-43937676D01*
X58398057Y-43733404D01*
X58358206Y-43533058D01*
X58280035Y-43344336D01*
X58166548Y-43174491D01*
X58140596Y-43148539D01*
X63508412Y-43148539D01*
X63528058Y-43150474D01*
X63547704Y-43148539D01*
X63547705Y-43148539D01*
X63606472Y-43142751D01*
X63681872Y-43119879D01*
X63751361Y-43082736D01*
X63812269Y-43032750D01*
X63824795Y-43017487D01*
X64587371Y-42254911D01*
X64678575Y-42292689D01*
X64878921Y-42332540D01*
X65083193Y-42332540D01*
X65283539Y-42292689D01*
X65472261Y-42214518D01*
X65642106Y-42101031D01*
X65786548Y-41956589D01*
X65900035Y-41786744D01*
X65978206Y-41598022D01*
X66018057Y-41397676D01*
X66018057Y-41193404D01*
X65978206Y-40993058D01*
X65900035Y-40804336D01*
X65786548Y-40634491D01*
X65642106Y-40490049D01*
X65472261Y-40376562D01*
X65283539Y-40298391D01*
X65083193Y-40258540D01*
X64878921Y-40258540D01*
X64678575Y-40298391D01*
X64489853Y-40376562D01*
X64320008Y-40490049D01*
X64175566Y-40634491D01*
X64062079Y-40804336D01*
X63983908Y-40993058D01*
X63944057Y-41193404D01*
X63944057Y-41397676D01*
X63983908Y-41598022D01*
X64021686Y-41689226D01*
X63362373Y-42348539D01*
X51944022Y-42348539D01*
X50762483Y-41167000D01*
X56261189Y-41167000D01*
X56280835Y-41168935D01*
X56300481Y-41167000D01*
X56300482Y-41167000D01*
X56329885Y-41164104D01*
X56324057Y-41193404D01*
X56324057Y-41397676D01*
X56363908Y-41598022D01*
X56442079Y-41786744D01*
X56555566Y-41956589D01*
X56700008Y-42101031D01*
X56869853Y-42214518D01*
X57058575Y-42292689D01*
X57258921Y-42332540D01*
X57463193Y-42332540D01*
X57663539Y-42292689D01*
X57852261Y-42214518D01*
X58022106Y-42101031D01*
X58166548Y-41956589D01*
X58280035Y-41786744D01*
X58358206Y-41598022D01*
X58398057Y-41397676D01*
X58398057Y-41193404D01*
X58358206Y-40993058D01*
X58280035Y-40804336D01*
X58166548Y-40634491D01*
X58022106Y-40490049D01*
X57852261Y-40376562D01*
X57663539Y-40298391D01*
X57463193Y-40258540D01*
X57354980Y-40258540D01*
X57370979Y-40242541D01*
X63874410Y-40242541D01*
X63894056Y-40244476D01*
X63913702Y-40242541D01*
X63913703Y-40242541D01*
X63972470Y-40236753D01*
X64047870Y-40213881D01*
X64117359Y-40176738D01*
X64178267Y-40126752D01*
X64190793Y-40111489D01*
X64587371Y-39714911D01*
X64678575Y-39752689D01*
X64878921Y-39792540D01*
X65083193Y-39792540D01*
X65283539Y-39752689D01*
X65472261Y-39674518D01*
X65642106Y-39561031D01*
X65786548Y-39416589D01*
X65900035Y-39246744D01*
X65978206Y-39058022D01*
X66018057Y-38857676D01*
X66018057Y-38653404D01*
X65978206Y-38453058D01*
X65900035Y-38264336D01*
X65786548Y-38094491D01*
X65642106Y-37950049D01*
X65472261Y-37836562D01*
X65283539Y-37758391D01*
X65083193Y-37718540D01*
X64878921Y-37718540D01*
X64678575Y-37758391D01*
X64489853Y-37836562D01*
X64320008Y-37950049D01*
X64175566Y-38094491D01*
X64062079Y-38264336D01*
X63983908Y-38453058D01*
X63944057Y-38653404D01*
X63944057Y-38857676D01*
X63983908Y-39058022D01*
X64021686Y-39149226D01*
X63728371Y-39442541D01*
X58140596Y-39442541D01*
X58166548Y-39416589D01*
X58280035Y-39246744D01*
X58358206Y-39058022D01*
X58398057Y-38857676D01*
X58398057Y-38653404D01*
X58358206Y-38453058D01*
X58280035Y-38264336D01*
X58166548Y-38094491D01*
X58022106Y-37950049D01*
X57852261Y-37836562D01*
X57663539Y-37758391D01*
X57463193Y-37718540D01*
X57354980Y-37718540D01*
X57370979Y-37702541D01*
X63874410Y-37702541D01*
X63894056Y-37704476D01*
X63913702Y-37702541D01*
X63913703Y-37702541D01*
X63972470Y-37696753D01*
X64047870Y-37673881D01*
X64117359Y-37636738D01*
X64178267Y-37586752D01*
X64190793Y-37571489D01*
X64587371Y-37174911D01*
X64678575Y-37212689D01*
X64878921Y-37252540D01*
X65083193Y-37252540D01*
X65283539Y-37212689D01*
X65472261Y-37134518D01*
X65642106Y-37021031D01*
X65786548Y-36876589D01*
X65900035Y-36706744D01*
X65978206Y-36518022D01*
X66018057Y-36317676D01*
X66018057Y-36113404D01*
X65978206Y-35913058D01*
X65900035Y-35724336D01*
X65786548Y-35554491D01*
X65642106Y-35410049D01*
X65472261Y-35296562D01*
X65283539Y-35218391D01*
X65083193Y-35178540D01*
X64878921Y-35178540D01*
X64678575Y-35218391D01*
X64489853Y-35296562D01*
X64320008Y-35410049D01*
X64175566Y-35554491D01*
X64062079Y-35724336D01*
X63983908Y-35913058D01*
X63944057Y-36113404D01*
X63944057Y-36317676D01*
X63983908Y-36518022D01*
X64021686Y-36609226D01*
X63728371Y-36902541D01*
X58140596Y-36902541D01*
X58166548Y-36876589D01*
X58280035Y-36706744D01*
X58358206Y-36518022D01*
X58398057Y-36317676D01*
X58398057Y-36113404D01*
X58358206Y-35913058D01*
X58280035Y-35724336D01*
X58166548Y-35554491D01*
X58022106Y-35410049D01*
X57852261Y-35296562D01*
X57663539Y-35218391D01*
X57463193Y-35178540D01*
X57354981Y-35178540D01*
X57370980Y-35162541D01*
X63874410Y-35162541D01*
X63894056Y-35164476D01*
X63913702Y-35162541D01*
X63913703Y-35162541D01*
X63972470Y-35156753D01*
X64047870Y-35133881D01*
X64117359Y-35096738D01*
X64178267Y-35046752D01*
X64190793Y-35031489D01*
X64587371Y-34634911D01*
X64678575Y-34672689D01*
X64878921Y-34712540D01*
X65083193Y-34712540D01*
X65283539Y-34672689D01*
X65472261Y-34594518D01*
X65642106Y-34481031D01*
X65786548Y-34336589D01*
X65900035Y-34166744D01*
X65978206Y-33978022D01*
X66018057Y-33777676D01*
X66018057Y-33573404D01*
X65978206Y-33373058D01*
X65900035Y-33184336D01*
X65786548Y-33014491D01*
X65642106Y-32870049D01*
X65472261Y-32756562D01*
X65283539Y-32678391D01*
X65083193Y-32638540D01*
X64878921Y-32638540D01*
X64678575Y-32678391D01*
X64489853Y-32756562D01*
X64320008Y-32870049D01*
X64175566Y-33014491D01*
X64062079Y-33184336D01*
X63983908Y-33373058D01*
X63944057Y-33573404D01*
X63944057Y-33777676D01*
X63983908Y-33978022D01*
X64021686Y-34069226D01*
X63728371Y-34362541D01*
X58140596Y-34362541D01*
X58166548Y-34336589D01*
X58280035Y-34166744D01*
X58358206Y-33978022D01*
X58398057Y-33777676D01*
X58398057Y-33573404D01*
X58358206Y-33373058D01*
X58280035Y-33184336D01*
X58166548Y-33014491D01*
X58022106Y-32870049D01*
X57852261Y-32756562D01*
X57663539Y-32678391D01*
X57463193Y-32638540D01*
X57417212Y-32638540D01*
X57433211Y-32622541D01*
X63874410Y-32622541D01*
X63894056Y-32624476D01*
X63913702Y-32622541D01*
X63913703Y-32622541D01*
X63972470Y-32616753D01*
X64047870Y-32593881D01*
X64117359Y-32556738D01*
X64178267Y-32506752D01*
X64190793Y-32491489D01*
X64587371Y-32094911D01*
X64678575Y-32132689D01*
X64878921Y-32172540D01*
X65083193Y-32172540D01*
X65283539Y-32132689D01*
X65472261Y-32054518D01*
X65642106Y-31941031D01*
X65786548Y-31796589D01*
X65900035Y-31626744D01*
X65978206Y-31438022D01*
X66018057Y-31237676D01*
X66018057Y-31033404D01*
X65978206Y-30833058D01*
X65900035Y-30644336D01*
X65786548Y-30474491D01*
X65642106Y-30330049D01*
X65472261Y-30216562D01*
X65283539Y-30138391D01*
X65083193Y-30098540D01*
X64878921Y-30098540D01*
X64678575Y-30138391D01*
X64489853Y-30216562D01*
X64320008Y-30330049D01*
X64175566Y-30474491D01*
X64062079Y-30644336D01*
X63983908Y-30833058D01*
X63944057Y-31033404D01*
X63944057Y-31237676D01*
X63983908Y-31438022D01*
X64021686Y-31529226D01*
X63728371Y-31822541D01*
X58140596Y-31822541D01*
X58166548Y-31796589D01*
X58280035Y-31626744D01*
X58358206Y-31438022D01*
X58398057Y-31237676D01*
X58398057Y-31033404D01*
X58358206Y-30833058D01*
X58280035Y-30644336D01*
X58166548Y-30474491D01*
X58022106Y-30330049D01*
X57852261Y-30216562D01*
X57663539Y-30138391D01*
X57463193Y-30098540D01*
X57354980Y-30098540D01*
X57370979Y-30082541D01*
X63874410Y-30082541D01*
X63894056Y-30084476D01*
X63913702Y-30082541D01*
X63913703Y-30082541D01*
X63972470Y-30076753D01*
X64047870Y-30053881D01*
X64117359Y-30016738D01*
X64178267Y-29966752D01*
X64190793Y-29951489D01*
X64587371Y-29554911D01*
X64678575Y-29592689D01*
X64878921Y-29632540D01*
X65083193Y-29632540D01*
X65283539Y-29592689D01*
X65472261Y-29514518D01*
X65642106Y-29401031D01*
X65786548Y-29256589D01*
X65900035Y-29086744D01*
X65978206Y-28898022D01*
X66018057Y-28697676D01*
X66018057Y-28493404D01*
X65978206Y-28293058D01*
X65900035Y-28104336D01*
X65786548Y-27934491D01*
X65642106Y-27790049D01*
X65472261Y-27676562D01*
X65283539Y-27598391D01*
X65083193Y-27558540D01*
X64878921Y-27558540D01*
X64678575Y-27598391D01*
X64489853Y-27676562D01*
X64320008Y-27790049D01*
X64175566Y-27934491D01*
X64062079Y-28104336D01*
X63983908Y-28293058D01*
X63944057Y-28493404D01*
X63944057Y-28697676D01*
X63983908Y-28898022D01*
X64021686Y-28989226D01*
X63728371Y-29282541D01*
X58140596Y-29282541D01*
X58166548Y-29256589D01*
X58280035Y-29086744D01*
X58358206Y-28898022D01*
X58398057Y-28697676D01*
X58398057Y-28493404D01*
X58358206Y-28293058D01*
X58280035Y-28104336D01*
X58166548Y-27934491D01*
X58022106Y-27790049D01*
X57852261Y-27676562D01*
X57663539Y-27598391D01*
X57463193Y-27558540D01*
X57258921Y-27558540D01*
X57058575Y-27598391D01*
X56869853Y-27676562D01*
X56700008Y-27790049D01*
X56555566Y-27934491D01*
X56442079Y-28104336D01*
X56363908Y-28293058D01*
X56324057Y-28493404D01*
X56324057Y-28697676D01*
X56363908Y-28898022D01*
X56442079Y-29086744D01*
X56555566Y-29256589D01*
X56700008Y-29401031D01*
X56832554Y-29489596D01*
X53956150Y-32366000D01*
X50539091Y-32366000D01*
X51175944Y-31729147D01*
X51264509Y-31861693D01*
X51408951Y-32006135D01*
X51578796Y-32119622D01*
X51767518Y-32197793D01*
X51967864Y-32237644D01*
X52172136Y-32237644D01*
X52372482Y-32197793D01*
X52561204Y-32119622D01*
X52731049Y-32006135D01*
X52875491Y-31861693D01*
X52988978Y-31691848D01*
X53067149Y-31503126D01*
X53107000Y-31302780D01*
X53107000Y-31098508D01*
X53067149Y-30898162D01*
X52988978Y-30709440D01*
X52875491Y-30539595D01*
X52731049Y-30395153D01*
X52561204Y-30281666D01*
X52372482Y-30203495D01*
X52172136Y-30163644D01*
X51967864Y-30163644D01*
X51767518Y-30203495D01*
X51578796Y-30281666D01*
X51408951Y-30395153D01*
X51382999Y-30421105D01*
X51382999Y-24833330D01*
X51597355Y-24618974D01*
X52832000Y-24618974D01*
X52885909Y-24613664D01*
X52937747Y-24597940D01*
X52985521Y-24572404D01*
X53027395Y-24538039D01*
X53061760Y-24496165D01*
X53087296Y-24448391D01*
X53103020Y-24396553D01*
X53108330Y-24342644D01*
X53108330Y-22818644D01*
X53103020Y-22764735D01*
X53087296Y-22712897D01*
X53061760Y-22665123D01*
X53027395Y-22623249D01*
X52985521Y-22588884D01*
X52937747Y-22563348D01*
X52885909Y-22547624D01*
X52832000Y-22542314D01*
X51308000Y-22542314D01*
X51254091Y-22547624D01*
X51202253Y-22563348D01*
X51154479Y-22588884D01*
X51112605Y-22623249D01*
X51078240Y-22665123D01*
X51052704Y-22712897D01*
X51036980Y-22764735D01*
X51031670Y-22818644D01*
X51031670Y-24053289D01*
X50714047Y-24370912D01*
X50698789Y-24383434D01*
X50686267Y-24398692D01*
X50686264Y-24398695D01*
X50648802Y-24444343D01*
X50611660Y-24513831D01*
X50588787Y-24589232D01*
X50581064Y-24667645D01*
X50583000Y-24687301D01*
X50582999Y-31190722D01*
X50567000Y-31206721D01*
X50567000Y-31098508D01*
X50527149Y-30898162D01*
X50448978Y-30709440D01*
X50335491Y-30539595D01*
X50191049Y-30395153D01*
X50021204Y-30281666D01*
X49832482Y-30203495D01*
X49632136Y-30163644D01*
X49427864Y-30163644D01*
X49227518Y-30203495D01*
X49038796Y-30281666D01*
X48868951Y-30395153D01*
X48842999Y-30421105D01*
X48842999Y-24833330D01*
X49136314Y-24540015D01*
X49227518Y-24577793D01*
X49427864Y-24617644D01*
X49632136Y-24617644D01*
X49832482Y-24577793D01*
X50021204Y-24499622D01*
X50191049Y-24386135D01*
X50335491Y-24241693D01*
X50448978Y-24071848D01*
X50527149Y-23883126D01*
X50567000Y-23682780D01*
X50567000Y-23478508D01*
X50527149Y-23278162D01*
X50448978Y-23089440D01*
X50335491Y-22919595D01*
X50191049Y-22775153D01*
X50021204Y-22661666D01*
X49832482Y-22583495D01*
X49632136Y-22543644D01*
X49427864Y-22543644D01*
X49227518Y-22583495D01*
X49038796Y-22661666D01*
X48868951Y-22775153D01*
X48724509Y-22919595D01*
X48611022Y-23089440D01*
X48532851Y-23278162D01*
X48493000Y-23478508D01*
X48493000Y-23682780D01*
X48532851Y-23883126D01*
X48570629Y-23974330D01*
X48174047Y-24370912D01*
X48158789Y-24383434D01*
X48146267Y-24398692D01*
X48146264Y-24398695D01*
X48108802Y-24444343D01*
X48071660Y-24513831D01*
X48048787Y-24589232D01*
X48041064Y-24667645D01*
X48043000Y-24687301D01*
X48042999Y-31190722D01*
X48027000Y-31206721D01*
X48027000Y-31098508D01*
X47987149Y-30898162D01*
X47908978Y-30709440D01*
X47795491Y-30539595D01*
X47651049Y-30395153D01*
X47481204Y-30281666D01*
X47292482Y-30203495D01*
X47092136Y-30163644D01*
X46887864Y-30163644D01*
X46687518Y-30203495D01*
X46498796Y-30281666D01*
X46328951Y-30395153D01*
X46302999Y-30421105D01*
X46302999Y-24833330D01*
X46596314Y-24540015D01*
X46687518Y-24577793D01*
X46887864Y-24617644D01*
X47092136Y-24617644D01*
X47292482Y-24577793D01*
X47481204Y-24499622D01*
X47651049Y-24386135D01*
X47795491Y-24241693D01*
X47908978Y-24071848D01*
X47987149Y-23883126D01*
X48027000Y-23682780D01*
X48027000Y-23478508D01*
X47987149Y-23278162D01*
X47908978Y-23089440D01*
X47795491Y-22919595D01*
X47651049Y-22775153D01*
X47481204Y-22661666D01*
X47292482Y-22583495D01*
X47092136Y-22543644D01*
X46887864Y-22543644D01*
X46687518Y-22583495D01*
X46498796Y-22661666D01*
X46328951Y-22775153D01*
X46184509Y-22919595D01*
X46071022Y-23089440D01*
X45992851Y-23278162D01*
X45953000Y-23478508D01*
X45953000Y-23682780D01*
X45992851Y-23883126D01*
X46030629Y-23974330D01*
X45634047Y-24370912D01*
X45618789Y-24383434D01*
X45606267Y-24398692D01*
X45606264Y-24398695D01*
X45568802Y-24444343D01*
X45531660Y-24513831D01*
X45508787Y-24589232D01*
X45501064Y-24667645D01*
X45503000Y-24687301D01*
X45502999Y-31190721D01*
X45487000Y-31206720D01*
X45487000Y-31098508D01*
X45447149Y-30898162D01*
X45368978Y-30709440D01*
X45255491Y-30539595D01*
X45111049Y-30395153D01*
X44941204Y-30281666D01*
X44752482Y-30203495D01*
X44552136Y-30163644D01*
X44347864Y-30163644D01*
X44147518Y-30203495D01*
X43958796Y-30281666D01*
X43788951Y-30395153D01*
X43762999Y-30421105D01*
X43762999Y-24833330D01*
X44056314Y-24540015D01*
X44147518Y-24577793D01*
X44347864Y-24617644D01*
X44552136Y-24617644D01*
X44752482Y-24577793D01*
X44941204Y-24499622D01*
X45111049Y-24386135D01*
X45255491Y-24241693D01*
X45368978Y-24071848D01*
X45447149Y-23883126D01*
X45487000Y-23682780D01*
X45487000Y-23478508D01*
X45447149Y-23278162D01*
X45368978Y-23089440D01*
X45255491Y-22919595D01*
X45111049Y-22775153D01*
X44941204Y-22661666D01*
X44752482Y-22583495D01*
X44552136Y-22543644D01*
X44347864Y-22543644D01*
X44147518Y-22583495D01*
X43958796Y-22661666D01*
X43788951Y-22775153D01*
X43644509Y-22919595D01*
X43531022Y-23089440D01*
X43452851Y-23278162D01*
X43413000Y-23478508D01*
X43413000Y-23682780D01*
X43452851Y-23883126D01*
X43490629Y-23974330D01*
X43094047Y-24370912D01*
X43078789Y-24383434D01*
X43066267Y-24398692D01*
X43066264Y-24398695D01*
X43028802Y-24444343D01*
X42991660Y-24513831D01*
X42968787Y-24589232D01*
X42961064Y-24667645D01*
X42963000Y-24687301D01*
X42962999Y-31556720D01*
X42829761Y-31689958D01*
X42907149Y-31503126D01*
X42947000Y-31302780D01*
X42947000Y-31098508D01*
X42907149Y-30898162D01*
X42828978Y-30709440D01*
X42715491Y-30539595D01*
X42571049Y-30395153D01*
X42401204Y-30281666D01*
X42212482Y-30203495D01*
X42012136Y-30163644D01*
X41807864Y-30163644D01*
X41607518Y-30203495D01*
X41418796Y-30281666D01*
X41248951Y-30395153D01*
X41222999Y-30421105D01*
X41222999Y-24833330D01*
X41516314Y-24540015D01*
X41607518Y-24577793D01*
X41807864Y-24617644D01*
X42012136Y-24617644D01*
X42212482Y-24577793D01*
X42401204Y-24499622D01*
X42571049Y-24386135D01*
X42715491Y-24241693D01*
X42828978Y-24071848D01*
X42907149Y-23883126D01*
X42947000Y-23682780D01*
X42947000Y-23478508D01*
X42907149Y-23278162D01*
X42828978Y-23089440D01*
X42715491Y-22919595D01*
X42571049Y-22775153D01*
X42401204Y-22661666D01*
X42212482Y-22583495D01*
X42012136Y-22543644D01*
X41807864Y-22543644D01*
X41607518Y-22583495D01*
X41418796Y-22661666D01*
X41248951Y-22775153D01*
X41104509Y-22919595D01*
X40991022Y-23089440D01*
X40912851Y-23278162D01*
X40873000Y-23478508D01*
X40873000Y-23682780D01*
X40912851Y-23883126D01*
X40950629Y-23974330D01*
X40554047Y-24370912D01*
X40538789Y-24383434D01*
X40526267Y-24398692D01*
X40526264Y-24398695D01*
X40488802Y-24444343D01*
X40451660Y-24513831D01*
X40428787Y-24589232D01*
X40421064Y-24667645D01*
X40423000Y-24687301D01*
X40422999Y-31556719D01*
X40289761Y-31689957D01*
X40367149Y-31503126D01*
X40407000Y-31302780D01*
X40407000Y-31098508D01*
X40367149Y-30898162D01*
X40288978Y-30709440D01*
X40175491Y-30539595D01*
X40031049Y-30395153D01*
X39861204Y-30281666D01*
X39672482Y-30203495D01*
X39472136Y-30163644D01*
X39267864Y-30163644D01*
X39067518Y-30203495D01*
X38878796Y-30281666D01*
X38708951Y-30395153D01*
X38682999Y-30421105D01*
X38682999Y-24833330D01*
X38976314Y-24540015D01*
X39067518Y-24577793D01*
X39267864Y-24617644D01*
X39472136Y-24617644D01*
X39672482Y-24577793D01*
X39861204Y-24499622D01*
X40031049Y-24386135D01*
X40175491Y-24241693D01*
X40288978Y-24071848D01*
X40367149Y-23883126D01*
X40407000Y-23682780D01*
X40407000Y-23478508D01*
X40367149Y-23278162D01*
X40288978Y-23089440D01*
X40175491Y-22919595D01*
X40031049Y-22775153D01*
X39861204Y-22661666D01*
X39672482Y-22583495D01*
X39472136Y-22543644D01*
X39267864Y-22543644D01*
X39067518Y-22583495D01*
X38878796Y-22661666D01*
X38708951Y-22775153D01*
X38564509Y-22919595D01*
X38451022Y-23089440D01*
X38372851Y-23278162D01*
X38333000Y-23478508D01*
X38333000Y-23682780D01*
X38372851Y-23883126D01*
X38410629Y-23974330D01*
X38014047Y-24370912D01*
X37998789Y-24383434D01*
X37986267Y-24398692D01*
X37986264Y-24398695D01*
X37948802Y-24444343D01*
X37911660Y-24513831D01*
X37888787Y-24589232D01*
X37881064Y-24667645D01*
X37883000Y-24687301D01*
X37882999Y-31190722D01*
X37867000Y-31206721D01*
X37867000Y-31098508D01*
X37827149Y-30898162D01*
X37748978Y-30709440D01*
X37635491Y-30539595D01*
X37491049Y-30395153D01*
X37321204Y-30281666D01*
X37132482Y-30203495D01*
X36932136Y-30163644D01*
X36727864Y-30163644D01*
X36527518Y-30203495D01*
X36338796Y-30281666D01*
X36168951Y-30395153D01*
X36142999Y-30421105D01*
X36142999Y-24833330D01*
X36436314Y-24540015D01*
X36527518Y-24577793D01*
X36727864Y-24617644D01*
X36932136Y-24617644D01*
X37132482Y-24577793D01*
X37321204Y-24499622D01*
X37491049Y-24386135D01*
X37635491Y-24241693D01*
X37748978Y-24071848D01*
X37827149Y-23883126D01*
X37867000Y-23682780D01*
X37867000Y-23478508D01*
X37827149Y-23278162D01*
X37748978Y-23089440D01*
X37635491Y-22919595D01*
X37491049Y-22775153D01*
X37321204Y-22661666D01*
X37132482Y-22583495D01*
X36932136Y-22543644D01*
X36727864Y-22543644D01*
X36527518Y-22583495D01*
X36338796Y-22661666D01*
X36168951Y-22775153D01*
X36024509Y-22919595D01*
X35911022Y-23089440D01*
X35832851Y-23278162D01*
X35793000Y-23478508D01*
X35793000Y-23682780D01*
X35832851Y-23883126D01*
X35870629Y-23974330D01*
X35474047Y-24370912D01*
X35458789Y-24383434D01*
X35446267Y-24398692D01*
X35446264Y-24398695D01*
X35408802Y-24444343D01*
X35371660Y-24513831D01*
X35348787Y-24589232D01*
X35341064Y-24667645D01*
X35343000Y-24687301D01*
X35342999Y-31190721D01*
X35327000Y-31206720D01*
X35327000Y-31098508D01*
X35287149Y-30898162D01*
X35208978Y-30709440D01*
X35095491Y-30539595D01*
X34951049Y-30395153D01*
X34781204Y-30281666D01*
X34592482Y-30203495D01*
X34392136Y-30163644D01*
X34187864Y-30163644D01*
X33987518Y-30203495D01*
X33798796Y-30281666D01*
X33628951Y-30395153D01*
X33602999Y-30421105D01*
X33602999Y-24833330D01*
X33896314Y-24540015D01*
X33987518Y-24577793D01*
X34187864Y-24617644D01*
X34392136Y-24617644D01*
X34592482Y-24577793D01*
X34781204Y-24499622D01*
X34951049Y-24386135D01*
X35095491Y-24241693D01*
X35208978Y-24071848D01*
X35287149Y-23883126D01*
X35327000Y-23682780D01*
X35327000Y-23478508D01*
X35287149Y-23278162D01*
X35208978Y-23089440D01*
X35095491Y-22919595D01*
X34951049Y-22775153D01*
X34781204Y-22661666D01*
X34592482Y-22583495D01*
X34392136Y-22543644D01*
X34187864Y-22543644D01*
X33987518Y-22583495D01*
X33798796Y-22661666D01*
X33628951Y-22775153D01*
X33484509Y-22919595D01*
X33371022Y-23089440D01*
X33292851Y-23278162D01*
X33253000Y-23478508D01*
X33253000Y-23682780D01*
X33292851Y-23883126D01*
X33330629Y-23974330D01*
X32934047Y-24370912D01*
X32918789Y-24383434D01*
X32906267Y-24398692D01*
X32906264Y-24398695D01*
X32868802Y-24444343D01*
X32831660Y-24513831D01*
X32808787Y-24589232D01*
X32801064Y-24667645D01*
X32803000Y-24687301D01*
X32802999Y-31190721D01*
X32787000Y-31206720D01*
X32787000Y-31098508D01*
X32747149Y-30898162D01*
X32668978Y-30709440D01*
X32555491Y-30539595D01*
X32411049Y-30395153D01*
X32275000Y-30304248D01*
X32275000Y-28981779D01*
X32277539Y-28955999D01*
X32275000Y-28930219D01*
X32275000Y-28930212D01*
X32267403Y-28853082D01*
X32237383Y-28754119D01*
X32188633Y-28662914D01*
X32123027Y-28582973D01*
X32102996Y-28566534D01*
X31062999Y-27526538D01*
X31062999Y-24638012D01*
X31107415Y-24769619D01*
X31351719Y-24872135D01*
X31611330Y-24925020D01*
X31876269Y-24926241D01*
X32136356Y-24875752D01*
X32381596Y-24775493D01*
X32392585Y-24769619D01*
X32466580Y-24550368D01*
X31750000Y-23833788D01*
X31735858Y-23847931D01*
X31482714Y-23594787D01*
X31496856Y-23580644D01*
X32003144Y-23580644D01*
X32719724Y-24297224D01*
X32938975Y-24223229D01*
X33041491Y-23978925D01*
X33094376Y-23719314D01*
X33095597Y-23454375D01*
X33045108Y-23194288D01*
X32944849Y-22949048D01*
X32938975Y-22938059D01*
X32719724Y-22864064D01*
X32003144Y-23580644D01*
X31496856Y-23580644D01*
X31482714Y-23566502D01*
X31735858Y-23313358D01*
X31750000Y-23327500D01*
X32466580Y-22610920D01*
X32392585Y-22391669D01*
X32148281Y-22289153D01*
X31888670Y-22236268D01*
X31623731Y-22235047D01*
X31586112Y-22242350D01*
X32348462Y-21480000D01*
X55002653Y-21480000D01*
X56836058Y-23313406D01*
X56836057Y-25159144D01*
X56700008Y-25250049D01*
X56555566Y-25394491D01*
X56442079Y-25564336D01*
X56363908Y-25753058D01*
X56324057Y-25953404D01*
X56324057Y-26157676D01*
X56363908Y-26358022D01*
X56442079Y-26546744D01*
X56555566Y-26716589D01*
X56700008Y-26861031D01*
X56869853Y-26974518D01*
X57058575Y-27052689D01*
X57258921Y-27092540D01*
X57463193Y-27092540D01*
X57663539Y-27052689D01*
X57729748Y-27025264D01*
X64264477Y-27025264D01*
X64338472Y-27244515D01*
X64582776Y-27347031D01*
X64842387Y-27399916D01*
X65107326Y-27401137D01*
X65367413Y-27350648D01*
X65612653Y-27250389D01*
X65623642Y-27244515D01*
X65697637Y-27025264D01*
X64981057Y-26308684D01*
X64264477Y-27025264D01*
X57729748Y-27025264D01*
X57852261Y-26974518D01*
X58022106Y-26861031D01*
X58166548Y-26716589D01*
X58280035Y-26546744D01*
X58358206Y-26358022D01*
X58393256Y-26181809D01*
X63635460Y-26181809D01*
X63685949Y-26441896D01*
X63786208Y-26687136D01*
X63792082Y-26698125D01*
X64011333Y-26772120D01*
X64727913Y-26055540D01*
X65234201Y-26055540D01*
X65950781Y-26772120D01*
X66170032Y-26698125D01*
X66272548Y-26453821D01*
X66325433Y-26194210D01*
X66326654Y-25929271D01*
X66276165Y-25669184D01*
X66175906Y-25423944D01*
X66170032Y-25412955D01*
X65950781Y-25338960D01*
X65234201Y-26055540D01*
X64727913Y-26055540D01*
X64011333Y-25338960D01*
X63792082Y-25412955D01*
X63689566Y-25657259D01*
X63636681Y-25916870D01*
X63635460Y-26181809D01*
X58393256Y-26181809D01*
X58398057Y-26157676D01*
X58398057Y-25953404D01*
X58358206Y-25753058D01*
X58280035Y-25564336D01*
X58166548Y-25394491D01*
X58022106Y-25250049D01*
X57886057Y-25159144D01*
X57886057Y-25085816D01*
X64264477Y-25085816D01*
X64981057Y-25802396D01*
X65697637Y-25085816D01*
X65623642Y-24866565D01*
X65379338Y-24764049D01*
X65119727Y-24711164D01*
X64854788Y-24709943D01*
X64594701Y-24760432D01*
X64349461Y-24860691D01*
X64338472Y-24866565D01*
X64264477Y-25085816D01*
X57886057Y-25085816D01*
X57886057Y-23313404D01*
X58354927Y-22844535D01*
X58363000Y-22845330D01*
X58863000Y-22845330D01*
X58965682Y-22835217D01*
X59064418Y-22805266D01*
X59155413Y-22756627D01*
X59235172Y-22691172D01*
X59300627Y-22611413D01*
X59323297Y-22569000D01*
X59427179Y-22569000D01*
X59438435Y-22683288D01*
X59471772Y-22793184D01*
X59525908Y-22894465D01*
X59598762Y-22983238D01*
X59687535Y-23056092D01*
X59788816Y-23110228D01*
X59898712Y-23143565D01*
X60013000Y-23154821D01*
X60188250Y-23152000D01*
X60334000Y-23006250D01*
X60334000Y-22023000D01*
X60692000Y-22023000D01*
X60692000Y-23006250D01*
X60837750Y-23152000D01*
X61013000Y-23154821D01*
X61127288Y-23143565D01*
X61237184Y-23110228D01*
X61338465Y-23056092D01*
X61427238Y-22983238D01*
X61500092Y-22894465D01*
X61554228Y-22793184D01*
X61587565Y-22683288D01*
X61598821Y-22569000D01*
X61596000Y-22168750D01*
X61450250Y-22023000D01*
X60692000Y-22023000D01*
X60334000Y-22023000D01*
X59575750Y-22023000D01*
X59430000Y-22168750D01*
X59427179Y-22569000D01*
X59323297Y-22569000D01*
X59349266Y-22520418D01*
X59379217Y-22421682D01*
X59389330Y-22319000D01*
X59389330Y-21369000D01*
X59379217Y-21266318D01*
X59349266Y-21167582D01*
X59323298Y-21119000D01*
X59427179Y-21119000D01*
X59430000Y-21519250D01*
X59575750Y-21665000D01*
X60334000Y-21665000D01*
X60334000Y-20681750D01*
X60692000Y-20681750D01*
X60692000Y-21665000D01*
X61450250Y-21665000D01*
X61596000Y-21519250D01*
X61598821Y-21119000D01*
X61587565Y-21004712D01*
X61554228Y-20894816D01*
X61500092Y-20793535D01*
X61427238Y-20704762D01*
X61338465Y-20631908D01*
X61237184Y-20577772D01*
X61127288Y-20544435D01*
X61013000Y-20533179D01*
X60837750Y-20536000D01*
X60692000Y-20681750D01*
X60334000Y-20681750D01*
X60188250Y-20536000D01*
X60013000Y-20533179D01*
X59898712Y-20544435D01*
X59788816Y-20577772D01*
X59687535Y-20631908D01*
X59598762Y-20704762D01*
X59525908Y-20793535D01*
X59471772Y-20894816D01*
X59438435Y-21004712D01*
X59427179Y-21119000D01*
X59323298Y-21119000D01*
X59300627Y-21076587D01*
X59235172Y-20996828D01*
X59155413Y-20931373D01*
X59064418Y-20882734D01*
X58965682Y-20852783D01*
X58863000Y-20842670D01*
X58363000Y-20842670D01*
X58260318Y-20852783D01*
X58161582Y-20882734D01*
X58070587Y-20931373D01*
X57990828Y-20996828D01*
X57925373Y-21076587D01*
X57876734Y-21167582D01*
X57846783Y-21266318D01*
X57836670Y-21369000D01*
X57836670Y-21877868D01*
X57361057Y-22353481D01*
X55609585Y-20602010D01*
X55593141Y-20581973D01*
X55513200Y-20516367D01*
X55421995Y-20467617D01*
X55323032Y-20437597D01*
X55245902Y-20430000D01*
X55245894Y-20430000D01*
X55220114Y-20427461D01*
X55194334Y-20430000D01*
X32156788Y-20430000D01*
X32131000Y-20427460D01*
X32105212Y-20430000D01*
X32028082Y-20437597D01*
X31929119Y-20467617D01*
X31837914Y-20516367D01*
X31757973Y-20581973D01*
X31741534Y-20602004D01*
X30185004Y-22158535D01*
X30164973Y-22174974D01*
X30148534Y-22195005D01*
X30099366Y-22254916D01*
X30050616Y-22346121D01*
X30020596Y-22445084D01*
X30010460Y-22548001D01*
X30013000Y-22573791D01*
X30012999Y-27718219D01*
X30010460Y-27743999D01*
X30012999Y-27769779D01*
X30012999Y-27769786D01*
X30020596Y-27846916D01*
X30050616Y-27945879D01*
X30099366Y-28037085D01*
X30164972Y-28117026D01*
X30185009Y-28133470D01*
X31225001Y-29173463D01*
X31225000Y-30304248D01*
X31088951Y-30395153D01*
X30944509Y-30539595D01*
X30831022Y-30709440D01*
X30752851Y-30898162D01*
X30713000Y-31098508D01*
X30713000Y-31302780D01*
X30744921Y-31463261D01*
X29787184Y-32420999D01*
X26355462Y-32420999D01*
X27906132Y-30870330D01*
X28415000Y-30870330D01*
X28517682Y-30860217D01*
X28616418Y-30830266D01*
X28707413Y-30781627D01*
X28787172Y-30716172D01*
X28852627Y-30636413D01*
X28901266Y-30545418D01*
X28931217Y-30446682D01*
X28941330Y-30344000D01*
X28941330Y-29844000D01*
X28931217Y-29741318D01*
X28901266Y-29642582D01*
X28852627Y-29551587D01*
X28787172Y-29471828D01*
X28707413Y-29406373D01*
X28616418Y-29357734D01*
X28517682Y-29327783D01*
X28415000Y-29317670D01*
X27465000Y-29317670D01*
X27362318Y-29327783D01*
X27263582Y-29357734D01*
X27172587Y-29406373D01*
X27092828Y-29471828D01*
X27027373Y-29551587D01*
X26978734Y-29642582D01*
X26948783Y-29741318D01*
X26938670Y-29844000D01*
X26938670Y-30344000D01*
X26939465Y-30352073D01*
X25229000Y-32062539D01*
X24190330Y-31023869D01*
X24190330Y-29640000D01*
X24180217Y-29537318D01*
X24150266Y-29438582D01*
X24101627Y-29347587D01*
X24036172Y-29267828D01*
X23956413Y-29202373D01*
X23865418Y-29153734D01*
X23766682Y-29123783D01*
X23664000Y-29113670D01*
X22564000Y-29113670D01*
X22461318Y-29123783D01*
X22362582Y-29153734D01*
X22271587Y-29202373D01*
X22191828Y-29267828D01*
X22126373Y-29347587D01*
X22077734Y-29438582D01*
X22047783Y-29537318D01*
X22037670Y-29640000D01*
X20250000Y-29640000D01*
X20250000Y-28694000D01*
X26629179Y-28694000D01*
X26640435Y-28808288D01*
X26673772Y-28918184D01*
X26727908Y-29019465D01*
X26800762Y-29108238D01*
X26889535Y-29181092D01*
X26990816Y-29235228D01*
X27100712Y-29268565D01*
X27215000Y-29279821D01*
X27615250Y-29277000D01*
X27761000Y-29131250D01*
X27761000Y-28373000D01*
X28119000Y-28373000D01*
X28119000Y-29131250D01*
X28264750Y-29277000D01*
X28665000Y-29279821D01*
X28779288Y-29268565D01*
X28889184Y-29235228D01*
X28990465Y-29181092D01*
X29079238Y-29108238D01*
X29152092Y-29019465D01*
X29206228Y-28918184D01*
X29239565Y-28808288D01*
X29250821Y-28694000D01*
X29248000Y-28518750D01*
X29102250Y-28373000D01*
X28119000Y-28373000D01*
X27761000Y-28373000D01*
X26777750Y-28373000D01*
X26632000Y-28518750D01*
X26629179Y-28694000D01*
X20250000Y-28694000D01*
X20250000Y-27694000D01*
X26629179Y-27694000D01*
X26632000Y-27869250D01*
X26777750Y-28015000D01*
X27761000Y-28015000D01*
X27761000Y-27256750D01*
X28119000Y-27256750D01*
X28119000Y-28015000D01*
X29102250Y-28015000D01*
X29248000Y-27869250D01*
X29250821Y-27694000D01*
X29239565Y-27579712D01*
X29206228Y-27469816D01*
X29152092Y-27368535D01*
X29079238Y-27279762D01*
X28990465Y-27206908D01*
X28889184Y-27152772D01*
X28779288Y-27119435D01*
X28665000Y-27108179D01*
X28264750Y-27111000D01*
X28119000Y-27256750D01*
X27761000Y-27256750D01*
X27615250Y-27111000D01*
X27215000Y-27108179D01*
X27100712Y-27119435D01*
X26990816Y-27152772D01*
X26889535Y-27206908D01*
X26800762Y-27279762D01*
X26727908Y-27368535D01*
X26673772Y-27469816D01*
X26640435Y-27579712D01*
X26629179Y-27694000D01*
X20250000Y-27694000D01*
X20250000Y-23945329D01*
X23017000Y-23945329D01*
X23017000Y-24314671D01*
X23089056Y-24676917D01*
X23230397Y-25018145D01*
X23435593Y-25325243D01*
X23696757Y-25586407D01*
X24003855Y-25791603D01*
X24345083Y-25932944D01*
X24707329Y-26005000D01*
X25076671Y-26005000D01*
X25438917Y-25932944D01*
X25780145Y-25791603D01*
X26087243Y-25586407D01*
X26348407Y-25325243D01*
X26553603Y-25018145D01*
X26694944Y-24676917D01*
X26767000Y-24314671D01*
X26767000Y-23945329D01*
X26694944Y-23583083D01*
X26553603Y-23241855D01*
X26348407Y-22934757D01*
X26087243Y-22673593D01*
X25780145Y-22468397D01*
X25438917Y-22327056D01*
X25076671Y-22255000D01*
X24707329Y-22255000D01*
X24345083Y-22327056D01*
X24003855Y-22468397D01*
X23696757Y-22673593D01*
X23435593Y-22934757D01*
X23230397Y-23241855D01*
X23089056Y-23583083D01*
X23017000Y-23945329D01*
X20250000Y-23945329D01*
X20250000Y-20250000D01*
X69750000Y-20250000D01*
X69750001Y-59750000D01*
%TA.AperFunction,Conductor*%
D22*
G36*
X69750001Y-59750000D02*
G01*
X20250000Y-59750000D01*
X20250000Y-55822329D01*
X64546000Y-55822329D01*
X64546000Y-56191671D01*
X64618056Y-56553917D01*
X64759397Y-56895145D01*
X64964593Y-57202243D01*
X65225757Y-57463407D01*
X65532855Y-57668603D01*
X65874083Y-57809944D01*
X66236329Y-57882000D01*
X66605671Y-57882000D01*
X66967917Y-57809944D01*
X67309145Y-57668603D01*
X67616243Y-57463407D01*
X67877407Y-57202243D01*
X68082603Y-56895145D01*
X68223944Y-56553917D01*
X68296000Y-56191671D01*
X68296000Y-55822329D01*
X68223944Y-55460083D01*
X68082603Y-55118855D01*
X67877407Y-54811757D01*
X67616243Y-54550593D01*
X67309145Y-54345397D01*
X66967917Y-54204056D01*
X66605671Y-54132000D01*
X66236329Y-54132000D01*
X65874083Y-54204056D01*
X65532855Y-54345397D01*
X65225757Y-54550593D01*
X64964593Y-54811757D01*
X64759397Y-55118855D01*
X64618056Y-55460083D01*
X64546000Y-55822329D01*
X20250000Y-55822329D01*
X20250000Y-53737197D01*
X21227000Y-53737197D01*
X21227000Y-53958803D01*
X21270233Y-54176150D01*
X21355038Y-54380887D01*
X21478156Y-54565145D01*
X21634855Y-54721844D01*
X21819113Y-54844962D01*
X22023850Y-54929767D01*
X22241197Y-54973000D01*
X22462803Y-54973000D01*
X22680150Y-54929767D01*
X22884887Y-54844962D01*
X23069145Y-54721844D01*
X23225844Y-54565145D01*
X23348962Y-54380887D01*
X23433767Y-54176150D01*
X23477000Y-53958803D01*
X23477000Y-53737197D01*
X23767000Y-53737197D01*
X23767000Y-53958803D01*
X23810233Y-54176150D01*
X23895038Y-54380887D01*
X24018156Y-54565145D01*
X24174855Y-54721844D01*
X24359113Y-54844962D01*
X24563850Y-54929767D01*
X24781197Y-54973000D01*
X25002803Y-54973000D01*
X25220150Y-54929767D01*
X25424887Y-54844962D01*
X25609145Y-54721844D01*
X25765844Y-54565145D01*
X25888962Y-54380887D01*
X25973767Y-54176150D01*
X26017000Y-53958803D01*
X26017000Y-53737197D01*
X26307000Y-53737197D01*
X26307000Y-53958803D01*
X26350233Y-54176150D01*
X26435038Y-54380887D01*
X26558156Y-54565145D01*
X26714855Y-54721844D01*
X26899113Y-54844962D01*
X27103850Y-54929767D01*
X27321197Y-54973000D01*
X27542803Y-54973000D01*
X27760150Y-54929767D01*
X27964887Y-54844962D01*
X28149145Y-54721844D01*
X28305844Y-54565145D01*
X28428962Y-54380887D01*
X28513767Y-54176150D01*
X28557000Y-53958803D01*
X28557000Y-53737197D01*
X28847000Y-53737197D01*
X28847000Y-53958803D01*
X28890233Y-54176150D01*
X28975038Y-54380887D01*
X29098156Y-54565145D01*
X29254855Y-54721844D01*
X29439113Y-54844962D01*
X29643850Y-54929767D01*
X29861197Y-54973000D01*
X30082803Y-54973000D01*
X30300150Y-54929767D01*
X30504887Y-54844962D01*
X30689145Y-54721844D01*
X30845844Y-54565145D01*
X30968962Y-54380887D01*
X31053767Y-54176150D01*
X31097000Y-53958803D01*
X31097000Y-53737197D01*
X31387000Y-53737197D01*
X31387000Y-53958803D01*
X31430233Y-54176150D01*
X31515038Y-54380887D01*
X31638156Y-54565145D01*
X31794855Y-54721844D01*
X31979113Y-54844962D01*
X32183850Y-54929767D01*
X32401197Y-54973000D01*
X32622803Y-54973000D01*
X32840150Y-54929767D01*
X33044887Y-54844962D01*
X33229145Y-54721844D01*
X33385844Y-54565145D01*
X33508962Y-54380887D01*
X33593767Y-54176150D01*
X33637000Y-53958803D01*
X33637000Y-53737197D01*
X33927000Y-53737197D01*
X33927000Y-53958803D01*
X33970233Y-54176150D01*
X34055038Y-54380887D01*
X34178156Y-54565145D01*
X34334855Y-54721844D01*
X34519113Y-54844962D01*
X34723850Y-54929767D01*
X34941197Y-54973000D01*
X35162803Y-54973000D01*
X35380150Y-54929767D01*
X35584887Y-54844962D01*
X35769145Y-54721844D01*
X35925844Y-54565145D01*
X36048962Y-54380887D01*
X36133767Y-54176150D01*
X36177000Y-53958803D01*
X36177000Y-53737197D01*
X36467000Y-53737197D01*
X36467000Y-53958803D01*
X36510233Y-54176150D01*
X36595038Y-54380887D01*
X36718156Y-54565145D01*
X36874855Y-54721844D01*
X37059113Y-54844962D01*
X37263850Y-54929767D01*
X37481197Y-54973000D01*
X37702803Y-54973000D01*
X37920150Y-54929767D01*
X38124887Y-54844962D01*
X38309145Y-54721844D01*
X38465844Y-54565145D01*
X38588962Y-54380887D01*
X38673767Y-54176150D01*
X38717000Y-53958803D01*
X38717000Y-53737197D01*
X39007000Y-53737197D01*
X39007000Y-53958803D01*
X39050233Y-54176150D01*
X39135038Y-54380887D01*
X39258156Y-54565145D01*
X39414855Y-54721844D01*
X39599113Y-54844962D01*
X39803850Y-54929767D01*
X40021197Y-54973000D01*
X40242803Y-54973000D01*
X40460150Y-54929767D01*
X40664887Y-54844962D01*
X40849145Y-54721844D01*
X41005844Y-54565145D01*
X41128962Y-54380887D01*
X41213767Y-54176150D01*
X41257000Y-53958803D01*
X41257000Y-53737197D01*
X41547000Y-53737197D01*
X41547000Y-53958803D01*
X41590233Y-54176150D01*
X41675038Y-54380887D01*
X41798156Y-54565145D01*
X41954855Y-54721844D01*
X42139113Y-54844962D01*
X42343850Y-54929767D01*
X42561197Y-54973000D01*
X42782803Y-54973000D01*
X43000150Y-54929767D01*
X43204887Y-54844962D01*
X43389145Y-54721844D01*
X43545844Y-54565145D01*
X43668962Y-54380887D01*
X43753767Y-54176150D01*
X43797000Y-53958803D01*
X43797000Y-53737197D01*
X44087000Y-53737197D01*
X44087000Y-53958803D01*
X44130233Y-54176150D01*
X44215038Y-54380887D01*
X44338156Y-54565145D01*
X44494855Y-54721844D01*
X44679113Y-54844962D01*
X44883850Y-54929767D01*
X45101197Y-54973000D01*
X45322803Y-54973000D01*
X45540150Y-54929767D01*
X45744887Y-54844962D01*
X45929145Y-54721844D01*
X46085844Y-54565145D01*
X46208962Y-54380887D01*
X46293767Y-54176150D01*
X46337000Y-53958803D01*
X46337000Y-53737197D01*
X46627000Y-53737197D01*
X46627000Y-53958803D01*
X46670233Y-54176150D01*
X46755038Y-54380887D01*
X46878156Y-54565145D01*
X47034855Y-54721844D01*
X47219113Y-54844962D01*
X47423850Y-54929767D01*
X47641197Y-54973000D01*
X47862803Y-54973000D01*
X48080150Y-54929767D01*
X48284887Y-54844962D01*
X48469145Y-54721844D01*
X48625844Y-54565145D01*
X48748962Y-54380887D01*
X48833767Y-54176150D01*
X48877000Y-53958803D01*
X48877000Y-53737197D01*
X49167000Y-53737197D01*
X49167000Y-53958803D01*
X49210233Y-54176150D01*
X49295038Y-54380887D01*
X49418156Y-54565145D01*
X49574855Y-54721844D01*
X49759113Y-54844962D01*
X49963850Y-54929767D01*
X50181197Y-54973000D01*
X50402803Y-54973000D01*
X50620150Y-54929767D01*
X50824887Y-54844962D01*
X51009145Y-54721844D01*
X51165844Y-54565145D01*
X51288962Y-54380887D01*
X51373767Y-54176150D01*
X51417000Y-53958803D01*
X51417000Y-53737197D01*
X51707000Y-53737197D01*
X51707000Y-53958803D01*
X51750233Y-54176150D01*
X51835038Y-54380887D01*
X51958156Y-54565145D01*
X52114855Y-54721844D01*
X52299113Y-54844962D01*
X52503850Y-54929767D01*
X52721197Y-54973000D01*
X52942803Y-54973000D01*
X53160150Y-54929767D01*
X53364887Y-54844962D01*
X53549145Y-54721844D01*
X53705844Y-54565145D01*
X53828962Y-54380887D01*
X53913767Y-54176150D01*
X53957000Y-53958803D01*
X53957000Y-53737197D01*
X54247000Y-53737197D01*
X54247000Y-53958803D01*
X54290233Y-54176150D01*
X54375038Y-54380887D01*
X54498156Y-54565145D01*
X54654855Y-54721844D01*
X54839113Y-54844962D01*
X55043850Y-54929767D01*
X55261197Y-54973000D01*
X55482803Y-54973000D01*
X55700150Y-54929767D01*
X55904887Y-54844962D01*
X56089145Y-54721844D01*
X56245844Y-54565145D01*
X56368962Y-54380887D01*
X56453767Y-54176150D01*
X56497000Y-53958803D01*
X56497000Y-53737197D01*
X56787000Y-53737197D01*
X56787000Y-53958803D01*
X56830233Y-54176150D01*
X56915038Y-54380887D01*
X57038156Y-54565145D01*
X57194855Y-54721844D01*
X57379113Y-54844962D01*
X57583850Y-54929767D01*
X57801197Y-54973000D01*
X58022803Y-54973000D01*
X58240150Y-54929767D01*
X58444887Y-54844962D01*
X58629145Y-54721844D01*
X58785844Y-54565145D01*
X58908962Y-54380887D01*
X58993767Y-54176150D01*
X59037000Y-53958803D01*
X59037000Y-53737197D01*
X58993767Y-53519850D01*
X58908962Y-53315113D01*
X58785844Y-53130855D01*
X58652989Y-52998000D01*
X59325670Y-52998000D01*
X59325670Y-54698000D01*
X59330980Y-54751909D01*
X59346704Y-54803747D01*
X59372240Y-54851521D01*
X59406605Y-54893395D01*
X59448479Y-54927760D01*
X59496253Y-54953296D01*
X59548091Y-54969020D01*
X59602000Y-54974330D01*
X61302000Y-54974330D01*
X61355909Y-54969020D01*
X61407747Y-54953296D01*
X61455521Y-54927760D01*
X61497395Y-54893395D01*
X61531760Y-54851521D01*
X61557296Y-54803747D01*
X61573020Y-54751909D01*
X61578330Y-54698000D01*
X61578330Y-52998000D01*
X61573020Y-52944091D01*
X61557296Y-52892253D01*
X61531760Y-52844479D01*
X61497395Y-52802605D01*
X61455521Y-52768240D01*
X61407747Y-52742704D01*
X61355909Y-52726980D01*
X61302000Y-52721670D01*
X59602000Y-52721670D01*
X59548091Y-52726980D01*
X59496253Y-52742704D01*
X59448479Y-52768240D01*
X59406605Y-52802605D01*
X59372240Y-52844479D01*
X59346704Y-52892253D01*
X59330980Y-52944091D01*
X59325670Y-52998000D01*
X58652989Y-52998000D01*
X58629145Y-52974156D01*
X58444887Y-52851038D01*
X58240150Y-52766233D01*
X58022803Y-52723000D01*
X57801197Y-52723000D01*
X57583850Y-52766233D01*
X57379113Y-52851038D01*
X57194855Y-52974156D01*
X57038156Y-53130855D01*
X56915038Y-53315113D01*
X56830233Y-53519850D01*
X56787000Y-53737197D01*
X56497000Y-53737197D01*
X56453767Y-53519850D01*
X56368962Y-53315113D01*
X56245844Y-53130855D01*
X56089145Y-52974156D01*
X55904887Y-52851038D01*
X55700150Y-52766233D01*
X55482803Y-52723000D01*
X55261197Y-52723000D01*
X55043850Y-52766233D01*
X54839113Y-52851038D01*
X54654855Y-52974156D01*
X54498156Y-53130855D01*
X54375038Y-53315113D01*
X54290233Y-53519850D01*
X54247000Y-53737197D01*
X53957000Y-53737197D01*
X53913767Y-53519850D01*
X53828962Y-53315113D01*
X53705844Y-53130855D01*
X53549145Y-52974156D01*
X53364887Y-52851038D01*
X53160150Y-52766233D01*
X52942803Y-52723000D01*
X52721197Y-52723000D01*
X52503850Y-52766233D01*
X52299113Y-52851038D01*
X52114855Y-52974156D01*
X51958156Y-53130855D01*
X51835038Y-53315113D01*
X51750233Y-53519850D01*
X51707000Y-53737197D01*
X51417000Y-53737197D01*
X51373767Y-53519850D01*
X51288962Y-53315113D01*
X51165844Y-53130855D01*
X51009145Y-52974156D01*
X50824887Y-52851038D01*
X50620150Y-52766233D01*
X50402803Y-52723000D01*
X50181197Y-52723000D01*
X49963850Y-52766233D01*
X49759113Y-52851038D01*
X49574855Y-52974156D01*
X49418156Y-53130855D01*
X49295038Y-53315113D01*
X49210233Y-53519850D01*
X49167000Y-53737197D01*
X48877000Y-53737197D01*
X48833767Y-53519850D01*
X48748962Y-53315113D01*
X48625844Y-53130855D01*
X48469145Y-52974156D01*
X48284887Y-52851038D01*
X48080150Y-52766233D01*
X47862803Y-52723000D01*
X47641197Y-52723000D01*
X47423850Y-52766233D01*
X47219113Y-52851038D01*
X47034855Y-52974156D01*
X46878156Y-53130855D01*
X46755038Y-53315113D01*
X46670233Y-53519850D01*
X46627000Y-53737197D01*
X46337000Y-53737197D01*
X46293767Y-53519850D01*
X46208962Y-53315113D01*
X46085844Y-53130855D01*
X45929145Y-52974156D01*
X45744887Y-52851038D01*
X45540150Y-52766233D01*
X45322803Y-52723000D01*
X45101197Y-52723000D01*
X44883850Y-52766233D01*
X44679113Y-52851038D01*
X44494855Y-52974156D01*
X44338156Y-53130855D01*
X44215038Y-53315113D01*
X44130233Y-53519850D01*
X44087000Y-53737197D01*
X43797000Y-53737197D01*
X43753767Y-53519850D01*
X43668962Y-53315113D01*
X43545844Y-53130855D01*
X43389145Y-52974156D01*
X43204887Y-52851038D01*
X43000150Y-52766233D01*
X42782803Y-52723000D01*
X42561197Y-52723000D01*
X42343850Y-52766233D01*
X42139113Y-52851038D01*
X41954855Y-52974156D01*
X41798156Y-53130855D01*
X41675038Y-53315113D01*
X41590233Y-53519850D01*
X41547000Y-53737197D01*
X41257000Y-53737197D01*
X41213767Y-53519850D01*
X41128962Y-53315113D01*
X41005844Y-53130855D01*
X40849145Y-52974156D01*
X40664887Y-52851038D01*
X40460150Y-52766233D01*
X40242803Y-52723000D01*
X40021197Y-52723000D01*
X39803850Y-52766233D01*
X39599113Y-52851038D01*
X39414855Y-52974156D01*
X39258156Y-53130855D01*
X39135038Y-53315113D01*
X39050233Y-53519850D01*
X39007000Y-53737197D01*
X38717000Y-53737197D01*
X38673767Y-53519850D01*
X38588962Y-53315113D01*
X38465844Y-53130855D01*
X38309145Y-52974156D01*
X38124887Y-52851038D01*
X37920150Y-52766233D01*
X37702803Y-52723000D01*
X37481197Y-52723000D01*
X37263850Y-52766233D01*
X37059113Y-52851038D01*
X36874855Y-52974156D01*
X36718156Y-53130855D01*
X36595038Y-53315113D01*
X36510233Y-53519850D01*
X36467000Y-53737197D01*
X36177000Y-53737197D01*
X36133767Y-53519850D01*
X36048962Y-53315113D01*
X35925844Y-53130855D01*
X35769145Y-52974156D01*
X35584887Y-52851038D01*
X35380150Y-52766233D01*
X35162803Y-52723000D01*
X34941197Y-52723000D01*
X34723850Y-52766233D01*
X34519113Y-52851038D01*
X34334855Y-52974156D01*
X34178156Y-53130855D01*
X34055038Y-53315113D01*
X33970233Y-53519850D01*
X33927000Y-53737197D01*
X33637000Y-53737197D01*
X33593767Y-53519850D01*
X33508962Y-53315113D01*
X33385844Y-53130855D01*
X33229145Y-52974156D01*
X33044887Y-52851038D01*
X32840150Y-52766233D01*
X32622803Y-52723000D01*
X32401197Y-52723000D01*
X32183850Y-52766233D01*
X31979113Y-52851038D01*
X31794855Y-52974156D01*
X31638156Y-53130855D01*
X31515038Y-53315113D01*
X31430233Y-53519850D01*
X31387000Y-53737197D01*
X31097000Y-53737197D01*
X31053767Y-53519850D01*
X30968962Y-53315113D01*
X30845844Y-53130855D01*
X30689145Y-52974156D01*
X30504887Y-52851038D01*
X30300150Y-52766233D01*
X30082803Y-52723000D01*
X29861197Y-52723000D01*
X29643850Y-52766233D01*
X29439113Y-52851038D01*
X29254855Y-52974156D01*
X29098156Y-53130855D01*
X28975038Y-53315113D01*
X28890233Y-53519850D01*
X28847000Y-53737197D01*
X28557000Y-53737197D01*
X28513767Y-53519850D01*
X28428962Y-53315113D01*
X28305844Y-53130855D01*
X28149145Y-52974156D01*
X27964887Y-52851038D01*
X27760150Y-52766233D01*
X27542803Y-52723000D01*
X27321197Y-52723000D01*
X27103850Y-52766233D01*
X26899113Y-52851038D01*
X26714855Y-52974156D01*
X26558156Y-53130855D01*
X26435038Y-53315113D01*
X26350233Y-53519850D01*
X26307000Y-53737197D01*
X26017000Y-53737197D01*
X25973767Y-53519850D01*
X25888962Y-53315113D01*
X25765844Y-53130855D01*
X25609145Y-52974156D01*
X25424887Y-52851038D01*
X25220150Y-52766233D01*
X25002803Y-52723000D01*
X24781197Y-52723000D01*
X24563850Y-52766233D01*
X24359113Y-52851038D01*
X24174855Y-52974156D01*
X24018156Y-53130855D01*
X23895038Y-53315113D01*
X23810233Y-53519850D01*
X23767000Y-53737197D01*
X23477000Y-53737197D01*
X23433767Y-53519850D01*
X23348962Y-53315113D01*
X23225844Y-53130855D01*
X23069145Y-52974156D01*
X22884887Y-52851038D01*
X22680150Y-52766233D01*
X22462803Y-52723000D01*
X22241197Y-52723000D01*
X22023850Y-52766233D01*
X21819113Y-52851038D01*
X21634855Y-52974156D01*
X21478156Y-53130855D01*
X21355038Y-53315113D01*
X21270233Y-53519850D01*
X21227000Y-53737197D01*
X20250000Y-53737197D01*
X20250000Y-35590000D01*
X21728179Y-35590000D01*
X21739435Y-35704288D01*
X21772772Y-35814184D01*
X21826908Y-35915465D01*
X21899762Y-36004238D01*
X21988535Y-36077092D01*
X22089816Y-36131228D01*
X22199712Y-36164565D01*
X22314000Y-36175821D01*
X22789250Y-36173000D01*
X22935000Y-36027250D01*
X22935000Y-34469000D01*
X23293000Y-34469000D01*
X23293000Y-36027250D01*
X23438750Y-36173000D01*
X23914000Y-36175821D01*
X24028288Y-36164565D01*
X24138184Y-36131228D01*
X24239465Y-36077092D01*
X24328238Y-36004238D01*
X24401092Y-35915465D01*
X24455228Y-35814184D01*
X24488565Y-35704288D01*
X24499821Y-35590000D01*
X24497000Y-34614750D01*
X24351250Y-34469000D01*
X23293000Y-34469000D01*
X22935000Y-34469000D01*
X21876750Y-34469000D01*
X21731000Y-34614750D01*
X21728179Y-35590000D01*
X20250000Y-35590000D01*
X20250000Y-32990000D01*
X21728179Y-32990000D01*
X21731000Y-33965250D01*
X21876750Y-34111000D01*
X22935000Y-34111000D01*
X22935000Y-32552750D01*
X22789250Y-32407000D01*
X22314000Y-32404179D01*
X22199712Y-32415435D01*
X22089816Y-32448772D01*
X21988535Y-32502908D01*
X21899762Y-32575762D01*
X21826908Y-32664535D01*
X21772772Y-32765816D01*
X21739435Y-32875712D01*
X21728179Y-32990000D01*
X20250000Y-32990000D01*
X20250000Y-29640000D01*
X22037670Y-29640000D01*
X22037670Y-31740000D01*
X22047783Y-31842682D01*
X22077734Y-31941418D01*
X22126373Y-32032413D01*
X22191828Y-32112172D01*
X22271587Y-32177627D01*
X22362582Y-32226266D01*
X22461318Y-32256217D01*
X22564000Y-32266330D01*
X23664000Y-32266330D01*
X23766682Y-32256217D01*
X23865418Y-32226266D01*
X23893040Y-32211501D01*
X24126882Y-32445343D01*
X24028288Y-32415435D01*
X23914000Y-32404179D01*
X23438750Y-32407000D01*
X23293000Y-32552750D01*
X23293000Y-34111000D01*
X24351250Y-34111000D01*
X24497000Y-33965250D01*
X24499821Y-32990000D01*
X24488565Y-32875712D01*
X24458657Y-32777118D01*
X24845000Y-33163462D01*
X24844999Y-38044219D01*
X24842460Y-38069999D01*
X24844999Y-38095779D01*
X24844999Y-38095786D01*
X24852596Y-38172916D01*
X24882616Y-38271879D01*
X24931366Y-38363085D01*
X24996972Y-38443026D01*
X25017009Y-38459470D01*
X25591500Y-39033962D01*
X25588233Y-39041850D01*
X25545000Y-39259197D01*
X25545000Y-39480803D01*
X25588233Y-39698150D01*
X25673038Y-39902887D01*
X25796156Y-40087145D01*
X25952855Y-40243844D01*
X26137113Y-40366962D01*
X26341850Y-40451767D01*
X26490998Y-40481434D01*
X26490998Y-40633966D01*
X26270788Y-40533723D01*
X26009960Y-40638050D01*
X25774497Y-40791258D01*
X25573448Y-40987458D01*
X25414539Y-41219111D01*
X25303877Y-41477315D01*
X25293730Y-41510789D01*
X25395256Y-41731000D01*
X26491000Y-41731000D01*
X26491000Y-41711000D01*
X26849000Y-41711000D01*
X26849000Y-41731000D01*
X27944744Y-41731000D01*
X28046270Y-41510789D01*
X28036123Y-41477315D01*
X27925461Y-41219111D01*
X27766552Y-40987458D01*
X27565503Y-40791258D01*
X27330040Y-40638050D01*
X27069212Y-40533723D01*
X26849002Y-40633966D01*
X26849002Y-40481434D01*
X26998150Y-40451767D01*
X27202887Y-40366962D01*
X27387145Y-40243844D01*
X27543844Y-40087145D01*
X27666962Y-39902887D01*
X27670229Y-39895000D01*
X29479771Y-39895000D01*
X29483038Y-39902887D01*
X29606156Y-40087145D01*
X29762855Y-40243844D01*
X29947113Y-40366962D01*
X30151850Y-40451767D01*
X30300998Y-40481434D01*
X30300998Y-40633966D01*
X30080788Y-40533723D01*
X29819960Y-40638050D01*
X29584497Y-40791258D01*
X29383448Y-40987458D01*
X29224539Y-41219111D01*
X29113877Y-41477315D01*
X29103730Y-41510789D01*
X29205256Y-41731000D01*
X30301000Y-41731000D01*
X30301000Y-41711000D01*
X30659000Y-41711000D01*
X30659000Y-41731000D01*
X31754744Y-41731000D01*
X31856270Y-41510789D01*
X31846123Y-41477315D01*
X31735461Y-41219111D01*
X31576552Y-40987458D01*
X31375503Y-40791258D01*
X31140040Y-40638050D01*
X30879212Y-40533723D01*
X30659002Y-40633966D01*
X30659002Y-40481434D01*
X30808150Y-40451767D01*
X31012887Y-40366962D01*
X31197145Y-40243844D01*
X31353844Y-40087145D01*
X31476962Y-39902887D01*
X31561767Y-39698150D01*
X31605000Y-39480803D01*
X31605000Y-39259197D01*
X31561767Y-39041850D01*
X31476962Y-38837113D01*
X31353844Y-38652855D01*
X31197145Y-38496156D01*
X31012887Y-38373038D01*
X30808150Y-38288233D01*
X30590803Y-38245000D01*
X30369197Y-38245000D01*
X30151850Y-38288233D01*
X29947113Y-38373038D01*
X29762855Y-38496156D01*
X29606156Y-38652855D01*
X29483038Y-38837113D01*
X29479771Y-38845000D01*
X27670229Y-38845000D01*
X27666962Y-38837113D01*
X27543844Y-38652855D01*
X27387145Y-38496156D01*
X27202887Y-38373038D01*
X26998150Y-38288233D01*
X26780803Y-38245000D01*
X26559197Y-38245000D01*
X26341850Y-38288233D01*
X26333962Y-38291500D01*
X25998791Y-37956330D01*
X27520000Y-37956330D01*
X27573909Y-37951020D01*
X27625747Y-37935296D01*
X27673521Y-37909760D01*
X27715395Y-37875395D01*
X27749760Y-37833521D01*
X27775296Y-37785747D01*
X27791020Y-37733909D01*
X27796330Y-37680000D01*
X27796330Y-37168500D01*
X29353670Y-37168500D01*
X29353670Y-37680000D01*
X29358980Y-37733909D01*
X29374704Y-37785747D01*
X29400240Y-37833521D01*
X29434605Y-37875395D01*
X29476479Y-37909760D01*
X29524253Y-37935296D01*
X29576091Y-37951020D01*
X29630000Y-37956330D01*
X31330000Y-37956330D01*
X31383909Y-37951020D01*
X31435747Y-37935296D01*
X31483521Y-37909760D01*
X31525395Y-37875395D01*
X31559760Y-37833521D01*
X31585296Y-37785747D01*
X31601020Y-37733909D01*
X31606330Y-37680000D01*
X31606330Y-37584015D01*
X33485211Y-39462896D01*
X33422000Y-39456670D01*
X32872000Y-39456670D01*
X32779073Y-39465823D01*
X32689716Y-39492928D01*
X32607365Y-39536946D01*
X32535184Y-39596184D01*
X32475946Y-39668365D01*
X32431928Y-39750716D01*
X32404823Y-39840073D01*
X32395670Y-39933000D01*
X32395670Y-40333000D01*
X32404823Y-40425927D01*
X32431928Y-40515284D01*
X32475946Y-40597635D01*
X32535184Y-40669816D01*
X32607365Y-40729054D01*
X32689716Y-40773072D01*
X32775602Y-40799124D01*
X32672000Y-40797179D01*
X32557712Y-40808435D01*
X32447816Y-40841772D01*
X32346535Y-40895908D01*
X32257762Y-40968762D01*
X32184908Y-41057535D01*
X32130772Y-41158816D01*
X32097435Y-41268712D01*
X32086179Y-41383000D01*
X32089000Y-41458250D01*
X32234750Y-41604000D01*
X32968000Y-41604000D01*
X32968000Y-41584000D01*
X33326000Y-41584000D01*
X33326000Y-41604000D01*
X33346000Y-41604000D01*
X33346000Y-41962000D01*
X33326000Y-41962000D01*
X33326000Y-41982000D01*
X32968000Y-41982000D01*
X32968000Y-41962000D01*
X32234750Y-41962000D01*
X32089000Y-42107750D01*
X32086179Y-42183000D01*
X32097435Y-42297288D01*
X32130772Y-42407184D01*
X32184908Y-42508465D01*
X32257762Y-42597238D01*
X32346535Y-42670092D01*
X32447816Y-42724228D01*
X32511250Y-42743471D01*
X31637653Y-42743471D01*
X31735461Y-42600889D01*
X31846123Y-42342685D01*
X31856270Y-42309211D01*
X31754744Y-42089000D01*
X30659000Y-42089000D01*
X30659000Y-42109000D01*
X30301000Y-42109000D01*
X30301000Y-42089000D01*
X29205256Y-42089000D01*
X29103730Y-42309211D01*
X29113877Y-42342685D01*
X29224539Y-42600889D01*
X29322348Y-42743473D01*
X27827651Y-42743474D01*
X27925461Y-42600889D01*
X28036123Y-42342685D01*
X28046270Y-42309211D01*
X27944744Y-42089000D01*
X26849000Y-42089000D01*
X26849000Y-42109000D01*
X26491000Y-42109000D01*
X26491000Y-42089000D01*
X25395256Y-42089000D01*
X25293730Y-42309211D01*
X25303877Y-42342685D01*
X25414539Y-42600889D01*
X25573448Y-42832542D01*
X25774497Y-43028742D01*
X25781811Y-43033501D01*
X25226051Y-43589262D01*
X25210788Y-43601788D01*
X25160802Y-43662697D01*
X25123659Y-43732186D01*
X25107487Y-43785500D01*
X25100787Y-43807586D01*
X25093064Y-43885999D01*
X25094999Y-43905646D01*
X25095000Y-47534345D01*
X25093064Y-47554001D01*
X25100787Y-47632414D01*
X25123660Y-47707815D01*
X25160802Y-47777303D01*
X25198264Y-47822951D01*
X25198267Y-47822954D01*
X25210789Y-47838212D01*
X25226047Y-47850734D01*
X25809262Y-48433949D01*
X25821788Y-48449212D01*
X25882696Y-48499198D01*
X25952185Y-48536341D01*
X26027585Y-48559213D01*
X26086352Y-48565001D01*
X26086362Y-48565001D01*
X26105998Y-48566935D01*
X26125634Y-48565001D01*
X34301853Y-48565001D01*
X34321499Y-48566936D01*
X34341145Y-48565001D01*
X34341146Y-48565001D01*
X34399913Y-48559213D01*
X34475313Y-48536341D01*
X34544802Y-48499198D01*
X34605710Y-48449212D01*
X34618236Y-48433949D01*
X35729501Y-47322684D01*
X35729500Y-47616967D01*
X35715082Y-47618387D01*
X35618949Y-47637509D01*
X35567112Y-47653233D01*
X35476556Y-47690742D01*
X35428781Y-47716278D01*
X35347282Y-47770734D01*
X35305407Y-47805099D01*
X35236099Y-47874407D01*
X35201734Y-47916282D01*
X35147278Y-47997781D01*
X35121742Y-48045556D01*
X35084233Y-48136112D01*
X35068509Y-48187949D01*
X35049387Y-48284082D01*
X35044077Y-48337991D01*
X35044077Y-48362553D01*
X35041669Y-48387000D01*
X35041669Y-48887000D01*
X35046979Y-48940910D01*
X35062703Y-48992747D01*
X35086357Y-49037000D01*
X35062703Y-49081253D01*
X35046979Y-49133090D01*
X35041669Y-49187000D01*
X35041669Y-49511000D01*
X34177330Y-49511000D01*
X34177330Y-49436000D01*
X34167217Y-49333318D01*
X34137266Y-49234582D01*
X34088627Y-49143587D01*
X34023172Y-49063828D01*
X33943413Y-48998373D01*
X33852418Y-48949734D01*
X33753682Y-48919783D01*
X33651000Y-48909670D01*
X33151000Y-48909670D01*
X33048318Y-48919783D01*
X32949582Y-48949734D01*
X32858587Y-48998373D01*
X32778828Y-49063828D01*
X32713373Y-49143587D01*
X32664734Y-49234582D01*
X32634783Y-49333318D01*
X32624670Y-49436000D01*
X32624670Y-50121645D01*
X32547283Y-50199033D01*
X32438250Y-50090000D01*
X31680000Y-50090000D01*
X31680000Y-50110000D01*
X31322000Y-50110000D01*
X31322000Y-50090000D01*
X30563750Y-50090000D01*
X30418000Y-50235750D01*
X30415708Y-50561010D01*
X26742696Y-50561010D01*
X26341622Y-50159937D01*
X26379177Y-50103732D01*
X26430060Y-49980890D01*
X26456000Y-49850482D01*
X26456000Y-49717518D01*
X26430060Y-49587110D01*
X26379177Y-49464268D01*
X26305307Y-49353713D01*
X26211287Y-49259693D01*
X26100997Y-49186000D01*
X30415179Y-49186000D01*
X30418000Y-49586250D01*
X30563750Y-49732000D01*
X31322000Y-49732000D01*
X31322000Y-48748750D01*
X31680000Y-48748750D01*
X31680000Y-49732000D01*
X32438250Y-49732000D01*
X32584000Y-49586250D01*
X32586821Y-49186000D01*
X32575565Y-49071712D01*
X32542228Y-48961816D01*
X32488092Y-48860535D01*
X32415238Y-48771762D01*
X32326465Y-48698908D01*
X32225184Y-48644772D01*
X32115288Y-48611435D01*
X32001000Y-48600179D01*
X31825750Y-48603000D01*
X31680000Y-48748750D01*
X31322000Y-48748750D01*
X31176250Y-48603000D01*
X31001000Y-48600179D01*
X30886712Y-48611435D01*
X30776816Y-48644772D01*
X30675535Y-48698908D01*
X30586762Y-48771762D01*
X30513908Y-48860535D01*
X30459772Y-48961816D01*
X30426435Y-49071712D01*
X30415179Y-49186000D01*
X26100997Y-49186000D01*
X26100732Y-49185823D01*
X25977890Y-49134940D01*
X25847482Y-49109000D01*
X25714518Y-49109000D01*
X25584110Y-49134940D01*
X25461268Y-49185823D01*
X25350713Y-49259693D01*
X25256693Y-49353713D01*
X25182823Y-49464268D01*
X25131940Y-49587110D01*
X25106000Y-49717518D01*
X25106000Y-49850482D01*
X25131940Y-49980890D01*
X25182823Y-50103732D01*
X25256693Y-50214287D01*
X25350713Y-50308307D01*
X25433674Y-50363739D01*
X25446803Y-50388302D01*
X25496789Y-50449211D01*
X25512052Y-50461737D01*
X26280277Y-51229963D01*
X26292799Y-51245221D01*
X26308057Y-51257743D01*
X26308059Y-51257745D01*
X26339992Y-51283951D01*
X26353707Y-51295207D01*
X26423196Y-51332350D01*
X26498596Y-51355222D01*
X26557363Y-51361010D01*
X26557373Y-51361010D01*
X26577009Y-51362944D01*
X26596645Y-51361010D01*
X32331344Y-51361010D01*
X32350990Y-51362945D01*
X32370636Y-51361010D01*
X32370637Y-51361010D01*
X32429404Y-51355222D01*
X32504804Y-51332350D01*
X32574293Y-51295207D01*
X32635201Y-51245221D01*
X32647727Y-51229958D01*
X32992423Y-50885262D01*
X33048318Y-50902217D01*
X33151000Y-50912330D01*
X33651000Y-50912330D01*
X33753682Y-50902217D01*
X33852418Y-50872266D01*
X33943413Y-50823627D01*
X34023172Y-50758172D01*
X34088627Y-50678413D01*
X34137266Y-50587418D01*
X34167217Y-50488682D01*
X34177330Y-50386000D01*
X34177330Y-50311000D01*
X35358857Y-50311000D01*
X35428781Y-50357722D01*
X35476556Y-50383258D01*
X35567112Y-50420767D01*
X35618949Y-50436491D01*
X35715082Y-50455613D01*
X35768991Y-50460923D01*
X35793553Y-50460923D01*
X35818000Y-50463331D01*
X36318000Y-50463331D01*
X36342447Y-50460923D01*
X36367009Y-50460923D01*
X36420918Y-50455613D01*
X36517051Y-50436491D01*
X36568888Y-50420767D01*
X36659444Y-50383258D01*
X36707219Y-50357722D01*
X36788718Y-50303266D01*
X36830593Y-50268901D01*
X36899901Y-50199593D01*
X36934266Y-50157718D01*
X36981518Y-50087000D01*
X38202482Y-50087000D01*
X38249734Y-50157718D01*
X38284099Y-50199593D01*
X38353407Y-50268901D01*
X38395282Y-50303266D01*
X38476781Y-50357722D01*
X38524556Y-50383258D01*
X38615112Y-50420767D01*
X38666949Y-50436491D01*
X38763082Y-50455613D01*
X38816991Y-50460923D01*
X38841553Y-50460923D01*
X38866000Y-50463331D01*
X39366000Y-50463331D01*
X39390447Y-50460923D01*
X39415009Y-50460923D01*
X39468918Y-50455613D01*
X39565051Y-50436491D01*
X39616888Y-50420767D01*
X39707444Y-50383258D01*
X39755219Y-50357722D01*
X39836718Y-50303266D01*
X39878593Y-50268901D01*
X39947901Y-50199593D01*
X39982266Y-50157718D01*
X40029518Y-50087000D01*
X41250482Y-50087000D01*
X41297734Y-50157718D01*
X41332099Y-50199593D01*
X41401407Y-50268901D01*
X41443282Y-50303266D01*
X41524781Y-50357722D01*
X41572556Y-50383258D01*
X41663112Y-50420767D01*
X41714949Y-50436491D01*
X41811082Y-50455613D01*
X41864991Y-50460923D01*
X41889553Y-50460923D01*
X41914000Y-50463331D01*
X42414000Y-50463331D01*
X42438447Y-50460923D01*
X42463009Y-50460923D01*
X42516918Y-50455613D01*
X42613051Y-50436491D01*
X42664888Y-50420767D01*
X42755444Y-50383258D01*
X42803219Y-50357722D01*
X42884718Y-50303266D01*
X42926593Y-50268901D01*
X42995901Y-50199593D01*
X43030266Y-50157718D01*
X43077518Y-50087000D01*
X44298482Y-50087000D01*
X44345734Y-50157718D01*
X44380099Y-50199593D01*
X44449407Y-50268901D01*
X44491282Y-50303266D01*
X44572781Y-50357722D01*
X44620556Y-50383258D01*
X44711112Y-50420767D01*
X44762949Y-50436491D01*
X44859082Y-50455613D01*
X44912991Y-50460923D01*
X44937553Y-50460923D01*
X44962000Y-50463331D01*
X45462000Y-50463331D01*
X45486447Y-50460923D01*
X45511009Y-50460923D01*
X45564918Y-50455613D01*
X45661051Y-50436491D01*
X45712888Y-50420767D01*
X45803444Y-50383258D01*
X45851219Y-50357722D01*
X45932718Y-50303266D01*
X45974593Y-50268901D01*
X46043901Y-50199593D01*
X46078266Y-50157718D01*
X46125518Y-50087000D01*
X47346482Y-50087000D01*
X47393734Y-50157718D01*
X47428099Y-50199593D01*
X47497407Y-50268901D01*
X47539282Y-50303266D01*
X47620781Y-50357722D01*
X47668556Y-50383258D01*
X47759112Y-50420767D01*
X47810949Y-50436491D01*
X47907082Y-50455613D01*
X47960991Y-50460923D01*
X47985553Y-50460923D01*
X48010000Y-50463331D01*
X48510000Y-50463331D01*
X48534447Y-50460923D01*
X48559009Y-50460923D01*
X48612918Y-50455613D01*
X48709051Y-50436491D01*
X48760888Y-50420767D01*
X48851444Y-50383258D01*
X48899219Y-50357722D01*
X48980718Y-50303266D01*
X49022593Y-50268901D01*
X49091901Y-50199593D01*
X49126266Y-50157718D01*
X49173518Y-50087000D01*
X50394482Y-50087000D01*
X50441734Y-50157718D01*
X50476099Y-50199593D01*
X50545407Y-50268901D01*
X50587282Y-50303266D01*
X50668781Y-50357722D01*
X50716556Y-50383258D01*
X50807112Y-50420767D01*
X50858949Y-50436491D01*
X50955082Y-50455613D01*
X51008991Y-50460923D01*
X51033553Y-50460923D01*
X51058000Y-50463331D01*
X51558000Y-50463331D01*
X51582447Y-50460923D01*
X51607009Y-50460923D01*
X51660918Y-50455613D01*
X51757051Y-50436491D01*
X51808888Y-50420767D01*
X51899444Y-50383258D01*
X51947219Y-50357722D01*
X52028718Y-50303266D01*
X52070593Y-50268901D01*
X52139901Y-50199593D01*
X52174266Y-50157718D01*
X52228722Y-50076219D01*
X52254258Y-50028444D01*
X52291767Y-49937888D01*
X52307491Y-49886051D01*
X52326613Y-49789918D01*
X52331923Y-49736009D01*
X52331923Y-49711447D01*
X52334331Y-49687000D01*
X52334331Y-49187000D01*
X52329021Y-49133090D01*
X52313297Y-49081253D01*
X52289643Y-49037000D01*
X52313297Y-48992747D01*
X52329021Y-48940910D01*
X52334331Y-48887000D01*
X52334331Y-48387000D01*
X52331923Y-48362553D01*
X52331923Y-48337991D01*
X52326613Y-48284082D01*
X52307491Y-48187949D01*
X52291767Y-48136112D01*
X52254258Y-48045556D01*
X52228722Y-47997781D01*
X52174266Y-47916282D01*
X52139901Y-47874407D01*
X52070593Y-47805099D01*
X52028718Y-47770734D01*
X51947219Y-47716278D01*
X51899444Y-47690742D01*
X51808888Y-47653233D01*
X51757051Y-47637509D01*
X51660918Y-47618387D01*
X51646500Y-47616967D01*
X51646500Y-47088575D01*
X51675927Y-47085677D01*
X51765284Y-47058572D01*
X51847635Y-47014554D01*
X51919816Y-46955316D01*
X51979054Y-46883135D01*
X52023072Y-46800784D01*
X52050177Y-46711427D01*
X52059330Y-46618500D01*
X52059330Y-46218500D01*
X52050177Y-46125573D01*
X52023072Y-46036216D01*
X51979054Y-45953865D01*
X51919816Y-45881684D01*
X51847635Y-45822446D01*
X51765284Y-45778428D01*
X51679398Y-45752376D01*
X51783000Y-45754321D01*
X51897288Y-45743065D01*
X52007184Y-45709728D01*
X52108465Y-45655592D01*
X52197238Y-45582738D01*
X52270092Y-45493965D01*
X52324228Y-45392684D01*
X52357565Y-45282788D01*
X52368012Y-45176719D01*
X54922782Y-47731489D01*
X54935308Y-47746752D01*
X54996216Y-47796738D01*
X55065705Y-47833881D01*
X55141105Y-47856753D01*
X55199872Y-47862541D01*
X55199882Y-47862541D01*
X55219518Y-47864475D01*
X55239154Y-47862541D01*
X63874410Y-47862541D01*
X63894056Y-47864476D01*
X63913702Y-47862541D01*
X63913703Y-47862541D01*
X63972470Y-47856753D01*
X64047870Y-47833881D01*
X64117359Y-47796738D01*
X64178267Y-47746752D01*
X64190793Y-47731489D01*
X64508412Y-47413870D01*
X65743057Y-47413870D01*
X65796966Y-47408560D01*
X65848804Y-47392836D01*
X65896578Y-47367300D01*
X65938452Y-47332935D01*
X65972817Y-47291061D01*
X65998353Y-47243287D01*
X66014077Y-47191449D01*
X66019387Y-47137540D01*
X66019387Y-45613540D01*
X66014077Y-45559631D01*
X65998353Y-45507793D01*
X65972817Y-45460019D01*
X65938452Y-45418145D01*
X65896578Y-45383780D01*
X65848804Y-45358244D01*
X65796966Y-45342520D01*
X65743057Y-45337210D01*
X64219057Y-45337210D01*
X64165148Y-45342520D01*
X64113310Y-45358244D01*
X64065536Y-45383780D01*
X64023662Y-45418145D01*
X63989297Y-45460019D01*
X63963761Y-45507793D01*
X63948037Y-45559631D01*
X63942727Y-45613540D01*
X63942727Y-46848185D01*
X63728371Y-47062541D01*
X58140596Y-47062541D01*
X58166548Y-47036589D01*
X58280035Y-46866744D01*
X58358206Y-46678022D01*
X58398057Y-46477676D01*
X58398057Y-46273404D01*
X58358206Y-46073058D01*
X58280035Y-45884336D01*
X58166548Y-45714491D01*
X58022106Y-45570049D01*
X57852261Y-45456562D01*
X57663539Y-45378391D01*
X57463193Y-45338540D01*
X57258921Y-45338540D01*
X57058575Y-45378391D01*
X56869853Y-45456562D01*
X56700008Y-45570049D01*
X56555566Y-45714491D01*
X56442079Y-45884336D01*
X56363908Y-46073058D01*
X56324057Y-46273404D01*
X56324057Y-46477676D01*
X56363908Y-46678022D01*
X56442079Y-46866744D01*
X56555566Y-47036589D01*
X56581518Y-47062541D01*
X55385204Y-47062541D01*
X53645204Y-45322541D01*
X63874410Y-45322541D01*
X63894056Y-45324476D01*
X63913702Y-45322541D01*
X63913703Y-45322541D01*
X63972470Y-45316753D01*
X64047870Y-45293881D01*
X64117359Y-45256738D01*
X64178267Y-45206752D01*
X64190793Y-45191489D01*
X64587371Y-44794911D01*
X64678575Y-44832689D01*
X64878921Y-44872540D01*
X65083193Y-44872540D01*
X65283539Y-44832689D01*
X65472261Y-44754518D01*
X65642106Y-44641031D01*
X65786548Y-44496589D01*
X65900035Y-44326744D01*
X65978206Y-44138022D01*
X66018057Y-43937676D01*
X66018057Y-43733404D01*
X65978206Y-43533058D01*
X65900035Y-43344336D01*
X65786548Y-43174491D01*
X65642106Y-43030049D01*
X65472261Y-42916562D01*
X65283539Y-42838391D01*
X65083193Y-42798540D01*
X64878921Y-42798540D01*
X64678575Y-42838391D01*
X64489853Y-42916562D01*
X64320008Y-43030049D01*
X64175566Y-43174491D01*
X64062079Y-43344336D01*
X63983908Y-43533058D01*
X63944057Y-43733404D01*
X63944057Y-43937676D01*
X63983908Y-44138022D01*
X64021686Y-44229226D01*
X63728371Y-44522541D01*
X58140596Y-44522541D01*
X58166548Y-44496589D01*
X58280035Y-44326744D01*
X58358206Y-44138022D01*
X58398057Y-43937676D01*
X58398057Y-43733404D01*
X58358206Y-43533058D01*
X58280035Y-43344336D01*
X58166548Y-43174491D01*
X58140596Y-43148539D01*
X63508412Y-43148539D01*
X63528058Y-43150474D01*
X63547704Y-43148539D01*
X63547705Y-43148539D01*
X63606472Y-43142751D01*
X63681872Y-43119879D01*
X63751361Y-43082736D01*
X63812269Y-43032750D01*
X63824795Y-43017487D01*
X64587371Y-42254911D01*
X64678575Y-42292689D01*
X64878921Y-42332540D01*
X65083193Y-42332540D01*
X65283539Y-42292689D01*
X65472261Y-42214518D01*
X65642106Y-42101031D01*
X65786548Y-41956589D01*
X65900035Y-41786744D01*
X65978206Y-41598022D01*
X66018057Y-41397676D01*
X66018057Y-41193404D01*
X65978206Y-40993058D01*
X65900035Y-40804336D01*
X65786548Y-40634491D01*
X65642106Y-40490049D01*
X65472261Y-40376562D01*
X65283539Y-40298391D01*
X65083193Y-40258540D01*
X64878921Y-40258540D01*
X64678575Y-40298391D01*
X64489853Y-40376562D01*
X64320008Y-40490049D01*
X64175566Y-40634491D01*
X64062079Y-40804336D01*
X63983908Y-40993058D01*
X63944057Y-41193404D01*
X63944057Y-41397676D01*
X63983908Y-41598022D01*
X64021686Y-41689226D01*
X63362373Y-42348539D01*
X51944022Y-42348539D01*
X50762483Y-41167000D01*
X56261189Y-41167000D01*
X56280835Y-41168935D01*
X56300481Y-41167000D01*
X56300482Y-41167000D01*
X56329885Y-41164104D01*
X56324057Y-41193404D01*
X56324057Y-41397676D01*
X56363908Y-41598022D01*
X56442079Y-41786744D01*
X56555566Y-41956589D01*
X56700008Y-42101031D01*
X56869853Y-42214518D01*
X57058575Y-42292689D01*
X57258921Y-42332540D01*
X57463193Y-42332540D01*
X57663539Y-42292689D01*
X57852261Y-42214518D01*
X58022106Y-42101031D01*
X58166548Y-41956589D01*
X58280035Y-41786744D01*
X58358206Y-41598022D01*
X58398057Y-41397676D01*
X58398057Y-41193404D01*
X58358206Y-40993058D01*
X58280035Y-40804336D01*
X58166548Y-40634491D01*
X58022106Y-40490049D01*
X57852261Y-40376562D01*
X57663539Y-40298391D01*
X57463193Y-40258540D01*
X57354980Y-40258540D01*
X57370979Y-40242541D01*
X63874410Y-40242541D01*
X63894056Y-40244476D01*
X63913702Y-40242541D01*
X63913703Y-40242541D01*
X63972470Y-40236753D01*
X64047870Y-40213881D01*
X64117359Y-40176738D01*
X64178267Y-40126752D01*
X64190793Y-40111489D01*
X64587371Y-39714911D01*
X64678575Y-39752689D01*
X64878921Y-39792540D01*
X65083193Y-39792540D01*
X65283539Y-39752689D01*
X65472261Y-39674518D01*
X65642106Y-39561031D01*
X65786548Y-39416589D01*
X65900035Y-39246744D01*
X65978206Y-39058022D01*
X66018057Y-38857676D01*
X66018057Y-38653404D01*
X65978206Y-38453058D01*
X65900035Y-38264336D01*
X65786548Y-38094491D01*
X65642106Y-37950049D01*
X65472261Y-37836562D01*
X65283539Y-37758391D01*
X65083193Y-37718540D01*
X64878921Y-37718540D01*
X64678575Y-37758391D01*
X64489853Y-37836562D01*
X64320008Y-37950049D01*
X64175566Y-38094491D01*
X64062079Y-38264336D01*
X63983908Y-38453058D01*
X63944057Y-38653404D01*
X63944057Y-38857676D01*
X63983908Y-39058022D01*
X64021686Y-39149226D01*
X63728371Y-39442541D01*
X58140596Y-39442541D01*
X58166548Y-39416589D01*
X58280035Y-39246744D01*
X58358206Y-39058022D01*
X58398057Y-38857676D01*
X58398057Y-38653404D01*
X58358206Y-38453058D01*
X58280035Y-38264336D01*
X58166548Y-38094491D01*
X58022106Y-37950049D01*
X57852261Y-37836562D01*
X57663539Y-37758391D01*
X57463193Y-37718540D01*
X57354980Y-37718540D01*
X57370979Y-37702541D01*
X63874410Y-37702541D01*
X63894056Y-37704476D01*
X63913702Y-37702541D01*
X63913703Y-37702541D01*
X63972470Y-37696753D01*
X64047870Y-37673881D01*
X64117359Y-37636738D01*
X64178267Y-37586752D01*
X64190793Y-37571489D01*
X64587371Y-37174911D01*
X64678575Y-37212689D01*
X64878921Y-37252540D01*
X65083193Y-37252540D01*
X65283539Y-37212689D01*
X65472261Y-37134518D01*
X65642106Y-37021031D01*
X65786548Y-36876589D01*
X65900035Y-36706744D01*
X65978206Y-36518022D01*
X66018057Y-36317676D01*
X66018057Y-36113404D01*
X65978206Y-35913058D01*
X65900035Y-35724336D01*
X65786548Y-35554491D01*
X65642106Y-35410049D01*
X65472261Y-35296562D01*
X65283539Y-35218391D01*
X65083193Y-35178540D01*
X64878921Y-35178540D01*
X64678575Y-35218391D01*
X64489853Y-35296562D01*
X64320008Y-35410049D01*
X64175566Y-35554491D01*
X64062079Y-35724336D01*
X63983908Y-35913058D01*
X63944057Y-36113404D01*
X63944057Y-36317676D01*
X63983908Y-36518022D01*
X64021686Y-36609226D01*
X63728371Y-36902541D01*
X58140596Y-36902541D01*
X58166548Y-36876589D01*
X58280035Y-36706744D01*
X58358206Y-36518022D01*
X58398057Y-36317676D01*
X58398057Y-36113404D01*
X58358206Y-35913058D01*
X58280035Y-35724336D01*
X58166548Y-35554491D01*
X58022106Y-35410049D01*
X57852261Y-35296562D01*
X57663539Y-35218391D01*
X57463193Y-35178540D01*
X57354981Y-35178540D01*
X57370980Y-35162541D01*
X63874410Y-35162541D01*
X63894056Y-35164476D01*
X63913702Y-35162541D01*
X63913703Y-35162541D01*
X63972470Y-35156753D01*
X64047870Y-35133881D01*
X64117359Y-35096738D01*
X64178267Y-35046752D01*
X64190793Y-35031489D01*
X64587371Y-34634911D01*
X64678575Y-34672689D01*
X64878921Y-34712540D01*
X65083193Y-34712540D01*
X65283539Y-34672689D01*
X65472261Y-34594518D01*
X65642106Y-34481031D01*
X65786548Y-34336589D01*
X65900035Y-34166744D01*
X65978206Y-33978022D01*
X66018057Y-33777676D01*
X66018057Y-33573404D01*
X65978206Y-33373058D01*
X65900035Y-33184336D01*
X65786548Y-33014491D01*
X65642106Y-32870049D01*
X65472261Y-32756562D01*
X65283539Y-32678391D01*
X65083193Y-32638540D01*
X64878921Y-32638540D01*
X64678575Y-32678391D01*
X64489853Y-32756562D01*
X64320008Y-32870049D01*
X64175566Y-33014491D01*
X64062079Y-33184336D01*
X63983908Y-33373058D01*
X63944057Y-33573404D01*
X63944057Y-33777676D01*
X63983908Y-33978022D01*
X64021686Y-34069226D01*
X63728371Y-34362541D01*
X58140596Y-34362541D01*
X58166548Y-34336589D01*
X58280035Y-34166744D01*
X58358206Y-33978022D01*
X58398057Y-33777676D01*
X58398057Y-33573404D01*
X58358206Y-33373058D01*
X58280035Y-33184336D01*
X58166548Y-33014491D01*
X58022106Y-32870049D01*
X57852261Y-32756562D01*
X57663539Y-32678391D01*
X57463193Y-32638540D01*
X57417212Y-32638540D01*
X57433211Y-32622541D01*
X63874410Y-32622541D01*
X63894056Y-32624476D01*
X63913702Y-32622541D01*
X63913703Y-32622541D01*
X63972470Y-32616753D01*
X64047870Y-32593881D01*
X64117359Y-32556738D01*
X64178267Y-32506752D01*
X64190793Y-32491489D01*
X64587371Y-32094911D01*
X64678575Y-32132689D01*
X64878921Y-32172540D01*
X65083193Y-32172540D01*
X65283539Y-32132689D01*
X65472261Y-32054518D01*
X65642106Y-31941031D01*
X65786548Y-31796589D01*
X65900035Y-31626744D01*
X65978206Y-31438022D01*
X66018057Y-31237676D01*
X66018057Y-31033404D01*
X65978206Y-30833058D01*
X65900035Y-30644336D01*
X65786548Y-30474491D01*
X65642106Y-30330049D01*
X65472261Y-30216562D01*
X65283539Y-30138391D01*
X65083193Y-30098540D01*
X64878921Y-30098540D01*
X64678575Y-30138391D01*
X64489853Y-30216562D01*
X64320008Y-30330049D01*
X64175566Y-30474491D01*
X64062079Y-30644336D01*
X63983908Y-30833058D01*
X63944057Y-31033404D01*
X63944057Y-31237676D01*
X63983908Y-31438022D01*
X64021686Y-31529226D01*
X63728371Y-31822541D01*
X58140596Y-31822541D01*
X58166548Y-31796589D01*
X58280035Y-31626744D01*
X58358206Y-31438022D01*
X58398057Y-31237676D01*
X58398057Y-31033404D01*
X58358206Y-30833058D01*
X58280035Y-30644336D01*
X58166548Y-30474491D01*
X58022106Y-30330049D01*
X57852261Y-30216562D01*
X57663539Y-30138391D01*
X57463193Y-30098540D01*
X57354980Y-30098540D01*
X57370979Y-30082541D01*
X63874410Y-30082541D01*
X63894056Y-30084476D01*
X63913702Y-30082541D01*
X63913703Y-30082541D01*
X63972470Y-30076753D01*
X64047870Y-30053881D01*
X64117359Y-30016738D01*
X64178267Y-29966752D01*
X64190793Y-29951489D01*
X64587371Y-29554911D01*
X64678575Y-29592689D01*
X64878921Y-29632540D01*
X65083193Y-29632540D01*
X65283539Y-29592689D01*
X65472261Y-29514518D01*
X65642106Y-29401031D01*
X65786548Y-29256589D01*
X65900035Y-29086744D01*
X65978206Y-28898022D01*
X66018057Y-28697676D01*
X66018057Y-28493404D01*
X65978206Y-28293058D01*
X65900035Y-28104336D01*
X65786548Y-27934491D01*
X65642106Y-27790049D01*
X65472261Y-27676562D01*
X65283539Y-27598391D01*
X65083193Y-27558540D01*
X64878921Y-27558540D01*
X64678575Y-27598391D01*
X64489853Y-27676562D01*
X64320008Y-27790049D01*
X64175566Y-27934491D01*
X64062079Y-28104336D01*
X63983908Y-28293058D01*
X63944057Y-28493404D01*
X63944057Y-28697676D01*
X63983908Y-28898022D01*
X64021686Y-28989226D01*
X63728371Y-29282541D01*
X58140596Y-29282541D01*
X58166548Y-29256589D01*
X58280035Y-29086744D01*
X58358206Y-28898022D01*
X58398057Y-28697676D01*
X58398057Y-28493404D01*
X58358206Y-28293058D01*
X58280035Y-28104336D01*
X58166548Y-27934491D01*
X58022106Y-27790049D01*
X57852261Y-27676562D01*
X57663539Y-27598391D01*
X57463193Y-27558540D01*
X57258921Y-27558540D01*
X57058575Y-27598391D01*
X56869853Y-27676562D01*
X56700008Y-27790049D01*
X56555566Y-27934491D01*
X56442079Y-28104336D01*
X56363908Y-28293058D01*
X56324057Y-28493404D01*
X56324057Y-28697676D01*
X56363908Y-28898022D01*
X56442079Y-29086744D01*
X56555566Y-29256589D01*
X56700008Y-29401031D01*
X56832554Y-29489596D01*
X53956150Y-32366000D01*
X50539091Y-32366000D01*
X51175944Y-31729147D01*
X51264509Y-31861693D01*
X51408951Y-32006135D01*
X51578796Y-32119622D01*
X51767518Y-32197793D01*
X51967864Y-32237644D01*
X52172136Y-32237644D01*
X52372482Y-32197793D01*
X52561204Y-32119622D01*
X52731049Y-32006135D01*
X52875491Y-31861693D01*
X52988978Y-31691848D01*
X53067149Y-31503126D01*
X53107000Y-31302780D01*
X53107000Y-31098508D01*
X53067149Y-30898162D01*
X52988978Y-30709440D01*
X52875491Y-30539595D01*
X52731049Y-30395153D01*
X52561204Y-30281666D01*
X52372482Y-30203495D01*
X52172136Y-30163644D01*
X51967864Y-30163644D01*
X51767518Y-30203495D01*
X51578796Y-30281666D01*
X51408951Y-30395153D01*
X51382999Y-30421105D01*
X51382999Y-24833330D01*
X51597355Y-24618974D01*
X52832000Y-24618974D01*
X52885909Y-24613664D01*
X52937747Y-24597940D01*
X52985521Y-24572404D01*
X53027395Y-24538039D01*
X53061760Y-24496165D01*
X53087296Y-24448391D01*
X53103020Y-24396553D01*
X53108330Y-24342644D01*
X53108330Y-22818644D01*
X53103020Y-22764735D01*
X53087296Y-22712897D01*
X53061760Y-22665123D01*
X53027395Y-22623249D01*
X52985521Y-22588884D01*
X52937747Y-22563348D01*
X52885909Y-22547624D01*
X52832000Y-22542314D01*
X51308000Y-22542314D01*
X51254091Y-22547624D01*
X51202253Y-22563348D01*
X51154479Y-22588884D01*
X51112605Y-22623249D01*
X51078240Y-22665123D01*
X51052704Y-22712897D01*
X51036980Y-22764735D01*
X51031670Y-22818644D01*
X51031670Y-24053289D01*
X50714047Y-24370912D01*
X50698789Y-24383434D01*
X50686267Y-24398692D01*
X50686264Y-24398695D01*
X50648802Y-24444343D01*
X50611660Y-24513831D01*
X50588787Y-24589232D01*
X50581064Y-24667645D01*
X50583000Y-24687301D01*
X50582999Y-31190722D01*
X50567000Y-31206721D01*
X50567000Y-31098508D01*
X50527149Y-30898162D01*
X50448978Y-30709440D01*
X50335491Y-30539595D01*
X50191049Y-30395153D01*
X50021204Y-30281666D01*
X49832482Y-30203495D01*
X49632136Y-30163644D01*
X49427864Y-30163644D01*
X49227518Y-30203495D01*
X49038796Y-30281666D01*
X48868951Y-30395153D01*
X48842999Y-30421105D01*
X48842999Y-24833330D01*
X49136314Y-24540015D01*
X49227518Y-24577793D01*
X49427864Y-24617644D01*
X49632136Y-24617644D01*
X49832482Y-24577793D01*
X50021204Y-24499622D01*
X50191049Y-24386135D01*
X50335491Y-24241693D01*
X50448978Y-24071848D01*
X50527149Y-23883126D01*
X50567000Y-23682780D01*
X50567000Y-23478508D01*
X50527149Y-23278162D01*
X50448978Y-23089440D01*
X50335491Y-22919595D01*
X50191049Y-22775153D01*
X50021204Y-22661666D01*
X49832482Y-22583495D01*
X49632136Y-22543644D01*
X49427864Y-22543644D01*
X49227518Y-22583495D01*
X49038796Y-22661666D01*
X48868951Y-22775153D01*
X48724509Y-22919595D01*
X48611022Y-23089440D01*
X48532851Y-23278162D01*
X48493000Y-23478508D01*
X48493000Y-23682780D01*
X48532851Y-23883126D01*
X48570629Y-23974330D01*
X48174047Y-24370912D01*
X48158789Y-24383434D01*
X48146267Y-24398692D01*
X48146264Y-24398695D01*
X48108802Y-24444343D01*
X48071660Y-24513831D01*
X48048787Y-24589232D01*
X48041064Y-24667645D01*
X48043000Y-24687301D01*
X48042999Y-31190722D01*
X48027000Y-31206721D01*
X48027000Y-31098508D01*
X47987149Y-30898162D01*
X47908978Y-30709440D01*
X47795491Y-30539595D01*
X47651049Y-30395153D01*
X47481204Y-30281666D01*
X47292482Y-30203495D01*
X47092136Y-30163644D01*
X46887864Y-30163644D01*
X46687518Y-30203495D01*
X46498796Y-30281666D01*
X46328951Y-30395153D01*
X46302999Y-30421105D01*
X46302999Y-24833330D01*
X46596314Y-24540015D01*
X46687518Y-24577793D01*
X46887864Y-24617644D01*
X47092136Y-24617644D01*
X47292482Y-24577793D01*
X47481204Y-24499622D01*
X47651049Y-24386135D01*
X47795491Y-24241693D01*
X47908978Y-24071848D01*
X47987149Y-23883126D01*
X48027000Y-23682780D01*
X48027000Y-23478508D01*
X47987149Y-23278162D01*
X47908978Y-23089440D01*
X47795491Y-22919595D01*
X47651049Y-22775153D01*
X47481204Y-22661666D01*
X47292482Y-22583495D01*
X47092136Y-22543644D01*
X46887864Y-22543644D01*
X46687518Y-22583495D01*
X46498796Y-22661666D01*
X46328951Y-22775153D01*
X46184509Y-22919595D01*
X46071022Y-23089440D01*
X45992851Y-23278162D01*
X45953000Y-23478508D01*
X45953000Y-23682780D01*
X45992851Y-23883126D01*
X46030629Y-23974330D01*
X45634047Y-24370912D01*
X45618789Y-24383434D01*
X45606267Y-24398692D01*
X45606264Y-24398695D01*
X45568802Y-24444343D01*
X45531660Y-24513831D01*
X45508787Y-24589232D01*
X45501064Y-24667645D01*
X45503000Y-24687301D01*
X45502999Y-31190721D01*
X45487000Y-31206720D01*
X45487000Y-31098508D01*
X45447149Y-30898162D01*
X45368978Y-30709440D01*
X45255491Y-30539595D01*
X45111049Y-30395153D01*
X44941204Y-30281666D01*
X44752482Y-30203495D01*
X44552136Y-30163644D01*
X44347864Y-30163644D01*
X44147518Y-30203495D01*
X43958796Y-30281666D01*
X43788951Y-30395153D01*
X43762999Y-30421105D01*
X43762999Y-24833330D01*
X44056314Y-24540015D01*
X44147518Y-24577793D01*
X44347864Y-24617644D01*
X44552136Y-24617644D01*
X44752482Y-24577793D01*
X44941204Y-24499622D01*
X45111049Y-24386135D01*
X45255491Y-24241693D01*
X45368978Y-24071848D01*
X45447149Y-23883126D01*
X45487000Y-23682780D01*
X45487000Y-23478508D01*
X45447149Y-23278162D01*
X45368978Y-23089440D01*
X45255491Y-22919595D01*
X45111049Y-22775153D01*
X44941204Y-22661666D01*
X44752482Y-22583495D01*
X44552136Y-22543644D01*
X44347864Y-22543644D01*
X44147518Y-22583495D01*
X43958796Y-22661666D01*
X43788951Y-22775153D01*
X43644509Y-22919595D01*
X43531022Y-23089440D01*
X43452851Y-23278162D01*
X43413000Y-23478508D01*
X43413000Y-23682780D01*
X43452851Y-23883126D01*
X43490629Y-23974330D01*
X43094047Y-24370912D01*
X43078789Y-24383434D01*
X43066267Y-24398692D01*
X43066264Y-24398695D01*
X43028802Y-24444343D01*
X42991660Y-24513831D01*
X42968787Y-24589232D01*
X42961064Y-24667645D01*
X42963000Y-24687301D01*
X42962999Y-31556720D01*
X42829761Y-31689958D01*
X42907149Y-31503126D01*
X42947000Y-31302780D01*
X42947000Y-31098508D01*
X42907149Y-30898162D01*
X42828978Y-30709440D01*
X42715491Y-30539595D01*
X42571049Y-30395153D01*
X42401204Y-30281666D01*
X42212482Y-30203495D01*
X42012136Y-30163644D01*
X41807864Y-30163644D01*
X41607518Y-30203495D01*
X41418796Y-30281666D01*
X41248951Y-30395153D01*
X41222999Y-30421105D01*
X41222999Y-24833330D01*
X41516314Y-24540015D01*
X41607518Y-24577793D01*
X41807864Y-24617644D01*
X42012136Y-24617644D01*
X42212482Y-24577793D01*
X42401204Y-24499622D01*
X42571049Y-24386135D01*
X42715491Y-24241693D01*
X42828978Y-24071848D01*
X42907149Y-23883126D01*
X42947000Y-23682780D01*
X42947000Y-23478508D01*
X42907149Y-23278162D01*
X42828978Y-23089440D01*
X42715491Y-22919595D01*
X42571049Y-22775153D01*
X42401204Y-22661666D01*
X42212482Y-22583495D01*
X42012136Y-22543644D01*
X41807864Y-22543644D01*
X41607518Y-22583495D01*
X41418796Y-22661666D01*
X41248951Y-22775153D01*
X41104509Y-22919595D01*
X40991022Y-23089440D01*
X40912851Y-23278162D01*
X40873000Y-23478508D01*
X40873000Y-23682780D01*
X40912851Y-23883126D01*
X40950629Y-23974330D01*
X40554047Y-24370912D01*
X40538789Y-24383434D01*
X40526267Y-24398692D01*
X40526264Y-24398695D01*
X40488802Y-24444343D01*
X40451660Y-24513831D01*
X40428787Y-24589232D01*
X40421064Y-24667645D01*
X40423000Y-24687301D01*
X40422999Y-31556719D01*
X40289761Y-31689957D01*
X40367149Y-31503126D01*
X40407000Y-31302780D01*
X40407000Y-31098508D01*
X40367149Y-30898162D01*
X40288978Y-30709440D01*
X40175491Y-30539595D01*
X40031049Y-30395153D01*
X39861204Y-30281666D01*
X39672482Y-30203495D01*
X39472136Y-30163644D01*
X39267864Y-30163644D01*
X39067518Y-30203495D01*
X38878796Y-30281666D01*
X38708951Y-30395153D01*
X38682999Y-30421105D01*
X38682999Y-24833330D01*
X38976314Y-24540015D01*
X39067518Y-24577793D01*
X39267864Y-24617644D01*
X39472136Y-24617644D01*
X39672482Y-24577793D01*
X39861204Y-24499622D01*
X40031049Y-24386135D01*
X40175491Y-24241693D01*
X40288978Y-24071848D01*
X40367149Y-23883126D01*
X40407000Y-23682780D01*
X40407000Y-23478508D01*
X40367149Y-23278162D01*
X40288978Y-23089440D01*
X40175491Y-22919595D01*
X40031049Y-22775153D01*
X39861204Y-22661666D01*
X39672482Y-22583495D01*
X39472136Y-22543644D01*
X39267864Y-22543644D01*
X39067518Y-22583495D01*
X38878796Y-22661666D01*
X38708951Y-22775153D01*
X38564509Y-22919595D01*
X38451022Y-23089440D01*
X38372851Y-23278162D01*
X38333000Y-23478508D01*
X38333000Y-23682780D01*
X38372851Y-23883126D01*
X38410629Y-23974330D01*
X38014047Y-24370912D01*
X37998789Y-24383434D01*
X37986267Y-24398692D01*
X37986264Y-24398695D01*
X37948802Y-24444343D01*
X37911660Y-24513831D01*
X37888787Y-24589232D01*
X37881064Y-24667645D01*
X37883000Y-24687301D01*
X37882999Y-31190722D01*
X37867000Y-31206721D01*
X37867000Y-31098508D01*
X37827149Y-30898162D01*
X37748978Y-30709440D01*
X37635491Y-30539595D01*
X37491049Y-30395153D01*
X37321204Y-30281666D01*
X37132482Y-30203495D01*
X36932136Y-30163644D01*
X36727864Y-30163644D01*
X36527518Y-30203495D01*
X36338796Y-30281666D01*
X36168951Y-30395153D01*
X36142999Y-30421105D01*
X36142999Y-24833330D01*
X36436314Y-24540015D01*
X36527518Y-24577793D01*
X36727864Y-24617644D01*
X36932136Y-24617644D01*
X37132482Y-24577793D01*
X37321204Y-24499622D01*
X37491049Y-24386135D01*
X37635491Y-24241693D01*
X37748978Y-24071848D01*
X37827149Y-23883126D01*
X37867000Y-23682780D01*
X37867000Y-23478508D01*
X37827149Y-23278162D01*
X37748978Y-23089440D01*
X37635491Y-22919595D01*
X37491049Y-22775153D01*
X37321204Y-22661666D01*
X37132482Y-22583495D01*
X36932136Y-22543644D01*
X36727864Y-22543644D01*
X36527518Y-22583495D01*
X36338796Y-22661666D01*
X36168951Y-22775153D01*
X36024509Y-22919595D01*
X35911022Y-23089440D01*
X35832851Y-23278162D01*
X35793000Y-23478508D01*
X35793000Y-23682780D01*
X35832851Y-23883126D01*
X35870629Y-23974330D01*
X35474047Y-24370912D01*
X35458789Y-24383434D01*
X35446267Y-24398692D01*
X35446264Y-24398695D01*
X35408802Y-24444343D01*
X35371660Y-24513831D01*
X35348787Y-24589232D01*
X35341064Y-24667645D01*
X35343000Y-24687301D01*
X35342999Y-31190721D01*
X35327000Y-31206720D01*
X35327000Y-31098508D01*
X35287149Y-30898162D01*
X35208978Y-30709440D01*
X35095491Y-30539595D01*
X34951049Y-30395153D01*
X34781204Y-30281666D01*
X34592482Y-30203495D01*
X34392136Y-30163644D01*
X34187864Y-30163644D01*
X33987518Y-30203495D01*
X33798796Y-30281666D01*
X33628951Y-30395153D01*
X33602999Y-30421105D01*
X33602999Y-24833330D01*
X33896314Y-24540015D01*
X33987518Y-24577793D01*
X34187864Y-24617644D01*
X34392136Y-24617644D01*
X34592482Y-24577793D01*
X34781204Y-24499622D01*
X34951049Y-24386135D01*
X35095491Y-24241693D01*
X35208978Y-24071848D01*
X35287149Y-23883126D01*
X35327000Y-23682780D01*
X35327000Y-23478508D01*
X35287149Y-23278162D01*
X35208978Y-23089440D01*
X35095491Y-22919595D01*
X34951049Y-22775153D01*
X34781204Y-22661666D01*
X34592482Y-22583495D01*
X34392136Y-22543644D01*
X34187864Y-22543644D01*
X33987518Y-22583495D01*
X33798796Y-22661666D01*
X33628951Y-22775153D01*
X33484509Y-22919595D01*
X33371022Y-23089440D01*
X33292851Y-23278162D01*
X33253000Y-23478508D01*
X33253000Y-23682780D01*
X33292851Y-23883126D01*
X33330629Y-23974330D01*
X32934047Y-24370912D01*
X32918789Y-24383434D01*
X32906267Y-24398692D01*
X32906264Y-24398695D01*
X32868802Y-24444343D01*
X32831660Y-24513831D01*
X32808787Y-24589232D01*
X32801064Y-24667645D01*
X32803000Y-24687301D01*
X32802999Y-31190721D01*
X32787000Y-31206720D01*
X32787000Y-31098508D01*
X32747149Y-30898162D01*
X32668978Y-30709440D01*
X32555491Y-30539595D01*
X32411049Y-30395153D01*
X32275000Y-30304248D01*
X32275000Y-28981779D01*
X32277539Y-28955999D01*
X32275000Y-28930219D01*
X32275000Y-28930212D01*
X32267403Y-28853082D01*
X32237383Y-28754119D01*
X32188633Y-28662914D01*
X32123027Y-28582973D01*
X32102996Y-28566534D01*
X31062999Y-27526538D01*
X31062999Y-24638012D01*
X31107415Y-24769619D01*
X31351719Y-24872135D01*
X31611330Y-24925020D01*
X31876269Y-24926241D01*
X32136356Y-24875752D01*
X32381596Y-24775493D01*
X32392585Y-24769619D01*
X32466580Y-24550368D01*
X31750000Y-23833788D01*
X31735858Y-23847931D01*
X31482714Y-23594787D01*
X31496856Y-23580644D01*
X32003144Y-23580644D01*
X32719724Y-24297224D01*
X32938975Y-24223229D01*
X33041491Y-23978925D01*
X33094376Y-23719314D01*
X33095597Y-23454375D01*
X33045108Y-23194288D01*
X32944849Y-22949048D01*
X32938975Y-22938059D01*
X32719724Y-22864064D01*
X32003144Y-23580644D01*
X31496856Y-23580644D01*
X31482714Y-23566502D01*
X31735858Y-23313358D01*
X31750000Y-23327500D01*
X32466580Y-22610920D01*
X32392585Y-22391669D01*
X32148281Y-22289153D01*
X31888670Y-22236268D01*
X31623731Y-22235047D01*
X31586112Y-22242350D01*
X32348462Y-21480000D01*
X55002653Y-21480000D01*
X56836058Y-23313406D01*
X56836057Y-25159144D01*
X56700008Y-25250049D01*
X56555566Y-25394491D01*
X56442079Y-25564336D01*
X56363908Y-25753058D01*
X56324057Y-25953404D01*
X56324057Y-26157676D01*
X56363908Y-26358022D01*
X56442079Y-26546744D01*
X56555566Y-26716589D01*
X56700008Y-26861031D01*
X56869853Y-26974518D01*
X57058575Y-27052689D01*
X57258921Y-27092540D01*
X57463193Y-27092540D01*
X57663539Y-27052689D01*
X57729748Y-27025264D01*
X64264477Y-27025264D01*
X64338472Y-27244515D01*
X64582776Y-27347031D01*
X64842387Y-27399916D01*
X65107326Y-27401137D01*
X65367413Y-27350648D01*
X65612653Y-27250389D01*
X65623642Y-27244515D01*
X65697637Y-27025264D01*
X64981057Y-26308684D01*
X64264477Y-27025264D01*
X57729748Y-27025264D01*
X57852261Y-26974518D01*
X58022106Y-26861031D01*
X58166548Y-26716589D01*
X58280035Y-26546744D01*
X58358206Y-26358022D01*
X58393256Y-26181809D01*
X63635460Y-26181809D01*
X63685949Y-26441896D01*
X63786208Y-26687136D01*
X63792082Y-26698125D01*
X64011333Y-26772120D01*
X64727913Y-26055540D01*
X65234201Y-26055540D01*
X65950781Y-26772120D01*
X66170032Y-26698125D01*
X66272548Y-26453821D01*
X66325433Y-26194210D01*
X66326654Y-25929271D01*
X66276165Y-25669184D01*
X66175906Y-25423944D01*
X66170032Y-25412955D01*
X65950781Y-25338960D01*
X65234201Y-26055540D01*
X64727913Y-26055540D01*
X64011333Y-25338960D01*
X63792082Y-25412955D01*
X63689566Y-25657259D01*
X63636681Y-25916870D01*
X63635460Y-26181809D01*
X58393256Y-26181809D01*
X58398057Y-26157676D01*
X58398057Y-25953404D01*
X58358206Y-25753058D01*
X58280035Y-25564336D01*
X58166548Y-25394491D01*
X58022106Y-25250049D01*
X57886057Y-25159144D01*
X57886057Y-25085816D01*
X64264477Y-25085816D01*
X64981057Y-25802396D01*
X65697637Y-25085816D01*
X65623642Y-24866565D01*
X65379338Y-24764049D01*
X65119727Y-24711164D01*
X64854788Y-24709943D01*
X64594701Y-24760432D01*
X64349461Y-24860691D01*
X64338472Y-24866565D01*
X64264477Y-25085816D01*
X57886057Y-25085816D01*
X57886057Y-23313404D01*
X58354927Y-22844535D01*
X58363000Y-22845330D01*
X58863000Y-22845330D01*
X58965682Y-22835217D01*
X59064418Y-22805266D01*
X59155413Y-22756627D01*
X59235172Y-22691172D01*
X59300627Y-22611413D01*
X59323297Y-22569000D01*
X59427179Y-22569000D01*
X59438435Y-22683288D01*
X59471772Y-22793184D01*
X59525908Y-22894465D01*
X59598762Y-22983238D01*
X59687535Y-23056092D01*
X59788816Y-23110228D01*
X59898712Y-23143565D01*
X60013000Y-23154821D01*
X60188250Y-23152000D01*
X60334000Y-23006250D01*
X60334000Y-22023000D01*
X60692000Y-22023000D01*
X60692000Y-23006250D01*
X60837750Y-23152000D01*
X61013000Y-23154821D01*
X61127288Y-23143565D01*
X61237184Y-23110228D01*
X61338465Y-23056092D01*
X61427238Y-22983238D01*
X61500092Y-22894465D01*
X61554228Y-22793184D01*
X61587565Y-22683288D01*
X61598821Y-22569000D01*
X61596000Y-22168750D01*
X61450250Y-22023000D01*
X60692000Y-22023000D01*
X60334000Y-22023000D01*
X59575750Y-22023000D01*
X59430000Y-22168750D01*
X59427179Y-22569000D01*
X59323297Y-22569000D01*
X59349266Y-22520418D01*
X59379217Y-22421682D01*
X59389330Y-22319000D01*
X59389330Y-21369000D01*
X59379217Y-21266318D01*
X59349266Y-21167582D01*
X59323298Y-21119000D01*
X59427179Y-21119000D01*
X59430000Y-21519250D01*
X59575750Y-21665000D01*
X60334000Y-21665000D01*
X60334000Y-20681750D01*
X60692000Y-20681750D01*
X60692000Y-21665000D01*
X61450250Y-21665000D01*
X61596000Y-21519250D01*
X61598821Y-21119000D01*
X61587565Y-21004712D01*
X61554228Y-20894816D01*
X61500092Y-20793535D01*
X61427238Y-20704762D01*
X61338465Y-20631908D01*
X61237184Y-20577772D01*
X61127288Y-20544435D01*
X61013000Y-20533179D01*
X60837750Y-20536000D01*
X60692000Y-20681750D01*
X60334000Y-20681750D01*
X60188250Y-20536000D01*
X60013000Y-20533179D01*
X59898712Y-20544435D01*
X59788816Y-20577772D01*
X59687535Y-20631908D01*
X59598762Y-20704762D01*
X59525908Y-20793535D01*
X59471772Y-20894816D01*
X59438435Y-21004712D01*
X59427179Y-21119000D01*
X59323298Y-21119000D01*
X59300627Y-21076587D01*
X59235172Y-20996828D01*
X59155413Y-20931373D01*
X59064418Y-20882734D01*
X58965682Y-20852783D01*
X58863000Y-20842670D01*
X58363000Y-20842670D01*
X58260318Y-20852783D01*
X58161582Y-20882734D01*
X58070587Y-20931373D01*
X57990828Y-20996828D01*
X57925373Y-21076587D01*
X57876734Y-21167582D01*
X57846783Y-21266318D01*
X57836670Y-21369000D01*
X57836670Y-21877868D01*
X57361057Y-22353481D01*
X55609585Y-20602010D01*
X55593141Y-20581973D01*
X55513200Y-20516367D01*
X55421995Y-20467617D01*
X55323032Y-20437597D01*
X55245902Y-20430000D01*
X55245894Y-20430000D01*
X55220114Y-20427461D01*
X55194334Y-20430000D01*
X32156788Y-20430000D01*
X32131000Y-20427460D01*
X32105212Y-20430000D01*
X32028082Y-20437597D01*
X31929119Y-20467617D01*
X31837914Y-20516367D01*
X31757973Y-20581973D01*
X31741534Y-20602004D01*
X30185004Y-22158535D01*
X30164973Y-22174974D01*
X30148534Y-22195005D01*
X30099366Y-22254916D01*
X30050616Y-22346121D01*
X30020596Y-22445084D01*
X30010460Y-22548001D01*
X30013000Y-22573791D01*
X30012999Y-27718219D01*
X30010460Y-27743999D01*
X30012999Y-27769779D01*
X30012999Y-27769786D01*
X30020596Y-27846916D01*
X30050616Y-27945879D01*
X30099366Y-28037085D01*
X30164972Y-28117026D01*
X30185009Y-28133470D01*
X31225001Y-29173463D01*
X31225000Y-30304248D01*
X31088951Y-30395153D01*
X30944509Y-30539595D01*
X30831022Y-30709440D01*
X30752851Y-30898162D01*
X30713000Y-31098508D01*
X30713000Y-31302780D01*
X30744921Y-31463261D01*
X29787184Y-32420999D01*
X26355462Y-32420999D01*
X27906132Y-30870330D01*
X28415000Y-30870330D01*
X28517682Y-30860217D01*
X28616418Y-30830266D01*
X28707413Y-30781627D01*
X28787172Y-30716172D01*
X28852627Y-30636413D01*
X28901266Y-30545418D01*
X28931217Y-30446682D01*
X28941330Y-30344000D01*
X28941330Y-29844000D01*
X28931217Y-29741318D01*
X28901266Y-29642582D01*
X28852627Y-29551587D01*
X28787172Y-29471828D01*
X28707413Y-29406373D01*
X28616418Y-29357734D01*
X28517682Y-29327783D01*
X28415000Y-29317670D01*
X27465000Y-29317670D01*
X27362318Y-29327783D01*
X27263582Y-29357734D01*
X27172587Y-29406373D01*
X27092828Y-29471828D01*
X27027373Y-29551587D01*
X26978734Y-29642582D01*
X26948783Y-29741318D01*
X26938670Y-29844000D01*
X26938670Y-30344000D01*
X26939465Y-30352073D01*
X25229000Y-32062539D01*
X24190330Y-31023869D01*
X24190330Y-29640000D01*
X24180217Y-29537318D01*
X24150266Y-29438582D01*
X24101627Y-29347587D01*
X24036172Y-29267828D01*
X23956413Y-29202373D01*
X23865418Y-29153734D01*
X23766682Y-29123783D01*
X23664000Y-29113670D01*
X22564000Y-29113670D01*
X22461318Y-29123783D01*
X22362582Y-29153734D01*
X22271587Y-29202373D01*
X22191828Y-29267828D01*
X22126373Y-29347587D01*
X22077734Y-29438582D01*
X22047783Y-29537318D01*
X22037670Y-29640000D01*
X20250000Y-29640000D01*
X20250000Y-28694000D01*
X26629179Y-28694000D01*
X26640435Y-28808288D01*
X26673772Y-28918184D01*
X26727908Y-29019465D01*
X26800762Y-29108238D01*
X26889535Y-29181092D01*
X26990816Y-29235228D01*
X27100712Y-29268565D01*
X27215000Y-29279821D01*
X27615250Y-29277000D01*
X27761000Y-29131250D01*
X27761000Y-28373000D01*
X28119000Y-28373000D01*
X28119000Y-29131250D01*
X28264750Y-29277000D01*
X28665000Y-29279821D01*
X28779288Y-29268565D01*
X28889184Y-29235228D01*
X28990465Y-29181092D01*
X29079238Y-29108238D01*
X29152092Y-29019465D01*
X29206228Y-28918184D01*
X29239565Y-28808288D01*
X29250821Y-28694000D01*
X29248000Y-28518750D01*
X29102250Y-28373000D01*
X28119000Y-28373000D01*
X27761000Y-28373000D01*
X26777750Y-28373000D01*
X26632000Y-28518750D01*
X26629179Y-28694000D01*
X20250000Y-28694000D01*
X20250000Y-27694000D01*
X26629179Y-27694000D01*
X26632000Y-27869250D01*
X26777750Y-28015000D01*
X27761000Y-28015000D01*
X27761000Y-27256750D01*
X28119000Y-27256750D01*
X28119000Y-28015000D01*
X29102250Y-28015000D01*
X29248000Y-27869250D01*
X29250821Y-27694000D01*
X29239565Y-27579712D01*
X29206228Y-27469816D01*
X29152092Y-27368535D01*
X29079238Y-27279762D01*
X28990465Y-27206908D01*
X28889184Y-27152772D01*
X28779288Y-27119435D01*
X28665000Y-27108179D01*
X28264750Y-27111000D01*
X28119000Y-27256750D01*
X27761000Y-27256750D01*
X27615250Y-27111000D01*
X27215000Y-27108179D01*
X27100712Y-27119435D01*
X26990816Y-27152772D01*
X26889535Y-27206908D01*
X26800762Y-27279762D01*
X26727908Y-27368535D01*
X26673772Y-27469816D01*
X26640435Y-27579712D01*
X26629179Y-27694000D01*
X20250000Y-27694000D01*
X20250000Y-23945329D01*
X23017000Y-23945329D01*
X23017000Y-24314671D01*
X23089056Y-24676917D01*
X23230397Y-25018145D01*
X23435593Y-25325243D01*
X23696757Y-25586407D01*
X24003855Y-25791603D01*
X24345083Y-25932944D01*
X24707329Y-26005000D01*
X25076671Y-26005000D01*
X25438917Y-25932944D01*
X25780145Y-25791603D01*
X26087243Y-25586407D01*
X26348407Y-25325243D01*
X26553603Y-25018145D01*
X26694944Y-24676917D01*
X26767000Y-24314671D01*
X26767000Y-23945329D01*
X26694944Y-23583083D01*
X26553603Y-23241855D01*
X26348407Y-22934757D01*
X26087243Y-22673593D01*
X25780145Y-22468397D01*
X25438917Y-22327056D01*
X25076671Y-22255000D01*
X24707329Y-22255000D01*
X24345083Y-22327056D01*
X24003855Y-22468397D01*
X23696757Y-22673593D01*
X23435593Y-22934757D01*
X23230397Y-23241855D01*
X23089056Y-23583083D01*
X23017000Y-23945329D01*
X20250000Y-23945329D01*
X20250000Y-20250000D01*
X69750000Y-20250000D01*
X69750001Y-59750000D01*
G37*
%TD.AperFunction*%
D21*
X44460670Y-46413378D02*
X44460670Y-46618500D01*
X44469823Y-46711427D01*
X44496928Y-46800784D01*
X44540946Y-46883135D01*
X44600184Y-46955316D01*
X44672365Y-47014554D01*
X44754716Y-47058572D01*
X44844073Y-47085677D01*
X44873501Y-47088576D01*
X44873500Y-47616967D01*
X44859082Y-47618387D01*
X44762949Y-47637509D01*
X44711112Y-47653233D01*
X44620556Y-47690742D01*
X44572781Y-47716278D01*
X44491282Y-47770734D01*
X44449407Y-47805099D01*
X44380099Y-47874407D01*
X44345734Y-47916282D01*
X44291278Y-47997781D01*
X44265742Y-48045556D01*
X44228233Y-48136112D01*
X44212509Y-48187949D01*
X44193387Y-48284082D01*
X44188077Y-48337991D01*
X44188077Y-48362553D01*
X44185669Y-48387000D01*
X44185669Y-48887000D01*
X44190979Y-48940910D01*
X44206703Y-48992747D01*
X44230357Y-49037000D01*
X44206703Y-49081253D01*
X44190979Y-49133090D01*
X44185669Y-49187000D01*
X44185669Y-49287000D01*
X43190331Y-49287000D01*
X43190331Y-49187000D01*
X43185021Y-49133090D01*
X43169297Y-49081253D01*
X43145643Y-49037000D01*
X43169297Y-48992747D01*
X43185021Y-48940910D01*
X43190331Y-48887000D01*
X43190331Y-48387000D01*
X43187923Y-48362553D01*
X43187923Y-48337991D01*
X43182613Y-48284082D01*
X43163491Y-48187949D01*
X43147767Y-48136112D01*
X43110258Y-48045556D01*
X43084722Y-47997781D01*
X43030266Y-47916282D01*
X42995901Y-47874407D01*
X42926593Y-47805099D01*
X42884718Y-47770734D01*
X42803219Y-47716278D01*
X42755444Y-47690742D01*
X42664888Y-47653233D01*
X42613051Y-47637509D01*
X42516918Y-47618387D01*
X42502500Y-47616967D01*
X42502500Y-47088575D01*
X42531927Y-47085677D01*
X42621284Y-47058572D01*
X42703635Y-47014554D01*
X42775816Y-46955316D01*
X42835054Y-46883135D01*
X42879072Y-46800784D01*
X42906177Y-46711427D01*
X42915330Y-46618500D01*
X42915330Y-46218500D01*
X42906177Y-46125573D01*
X42879072Y-46036216D01*
X42835054Y-45953865D01*
X42775816Y-45881684D01*
X42703635Y-45822446D01*
X42621284Y-45778428D01*
X42535398Y-45752376D01*
X42639000Y-45754321D01*
X42753288Y-45743065D01*
X42863184Y-45709728D01*
X42964465Y-45655592D01*
X43053238Y-45582738D01*
X43126092Y-45493965D01*
X43180228Y-45392684D01*
X43213565Y-45282788D01*
X43224012Y-45176719D01*
X44460670Y-46413378D01*
%TA.AperFunction,Conductor*%
D22*
G36*
X44460670Y-46413378D02*
G01*
X44460670Y-46618500D01*
X44469823Y-46711427D01*
X44496928Y-46800784D01*
X44540946Y-46883135D01*
X44600184Y-46955316D01*
X44672365Y-47014554D01*
X44754716Y-47058572D01*
X44844073Y-47085677D01*
X44873501Y-47088576D01*
X44873500Y-47616967D01*
X44859082Y-47618387D01*
X44762949Y-47637509D01*
X44711112Y-47653233D01*
X44620556Y-47690742D01*
X44572781Y-47716278D01*
X44491282Y-47770734D01*
X44449407Y-47805099D01*
X44380099Y-47874407D01*
X44345734Y-47916282D01*
X44291278Y-47997781D01*
X44265742Y-48045556D01*
X44228233Y-48136112D01*
X44212509Y-48187949D01*
X44193387Y-48284082D01*
X44188077Y-48337991D01*
X44188077Y-48362553D01*
X44185669Y-48387000D01*
X44185669Y-48887000D01*
X44190979Y-48940910D01*
X44206703Y-48992747D01*
X44230357Y-49037000D01*
X44206703Y-49081253D01*
X44190979Y-49133090D01*
X44185669Y-49187000D01*
X44185669Y-49287000D01*
X43190331Y-49287000D01*
X43190331Y-49187000D01*
X43185021Y-49133090D01*
X43169297Y-49081253D01*
X43145643Y-49037000D01*
X43169297Y-48992747D01*
X43185021Y-48940910D01*
X43190331Y-48887000D01*
X43190331Y-48387000D01*
X43187923Y-48362553D01*
X43187923Y-48337991D01*
X43182613Y-48284082D01*
X43163491Y-48187949D01*
X43147767Y-48136112D01*
X43110258Y-48045556D01*
X43084722Y-47997781D01*
X43030266Y-47916282D01*
X42995901Y-47874407D01*
X42926593Y-47805099D01*
X42884718Y-47770734D01*
X42803219Y-47716278D01*
X42755444Y-47690742D01*
X42664888Y-47653233D01*
X42613051Y-47637509D01*
X42516918Y-47618387D01*
X42502500Y-47616967D01*
X42502500Y-47088575D01*
X42531927Y-47085677D01*
X42621284Y-47058572D01*
X42703635Y-47014554D01*
X42775816Y-46955316D01*
X42835054Y-46883135D01*
X42879072Y-46800784D01*
X42906177Y-46711427D01*
X42915330Y-46618500D01*
X42915330Y-46218500D01*
X42906177Y-46125573D01*
X42879072Y-46036216D01*
X42835054Y-45953865D01*
X42775816Y-45881684D01*
X42703635Y-45822446D01*
X42621284Y-45778428D01*
X42535398Y-45752376D01*
X42639000Y-45754321D01*
X42753288Y-45743065D01*
X42863184Y-45709728D01*
X42964465Y-45655592D01*
X43053238Y-45582738D01*
X43126092Y-45493965D01*
X43180228Y-45392684D01*
X43213565Y-45282788D01*
X43224012Y-45176719D01*
X44460670Y-46413378D01*
G37*
%TD.AperFunction*%
D21*
X37573001Y-48933980D02*
X37571065Y-48953636D01*
X37578788Y-49032049D01*
X37601661Y-49107450D01*
X37638803Y-49176938D01*
X37676265Y-49222586D01*
X37676268Y-49222589D01*
X37688790Y-49237847D01*
X37704047Y-49250369D01*
X37740679Y-49287000D01*
X37094331Y-49287000D01*
X37094331Y-49187000D01*
X37089021Y-49133090D01*
X37073297Y-49081253D01*
X37049643Y-49037000D01*
X37073297Y-48992747D01*
X37089021Y-48940910D01*
X37094331Y-48887000D01*
X37094331Y-48387000D01*
X37091923Y-48362553D01*
X37091923Y-48337991D01*
X37086613Y-48284082D01*
X37067491Y-48187949D01*
X37051767Y-48136112D01*
X37014258Y-48045556D01*
X36988722Y-47997781D01*
X36934266Y-47916282D01*
X36899901Y-47874407D01*
X36830593Y-47805099D01*
X36788718Y-47770734D01*
X36707219Y-47716278D01*
X36659444Y-47690742D01*
X36568888Y-47653233D01*
X36517051Y-47637509D01*
X36420918Y-47618387D01*
X36406500Y-47616967D01*
X36406500Y-47088575D01*
X36435927Y-47085677D01*
X36525284Y-47058572D01*
X36607635Y-47014554D01*
X36679816Y-46955316D01*
X36739054Y-46883135D01*
X36783072Y-46800784D01*
X36810177Y-46711427D01*
X36819330Y-46618500D01*
X36819330Y-46218500D01*
X36810177Y-46125573D01*
X36783072Y-46036216D01*
X36739054Y-45953865D01*
X36679816Y-45881684D01*
X36607635Y-45822446D01*
X36525284Y-45778428D01*
X36439398Y-45752376D01*
X36543000Y-45754321D01*
X36657288Y-45743065D01*
X36767184Y-45709728D01*
X36868465Y-45655592D01*
X36957238Y-45582738D01*
X37030092Y-45493965D01*
X37084228Y-45392684D01*
X37117565Y-45282788D01*
X37128821Y-45168500D01*
X37126000Y-45093250D01*
X36980250Y-44947500D01*
X36247000Y-44947500D01*
X36247000Y-44967500D01*
X35889000Y-44967500D01*
X35889000Y-44947500D01*
X35155750Y-44947500D01*
X35010000Y-45093250D01*
X35007179Y-45168500D01*
X35018435Y-45282788D01*
X35051772Y-45392684D01*
X35105908Y-45493965D01*
X35178762Y-45582738D01*
X35267535Y-45655592D01*
X35368816Y-45709728D01*
X35478712Y-45743065D01*
X35593000Y-45754321D01*
X35696602Y-45752376D01*
X35610716Y-45778428D01*
X35528365Y-45822446D01*
X35456184Y-45881684D01*
X35396946Y-45953865D01*
X35352928Y-46036216D01*
X35325823Y-46125573D01*
X35316670Y-46218500D01*
X35316670Y-46604145D01*
X34155814Y-47765001D01*
X31295988Y-47765001D01*
X31353844Y-47707145D01*
X31476962Y-47522887D01*
X31561767Y-47318150D01*
X31605000Y-47100803D01*
X31605000Y-46879197D01*
X31561767Y-46661850D01*
X31506723Y-46528962D01*
X33592195Y-44443490D01*
X35009990Y-44443490D01*
X35010000Y-44443750D01*
X35155750Y-44589500D01*
X35889000Y-44589500D01*
X35889000Y-44569500D01*
X36247000Y-44569500D01*
X36247000Y-44589500D01*
X36980250Y-44589500D01*
X37126000Y-44443750D01*
X37128821Y-44368500D01*
X37117565Y-44254212D01*
X37084228Y-44144316D01*
X37030092Y-44043035D01*
X36957238Y-43954262D01*
X36868465Y-43881408D01*
X36786232Y-43837453D01*
X37573000Y-43050686D01*
X37573001Y-48933980D01*
%TA.AperFunction,Conductor*%
D22*
G36*
X37573001Y-48933980D02*
G01*
X37571065Y-48953636D01*
X37578788Y-49032049D01*
X37601661Y-49107450D01*
X37638803Y-49176938D01*
X37676265Y-49222586D01*
X37676268Y-49222589D01*
X37688790Y-49237847D01*
X37704047Y-49250369D01*
X37740679Y-49287000D01*
X37094331Y-49287000D01*
X37094331Y-49187000D01*
X37089021Y-49133090D01*
X37073297Y-49081253D01*
X37049643Y-49037000D01*
X37073297Y-48992747D01*
X37089021Y-48940910D01*
X37094331Y-48887000D01*
X37094331Y-48387000D01*
X37091923Y-48362553D01*
X37091923Y-48337991D01*
X37086613Y-48284082D01*
X37067491Y-48187949D01*
X37051767Y-48136112D01*
X37014258Y-48045556D01*
X36988722Y-47997781D01*
X36934266Y-47916282D01*
X36899901Y-47874407D01*
X36830593Y-47805099D01*
X36788718Y-47770734D01*
X36707219Y-47716278D01*
X36659444Y-47690742D01*
X36568888Y-47653233D01*
X36517051Y-47637509D01*
X36420918Y-47618387D01*
X36406500Y-47616967D01*
X36406500Y-47088575D01*
X36435927Y-47085677D01*
X36525284Y-47058572D01*
X36607635Y-47014554D01*
X36679816Y-46955316D01*
X36739054Y-46883135D01*
X36783072Y-46800784D01*
X36810177Y-46711427D01*
X36819330Y-46618500D01*
X36819330Y-46218500D01*
X36810177Y-46125573D01*
X36783072Y-46036216D01*
X36739054Y-45953865D01*
X36679816Y-45881684D01*
X36607635Y-45822446D01*
X36525284Y-45778428D01*
X36439398Y-45752376D01*
X36543000Y-45754321D01*
X36657288Y-45743065D01*
X36767184Y-45709728D01*
X36868465Y-45655592D01*
X36957238Y-45582738D01*
X37030092Y-45493965D01*
X37084228Y-45392684D01*
X37117565Y-45282788D01*
X37128821Y-45168500D01*
X37126000Y-45093250D01*
X36980250Y-44947500D01*
X36247000Y-44947500D01*
X36247000Y-44967500D01*
X35889000Y-44967500D01*
X35889000Y-44947500D01*
X35155750Y-44947500D01*
X35010000Y-45093250D01*
X35007179Y-45168500D01*
X35018435Y-45282788D01*
X35051772Y-45392684D01*
X35105908Y-45493965D01*
X35178762Y-45582738D01*
X35267535Y-45655592D01*
X35368816Y-45709728D01*
X35478712Y-45743065D01*
X35593000Y-45754321D01*
X35696602Y-45752376D01*
X35610716Y-45778428D01*
X35528365Y-45822446D01*
X35456184Y-45881684D01*
X35396946Y-45953865D01*
X35352928Y-46036216D01*
X35325823Y-46125573D01*
X35316670Y-46218500D01*
X35316670Y-46604145D01*
X34155814Y-47765001D01*
X31295988Y-47765001D01*
X31353844Y-47707145D01*
X31476962Y-47522887D01*
X31561767Y-47318150D01*
X31605000Y-47100803D01*
X31605000Y-46879197D01*
X31561767Y-46661850D01*
X31506723Y-46528962D01*
X33592195Y-44443490D01*
X35009990Y-44443490D01*
X35010000Y-44443750D01*
X35155750Y-44589500D01*
X35889000Y-44589500D01*
X35889000Y-44569500D01*
X36247000Y-44569500D01*
X36247000Y-44589500D01*
X36980250Y-44589500D01*
X37126000Y-44443750D01*
X37128821Y-44368500D01*
X37117565Y-44254212D01*
X37084228Y-44144316D01*
X37030092Y-44043035D01*
X36957238Y-43954262D01*
X36868465Y-43881408D01*
X36786232Y-43837453D01*
X37573000Y-43050686D01*
X37573001Y-48933980D01*
G37*
%TD.AperFunction*%
D21*
X50976669Y-43785376D02*
X50833000Y-43782679D01*
X50718712Y-43793935D01*
X50608816Y-43827272D01*
X50507535Y-43881408D01*
X50418762Y-43954262D01*
X50345908Y-44043035D01*
X50291772Y-44144316D01*
X50258435Y-44254212D01*
X50247179Y-44368500D01*
X50250000Y-44443750D01*
X50395750Y-44589500D01*
X51129000Y-44589500D01*
X51129000Y-44569500D01*
X51487000Y-44569500D01*
X51487000Y-44589500D01*
X51507000Y-44589500D01*
X51507000Y-44947500D01*
X51487000Y-44947500D01*
X51487000Y-44967500D01*
X51129000Y-44967500D01*
X51129000Y-44947500D01*
X50395750Y-44947500D01*
X50308957Y-45034294D01*
X45694663Y-40420000D01*
X47611293Y-40420000D01*
X50976669Y-43785376D01*
%TA.AperFunction,Conductor*%
D22*
G36*
X50976669Y-43785376D02*
G01*
X50833000Y-43782679D01*
X50718712Y-43793935D01*
X50608816Y-43827272D01*
X50507535Y-43881408D01*
X50418762Y-43954262D01*
X50345908Y-44043035D01*
X50291772Y-44144316D01*
X50258435Y-44254212D01*
X50247179Y-44368500D01*
X50250000Y-44443750D01*
X50395750Y-44589500D01*
X51129000Y-44589500D01*
X51129000Y-44569500D01*
X51487000Y-44569500D01*
X51487000Y-44589500D01*
X51507000Y-44589500D01*
X51507000Y-44947500D01*
X51487000Y-44947500D01*
X51487000Y-44967500D01*
X51129000Y-44967500D01*
X51129000Y-44947500D01*
X50395750Y-44947500D01*
X50308957Y-45034294D01*
X45694663Y-40420000D01*
X47611293Y-40420000D01*
X50976669Y-43785376D01*
G37*
%TD.AperFunction*%
D21*
X44880669Y-43785376D02*
X44737000Y-43782679D01*
X44622712Y-43793935D01*
X44512816Y-43827272D01*
X44411535Y-43881408D01*
X44322762Y-43954262D01*
X44249908Y-44043035D01*
X44195772Y-44144316D01*
X44162435Y-44254212D01*
X44151179Y-44368500D01*
X44154000Y-44443750D01*
X44299750Y-44589500D01*
X45033000Y-44589500D01*
X45033000Y-44569500D01*
X45391000Y-44569500D01*
X45391000Y-44589500D01*
X45411000Y-44589500D01*
X45411000Y-44947500D01*
X45391000Y-44947500D01*
X45391000Y-44967500D01*
X45033000Y-44967500D01*
X45033000Y-44947500D01*
X44299750Y-44947500D01*
X44212957Y-45034293D01*
X41094715Y-41916052D01*
X41082189Y-41900789D01*
X41021281Y-41850803D01*
X40951792Y-41813660D01*
X40876392Y-41790788D01*
X40817625Y-41785000D01*
X40817624Y-41785000D01*
X40797978Y-41783065D01*
X40778332Y-41785000D01*
X40477647Y-41785000D01*
X40501175Y-41756330D01*
X41325200Y-41756330D01*
X41381606Y-41750774D01*
X41435845Y-41734321D01*
X41462638Y-41720000D01*
X42815293Y-41720000D01*
X44880669Y-43785376D01*
%TA.AperFunction,Conductor*%
D22*
G36*
X44880669Y-43785376D02*
G01*
X44737000Y-43782679D01*
X44622712Y-43793935D01*
X44512816Y-43827272D01*
X44411535Y-43881408D01*
X44322762Y-43954262D01*
X44249908Y-44043035D01*
X44195772Y-44144316D01*
X44162435Y-44254212D01*
X44151179Y-44368500D01*
X44154000Y-44443750D01*
X44299750Y-44589500D01*
X45033000Y-44589500D01*
X45033000Y-44569500D01*
X45391000Y-44569500D01*
X45391000Y-44589500D01*
X45411000Y-44589500D01*
X45411000Y-44947500D01*
X45391000Y-44947500D01*
X45391000Y-44967500D01*
X45033000Y-44967500D01*
X45033000Y-44947500D01*
X44299750Y-44947500D01*
X44212957Y-45034293D01*
X41094715Y-41916052D01*
X41082189Y-41900789D01*
X41021281Y-41850803D01*
X40951792Y-41813660D01*
X40876392Y-41790788D01*
X40817625Y-41785000D01*
X40817624Y-41785000D01*
X40797978Y-41783065D01*
X40778332Y-41785000D01*
X40477647Y-41785000D01*
X40501175Y-41756330D01*
X41325200Y-41756330D01*
X41381606Y-41750774D01*
X41435845Y-41734321D01*
X41462638Y-41720000D01*
X42815293Y-41720000D01*
X44880669Y-43785376D01*
G37*
%TD.AperFunction*%
D21*
X47928669Y-43785376D02*
X47785000Y-43782679D01*
X47670712Y-43793935D01*
X47560816Y-43827272D01*
X47459535Y-43881408D01*
X47370762Y-43954262D01*
X47297908Y-44043035D01*
X47243772Y-44144316D01*
X47210435Y-44254212D01*
X47199179Y-44368500D01*
X47202000Y-44443750D01*
X47347750Y-44589500D01*
X48081000Y-44589500D01*
X48081000Y-44569500D01*
X48439000Y-44569500D01*
X48439000Y-44589500D01*
X48459000Y-44589500D01*
X48459000Y-44947500D01*
X48439000Y-44947500D01*
X48439000Y-44967500D01*
X48081000Y-44967500D01*
X48081000Y-44947500D01*
X47347750Y-44947500D01*
X47260957Y-45034293D01*
X43296663Y-41070000D01*
X45213293Y-41070000D01*
X47928669Y-43785376D01*
%TA.AperFunction,Conductor*%
D22*
G36*
X47928669Y-43785376D02*
G01*
X47785000Y-43782679D01*
X47670712Y-43793935D01*
X47560816Y-43827272D01*
X47459535Y-43881408D01*
X47370762Y-43954262D01*
X47297908Y-44043035D01*
X47243772Y-44144316D01*
X47210435Y-44254212D01*
X47199179Y-44368500D01*
X47202000Y-44443750D01*
X47347750Y-44589500D01*
X48081000Y-44589500D01*
X48081000Y-44569500D01*
X48439000Y-44569500D01*
X48439000Y-44589500D01*
X48459000Y-44589500D01*
X48459000Y-44947500D01*
X48439000Y-44947500D01*
X48439000Y-44967500D01*
X48081000Y-44967500D01*
X48081000Y-44947500D01*
X47347750Y-44947500D01*
X47260957Y-45034293D01*
X43296663Y-41070000D01*
X45213293Y-41070000D01*
X47928669Y-43785376D01*
G37*
%TD.AperFunction*%
D21*
X39295000Y-44589500D02*
X39315000Y-44589500D01*
X39315000Y-44947500D01*
X39295000Y-44947500D01*
X39295000Y-44967500D01*
X38937000Y-44967500D01*
X38937000Y-44947500D01*
X38917000Y-44947500D01*
X38917000Y-44589500D01*
X38937000Y-44589500D01*
X38937000Y-44569500D01*
X39295000Y-44569500D01*
X39295000Y-44589500D01*
%TA.AperFunction,Conductor*%
D22*
G36*
X39295000Y-44589500D02*
G01*
X39315000Y-44589500D01*
X39315000Y-44947500D01*
X39295000Y-44947500D01*
X39295000Y-44967500D01*
X38937000Y-44967500D01*
X38937000Y-44947500D01*
X38917000Y-44947500D01*
X38917000Y-44589500D01*
X38937000Y-44589500D01*
X38937000Y-44569500D01*
X39295000Y-44569500D01*
X39295000Y-44589500D01*
G37*
%TD.AperFunction*%
D21*
X42343000Y-44589500D02*
X42363000Y-44589500D01*
X42363000Y-44947500D01*
X42343000Y-44947500D01*
X42343000Y-44967500D01*
X41985000Y-44967500D01*
X41985000Y-44947500D01*
X41965000Y-44947500D01*
X41965000Y-44589500D01*
X41985000Y-44589500D01*
X41985000Y-44569500D01*
X42343000Y-44569500D01*
X42343000Y-44589500D01*
%TA.AperFunction,Conductor*%
D22*
G36*
X42343000Y-44589500D02*
G01*
X42363000Y-44589500D01*
X42363000Y-44947500D01*
X42343000Y-44947500D01*
X42343000Y-44967500D01*
X41985000Y-44967500D01*
X41985000Y-44947500D01*
X41965000Y-44947500D01*
X41965000Y-44589500D01*
X41985000Y-44589500D01*
X41985000Y-44569500D01*
X42343000Y-44569500D01*
X42343000Y-44589500D01*
G37*
%TD.AperFunction*%
D21*
X38784669Y-43785376D02*
X38641000Y-43782679D01*
X38526712Y-43793935D01*
X38416816Y-43827272D01*
X38373000Y-43850692D01*
X38373000Y-43373707D01*
X38784669Y-43785376D01*
%TA.AperFunction,Conductor*%
D22*
G36*
X38784669Y-43785376D02*
G01*
X38641000Y-43782679D01*
X38526712Y-43793935D01*
X38416816Y-43827272D01*
X38373000Y-43850692D01*
X38373000Y-43373707D01*
X38784669Y-43785376D01*
G37*
%TD.AperFunction*%
D21*
X35280000Y-41860250D02*
X35425750Y-42006000D01*
X35938000Y-42006000D01*
X35938000Y-42005796D01*
X36108000Y-42005519D01*
X36108000Y-42006000D01*
X36183000Y-42006000D01*
X36183000Y-42364000D01*
X36108000Y-42364000D01*
X36108000Y-42384000D01*
X35938000Y-42384000D01*
X35938000Y-42364000D01*
X35425750Y-42364000D01*
X35280000Y-42509750D01*
X35277696Y-42710395D01*
X35284142Y-42825055D01*
X35312834Y-42936254D01*
X35362668Y-43039719D01*
X35431729Y-43131474D01*
X35501122Y-43193480D01*
X33850205Y-43193480D01*
X35278904Y-41764782D01*
X35280000Y-41860250D01*
%TA.AperFunction,Conductor*%
D22*
G36*
X35280000Y-41860250D02*
G01*
X35425750Y-42006000D01*
X35938000Y-42006000D01*
X35938000Y-42005796D01*
X36108000Y-42005519D01*
X36108000Y-42006000D01*
X36183000Y-42006000D01*
X36183000Y-42364000D01*
X36108000Y-42364000D01*
X36108000Y-42384000D01*
X35938000Y-42384000D01*
X35938000Y-42364000D01*
X35425750Y-42364000D01*
X35280000Y-42509750D01*
X35277696Y-42710395D01*
X35284142Y-42825055D01*
X35312834Y-42936254D01*
X35362668Y-43039719D01*
X35431729Y-43131474D01*
X35501122Y-43193480D01*
X33850205Y-43193480D01*
X35278904Y-41764782D01*
X35280000Y-41860250D01*
G37*
%TD.AperFunction*%
D21*
X56324057Y-36317676D02*
X56363908Y-36518022D01*
X56442079Y-36706744D01*
X56555566Y-36876589D01*
X56700008Y-37021031D01*
X56832554Y-37109596D01*
X54083150Y-39859000D01*
X53709679Y-39859000D01*
X53707000Y-38932750D01*
X53561250Y-38787000D01*
X52503000Y-38787000D01*
X52503000Y-38807000D01*
X52145000Y-38807000D01*
X52145000Y-38787000D01*
X51086750Y-38787000D01*
X50941000Y-38932750D01*
X50940597Y-39072101D01*
X49238485Y-37369990D01*
X50938358Y-37369990D01*
X50941000Y-38283250D01*
X51086750Y-38429000D01*
X52145000Y-38429000D01*
X52145000Y-38409000D01*
X52503000Y-38409000D01*
X52503000Y-38429000D01*
X53561250Y-38429000D01*
X53707000Y-38283250D01*
X53709642Y-37369990D01*
X54978199Y-37369990D01*
X54997845Y-37371925D01*
X55017491Y-37369990D01*
X55017492Y-37369990D01*
X55076259Y-37364202D01*
X55151659Y-37341330D01*
X55221148Y-37304187D01*
X55282056Y-37254201D01*
X55294582Y-37238938D01*
X56324057Y-36209463D01*
X56324057Y-36317676D01*
%TA.AperFunction,Conductor*%
D22*
G36*
X56324057Y-36317676D02*
G01*
X56363908Y-36518022D01*
X56442079Y-36706744D01*
X56555566Y-36876589D01*
X56700008Y-37021031D01*
X56832554Y-37109596D01*
X54083150Y-39859000D01*
X53709679Y-39859000D01*
X53707000Y-38932750D01*
X53561250Y-38787000D01*
X52503000Y-38787000D01*
X52503000Y-38807000D01*
X52145000Y-38807000D01*
X52145000Y-38787000D01*
X51086750Y-38787000D01*
X50941000Y-38932750D01*
X50940597Y-39072101D01*
X49238485Y-37369990D01*
X50938358Y-37369990D01*
X50941000Y-38283250D01*
X51086750Y-38429000D01*
X52145000Y-38429000D01*
X52145000Y-38409000D01*
X52503000Y-38409000D01*
X52503000Y-38429000D01*
X53561250Y-38429000D01*
X53707000Y-38283250D01*
X53709642Y-37369990D01*
X54978199Y-37369990D01*
X54997845Y-37371925D01*
X55017491Y-37369990D01*
X55017492Y-37369990D01*
X55076259Y-37364202D01*
X55151659Y-37341330D01*
X55221148Y-37304187D01*
X55282056Y-37254201D01*
X55294582Y-37238938D01*
X56324057Y-36209463D01*
X56324057Y-36317676D01*
G37*
%TD.AperFunction*%
D21*
X38058000Y-36376000D02*
X38133000Y-36376000D01*
X38133000Y-36734000D01*
X38058000Y-36734000D01*
X38058000Y-37542250D01*
X38152000Y-37636250D01*
X38152000Y-39191000D01*
X38172000Y-39191000D01*
X38172000Y-39549000D01*
X38152000Y-39549000D01*
X38152000Y-39569000D01*
X37794000Y-39569000D01*
X37794000Y-39549000D01*
X37774000Y-39549000D01*
X37774000Y-39191000D01*
X37794000Y-39191000D01*
X37794000Y-37636250D01*
X37888000Y-37542250D01*
X37888000Y-36734000D01*
X37813000Y-36734000D01*
X37813000Y-36376000D01*
X37888000Y-36376000D01*
X37888000Y-36356000D01*
X38058000Y-36356000D01*
X38058000Y-36376000D01*
%TA.AperFunction,Conductor*%
D22*
G36*
X38058000Y-36376000D02*
G01*
X38133000Y-36376000D01*
X38133000Y-36734000D01*
X38058000Y-36734000D01*
X38058000Y-37542250D01*
X38152000Y-37636250D01*
X38152000Y-39191000D01*
X38172000Y-39191000D01*
X38172000Y-39549000D01*
X38152000Y-39549000D01*
X38152000Y-39569000D01*
X37794000Y-39569000D01*
X37794000Y-39549000D01*
X37774000Y-39549000D01*
X37774000Y-39191000D01*
X37794000Y-39191000D01*
X37794000Y-37636250D01*
X37888000Y-37542250D01*
X37888000Y-36734000D01*
X37813000Y-36734000D01*
X37813000Y-36376000D01*
X37888000Y-36376000D01*
X37888000Y-36356000D01*
X38058000Y-36356000D01*
X38058000Y-36376000D01*
G37*
%TD.AperFunction*%
%TD*%
M02*
