M48
; DRILL file {KiCad 5.1.10-88a1d61d58~90~ubuntu20.04.1} date Thu Nov 11 20:41:07 2021
; FORMAT={-:-/ absolute / inch / decimal}
; #@! TF.CreationDate,2021-11-11T20:41:07-05:00
; #@! TF.GenerationSoftware,Kicad,Pcbnew,5.1.10-88a1d61d58~90~ubuntu20.04.1
; #@! TF.FileFunction,Plated,1,2,PTH
FMAT,2
INCH
T1C0.0079
T2C0.0157
T3C0.0315
T4C0.0320
T5C0.0394
%
G90
G05
T1
X1.35Y-1.775
X1.375Y-1.675
X1.45Y-1.8
X1.5213Y-1.7251
X1.725Y-1.7
X1.725Y-1.825
X1.85Y-1.725
X1.975Y-1.725
T2
X1.015Y-1.96
X2.13Y-1.375
T3
X1.0189Y-2.0813
X1.0189Y-2.16
X1.0976Y-2.0813
X1.0976Y-2.16
X1.1764Y-2.0813
X1.1764Y-2.16
X1.2551Y-2.0813
X1.2551Y-2.16
X1.3339Y-2.0813
X1.3339Y-2.16
X1.4126Y-2.0813
X1.4126Y-2.16
X1.4913Y-2.0813
X1.4913Y-2.16
X1.5701Y-2.0813
X1.5701Y-2.16
X1.6488Y-2.0813
X1.6488Y-2.16
X1.7276Y-2.0813
X1.7276Y-2.16
X1.8063Y-2.0813
X1.8063Y-2.16
X1.885Y-2.0813
X1.885Y-2.16
X1.9638Y-2.0813
X1.9638Y-2.16
X2.0425Y-2.0813
X2.0425Y-2.16
X2.1213Y-2.0813
X2.1213Y-2.16
X2.2Y-2.0813
X2.2Y-2.16
T4
X1.25Y-0.9284
X1.25Y-1.2284
X1.35Y-0.9284
X1.35Y-1.2284
X1.45Y-0.9284
X1.45Y-1.2284
X1.55Y-0.9284
X1.55Y-1.2284
X1.65Y-0.9284
X1.65Y-1.2284
X1.75Y-0.9284
X1.75Y-1.2284
X1.85Y-0.9284
X1.85Y-1.2284
X1.95Y-0.9284
X1.95Y-1.2284
X2.05Y-0.9284
X2.05Y-1.2284
X2.2583Y-1.0258
X2.2583Y-1.1258
X2.2583Y-1.2258
X2.2583Y-1.3258
X2.2583Y-1.4258
X2.2583Y-1.5258
X2.2583Y-1.6258
X2.2583Y-1.7258
X2.2583Y-1.8258
X2.5583Y-1.0258
X2.5583Y-1.1258
X2.5583Y-1.2258
X2.5583Y-1.3258
X2.5583Y-1.4258
X2.5583Y-1.5258
X2.5583Y-1.6258
X2.5583Y-1.7258
X2.5583Y-1.8258
T5
X1.05Y-1.45
X1.05Y-1.55
X1.05Y-1.65
X1.05Y-1.75
X1.05Y-1.85
X1.2Y-1.45
X1.2Y-1.55
X1.2Y-1.65
X1.2Y-1.75
X1.2Y-1.85
T0
M30
